<?xml version="1.0" encoding="UTF-8" standalone="no"?>
<!DOCTYPE svg PUBLIC "-//W3C//DTD SVG 1.1//EN"
 "http://www.w3.org/Graphics/SVG/1.1/DTD/svg11.dtd">
<!-- Generated by graphviz version 2.38.0 (20140413.2041)
 -->
<!-- Title: %3 Pages: 1 -->
<svg width="1430pt" height="764pt"
 viewBox="0.00 0.00 1430.49 764.00" xmlns="http://www.w3.org/2000/svg" xmlns:xlink="http://www.w3.org/1999/xlink">
<g id="graph0" class="graph" transform="scale(1 1) rotate(0) translate(4 760)">
<title>%3</title>
<polygon fill="white" stroke="none" points="-4,4 -4,-760 1426.49,-760 1426.49,4 -4,4"/>
<!-- soy yo -->
<g id="node1" class="node"><title>soy yo</title>
<ellipse fill="green" stroke="black" cx="784.545" cy="-738" rx="59.5901" ry="18"/>
<text text-anchor="middle" x="784.545" y="-734.3" font-family="Helvetica,sans-Serif" font-size="14.00" fill="white">172.20.10.2 </text>
</g>
<!-- 172.20.10.1 -->
<g id="node12" class="node"><title>172.20.10.1</title>
<polygon fill="lightgrey" stroke="black" points="828.545,-684 740.545,-684 740.545,-648 828.545,-648 828.545,-684"/>
<text text-anchor="middle" x="784.545" y="-662.3" font-family="Helvetica,sans-Serif" font-size="14.00">172.20.10.1</text>
</g>
<!-- soy yo&#45;&#45;172.20.10.1 -->
<g id="edge1" class="edge"><title>soy yo&#45;&#45;172.20.10.1</title>
<path fill="none" stroke="black" d="M784.545,-719.697C784.545,-708.846 784.545,-694.917 784.545,-684.104"/>
</g>
<!-- google.com -->
<g id="node2" class="node"><title>google.com</title>
<ellipse fill="green" stroke="black" cx="56.545" cy="-90" rx="56.59" ry="18"/>
<text text-anchor="middle" x="56.545" y="-86.3" font-family="Helvetica,sans-Serif" font-size="14.00" fill="white">google.com</text>
</g>
<!-- deanturpin.github.io -->
<g id="node3" class="node"><title>deanturpin.github.io</title>
<ellipse fill="green" stroke="black" cx="218.545" cy="-90" rx="87.9851" ry="18"/>
<text text-anchor="middle" x="218.545" y="-86.3" font-family="Helvetica,sans-Serif" font-size="14.00" fill="white">deanturpin.github.io</text>
</g>
<!-- github.com -->
<g id="node4" class="node"><title>github.com</title>
<ellipse fill="green" stroke="black" cx="1368.54" cy="-18" rx="53.8905" ry="18"/>
<text text-anchor="middle" x="1368.54" y="-14.3" font-family="Helvetica,sans-Serif" font-size="14.00" fill="white">github.com</text>
</g>
<!-- silobrighton.com -->
<g id="node5" class="node"><title>silobrighton.com</title>
<ellipse fill="red" stroke="black" cx="399.545" cy="-90" rx="75.2868" ry="18"/>
<text text-anchor="middle" x="399.545" y="-86.3" font-family="Helvetica,sans-Serif" font-size="14.00" fill="white">silobrighton.com</text>
</g>
<!-- instagram.com -->
<g id="node6" class="node"><title>instagram.com</title>
<ellipse fill="green" stroke="black" cx="562.545" cy="-90" rx="69.5877" ry="18"/>
<text text-anchor="middle" x="562.545" y="-86.3" font-family="Helvetica,sans-Serif" font-size="14.00" fill="white">instagram.com</text>
</g>
<!-- monzo.com -->
<g id="node7" class="node"><title>monzo.com</title>
<ellipse fill="green" stroke="black" cx="707.545" cy="-90" rx="57.3905" ry="18"/>
<text text-anchor="middle" x="707.545" y="-86.3" font-family="Helvetica,sans-Serif" font-size="14.00" fill="white">monzo.com</text>
</g>
<!-- infinityfoods.coop -->
<g id="node8" class="node"><title>infinityfoods.coop</title>
<ellipse fill="green" stroke="black" cx="861.545" cy="-90" rx="78.7863" ry="18"/>
<text text-anchor="middle" x="861.545" y="-86.3" font-family="Helvetica,sans-Serif" font-size="14.00" fill="white">infinityfoods.coop</text>
</g>
<!-- roli.com -->
<g id="node9" class="node"><title>roli.com</title>
<ellipse fill="red" stroke="black" cx="1000.54" cy="-90" rx="42.4939" ry="18"/>
<text text-anchor="middle" x="1000.54" y="-86.3" font-family="Helvetica,sans-Serif" font-size="14.00" fill="white">roli.com</text>
</g>
<!-- 4.4.4.4 -->
<g id="node10" class="node"><title>4.4.4.4</title>
<ellipse fill="red" stroke="black" cx="1098.54" cy="-90" rx="37.8943" ry="18"/>
<text text-anchor="middle" x="1098.54" y="-86.3" font-family="Helvetica,sans-Serif" font-size="14.00" fill="white">4.4.4.4</text>
</g>
<!-- instragram.com -->
<g id="node11" class="node"><title>instragram.com</title>
<ellipse fill="red" stroke="black" cx="1226.54" cy="-90" rx="72.2875" ry="18"/>
<text text-anchor="middle" x="1226.54" y="-86.3" font-family="Helvetica,sans-Serif" font-size="14.00" fill="white">instragram.com</text>
</g>
<!-- 10.248.28.153 -->
<g id="node13" class="node"><title>10.248.28.153</title>
<polygon fill="lightgrey" stroke="black" points="776.045,-612 673.045,-612 673.045,-576 776.045,-576 776.045,-612"/>
<text text-anchor="middle" x="724.545" y="-590.3" font-family="Helvetica,sans-Serif" font-size="14.00">10.248.28.153</text>
</g>
<!-- 172.20.10.1&#45;&#45;10.248.28.153 -->
<g id="edge2" class="edge"><title>172.20.10.1&#45;&#45;10.248.28.153</title>
<path fill="none" stroke="black" d="M769.714,-647.697C760.413,-636.846 748.474,-622.917 739.206,-612.104"/>
</g>
<!-- 10.248.28.145 -->
<g id="node20" class="node"><title>10.248.28.145</title>
<polygon fill="lightgrey" stroke="black" points="897.045,-612 794.045,-612 794.045,-576 897.045,-576 897.045,-612"/>
<text text-anchor="middle" x="845.545" y="-590.3" font-family="Helvetica,sans-Serif" font-size="14.00">10.248.28.145</text>
</g>
<!-- 172.20.10.1&#45;&#45;10.248.28.145 -->
<g id="edge10" class="edge"><title>172.20.10.1&#45;&#45;10.248.28.145</title>
<path fill="none" stroke="black" d="M799.624,-647.697C809.079,-636.846 821.218,-622.917 830.64,-612.104"/>
</g>
<!-- 10.247.84.27 -->
<g id="node14" class="node"><title>10.247.84.27</title>
<polygon fill="lightgrey" stroke="black" points="774.045,-540 679.045,-540 679.045,-504 774.045,-504 774.045,-540"/>
<text text-anchor="middle" x="726.545" y="-518.3" font-family="Helvetica,sans-Serif" font-size="14.00">10.247.84.27</text>
</g>
<!-- 10.248.28.153&#45;&#45;10.247.84.27 -->
<g id="edge3" class="edge"><title>10.248.28.153&#45;&#45;10.247.84.27</title>
<path fill="none" stroke="black" d="M725.039,-575.697C725.349,-564.846 725.747,-550.917 726.056,-540.104"/>
</g>
<!-- 10.247.84.6 -->
<g id="node15" class="node"><title>10.247.84.6</title>
<polygon fill="lightgrey" stroke="black" points="828.545,-468 740.545,-468 740.545,-432 828.545,-432 828.545,-468"/>
<text text-anchor="middle" x="784.545" y="-446.3" font-family="Helvetica,sans-Serif" font-size="14.00">10.247.84.6</text>
</g>
<!-- 10.247.84.27&#45;&#45;10.247.84.6 -->
<g id="edge4" class="edge"><title>10.247.84.27&#45;&#45;10.247.84.6</title>
<path fill="none" stroke="black" d="M740.882,-503.697C749.872,-492.846 761.414,-478.917 770.373,-468.104"/>
</g>
<!-- 10.247.84.9 -->
<g id="node16" class="node"><title>10.247.84.9</title>
<polygon fill="lightgrey" stroke="black" points="828.545,-396 740.545,-396 740.545,-360 828.545,-360 828.545,-396"/>
<text text-anchor="middle" x="784.545" y="-374.3" font-family="Helvetica,sans-Serif" font-size="14.00">10.247.84.9</text>
</g>
<!-- 10.247.84.6&#45;&#45;10.247.84.9 -->
<g id="edge5" class="edge"><title>10.247.84.6&#45;&#45;10.247.84.9</title>
<path fill="none" stroke="black" d="M784.545,-431.697C784.545,-420.846 784.545,-406.917 784.545,-396.104"/>
</g>
<!-- 10.247.84.18 -->
<g id="node17" class="node"><title>10.247.84.18</title>
<polygon fill="lightgrey" stroke="black" points="832.045,-324 737.045,-324 737.045,-288 832.045,-288 832.045,-324"/>
<text text-anchor="middle" x="784.545" y="-302.3" font-family="Helvetica,sans-Serif" font-size="14.00">10.247.84.18</text>
</g>
<!-- 10.247.84.9&#45;&#45;10.247.84.18 -->
<g id="edge6" class="edge"><title>10.247.84.9&#45;&#45;10.247.84.18</title>
<path fill="none" stroke="black" d="M784.545,-359.697C784.545,-348.846 784.545,-334.917 784.545,-324.104"/>
</g>
<!-- 87.237.20.224 -->
<g id="node18" class="node"><title>87.237.20.224</title>
<polygon fill="lightgrey" stroke="black" points="836.045,-252 733.045,-252 733.045,-216 836.045,-216 836.045,-252"/>
<text text-anchor="middle" x="784.545" y="-230.3" font-family="Helvetica,sans-Serif" font-size="14.00">87.237.20.224</text>
</g>
<!-- 10.247.84.18&#45;&#45;87.237.20.224 -->
<g id="edge7" class="edge"><title>10.247.84.18&#45;&#45;87.237.20.224</title>
<path fill="none" stroke="black" d="M784.545,-287.697C784.545,-276.846 784.545,-262.917 784.545,-252.104"/>
</g>
<!-- 87.237.20.73 -->
<g id="node19" class="node"><title>87.237.20.73</title>
<polygon fill="lightgrey" stroke="black" points="832.045,-180 737.045,-180 737.045,-144 832.045,-144 832.045,-180"/>
<text text-anchor="middle" x="784.545" y="-158.3" font-family="Helvetica,sans-Serif" font-size="14.00">87.237.20.73</text>
</g>
<!-- 87.237.20.224&#45;&#45;87.237.20.73 -->
<g id="edge8" class="edge"><title>87.237.20.224&#45;&#45;87.237.20.73</title>
<path fill="none" stroke="black" d="M784.545,-215.697C784.545,-204.846 784.545,-190.917 784.545,-180.104"/>
</g>
<!-- 87.237.20.73&#45;&#45;google.com -->
<g id="edge9" class="edge"><title>87.237.20.73&#45;&#45;google.com</title>
<path fill="none" stroke="black" d="M736.758,-160.059C627.21,-157.275 349.814,-146.665 121.545,-108 113.495,-106.636 104.987,-104.747 96.8738,-102.722"/>
</g>
<!-- 87.237.20.73&#45;&#45;deanturpin.github.io -->
<g id="edge13" class="edge"><title>87.237.20.73&#45;&#45;deanturpin.github.io</title>
<path fill="none" stroke="black" d="M736.822,-156.577C651.898,-148.491 469.037,-130.102 315.545,-108 304.461,-106.404 292.699,-104.512 281.331,-102.579"/>
</g>
<!-- 87.237.20.73&#45;&#45;silobrighton.com -->
<g id="edge16" class="edge"><title>87.237.20.73&#45;&#45;silobrighton.com</title>
<path fill="none" stroke="black" d="M737.036,-153.018C677.659,-142.954 572.958,-124.917 483.545,-108 474.188,-106.23 464.26,-104.282 454.631,-102.356"/>
</g>
<!-- 87.237.20.73&#45;&#45;instagram.com -->
<g id="edge17" class="edge"><title>87.237.20.73&#45;&#45;instagram.com</title>
<path fill="none" stroke="black" d="M736.92,-145.983C697.68,-133.61 642.548,-116.226 604.844,-104.338"/>
</g>
<!-- 87.237.20.73&#45;&#45;monzo.com -->
<g id="edge18" class="edge"><title>87.237.20.73&#45;&#45;monzo.com</title>
<path fill="none" stroke="black" d="M765.511,-143.697C753.22,-132.522 737.336,-118.082 725.304,-107.145"/>
</g>
<!-- 87.237.20.73&#45;&#45;infinityfoods.coop -->
<g id="edge19" class="edge"><title>87.237.20.73&#45;&#45;infinityfoods.coop</title>
<path fill="none" stroke="black" d="M803.579,-143.697C815.692,-132.684 831.295,-118.5 843.26,-107.622"/>
</g>
<!-- 87.237.20.73&#45;&#45;roli.com -->
<g id="edge20" class="edge"><title>87.237.20.73&#45;&#45;roli.com</title>
<path fill="none" stroke="black" d="M832.245,-145.83C865.22,-135.306 910.084,-120.914 949.545,-108 955.665,-105.997 962.192,-103.839 968.46,-101.754"/>
</g>
<!-- 87.237.20.73&#45;&#45;4.4.4.4 -->
<g id="edge21" class="edge"><title>87.237.20.73&#45;&#45;4.4.4.4</title>
<path fill="none" stroke="black" d="M832.32,-153.755C886.14,-145.078 975.97,-129.039 1051.54,-108 1057.56,-106.325 1063.91,-104.247 1069.93,-102.126"/>
</g>
<!-- 87.237.20.73&#45;&#45;instragram.com -->
<g id="edge22" class="edge"><title>87.237.20.73&#45;&#45;instragram.com</title>
<path fill="none" stroke="black" d="M832.289,-154.936C901.528,-145.927 1033.76,-127.917 1145.54,-108 1154.88,-106.336 1164.79,-104.401 1174.35,-102.444"/>
</g>
<!-- 129.250.2.149 -->
<g id="node22" class="node"><title>129.250.2.149</title>
<polygon fill="lightgrey" stroke="black" points="1420.04,-108 1317.04,-108 1317.04,-72 1420.04,-72 1420.04,-108"/>
<text text-anchor="middle" x="1368.54" y="-86.3" font-family="Helvetica,sans-Serif" font-size="14.00">129.250.2.149</text>
</g>
<!-- 87.237.20.73&#45;&#45;129.250.2.149 -->
<g id="edge14" class="edge"><title>87.237.20.73&#45;&#45;129.250.2.149</title>
<path fill="none" stroke="black" d="M832.171,-158.899C924.551,-154.225 1134.23,-140.684 1307.54,-108 1310.57,-107.43 1313.66,-106.781 1316.77,-106.077"/>
</g>
<!-- 10.247.84.25 -->
<g id="node21" class="node"><title>10.247.84.25</title>
<polygon fill="lightgrey" stroke="black" points="891.045,-540 796.045,-540 796.045,-504 891.045,-504 891.045,-540"/>
<text text-anchor="middle" x="843.545" y="-518.3" font-family="Helvetica,sans-Serif" font-size="14.00">10.247.84.25</text>
</g>
<!-- 10.248.28.145&#45;&#45;10.247.84.25 -->
<g id="edge11" class="edge"><title>10.248.28.145&#45;&#45;10.247.84.25</title>
<path fill="none" stroke="black" d="M845.051,-575.697C844.741,-564.846 844.343,-550.917 844.034,-540.104"/>
</g>
<!-- 10.247.84.25&#45;&#45;10.247.84.6 -->
<g id="edge12" class="edge"><title>10.247.84.25&#45;&#45;10.247.84.6</title>
<path fill="none" stroke="black" d="M828.961,-503.697C819.815,-492.846 808.075,-478.917 798.961,-468.104"/>
</g>
<!-- 129.250.2.149&#45;&#45;github.com -->
<g id="edge15" class="edge"><title>129.250.2.149&#45;&#45;github.com</title>
<path fill="none" stroke="black" d="M1368.54,-71.6966C1368.54,-60.8463 1368.54,-46.9167 1368.54,-36.1043"/>
</g>
</g>
</svg>
