<?xml version="1.0" encoding="UTF-8" standalone="no"?>
<!DOCTYPE svg PUBLIC "-//W3C//DTD SVG 1.1//EN"
 "http://www.w3.org/Graphics/SVG/1.1/DTD/svg11.dtd">
<!-- Generated by graphviz version 2.38.0 (20140413.2041)
 -->
<!-- Title: %3 Pages: 1 -->
<svg width="1846pt" height="1435pt"
 viewBox="0.00 0.00 1846.39 1435.00" xmlns="http://www.w3.org/2000/svg" xmlns:xlink="http://www.w3.org/1999/xlink">
<g id="graph0" class="graph" transform="scale(1 1) rotate(0) translate(4 1431)">
<title>%3</title>
<polygon fill="white" stroke="none" points="-4,4 -4,-1431 1842.39,-1431 1842.39,4 -4,4"/>
<text text-anchor="middle" x="154.5" y="-1411.8" font-family="Helvetica,sans-Serif" font-size="14.00">./hosts2dot.sh &#45; Wed &#160;6 Dec 13:50:07 GMT 2017</text>
<!-- soy_yo -->
<g id="node1" class="node"><title>soy_yo</title>
<polygon fill="orange" stroke="black" points="1421,-1404 1331,-1404 1331,-1368 1421,-1368 1421,-1404"/>
<text text-anchor="middle" x="1376" y="-1382.3" font-family="Helvetica,sans-Serif" font-size="14.00" fill="white">dev (soy yo)</text>
</g>
<!-- gateway -->
<g id="node13" class="node"><title>gateway</title>
<polygon fill="lightgrey" stroke="black" points="1409.5,-1332 1342.5,-1332 1342.5,-1296 1409.5,-1296 1409.5,-1332"/>
<text text-anchor="middle" x="1376" y="-1310.3" font-family="Helvetica,sans-Serif" font-size="14.00">gateway</text>
</g>
<!-- soy_yo&#45;&#45;gateway -->
<g id="edge1" class="edge"><title>soy_yo&#45;&#45;gateway</title>
<path fill="none" stroke="black" d="M1376,-1367.7C1376,-1356.85 1376,-1342.92 1376,-1332.1"/>
</g>
<!-- google.co.uk -->
<g id="node2" class="node"><title>google.co.uk</title>
<ellipse fill="green" stroke="black" cx="85" cy="-378" rx="60.3893" ry="18"/>
<text text-anchor="middle" x="85" y="-374.3" font-family="Helvetica,sans-Serif" font-size="14.00" fill="white">google.co.uk</text>
</g>
<!-- youtube.com -->
<g id="node3" class="node"><title>youtube.com</title>
<ellipse fill="green" stroke="black" cx="273" cy="-378" rx="61.99" ry="18"/>
<text text-anchor="middle" x="273" y="-374.3" font-family="Helvetica,sans-Serif" font-size="14.00" fill="white">youtube.com</text>
</g>
<!-- deanturpin.github.io -->
<g id="node4" class="node"><title>deanturpin.github.io</title>
<ellipse fill="green" stroke="black" cx="603" cy="-522" rx="87.9851" ry="18"/>
<text text-anchor="middle" x="603" y="-518.3" font-family="Helvetica,sans-Serif" font-size="14.00" fill="white">deanturpin.github.io</text>
</g>
<!-- github.com -->
<g id="node5" class="node"><title>github.com</title>
<ellipse fill="green" stroke="black" cx="851" cy="-18" rx="53.8905" ry="18"/>
<text text-anchor="middle" x="851" y="-14.3" font-family="Helvetica,sans-Serif" font-size="14.00" fill="white">github.com</text>
</g>
<!-- thebunker.net -->
<g id="node6" class="node"><title>thebunker.net</title>
<ellipse fill="green" stroke="black" cx="1135" cy="-90" rx="64.189" ry="18"/>
<text text-anchor="middle" x="1135" y="-86.3" font-family="Helvetica,sans-Serif" font-size="14.00" fill="white">thebunker.net</text>
</g>
<!-- infinityfoods.coop -->
<g id="node7" class="node"><title>infinityfoods.coop</title>
<ellipse fill="green" stroke="black" cx="1359" cy="-378" rx="78.7863" ry="18"/>
<text text-anchor="middle" x="1359" y="-374.3" font-family="Helvetica,sans-Serif" font-size="14.00" fill="white">infinityfoods.coop</text>
</g>
<!-- morningstar.co.uk -->
<g id="node8" class="node"><title>morningstar.co.uk</title>
<ellipse fill="red" stroke="black" cx="1513" cy="-522" rx="81.4863" ry="18"/>
<text text-anchor="middle" x="1513" y="-518.3" font-family="Helvetica,sans-Serif" font-size="14.00" fill="white">morningstar.co.uk</text>
</g>
<!-- sky.com -->
<g id="node9" class="node"><title>sky.com</title>
<ellipse fill="red" stroke="black" cx="1493" cy="-666" rx="43.5923" ry="18"/>
<text text-anchor="middle" x="1493" y="-662.3" font-family="Helvetica,sans-Serif" font-size="14.00" fill="white">sky.com</text>
</g>
<!-- la&#45;cave.co.uk -->
<g id="node10" class="node"><title>la&#45;cave.co.uk</title>
<ellipse fill="red" stroke="black" cx="1617" cy="-666" rx="62.2891" ry="18"/>
<text text-anchor="middle" x="1617" y="-662.3" font-family="Helvetica,sans-Serif" font-size="14.00" fill="white">la&#45;cave.co.uk</text>
</g>
<!-- 64degrees.co.uk -->
<g id="node11" class="node"><title>64degrees.co.uk</title>
<ellipse fill="green" stroke="black" cx="1763" cy="-594" rx="75.2868" ry="18"/>
<text text-anchor="middle" x="1763" y="-590.3" font-family="Helvetica,sans-Serif" font-size="14.00" fill="white">64degrees.co.uk</text>
</g>
<!-- chillifrog.co -->
<g id="node12" class="node"><title>chillifrog.co</title>
<ellipse fill="green" stroke="black" cx="428" cy="-90" rx="54.6905" ry="18"/>
<text text-anchor="middle" x="428" y="-86.3" font-family="Helvetica,sans-Serif" font-size="14.00" fill="white">chillifrog.co</text>
</g>
<!-- 10.248.28.145 -->
<g id="node14" class="node"><title>10.248.28.145</title>
<polygon fill="lightgrey" stroke="black" points="1367.5,-1260 1264.5,-1260 1264.5,-1224 1367.5,-1224 1367.5,-1260"/>
<text text-anchor="middle" x="1316" y="-1238.3" font-family="Helvetica,sans-Serif" font-size="14.00">10.248.28.145</text>
</g>
<!-- gateway&#45;&#45;10.248.28.145 -->
<g id="edge2" class="edge"><title>gateway&#45;&#45;10.248.28.145</title>
<path fill="none" stroke="black" d="M1361.17,-1295.7C1351.87,-1284.85 1339.93,-1270.92 1330.66,-1260.1"/>
</g>
<!-- 10.248.28.153 -->
<g id="node29" class="node"><title>10.248.28.153</title>
<polygon fill="lightgrey" stroke="black" points="1488.5,-1260 1385.5,-1260 1385.5,-1224 1488.5,-1224 1488.5,-1260"/>
<text text-anchor="middle" x="1437" y="-1238.3" font-family="Helvetica,sans-Serif" font-size="14.00">10.248.28.153</text>
</g>
<!-- gateway&#45;&#45;10.248.28.153 -->
<g id="edge19" class="edge"><title>gateway&#45;&#45;10.248.28.153</title>
<path fill="none" stroke="black" d="M1391.08,-1295.7C1400.53,-1284.85 1412.67,-1270.92 1422.09,-1260.1"/>
</g>
<!-- 10.247.84.25 -->
<g id="node15" class="node"><title>10.247.84.25</title>
<polygon fill="lightgrey" stroke="black" points="1365.5,-1188 1270.5,-1188 1270.5,-1152 1365.5,-1152 1365.5,-1188"/>
<text text-anchor="middle" x="1318" y="-1166.3" font-family="Helvetica,sans-Serif" font-size="14.00">10.247.84.25</text>
</g>
<!-- 10.248.28.145&#45;&#45;10.247.84.25 -->
<g id="edge3" class="edge"><title>10.248.28.145&#45;&#45;10.247.84.25</title>
<path fill="none" stroke="black" d="M1316.49,-1223.7C1316.8,-1212.85 1317.2,-1198.92 1317.51,-1188.1"/>
</g>
<!-- 10.247.84.6 -->
<g id="node16" class="node"><title>10.247.84.6</title>
<polygon fill="lightgrey" stroke="black" points="1420,-1116 1332,-1116 1332,-1080 1420,-1080 1420,-1116"/>
<text text-anchor="middle" x="1376" y="-1094.3" font-family="Helvetica,sans-Serif" font-size="14.00">10.247.84.6</text>
</g>
<!-- 10.247.84.25&#45;&#45;10.247.84.6 -->
<g id="edge4" class="edge"><title>10.247.84.25&#45;&#45;10.247.84.6</title>
<path fill="none" stroke="black" d="M1332.34,-1151.7C1341.33,-1140.85 1352.87,-1126.92 1361.83,-1116.1"/>
</g>
<!-- 10.247.84.9 -->
<g id="node17" class="node"><title>10.247.84.9</title>
<polygon fill="lightgrey" stroke="black" points="1420,-1044 1332,-1044 1332,-1008 1420,-1008 1420,-1044"/>
<text text-anchor="middle" x="1376" y="-1022.3" font-family="Helvetica,sans-Serif" font-size="14.00">10.247.84.9</text>
</g>
<!-- 10.247.84.6&#45;&#45;10.247.84.9 -->
<g id="edge5" class="edge"><title>10.247.84.6&#45;&#45;10.247.84.9</title>
<path fill="none" stroke="black" d="M1376,-1079.7C1376,-1068.85 1376,-1054.92 1376,-1044.1"/>
</g>
<!-- 10.247.84.18 -->
<g id="node18" class="node"><title>10.247.84.18</title>
<polygon fill="lightgrey" stroke="black" points="1423.5,-972 1328.5,-972 1328.5,-936 1423.5,-936 1423.5,-972"/>
<text text-anchor="middle" x="1376" y="-950.3" font-family="Helvetica,sans-Serif" font-size="14.00">10.247.84.18</text>
</g>
<!-- 10.247.84.9&#45;&#45;10.247.84.18 -->
<g id="edge6" class="edge"><title>10.247.84.9&#45;&#45;10.247.84.18</title>
<path fill="none" stroke="black" d="M1376,-1007.7C1376,-996.846 1376,-982.917 1376,-972.104"/>
</g>
<!-- 87.237.20.224 -->
<g id="node19" class="node"><title>87.237.20.224</title>
<polygon fill="lightgrey" stroke="black" points="1427.5,-900 1324.5,-900 1324.5,-864 1427.5,-864 1427.5,-900"/>
<text text-anchor="middle" x="1376" y="-878.3" font-family="Helvetica,sans-Serif" font-size="14.00">87.237.20.224</text>
</g>
<!-- 10.247.84.18&#45;&#45;87.237.20.224 -->
<g id="edge7" class="edge"><title>10.247.84.18&#45;&#45;87.237.20.224</title>
<path fill="none" stroke="black" d="M1376,-935.697C1376,-924.846 1376,-910.917 1376,-900.104"/>
</g>
<!-- 87.237.20.73 -->
<g id="node20" class="node"><title>87.237.20.73</title>
<polygon fill="lightgrey" stroke="black" points="1423.5,-828 1328.5,-828 1328.5,-792 1423.5,-792 1423.5,-828"/>
<text text-anchor="middle" x="1376" y="-806.3" font-family="Helvetica,sans-Serif" font-size="14.00">87.237.20.73</text>
</g>
<!-- 87.237.20.224&#45;&#45;87.237.20.73 -->
<g id="edge8" class="edge"><title>87.237.20.224&#45;&#45;87.237.20.73</title>
<path fill="none" stroke="black" d="M1376,-863.697C1376,-852.846 1376,-838.917 1376,-828.104"/>
</g>
<!-- 87.237.20.36 -->
<g id="node21" class="node"><title>87.237.20.36</title>
<polygon fill="lightgrey" stroke="black" points="587.5,-756 492.5,-756 492.5,-720 587.5,-720 587.5,-756"/>
<text text-anchor="middle" x="540" y="-734.3" font-family="Helvetica,sans-Serif" font-size="14.00">87.237.20.36</text>
</g>
<!-- 87.237.20.73&#45;&#45;87.237.20.36 -->
<g id="edge9" class="edge"><title>87.237.20.73&#45;&#45;87.237.20.36</title>
<path fill="none" stroke="black" d="M1328.35,-805.011C1181.14,-792.684 734.63,-755.297 587.548,-742.981"/>
</g>
<!-- 80.150.169.13 -->
<g id="node31" class="node"><title>80.150.169.13</title>
<polygon fill="lightgrey" stroke="black" points="1090.5,-756 987.5,-756 987.5,-720 1090.5,-720 1090.5,-756"/>
<text text-anchor="middle" x="1039" y="-734.3" font-family="Helvetica,sans-Serif" font-size="14.00">80.150.169.13</text>
</g>
<!-- 87.237.20.73&#45;&#45;80.150.169.13 -->
<g id="edge22" class="edge"><title>87.237.20.73&#45;&#45;80.150.169.13</title>
<path fill="none" stroke="black" d="M1328.43,-799.119C1265.65,-786.08 1155.55,-763.209 1090.75,-749.749"/>
</g>
<!-- 87.237.20.33 -->
<g id="node42" class="node"><title>87.237.20.33</title>
<polygon fill="lightgrey" stroke="black" points="1355.5,-756 1260.5,-756 1260.5,-720 1355.5,-720 1355.5,-756"/>
<text text-anchor="middle" x="1308" y="-734.3" font-family="Helvetica,sans-Serif" font-size="14.00">87.237.20.33</text>
</g>
<!-- 87.237.20.73&#45;&#45;87.237.20.33 -->
<g id="edge35" class="edge"><title>87.237.20.73&#45;&#45;87.237.20.33</title>
<path fill="none" stroke="black" d="M1359.19,-791.697C1348.65,-780.846 1335.12,-766.917 1324.62,-756.104"/>
</g>
<!-- 027ff198.bb.sky.com -->
<g id="node55" class="node"><title>027ff198.bb.sky.com</title>
<polygon fill="lightgrey" stroke="black" points="1516,-756 1374,-756 1374,-720 1516,-720 1516,-756"/>
<text text-anchor="middle" x="1445" y="-734.3" font-family="Helvetica,sans-Serif" font-size="14.00">027ff198.bb.sky.com</text>
</g>
<!-- 87.237.20.73&#45;&#45;027ff198.bb.sky.com -->
<g id="edge51" class="edge"><title>87.237.20.73&#45;&#45;027ff198.bb.sky.com</title>
<path fill="none" stroke="black" d="M1393.06,-791.697C1403.75,-780.846 1417.48,-766.917 1428.14,-756.104"/>
</g>
<!-- the&#45;linx.as29550.net -->
<g id="node56" class="node"><title>the&#45;linx.as29550.net</title>
<polygon fill="lightgrey" stroke="black" points="1672,-756 1534,-756 1534,-720 1672,-720 1672,-756"/>
<text text-anchor="middle" x="1603" y="-734.3" font-family="Helvetica,sans-Serif" font-size="14.00">the&#45;linx.as29550.net</text>
</g>
<!-- 87.237.20.73&#45;&#45;the&#45;linx.as29550.net -->
<g id="edge53" class="edge"><title>87.237.20.73&#45;&#45;the&#45;linx.as29550.net</title>
<path fill="none" stroke="black" d="M1423.59,-794.326C1459.73,-783.181 1509.52,-767.828 1547.48,-756.122"/>
</g>
<!-- linx&#45;lon1.as13335.net -->
<g id="node57" class="node"><title>linx&#45;lon1.as13335.net</title>
<polygon fill="lightgrey" stroke="black" points="1835.5,-756 1690.5,-756 1690.5,-720 1835.5,-720 1835.5,-756"/>
<text text-anchor="middle" x="1763" y="-734.3" font-family="Helvetica,sans-Serif" font-size="14.00">linx&#45;lon1.as13335.net</text>
</g>
<!-- 87.237.20.73&#45;&#45;linx&#45;lon1.as13335.net -->
<g id="edge55" class="edge"><title>87.237.20.73&#45;&#45;linx&#45;lon1.as13335.net</title>
<path fill="none" stroke="black" d="M1423.63,-801.213C1483.73,-791.277 1590.19,-773.298 1681,-756 1684,-755.429 1687.06,-754.837 1690.15,-754.231"/>
</g>
<!-- 74.125.52.218 -->
<g id="node22" class="node"><title>74.125.52.218</title>
<polygon fill="lightgrey" stroke="black" points="392.5,-684 289.5,-684 289.5,-648 392.5,-648 392.5,-684"/>
<text text-anchor="middle" x="341" y="-662.3" font-family="Helvetica,sans-Serif" font-size="14.00">74.125.52.218</text>
</g>
<!-- 87.237.20.36&#45;&#45;74.125.52.218 -->
<g id="edge10" class="edge"><title>87.237.20.36&#45;&#45;74.125.52.218</title>
<path fill="none" stroke="black" d="M492.335,-720.233C461.289,-709.313 420.902,-695.106 389.659,-684.116"/>
</g>
<!-- 108.170.246.193 -->
<g id="node23" class="node"><title>108.170.246.193</title>
<polygon fill="lightgrey" stroke="black" points="183,-612 65,-612 65,-576 183,-576 183,-612"/>
<text text-anchor="middle" x="124" y="-590.3" font-family="Helvetica,sans-Serif" font-size="14.00">108.170.246.193</text>
</g>
<!-- 74.125.52.218&#45;&#45;108.170.246.193 -->
<g id="edge11" class="edge"><title>74.125.52.218&#45;&#45;108.170.246.193</title>
<path fill="none" stroke="black" d="M289.299,-648.322C255.326,-637.363 211.008,-623.067 176.813,-612.036"/>
</g>
<!-- 108.170.246.225 -->
<g id="node26" class="node"><title>108.170.246.225</title>
<polygon fill="lightgrey" stroke="black" points="332,-612 214,-612 214,-576 332,-576 332,-612"/>
<text text-anchor="middle" x="273" y="-590.3" font-family="Helvetica,sans-Serif" font-size="14.00">108.170.246.225</text>
</g>
<!-- 74.125.52.218&#45;&#45;108.170.246.225 -->
<g id="edge15" class="edge"><title>74.125.52.218&#45;&#45;108.170.246.225</title>
<path fill="none" stroke="black" d="M324.191,-647.697C313.651,-636.846 300.119,-622.917 289.616,-612.104"/>
</g>
<!-- 108.170.246.226 -->
<g id="node59" class="node"><title>108.170.246.226</title>
<polygon fill="lightgrey" stroke="black" points="468,-612 350,-612 350,-576 468,-576 468,-612"/>
<text text-anchor="middle" x="409" y="-590.3" font-family="Helvetica,sans-Serif" font-size="14.00">108.170.246.226</text>
</g>
<!-- 74.125.52.218&#45;&#45;108.170.246.226 -->
<g id="edge58" class="edge"><title>74.125.52.218&#45;&#45;108.170.246.226</title>
<path fill="none" stroke="black" d="M357.809,-647.697C368.349,-636.846 381.881,-622.917 392.384,-612.104"/>
</g>
<!-- 108.170.238.151 -->
<g id="node24" class="node"><title>108.170.238.151</title>
<polygon fill="lightgrey" stroke="black" points="157,-540 39,-540 39,-504 157,-504 157,-540"/>
<text text-anchor="middle" x="98" y="-518.3" font-family="Helvetica,sans-Serif" font-size="14.00">108.170.238.151</text>
</g>
<!-- 108.170.246.193&#45;&#45;108.170.238.151 -->
<g id="edge12" class="edge"><title>108.170.246.193&#45;&#45;108.170.238.151</title>
<path fill="none" stroke="black" d="M117.573,-575.697C113.543,-564.846 108.369,-550.917 104.353,-540.104"/>
</g>
<!-- lhr35s06&#45;in&#45;f99.1e100.net -->
<g id="node25" class="node"><title>lhr35s06&#45;in&#45;f99.1e100.net</title>
<polygon fill="lightgrey" stroke="black" points="170,-468 0,-468 0,-432 170,-432 170,-468"/>
<text text-anchor="middle" x="85" y="-446.3" font-family="Helvetica,sans-Serif" font-size="14.00">lhr35s06&#45;in&#45;f99.1e100.net</text>
</g>
<!-- 108.170.238.151&#45;&#45;lhr35s06&#45;in&#45;f99.1e100.net -->
<g id="edge13" class="edge"><title>108.170.238.151&#45;&#45;lhr35s06&#45;in&#45;f99.1e100.net</title>
<path fill="none" stroke="black" d="M94.7865,-503.697C92.7715,-492.846 90.1845,-478.917 88.1765,-468.104"/>
</g>
<!-- lhr35s06&#45;in&#45;f99.1e100.net&#45;&#45;google.co.uk -->
<g id="edge14" class="edge"><title>lhr35s06&#45;in&#45;f99.1e100.net&#45;&#45;google.co.uk</title>
<path fill="none" stroke="black" d="M85,-431.697C85,-420.846 85,-406.917 85,-396.104"/>
</g>
<!-- 108.170.235.107 -->
<g id="node27" class="node"><title>108.170.235.107</title>
<polygon fill="lightgrey" stroke="black" points="332,-540 214,-540 214,-504 332,-504 332,-540"/>
<text text-anchor="middle" x="273" y="-518.3" font-family="Helvetica,sans-Serif" font-size="14.00">108.170.235.107</text>
</g>
<!-- 108.170.246.225&#45;&#45;108.170.235.107 -->
<g id="edge16" class="edge"><title>108.170.246.225&#45;&#45;108.170.235.107</title>
<path fill="none" stroke="black" d="M273,-575.697C273,-564.846 273,-550.917 273,-540.104"/>
</g>
<!-- lhr35s02&#45;in&#45;f14.1e100.net -->
<g id="node28" class="node"><title>lhr35s02&#45;in&#45;f14.1e100.net</title>
<polygon fill="lightgrey" stroke="black" points="358,-468 188,-468 188,-432 358,-432 358,-468"/>
<text text-anchor="middle" x="273" y="-446.3" font-family="Helvetica,sans-Serif" font-size="14.00">lhr35s02&#45;in&#45;f14.1e100.net</text>
</g>
<!-- 108.170.235.107&#45;&#45;lhr35s02&#45;in&#45;f14.1e100.net -->
<g id="edge17" class="edge"><title>108.170.235.107&#45;&#45;lhr35s02&#45;in&#45;f14.1e100.net</title>
<path fill="none" stroke="black" d="M273,-503.697C273,-492.846 273,-478.917 273,-468.104"/>
</g>
<!-- lhr35s02&#45;in&#45;f14.1e100.net&#45;&#45;youtube.com -->
<g id="edge18" class="edge"><title>lhr35s02&#45;in&#45;f14.1e100.net&#45;&#45;youtube.com</title>
<path fill="none" stroke="black" d="M273,-431.697C273,-420.846 273,-406.917 273,-396.104"/>
</g>
<!-- 10.247.84.27 -->
<g id="node30" class="node"><title>10.247.84.27</title>
<polygon fill="lightgrey" stroke="black" points="1482.5,-1188 1387.5,-1188 1387.5,-1152 1482.5,-1152 1482.5,-1188"/>
<text text-anchor="middle" x="1435" y="-1166.3" font-family="Helvetica,sans-Serif" font-size="14.00">10.247.84.27</text>
</g>
<!-- 10.248.28.153&#45;&#45;10.247.84.27 -->
<g id="edge20" class="edge"><title>10.248.28.153&#45;&#45;10.247.84.27</title>
<path fill="none" stroke="black" d="M1436.51,-1223.7C1436.2,-1212.85 1435.8,-1198.92 1435.49,-1188.1"/>
</g>
<!-- 10.247.84.27&#45;&#45;10.247.84.6 -->
<g id="edge21" class="edge"><title>10.247.84.27&#45;&#45;10.247.84.6</title>
<path fill="none" stroke="black" d="M1420.42,-1151.7C1411.27,-1140.85 1399.53,-1126.92 1390.42,-1116.1"/>
</g>
<!-- 80.150.170.106 -->
<g id="node32" class="node"><title>80.150.170.106</title>
<polygon fill="lightgrey" stroke="black" points="906,-684 796,-684 796,-648 906,-648 906,-684"/>
<text text-anchor="middle" x="851" y="-662.3" font-family="Helvetica,sans-Serif" font-size="14.00">80.150.170.106</text>
</g>
<!-- 80.150.169.13&#45;&#45;80.150.170.106 -->
<g id="edge23" class="edge"><title>80.150.169.13&#45;&#45;80.150.170.106</title>
<path fill="none" stroke="black" d="M993.01,-719.876C963.768,-708.988 926.053,-694.945 896.841,-684.068"/>
</g>
<!-- ae&#45;25.r00.londen10.uk.bb.gin.ntt.net -->
<g id="node33" class="node"><title>ae&#45;25.r00.londen10.uk.bb.gin.ntt.net</title>
<polygon fill="lightgrey" stroke="black" points="719.5,-612 486.5,-612 486.5,-576 719.5,-576 719.5,-612"/>
<text text-anchor="middle" x="603" y="-590.3" font-family="Helvetica,sans-Serif" font-size="14.00">ae&#45;25.r00.londen10.uk.bb.gin.ntt.net</text>
</g>
<!-- 80.150.170.106&#45;&#45;ae&#45;25.r00.londen10.uk.bb.gin.ntt.net -->
<g id="edge24" class="edge"><title>80.150.170.106&#45;&#45;ae&#45;25.r00.londen10.uk.bb.gin.ntt.net</title>
<path fill="none" stroke="black" d="M795.961,-649.465C756.718,-638.388 703.964,-623.498 663.534,-612.086"/>
</g>
<!-- ae&#45;3.r24.londen12.uk.bb.gin.ntt.net -->
<g id="node34" class="node"><title>ae&#45;3.r24.londen12.uk.bb.gin.ntt.net</title>
<polygon fill="lightgrey" stroke="black" points="964,-612 738,-612 738,-576 964,-576 964,-612"/>
<text text-anchor="middle" x="851" y="-590.3" font-family="Helvetica,sans-Serif" font-size="14.00">ae&#45;3.r24.londen12.uk.bb.gin.ntt.net</text>
</g>
<!-- 80.150.170.106&#45;&#45;ae&#45;3.r24.londen12.uk.bb.gin.ntt.net -->
<g id="edge26" class="edge"><title>80.150.170.106&#45;&#45;ae&#45;3.r24.londen12.uk.bb.gin.ntt.net</title>
<path fill="none" stroke="black" d="M851,-647.697C851,-636.846 851,-622.917 851,-612.104"/>
</g>
<!-- ae&#45;25.r00.londen10.uk.bb.gin.ntt.net&#45;&#45;deanturpin.github.io -->
<g id="edge25" class="edge"><title>ae&#45;25.r00.londen10.uk.bb.gin.ntt.net&#45;&#45;deanturpin.github.io</title>
<path fill="none" stroke="black" d="M603,-575.697C603,-564.846 603,-550.917 603,-540.104"/>
</g>
<!-- ae&#45;5.r24.nycmny01.us.bb.gin.ntt.net -->
<g id="node35" class="node"><title>ae&#45;5.r24.nycmny01.us.bb.gin.ntt.net</title>
<polygon fill="lightgrey" stroke="black" points="967.5,-540 734.5,-540 734.5,-504 967.5,-504 967.5,-540"/>
<text text-anchor="middle" x="851" y="-518.3" font-family="Helvetica,sans-Serif" font-size="14.00">ae&#45;5.r24.nycmny01.us.bb.gin.ntt.net</text>
</g>
<!-- ae&#45;3.r24.londen12.uk.bb.gin.ntt.net&#45;&#45;ae&#45;5.r24.nycmny01.us.bb.gin.ntt.net -->
<g id="edge27" class="edge"><title>ae&#45;3.r24.londen12.uk.bb.gin.ntt.net&#45;&#45;ae&#45;5.r24.nycmny01.us.bb.gin.ntt.net</title>
<path fill="none" stroke="black" d="M851,-575.697C851,-564.846 851,-550.917 851,-540.104"/>
</g>
<!-- ae&#45;1.r25.nycmny01.us.bb.gin.ntt.net -->
<g id="node36" class="node"><title>ae&#45;1.r25.nycmny01.us.bb.gin.ntt.net</title>
<polygon fill="lightgrey" stroke="black" points="967.5,-468 734.5,-468 734.5,-432 967.5,-432 967.5,-468"/>
<text text-anchor="middle" x="851" y="-446.3" font-family="Helvetica,sans-Serif" font-size="14.00">ae&#45;1.r25.nycmny01.us.bb.gin.ntt.net</text>
</g>
<!-- ae&#45;5.r24.nycmny01.us.bb.gin.ntt.net&#45;&#45;ae&#45;1.r25.nycmny01.us.bb.gin.ntt.net -->
<g id="edge28" class="edge"><title>ae&#45;5.r24.nycmny01.us.bb.gin.ntt.net&#45;&#45;ae&#45;1.r25.nycmny01.us.bb.gin.ntt.net</title>
<path fill="none" stroke="black" d="M851,-503.697C851,-492.846 851,-478.917 851,-468.104"/>
</g>
<!-- ae&#45;9.r22.asbnva02.us.bb.gin.ntt.net -->
<g id="node37" class="node"><title>ae&#45;9.r22.asbnva02.us.bb.gin.ntt.net</title>
<polygon fill="lightgrey" stroke="black" points="965.5,-396 736.5,-396 736.5,-360 965.5,-360 965.5,-396"/>
<text text-anchor="middle" x="851" y="-374.3" font-family="Helvetica,sans-Serif" font-size="14.00">ae&#45;9.r22.asbnva02.us.bb.gin.ntt.net</text>
</g>
<!-- ae&#45;1.r25.nycmny01.us.bb.gin.ntt.net&#45;&#45;ae&#45;9.r22.asbnva02.us.bb.gin.ntt.net -->
<g id="edge29" class="edge"><title>ae&#45;1.r25.nycmny01.us.bb.gin.ntt.net&#45;&#45;ae&#45;9.r22.asbnva02.us.bb.gin.ntt.net</title>
<path fill="none" stroke="black" d="M851,-431.697C851,-420.846 851,-406.917 851,-396.104"/>
</g>
<!-- ae&#45;1.r05.asbnva02.us.bb.gin.ntt.net -->
<g id="node38" class="node"><title>ae&#45;1.r05.asbnva02.us.bb.gin.ntt.net</title>
<polygon fill="lightgrey" stroke="black" points="965.5,-324 736.5,-324 736.5,-288 965.5,-288 965.5,-324"/>
<text text-anchor="middle" x="851" y="-302.3" font-family="Helvetica,sans-Serif" font-size="14.00">ae&#45;1.r05.asbnva02.us.bb.gin.ntt.net</text>
</g>
<!-- ae&#45;9.r22.asbnva02.us.bb.gin.ntt.net&#45;&#45;ae&#45;1.r05.asbnva02.us.bb.gin.ntt.net -->
<g id="edge30" class="edge"><title>ae&#45;9.r22.asbnva02.us.bb.gin.ntt.net&#45;&#45;ae&#45;1.r05.asbnva02.us.bb.gin.ntt.net</title>
<path fill="none" stroke="black" d="M851,-359.697C851,-348.846 851,-334.917 851,-324.104"/>
</g>
<!-- ae&#45;0.a01.asbnva02.us.bb.gin.ntt.net -->
<g id="node39" class="node"><title>ae&#45;0.a01.asbnva02.us.bb.gin.ntt.net</title>
<polygon fill="lightgrey" stroke="black" points="967,-252 735,-252 735,-216 967,-216 967,-252"/>
<text text-anchor="middle" x="851" y="-230.3" font-family="Helvetica,sans-Serif" font-size="14.00">ae&#45;0.a01.asbnva02.us.bb.gin.ntt.net</text>
</g>
<!-- ae&#45;1.r05.asbnva02.us.bb.gin.ntt.net&#45;&#45;ae&#45;0.a01.asbnva02.us.bb.gin.ntt.net -->
<g id="edge31" class="edge"><title>ae&#45;1.r05.asbnva02.us.bb.gin.ntt.net&#45;&#45;ae&#45;0.a01.asbnva02.us.bb.gin.ntt.net</title>
<path fill="none" stroke="black" d="M851,-287.697C851,-276.846 851,-262.917 851,-252.104"/>
</g>
<!-- xe&#45;0&#45;0&#45;24&#45;1.a03.asbnva02.us.ce.gin.ntt.net -->
<g id="node40" class="node"><title>xe&#45;0&#45;0&#45;24&#45;1.a03.asbnva02.us.ce.gin.ntt.net</title>
<polygon fill="lightgrey" stroke="black" points="988,-180 714,-180 714,-144 988,-144 988,-180"/>
<text text-anchor="middle" x="851" y="-158.3" font-family="Helvetica,sans-Serif" font-size="14.00">xe&#45;0&#45;0&#45;24&#45;1.a03.asbnva02.us.ce.gin.ntt.net</text>
</g>
<!-- ae&#45;0.a01.asbnva02.us.bb.gin.ntt.net&#45;&#45;xe&#45;0&#45;0&#45;24&#45;1.a03.asbnva02.us.ce.gin.ntt.net -->
<g id="edge32" class="edge"><title>ae&#45;0.a01.asbnva02.us.bb.gin.ntt.net&#45;&#45;xe&#45;0&#45;0&#45;24&#45;1.a03.asbnva02.us.ce.gin.ntt.net</title>
<path fill="none" stroke="black" d="M851,-215.697C851,-204.846 851,-190.917 851,-180.104"/>
</g>
<!-- lb&#45;192&#45;30&#45;253&#45;112&#45;iad.github.com -->
<g id="node41" class="node"><title>lb&#45;192&#45;30&#45;253&#45;112&#45;iad.github.com</title>
<polygon fill="lightgrey" stroke="black" points="961.5,-108 740.5,-108 740.5,-72 961.5,-72 961.5,-108"/>
<text text-anchor="middle" x="851" y="-86.3" font-family="Helvetica,sans-Serif" font-size="14.00">lb&#45;192&#45;30&#45;253&#45;112&#45;iad.github.com</text>
</g>
<!-- xe&#45;0&#45;0&#45;24&#45;1.a03.asbnva02.us.ce.gin.ntt.net&#45;&#45;lb&#45;192&#45;30&#45;253&#45;112&#45;iad.github.com -->
<g id="edge33" class="edge"><title>xe&#45;0&#45;0&#45;24&#45;1.a03.asbnva02.us.ce.gin.ntt.net&#45;&#45;lb&#45;192&#45;30&#45;253&#45;112&#45;iad.github.com</title>
<path fill="none" stroke="black" d="M851,-143.697C851,-132.846 851,-118.917 851,-108.104"/>
</g>
<!-- lb&#45;192&#45;30&#45;253&#45;112&#45;iad.github.com&#45;&#45;github.com -->
<g id="edge34" class="edge"><title>lb&#45;192&#45;30&#45;253&#45;112&#45;iad.github.com&#45;&#45;github.com</title>
<path fill="none" stroke="black" d="M851,-71.6966C851,-60.8463 851,-46.9167 851,-36.1043"/>
</g>
<!-- linx1.orbital.net -->
<g id="node43" class="node"><title>linx1.orbital.net</title>
<polygon fill="lightgrey" stroke="black" points="1194.5,-684 1087.5,-684 1087.5,-648 1194.5,-648 1194.5,-684"/>
<text text-anchor="middle" x="1141" y="-662.3" font-family="Helvetica,sans-Serif" font-size="14.00">linx1.orbital.net</text>
</g>
<!-- 87.237.20.33&#45;&#45;linx1.orbital.net -->
<g id="edge36" class="edge"><title>87.237.20.33&#45;&#45;linx1.orbital.net</title>
<path fill="none" stroke="black" d="M1267.15,-719.876C1241.17,-708.988 1207.67,-694.945 1181.72,-684.068"/>
</g>
<!-- linx.ae4&#45;irt1.lon37.uk.as13237.net -->
<g id="node53" class="node"><title>linx.ae4&#45;irt1.lon37.uk.as13237.net</title>
<polygon fill="lightgrey" stroke="black" points="1431.5,-684 1212.5,-684 1212.5,-648 1431.5,-648 1431.5,-684"/>
<text text-anchor="middle" x="1322" y="-662.3" font-family="Helvetica,sans-Serif" font-size="14.00">linx.ae4&#45;irt1.lon37.uk.as13237.net</text>
</g>
<!-- 87.237.20.33&#45;&#45;linx.ae4&#45;irt1.lon37.uk.as13237.net -->
<g id="edge48" class="edge"><title>87.237.20.33&#45;&#45;linx.ae4&#45;irt1.lon37.uk.as13237.net</title>
<path fill="none" stroke="black" d="M1311.46,-719.697C1313.63,-708.846 1316.42,-694.917 1318.58,-684.104"/>
</g>
<!-- xe2&#45;2&#45;ve&#45;83.thn&#45;pe&#45;2.thn.thebunker.net.202.88.80.in&#45;addr.arpa -->
<g id="node44" class="node"><title>xe2&#45;2&#45;ve&#45;83.thn&#45;pe&#45;2.thn.thebunker.net.202.88.80.in&#45;addr.arpa</title>
<polygon fill="lightgrey" stroke="black" points="1374,-612 982,-612 982,-576 1374,-576 1374,-612"/>
<text text-anchor="middle" x="1178" y="-590.3" font-family="Helvetica,sans-Serif" font-size="14.00">xe2&#45;2&#45;ve&#45;83.thn&#45;pe&#45;2.thn.thebunker.net.202.88.80.in&#45;addr.arpa</text>
</g>
<!-- linx1.orbital.net&#45;&#45;xe2&#45;2&#45;ve&#45;83.thn&#45;pe&#45;2.thn.thebunker.net.202.88.80.in&#45;addr.arpa -->
<g id="edge37" class="edge"><title>linx1.orbital.net&#45;&#45;xe2&#45;2&#45;ve&#45;83.thn&#45;pe&#45;2.thn.thebunker.net.202.88.80.in&#45;addr.arpa</title>
<path fill="none" stroke="black" d="M1150.15,-647.697C1155.88,-636.846 1163.24,-622.917 1168.96,-612.104"/>
</g>
<!-- ip&#45;185&#45;10&#45;15&#45;249.thebunker.net -->
<g id="node45" class="node"><title>ip&#45;185&#45;10&#45;15&#45;249.thebunker.net</title>
<polygon fill="lightgrey" stroke="black" points="1270,-540 1064,-540 1064,-504 1270,-504 1270,-540"/>
<text text-anchor="middle" x="1167" y="-518.3" font-family="Helvetica,sans-Serif" font-size="14.00">ip&#45;185&#45;10&#45;15&#45;249.thebunker.net</text>
</g>
<!-- xe2&#45;2&#45;ve&#45;83.thn&#45;pe&#45;2.thn.thebunker.net.202.88.80.in&#45;addr.arpa&#45;&#45;ip&#45;185&#45;10&#45;15&#45;249.thebunker.net -->
<g id="edge38" class="edge"><title>xe2&#45;2&#45;ve&#45;83.thn&#45;pe&#45;2.thn.thebunker.net.202.88.80.in&#45;addr.arpa&#45;&#45;ip&#45;185&#45;10&#45;15&#45;249.thebunker.net</title>
<path fill="none" stroke="black" d="M1175.28,-575.697C1173.58,-564.846 1171.39,-550.917 1169.69,-540.104"/>
</g>
<!-- 213.129.70.253 -->
<g id="node51" class="node"><title>213.129.70.253</title>
<polygon fill="lightgrey" stroke="black" points="1412,-540 1302,-540 1302,-504 1412,-504 1412,-540"/>
<text text-anchor="middle" x="1357" y="-518.3" font-family="Helvetica,sans-Serif" font-size="14.00">213.129.70.253</text>
</g>
<!-- xe2&#45;2&#45;ve&#45;83.thn&#45;pe&#45;2.thn.thebunker.net.202.88.80.in&#45;addr.arpa&#45;&#45;213.129.70.253 -->
<g id="edge45" class="edge"><title>xe2&#45;2&#45;ve&#45;83.thn&#45;pe&#45;2.thn.thebunker.net.202.88.80.in&#45;addr.arpa&#45;&#45;213.129.70.253</title>
<path fill="none" stroke="black" d="M1221.79,-575.876C1249.63,-564.988 1285.54,-550.945 1313.35,-540.068"/>
</g>
<!-- ip&#45;185&#45;10&#45;15&#45;250.thebunker.net -->
<g id="node46" class="node"><title>ip&#45;185&#45;10&#45;15&#45;250.thebunker.net</title>
<polygon fill="lightgrey" stroke="black" points="1248,-468 1042,-468 1042,-432 1248,-432 1248,-468"/>
<text text-anchor="middle" x="1145" y="-446.3" font-family="Helvetica,sans-Serif" font-size="14.00">ip&#45;185&#45;10&#45;15&#45;250.thebunker.net</text>
</g>
<!-- ip&#45;185&#45;10&#45;15&#45;249.thebunker.net&#45;&#45;ip&#45;185&#45;10&#45;15&#45;250.thebunker.net -->
<g id="edge39" class="edge"><title>ip&#45;185&#45;10&#45;15&#45;249.thebunker.net&#45;&#45;ip&#45;185&#45;10&#45;15&#45;250.thebunker.net</title>
<path fill="none" stroke="black" d="M1161.56,-503.697C1158.15,-492.846 1153.77,-478.917 1150.38,-468.104"/>
</g>
<!-- eth4&#45;1.thn&#45;bgp&#45;2.thn.core.thebunker.net -->
<g id="node47" class="node"><title>eth4&#45;1.thn&#45;bgp&#45;2.thn.core.thebunker.net</title>
<polygon fill="lightgrey" stroke="black" points="1262.5,-396 1007.5,-396 1007.5,-360 1262.5,-360 1262.5,-396"/>
<text text-anchor="middle" x="1135" y="-374.3" font-family="Helvetica,sans-Serif" font-size="14.00">eth4&#45;1.thn&#45;bgp&#45;2.thn.core.thebunker.net</text>
</g>
<!-- ip&#45;185&#45;10&#45;15&#45;250.thebunker.net&#45;&#45;eth4&#45;1.thn&#45;bgp&#45;2.thn.core.thebunker.net -->
<g id="edge40" class="edge"><title>ip&#45;185&#45;10&#45;15&#45;250.thebunker.net&#45;&#45;eth4&#45;1.thn&#45;bgp&#45;2.thn.core.thebunker.net</title>
<path fill="none" stroke="black" d="M1142.53,-431.697C1140.98,-420.846 1138.99,-406.917 1137.44,-396.104"/>
</g>
<!-- tengeth2&#45;1.thn&#45;bgp&#45;1.thn.core.thebunker.net -->
<g id="node48" class="node"><title>tengeth2&#45;1.thn&#45;bgp&#45;1.thn.core.thebunker.net</title>
<polygon fill="lightgrey" stroke="black" points="1275.5,-324 994.5,-324 994.5,-288 1275.5,-288 1275.5,-324"/>
<text text-anchor="middle" x="1135" y="-302.3" font-family="Helvetica,sans-Serif" font-size="14.00">tengeth2&#45;1.thn&#45;bgp&#45;1.thn.core.thebunker.net</text>
</g>
<!-- eth4&#45;1.thn&#45;bgp&#45;2.thn.core.thebunker.net&#45;&#45;tengeth2&#45;1.thn&#45;bgp&#45;1.thn.core.thebunker.net -->
<g id="edge41" class="edge"><title>eth4&#45;1.thn&#45;bgp&#45;2.thn.core.thebunker.net&#45;&#45;tengeth2&#45;1.thn&#45;bgp&#45;1.thn.core.thebunker.net</title>
<path fill="none" stroke="black" d="M1135,-359.697C1135,-348.846 1135,-334.917 1135,-324.104"/>
</g>
<!-- tengeth2&#45;2.ash&#45;bgp&#45;2.ash.core.thebunker.net -->
<g id="node49" class="node"><title>tengeth2&#45;2.ash&#45;bgp&#45;2.ash.core.thebunker.net</title>
<polygon fill="lightgrey" stroke="black" points="1278.5,-252 991.5,-252 991.5,-216 1278.5,-216 1278.5,-252"/>
<text text-anchor="middle" x="1135" y="-230.3" font-family="Helvetica,sans-Serif" font-size="14.00">tengeth2&#45;2.ash&#45;bgp&#45;2.ash.core.thebunker.net</text>
</g>
<!-- tengeth2&#45;1.thn&#45;bgp&#45;1.thn.core.thebunker.net&#45;&#45;tengeth2&#45;2.ash&#45;bgp&#45;2.ash.core.thebunker.net -->
<g id="edge42" class="edge"><title>tengeth2&#45;1.thn&#45;bgp&#45;1.thn.core.thebunker.net&#45;&#45;tengeth2&#45;2.ash&#45;bgp&#45;2.ash.core.thebunker.net</title>
<path fill="none" stroke="black" d="M1135,-287.697C1135,-276.846 1135,-262.917 1135,-252.104"/>
</g>
<!-- eth2&#45;2.ash&#45;pe&#45;2.ash.core.thebunker.net -->
<g id="node50" class="node"><title>eth2&#45;2.ash&#45;pe&#45;2.ash.core.thebunker.net</title>
<polygon fill="lightgrey" stroke="black" points="1262,-180 1008,-180 1008,-144 1262,-144 1262,-180"/>
<text text-anchor="middle" x="1135" y="-158.3" font-family="Helvetica,sans-Serif" font-size="14.00">eth2&#45;2.ash&#45;pe&#45;2.ash.core.thebunker.net</text>
</g>
<!-- tengeth2&#45;2.ash&#45;bgp&#45;2.ash.core.thebunker.net&#45;&#45;eth2&#45;2.ash&#45;pe&#45;2.ash.core.thebunker.net -->
<g id="edge43" class="edge"><title>tengeth2&#45;2.ash&#45;bgp&#45;2.ash.core.thebunker.net&#45;&#45;eth2&#45;2.ash&#45;pe&#45;2.ash.core.thebunker.net</title>
<path fill="none" stroke="black" d="M1135,-215.697C1135,-204.846 1135,-190.917 1135,-180.104"/>
</g>
<!-- eth2&#45;2.ash&#45;pe&#45;2.ash.core.thebunker.net&#45;&#45;thebunker.net -->
<g id="edge44" class="edge"><title>eth2&#45;2.ash&#45;pe&#45;2.ash.core.thebunker.net&#45;&#45;thebunker.net</title>
<path fill="none" stroke="black" d="M1135,-143.697C1135,-132.846 1135,-118.917 1135,-108.104"/>
</g>
<!-- 213.129.70.237 -->
<g id="node52" class="node"><title>213.129.70.237</title>
<polygon fill="lightgrey" stroke="black" points="1413,-468 1303,-468 1303,-432 1413,-432 1413,-468"/>
<text text-anchor="middle" x="1358" y="-446.3" font-family="Helvetica,sans-Serif" font-size="14.00">213.129.70.237</text>
</g>
<!-- 213.129.70.253&#45;&#45;213.129.70.237 -->
<g id="edge46" class="edge"><title>213.129.70.253&#45;&#45;213.129.70.237</title>
<path fill="none" stroke="black" d="M1357.25,-503.697C1357.4,-492.846 1357.6,-478.917 1357.76,-468.104"/>
</g>
<!-- 213.129.70.237&#45;&#45;infinityfoods.coop -->
<g id="edge47" class="edge"><title>213.129.70.237&#45;&#45;infinityfoods.coop</title>
<path fill="none" stroke="black" d="M1358.25,-431.697C1358.4,-420.846 1358.6,-406.917 1358.76,-396.104"/>
</g>
<!-- 84.207.244.126.not&#45;updated.eunx.net -->
<g id="node54" class="node"><title>84.207.244.126.not&#45;updated.eunx.net</title>
<polygon fill="lightgrey" stroke="black" points="1634,-612 1392,-612 1392,-576 1634,-576 1634,-612"/>
<text text-anchor="middle" x="1513" y="-590.3" font-family="Helvetica,sans-Serif" font-size="14.00">84.207.244.126.not&#45;updated.eunx.net</text>
</g>
<!-- linx.ae4&#45;irt1.lon37.uk.as13237.net&#45;&#45;84.207.244.126.not&#45;updated.eunx.net -->
<g id="edge49" class="edge"><title>linx.ae4&#45;irt1.lon37.uk.as13237.net&#45;&#45;84.207.244.126.not&#45;updated.eunx.net</title>
<path fill="none" stroke="black" d="M1368.72,-647.876C1398.43,-636.988 1436.75,-622.945 1466.43,-612.068"/>
</g>
<!-- 84.207.244.126.not&#45;updated.eunx.net&#45;&#45;morningstar.co.uk -->
<g id="edge50" class="edge"><title>84.207.244.126.not&#45;updated.eunx.net&#45;&#45;morningstar.co.uk</title>
<path fill="none" stroke="black" d="M1513,-575.697C1513,-564.846 1513,-550.917 1513,-540.104"/>
</g>
<!-- 027ff198.bb.sky.com&#45;&#45;sky.com -->
<g id="edge52" class="edge"><title>027ff198.bb.sky.com&#45;&#45;sky.com</title>
<path fill="none" stroke="black" d="M1456.87,-719.697C1464.42,-708.684 1474.14,-694.5 1481.6,-683.622"/>
</g>
<!-- the&#45;linx.as29550.net&#45;&#45;la&#45;cave.co.uk -->
<g id="edge54" class="edge"><title>the&#45;linx.as29550.net&#45;&#45;la&#45;cave.co.uk</title>
<path fill="none" stroke="black" d="M1606.46,-719.697C1608.63,-708.846 1611.42,-694.917 1613.58,-684.104"/>
</g>
<!-- 104.31.94.107 -->
<g id="node58" class="node"><title>104.31.94.107</title>
<polygon fill="lightgrey" stroke="black" points="1814.5,-684 1711.5,-684 1711.5,-648 1814.5,-648 1814.5,-684"/>
<text text-anchor="middle" x="1763" y="-662.3" font-family="Helvetica,sans-Serif" font-size="14.00">104.31.94.107</text>
</g>
<!-- linx&#45;lon1.as13335.net&#45;&#45;104.31.94.107 -->
<g id="edge56" class="edge"><title>linx&#45;lon1.as13335.net&#45;&#45;104.31.94.107</title>
<path fill="none" stroke="black" d="M1763,-719.697C1763,-708.846 1763,-694.917 1763,-684.104"/>
</g>
<!-- 104.31.94.107&#45;&#45;64degrees.co.uk -->
<g id="edge57" class="edge"><title>104.31.94.107&#45;&#45;64degrees.co.uk</title>
<path fill="none" stroke="black" d="M1763,-647.697C1763,-636.846 1763,-622.917 1763,-612.104"/>
</g>
<!-- 209.85.250.91 -->
<g id="node60" class="node"><title>209.85.250.91</title>
<polygon fill="lightgrey" stroke="black" points="469.5,-540 366.5,-540 366.5,-504 469.5,-504 469.5,-540"/>
<text text-anchor="middle" x="418" y="-518.3" font-family="Helvetica,sans-Serif" font-size="14.00">209.85.250.91</text>
</g>
<!-- 108.170.246.226&#45;&#45;209.85.250.91 -->
<g id="edge59" class="edge"><title>108.170.246.226&#45;&#45;209.85.250.91</title>
<path fill="none" stroke="black" d="M411.225,-575.697C412.62,-564.846 414.411,-550.917 415.801,-540.104"/>
</g>
<!-- 216.239.42.77 -->
<g id="node61" class="node"><title>216.239.42.77</title>
<polygon fill="lightgrey" stroke="black" points="479.5,-468 376.5,-468 376.5,-432 479.5,-432 479.5,-468"/>
<text text-anchor="middle" x="428" y="-446.3" font-family="Helvetica,sans-Serif" font-size="14.00">216.239.42.77</text>
</g>
<!-- 209.85.250.91&#45;&#45;216.239.42.77 -->
<g id="edge60" class="edge"><title>209.85.250.91&#45;&#45;216.239.42.77</title>
<path fill="none" stroke="black" d="M420.472,-503.697C422.022,-492.846 424.012,-478.917 425.557,-468.104"/>
</g>
<!-- 209.85.250.8 -->
<g id="node62" class="node"><title>209.85.250.8</title>
<polygon fill="lightgrey" stroke="black" points="475.5,-396 380.5,-396 380.5,-360 475.5,-360 475.5,-396"/>
<text text-anchor="middle" x="428" y="-374.3" font-family="Helvetica,sans-Serif" font-size="14.00">209.85.250.8</text>
</g>
<!-- 216.239.42.77&#45;&#45;209.85.250.8 -->
<g id="edge61" class="edge"><title>216.239.42.77&#45;&#45;209.85.250.8</title>
<path fill="none" stroke="black" d="M428,-431.697C428,-420.846 428,-406.917 428,-396.104"/>
</g>
<!-- 209.85.143.103 -->
<g id="node63" class="node"><title>209.85.143.103</title>
<polygon fill="lightgrey" stroke="black" points="483,-324 373,-324 373,-288 483,-288 483,-324"/>
<text text-anchor="middle" x="428" y="-302.3" font-family="Helvetica,sans-Serif" font-size="14.00">209.85.143.103</text>
</g>
<!-- 209.85.250.8&#45;&#45;209.85.143.103 -->
<g id="edge62" class="edge"><title>209.85.250.8&#45;&#45;209.85.143.103</title>
<path fill="none" stroke="black" d="M428,-359.697C428,-348.846 428,-334.917 428,-324.104"/>
</g>
<!-- 216.239.41.67 -->
<g id="node64" class="node"><title>216.239.41.67</title>
<polygon fill="lightgrey" stroke="black" points="479.5,-252 376.5,-252 376.5,-216 479.5,-216 479.5,-252"/>
<text text-anchor="middle" x="428" y="-230.3" font-family="Helvetica,sans-Serif" font-size="14.00">216.239.41.67</text>
</g>
<!-- 209.85.143.103&#45;&#45;216.239.41.67 -->
<g id="edge63" class="edge"><title>209.85.143.103&#45;&#45;216.239.41.67</title>
<path fill="none" stroke="black" d="M428,-287.697C428,-276.846 428,-262.917 428,-252.104"/>
</g>
<!-- 147.62.236.23.bc.googleusercontent.com -->
<g id="node65" class="node"><title>147.62.236.23.bc.googleusercontent.com</title>
<polygon fill="lightgrey" stroke="black" points="561,-180 295,-180 295,-144 561,-144 561,-180"/>
<text text-anchor="middle" x="428" y="-158.3" font-family="Helvetica,sans-Serif" font-size="14.00">147.62.236.23.bc.googleusercontent.com</text>
</g>
<!-- 216.239.41.67&#45;&#45;147.62.236.23.bc.googleusercontent.com -->
<g id="edge64" class="edge"><title>216.239.41.67&#45;&#45;147.62.236.23.bc.googleusercontent.com</title>
<path fill="none" stroke="black" d="M428,-215.697C428,-204.846 428,-190.917 428,-180.104"/>
</g>
<!-- 147.62.236.23.bc.googleusercontent.com&#45;&#45;chillifrog.co -->
<g id="edge65" class="edge"><title>147.62.236.23.bc.googleusercontent.com&#45;&#45;chillifrog.co</title>
<path fill="none" stroke="black" d="M428,-143.697C428,-132.846 428,-118.917 428,-108.104"/>
</g>
</g>
</svg>
