<?xml version="1.0" encoding="UTF-8" standalone="no"?>
<!DOCTYPE svg PUBLIC "-//W3C//DTD SVG 1.1//EN"
 "http://www.w3.org/Graphics/SVG/1.1/DTD/svg11.dtd">
<!-- Generated by graphviz version 2.38.0 (20140413.2041)
 -->
<!-- Title: %3 Pages: 1 -->
<svg width="1941pt" height="1412pt"
 viewBox="0.00 0.00 1941.19 1412.00" xmlns="http://www.w3.org/2000/svg" xmlns:xlink="http://www.w3.org/1999/xlink">
<g id="graph0" class="graph" transform="scale(1 1) rotate(0) translate(4 1408)">
<title>%3</title>
<polygon fill="white" stroke="none" points="-4,4 -4,-1408 1937.19,-1408 1937.19,4 -4,4"/>
<!-- soy yo -->
<g id="node1" class="node"><title>soy yo</title>
<ellipse fill="green" stroke="black" cx="1005" cy="-1386" rx="57.3905" ry="18"/>
<text text-anchor="middle" x="1005" y="-1382.3" font-family="Helvetica,sans-Serif" font-size="14.00" fill="white">172.20.10.2</text>
</g>
<!-- gateway -->
<g id="node11" class="node"><title>gateway</title>
<polygon fill="lightgrey" stroke="black" points="1038.5,-1332 971.5,-1332 971.5,-1296 1038.5,-1296 1038.5,-1332"/>
<text text-anchor="middle" x="1005" y="-1310.3" font-family="Helvetica,sans-Serif" font-size="14.00">gateway</text>
</g>
<!-- soy yo&#45;&#45;gateway -->
<g id="edge1" class="edge"><title>soy yo&#45;&#45;gateway</title>
<path fill="none" stroke="black" d="M1005,-1367.7C1005,-1356.85 1005,-1342.92 1005,-1332.1"/>
</g>
<!-- google.com -->
<g id="node2" class="node"><title>google.com</title>
<ellipse fill="green" stroke="black" cx="85" cy="-378" rx="56.59" ry="18"/>
<text text-anchor="middle" x="85" y="-374.3" font-family="Helvetica,sans-Serif" font-size="14.00" fill="white">google.com</text>
</g>
<!-- google.co.uk -->
<g id="node3" class="node"><title>google.co.uk</title>
<ellipse fill="green" stroke="black" cx="273" cy="-378" rx="60.3893" ry="18"/>
<text text-anchor="middle" x="273" y="-374.3" font-family="Helvetica,sans-Serif" font-size="14.00" fill="white">google.co.uk</text>
</g>
<!-- google.co.in -->
<g id="node4" class="node"><title>google.co.in</title>
<ellipse fill="green" stroke="black" cx="461" cy="-378" rx="57.6901" ry="18"/>
<text text-anchor="middle" x="461" y="-374.3" font-family="Helvetica,sans-Serif" font-size="14.00" fill="white">google.co.in</text>
</g>
<!-- deanturpin.github.io -->
<g id="node5" class="node"><title>deanturpin.github.io</title>
<ellipse fill="green" stroke="black" cx="559" cy="-522" rx="87.9851" ry="18"/>
<text text-anchor="middle" x="559" y="-518.3" font-family="Helvetica,sans-Serif" font-size="14.00" fill="white">deanturpin.github.io</text>
</g>
<!-- github.com -->
<g id="node6" class="node"><title>github.com</title>
<ellipse fill="green" stroke="black" cx="794" cy="-18" rx="53.8905" ry="18"/>
<text text-anchor="middle" x="794" y="-14.3" font-family="Helvetica,sans-Serif" font-size="14.00" fill="white">github.com</text>
</g>
<!-- silobrighton.com -->
<g id="node7" class="node"><title>silobrighton.com</title>
<ellipse fill="red" stroke="black" cx="1028" cy="-450" rx="75.2868" ry="18"/>
<text text-anchor="middle" x="1028" y="-446.3" font-family="Helvetica,sans-Serif" font-size="14.00" fill="white">silobrighton.com</text>
</g>
<!-- monzo.com -->
<g id="node8" class="node"><title>monzo.com</title>
<ellipse fill="green" stroke="black" cx="1876" cy="-594" rx="57.3905" ry="18"/>
<text text-anchor="middle" x="1876" y="-590.3" font-family="Helvetica,sans-Serif" font-size="14.00" fill="white">monzo.com</text>
</g>
<!-- infinityfoods.coop -->
<g id="node9" class="node"><title>infinityfoods.coop</title>
<ellipse fill="green" stroke="black" cx="1345" cy="-378" rx="78.7863" ry="18"/>
<text text-anchor="middle" x="1345" y="-374.3" font-family="Helvetica,sans-Serif" font-size="14.00" fill="white">infinityfoods.coop</text>
</g>
<!-- morningstar.co.uk -->
<g id="node10" class="node"><title>morningstar.co.uk</title>
<ellipse fill="red" stroke="black" cx="1680" cy="-522" rx="81.4863" ry="18"/>
<text text-anchor="middle" x="1680" y="-518.3" font-family="Helvetica,sans-Serif" font-size="14.00" fill="white">morningstar.co.uk</text>
</g>
<!-- 10.248.28.145 -->
<g id="node12" class="node"><title>10.248.28.145</title>
<polygon fill="lightgrey" stroke="black" points="996.5,-1260 893.5,-1260 893.5,-1224 996.5,-1224 996.5,-1260"/>
<text text-anchor="middle" x="945" y="-1238.3" font-family="Helvetica,sans-Serif" font-size="14.00">10.248.28.145</text>
</g>
<!-- gateway&#45;&#45;10.248.28.145 -->
<g id="edge2" class="edge"><title>gateway&#45;&#45;10.248.28.145</title>
<path fill="none" stroke="black" d="M990.169,-1295.7C980.868,-1284.85 968.929,-1270.92 959.661,-1260.1"/>
</g>
<!-- 10.248.28.153 -->
<g id="node29" class="node"><title>10.248.28.153</title>
<polygon fill="lightgrey" stroke="black" points="1117.5,-1260 1014.5,-1260 1014.5,-1224 1117.5,-1224 1117.5,-1260"/>
<text text-anchor="middle" x="1066" y="-1238.3" font-family="Helvetica,sans-Serif" font-size="14.00">10.248.28.153</text>
</g>
<!-- gateway&#45;&#45;10.248.28.153 -->
<g id="edge22" class="edge"><title>gateway&#45;&#45;10.248.28.153</title>
<path fill="none" stroke="black" d="M1020.08,-1295.7C1029.53,-1284.85 1041.67,-1270.92 1051.09,-1260.1"/>
</g>
<!-- 10.247.84.25 -->
<g id="node13" class="node"><title>10.247.84.25</title>
<polygon fill="lightgrey" stroke="black" points="994.5,-1188 899.5,-1188 899.5,-1152 994.5,-1152 994.5,-1188"/>
<text text-anchor="middle" x="947" y="-1166.3" font-family="Helvetica,sans-Serif" font-size="14.00">10.247.84.25</text>
</g>
<!-- 10.248.28.145&#45;&#45;10.247.84.25 -->
<g id="edge3" class="edge"><title>10.248.28.145&#45;&#45;10.247.84.25</title>
<path fill="none" stroke="black" d="M945.494,-1223.7C945.804,-1212.85 946.202,-1198.92 946.511,-1188.1"/>
</g>
<!-- 10.247.84.6 -->
<g id="node14" class="node"><title>10.247.84.6</title>
<polygon fill="lightgrey" stroke="black" points="1049,-1116 961,-1116 961,-1080 1049,-1080 1049,-1116"/>
<text text-anchor="middle" x="1005" y="-1094.3" font-family="Helvetica,sans-Serif" font-size="14.00">10.247.84.6</text>
</g>
<!-- 10.247.84.25&#45;&#45;10.247.84.6 -->
<g id="edge4" class="edge"><title>10.247.84.25&#45;&#45;10.247.84.6</title>
<path fill="none" stroke="black" d="M961.337,-1151.7C970.327,-1140.85 981.869,-1126.92 990.828,-1116.1"/>
</g>
<!-- 10.247.84.9 -->
<g id="node15" class="node"><title>10.247.84.9</title>
<polygon fill="lightgrey" stroke="black" points="1049,-1044 961,-1044 961,-1008 1049,-1008 1049,-1044"/>
<text text-anchor="middle" x="1005" y="-1022.3" font-family="Helvetica,sans-Serif" font-size="14.00">10.247.84.9</text>
</g>
<!-- 10.247.84.6&#45;&#45;10.247.84.9 -->
<g id="edge5" class="edge"><title>10.247.84.6&#45;&#45;10.247.84.9</title>
<path fill="none" stroke="black" d="M1005,-1079.7C1005,-1068.85 1005,-1054.92 1005,-1044.1"/>
</g>
<!-- 10.247.84.18 -->
<g id="node16" class="node"><title>10.247.84.18</title>
<polygon fill="lightgrey" stroke="black" points="1052.5,-972 957.5,-972 957.5,-936 1052.5,-936 1052.5,-972"/>
<text text-anchor="middle" x="1005" y="-950.3" font-family="Helvetica,sans-Serif" font-size="14.00">10.247.84.18</text>
</g>
<!-- 10.247.84.9&#45;&#45;10.247.84.18 -->
<g id="edge6" class="edge"><title>10.247.84.9&#45;&#45;10.247.84.18</title>
<path fill="none" stroke="black" d="M1005,-1007.7C1005,-996.846 1005,-982.917 1005,-972.104"/>
</g>
<!-- 87.237.20.224 -->
<g id="node17" class="node"><title>87.237.20.224</title>
<polygon fill="lightgrey" stroke="black" points="1056.5,-900 953.5,-900 953.5,-864 1056.5,-864 1056.5,-900"/>
<text text-anchor="middle" x="1005" y="-878.3" font-family="Helvetica,sans-Serif" font-size="14.00">87.237.20.224</text>
</g>
<!-- 10.247.84.18&#45;&#45;87.237.20.224 -->
<g id="edge7" class="edge"><title>10.247.84.18&#45;&#45;87.237.20.224</title>
<path fill="none" stroke="black" d="M1005,-935.697C1005,-924.846 1005,-910.917 1005,-900.104"/>
</g>
<!-- 87.237.20.73 -->
<g id="node18" class="node"><title>87.237.20.73</title>
<polygon fill="lightgrey" stroke="black" points="1052.5,-828 957.5,-828 957.5,-792 1052.5,-792 1052.5,-828"/>
<text text-anchor="middle" x="1005" y="-806.3" font-family="Helvetica,sans-Serif" font-size="14.00">87.237.20.73</text>
</g>
<!-- 87.237.20.224&#45;&#45;87.237.20.73 -->
<g id="edge8" class="edge"><title>87.237.20.224&#45;&#45;87.237.20.73</title>
<path fill="none" stroke="black" d="M1005,-863.697C1005,-852.846 1005,-838.917 1005,-828.104"/>
</g>
<!-- 87.237.20.36 -->
<g id="node19" class="node"><title>87.237.20.36</title>
<polygon fill="lightgrey" stroke="black" points="619.5,-756 524.5,-756 524.5,-720 619.5,-720 619.5,-756"/>
<text text-anchor="middle" x="572" y="-734.3" font-family="Helvetica,sans-Serif" font-size="14.00">87.237.20.36</text>
</g>
<!-- 87.237.20.73&#45;&#45;87.237.20.36 -->
<g id="edge9" class="edge"><title>87.237.20.73&#45;&#45;87.237.20.36</title>
<path fill="none" stroke="black" d="M957.423,-801.309C874.16,-787.848 702.974,-760.174 619.656,-746.704"/>
</g>
<!-- 80.150.169.13 -->
<g id="node31" class="node"><title>80.150.169.13</title>
<polygon fill="lightgrey" stroke="black" points="935.5,-756 832.5,-756 832.5,-720 935.5,-720 935.5,-756"/>
<text text-anchor="middle" x="884" y="-734.3" font-family="Helvetica,sans-Serif" font-size="14.00">80.150.169.13</text>
</g>
<!-- 87.237.20.73&#45;&#45;80.150.169.13 -->
<g id="edge25" class="edge"><title>87.237.20.73&#45;&#45;80.150.169.13</title>
<path fill="none" stroke="black" d="M975.4,-791.876C956.65,-781.029 932.486,-767.05 913.714,-756.19"/>
</g>
<!-- 87.237.20.33 -->
<g id="node42" class="node"><title>87.237.20.33</title>
<polygon fill="lightgrey" stroke="black" points="1173.5,-756 1078.5,-756 1078.5,-720 1173.5,-720 1173.5,-756"/>
<text text-anchor="middle" x="1126" y="-734.3" font-family="Helvetica,sans-Serif" font-size="14.00">87.237.20.33</text>
</g>
<!-- 87.237.20.73&#45;&#45;87.237.20.33 -->
<g id="edge38" class="edge"><title>87.237.20.73&#45;&#45;87.237.20.33</title>
<path fill="none" stroke="black" d="M1034.6,-791.876C1053.35,-781.029 1077.51,-767.05 1096.29,-756.19"/>
</g>
<!-- linx&#45;lon1.as13335.net -->
<g id="node46" class="node"><title>linx&#45;lon1.as13335.net</title>
<polygon fill="lightgrey" stroke="black" points="1510.5,-756 1365.5,-756 1365.5,-720 1510.5,-720 1510.5,-756"/>
<text text-anchor="middle" x="1438" y="-734.3" font-family="Helvetica,sans-Serif" font-size="14.00">linx&#45;lon1.as13335.net</text>
</g>
<!-- 87.237.20.73&#45;&#45;linx&#45;lon1.as13335.net -->
<g id="edge43" class="edge"><title>87.237.20.73&#45;&#45;linx&#45;lon1.as13335.net</title>
<path fill="none" stroke="black" d="M1052.58,-801.309C1128.15,-789.091 1276.16,-765.164 1365.15,-750.777"/>
</g>
<!-- 74.125.52.218 -->
<g id="node20" class="node"><title>74.125.52.218</title>
<polygon fill="lightgrey" stroke="black" points="357.5,-684 254.5,-684 254.5,-648 357.5,-648 357.5,-684"/>
<text text-anchor="middle" x="306" y="-662.3" font-family="Helvetica,sans-Serif" font-size="14.00">74.125.52.218</text>
</g>
<!-- 87.237.20.36&#45;&#45;74.125.52.218 -->
<g id="edge10" class="edge"><title>87.237.20.36&#45;&#45;74.125.52.218</title>
<path fill="none" stroke="black" d="M524.445,-724.485C477.522,-712.137 405.993,-693.314 357.687,-680.602"/>
</g>
<!-- 108.170.246.225 -->
<g id="node21" class="node"><title>108.170.246.225</title>
<polygon fill="lightgrey" stroke="black" points="203,-612 85,-612 85,-576 203,-576 203,-612"/>
<text text-anchor="middle" x="144" y="-590.3" font-family="Helvetica,sans-Serif" font-size="14.00">108.170.246.225</text>
</g>
<!-- 74.125.52.218&#45;&#45;108.170.246.225 -->
<g id="edge11" class="edge"><title>74.125.52.218&#45;&#45;108.170.246.225</title>
<path fill="none" stroke="black" d="M266.37,-647.876C241.173,-636.988 208.674,-622.945 183.501,-612.068"/>
</g>
<!-- 108.170.246.193 -->
<g id="node24" class="node"><title>108.170.246.193</title>
<polygon fill="lightgrey" stroke="black" points="365,-612 247,-612 247,-576 365,-576 365,-612"/>
<text text-anchor="middle" x="306" y="-590.3" font-family="Helvetica,sans-Serif" font-size="14.00">108.170.246.193</text>
</g>
<!-- 74.125.52.218&#45;&#45;108.170.246.193 -->
<g id="edge15" class="edge"><title>74.125.52.218&#45;&#45;108.170.246.193</title>
<path fill="none" stroke="black" d="M306,-647.697C306,-636.846 306,-622.917 306,-612.104"/>
</g>
<!-- 108.170.235.107 -->
<g id="node22" class="node"><title>108.170.235.107</title>
<polygon fill="lightgrey" stroke="black" points="170,-540 52,-540 52,-504 170,-504 170,-540"/>
<text text-anchor="middle" x="111" y="-518.3" font-family="Helvetica,sans-Serif" font-size="14.00">108.170.235.107</text>
</g>
<!-- 108.170.246.225&#45;&#45;108.170.235.107 -->
<g id="edge12" class="edge"><title>108.170.246.225&#45;&#45;108.170.235.107</title>
<path fill="none" stroke="black" d="M135.843,-575.697C130.728,-564.846 124.161,-550.917 119.063,-540.104"/>
</g>
<!-- lhr35s02&#45;in&#45;f46.1e100.net -->
<g id="node23" class="node"><title>lhr35s02&#45;in&#45;f46.1e100.net</title>
<polygon fill="lightgrey" stroke="black" points="170,-468 0,-468 0,-432 170,-432 170,-468"/>
<text text-anchor="middle" x="85" y="-446.3" font-family="Helvetica,sans-Serif" font-size="14.00">lhr35s02&#45;in&#45;f46.1e100.net</text>
</g>
<!-- 108.170.235.107&#45;&#45;lhr35s02&#45;in&#45;f46.1e100.net -->
<g id="edge13" class="edge"><title>108.170.235.107&#45;&#45;lhr35s02&#45;in&#45;f46.1e100.net</title>
<path fill="none" stroke="black" d="M104.573,-503.697C100.543,-492.846 95.3691,-478.917 91.353,-468.104"/>
</g>
<!-- lhr35s02&#45;in&#45;f46.1e100.net&#45;&#45;google.com -->
<g id="edge14" class="edge"><title>lhr35s02&#45;in&#45;f46.1e100.net&#45;&#45;google.com</title>
<path fill="none" stroke="black" d="M85,-431.697C85,-420.846 85,-406.917 85,-396.104"/>
</g>
<!-- 108.170.238.149 -->
<g id="node25" class="node"><title>108.170.238.149</title>
<polygon fill="lightgrey" stroke="black" points="332,-540 214,-540 214,-504 332,-504 332,-540"/>
<text text-anchor="middle" x="273" y="-518.3" font-family="Helvetica,sans-Serif" font-size="14.00">108.170.238.149</text>
</g>
<!-- 108.170.246.193&#45;&#45;108.170.238.149 -->
<g id="edge16" class="edge"><title>108.170.246.193&#45;&#45;108.170.238.149</title>
<path fill="none" stroke="black" d="M297.843,-575.697C292.728,-564.846 286.161,-550.917 281.063,-540.104"/>
</g>
<!-- 72.14.234.129 -->
<g id="node27" class="node"><title>72.14.234.129</title>
<polygon fill="lightgrey" stroke="black" points="453.5,-540 350.5,-540 350.5,-504 453.5,-504 453.5,-540"/>
<text text-anchor="middle" x="402" y="-518.3" font-family="Helvetica,sans-Serif" font-size="14.00">72.14.234.129</text>
</g>
<!-- 108.170.246.193&#45;&#45;72.14.234.129 -->
<g id="edge19" class="edge"><title>108.170.246.193&#45;&#45;72.14.234.129</title>
<path fill="none" stroke="black" d="M329.73,-575.697C344.611,-564.846 363.714,-550.917 378.543,-540.104"/>
</g>
<!-- lhr35s06&#45;in&#45;f99.1e100.net -->
<g id="node26" class="node"><title>lhr35s06&#45;in&#45;f99.1e100.net</title>
<polygon fill="lightgrey" stroke="black" points="358,-468 188,-468 188,-432 358,-432 358,-468"/>
<text text-anchor="middle" x="273" y="-446.3" font-family="Helvetica,sans-Serif" font-size="14.00">lhr35s06&#45;in&#45;f99.1e100.net</text>
</g>
<!-- 108.170.238.149&#45;&#45;lhr35s06&#45;in&#45;f99.1e100.net -->
<g id="edge17" class="edge"><title>108.170.238.149&#45;&#45;lhr35s06&#45;in&#45;f99.1e100.net</title>
<path fill="none" stroke="black" d="M273,-503.697C273,-492.846 273,-478.917 273,-468.104"/>
</g>
<!-- lhr35s06&#45;in&#45;f99.1e100.net&#45;&#45;google.co.uk -->
<g id="edge18" class="edge"><title>lhr35s06&#45;in&#45;f99.1e100.net&#45;&#45;google.co.uk</title>
<path fill="none" stroke="black" d="M273,-431.697C273,-420.846 273,-406.917 273,-396.104"/>
</g>
<!-- lhr35s05&#45;in&#45;f67.1e100.net -->
<g id="node28" class="node"><title>lhr35s05&#45;in&#45;f67.1e100.net</title>
<polygon fill="lightgrey" stroke="black" points="546,-468 376,-468 376,-432 546,-432 546,-468"/>
<text text-anchor="middle" x="461" y="-446.3" font-family="Helvetica,sans-Serif" font-size="14.00">lhr35s05&#45;in&#45;f67.1e100.net</text>
</g>
<!-- 72.14.234.129&#45;&#45;lhr35s05&#45;in&#45;f67.1e100.net -->
<g id="edge20" class="edge"><title>72.14.234.129&#45;&#45;lhr35s05&#45;in&#45;f67.1e100.net</title>
<path fill="none" stroke="black" d="M416.584,-503.697C425.73,-492.846 437.47,-478.917 446.583,-468.104"/>
</g>
<!-- lhr35s05&#45;in&#45;f67.1e100.net&#45;&#45;google.co.in -->
<g id="edge21" class="edge"><title>lhr35s05&#45;in&#45;f67.1e100.net&#45;&#45;google.co.in</title>
<path fill="none" stroke="black" d="M461,-431.697C461,-420.846 461,-406.917 461,-396.104"/>
</g>
<!-- 10.247.84.27 -->
<g id="node30" class="node"><title>10.247.84.27</title>
<polygon fill="lightgrey" stroke="black" points="1111.5,-1188 1016.5,-1188 1016.5,-1152 1111.5,-1152 1111.5,-1188"/>
<text text-anchor="middle" x="1064" y="-1166.3" font-family="Helvetica,sans-Serif" font-size="14.00">10.247.84.27</text>
</g>
<!-- 10.248.28.153&#45;&#45;10.247.84.27 -->
<g id="edge23" class="edge"><title>10.248.28.153&#45;&#45;10.247.84.27</title>
<path fill="none" stroke="black" d="M1065.51,-1223.7C1065.2,-1212.85 1064.8,-1198.92 1064.49,-1188.1"/>
</g>
<!-- 10.247.84.27&#45;&#45;10.247.84.6 -->
<g id="edge24" class="edge"><title>10.247.84.27&#45;&#45;10.247.84.6</title>
<path fill="none" stroke="black" d="M1049.42,-1151.7C1040.27,-1140.85 1028.53,-1126.92 1019.42,-1116.1"/>
</g>
<!-- 80.150.170.106 -->
<g id="node32" class="node"><title>80.150.170.106</title>
<polygon fill="lightgrey" stroke="black" points="849,-684 739,-684 739,-648 849,-648 849,-684"/>
<text text-anchor="middle" x="794" y="-662.3" font-family="Helvetica,sans-Serif" font-size="14.00">80.150.170.106</text>
</g>
<!-- 80.150.169.13&#45;&#45;80.150.170.106 -->
<g id="edge26" class="edge"><title>80.150.169.13&#45;&#45;80.150.170.106</title>
<path fill="none" stroke="black" d="M861.753,-719.697C847.802,-708.846 829.893,-694.917 815.991,-684.104"/>
</g>
<!-- ae&#45;11.r04.londen12.uk.bb.gin.ntt.net -->
<g id="node33" class="node"><title>ae&#45;11.r04.londen12.uk.bb.gin.ntt.net</title>
<polygon fill="lightgrey" stroke="black" points="662.5,-612 429.5,-612 429.5,-576 662.5,-576 662.5,-612"/>
<text text-anchor="middle" x="546" y="-590.3" font-family="Helvetica,sans-Serif" font-size="14.00">ae&#45;11.r04.londen12.uk.bb.gin.ntt.net</text>
</g>
<!-- 80.150.170.106&#45;&#45;ae&#45;11.r04.londen12.uk.bb.gin.ntt.net -->
<g id="edge27" class="edge"><title>80.150.170.106&#45;&#45;ae&#45;11.r04.londen12.uk.bb.gin.ntt.net</title>
<path fill="none" stroke="black" d="M738.961,-649.465C699.718,-638.388 646.964,-623.498 606.534,-612.086"/>
</g>
<!-- ae&#45;3.r24.londen12.uk.bb.gin.ntt.net -->
<g id="node34" class="node"><title>ae&#45;3.r24.londen12.uk.bb.gin.ntt.net</title>
<polygon fill="lightgrey" stroke="black" points="907,-612 681,-612 681,-576 907,-576 907,-612"/>
<text text-anchor="middle" x="794" y="-590.3" font-family="Helvetica,sans-Serif" font-size="14.00">ae&#45;3.r24.londen12.uk.bb.gin.ntt.net</text>
</g>
<!-- 80.150.170.106&#45;&#45;ae&#45;3.r24.londen12.uk.bb.gin.ntt.net -->
<g id="edge29" class="edge"><title>80.150.170.106&#45;&#45;ae&#45;3.r24.londen12.uk.bb.gin.ntt.net</title>
<path fill="none" stroke="black" d="M794,-647.697C794,-636.846 794,-622.917 794,-612.104"/>
</g>
<!-- ae&#45;11.r04.londen12.uk.bb.gin.ntt.net&#45;&#45;deanturpin.github.io -->
<g id="edge28" class="edge"><title>ae&#45;11.r04.londen12.uk.bb.gin.ntt.net&#45;&#45;deanturpin.github.io</title>
<path fill="none" stroke="black" d="M549.213,-575.697C551.229,-564.846 553.815,-550.917 555.823,-540.104"/>
</g>
<!-- ae&#45;5.r24.nycmny01.us.bb.gin.ntt.net -->
<g id="node35" class="node"><title>ae&#45;5.r24.nycmny01.us.bb.gin.ntt.net</title>
<polygon fill="lightgrey" stroke="black" points="910.5,-540 677.5,-540 677.5,-504 910.5,-504 910.5,-540"/>
<text text-anchor="middle" x="794" y="-518.3" font-family="Helvetica,sans-Serif" font-size="14.00">ae&#45;5.r24.nycmny01.us.bb.gin.ntt.net</text>
</g>
<!-- ae&#45;3.r24.londen12.uk.bb.gin.ntt.net&#45;&#45;ae&#45;5.r24.nycmny01.us.bb.gin.ntt.net -->
<g id="edge30" class="edge"><title>ae&#45;3.r24.londen12.uk.bb.gin.ntt.net&#45;&#45;ae&#45;5.r24.nycmny01.us.bb.gin.ntt.net</title>
<path fill="none" stroke="black" d="M794,-575.697C794,-564.846 794,-550.917 794,-540.104"/>
</g>
<!-- ae&#45;1.r25.nycmny01.us.bb.gin.ntt.net -->
<g id="node36" class="node"><title>ae&#45;1.r25.nycmny01.us.bb.gin.ntt.net</title>
<polygon fill="lightgrey" stroke="black" points="910.5,-468 677.5,-468 677.5,-432 910.5,-432 910.5,-468"/>
<text text-anchor="middle" x="794" y="-446.3" font-family="Helvetica,sans-Serif" font-size="14.00">ae&#45;1.r25.nycmny01.us.bb.gin.ntt.net</text>
</g>
<!-- ae&#45;5.r24.nycmny01.us.bb.gin.ntt.net&#45;&#45;ae&#45;1.r25.nycmny01.us.bb.gin.ntt.net -->
<g id="edge31" class="edge"><title>ae&#45;5.r24.nycmny01.us.bb.gin.ntt.net&#45;&#45;ae&#45;1.r25.nycmny01.us.bb.gin.ntt.net</title>
<path fill="none" stroke="black" d="M794,-503.697C794,-492.846 794,-478.917 794,-468.104"/>
</g>
<!-- ae&#45;9.r22.asbnva02.us.bb.gin.ntt.net -->
<g id="node37" class="node"><title>ae&#45;9.r22.asbnva02.us.bb.gin.ntt.net</title>
<polygon fill="lightgrey" stroke="black" points="908.5,-396 679.5,-396 679.5,-360 908.5,-360 908.5,-396"/>
<text text-anchor="middle" x="794" y="-374.3" font-family="Helvetica,sans-Serif" font-size="14.00">ae&#45;9.r22.asbnva02.us.bb.gin.ntt.net</text>
</g>
<!-- ae&#45;1.r25.nycmny01.us.bb.gin.ntt.net&#45;&#45;ae&#45;9.r22.asbnva02.us.bb.gin.ntt.net -->
<g id="edge32" class="edge"><title>ae&#45;1.r25.nycmny01.us.bb.gin.ntt.net&#45;&#45;ae&#45;9.r22.asbnva02.us.bb.gin.ntt.net</title>
<path fill="none" stroke="black" d="M794,-431.697C794,-420.846 794,-406.917 794,-396.104"/>
</g>
<!-- ae&#45;1.r05.asbnva02.us.bb.gin.ntt.net -->
<g id="node38" class="node"><title>ae&#45;1.r05.asbnva02.us.bb.gin.ntt.net</title>
<polygon fill="lightgrey" stroke="black" points="908.5,-324 679.5,-324 679.5,-288 908.5,-288 908.5,-324"/>
<text text-anchor="middle" x="794" y="-302.3" font-family="Helvetica,sans-Serif" font-size="14.00">ae&#45;1.r05.asbnva02.us.bb.gin.ntt.net</text>
</g>
<!-- ae&#45;9.r22.asbnva02.us.bb.gin.ntt.net&#45;&#45;ae&#45;1.r05.asbnva02.us.bb.gin.ntt.net -->
<g id="edge33" class="edge"><title>ae&#45;9.r22.asbnva02.us.bb.gin.ntt.net&#45;&#45;ae&#45;1.r05.asbnva02.us.bb.gin.ntt.net</title>
<path fill="none" stroke="black" d="M794,-359.697C794,-348.846 794,-334.917 794,-324.104"/>
</g>
<!-- ae&#45;1.a01.asbnva02.us.bb.gin.ntt.net -->
<g id="node39" class="node"><title>ae&#45;1.a01.asbnva02.us.bb.gin.ntt.net</title>
<polygon fill="lightgrey" stroke="black" points="910,-252 678,-252 678,-216 910,-216 910,-252"/>
<text text-anchor="middle" x="794" y="-230.3" font-family="Helvetica,sans-Serif" font-size="14.00">ae&#45;1.a01.asbnva02.us.bb.gin.ntt.net</text>
</g>
<!-- ae&#45;1.r05.asbnva02.us.bb.gin.ntt.net&#45;&#45;ae&#45;1.a01.asbnva02.us.bb.gin.ntt.net -->
<g id="edge34" class="edge"><title>ae&#45;1.r05.asbnva02.us.bb.gin.ntt.net&#45;&#45;ae&#45;1.a01.asbnva02.us.bb.gin.ntt.net</title>
<path fill="none" stroke="black" d="M794,-287.697C794,-276.846 794,-262.917 794,-252.104"/>
</g>
<!-- xe&#45;0&#45;0&#45;25&#45;1.a01.asbnva02.us.ce.gin.ntt.net -->
<g id="node40" class="node"><title>xe&#45;0&#45;0&#45;25&#45;1.a01.asbnva02.us.ce.gin.ntt.net</title>
<polygon fill="lightgrey" stroke="black" points="931,-180 657,-180 657,-144 931,-144 931,-180"/>
<text text-anchor="middle" x="794" y="-158.3" font-family="Helvetica,sans-Serif" font-size="14.00">xe&#45;0&#45;0&#45;25&#45;1.a01.asbnva02.us.ce.gin.ntt.net</text>
</g>
<!-- ae&#45;1.a01.asbnva02.us.bb.gin.ntt.net&#45;&#45;xe&#45;0&#45;0&#45;25&#45;1.a01.asbnva02.us.ce.gin.ntt.net -->
<g id="edge35" class="edge"><title>ae&#45;1.a01.asbnva02.us.bb.gin.ntt.net&#45;&#45;xe&#45;0&#45;0&#45;25&#45;1.a01.asbnva02.us.ce.gin.ntt.net</title>
<path fill="none" stroke="black" d="M794,-215.697C794,-204.846 794,-190.917 794,-180.104"/>
</g>
<!-- lb&#45;192&#45;30&#45;253&#45;112&#45;iad.github.com -->
<g id="node41" class="node"><title>lb&#45;192&#45;30&#45;253&#45;112&#45;iad.github.com</title>
<polygon fill="lightgrey" stroke="black" points="904.5,-108 683.5,-108 683.5,-72 904.5,-72 904.5,-108"/>
<text text-anchor="middle" x="794" y="-86.3" font-family="Helvetica,sans-Serif" font-size="14.00">lb&#45;192&#45;30&#45;253&#45;112&#45;iad.github.com</text>
</g>
<!-- xe&#45;0&#45;0&#45;25&#45;1.a01.asbnva02.us.ce.gin.ntt.net&#45;&#45;lb&#45;192&#45;30&#45;253&#45;112&#45;iad.github.com -->
<g id="edge36" class="edge"><title>xe&#45;0&#45;0&#45;25&#45;1.a01.asbnva02.us.ce.gin.ntt.net&#45;&#45;lb&#45;192&#45;30&#45;253&#45;112&#45;iad.github.com</title>
<path fill="none" stroke="black" d="M794,-143.697C794,-132.846 794,-118.917 794,-108.104"/>
</g>
<!-- lb&#45;192&#45;30&#45;253&#45;112&#45;iad.github.com&#45;&#45;github.com -->
<g id="edge37" class="edge"><title>lb&#45;192&#45;30&#45;253&#45;112&#45;iad.github.com&#45;&#45;github.com</title>
<path fill="none" stroke="black" d="M794,-71.6966C794,-60.8463 794,-46.9167 794,-36.1043"/>
</g>
<!-- 195.66.225.215 -->
<g id="node43" class="node"><title>195.66.225.215</title>
<polygon fill="lightgrey" stroke="black" points="1118,-684 1008,-684 1008,-648 1118,-648 1118,-684"/>
<text text-anchor="middle" x="1063" y="-662.3" font-family="Helvetica,sans-Serif" font-size="14.00">195.66.225.215</text>
</g>
<!-- 87.237.20.33&#45;&#45;195.66.225.215 -->
<g id="edge39" class="edge"><title>87.237.20.33&#45;&#45;195.66.225.215</title>
<path fill="none" stroke="black" d="M1110.43,-719.697C1100.66,-708.846 1088.13,-694.917 1078.39,-684.104"/>
</g>
<!-- linx1.orbital.net -->
<g id="node48" class="node"><title>linx1.orbital.net</title>
<polygon fill="lightgrey" stroke="black" points="1338.5,-684 1231.5,-684 1231.5,-648 1338.5,-648 1338.5,-684"/>
<text text-anchor="middle" x="1285" y="-662.3" font-family="Helvetica,sans-Serif" font-size="14.00">linx1.orbital.net</text>
</g>
<!-- 87.237.20.33&#45;&#45;linx1.orbital.net -->
<g id="edge46" class="edge"><title>87.237.20.33&#45;&#45;linx1.orbital.net</title>
<path fill="none" stroke="black" d="M1164.9,-719.876C1189.63,-708.988 1221.52,-694.945 1246.23,-684.068"/>
</g>
<!-- linx.ae4&#45;irt1.lon37.uk.as13237.net -->
<g id="node52" class="node"><title>linx.ae4&#45;irt1.lon37.uk.as13237.net</title>
<polygon fill="lightgrey" stroke="black" points="1699.5,-684 1480.5,-684 1480.5,-648 1699.5,-648 1699.5,-684"/>
<text text-anchor="middle" x="1590" y="-662.3" font-family="Helvetica,sans-Serif" font-size="14.00">linx.ae4&#45;irt1.lon37.uk.as13237.net</text>
</g>
<!-- 87.237.20.33&#45;&#45;linx.ae4&#45;irt1.lon37.uk.as13237.net -->
<g id="edge51" class="edge"><title>87.237.20.33&#45;&#45;linx.ae4&#45;irt1.lon37.uk.as13237.net</title>
<path fill="none" stroke="black" d="M1173.91,-729.772C1245.69,-718.944 1383.08,-698.216 1480.32,-683.546"/>
</g>
<!-- 4d&#45;lgw&#45;bbr&#45;2&#45;0002&#45;6.4d&#45;dc.com -->
<g id="node44" class="node"><title>4d&#45;lgw&#45;bbr&#45;2&#45;0002&#45;6.4d&#45;dc.com</title>
<polygon fill="lightgrey" stroke="black" points="1131,-612 925,-612 925,-576 1131,-576 1131,-612"/>
<text text-anchor="middle" x="1028" y="-590.3" font-family="Helvetica,sans-Serif" font-size="14.00">4d&#45;lgw&#45;bbr&#45;2&#45;0002&#45;6.4d&#45;dc.com</text>
</g>
<!-- 195.66.225.215&#45;&#45;4d&#45;lgw&#45;bbr&#45;2&#45;0002&#45;6.4d&#45;dc.com -->
<g id="edge40" class="edge"><title>195.66.225.215&#45;&#45;4d&#45;lgw&#45;bbr&#45;2&#45;0002&#45;6.4d&#45;dc.com</title>
<path fill="none" stroke="black" d="M1054.35,-647.697C1048.92,-636.846 1041.96,-622.917 1036.55,-612.104"/>
</g>
<!-- 4d&#45;lgw&#45;men&#45;2&#45;024.4d&#45;dc.com -->
<g id="node45" class="node"><title>4d&#45;lgw&#45;men&#45;2&#45;024.4d&#45;dc.com</title>
<polygon fill="lightgrey" stroke="black" points="1125,-540 931,-540 931,-504 1125,-504 1125,-540"/>
<text text-anchor="middle" x="1028" y="-518.3" font-family="Helvetica,sans-Serif" font-size="14.00">4d&#45;lgw&#45;men&#45;2&#45;024.4d&#45;dc.com</text>
</g>
<!-- 4d&#45;lgw&#45;bbr&#45;2&#45;0002&#45;6.4d&#45;dc.com&#45;&#45;4d&#45;lgw&#45;men&#45;2&#45;024.4d&#45;dc.com -->
<g id="edge41" class="edge"><title>4d&#45;lgw&#45;bbr&#45;2&#45;0002&#45;6.4d&#45;dc.com&#45;&#45;4d&#45;lgw&#45;men&#45;2&#45;024.4d&#45;dc.com</title>
<path fill="none" stroke="black" d="M1028,-575.697C1028,-564.846 1028,-550.917 1028,-540.104"/>
</g>
<!-- 4d&#45;lgw&#45;men&#45;2&#45;024.4d&#45;dc.com&#45;&#45;silobrighton.com -->
<g id="edge42" class="edge"><title>4d&#45;lgw&#45;men&#45;2&#45;024.4d&#45;dc.com&#45;&#45;silobrighton.com</title>
<path fill="none" stroke="black" d="M1028,-503.697C1028,-492.846 1028,-478.917 1028,-468.104"/>
</g>
<!-- 104.25.211.99 -->
<g id="node47" class="node"><title>104.25.211.99</title>
<polygon fill="lightgrey" stroke="black" points="1891.5,-684 1788.5,-684 1788.5,-648 1891.5,-648 1891.5,-684"/>
<text text-anchor="middle" x="1840" y="-662.3" font-family="Helvetica,sans-Serif" font-size="14.00">104.25.211.99</text>
</g>
<!-- linx&#45;lon1.as13335.net&#45;&#45;104.25.211.99 -->
<g id="edge44" class="edge"><title>linx&#45;lon1.as13335.net&#45;&#45;104.25.211.99</title>
<path fill="none" stroke="black" d="M1510.8,-724.324C1591.01,-710.357 1717.96,-688.25 1788.48,-675.971"/>
</g>
<!-- 104.25.211.99&#45;&#45;monzo.com -->
<g id="edge45" class="edge"><title>104.25.211.99&#45;&#45;monzo.com</title>
<path fill="none" stroke="black" d="M1848.9,-647.697C1854.48,-636.846 1861.64,-622.917 1867.2,-612.104"/>
</g>
<!-- xe2&#45;2&#45;ve&#45;83.thn&#45;pe&#45;2.thn.thebunker.net.202.88.80.in&#45;addr.arpa -->
<g id="node49" class="node"><title>xe2&#45;2&#45;ve&#45;83.thn&#45;pe&#45;2.thn.thebunker.net.202.88.80.in&#45;addr.arpa</title>
<polygon fill="lightgrey" stroke="black" points="1541,-612 1149,-612 1149,-576 1541,-576 1541,-612"/>
<text text-anchor="middle" x="1345" y="-590.3" font-family="Helvetica,sans-Serif" font-size="14.00">xe2&#45;2&#45;ve&#45;83.thn&#45;pe&#45;2.thn.thebunker.net.202.88.80.in&#45;addr.arpa</text>
</g>
<!-- linx1.orbital.net&#45;&#45;xe2&#45;2&#45;ve&#45;83.thn&#45;pe&#45;2.thn.thebunker.net.202.88.80.in&#45;addr.arpa -->
<g id="edge47" class="edge"><title>linx1.orbital.net&#45;&#45;xe2&#45;2&#45;ve&#45;83.thn&#45;pe&#45;2.thn.thebunker.net.202.88.80.in&#45;addr.arpa</title>
<path fill="none" stroke="black" d="M1299.83,-647.697C1309.13,-636.846 1321.07,-622.917 1330.34,-612.104"/>
</g>
<!-- 213.129.70.253 -->
<g id="node50" class="node"><title>213.129.70.253</title>
<polygon fill="lightgrey" stroke="black" points="1400,-540 1290,-540 1290,-504 1400,-504 1400,-540"/>
<text text-anchor="middle" x="1345" y="-518.3" font-family="Helvetica,sans-Serif" font-size="14.00">213.129.70.253</text>
</g>
<!-- xe2&#45;2&#45;ve&#45;83.thn&#45;pe&#45;2.thn.thebunker.net.202.88.80.in&#45;addr.arpa&#45;&#45;213.129.70.253 -->
<g id="edge48" class="edge"><title>xe2&#45;2&#45;ve&#45;83.thn&#45;pe&#45;2.thn.thebunker.net.202.88.80.in&#45;addr.arpa&#45;&#45;213.129.70.253</title>
<path fill="none" stroke="black" d="M1345,-575.697C1345,-564.846 1345,-550.917 1345,-540.104"/>
</g>
<!-- 213.129.70.237 -->
<g id="node51" class="node"><title>213.129.70.237</title>
<polygon fill="lightgrey" stroke="black" points="1400,-468 1290,-468 1290,-432 1400,-432 1400,-468"/>
<text text-anchor="middle" x="1345" y="-446.3" font-family="Helvetica,sans-Serif" font-size="14.00">213.129.70.237</text>
</g>
<!-- 213.129.70.253&#45;&#45;213.129.70.237 -->
<g id="edge49" class="edge"><title>213.129.70.253&#45;&#45;213.129.70.237</title>
<path fill="none" stroke="black" d="M1345,-503.697C1345,-492.846 1345,-478.917 1345,-468.104"/>
</g>
<!-- 213.129.70.237&#45;&#45;infinityfoods.coop -->
<g id="edge50" class="edge"><title>213.129.70.237&#45;&#45;infinityfoods.coop</title>
<path fill="none" stroke="black" d="M1345,-431.697C1345,-420.846 1345,-406.917 1345,-396.104"/>
</g>
<!-- 84.207.244.126.not&#45;updated.eunx.net -->
<g id="node53" class="node"><title>84.207.244.126.not&#45;updated.eunx.net</title>
<polygon fill="lightgrey" stroke="black" points="1801,-612 1559,-612 1559,-576 1801,-576 1801,-612"/>
<text text-anchor="middle" x="1680" y="-590.3" font-family="Helvetica,sans-Serif" font-size="14.00">84.207.244.126.not&#45;updated.eunx.net</text>
</g>
<!-- linx.ae4&#45;irt1.lon37.uk.as13237.net&#45;&#45;84.207.244.126.not&#45;updated.eunx.net -->
<g id="edge52" class="edge"><title>linx.ae4&#45;irt1.lon37.uk.as13237.net&#45;&#45;84.207.244.126.not&#45;updated.eunx.net</title>
<path fill="none" stroke="black" d="M1612.25,-647.697C1626.2,-636.846 1644.11,-622.917 1658.01,-612.104"/>
</g>
<!-- 84.207.244.126.not&#45;updated.eunx.net&#45;&#45;morningstar.co.uk -->
<g id="edge53" class="edge"><title>84.207.244.126.not&#45;updated.eunx.net&#45;&#45;morningstar.co.uk</title>
<path fill="none" stroke="black" d="M1680,-575.697C1680,-564.846 1680,-550.917 1680,-540.104"/>
</g>
</g>
</svg>
