<?xml version="1.0" encoding="UTF-8" standalone="no"?>
<!DOCTYPE svg PUBLIC "-//W3C//DTD SVG 1.1//EN"
 "http://www.w3.org/Graphics/SVG/1.1/DTD/svg11.dtd">
<!-- Generated by graphviz version 2.38.0 (20140413.2041)
 -->
<!-- Title: %3 Pages: 1 -->
<svg width="1262pt" height="908pt"
 viewBox="0.00 0.00 1262.24 908.00" xmlns="http://www.w3.org/2000/svg" xmlns:xlink="http://www.w3.org/1999/xlink">
<g id="graph0" class="graph" transform="scale(1 1) rotate(0) translate(4 904)">
<title>%3</title>
<polygon fill="white" stroke="none" points="-4,4 -4,-904 1258.24,-904 1258.24,4 -4,4"/>
<!-- soy yo -->
<g id="node1" class="node"><title>soy yo</title>
<ellipse fill="green" stroke="black" cx="765.742" cy="-882" rx="36.2938" ry="18"/>
<text text-anchor="middle" x="765.742" y="-878.3" font-family="Helvetica,sans-Serif" font-size="14.00" fill="white">soy yo</text>
</g>
<!-- 192.168.0.1 -->
<g id="node12" class="node"><title>192.168.0.1</title>
<polygon fill="lightgrey" stroke="black" points="809.742,-828 721.742,-828 721.742,-792 809.742,-792 809.742,-828"/>
<text text-anchor="middle" x="765.742" y="-806.3" font-family="Helvetica,sans-Serif" font-size="14.00">192.168.0.1</text>
</g>
<!-- soy yo&#45;&#45;192.168.0.1 -->
<g id="edge1" class="edge"><title>soy yo&#45;&#45;192.168.0.1</title>
<path fill="none" stroke="black" d="M765.742,-863.697C765.742,-852.846 765.742,-838.917 765.742,-828.104"/>
</g>
<!-- google.com -->
<g id="node2" class="node"><title>google.com</title>
<ellipse fill="green" stroke="black" cx="256.742" cy="-450" rx="56.59" ry="18"/>
<text text-anchor="middle" x="256.742" y="-446.3" font-family="Helvetica,sans-Serif" font-size="14.00" fill="white">google.com</text>
</g>
<!-- deanturpin.github.io -->
<g id="node3" class="node"><title>deanturpin.github.io</title>
<ellipse fill="green" stroke="black" cx="87.7422" cy="-666" rx="87.9851" ry="18"/>
<text text-anchor="middle" x="87.7422" y="-662.3" font-family="Helvetica,sans-Serif" font-size="14.00" fill="white">deanturpin.github.io</text>
</g>
<!-- github.com -->
<g id="node4" class="node"><title>github.com</title>
<ellipse fill="green" stroke="black" cx="387.742" cy="-522" rx="53.8905" ry="18"/>
<text text-anchor="middle" x="387.742" y="-518.3" font-family="Helvetica,sans-Serif" font-size="14.00" fill="white">github.com</text>
</g>
<!-- silobrighton.com -->
<g id="node5" class="node"><title>silobrighton.com</title>
<ellipse fill="red" stroke="black" cx="510.742" cy="-378" rx="75.2868" ry="18"/>
<text text-anchor="middle" x="510.742" y="-374.3" font-family="Helvetica,sans-Serif" font-size="14.00" fill="white">silobrighton.com</text>
</g>
<!-- instagram.com -->
<g id="node6" class="node"><title>instagram.com</title>
<ellipse fill="green" stroke="black" cx="649.742" cy="-522" rx="69.5877" ry="18"/>
<text text-anchor="middle" x="649.742" y="-518.3" font-family="Helvetica,sans-Serif" font-size="14.00" fill="white">instagram.com</text>
</g>
<!-- monzo.com -->
<g id="node7" class="node"><title>monzo.com</title>
<ellipse fill="green" stroke="black" cx="794.742" cy="-522" rx="57.3905" ry="18"/>
<text text-anchor="middle" x="794.742" y="-518.3" font-family="Helvetica,sans-Serif" font-size="14.00" fill="white">monzo.com</text>
</g>
<!-- infinityfoods.coop -->
<g id="node8" class="node"><title>infinityfoods.coop</title>
<ellipse fill="green" stroke="black" cx="921.742" cy="-234" rx="78.7863" ry="18"/>
<text text-anchor="middle" x="921.742" y="-230.3" font-family="Helvetica,sans-Serif" font-size="14.00" fill="white">infinityfoods.coop</text>
</g>
<!-- roli.com -->
<g id="node9" class="node"><title>roli.com</title>
<ellipse fill="red" stroke="black" cx="1206.74" cy="-18" rx="42.4939" ry="18"/>
<text text-anchor="middle" x="1206.74" y="-14.3" font-family="Helvetica,sans-Serif" font-size="14.00" fill="white">roli.com</text>
</g>
<!-- 4.4.4.4 -->
<g id="node10" class="node"><title>4.4.4.4</title>
<ellipse fill="red" stroke="black" cx="230.742" cy="-666" rx="37.8943" ry="18"/>
<text text-anchor="middle" x="230.742" y="-662.3" font-family="Helvetica,sans-Serif" font-size="14.00" fill="white">4.4.4.4</text>
</g>
<!-- instragram.com -->
<g id="node11" class="node"><title>instragram.com</title>
<ellipse fill="red" stroke="black" cx="1068.74" cy="-378" rx="72.2875" ry="18"/>
<text text-anchor="middle" x="1068.74" y="-374.3" font-family="Helvetica,sans-Serif" font-size="14.00" fill="white">instragram.com</text>
</g>
<!-- 84.38.37.34 -->
<g id="node13" class="node"><title>84.38.37.34</title>
<polygon fill="lightgrey" stroke="black" points="650.742,-756 562.742,-756 562.742,-720 650.742,-720 650.742,-756"/>
<text text-anchor="middle" x="606.742" y="-734.3" font-family="Helvetica,sans-Serif" font-size="14.00">84.38.37.34</text>
</g>
<!-- 192.168.0.1&#45;&#45;84.38.37.34 -->
<g id="edge2" class="edge"><title>192.168.0.1&#45;&#45;84.38.37.34</title>
<path fill="none" stroke="black" d="M726.846,-791.876C702.115,-780.988 670.218,-766.945 645.512,-756.068"/>
</g>
<!-- 84.38.37.36 -->
<g id="node39" class="node"><title>84.38.37.36</title>
<polygon fill="lightgrey" stroke="black" points="969.742,-756 881.742,-756 881.742,-720 969.742,-720 969.742,-756"/>
<text text-anchor="middle" x="925.742" y="-734.3" font-family="Helvetica,sans-Serif" font-size="14.00">84.38.37.36</text>
</g>
<!-- 192.168.0.1&#45;&#45;84.38.37.36 -->
<g id="edge37" class="edge"><title>192.168.0.1&#45;&#45;84.38.37.36</title>
<path fill="none" stroke="black" d="M804.883,-791.876C829.769,-780.988 861.867,-766.945 886.729,-756.068"/>
</g>
<!-- 84.38.37.34&#45;&#45;deanturpin.github.io -->
<g id="edge7" class="edge"><title>84.38.37.34&#45;&#45;deanturpin.github.io</title>
<path fill="none" stroke="black" d="M562.491,-732.202C485.394,-723.676 321.506,-704.815 183.742,-684 173.031,-682.382 161.676,-680.51 150.667,-678.613"/>
</g>
<!-- 84.38.37.34&#45;&#45;4.4.4.4 -->
<g id="edge36" class="edge"><title>84.38.37.34&#45;&#45;4.4.4.4</title>
<path fill="none" stroke="black" d="M562.671,-732.684C498.856,-725.814 377.348,-710.4 276.742,-684 270.813,-682.444 264.58,-680.419 258.684,-678.311"/>
</g>
<!-- 72.14.203.194 -->
<g id="node14" class="node"><title>72.14.203.194</title>
<polygon fill="lightgrey" stroke="black" points="389.242,-684 286.242,-684 286.242,-648 389.242,-648 389.242,-684"/>
<text text-anchor="middle" x="337.742" y="-662.3" font-family="Helvetica,sans-Serif" font-size="14.00">72.14.203.194</text>
</g>
<!-- 84.38.37.34&#45;&#45;72.14.203.194 -->
<g id="edge3" class="edge"><title>84.38.37.34&#45;&#45;72.14.203.194</title>
<path fill="none" stroke="black" d="M562.44,-726.016C520.28,-715.49 455.092,-699.029 398.742,-684 395.662,-683.178 392.496,-682.325 389.305,-681.457"/>
</g>
<!-- 4.15.136.22 -->
<g id="node17" class="node"><title>4.15.136.22</title>
<polygon fill="lightgrey" stroke="black" points="495.742,-684 407.742,-684 407.742,-648 495.742,-648 495.742,-684"/>
<text text-anchor="middle" x="451.742" y="-662.3" font-family="Helvetica,sans-Serif" font-size="14.00">4.15.136.22</text>
</g>
<!-- 84.38.37.34&#45;&#45;4.15.136.22 -->
<g id="edge8" class="edge"><title>84.38.37.34&#45;&#45;4.15.136.22</title>
<path fill="none" stroke="black" d="M568.825,-719.876C544.716,-708.988 513.621,-694.945 489.536,-684.068"/>
</g>
<!-- 5.57.80.32 -->
<g id="node19" class="node"><title>5.57.80.32</title>
<polygon fill="lightgrey" stroke="black" points="593.742,-684 513.742,-684 513.742,-648 593.742,-648 593.742,-684"/>
<text text-anchor="middle" x="553.742" y="-662.3" font-family="Helvetica,sans-Serif" font-size="14.00">5.57.80.32</text>
</g>
<!-- 84.38.37.34&#45;&#45;5.57.80.32 -->
<g id="edge11" class="edge"><title>84.38.37.34&#45;&#45;5.57.80.32</title>
<path fill="none" stroke="black" d="M593.641,-719.697C585.426,-708.846 574.879,-694.917 566.693,-684.104"/>
</g>
<!-- 4.28.125.110 -->
<g id="node23" class="node"><title>4.28.125.110</title>
<polygon fill="lightgrey" stroke="black" points="707.242,-684 612.242,-684 612.242,-648 707.242,-648 707.242,-684"/>
<text text-anchor="middle" x="659.742" y="-662.3" font-family="Helvetica,sans-Serif" font-size="14.00">4.28.125.110</text>
</g>
<!-- 84.38.37.34&#45;&#45;4.28.125.110 -->
<g id="edge16" class="edge"><title>84.38.37.34&#45;&#45;4.28.125.110</title>
<path fill="none" stroke="black" d="M619.843,-719.697C628.059,-708.846 638.605,-694.917 646.792,-684.104"/>
</g>
<!-- 2.127.241.137 -->
<g id="node25" class="node"><title>2.127.241.137</title>
<polygon fill="lightgrey" stroke="black" points="832.242,-684 729.242,-684 729.242,-648 832.242,-648 832.242,-684"/>
<text text-anchor="middle" x="780.742" y="-662.3" font-family="Helvetica,sans-Serif" font-size="14.00">2.127.241.137</text>
</g>
<!-- 84.38.37.34&#45;&#45;2.127.241.137 -->
<g id="edge19" class="edge"><title>84.38.37.34&#45;&#45;2.127.241.137</title>
<path fill="none" stroke="black" d="M649.307,-719.876C676.372,-708.988 711.278,-694.945 738.315,-684.068"/>
</g>
<!-- 5.57.80.240 -->
<g id="node27" class="node"><title>5.57.80.240</title>
<polygon fill="lightgrey" stroke="black" points="950.742,-684 862.742,-684 862.742,-648 950.742,-648 950.742,-684"/>
<text text-anchor="middle" x="906.742" y="-662.3" font-family="Helvetica,sans-Serif" font-size="14.00">5.57.80.240</text>
</g>
<!-- 84.38.37.34&#45;&#45;5.57.80.240 -->
<g id="edge22" class="edge"><title>84.38.37.34&#45;&#45;5.57.80.240</title>
<path fill="none" stroke="black" d="M650.823,-727.421C697.929,-717.089 774.751,-699.969 840.742,-684 847.757,-682.302 855.177,-680.449 862.409,-678.609"/>
</g>
<!-- 83.231.221.45 -->
<g id="node33" class="node"><title>83.231.221.45</title>
<polygon fill="lightgrey" stroke="black" points="1124.24,-468 1021.24,-468 1021.24,-432 1124.24,-432 1124.24,-468"/>
<text text-anchor="middle" x="1072.74" y="-446.3" font-family="Helvetica,sans-Serif" font-size="14.00">83.231.221.45</text>
</g>
<!-- 84.38.37.34&#45;&#45;83.231.221.45 -->
<g id="edge29" class="edge"><title>84.38.37.34&#45;&#45;83.231.221.45</title>
<path fill="none" stroke="black" d="M650.94,-735.833C734.873,-732.757 913.127,-721.831 959.742,-684 1026.02,-630.209 983.179,-577.41 1026.74,-504 1034.45,-491.008 1045.49,-478.167 1054.81,-468.379"/>
</g>
<!-- 64.233.175.152 -->
<g id="node15" class="node"><title>64.233.175.152</title>
<polygon fill="lightgrey" stroke="black" points="312.742,-612 202.742,-612 202.742,-576 312.742,-576 312.742,-612"/>
<text text-anchor="middle" x="257.742" y="-590.3" font-family="Helvetica,sans-Serif" font-size="14.00">64.233.175.152</text>
</g>
<!-- 72.14.203.194&#45;&#45;64.233.175.152 -->
<g id="edge4" class="edge"><title>72.14.203.194&#45;&#45;64.233.175.152</title>
<path fill="none" stroke="black" d="M317.967,-647.697C305.567,-636.846 289.647,-622.917 277.29,-612.104"/>
</g>
<!-- 108.170.246.176 -->
<g id="node16" class="node"><title>108.170.246.176</title>
<polygon fill="lightgrey" stroke="black" points="315.742,-540 197.742,-540 197.742,-504 315.742,-504 315.742,-540"/>
<text text-anchor="middle" x="256.742" y="-518.3" font-family="Helvetica,sans-Serif" font-size="14.00">108.170.246.176</text>
</g>
<!-- 64.233.175.152&#45;&#45;108.170.246.176 -->
<g id="edge5" class="edge"><title>64.233.175.152&#45;&#45;108.170.246.176</title>
<path fill="none" stroke="black" d="M257.495,-575.697C257.34,-564.846 257.141,-550.917 256.987,-540.104"/>
</g>
<!-- 108.170.246.176&#45;&#45;google.com -->
<g id="edge6" class="edge"><title>108.170.246.176&#45;&#45;google.com</title>
<path fill="none" stroke="black" d="M256.742,-503.697C256.742,-492.846 256.742,-478.917 256.742,-468.104"/>
</g>
<!-- 192.30.253.113 -->
<g id="node18" class="node"><title>192.30.253.113</title>
<polygon fill="lightgrey" stroke="black" points="443.742,-612 333.742,-612 333.742,-576 443.742,-576 443.742,-612"/>
<text text-anchor="middle" x="388.742" y="-590.3" font-family="Helvetica,sans-Serif" font-size="14.00">192.30.253.113</text>
</g>
<!-- 4.15.136.22&#45;&#45;192.30.253.113 -->
<g id="edge9" class="edge"><title>4.15.136.22&#45;&#45;192.30.253.113</title>
<path fill="none" stroke="black" d="M436.169,-647.697C426.404,-636.846 413.867,-622.917 404.136,-612.104"/>
</g>
<!-- 192.30.253.113&#45;&#45;github.com -->
<g id="edge10" class="edge"><title>192.30.253.113&#45;&#45;github.com</title>
<path fill="none" stroke="black" d="M388.495,-575.697C388.34,-564.846 388.141,-550.917 387.987,-540.104"/>
</g>
<!-- 37.209.223.9 -->
<g id="node20" class="node"><title>37.209.223.9</title>
<polygon fill="lightgrey" stroke="black" points="567.242,-612 472.242,-612 472.242,-576 567.242,-576 567.242,-612"/>
<text text-anchor="middle" x="519.742" y="-590.3" font-family="Helvetica,sans-Serif" font-size="14.00">37.209.223.9</text>
</g>
<!-- 5.57.80.32&#45;&#45;37.209.223.9 -->
<g id="edge12" class="edge"><title>5.57.80.32&#45;&#45;37.209.223.9</title>
<path fill="none" stroke="black" d="M545.338,-647.697C540.068,-636.846 533.302,-622.917 528.05,-612.104"/>
</g>
<!-- 37.209.223.57 -->
<g id="node21" class="node"><title>37.209.223.57</title>
<polygon fill="lightgrey" stroke="black" points="562.242,-540 459.242,-540 459.242,-504 562.242,-504 562.242,-540"/>
<text text-anchor="middle" x="510.742" y="-518.3" font-family="Helvetica,sans-Serif" font-size="14.00">37.209.223.57</text>
</g>
<!-- 37.209.223.9&#45;&#45;37.209.223.57 -->
<g id="edge13" class="edge"><title>37.209.223.9&#45;&#45;37.209.223.57</title>
<path fill="none" stroke="black" d="M517.517,-575.697C516.122,-564.846 514.332,-550.917 512.941,-540.104"/>
</g>
<!-- 37.209.223.45 -->
<g id="node22" class="node"><title>37.209.223.45</title>
<polygon fill="lightgrey" stroke="black" points="562.242,-468 459.242,-468 459.242,-432 562.242,-432 562.242,-468"/>
<text text-anchor="middle" x="510.742" y="-446.3" font-family="Helvetica,sans-Serif" font-size="14.00">37.209.223.45</text>
</g>
<!-- 37.209.223.57&#45;&#45;37.209.223.45 -->
<g id="edge14" class="edge"><title>37.209.223.57&#45;&#45;37.209.223.45</title>
<path fill="none" stroke="black" d="M510.742,-503.697C510.742,-492.846 510.742,-478.917 510.742,-468.104"/>
</g>
<!-- 37.209.223.45&#45;&#45;silobrighton.com -->
<g id="edge15" class="edge"><title>37.209.223.45&#45;&#45;silobrighton.com</title>
<path fill="none" stroke="black" d="M510.742,-431.697C510.742,-420.846 510.742,-406.917 510.742,-396.104"/>
</g>
<!-- 54.239.110.221 -->
<g id="node24" class="node"><title>54.239.110.221</title>
<polygon fill="lightgrey" stroke="black" points="708.742,-612 598.742,-612 598.742,-576 708.742,-576 708.742,-612"/>
<text text-anchor="middle" x="653.742" y="-590.3" font-family="Helvetica,sans-Serif" font-size="14.00">54.239.110.221</text>
</g>
<!-- 4.28.125.110&#45;&#45;54.239.110.221 -->
<g id="edge17" class="edge"><title>4.28.125.110&#45;&#45;54.239.110.221</title>
<path fill="none" stroke="black" d="M658.259,-647.697C657.329,-636.846 656.135,-622.917 655.208,-612.104"/>
</g>
<!-- 54.239.110.221&#45;&#45;instagram.com -->
<g id="edge18" class="edge"><title>54.239.110.221&#45;&#45;instagram.com</title>
<path fill="none" stroke="black" d="M652.753,-575.697C652.133,-564.846 651.337,-550.917 650.72,-540.104"/>
</g>
<!-- 104.25.211.99 -->
<g id="node26" class="node"><title>104.25.211.99</title>
<polygon fill="lightgrey" stroke="black" points="837.242,-612 734.242,-612 734.242,-576 837.242,-576 837.242,-612"/>
<text text-anchor="middle" x="785.742" y="-590.3" font-family="Helvetica,sans-Serif" font-size="14.00">104.25.211.99</text>
</g>
<!-- 2.127.241.137&#45;&#45;104.25.211.99 -->
<g id="edge20" class="edge"><title>2.127.241.137&#45;&#45;104.25.211.99</title>
<path fill="none" stroke="black" d="M781.978,-647.697C782.753,-636.846 783.748,-622.917 784.52,-612.104"/>
</g>
<!-- 104.25.211.99&#45;&#45;monzo.com -->
<g id="edge21" class="edge"><title>104.25.211.99&#45;&#45;monzo.com</title>
<path fill="none" stroke="black" d="M787.967,-575.697C789.362,-564.846 791.153,-550.917 792.543,-540.104"/>
</g>
<!-- 80.88.212.56 -->
<g id="node28" class="node"><title>80.88.212.56</title>
<polygon fill="lightgrey" stroke="black" points="965.242,-612 870.242,-612 870.242,-576 965.242,-576 965.242,-612"/>
<text text-anchor="middle" x="917.742" y="-590.3" font-family="Helvetica,sans-Serif" font-size="14.00">80.88.212.56</text>
</g>
<!-- 5.57.80.240&#45;&#45;80.88.212.56 -->
<g id="edge23" class="edge"><title>5.57.80.240&#45;&#45;80.88.212.56</title>
<path fill="none" stroke="black" d="M909.461,-647.697C911.166,-636.846 913.355,-622.917 915.054,-612.104"/>
</g>
<!-- 80.88.202.138 -->
<g id="node29" class="node"><title>80.88.202.138</title>
<polygon fill="lightgrey" stroke="black" points="973.242,-540 870.242,-540 870.242,-504 973.242,-504 973.242,-540"/>
<text text-anchor="middle" x="921.742" y="-518.3" font-family="Helvetica,sans-Serif" font-size="14.00">80.88.202.138</text>
</g>
<!-- 80.88.212.56&#45;&#45;80.88.202.138 -->
<g id="edge24" class="edge"><title>80.88.212.56&#45;&#45;80.88.202.138</title>
<path fill="none" stroke="black" d="M918.731,-575.697C919.351,-564.846 920.147,-550.917 920.765,-540.104"/>
</g>
<!-- 37.200.112.58 -->
<g id="node30" class="node"><title>37.200.112.58</title>
<polygon fill="lightgrey" stroke="black" points="973.242,-468 870.242,-468 870.242,-432 973.242,-432 973.242,-468"/>
<text text-anchor="middle" x="921.742" y="-446.3" font-family="Helvetica,sans-Serif" font-size="14.00">37.200.112.58</text>
</g>
<!-- 80.88.202.138&#45;&#45;37.200.112.58 -->
<g id="edge25" class="edge"><title>80.88.202.138&#45;&#45;37.200.112.58</title>
<path fill="none" stroke="black" d="M921.742,-503.697C921.742,-492.846 921.742,-478.917 921.742,-468.104"/>
</g>
<!-- 213.129.95.153 -->
<g id="node31" class="node"><title>213.129.95.153</title>
<polygon fill="lightgrey" stroke="black" points="976.742,-396 866.742,-396 866.742,-360 976.742,-360 976.742,-396"/>
<text text-anchor="middle" x="921.742" y="-374.3" font-family="Helvetica,sans-Serif" font-size="14.00">213.129.95.153</text>
</g>
<!-- 37.200.112.58&#45;&#45;213.129.95.153 -->
<g id="edge26" class="edge"><title>37.200.112.58&#45;&#45;213.129.95.153</title>
<path fill="none" stroke="black" d="M921.742,-431.697C921.742,-420.846 921.742,-406.917 921.742,-396.104"/>
</g>
<!-- 37.200.112.61 -->
<g id="node32" class="node"><title>37.200.112.61</title>
<polygon fill="lightgrey" stroke="black" points="973.242,-324 870.242,-324 870.242,-288 973.242,-288 973.242,-324"/>
<text text-anchor="middle" x="921.742" y="-302.3" font-family="Helvetica,sans-Serif" font-size="14.00">37.200.112.61</text>
</g>
<!-- 213.129.95.153&#45;&#45;37.200.112.61 -->
<g id="edge27" class="edge"><title>213.129.95.153&#45;&#45;37.200.112.61</title>
<path fill="none" stroke="black" d="M921.742,-359.697C921.742,-348.846 921.742,-334.917 921.742,-324.104"/>
</g>
<!-- 37.200.112.61&#45;&#45;infinityfoods.coop -->
<g id="edge28" class="edge"><title>37.200.112.61&#45;&#45;infinityfoods.coop</title>
<path fill="none" stroke="black" d="M921.742,-287.697C921.742,-276.846 921.742,-262.917 921.742,-252.104"/>
</g>
<!-- 83.231.221.45&#45;&#45;instragram.com -->
<g id="edge42" class="edge"><title>83.231.221.45&#45;&#45;instragram.com</title>
<path fill="none" stroke="black" d="M1071.75,-431.697C1071.13,-420.846 1070.34,-406.917 1069.72,-396.104"/>
</g>
<!-- 129.250.4.23 -->
<g id="node34" class="node"><title>129.250.4.23</title>
<polygon fill="lightgrey" stroke="black" points="1254.24,-396 1159.24,-396 1159.24,-360 1254.24,-360 1254.24,-396"/>
<text text-anchor="middle" x="1206.74" y="-374.3" font-family="Helvetica,sans-Serif" font-size="14.00">129.250.4.23</text>
</g>
<!-- 83.231.221.45&#45;&#45;129.250.4.23 -->
<g id="edge30" class="edge"><title>83.231.221.45&#45;&#45;129.250.4.23</title>
<path fill="none" stroke="black" d="M1105.52,-431.876C1126.29,-421.029 1153.05,-407.05 1173.84,-396.19"/>
</g>
<!-- 129.250.2.18 -->
<g id="node35" class="node"><title>129.250.2.18</title>
<polygon fill="lightgrey" stroke="black" points="1254.24,-324 1159.24,-324 1159.24,-288 1254.24,-288 1254.24,-324"/>
<text text-anchor="middle" x="1206.74" y="-302.3" font-family="Helvetica,sans-Serif" font-size="14.00">129.250.2.18</text>
</g>
<!-- 129.250.4.23&#45;&#45;129.250.2.18 -->
<g id="edge31" class="edge"><title>129.250.4.23&#45;&#45;129.250.2.18</title>
<path fill="none" stroke="black" d="M1206.74,-359.697C1206.74,-348.846 1206.74,-334.917 1206.74,-324.104"/>
</g>
<!-- 129.250.4.13 -->
<g id="node36" class="node"><title>129.250.4.13</title>
<polygon fill="lightgrey" stroke="black" points="1254.24,-252 1159.24,-252 1159.24,-216 1254.24,-216 1254.24,-252"/>
<text text-anchor="middle" x="1206.74" y="-230.3" font-family="Helvetica,sans-Serif" font-size="14.00">129.250.4.13</text>
</g>
<!-- 129.250.2.18&#45;&#45;129.250.4.13 -->
<g id="edge32" class="edge"><title>129.250.2.18&#45;&#45;129.250.4.13</title>
<path fill="none" stroke="black" d="M1206.74,-287.697C1206.74,-276.846 1206.74,-262.917 1206.74,-252.104"/>
</g>
<!-- 129.250.2.8 -->
<g id="node37" class="node"><title>129.250.2.8</title>
<polygon fill="lightgrey" stroke="black" points="1250.74,-180 1162.74,-180 1162.74,-144 1250.74,-144 1250.74,-180"/>
<text text-anchor="middle" x="1206.74" y="-158.3" font-family="Helvetica,sans-Serif" font-size="14.00">129.250.2.8</text>
</g>
<!-- 129.250.4.13&#45;&#45;129.250.2.8 -->
<g id="edge33" class="edge"><title>129.250.4.13&#45;&#45;129.250.2.8</title>
<path fill="none" stroke="black" d="M1206.74,-215.697C1206.74,-204.846 1206.74,-190.917 1206.74,-180.104"/>
</g>
<!-- 129.250.5.86 -->
<g id="node38" class="node"><title>129.250.5.86</title>
<polygon fill="lightgrey" stroke="black" points="1254.24,-108 1159.24,-108 1159.24,-72 1254.24,-72 1254.24,-108"/>
<text text-anchor="middle" x="1206.74" y="-86.3" font-family="Helvetica,sans-Serif" font-size="14.00">129.250.5.86</text>
</g>
<!-- 129.250.2.8&#45;&#45;129.250.5.86 -->
<g id="edge34" class="edge"><title>129.250.2.8&#45;&#45;129.250.5.86</title>
<path fill="none" stroke="black" d="M1206.74,-143.697C1206.74,-132.846 1206.74,-118.917 1206.74,-108.104"/>
</g>
<!-- 129.250.5.86&#45;&#45;roli.com -->
<g id="edge35" class="edge"><title>129.250.5.86&#45;&#45;roli.com</title>
<path fill="none" stroke="black" d="M1206.74,-71.6966C1206.74,-60.8463 1206.74,-46.9167 1206.74,-36.1043"/>
</g>
<!-- 89.200.131.151 -->
<g id="node40" class="node"><title>89.200.131.151</title>
<polygon fill="lightgrey" stroke="black" points="1139.74,-684 1029.74,-684 1029.74,-648 1139.74,-648 1139.74,-684"/>
<text text-anchor="middle" x="1084.74" y="-662.3" font-family="Helvetica,sans-Serif" font-size="14.00">89.200.131.151</text>
</g>
<!-- 84.38.37.36&#45;&#45;89.200.131.151 -->
<g id="edge38" class="edge"><title>84.38.37.36&#45;&#45;89.200.131.151</title>
<path fill="none" stroke="black" d="M964.638,-719.876C989.369,-708.988 1021.27,-694.945 1045.97,-684.068"/>
</g>
<!-- 10.246.104.21 -->
<g id="node41" class="node"><title>10.246.104.21</title>
<polygon fill="lightgrey" stroke="black" points="1134.24,-612 1031.24,-612 1031.24,-576 1134.24,-576 1134.24,-612"/>
<text text-anchor="middle" x="1082.74" y="-590.3" font-family="Helvetica,sans-Serif" font-size="14.00">10.246.104.21</text>
</g>
<!-- 89.200.131.151&#45;&#45;10.246.104.21 -->
<g id="edge39" class="edge"><title>89.200.131.151&#45;&#45;10.246.104.21</title>
<path fill="none" stroke="black" d="M1084.25,-647.697C1083.94,-636.846 1083.54,-622.917 1083.23,-612.104"/>
</g>
<!-- 2.120.8.74 -->
<g id="node42" class="node"><title>2.120.8.74</title>
<polygon fill="lightgrey" stroke="black" points="1115.74,-540 1035.74,-540 1035.74,-504 1115.74,-504 1115.74,-540"/>
<text text-anchor="middle" x="1075.74" y="-518.3" font-family="Helvetica,sans-Serif" font-size="14.00">2.120.8.74</text>
</g>
<!-- 10.246.104.21&#45;&#45;2.120.8.74 -->
<g id="edge40" class="edge"><title>10.246.104.21&#45;&#45;2.120.8.74</title>
<path fill="none" stroke="black" d="M1081.01,-575.697C1079.93,-564.846 1078.53,-550.917 1077.45,-540.104"/>
</g>
<!-- 2.120.8.74&#45;&#45;83.231.221.45 -->
<g id="edge41" class="edge"><title>2.120.8.74&#45;&#45;83.231.221.45</title>
<path fill="none" stroke="black" d="M1075,-503.697C1074.54,-492.846 1073.94,-478.917 1073.48,-468.104"/>
</g>
</g>
</svg>
