<?xml version="1.0" encoding="UTF-8" standalone="no"?>
<!DOCTYPE svg PUBLIC "-//W3C//DTD SVG 1.1//EN"
 "http://www.w3.org/Graphics/SVG/1.1/DTD/svg11.dtd">
<!-- Generated by graphviz version 2.38.0 (20140413.2041)
 -->
<!-- Title: %3 Pages: 1 -->
<svg width="1557pt" height="809pt"
 viewBox="0.00 0.00 1556.98 808.71" xmlns="http://www.w3.org/2000/svg" xmlns:xlink="http://www.w3.org/1999/xlink">
<g id="graph0" class="graph" transform="scale(1 1) rotate(0) translate(4 804.711)">
<title>%3</title>
<polygon fill="white" stroke="none" points="-4,4 -4,-804.711 1552.98,-804.711 1552.98,4 -4,4"/>
<!-- soy&#45;yo -->
<g id="node1" class="node"><title>soy&#45;yo</title>
<ellipse fill="green" stroke="black" cx="34.4469" cy="-263.824" rx="34.394" ry="18"/>
<text text-anchor="middle" x="34.4469" y="-260.124" font-family="Times,serif" font-size="14.00" fill="white">soy&#45;yo</text>
</g>
<!-- 172.20.10.1 -->
<g id="node2" class="node"><title>172.20.10.1</title>
<polygon fill="lightgrey" stroke="black" points="181.894,-281.824 99.8939,-281.824 99.8939,-245.824 181.894,-245.824 181.894,-281.824"/>
<text text-anchor="middle" x="140.894" y="-260.124" font-family="Times,serif" font-size="14.00">172.20.10.1</text>
</g>
<!-- soy&#45;yo&#45;&#45;172.20.10.1 -->
<g id="edge1" class="edge"><title>soy&#45;yo&#45;&#45;172.20.10.1</title>
<path fill="none" stroke="black" d="M69.0072,-263.824C78.8417,-263.824 89.6496,-263.824 99.8303,-263.824"/>
</g>
<!-- 10.248.28.145 -->
<g id="node3" class="node"><title>10.248.28.145</title>
<polygon fill="lightgrey" stroke="black" points="294.709,-388.139 199.709,-388.139 199.709,-352.139 294.709,-352.139 294.709,-388.139"/>
<text text-anchor="middle" x="247.209" y="-366.439" font-family="Times,serif" font-size="14.00">10.248.28.145</text>
</g>
<!-- 172.20.10.1&#45;&#45;10.248.28.145 -->
<g id="edge2" class="edge"><title>172.20.10.1&#45;&#45;10.248.28.145</title>
<path fill="none" stroke="black" d="M158.929,-281.859C178.479,-301.409 209.501,-332.431 229.086,-352.016"/>
</g>
<!-- 10.248.28.153 -->
<g id="node10" class="node"><title>10.248.28.153</title>
<polygon fill="lightgrey" stroke="black" points="294.709,-175.508 199.709,-175.508 199.709,-139.508 294.709,-139.508 294.709,-175.508"/>
<text text-anchor="middle" x="247.209" y="-153.808" font-family="Times,serif" font-size="14.00">10.248.28.153</text>
</g>
<!-- 172.20.10.1&#45;&#45;10.248.28.153 -->
<g id="edge9" class="edge"><title>172.20.10.1&#45;&#45;10.248.28.153</title>
<path fill="none" stroke="black" d="M158.929,-245.789C178.479,-226.239 209.501,-195.216 229.086,-175.632"/>
</g>
<!-- 10.247.84.6 -->
<g id="node4" class="node"><title>10.247.84.6</title>
<polygon fill="lightgrey" stroke="black" points="394.525,-281.824 312.525,-281.824 312.525,-245.824 394.525,-245.824 394.525,-281.824"/>
<text text-anchor="middle" x="353.525" y="-260.124" font-family="Times,serif" font-size="14.00">10.247.84.6</text>
</g>
<!-- 10.248.28.145&#45;&#45;10.247.84.6 -->
<g id="edge3" class="edge"><title>10.248.28.145&#45;&#45;10.247.84.6</title>
<path fill="none" stroke="black" d="M265.244,-352.104C284.794,-332.554 315.817,-301.532 335.401,-281.947"/>
</g>
<!-- 10.247.84.9 -->
<g id="node5" class="node"><title>10.247.84.9</title>
<polygon fill="lightgrey" stroke="black" points="507.525,-281.824 425.525,-281.824 425.525,-245.824 507.525,-245.824 507.525,-281.824"/>
<text text-anchor="middle" x="466.525" y="-260.124" font-family="Times,serif" font-size="14.00">10.247.84.9</text>
</g>
<!-- 10.247.84.6&#45;&#45;10.247.84.9 -->
<g id="edge4" class="edge"><title>10.247.84.6&#45;&#45;10.247.84.9</title>
<path fill="none" stroke="black" d="M394.64,-263.824C404.611,-263.824 415.273,-263.824 425.251,-263.824"/>
</g>
<!-- 87.237.20.224 -->
<g id="node6" class="node"><title>87.237.20.224</title>
<polygon fill="lightgrey" stroke="black" points="1239.71,-526.881 1144.71,-526.881 1144.71,-490.881 1239.71,-490.881 1239.71,-526.881"/>
<text text-anchor="middle" x="1192.21" y="-505.181" font-family="Times,serif" font-size="14.00">87.237.20.224</text>
</g>
<!-- 10.247.84.9&#45;&#45;87.237.20.224 -->
<g id="edge5" class="edge"><title>10.247.84.9&#45;&#45;87.237.20.224</title>
<path fill="none" stroke="black" d="M507.62,-277.701C633.1,-320.075 1010.84,-447.632 1144.61,-492.807"/>
</g>
<!-- 87.237.20.73 -->
<g id="node7" class="node"><title>87.237.20.73</title>
<polygon fill="lightgrey" stroke="black" points="1383.6,-440.334 1294.6,-440.334 1294.6,-404.334 1383.6,-404.334 1383.6,-440.334"/>
<text text-anchor="middle" x="1339.1" y="-418.634" font-family="Times,serif" font-size="14.00">87.237.20.73</text>
</g>
<!-- 87.237.20.224&#45;&#45;87.237.20.73 -->
<g id="edge6" class="edge"><title>87.237.20.224&#45;&#45;87.237.20.73</title>
<path fill="none" stroke="black" d="M1223,-490.738C1248.07,-475.967 1283.29,-455.218 1308.35,-440.453"/>
</g>
<!-- 129.250.5.188 -->
<g id="node17" class="node"><title>129.250.5.188</title>
<polygon fill="lightgrey" stroke="black" points="1261.5,-644.377 1166.5,-644.377 1166.5,-608.377 1261.5,-608.377 1261.5,-644.377"/>
<text text-anchor="middle" x="1214" y="-622.677" font-family="Times,serif" font-size="14.00">129.250.5.188</text>
</g>
<!-- 87.237.20.224&#45;&#45;129.250.5.188 -->
<g id="edge18" class="edge"><title>87.237.20.224&#45;&#45;129.250.5.188</title>
<path fill="none" stroke="black" d="M1195.57,-526.982C1199.65,-548.998 1206.51,-585.95 1210.61,-608.062"/>
</g>
<!-- 87.237.20.36 -->
<g id="node8" class="node"><title>87.237.20.36</title>
<polygon fill="lightgrey" stroke="black" points="1440.49,-279.618 1351.49,-279.618 1351.49,-243.618 1440.49,-243.618 1440.49,-279.618"/>
<text text-anchor="middle" x="1395.99" y="-257.918" font-family="Times,serif" font-size="14.00">87.237.20.36</text>
</g>
<!-- 87.237.20.73&#45;&#45;87.237.20.36 -->
<g id="edge7" class="edge"><title>87.237.20.73&#45;&#45;87.237.20.36</title>
<path fill="none" stroke="black" d="M1345.51,-404.21C1356.44,-373.343 1378.54,-310.911 1389.51,-279.922"/>
</g>
<!-- google.com -->
<g id="node9" class="node"><title>google.com</title>
<polygon fill="lightgrey" stroke="black" points="1548.98,-278.622 1467.98,-278.622 1467.98,-242.622 1548.98,-242.622 1548.98,-278.622"/>
<text text-anchor="middle" x="1508.48" y="-256.922" font-family="Times,serif" font-size="14.00">google.com</text>
</g>
<!-- 87.237.20.36&#45;&#45;google.com -->
<g id="edge8" class="edge"><title>87.237.20.36&#45;&#45;google.com</title>
<path fill="none" stroke="black" d="M1440.77,-261.221C1449.72,-261.142 1459.07,-261.059 1467.86,-260.981"/>
</g>
<!-- 80.157.131.29 -->
<g id="node11" class="node"><title>80.157.131.29</title>
<polygon fill="lightgrey" stroke="black" points="1383.76,-119.934 1288.76,-119.934 1288.76,-83.9337 1383.76,-83.9337 1383.76,-119.934"/>
<text text-anchor="middle" x="1336.26" y="-98.2337" font-family="Times,serif" font-size="14.00">80.157.131.29</text>
</g>
<!-- 87.237.20.36&#45;&#45;80.157.131.29 -->
<g id="edge11" class="edge"><title>87.237.20.36&#45;&#45;80.157.131.29</title>
<path fill="none" stroke="black" d="M1389.25,-243.61C1377.78,-212.942 1354.58,-150.91 1343.06,-120.12"/>
</g>
<!-- 10.248.28.153&#45;&#45;10.247.84.6 -->
<g id="edge10" class="edge"><title>10.248.28.153&#45;&#45;10.247.84.6</title>
<path fill="none" stroke="black" d="M265.244,-175.543C284.794,-195.093 315.817,-226.116 335.401,-245.7"/>
</g>
<!-- 80.150.170.106 -->
<g id="node12" class="node"><title>80.150.170.106</title>
<polygon fill="lightgrey" stroke="black" points="1238.87,-36 1136.87,-36 1136.87,3.19744e-14 1238.87,3.19744e-14 1238.87,-36"/>
<text text-anchor="middle" x="1187.87" y="-14.3" font-family="Times,serif" font-size="14.00">80.150.170.106</text>
</g>
<!-- 80.157.131.29&#45;&#45;80.150.170.106 -->
<g id="edge12" class="edge"><title>80.157.131.29&#45;&#45;80.150.170.106</title>
<path fill="none" stroke="black" d="M1304.43,-83.9278C1279.47,-69.8143 1244.91,-50.2636 1219.9,-36.1207"/>
</g>
<!-- 129.250.4.23 -->
<g id="node13" class="node"><title>129.250.4.23</title>
<polygon fill="lightgrey" stroke="black" points="1064.74,-67.0899 975.738,-67.0899 975.738,-31.0899 1064.74,-31.0899 1064.74,-67.0899"/>
<text text-anchor="middle" x="1020.24" y="-45.3899" font-family="Times,serif" font-size="14.00">129.250.4.23</text>
</g>
<!-- 80.150.170.106&#45;&#45;129.250.4.23 -->
<g id="edge13" class="edge"><title>80.150.170.106&#45;&#45;129.250.4.23</title>
<path fill="none" stroke="black" d="M1136.66,-27.4969C1113.75,-31.747 1086.98,-36.7116 1064.89,-40.8081"/>
</g>
<!-- 129.250.2.18 -->
<g id="node14" class="node"><title>129.250.2.18</title>
<polygon fill="lightgrey" stroke="black" points="956.31,-198.656 867.31,-198.656 867.31,-162.656 956.31,-162.656 956.31,-198.656"/>
<text text-anchor="middle" x="911.81" y="-176.956" font-family="Times,serif" font-size="14.00">129.250.2.18</text>
</g>
<!-- 129.250.4.23&#45;&#45;129.250.2.18 -->
<g id="edge14" class="edge"><title>129.250.4.23&#45;&#45;129.250.2.18</title>
<path fill="none" stroke="black" d="M1005.39,-67.1077C984.741,-92.1617 947.565,-137.271 926.828,-162.434"/>
</g>
<!-- 129.250.3.207 -->
<g id="node15" class="node"><title>129.250.3.207</title>
<polygon fill="lightgrey" stroke="black" points="960.819,-369.137 865.819,-369.137 865.819,-333.137 960.819,-333.137 960.819,-369.137"/>
<text text-anchor="middle" x="913.319" y="-347.437" font-family="Times,serif" font-size="14.00">129.250.3.207</text>
</g>
<!-- 129.250.2.18&#45;&#45;129.250.3.207 -->
<g id="edge15" class="edge"><title>129.250.2.18&#45;&#45;129.250.3.207</title>
<path fill="none" stroke="black" d="M911.972,-198.901C912.262,-231.713 912.869,-300.307 913.159,-333.024"/>
</g>
<!-- 129.250.2.149 -->
<g id="node16" class="node"><title>129.250.2.149</title>
<polygon fill="lightgrey" stroke="black" points="1071.56,-498.763 976.559,-498.763 976.559,-462.763 1071.56,-462.763 1071.56,-498.763"/>
<text text-anchor="middle" x="1024.06" y="-477.063" font-family="Times,serif" font-size="14.00">129.250.2.149</text>
</g>
<!-- 129.250.3.207&#45;&#45;129.250.2.149 -->
<g id="edge16" class="edge"><title>129.250.3.207&#45;&#45;129.250.2.149</title>
<path fill="none" stroke="black" d="M928.717,-369.161C949.755,-393.788 987.279,-437.711 1008.43,-462.475"/>
</g>
<!-- 129.250.2.149&#45;&#45;87.237.20.224 -->
<g id="edge17" class="edge"><title>129.250.2.149&#45;&#45;87.237.20.224</title>
<path fill="none" stroke="black" d="M1071.79,-488.746C1094.61,-492.561 1121.85,-497.116 1144.65,-500.928"/>
</g>
<!-- github.com -->
<g id="node18" class="node"><title>github.com</title>
<polygon fill="lightgrey" stroke="black" points="1282.5,-800.711 1203.5,-800.711 1203.5,-764.711 1282.5,-764.711 1282.5,-800.711"/>
<text text-anchor="middle" x="1243" y="-779.011" font-family="Times,serif" font-size="14.00">github.com</text>
</g>
<!-- 129.250.5.188&#45;&#45;github.com -->
<g id="edge19" class="edge"><title>129.250.5.188&#45;&#45;github.com</title>
<path fill="none" stroke="black" d="M1217.39,-644.617C1222.97,-674.741 1234.06,-734.541 1239.64,-764.588"/>
</g>
</g>
</svg>
