<?xml version="1.0" encoding="UTF-8" standalone="no"?>
<!DOCTYPE svg PUBLIC "-//W3C//DTD SVG 1.1//EN"
 "http://www.w3.org/Graphics/SVG/1.1/DTD/svg11.dtd">
<!-- Generated by graphviz version 2.38.0 (20140413.2041)
 -->
<!-- Title: %3 Pages: 1 -->
<svg width="644pt" height="764pt"
 viewBox="0.00 0.00 644.25 764.00" xmlns="http://www.w3.org/2000/svg" xmlns:xlink="http://www.w3.org/1999/xlink">
<g id="graph0" class="graph" transform="scale(1 1) rotate(0) translate(4 760)">
<title>%3</title>
<polygon fill="white" stroke="none" points="-4,4 -4,-760 640.247,-760 640.247,4 -4,4"/>
<!-- soy yo -->
<g id="node1" class="node"><title>soy yo</title>
<ellipse fill="green" stroke="black" cx="376.5" cy="-738" rx="34.394" ry="18"/>
<text text-anchor="middle" x="376.5" y="-734.3" font-family="Times,serif" font-size="14.00" fill="white">soy yo</text>
</g>
<!-- 10.101.0.1 -->
<g id="node2" class="node"><title>10.101.0.1</title>
<polygon fill="lightgrey" stroke="black" points="414,-684 339,-684 339,-648 414,-648 414,-684"/>
<text text-anchor="middle" x="376.5" y="-662.3" font-family="Times,serif" font-size="14.00">10.101.0.1</text>
</g>
<!-- soy yo&#45;&#45;10.101.0.1 -->
<g id="edge1" class="edge"><title>soy yo&#45;&#45;10.101.0.1</title>
<path fill="none" stroke="black" d="M376.5,-719.697C376.5,-708.846 376.5,-694.917 376.5,-684.104"/>
</g>
<!-- 10.248.96.1 -->
<g id="node3" class="node"><title>10.248.96.1</title>
<polygon fill="lightgrey" stroke="black" points="417.5,-612 335.5,-612 335.5,-576 417.5,-576 417.5,-612"/>
<text text-anchor="middle" x="376.5" y="-590.3" font-family="Times,serif" font-size="14.00">10.248.96.1</text>
</g>
<!-- 10.101.0.1&#45;&#45;10.248.96.1 -->
<g id="edge2" class="edge"><title>10.101.0.1&#45;&#45;10.248.96.1</title>
<path fill="none" stroke="black" d="M376.5,-647.697C376.5,-636.846 376.5,-622.917 376.5,-612.104"/>
</g>
<!-- 172.29.32.3 -->
<g id="node4" class="node"><title>172.29.32.3</title>
<polygon fill="lightgrey" stroke="black" points="417.5,-540 335.5,-540 335.5,-504 417.5,-504 417.5,-540"/>
<text text-anchor="middle" x="376.5" y="-518.3" font-family="Times,serif" font-size="14.00">172.29.32.3</text>
</g>
<!-- 10.248.96.1&#45;&#45;172.29.32.3 -->
<g id="edge3" class="edge"><title>10.248.96.1&#45;&#45;172.29.32.3</title>
<path fill="none" stroke="black" d="M376.5,-575.697C376.5,-564.846 376.5,-550.917 376.5,-540.104"/>
</g>
<!-- 176.12.107.130 -->
<g id="node5" class="node"><title>176.12.107.130</title>
<polygon fill="lightgrey" stroke="black" points="427.5,-468 325.5,-468 325.5,-432 427.5,-432 427.5,-468"/>
<text text-anchor="middle" x="376.5" y="-446.3" font-family="Times,serif" font-size="14.00">176.12.107.130</text>
</g>
<!-- 172.29.32.3&#45;&#45;176.12.107.130 -->
<g id="edge4" class="edge"><title>172.29.32.3&#45;&#45;176.12.107.130</title>
<path fill="none" stroke="black" d="M376.5,-503.697C376.5,-492.846 376.5,-478.917 376.5,-468.104"/>
</g>
<!-- 109.74.255.251 -->
<g id="node6" class="node"><title>109.74.255.251</title>
<polygon fill="lightgrey" stroke="black" points="286.5,-396 184.5,-396 184.5,-360 286.5,-360 286.5,-396"/>
<text text-anchor="middle" x="235.5" y="-374.3" font-family="Times,serif" font-size="14.00">109.74.255.251</text>
</g>
<!-- 176.12.107.130&#45;&#45;109.74.255.251 -->
<g id="edge5" class="edge"><title>176.12.107.130&#45;&#45;109.74.255.251</title>
<path fill="none" stroke="black" d="M342.008,-431.876C320.158,-421.029 292,-407.05 270.125,-396.19"/>
</g>
<!-- 109.74.255.242 -->
<g id="node12" class="node"><title>109.74.255.242</title>
<polygon fill="lightgrey" stroke="black" points="511.5,-396 409.5,-396 409.5,-360 511.5,-360 511.5,-396"/>
<text text-anchor="middle" x="460.5" y="-374.3" font-family="Times,serif" font-size="14.00">109.74.255.242</text>
</g>
<!-- 176.12.107.130&#45;&#45;109.74.255.242 -->
<g id="edge11" class="edge"><title>176.12.107.130&#45;&#45;109.74.255.242</title>
<path fill="none" stroke="black" d="M397.264,-431.697C410.284,-420.846 427,-406.917 439.975,-396.104"/>
</g>
<!-- 5.57.80.136 -->
<g id="node7" class="node"><title>5.57.80.136</title>
<polygon fill="lightgrey" stroke="black" points="105.5,-324 23.5,-324 23.5,-288 105.5,-288 105.5,-324"/>
<text text-anchor="middle" x="64.5" y="-302.3" font-family="Times,serif" font-size="14.00">5.57.80.136</text>
</g>
<!-- 109.74.255.251&#45;&#45;5.57.80.136 -->
<g id="edge6" class="edge"><title>109.74.255.251&#45;&#45;5.57.80.136</title>
<path fill="none" stroke="black" d="M193.669,-359.876C166.873,-348.907 132.256,-334.736 105.604,-323.826"/>
</g>
<!-- 104.244.42.1 -->
<g id="node16" class="node"><title>104.244.42.1</title>
<polygon fill="lightgrey" stroke="black" points="223,-324 134,-324 134,-288 223,-288 223,-324"/>
<text text-anchor="middle" x="178.5" y="-302.3" font-family="Times,serif" font-size="14.00">104.244.42.1</text>
</g>
<!-- 109.74.255.251&#45;&#45;104.244.42.1 -->
<g id="edge15" class="edge"><title>109.74.255.251&#45;&#45;104.244.42.1</title>
<path fill="none" stroke="black" d="M221.41,-359.697C212.575,-348.846 201.232,-334.917 192.428,-324.104"/>
</g>
<!-- 195.66.225.121 -->
<g id="node18" class="node"><title>195.66.225.121</title>
<polygon fill="lightgrey" stroke="black" points="343.5,-324 241.5,-324 241.5,-288 343.5,-288 343.5,-324"/>
<text text-anchor="middle" x="292.5" y="-302.3" font-family="Times,serif" font-size="14.00">195.66.225.121</text>
</g>
<!-- 109.74.255.251&#45;&#45;195.66.225.121 -->
<g id="edge17" class="edge"><title>109.74.255.251&#45;&#45;195.66.225.121</title>
<path fill="none" stroke="black" d="M249.59,-359.697C258.425,-348.846 269.768,-334.917 278.572,-324.104"/>
</g>
<!-- 108.170.246.225 -->
<g id="node8" class="node"><title>108.170.246.225</title>
<polygon fill="lightgrey" stroke="black" points="109,-252 0,-252 0,-216 109,-216 109,-252"/>
<text text-anchor="middle" x="54.5" y="-230.3" font-family="Times,serif" font-size="14.00">108.170.246.225</text>
</g>
<!-- 5.57.80.136&#45;&#45;108.170.246.225 -->
<g id="edge7" class="edge"><title>5.57.80.136&#45;&#45;108.170.246.225</title>
<path fill="none" stroke="black" d="M62.0281,-287.697C60.478,-276.846 58.4881,-262.917 56.9435,-252.104"/>
</g>
<!-- 72.14.234.133 -->
<g id="node9" class="node"><title>72.14.234.133</title>
<polygon fill="lightgrey" stroke="black" points="102,-180 7,-180 7,-144 102,-144 102,-180"/>
<text text-anchor="middle" x="54.5" y="-158.3" font-family="Times,serif" font-size="14.00">72.14.234.133</text>
</g>
<!-- 108.170.246.225&#45;&#45;72.14.234.133 -->
<g id="edge8" class="edge"><title>108.170.246.225&#45;&#45;72.14.234.133</title>
<path fill="none" stroke="black" d="M54.5,-215.697C54.5,-204.846 54.5,-190.917 54.5,-180.104"/>
</g>
<!-- 216.58.201.46 -->
<g id="node10" class="node"><title>216.58.201.46</title>
<polygon fill="lightgrey" stroke="black" points="102,-108 7,-108 7,-72 102,-72 102,-108"/>
<text text-anchor="middle" x="54.5" y="-86.3" font-family="Times,serif" font-size="14.00">216.58.201.46</text>
</g>
<!-- 72.14.234.133&#45;&#45;216.58.201.46 -->
<g id="edge9" class="edge"><title>72.14.234.133&#45;&#45;216.58.201.46</title>
<path fill="none" stroke="black" d="M54.5,-143.697C54.5,-132.846 54.5,-118.917 54.5,-108.104"/>
</g>
<!-- google.com -->
<g id="node11" class="node"><title>google.com</title>
<ellipse fill="orange" stroke="black" cx="54.5" cy="-18" rx="52.7911" ry="18"/>
<text text-anchor="middle" x="54.5" y="-14.3" font-family="Times,serif" font-size="14.00" fill="white">google.com</text>
</g>
<!-- 216.58.201.46&#45;&#45;google.com -->
<g id="edge10" class="edge"><title>216.58.201.46&#45;&#45;google.com</title>
<path fill="none" stroke="black" d="M54.5,-71.6966C54.5,-60.8463 54.5,-46.9167 54.5,-36.1043"/>
</g>
<!-- 109.74.255.81 -->
<g id="node13" class="node"><title>109.74.255.81</title>
<polygon fill="lightgrey" stroke="black" points="458,-324 363,-324 363,-288 458,-288 458,-324"/>
<text text-anchor="middle" x="410.5" y="-302.3" font-family="Times,serif" font-size="14.00">109.74.255.81</text>
</g>
<!-- 109.74.255.242&#45;&#45;109.74.255.81 -->
<g id="edge12" class="edge"><title>109.74.255.242&#45;&#45;109.74.255.81</title>
<path fill="none" stroke="black" d="M448.14,-359.697C440.39,-348.846 430.441,-334.917 422.717,-324.104"/>
</g>
<!-- 4.4.4.4 -->
<g id="node22" class="node"><title>4.4.4.4</title>
<ellipse fill="orange" stroke="black" cx="511.5" cy="-306" rx="35.9954" ry="18"/>
<text text-anchor="middle" x="511.5" y="-302.3" font-family="Times,serif" font-size="14.00" fill="white">4.4.4.4</text>
</g>
<!-- 109.74.255.242&#45;&#45;4.4.4.4 -->
<g id="edge21" class="edge"><title>109.74.255.242&#45;&#45;4.4.4.4</title>
<path fill="none" stroke="black" d="M473.107,-359.697C481.248,-348.522 491.769,-334.082 499.738,-323.145"/>
</g>
<!-- 4.4.8.8 -->
<g id="node23" class="node"><title>4.4.8.8</title>
<ellipse fill="orange" stroke="black" cx="600.5" cy="-306" rx="35.9954" ry="18"/>
<text text-anchor="middle" x="600.5" y="-302.3" font-family="Times,serif" font-size="14.00" fill="white">4.4.8.8</text>
</g>
<!-- 109.74.255.242&#45;&#45;4.4.8.8 -->
<g id="edge22" class="edge"><title>109.74.255.242&#45;&#45;4.4.8.8</title>
<path fill="none" stroke="black" d="M494.748,-359.876C519.843,-347.329 553.317,-330.591 575.824,-319.338"/>
</g>
<!-- 4.15.136.22 -->
<g id="node14" class="node"><title>4.15.136.22</title>
<polygon fill="lightgrey" stroke="black" points="452.5,-252 370.5,-252 370.5,-216 452.5,-216 452.5,-252"/>
<text text-anchor="middle" x="411.5" y="-230.3" font-family="Times,serif" font-size="14.00">4.15.136.22</text>
</g>
<!-- 109.74.255.81&#45;&#45;4.15.136.22 -->
<g id="edge13" class="edge"><title>109.74.255.81&#45;&#45;4.15.136.22</title>
<path fill="none" stroke="black" d="M410.747,-287.697C410.902,-276.846 411.101,-262.917 411.256,-252.104"/>
</g>
<!-- github.com -->
<g id="node15" class="node"><title>github.com</title>
<ellipse fill="orange" stroke="black" cx="414.5" cy="-162" rx="51.1914" ry="18"/>
<text text-anchor="middle" x="414.5" y="-158.3" font-family="Times,serif" font-size="14.00" fill="white">github.com</text>
</g>
<!-- 4.15.136.22&#45;&#45;github.com -->
<g id="edge14" class="edge"><title>4.15.136.22&#45;&#45;github.com</title>
<path fill="none" stroke="black" d="M412.242,-215.697C412.707,-204.846 413.304,-190.917 413.767,-180.104"/>
</g>
<!-- twitter.com -->
<g id="node17" class="node"><title>twitter.com</title>
<ellipse fill="orange" stroke="black" cx="178.5" cy="-234" rx="51.9908" ry="18"/>
<text text-anchor="middle" x="178.5" y="-230.3" font-family="Times,serif" font-size="14.00" fill="white">twitter.com</text>
</g>
<!-- 104.244.42.1&#45;&#45;twitter.com -->
<g id="edge16" class="edge"><title>104.244.42.1&#45;&#45;twitter.com</title>
<path fill="none" stroke="black" d="M178.5,-287.697C178.5,-276.846 178.5,-262.917 178.5,-252.104"/>
</g>
<!-- 157.240.34.219 -->
<g id="node19" class="node"><title>157.240.34.219</title>
<polygon fill="lightgrey" stroke="black" points="350.5,-252 248.5,-252 248.5,-216 350.5,-216 350.5,-252"/>
<text text-anchor="middle" x="299.5" y="-230.3" font-family="Times,serif" font-size="14.00">157.240.34.219</text>
</g>
<!-- 195.66.225.121&#45;&#45;157.240.34.219 -->
<g id="edge18" class="edge"><title>195.66.225.121&#45;&#45;157.240.34.219</title>
<path fill="none" stroke="black" d="M294.23,-287.697C295.315,-276.846 296.708,-262.917 297.79,-252.104"/>
</g>
<!-- 173.252.67.75 -->
<g id="node20" class="node"><title>173.252.67.75</title>
<polygon fill="lightgrey" stroke="black" points="345,-180 250,-180 250,-144 345,-144 345,-180"/>
<text text-anchor="middle" x="297.5" y="-158.3" font-family="Times,serif" font-size="14.00">173.252.67.75</text>
</g>
<!-- 157.240.34.219&#45;&#45;173.252.67.75 -->
<g id="edge19" class="edge"><title>157.240.34.219&#45;&#45;173.252.67.75</title>
<path fill="none" stroke="black" d="M299.006,-215.697C298.696,-204.846 298.298,-190.917 297.989,-180.104"/>
</g>
<!-- facebook.com -->
<g id="node21" class="node"><title>facebook.com</title>
<ellipse fill="orange" stroke="black" cx="297.5" cy="-90" rx="61.1893" ry="18"/>
<text text-anchor="middle" x="297.5" y="-86.3" font-family="Times,serif" font-size="14.00" fill="white">facebook.com</text>
</g>
<!-- 173.252.67.75&#45;&#45;facebook.com -->
<g id="edge20" class="edge"><title>173.252.67.75&#45;&#45;facebook.com</title>
<path fill="none" stroke="black" d="M297.5,-143.697C297.5,-132.846 297.5,-118.917 297.5,-108.104"/>
</g>
</g>
</svg>
