<?xml version="1.0" encoding="UTF-8" standalone="no"?>
<!DOCTYPE svg PUBLIC "-//W3C//DTD SVG 1.1//EN"
 "http://www.w3.org/Graphics/SVG/1.1/DTD/svg11.dtd">
<!-- Generated by graphviz version 2.38.0 (20140413.2041)
 -->
<!-- Title: %3 Pages: 1 -->
<svg width="1154pt" height="908pt"
 viewBox="0.00 0.00 1154.24 908.00" xmlns="http://www.w3.org/2000/svg" xmlns:xlink="http://www.w3.org/1999/xlink">
<g id="graph0" class="graph" transform="scale(1 1) rotate(0) translate(4 904)">
<title>%3</title>
<polygon fill="white" stroke="none" points="-4,4 -4,-904 1150.24,-904 1150.24,4 -4,4"/>
<!-- soy yo -->
<g id="node1" class="node"><title>soy yo</title>
<ellipse fill="green" stroke="black" cx="697.742" cy="-882" rx="36.2938" ry="18"/>
<text text-anchor="middle" x="697.742" y="-878.3" font-family="Helvetica,sans-Serif" font-size="14.00" fill="white">soy yo</text>
</g>
<!-- 192.168.0.1 -->
<g id="node12" class="node"><title>192.168.0.1</title>
<polygon fill="lightgrey" stroke="black" points="741.742,-828 653.742,-828 653.742,-792 741.742,-792 741.742,-828"/>
<text text-anchor="middle" x="697.742" y="-806.3" font-family="Helvetica,sans-Serif" font-size="14.00">192.168.0.1</text>
</g>
<!-- soy yo&#45;&#45;192.168.0.1 -->
<g id="edge1" class="edge"><title>soy yo&#45;&#45;192.168.0.1</title>
<path fill="none" stroke="black" d="M697.742,-863.697C697.742,-852.846 697.742,-838.917 697.742,-828.104"/>
</g>
<!-- google.com -->
<g id="node2" class="node"><title>google.com</title>
<ellipse fill="green" stroke="black" cx="166.742" cy="-378" rx="56.59" ry="18"/>
<text text-anchor="middle" x="166.742" y="-374.3" font-family="Helvetica,sans-Serif" font-size="14.00" fill="white">google.com</text>
</g>
<!-- deanturpin.github.io -->
<g id="node3" class="node"><title>deanturpin.github.io</title>
<ellipse fill="green" stroke="black" cx="87.7422" cy="-666" rx="87.9851" ry="18"/>
<text text-anchor="middle" x="87.7422" y="-662.3" font-family="Helvetica,sans-Serif" font-size="14.00" fill="white">deanturpin.github.io</text>
</g>
<!-- github.com -->
<g id="node4" class="node"><title>github.com</title>
<ellipse fill="green" stroke="black" cx="297.742" cy="-450" rx="53.8905" ry="18"/>
<text text-anchor="middle" x="297.742" y="-446.3" font-family="Helvetica,sans-Serif" font-size="14.00" fill="white">github.com</text>
</g>
<!-- silobrighton.com -->
<g id="node5" class="node"><title>silobrighton.com</title>
<ellipse fill="red" stroke="black" cx="601.742" cy="-450" rx="75.2868" ry="18"/>
<text text-anchor="middle" x="601.742" y="-446.3" font-family="Helvetica,sans-Serif" font-size="14.00" fill="white">silobrighton.com</text>
</g>
<!-- instagram.com -->
<g id="node6" class="node"><title>instagram.com</title>
<ellipse fill="green" stroke="black" cx="438.742" cy="-450" rx="69.5877" ry="18"/>
<text text-anchor="middle" x="438.742" y="-446.3" font-family="Helvetica,sans-Serif" font-size="14.00" fill="white">instagram.com</text>
</g>
<!-- monzo.com -->
<g id="node7" class="node"><title>monzo.com</title>
<ellipse fill="green" stroke="black" cx="688.742" cy="-522" rx="57.3905" ry="18"/>
<text text-anchor="middle" x="688.742" y="-518.3" font-family="Helvetica,sans-Serif" font-size="14.00" fill="white">monzo.com</text>
</g>
<!-- infinityfoods.coop -->
<g id="node8" class="node"><title>infinityfoods.coop</title>
<ellipse fill="green" stroke="black" cx="815.742" cy="-234" rx="78.7863" ry="18"/>
<text text-anchor="middle" x="815.742" y="-230.3" font-family="Helvetica,sans-Serif" font-size="14.00" fill="white">infinityfoods.coop</text>
</g>
<!-- roli.com -->
<g id="node9" class="node"><title>roli.com</title>
<ellipse fill="red" stroke="black" cx="1098.74" cy="-18" rx="42.4939" ry="18"/>
<text text-anchor="middle" x="1098.74" y="-14.3" font-family="Helvetica,sans-Serif" font-size="14.00" fill="white">roli.com</text>
</g>
<!-- 4.4.4.4 -->
<g id="node10" class="node"><title>4.4.4.4</title>
<ellipse fill="red" stroke="black" cx="230.742" cy="-666" rx="37.8943" ry="18"/>
<text text-anchor="middle" x="230.742" y="-662.3" font-family="Helvetica,sans-Serif" font-size="14.00" fill="white">4.4.4.4</text>
</g>
<!-- instragram.com -->
<g id="node11" class="node"><title>instragram.com</title>
<ellipse fill="red" stroke="black" cx="960.742" cy="-306" rx="72.2875" ry="18"/>
<text text-anchor="middle" x="960.742" y="-302.3" font-family="Helvetica,sans-Serif" font-size="14.00" fill="white">instragram.com</text>
</g>
<!-- 84.38.37.34 -->
<g id="node13" class="node"><title>84.38.37.34</title>
<polygon fill="lightgrey" stroke="black" points="612.742,-756 524.742,-756 524.742,-720 612.742,-720 612.742,-756"/>
<text text-anchor="middle" x="568.742" y="-734.3" font-family="Helvetica,sans-Serif" font-size="14.00">84.38.37.34</text>
</g>
<!-- 192.168.0.1&#45;&#45;84.38.37.34 -->
<g id="edge2" class="edge"><title>192.168.0.1&#45;&#45;84.38.37.34</title>
<path fill="none" stroke="black" d="M666.185,-791.876C646.195,-781.029 620.434,-767.05 600.42,-756.19"/>
</g>
<!-- 84.38.37.36 -->
<g id="node40" class="node"><title>84.38.37.36</title>
<polygon fill="lightgrey" stroke="black" points="870.742,-756 782.742,-756 782.742,-720 870.742,-720 870.742,-756"/>
<text text-anchor="middle" x="826.742" y="-734.3" font-family="Helvetica,sans-Serif" font-size="14.00">84.38.37.36</text>
</g>
<!-- 192.168.0.1&#45;&#45;84.38.37.36 -->
<g id="edge38" class="edge"><title>192.168.0.1&#45;&#45;84.38.37.36</title>
<path fill="none" stroke="black" d="M729.299,-791.876C749.289,-781.029 775.05,-767.05 795.064,-756.19"/>
</g>
<!-- 84.38.37.34&#45;&#45;deanturpin.github.io -->
<g id="edge8" class="edge"><title>84.38.37.34&#45;&#45;deanturpin.github.io</title>
<path fill="none" stroke="black" d="M524.49,-731.47C452.802,-722.386 306.88,-703.371 183.742,-684 173.125,-682.33 161.868,-680.442 150.942,-678.548"/>
</g>
<!-- 84.38.37.34&#45;&#45;4.4.4.4 -->
<g id="edge37" class="edge"><title>84.38.37.34&#45;&#45;4.4.4.4</title>
<path fill="none" stroke="black" d="M524.675,-731.445C467.039,-723.625 363.221,-707.634 276.742,-684 270.829,-682.384 264.603,-680.332 258.709,-678.218"/>
</g>
<!-- 74.125.49.150 -->
<g id="node14" class="node"><title>74.125.49.150</title>
<polygon fill="lightgrey" stroke="black" points="389.242,-684 286.242,-684 286.242,-648 389.242,-648 389.242,-684"/>
<text text-anchor="middle" x="337.742" y="-662.3" font-family="Helvetica,sans-Serif" font-size="14.00">74.125.49.150</text>
</g>
<!-- 84.38.37.34&#45;&#45;74.125.49.150 -->
<g id="edge3" class="edge"><title>84.38.37.34&#45;&#45;74.125.49.150</title>
<path fill="none" stroke="black" d="M524.476,-723.586C485.961,-711.915 430.107,-694.989 389.526,-682.692"/>
</g>
<!-- 212.113.9.141 -->
<g id="node18" class="node"><title>212.113.9.141</title>
<polygon fill="lightgrey" stroke="black" points="510.242,-684 407.242,-684 407.242,-648 510.242,-648 510.242,-684"/>
<text text-anchor="middle" x="458.742" y="-662.3" font-family="Helvetica,sans-Serif" font-size="14.00">212.113.9.141</text>
</g>
<!-- 84.38.37.34&#45;&#45;212.113.9.141 -->
<g id="edge9" class="edge"><title>84.38.37.34&#45;&#45;212.113.9.141</title>
<path fill="none" stroke="black" d="M541.833,-719.876C524.787,-709.029 502.82,-695.05 485.755,-684.19"/>
</g>
<!-- 5.57.80.33 -->
<g id="node21" class="node"><title>5.57.80.33</title>
<polygon fill="lightgrey" stroke="black" points="608.742,-684 528.742,-684 528.742,-648 608.742,-648 608.742,-684"/>
<text text-anchor="middle" x="568.742" y="-662.3" font-family="Helvetica,sans-Serif" font-size="14.00">5.57.80.33</text>
</g>
<!-- 84.38.37.34&#45;&#45;5.57.80.33 -->
<g id="edge13" class="edge"><title>84.38.37.34&#45;&#45;5.57.80.33</title>
<path fill="none" stroke="black" d="M568.742,-719.697C568.742,-708.846 568.742,-694.917 568.742,-684.104"/>
</g>
<!-- 2.127.241.137 -->
<g id="node26" class="node"><title>2.127.241.137</title>
<polygon fill="lightgrey" stroke="black" points="733.242,-684 630.242,-684 630.242,-648 733.242,-648 733.242,-684"/>
<text text-anchor="middle" x="681.742" y="-662.3" font-family="Helvetica,sans-Serif" font-size="14.00">2.127.241.137</text>
</g>
<!-- 84.38.37.34&#45;&#45;2.127.241.137 -->
<g id="edge20" class="edge"><title>84.38.37.34&#45;&#45;2.127.241.137</title>
<path fill="none" stroke="black" d="M596.385,-719.876C613.896,-709.029 636.462,-695.05 653.993,-684.19"/>
</g>
<!-- 5.57.80.240 -->
<g id="node28" class="node"><title>5.57.80.240</title>
<polygon fill="lightgrey" stroke="black" points="848.742,-684 760.742,-684 760.742,-648 848.742,-648 848.742,-684"/>
<text text-anchor="middle" x="804.742" y="-662.3" font-family="Helvetica,sans-Serif" font-size="14.00">5.57.80.240</text>
</g>
<!-- 84.38.37.34&#45;&#45;5.57.80.240 -->
<g id="edge23" class="edge"><title>84.38.37.34&#45;&#45;5.57.80.240</title>
<path fill="none" stroke="black" d="M612.855,-723.916C655.013,-711.411 718.226,-692.662 760.445,-680.139"/>
</g>
<!-- 83.231.221.45 -->
<g id="node34" class="node"><title>83.231.221.45</title>
<polygon fill="lightgrey" stroke="black" points="1018.24,-468 915.242,-468 915.242,-432 1018.24,-432 1018.24,-468"/>
<text text-anchor="middle" x="966.742" y="-446.3" font-family="Helvetica,sans-Serif" font-size="14.00">83.231.221.45</text>
</g>
<!-- 84.38.37.34&#45;&#45;83.231.221.45 -->
<g id="edge30" class="edge"><title>84.38.37.34&#45;&#45;83.231.221.45</title>
<path fill="none" stroke="black" d="M612.799,-734.261C684.368,-728.958 821.551,-714.966 857.742,-684 922.144,-628.896 878.206,-577.312 920.742,-504 928.324,-490.932 939.354,-478.089 948.712,-468.319"/>
</g>
<!-- 108.170.246.129 -->
<g id="node15" class="node"><title>108.170.246.129</title>
<polygon fill="lightgrey" stroke="black" points="231.742,-612 113.742,-612 113.742,-576 231.742,-576 231.742,-612"/>
<text text-anchor="middle" x="172.742" y="-590.3" font-family="Helvetica,sans-Serif" font-size="14.00">108.170.246.129</text>
</g>
<!-- 74.125.49.150&#45;&#45;108.170.246.129 -->
<g id="edge4" class="edge"><title>74.125.49.150&#45;&#45;108.170.246.129</title>
<path fill="none" stroke="black" d="M297.379,-647.876C271.714,-636.988 238.614,-622.945 212.975,-612.068"/>
</g>
<!-- 108.170.232.105 -->
<g id="node16" class="node"><title>108.170.232.105</title>
<polygon fill="lightgrey" stroke="black" points="226.742,-540 108.742,-540 108.742,-504 226.742,-504 226.742,-540"/>
<text text-anchor="middle" x="167.742" y="-518.3" font-family="Helvetica,sans-Serif" font-size="14.00">108.170.232.105</text>
</g>
<!-- 108.170.246.129&#45;&#45;108.170.232.105 -->
<g id="edge5" class="edge"><title>108.170.246.129&#45;&#45;108.170.232.105</title>
<path fill="none" stroke="black" d="M171.506,-575.697C170.731,-564.846 169.736,-550.917 168.964,-540.104"/>
</g>
<!-- 108.170.246.226 -->
<g id="node17" class="node"><title>108.170.246.226</title>
<polygon fill="lightgrey" stroke="black" points="225.742,-468 107.742,-468 107.742,-432 225.742,-432 225.742,-468"/>
<text text-anchor="middle" x="166.742" y="-446.3" font-family="Helvetica,sans-Serif" font-size="14.00">108.170.246.226</text>
</g>
<!-- 108.170.232.105&#45;&#45;108.170.246.226 -->
<g id="edge6" class="edge"><title>108.170.232.105&#45;&#45;108.170.246.226</title>
<path fill="none" stroke="black" d="M167.495,-503.697C167.34,-492.846 167.141,-478.917 166.987,-468.104"/>
</g>
<!-- 108.170.246.226&#45;&#45;google.com -->
<g id="edge7" class="edge"><title>108.170.246.226&#45;&#45;google.com</title>
<path fill="none" stroke="black" d="M166.742,-431.697C166.742,-420.846 166.742,-406.917 166.742,-396.104"/>
</g>
<!-- 4.15.136.22 -->
<g id="node19" class="node"><title>4.15.136.22</title>
<polygon fill="lightgrey" stroke="black" points="359.742,-612 271.742,-612 271.742,-576 359.742,-576 359.742,-612"/>
<text text-anchor="middle" x="315.742" y="-590.3" font-family="Helvetica,sans-Serif" font-size="14.00">4.15.136.22</text>
</g>
<!-- 212.113.9.141&#45;&#45;4.15.136.22 -->
<g id="edge10" class="edge"><title>212.113.9.141&#45;&#45;4.15.136.22</title>
<path fill="none" stroke="black" d="M423.76,-647.876C401.601,-637.029 373.044,-623.05 350.858,-612.19"/>
</g>
<!-- 4.28.125.110 -->
<g id="node24" class="node"><title>4.28.125.110</title>
<polygon fill="lightgrey" stroke="black" points="490.242,-612 395.242,-612 395.242,-576 490.242,-576 490.242,-612"/>
<text text-anchor="middle" x="442.742" y="-590.3" font-family="Helvetica,sans-Serif" font-size="14.00">4.28.125.110</text>
</g>
<!-- 212.113.9.141&#45;&#45;4.28.125.110 -->
<g id="edge17" class="edge"><title>212.113.9.141&#45;&#45;4.28.125.110</title>
<path fill="none" stroke="black" d="M454.787,-647.697C452.307,-636.846 449.123,-622.917 446.652,-612.104"/>
</g>
<!-- 192.30.253.113 -->
<g id="node20" class="node"><title>192.30.253.113</title>
<polygon fill="lightgrey" stroke="black" points="360.742,-540 250.742,-540 250.742,-504 360.742,-504 360.742,-540"/>
<text text-anchor="middle" x="305.742" y="-518.3" font-family="Helvetica,sans-Serif" font-size="14.00">192.30.253.113</text>
</g>
<!-- 4.15.136.22&#45;&#45;192.30.253.113 -->
<g id="edge11" class="edge"><title>4.15.136.22&#45;&#45;192.30.253.113</title>
<path fill="none" stroke="black" d="M313.27,-575.697C311.72,-564.846 309.73,-550.917 308.186,-540.104"/>
</g>
<!-- 192.30.253.113&#45;&#45;github.com -->
<g id="edge12" class="edge"><title>192.30.253.113&#45;&#45;github.com</title>
<path fill="none" stroke="black" d="M303.765,-503.697C302.525,-492.846 300.933,-478.917 299.697,-468.104"/>
</g>
<!-- 37.209.223.9 -->
<g id="node22" class="node"><title>37.209.223.9</title>
<polygon fill="lightgrey" stroke="black" points="611.242,-612 516.242,-612 516.242,-576 611.242,-576 611.242,-612"/>
<text text-anchor="middle" x="563.742" y="-590.3" font-family="Helvetica,sans-Serif" font-size="14.00">37.209.223.9</text>
</g>
<!-- 5.57.80.33&#45;&#45;37.209.223.9 -->
<g id="edge14" class="edge"><title>5.57.80.33&#45;&#45;37.209.223.9</title>
<path fill="none" stroke="black" d="M567.506,-647.697C566.731,-636.846 565.736,-622.917 564.964,-612.104"/>
</g>
<!-- 37.209.223.57 -->
<g id="node23" class="node"><title>37.209.223.57</title>
<polygon fill="lightgrey" stroke="black" points="613.242,-540 510.242,-540 510.242,-504 613.242,-504 613.242,-540"/>
<text text-anchor="middle" x="561.742" y="-518.3" font-family="Helvetica,sans-Serif" font-size="14.00">37.209.223.57</text>
</g>
<!-- 37.209.223.9&#45;&#45;37.209.223.57 -->
<g id="edge15" class="edge"><title>37.209.223.9&#45;&#45;37.209.223.57</title>
<path fill="none" stroke="black" d="M563.248,-575.697C562.938,-564.846 562.54,-550.917 562.231,-540.104"/>
</g>
<!-- 37.209.223.57&#45;&#45;silobrighton.com -->
<g id="edge16" class="edge"><title>37.209.223.57&#45;&#45;silobrighton.com</title>
<path fill="none" stroke="black" d="M571.63,-503.697C577.83,-492.846 585.79,-478.917 591.968,-468.104"/>
</g>
<!-- 54.239.110.231 -->
<g id="node25" class="node"><title>54.239.110.231</title>
<polygon fill="lightgrey" stroke="black" points="491.742,-540 381.742,-540 381.742,-504 491.742,-504 491.742,-540"/>
<text text-anchor="middle" x="436.742" y="-518.3" font-family="Helvetica,sans-Serif" font-size="14.00">54.239.110.231</text>
</g>
<!-- 4.28.125.110&#45;&#45;54.239.110.231 -->
<g id="edge18" class="edge"><title>4.28.125.110&#45;&#45;54.239.110.231</title>
<path fill="none" stroke="black" d="M441.259,-575.697C440.329,-564.846 439.135,-550.917 438.208,-540.104"/>
</g>
<!-- 54.239.110.231&#45;&#45;instagram.com -->
<g id="edge19" class="edge"><title>54.239.110.231&#45;&#45;instagram.com</title>
<path fill="none" stroke="black" d="M437.237,-503.697C437.547,-492.846 437.945,-478.917 438.254,-468.104"/>
</g>
<!-- 104.25.211.99 -->
<g id="node27" class="node"><title>104.25.211.99</title>
<polygon fill="lightgrey" stroke="black" points="737.242,-612 634.242,-612 634.242,-576 737.242,-576 737.242,-612"/>
<text text-anchor="middle" x="685.742" y="-590.3" font-family="Helvetica,sans-Serif" font-size="14.00">104.25.211.99</text>
</g>
<!-- 2.127.241.137&#45;&#45;104.25.211.99 -->
<g id="edge21" class="edge"><title>2.127.241.137&#45;&#45;104.25.211.99</title>
<path fill="none" stroke="black" d="M682.731,-647.697C683.351,-636.846 684.147,-622.917 684.765,-612.104"/>
</g>
<!-- 104.25.211.99&#45;&#45;monzo.com -->
<g id="edge22" class="edge"><title>104.25.211.99&#45;&#45;monzo.com</title>
<path fill="none" stroke="black" d="M686.484,-575.697C686.949,-564.846 687.546,-550.917 688.009,-540.104"/>
</g>
<!-- 80.88.212.56 -->
<g id="node29" class="node"><title>80.88.212.56</title>
<polygon fill="lightgrey" stroke="black" points="860.242,-612 765.242,-612 765.242,-576 860.242,-576 860.242,-612"/>
<text text-anchor="middle" x="812.742" y="-590.3" font-family="Helvetica,sans-Serif" font-size="14.00">80.88.212.56</text>
</g>
<!-- 5.57.80.240&#45;&#45;80.88.212.56 -->
<g id="edge24" class="edge"><title>5.57.80.240&#45;&#45;80.88.212.56</title>
<path fill="none" stroke="black" d="M806.72,-647.697C807.96,-636.846 809.552,-622.917 810.787,-612.104"/>
</g>
<!-- 80.88.202.138 -->
<g id="node30" class="node"><title>80.88.202.138</title>
<polygon fill="lightgrey" stroke="black" points="867.242,-540 764.242,-540 764.242,-504 867.242,-504 867.242,-540"/>
<text text-anchor="middle" x="815.742" y="-518.3" font-family="Helvetica,sans-Serif" font-size="14.00">80.88.202.138</text>
</g>
<!-- 80.88.212.56&#45;&#45;80.88.202.138 -->
<g id="edge25" class="edge"><title>80.88.212.56&#45;&#45;80.88.202.138</title>
<path fill="none" stroke="black" d="M813.484,-575.697C813.949,-564.846 814.546,-550.917 815.009,-540.104"/>
</g>
<!-- 37.200.112.58 -->
<g id="node31" class="node"><title>37.200.112.58</title>
<polygon fill="lightgrey" stroke="black" points="867.242,-468 764.242,-468 764.242,-432 867.242,-432 867.242,-468"/>
<text text-anchor="middle" x="815.742" y="-446.3" font-family="Helvetica,sans-Serif" font-size="14.00">37.200.112.58</text>
</g>
<!-- 80.88.202.138&#45;&#45;37.200.112.58 -->
<g id="edge26" class="edge"><title>80.88.202.138&#45;&#45;37.200.112.58</title>
<path fill="none" stroke="black" d="M815.742,-503.697C815.742,-492.846 815.742,-478.917 815.742,-468.104"/>
</g>
<!-- 213.129.95.153 -->
<g id="node32" class="node"><title>213.129.95.153</title>
<polygon fill="lightgrey" stroke="black" points="870.742,-396 760.742,-396 760.742,-360 870.742,-360 870.742,-396"/>
<text text-anchor="middle" x="815.742" y="-374.3" font-family="Helvetica,sans-Serif" font-size="14.00">213.129.95.153</text>
</g>
<!-- 37.200.112.58&#45;&#45;213.129.95.153 -->
<g id="edge27" class="edge"><title>37.200.112.58&#45;&#45;213.129.95.153</title>
<path fill="none" stroke="black" d="M815.742,-431.697C815.742,-420.846 815.742,-406.917 815.742,-396.104"/>
</g>
<!-- 37.200.112.61 -->
<g id="node33" class="node"><title>37.200.112.61</title>
<polygon fill="lightgrey" stroke="black" points="867.242,-324 764.242,-324 764.242,-288 867.242,-288 867.242,-324"/>
<text text-anchor="middle" x="815.742" y="-302.3" font-family="Helvetica,sans-Serif" font-size="14.00">37.200.112.61</text>
</g>
<!-- 213.129.95.153&#45;&#45;37.200.112.61 -->
<g id="edge28" class="edge"><title>213.129.95.153&#45;&#45;37.200.112.61</title>
<path fill="none" stroke="black" d="M815.742,-359.697C815.742,-348.846 815.742,-334.917 815.742,-324.104"/>
</g>
<!-- 37.200.112.61&#45;&#45;infinityfoods.coop -->
<g id="edge29" class="edge"><title>37.200.112.61&#45;&#45;infinityfoods.coop</title>
<path fill="none" stroke="black" d="M815.742,-287.697C815.742,-276.846 815.742,-262.917 815.742,-252.104"/>
</g>
<!-- 129.250.4.23 -->
<g id="node35" class="node"><title>129.250.4.23</title>
<polygon fill="lightgrey" stroke="black" points="1014.24,-396 919.242,-396 919.242,-360 1014.24,-360 1014.24,-396"/>
<text text-anchor="middle" x="966.742" y="-374.3" font-family="Helvetica,sans-Serif" font-size="14.00">129.250.4.23</text>
</g>
<!-- 83.231.221.45&#45;&#45;129.250.4.23 -->
<g id="edge31" class="edge"><title>83.231.221.45&#45;&#45;129.250.4.23</title>
<path fill="none" stroke="black" d="M966.742,-431.697C966.742,-420.846 966.742,-406.917 966.742,-396.104"/>
</g>
<!-- 129.250.4.23&#45;&#45;instragram.com -->
<g id="edge43" class="edge"><title>129.250.4.23&#45;&#45;instragram.com</title>
<path fill="none" stroke="black" d="M965.259,-359.697C964.329,-348.846 963.135,-334.917 962.208,-324.104"/>
</g>
<!-- 129.250.2.18 -->
<g id="node36" class="node"><title>129.250.2.18</title>
<polygon fill="lightgrey" stroke="black" points="1146.24,-324 1051.24,-324 1051.24,-288 1146.24,-288 1146.24,-324"/>
<text text-anchor="middle" x="1098.74" y="-302.3" font-family="Helvetica,sans-Serif" font-size="14.00">129.250.2.18</text>
</g>
<!-- 129.250.4.23&#45;&#45;129.250.2.18 -->
<g id="edge32" class="edge"><title>129.250.4.23&#45;&#45;129.250.2.18</title>
<path fill="none" stroke="black" d="M999.033,-359.876C1019.49,-349.029 1045.85,-335.05 1066.33,-324.19"/>
</g>
<!-- 129.250.4.13 -->
<g id="node37" class="node"><title>129.250.4.13</title>
<polygon fill="lightgrey" stroke="black" points="1146.24,-252 1051.24,-252 1051.24,-216 1146.24,-216 1146.24,-252"/>
<text text-anchor="middle" x="1098.74" y="-230.3" font-family="Helvetica,sans-Serif" font-size="14.00">129.250.4.13</text>
</g>
<!-- 129.250.2.18&#45;&#45;129.250.4.13 -->
<g id="edge33" class="edge"><title>129.250.2.18&#45;&#45;129.250.4.13</title>
<path fill="none" stroke="black" d="M1098.74,-287.697C1098.74,-276.846 1098.74,-262.917 1098.74,-252.104"/>
</g>
<!-- 129.250.2.8 -->
<g id="node38" class="node"><title>129.250.2.8</title>
<polygon fill="lightgrey" stroke="black" points="1142.74,-180 1054.74,-180 1054.74,-144 1142.74,-144 1142.74,-180"/>
<text text-anchor="middle" x="1098.74" y="-158.3" font-family="Helvetica,sans-Serif" font-size="14.00">129.250.2.8</text>
</g>
<!-- 129.250.4.13&#45;&#45;129.250.2.8 -->
<g id="edge34" class="edge"><title>129.250.4.13&#45;&#45;129.250.2.8</title>
<path fill="none" stroke="black" d="M1098.74,-215.697C1098.74,-204.846 1098.74,-190.917 1098.74,-180.104"/>
</g>
<!-- 129.250.5.98 -->
<g id="node39" class="node"><title>129.250.5.98</title>
<polygon fill="lightgrey" stroke="black" points="1146.24,-108 1051.24,-108 1051.24,-72 1146.24,-72 1146.24,-108"/>
<text text-anchor="middle" x="1098.74" y="-86.3" font-family="Helvetica,sans-Serif" font-size="14.00">129.250.5.98</text>
</g>
<!-- 129.250.2.8&#45;&#45;129.250.5.98 -->
<g id="edge35" class="edge"><title>129.250.2.8&#45;&#45;129.250.5.98</title>
<path fill="none" stroke="black" d="M1098.74,-143.697C1098.74,-132.846 1098.74,-118.917 1098.74,-108.104"/>
</g>
<!-- 129.250.5.98&#45;&#45;roli.com -->
<g id="edge36" class="edge"><title>129.250.5.98&#45;&#45;roli.com</title>
<path fill="none" stroke="black" d="M1098.74,-71.6966C1098.74,-60.8463 1098.74,-46.9167 1098.74,-36.1043"/>
</g>
<!-- 89.200.131.151 -->
<g id="node41" class="node"><title>89.200.131.151</title>
<polygon fill="lightgrey" stroke="black" points="1033.74,-684 923.742,-684 923.742,-648 1033.74,-648 1033.74,-684"/>
<text text-anchor="middle" x="978.742" y="-662.3" font-family="Helvetica,sans-Serif" font-size="14.00">89.200.131.151</text>
</g>
<!-- 84.38.37.36&#45;&#45;89.200.131.151 -->
<g id="edge39" class="edge"><title>84.38.37.36&#45;&#45;89.200.131.151</title>
<path fill="none" stroke="black" d="M863.926,-719.876C887.568,-708.988 918.061,-694.945 941.68,-684.068"/>
</g>
<!-- 10.246.104.21 -->
<g id="node42" class="node"><title>10.246.104.21</title>
<polygon fill="lightgrey" stroke="black" points="1028.24,-612 925.242,-612 925.242,-576 1028.24,-576 1028.24,-612"/>
<text text-anchor="middle" x="976.742" y="-590.3" font-family="Helvetica,sans-Serif" font-size="14.00">10.246.104.21</text>
</g>
<!-- 89.200.131.151&#45;&#45;10.246.104.21 -->
<g id="edge40" class="edge"><title>89.200.131.151&#45;&#45;10.246.104.21</title>
<path fill="none" stroke="black" d="M978.248,-647.697C977.938,-636.846 977.54,-622.917 977.231,-612.104"/>
</g>
<!-- 2.120.8.74 -->
<g id="node43" class="node"><title>2.120.8.74</title>
<polygon fill="lightgrey" stroke="black" points="1009.74,-540 929.742,-540 929.742,-504 1009.74,-504 1009.74,-540"/>
<text text-anchor="middle" x="969.742" y="-518.3" font-family="Helvetica,sans-Serif" font-size="14.00">2.120.8.74</text>
</g>
<!-- 10.246.104.21&#45;&#45;2.120.8.74 -->
<g id="edge41" class="edge"><title>10.246.104.21&#45;&#45;2.120.8.74</title>
<path fill="none" stroke="black" d="M975.012,-575.697C973.927,-564.846 972.534,-550.917 971.453,-540.104"/>
</g>
<!-- 2.120.8.74&#45;&#45;83.231.221.45 -->
<g id="edge42" class="edge"><title>2.120.8.74&#45;&#45;83.231.221.45</title>
<path fill="none" stroke="black" d="M969.001,-503.697C968.536,-492.846 967.939,-478.917 967.475,-468.104"/>
</g>
</g>
</svg>
