<?xml version="1.0" encoding="UTF-8" standalone="no"?>
<!DOCTYPE svg PUBLIC "-//W3C//DTD SVG 1.1//EN"
 "http://www.w3.org/Graphics/SVG/1.1/DTD/svg11.dtd">
<!-- Generated by graphviz version 2.38.0 (20140413.2041)
 -->
<!-- Title: %3 Pages: 1 -->
<svg width="1674pt" height="1412pt"
 viewBox="0.00 0.00 1674.19 1412.00" xmlns="http://www.w3.org/2000/svg" xmlns:xlink="http://www.w3.org/1999/xlink">
<g id="graph0" class="graph" transform="scale(1 1) rotate(0) translate(4 1408)">
<title>%3</title>
<polygon fill="white" stroke="none" points="-4,4 -4,-1408 1670.19,-1408 1670.19,4 -4,4"/>
<!-- soy yo -->
<g id="node1" class="node"><title>soy yo</title>
<ellipse fill="green" stroke="black" cx="738" cy="-1386" rx="57.3905" ry="18"/>
<text text-anchor="middle" x="738" y="-1382.3" font-family="Helvetica,sans-Serif" font-size="14.00" fill="white">172.20.10.2</text>
</g>
<!-- gateway -->
<g id="node9" class="node"><title>gateway</title>
<polygon fill="lightgrey" stroke="black" points="771.5,-1332 704.5,-1332 704.5,-1296 771.5,-1296 771.5,-1332"/>
<text text-anchor="middle" x="738" y="-1310.3" font-family="Helvetica,sans-Serif" font-size="14.00">gateway</text>
</g>
<!-- soy yo&#45;&#45;gateway -->
<g id="edge1" class="edge"><title>soy yo&#45;&#45;gateway</title>
<path fill="none" stroke="black" d="M738,-1367.7C738,-1356.85 738,-1342.92 738,-1332.1"/>
</g>
<!-- google.com -->
<g id="node2" class="node"><title>google.com</title>
<ellipse fill="green" stroke="black" cx="85" cy="-378" rx="56.59" ry="18"/>
<text text-anchor="middle" x="85" y="-374.3" font-family="Helvetica,sans-Serif" font-size="14.00" fill="white">google.com</text>
</g>
<!-- deanturpin.github.io -->
<g id="node3" class="node"><title>deanturpin.github.io</title>
<ellipse fill="green" stroke="black" cx="279" cy="-522" rx="87.9851" ry="18"/>
<text text-anchor="middle" x="279" y="-518.3" font-family="Helvetica,sans-Serif" font-size="14.00" fill="white">deanturpin.github.io</text>
</g>
<!-- github.com -->
<g id="node4" class="node"><title>github.com</title>
<ellipse fill="green" stroke="black" cx="527" cy="-18" rx="53.8905" ry="18"/>
<text text-anchor="middle" x="527" y="-14.3" font-family="Helvetica,sans-Serif" font-size="14.00" fill="white">github.com</text>
</g>
<!-- silobrighton.com -->
<g id="node5" class="node"><title>silobrighton.com</title>
<ellipse fill="red" stroke="black" cx="761" cy="-450" rx="75.2868" ry="18"/>
<text text-anchor="middle" x="761" y="-446.3" font-family="Helvetica,sans-Serif" font-size="14.00" fill="white">silobrighton.com</text>
</g>
<!-- monzo.com -->
<g id="node6" class="node"><title>monzo.com</title>
<ellipse fill="green" stroke="black" cx="1609" cy="-594" rx="57.3905" ry="18"/>
<text text-anchor="middle" x="1609" y="-590.3" font-family="Helvetica,sans-Serif" font-size="14.00" fill="white">monzo.com</text>
</g>
<!-- infinityfoods.coop -->
<g id="node7" class="node"><title>infinityfoods.coop</title>
<ellipse fill="green" stroke="black" cx="1078" cy="-378" rx="78.7863" ry="18"/>
<text text-anchor="middle" x="1078" y="-374.3" font-family="Helvetica,sans-Serif" font-size="14.00" fill="white">infinityfoods.coop</text>
</g>
<!-- morningstar.co.uk -->
<g id="node8" class="node"><title>morningstar.co.uk</title>
<ellipse fill="red" stroke="black" cx="1413" cy="-522" rx="81.4863" ry="18"/>
<text text-anchor="middle" x="1413" y="-518.3" font-family="Helvetica,sans-Serif" font-size="14.00" fill="white">morningstar.co.uk</text>
</g>
<!-- 10.248.28.145 -->
<g id="node10" class="node"><title>10.248.28.145</title>
<polygon fill="lightgrey" stroke="black" points="729.5,-1260 626.5,-1260 626.5,-1224 729.5,-1224 729.5,-1260"/>
<text text-anchor="middle" x="678" y="-1238.3" font-family="Helvetica,sans-Serif" font-size="14.00">10.248.28.145</text>
</g>
<!-- gateway&#45;&#45;10.248.28.145 -->
<g id="edge2" class="edge"><title>gateway&#45;&#45;10.248.28.145</title>
<path fill="none" stroke="black" d="M723.169,-1295.7C713.868,-1284.85 701.929,-1270.92 692.661,-1260.1"/>
</g>
<!-- 10.248.28.153 -->
<g id="node22" class="node"><title>10.248.28.153</title>
<polygon fill="lightgrey" stroke="black" points="850.5,-1260 747.5,-1260 747.5,-1224 850.5,-1224 850.5,-1260"/>
<text text-anchor="middle" x="799" y="-1238.3" font-family="Helvetica,sans-Serif" font-size="14.00">10.248.28.153</text>
</g>
<!-- gateway&#45;&#45;10.248.28.153 -->
<g id="edge15" class="edge"><title>gateway&#45;&#45;10.248.28.153</title>
<path fill="none" stroke="black" d="M753.079,-1295.7C762.534,-1284.85 774.673,-1270.92 784.095,-1260.1"/>
</g>
<!-- 10.247.84.25 -->
<g id="node11" class="node"><title>10.247.84.25</title>
<polygon fill="lightgrey" stroke="black" points="727.5,-1188 632.5,-1188 632.5,-1152 727.5,-1152 727.5,-1188"/>
<text text-anchor="middle" x="680" y="-1166.3" font-family="Helvetica,sans-Serif" font-size="14.00">10.247.84.25</text>
</g>
<!-- 10.248.28.145&#45;&#45;10.247.84.25 -->
<g id="edge3" class="edge"><title>10.248.28.145&#45;&#45;10.247.84.25</title>
<path fill="none" stroke="black" d="M678.494,-1223.7C678.804,-1212.85 679.202,-1198.92 679.511,-1188.1"/>
</g>
<!-- 10.247.84.6 -->
<g id="node12" class="node"><title>10.247.84.6</title>
<polygon fill="lightgrey" stroke="black" points="782,-1116 694,-1116 694,-1080 782,-1080 782,-1116"/>
<text text-anchor="middle" x="738" y="-1094.3" font-family="Helvetica,sans-Serif" font-size="14.00">10.247.84.6</text>
</g>
<!-- 10.247.84.25&#45;&#45;10.247.84.6 -->
<g id="edge4" class="edge"><title>10.247.84.25&#45;&#45;10.247.84.6</title>
<path fill="none" stroke="black" d="M694.337,-1151.7C703.327,-1140.85 714.869,-1126.92 723.828,-1116.1"/>
</g>
<!-- 10.247.84.9 -->
<g id="node13" class="node"><title>10.247.84.9</title>
<polygon fill="lightgrey" stroke="black" points="782,-1044 694,-1044 694,-1008 782,-1008 782,-1044"/>
<text text-anchor="middle" x="738" y="-1022.3" font-family="Helvetica,sans-Serif" font-size="14.00">10.247.84.9</text>
</g>
<!-- 10.247.84.6&#45;&#45;10.247.84.9 -->
<g id="edge5" class="edge"><title>10.247.84.6&#45;&#45;10.247.84.9</title>
<path fill="none" stroke="black" d="M738,-1079.7C738,-1068.85 738,-1054.92 738,-1044.1"/>
</g>
<!-- 10.247.84.18 -->
<g id="node14" class="node"><title>10.247.84.18</title>
<polygon fill="lightgrey" stroke="black" points="785.5,-972 690.5,-972 690.5,-936 785.5,-936 785.5,-972"/>
<text text-anchor="middle" x="738" y="-950.3" font-family="Helvetica,sans-Serif" font-size="14.00">10.247.84.18</text>
</g>
<!-- 10.247.84.9&#45;&#45;10.247.84.18 -->
<g id="edge6" class="edge"><title>10.247.84.9&#45;&#45;10.247.84.18</title>
<path fill="none" stroke="black" d="M738,-1007.7C738,-996.846 738,-982.917 738,-972.104"/>
</g>
<!-- 87.237.20.224 -->
<g id="node15" class="node"><title>87.237.20.224</title>
<polygon fill="lightgrey" stroke="black" points="789.5,-900 686.5,-900 686.5,-864 789.5,-864 789.5,-900"/>
<text text-anchor="middle" x="738" y="-878.3" font-family="Helvetica,sans-Serif" font-size="14.00">87.237.20.224</text>
</g>
<!-- 10.247.84.18&#45;&#45;87.237.20.224 -->
<g id="edge7" class="edge"><title>10.247.84.18&#45;&#45;87.237.20.224</title>
<path fill="none" stroke="black" d="M738,-935.697C738,-924.846 738,-910.917 738,-900.104"/>
</g>
<!-- 87.237.20.73 -->
<g id="node16" class="node"><title>87.237.20.73</title>
<polygon fill="lightgrey" stroke="black" points="785.5,-828 690.5,-828 690.5,-792 785.5,-792 785.5,-828"/>
<text text-anchor="middle" x="738" y="-806.3" font-family="Helvetica,sans-Serif" font-size="14.00">87.237.20.73</text>
</g>
<!-- 87.237.20.224&#45;&#45;87.237.20.73 -->
<g id="edge8" class="edge"><title>87.237.20.224&#45;&#45;87.237.20.73</title>
<path fill="none" stroke="black" d="M738,-863.697C738,-852.846 738,-838.917 738,-828.104"/>
</g>
<!-- 87.237.20.36 -->
<g id="node17" class="node"><title>87.237.20.36</title>
<polygon fill="lightgrey" stroke="black" points="543.5,-756 448.5,-756 448.5,-720 543.5,-720 543.5,-756"/>
<text text-anchor="middle" x="496" y="-734.3" font-family="Helvetica,sans-Serif" font-size="14.00">87.237.20.36</text>
</g>
<!-- 87.237.20.73&#45;&#45;87.237.20.36 -->
<g id="edge9" class="edge"><title>87.237.20.73&#45;&#45;87.237.20.36</title>
<path fill="none" stroke="black" d="M690.477,-795.254C648.081,-782.99 586.316,-765.124 543.827,-752.834"/>
</g>
<!-- 80.150.169.13 -->
<g id="node24" class="node"><title>80.150.169.13</title>
<polygon fill="lightgrey" stroke="black" points="668.5,-756 565.5,-756 565.5,-720 668.5,-720 668.5,-756"/>
<text text-anchor="middle" x="617" y="-734.3" font-family="Helvetica,sans-Serif" font-size="14.00">80.150.169.13</text>
</g>
<!-- 87.237.20.73&#45;&#45;80.150.169.13 -->
<g id="edge18" class="edge"><title>87.237.20.73&#45;&#45;80.150.169.13</title>
<path fill="none" stroke="black" d="M708.4,-791.876C689.65,-781.029 665.486,-767.05 646.714,-756.19"/>
</g>
<!-- 87.237.20.33 -->
<g id="node35" class="node"><title>87.237.20.33</title>
<polygon fill="lightgrey" stroke="black" points="906.5,-756 811.5,-756 811.5,-720 906.5,-720 906.5,-756"/>
<text text-anchor="middle" x="859" y="-734.3" font-family="Helvetica,sans-Serif" font-size="14.00">87.237.20.33</text>
</g>
<!-- 87.237.20.73&#45;&#45;87.237.20.33 -->
<g id="edge31" class="edge"><title>87.237.20.73&#45;&#45;87.237.20.33</title>
<path fill="none" stroke="black" d="M767.6,-791.876C786.35,-781.029 810.514,-767.05 829.286,-756.19"/>
</g>
<!-- linx&#45;lon1.as13335.net -->
<g id="node39" class="node"><title>linx&#45;lon1.as13335.net</title>
<polygon fill="lightgrey" stroke="black" points="1243.5,-756 1098.5,-756 1098.5,-720 1243.5,-720 1243.5,-756"/>
<text text-anchor="middle" x="1171" y="-734.3" font-family="Helvetica,sans-Serif" font-size="14.00">linx&#45;lon1.as13335.net</text>
</g>
<!-- 87.237.20.73&#45;&#45;linx&#45;lon1.as13335.net -->
<g id="edge36" class="edge"><title>87.237.20.73&#45;&#45;linx&#45;lon1.as13335.net</title>
<path fill="none" stroke="black" d="M785.577,-801.309C861.151,-789.091 1009.16,-765.164 1098.15,-750.777"/>
</g>
<!-- 74.125.52.218 -->
<g id="node18" class="node"><title>74.125.52.218</title>
<polygon fill="lightgrey" stroke="black" points="295.5,-684 192.5,-684 192.5,-648 295.5,-648 295.5,-684"/>
<text text-anchor="middle" x="244" y="-662.3" font-family="Helvetica,sans-Serif" font-size="14.00">74.125.52.218</text>
</g>
<!-- 87.237.20.36&#45;&#45;74.125.52.218 -->
<g id="edge10" class="edge"><title>87.237.20.36&#45;&#45;74.125.52.218</title>
<path fill="none" stroke="black" d="M448.304,-723.751C404.784,-711.662 340.614,-693.837 295.84,-681.4"/>
</g>
<!-- 108.170.246.225 -->
<g id="node19" class="node"><title>108.170.246.225</title>
<polygon fill="lightgrey" stroke="black" points="144,-612 26,-612 26,-576 144,-576 144,-612"/>
<text text-anchor="middle" x="85" y="-590.3" font-family="Helvetica,sans-Serif" font-size="14.00">108.170.246.225</text>
</g>
<!-- 74.125.52.218&#45;&#45;108.170.246.225 -->
<g id="edge11" class="edge"><title>74.125.52.218&#45;&#45;108.170.246.225</title>
<path fill="none" stroke="black" d="M205.104,-647.876C180.373,-636.988 148.476,-622.945 123.769,-612.068"/>
</g>
<!-- 108.170.235.105 -->
<g id="node20" class="node"><title>108.170.235.105</title>
<polygon fill="lightgrey" stroke="black" points="144,-540 26,-540 26,-504 144,-504 144,-540"/>
<text text-anchor="middle" x="85" y="-518.3" font-family="Helvetica,sans-Serif" font-size="14.00">108.170.235.105</text>
</g>
<!-- 108.170.246.225&#45;&#45;108.170.235.105 -->
<g id="edge12" class="edge"><title>108.170.246.225&#45;&#45;108.170.235.105</title>
<path fill="none" stroke="black" d="M85,-575.697C85,-564.846 85,-550.917 85,-540.104"/>
</g>
<!-- lhr35s02&#45;in&#45;f46.1e100.net -->
<g id="node21" class="node"><title>lhr35s02&#45;in&#45;f46.1e100.net</title>
<polygon fill="lightgrey" stroke="black" points="170,-468 0,-468 0,-432 170,-432 170,-468"/>
<text text-anchor="middle" x="85" y="-446.3" font-family="Helvetica,sans-Serif" font-size="14.00">lhr35s02&#45;in&#45;f46.1e100.net</text>
</g>
<!-- 108.170.235.105&#45;&#45;lhr35s02&#45;in&#45;f46.1e100.net -->
<g id="edge13" class="edge"><title>108.170.235.105&#45;&#45;lhr35s02&#45;in&#45;f46.1e100.net</title>
<path fill="none" stroke="black" d="M85,-503.697C85,-492.846 85,-478.917 85,-468.104"/>
</g>
<!-- lhr35s02&#45;in&#45;f46.1e100.net&#45;&#45;google.com -->
<g id="edge14" class="edge"><title>lhr35s02&#45;in&#45;f46.1e100.net&#45;&#45;google.com</title>
<path fill="none" stroke="black" d="M85,-431.697C85,-420.846 85,-406.917 85,-396.104"/>
</g>
<!-- 10.247.84.27 -->
<g id="node23" class="node"><title>10.247.84.27</title>
<polygon fill="lightgrey" stroke="black" points="844.5,-1188 749.5,-1188 749.5,-1152 844.5,-1152 844.5,-1188"/>
<text text-anchor="middle" x="797" y="-1166.3" font-family="Helvetica,sans-Serif" font-size="14.00">10.247.84.27</text>
</g>
<!-- 10.248.28.153&#45;&#45;10.247.84.27 -->
<g id="edge16" class="edge"><title>10.248.28.153&#45;&#45;10.247.84.27</title>
<path fill="none" stroke="black" d="M798.506,-1223.7C798.196,-1212.85 797.798,-1198.92 797.489,-1188.1"/>
</g>
<!-- 10.247.84.27&#45;&#45;10.247.84.6 -->
<g id="edge17" class="edge"><title>10.247.84.27&#45;&#45;10.247.84.6</title>
<path fill="none" stroke="black" d="M782.416,-1151.7C773.27,-1140.85 761.53,-1126.92 752.417,-1116.1"/>
</g>
<!-- 80.150.170.106 -->
<g id="node25" class="node"><title>80.150.170.106</title>
<polygon fill="lightgrey" stroke="black" points="582,-684 472,-684 472,-648 582,-648 582,-684"/>
<text text-anchor="middle" x="527" y="-662.3" font-family="Helvetica,sans-Serif" font-size="14.00">80.150.170.106</text>
</g>
<!-- 80.150.169.13&#45;&#45;80.150.170.106 -->
<g id="edge19" class="edge"><title>80.150.169.13&#45;&#45;80.150.170.106</title>
<path fill="none" stroke="black" d="M594.753,-719.697C580.802,-708.846 562.893,-694.917 548.991,-684.104"/>
</g>
<!-- ae&#45;25.r00.londen10.uk.bb.gin.ntt.net -->
<g id="node26" class="node"><title>ae&#45;25.r00.londen10.uk.bb.gin.ntt.net</title>
<polygon fill="lightgrey" stroke="black" points="395.5,-612 162.5,-612 162.5,-576 395.5,-576 395.5,-612"/>
<text text-anchor="middle" x="279" y="-590.3" font-family="Helvetica,sans-Serif" font-size="14.00">ae&#45;25.r00.londen10.uk.bb.gin.ntt.net</text>
</g>
<!-- 80.150.170.106&#45;&#45;ae&#45;25.r00.londen10.uk.bb.gin.ntt.net -->
<g id="edge20" class="edge"><title>80.150.170.106&#45;&#45;ae&#45;25.r00.londen10.uk.bb.gin.ntt.net</title>
<path fill="none" stroke="black" d="M471.961,-649.465C432.718,-638.388 379.964,-623.498 339.534,-612.086"/>
</g>
<!-- ae&#45;3.r24.londen12.uk.bb.gin.ntt.net -->
<g id="node27" class="node"><title>ae&#45;3.r24.londen12.uk.bb.gin.ntt.net</title>
<polygon fill="lightgrey" stroke="black" points="640,-612 414,-612 414,-576 640,-576 640,-612"/>
<text text-anchor="middle" x="527" y="-590.3" font-family="Helvetica,sans-Serif" font-size="14.00">ae&#45;3.r24.londen12.uk.bb.gin.ntt.net</text>
</g>
<!-- 80.150.170.106&#45;&#45;ae&#45;3.r24.londen12.uk.bb.gin.ntt.net -->
<g id="edge22" class="edge"><title>80.150.170.106&#45;&#45;ae&#45;3.r24.londen12.uk.bb.gin.ntt.net</title>
<path fill="none" stroke="black" d="M527,-647.697C527,-636.846 527,-622.917 527,-612.104"/>
</g>
<!-- ae&#45;25.r00.londen10.uk.bb.gin.ntt.net&#45;&#45;deanturpin.github.io -->
<g id="edge21" class="edge"><title>ae&#45;25.r00.londen10.uk.bb.gin.ntt.net&#45;&#45;deanturpin.github.io</title>
<path fill="none" stroke="black" d="M279,-575.697C279,-564.846 279,-550.917 279,-540.104"/>
</g>
<!-- ae&#45;5.r24.nycmny01.us.bb.gin.ntt.net -->
<g id="node28" class="node"><title>ae&#45;5.r24.nycmny01.us.bb.gin.ntt.net</title>
<polygon fill="lightgrey" stroke="black" points="643.5,-540 410.5,-540 410.5,-504 643.5,-504 643.5,-540"/>
<text text-anchor="middle" x="527" y="-518.3" font-family="Helvetica,sans-Serif" font-size="14.00">ae&#45;5.r24.nycmny01.us.bb.gin.ntt.net</text>
</g>
<!-- ae&#45;3.r24.londen12.uk.bb.gin.ntt.net&#45;&#45;ae&#45;5.r24.nycmny01.us.bb.gin.ntt.net -->
<g id="edge23" class="edge"><title>ae&#45;3.r24.londen12.uk.bb.gin.ntt.net&#45;&#45;ae&#45;5.r24.nycmny01.us.bb.gin.ntt.net</title>
<path fill="none" stroke="black" d="M527,-575.697C527,-564.846 527,-550.917 527,-540.104"/>
</g>
<!-- ae&#45;1.r25.nycmny01.us.bb.gin.ntt.net -->
<g id="node29" class="node"><title>ae&#45;1.r25.nycmny01.us.bb.gin.ntt.net</title>
<polygon fill="lightgrey" stroke="black" points="643.5,-468 410.5,-468 410.5,-432 643.5,-432 643.5,-468"/>
<text text-anchor="middle" x="527" y="-446.3" font-family="Helvetica,sans-Serif" font-size="14.00">ae&#45;1.r25.nycmny01.us.bb.gin.ntt.net</text>
</g>
<!-- ae&#45;5.r24.nycmny01.us.bb.gin.ntt.net&#45;&#45;ae&#45;1.r25.nycmny01.us.bb.gin.ntt.net -->
<g id="edge24" class="edge"><title>ae&#45;5.r24.nycmny01.us.bb.gin.ntt.net&#45;&#45;ae&#45;1.r25.nycmny01.us.bb.gin.ntt.net</title>
<path fill="none" stroke="black" d="M527,-503.697C527,-492.846 527,-478.917 527,-468.104"/>
</g>
<!-- ae&#45;9.r22.asbnva02.us.bb.gin.ntt.net -->
<g id="node30" class="node"><title>ae&#45;9.r22.asbnva02.us.bb.gin.ntt.net</title>
<polygon fill="lightgrey" stroke="black" points="641.5,-396 412.5,-396 412.5,-360 641.5,-360 641.5,-396"/>
<text text-anchor="middle" x="527" y="-374.3" font-family="Helvetica,sans-Serif" font-size="14.00">ae&#45;9.r22.asbnva02.us.bb.gin.ntt.net</text>
</g>
<!-- ae&#45;1.r25.nycmny01.us.bb.gin.ntt.net&#45;&#45;ae&#45;9.r22.asbnva02.us.bb.gin.ntt.net -->
<g id="edge25" class="edge"><title>ae&#45;1.r25.nycmny01.us.bb.gin.ntt.net&#45;&#45;ae&#45;9.r22.asbnva02.us.bb.gin.ntt.net</title>
<path fill="none" stroke="black" d="M527,-431.697C527,-420.846 527,-406.917 527,-396.104"/>
</g>
<!-- ae&#45;1.r05.asbnva02.us.bb.gin.ntt.net -->
<g id="node31" class="node"><title>ae&#45;1.r05.asbnva02.us.bb.gin.ntt.net</title>
<polygon fill="lightgrey" stroke="black" points="641.5,-324 412.5,-324 412.5,-288 641.5,-288 641.5,-324"/>
<text text-anchor="middle" x="527" y="-302.3" font-family="Helvetica,sans-Serif" font-size="14.00">ae&#45;1.r05.asbnva02.us.bb.gin.ntt.net</text>
</g>
<!-- ae&#45;9.r22.asbnva02.us.bb.gin.ntt.net&#45;&#45;ae&#45;1.r05.asbnva02.us.bb.gin.ntt.net -->
<g id="edge26" class="edge"><title>ae&#45;9.r22.asbnva02.us.bb.gin.ntt.net&#45;&#45;ae&#45;1.r05.asbnva02.us.bb.gin.ntt.net</title>
<path fill="none" stroke="black" d="M527,-359.697C527,-348.846 527,-334.917 527,-324.104"/>
</g>
<!-- ae&#45;0.a03.asbnva02.us.bb.gin.ntt.net -->
<g id="node32" class="node"><title>ae&#45;0.a03.asbnva02.us.bb.gin.ntt.net</title>
<polygon fill="lightgrey" stroke="black" points="643,-252 411,-252 411,-216 643,-216 643,-252"/>
<text text-anchor="middle" x="527" y="-230.3" font-family="Helvetica,sans-Serif" font-size="14.00">ae&#45;0.a03.asbnva02.us.bb.gin.ntt.net</text>
</g>
<!-- ae&#45;1.r05.asbnva02.us.bb.gin.ntt.net&#45;&#45;ae&#45;0.a03.asbnva02.us.bb.gin.ntt.net -->
<g id="edge27" class="edge"><title>ae&#45;1.r05.asbnva02.us.bb.gin.ntt.net&#45;&#45;ae&#45;0.a03.asbnva02.us.bb.gin.ntt.net</title>
<path fill="none" stroke="black" d="M527,-287.697C527,-276.846 527,-262.917 527,-252.104"/>
</g>
<!-- xe&#45;0&#45;0&#45;25&#45;1.a01.asbnva02.us.ce.gin.ntt.net -->
<g id="node33" class="node"><title>xe&#45;0&#45;0&#45;25&#45;1.a01.asbnva02.us.ce.gin.ntt.net</title>
<polygon fill="lightgrey" stroke="black" points="664,-180 390,-180 390,-144 664,-144 664,-180"/>
<text text-anchor="middle" x="527" y="-158.3" font-family="Helvetica,sans-Serif" font-size="14.00">xe&#45;0&#45;0&#45;25&#45;1.a01.asbnva02.us.ce.gin.ntt.net</text>
</g>
<!-- ae&#45;0.a03.asbnva02.us.bb.gin.ntt.net&#45;&#45;xe&#45;0&#45;0&#45;25&#45;1.a01.asbnva02.us.ce.gin.ntt.net -->
<g id="edge28" class="edge"><title>ae&#45;0.a03.asbnva02.us.bb.gin.ntt.net&#45;&#45;xe&#45;0&#45;0&#45;25&#45;1.a01.asbnva02.us.ce.gin.ntt.net</title>
<path fill="none" stroke="black" d="M527,-215.697C527,-204.846 527,-190.917 527,-180.104"/>
</g>
<!-- lb&#45;192&#45;30&#45;253&#45;113&#45;iad.github.com -->
<g id="node34" class="node"><title>lb&#45;192&#45;30&#45;253&#45;113&#45;iad.github.com</title>
<polygon fill="lightgrey" stroke="black" points="637.5,-108 416.5,-108 416.5,-72 637.5,-72 637.5,-108"/>
<text text-anchor="middle" x="527" y="-86.3" font-family="Helvetica,sans-Serif" font-size="14.00">lb&#45;192&#45;30&#45;253&#45;113&#45;iad.github.com</text>
</g>
<!-- xe&#45;0&#45;0&#45;25&#45;1.a01.asbnva02.us.ce.gin.ntt.net&#45;&#45;lb&#45;192&#45;30&#45;253&#45;113&#45;iad.github.com -->
<g id="edge29" class="edge"><title>xe&#45;0&#45;0&#45;25&#45;1.a01.asbnva02.us.ce.gin.ntt.net&#45;&#45;lb&#45;192&#45;30&#45;253&#45;113&#45;iad.github.com</title>
<path fill="none" stroke="black" d="M527,-143.697C527,-132.846 527,-118.917 527,-108.104"/>
</g>
<!-- lb&#45;192&#45;30&#45;253&#45;113&#45;iad.github.com&#45;&#45;github.com -->
<g id="edge30" class="edge"><title>lb&#45;192&#45;30&#45;253&#45;113&#45;iad.github.com&#45;&#45;github.com</title>
<path fill="none" stroke="black" d="M527,-71.6966C527,-60.8463 527,-46.9167 527,-36.1043"/>
</g>
<!-- 195.66.225.215 -->
<g id="node36" class="node"><title>195.66.225.215</title>
<polygon fill="lightgrey" stroke="black" points="851,-684 741,-684 741,-648 851,-648 851,-684"/>
<text text-anchor="middle" x="796" y="-662.3" font-family="Helvetica,sans-Serif" font-size="14.00">195.66.225.215</text>
</g>
<!-- 87.237.20.33&#45;&#45;195.66.225.215 -->
<g id="edge32" class="edge"><title>87.237.20.33&#45;&#45;195.66.225.215</title>
<path fill="none" stroke="black" d="M843.427,-719.697C833.662,-708.846 821.125,-694.917 811.394,-684.104"/>
</g>
<!-- linx1.orbital.net -->
<g id="node41" class="node"><title>linx1.orbital.net</title>
<polygon fill="lightgrey" stroke="black" points="1071.5,-684 964.5,-684 964.5,-648 1071.5,-648 1071.5,-684"/>
<text text-anchor="middle" x="1018" y="-662.3" font-family="Helvetica,sans-Serif" font-size="14.00">linx1.orbital.net</text>
</g>
<!-- 87.237.20.33&#45;&#45;linx1.orbital.net -->
<g id="edge39" class="edge"><title>87.237.20.33&#45;&#45;linx1.orbital.net</title>
<path fill="none" stroke="black" d="M897.896,-719.876C922.627,-708.988 954.524,-694.945 979.231,-684.068"/>
</g>
<!-- linx.ae4&#45;irt1.lon37.uk.as13237.net -->
<g id="node45" class="node"><title>linx.ae4&#45;irt1.lon37.uk.as13237.net</title>
<polygon fill="lightgrey" stroke="black" points="1432.5,-684 1213.5,-684 1213.5,-648 1432.5,-648 1432.5,-684"/>
<text text-anchor="middle" x="1323" y="-662.3" font-family="Helvetica,sans-Serif" font-size="14.00">linx.ae4&#45;irt1.lon37.uk.as13237.net</text>
</g>
<!-- 87.237.20.33&#45;&#45;linx.ae4&#45;irt1.lon37.uk.as13237.net -->
<g id="edge44" class="edge"><title>87.237.20.33&#45;&#45;linx.ae4&#45;irt1.lon37.uk.as13237.net</title>
<path fill="none" stroke="black" d="M906.909,-729.772C978.688,-718.944 1116.08,-698.216 1213.32,-683.546"/>
</g>
<!-- 4d&#45;lgw&#45;bbr&#45;2&#45;0002&#45;6.4d&#45;dc.com -->
<g id="node37" class="node"><title>4d&#45;lgw&#45;bbr&#45;2&#45;0002&#45;6.4d&#45;dc.com</title>
<polygon fill="lightgrey" stroke="black" points="864,-612 658,-612 658,-576 864,-576 864,-612"/>
<text text-anchor="middle" x="761" y="-590.3" font-family="Helvetica,sans-Serif" font-size="14.00">4d&#45;lgw&#45;bbr&#45;2&#45;0002&#45;6.4d&#45;dc.com</text>
</g>
<!-- 195.66.225.215&#45;&#45;4d&#45;lgw&#45;bbr&#45;2&#45;0002&#45;6.4d&#45;dc.com -->
<g id="edge33" class="edge"><title>195.66.225.215&#45;&#45;4d&#45;lgw&#45;bbr&#45;2&#45;0002&#45;6.4d&#45;dc.com</title>
<path fill="none" stroke="black" d="M787.348,-647.697C781.923,-636.846 774.958,-622.917 769.552,-612.104"/>
</g>
<!-- 4d&#45;lgw&#45;men&#45;2&#45;024.4d&#45;dc.com -->
<g id="node38" class="node"><title>4d&#45;lgw&#45;men&#45;2&#45;024.4d&#45;dc.com</title>
<polygon fill="lightgrey" stroke="black" points="858,-540 664,-540 664,-504 858,-504 858,-540"/>
<text text-anchor="middle" x="761" y="-518.3" font-family="Helvetica,sans-Serif" font-size="14.00">4d&#45;lgw&#45;men&#45;2&#45;024.4d&#45;dc.com</text>
</g>
<!-- 4d&#45;lgw&#45;bbr&#45;2&#45;0002&#45;6.4d&#45;dc.com&#45;&#45;4d&#45;lgw&#45;men&#45;2&#45;024.4d&#45;dc.com -->
<g id="edge34" class="edge"><title>4d&#45;lgw&#45;bbr&#45;2&#45;0002&#45;6.4d&#45;dc.com&#45;&#45;4d&#45;lgw&#45;men&#45;2&#45;024.4d&#45;dc.com</title>
<path fill="none" stroke="black" d="M761,-575.697C761,-564.846 761,-550.917 761,-540.104"/>
</g>
<!-- 4d&#45;lgw&#45;men&#45;2&#45;024.4d&#45;dc.com&#45;&#45;silobrighton.com -->
<g id="edge35" class="edge"><title>4d&#45;lgw&#45;men&#45;2&#45;024.4d&#45;dc.com&#45;&#45;silobrighton.com</title>
<path fill="none" stroke="black" d="M761,-503.697C761,-492.846 761,-478.917 761,-468.104"/>
</g>
<!-- 104.25.211.99 -->
<g id="node40" class="node"><title>104.25.211.99</title>
<polygon fill="lightgrey" stroke="black" points="1624.5,-684 1521.5,-684 1521.5,-648 1624.5,-648 1624.5,-684"/>
<text text-anchor="middle" x="1573" y="-662.3" font-family="Helvetica,sans-Serif" font-size="14.00">104.25.211.99</text>
</g>
<!-- linx&#45;lon1.as13335.net&#45;&#45;104.25.211.99 -->
<g id="edge37" class="edge"><title>linx&#45;lon1.as13335.net&#45;&#45;104.25.211.99</title>
<path fill="none" stroke="black" d="M1243.8,-724.324C1324.01,-710.357 1450.96,-688.25 1521.48,-675.971"/>
</g>
<!-- 104.25.211.99&#45;&#45;monzo.com -->
<g id="edge38" class="edge"><title>104.25.211.99&#45;&#45;monzo.com</title>
<path fill="none" stroke="black" d="M1581.9,-647.697C1587.48,-636.846 1594.64,-622.917 1600.2,-612.104"/>
</g>
<!-- xe2&#45;2&#45;ve&#45;83.thn&#45;pe&#45;2.thn.thebunker.net.202.88.80.in&#45;addr.arpa -->
<g id="node42" class="node"><title>xe2&#45;2&#45;ve&#45;83.thn&#45;pe&#45;2.thn.thebunker.net.202.88.80.in&#45;addr.arpa</title>
<polygon fill="lightgrey" stroke="black" points="1274,-612 882,-612 882,-576 1274,-576 1274,-612"/>
<text text-anchor="middle" x="1078" y="-590.3" font-family="Helvetica,sans-Serif" font-size="14.00">xe2&#45;2&#45;ve&#45;83.thn&#45;pe&#45;2.thn.thebunker.net.202.88.80.in&#45;addr.arpa</text>
</g>
<!-- linx1.orbital.net&#45;&#45;xe2&#45;2&#45;ve&#45;83.thn&#45;pe&#45;2.thn.thebunker.net.202.88.80.in&#45;addr.arpa -->
<g id="edge40" class="edge"><title>linx1.orbital.net&#45;&#45;xe2&#45;2&#45;ve&#45;83.thn&#45;pe&#45;2.thn.thebunker.net.202.88.80.in&#45;addr.arpa</title>
<path fill="none" stroke="black" d="M1032.83,-647.697C1042.13,-636.846 1054.07,-622.917 1063.34,-612.104"/>
</g>
<!-- 213.129.70.253 -->
<g id="node43" class="node"><title>213.129.70.253</title>
<polygon fill="lightgrey" stroke="black" points="1133,-540 1023,-540 1023,-504 1133,-504 1133,-540"/>
<text text-anchor="middle" x="1078" y="-518.3" font-family="Helvetica,sans-Serif" font-size="14.00">213.129.70.253</text>
</g>
<!-- xe2&#45;2&#45;ve&#45;83.thn&#45;pe&#45;2.thn.thebunker.net.202.88.80.in&#45;addr.arpa&#45;&#45;213.129.70.253 -->
<g id="edge41" class="edge"><title>xe2&#45;2&#45;ve&#45;83.thn&#45;pe&#45;2.thn.thebunker.net.202.88.80.in&#45;addr.arpa&#45;&#45;213.129.70.253</title>
<path fill="none" stroke="black" d="M1078,-575.697C1078,-564.846 1078,-550.917 1078,-540.104"/>
</g>
<!-- 213.129.70.237 -->
<g id="node44" class="node"><title>213.129.70.237</title>
<polygon fill="lightgrey" stroke="black" points="1133,-468 1023,-468 1023,-432 1133,-432 1133,-468"/>
<text text-anchor="middle" x="1078" y="-446.3" font-family="Helvetica,sans-Serif" font-size="14.00">213.129.70.237</text>
</g>
<!-- 213.129.70.253&#45;&#45;213.129.70.237 -->
<g id="edge42" class="edge"><title>213.129.70.253&#45;&#45;213.129.70.237</title>
<path fill="none" stroke="black" d="M1078,-503.697C1078,-492.846 1078,-478.917 1078,-468.104"/>
</g>
<!-- 213.129.70.237&#45;&#45;infinityfoods.coop -->
<g id="edge43" class="edge"><title>213.129.70.237&#45;&#45;infinityfoods.coop</title>
<path fill="none" stroke="black" d="M1078,-431.697C1078,-420.846 1078,-406.917 1078,-396.104"/>
</g>
<!-- 84.207.244.126.not&#45;updated.eunx.net -->
<g id="node46" class="node"><title>84.207.244.126.not&#45;updated.eunx.net</title>
<polygon fill="lightgrey" stroke="black" points="1534,-612 1292,-612 1292,-576 1534,-576 1534,-612"/>
<text text-anchor="middle" x="1413" y="-590.3" font-family="Helvetica,sans-Serif" font-size="14.00">84.207.244.126.not&#45;updated.eunx.net</text>
</g>
<!-- linx.ae4&#45;irt1.lon37.uk.as13237.net&#45;&#45;84.207.244.126.not&#45;updated.eunx.net -->
<g id="edge45" class="edge"><title>linx.ae4&#45;irt1.lon37.uk.as13237.net&#45;&#45;84.207.244.126.not&#45;updated.eunx.net</title>
<path fill="none" stroke="black" d="M1345.25,-647.697C1359.2,-636.846 1377.11,-622.917 1391.01,-612.104"/>
</g>
<!-- 84.207.244.126.not&#45;updated.eunx.net&#45;&#45;morningstar.co.uk -->
<g id="edge46" class="edge"><title>84.207.244.126.not&#45;updated.eunx.net&#45;&#45;morningstar.co.uk</title>
<path fill="none" stroke="black" d="M1413,-575.697C1413,-564.846 1413,-550.917 1413,-540.104"/>
</g>
</g>
</svg>
