<?xml version="1.0" encoding="UTF-8" standalone="no"?>
<!DOCTYPE svg PUBLIC "-//W3C//DTD SVG 1.1//EN"
 "http://www.w3.org/Graphics/SVG/1.1/DTD/svg11.dtd">
<!-- Generated by graphviz version 2.38.0 (20140413.2041)
 -->
<!-- Title: %3 Pages: 1 -->
<svg width="1855pt" height="1412pt"
 viewBox="0.00 0.00 1855.39 1412.00" xmlns="http://www.w3.org/2000/svg" xmlns:xlink="http://www.w3.org/1999/xlink">
<g id="graph0" class="graph" transform="scale(1 1) rotate(0) translate(4 1408)">
<title>%3</title>
<polygon fill="white" stroke="none" points="-4,4 -4,-1408 1851.39,-1408 1851.39,4 -4,4"/>
<!-- soy_yo -->
<g id="node1" class="node"><title>soy_yo</title>
<polygon fill="orange" stroke="black" points="1430,-1404 1340,-1404 1340,-1368 1430,-1368 1430,-1404"/>
<text text-anchor="middle" x="1385" y="-1382.3" font-family="Helvetica,sans-Serif" font-size="14.00" fill="white">dev (soy yo)</text>
</g>
<!-- gateway -->
<g id="node13" class="node"><title>gateway</title>
<polygon fill="lightgrey" stroke="black" points="1418.5,-1332 1351.5,-1332 1351.5,-1296 1418.5,-1296 1418.5,-1332"/>
<text text-anchor="middle" x="1385" y="-1310.3" font-family="Helvetica,sans-Serif" font-size="14.00">gateway</text>
</g>
<!-- soy_yo&#45;&#45;gateway -->
<g id="edge1" class="edge"><title>soy_yo&#45;&#45;gateway</title>
<path fill="none" stroke="black" d="M1385,-1367.7C1385,-1356.85 1385,-1342.92 1385,-1332.1"/>
</g>
<!-- google.co.uk -->
<g id="node2" class="node"><title>google.co.uk</title>
<ellipse fill="green" stroke="black" cx="85" cy="-378" rx="60.3893" ry="18"/>
<text text-anchor="middle" x="85" y="-374.3" font-family="Helvetica,sans-Serif" font-size="14.00" fill="white">google.co.uk</text>
</g>
<!-- youtube.com -->
<g id="node3" class="node"><title>youtube.com</title>
<ellipse fill="green" stroke="black" cx="273" cy="-378" rx="61.99" ry="18"/>
<text text-anchor="middle" x="273" y="-374.3" font-family="Helvetica,sans-Serif" font-size="14.00" fill="white">youtube.com</text>
</g>
<!-- deanturpin.github.io -->
<g id="node4" class="node"><title>deanturpin.github.io</title>
<ellipse fill="green" stroke="black" cx="612" cy="-522" rx="87.9851" ry="18"/>
<text text-anchor="middle" x="612" y="-518.3" font-family="Helvetica,sans-Serif" font-size="14.00" fill="white">deanturpin.github.io</text>
</g>
<!-- github.com -->
<g id="node5" class="node"><title>github.com</title>
<ellipse fill="green" stroke="black" cx="860" cy="-18" rx="53.8905" ry="18"/>
<text text-anchor="middle" x="860" y="-14.3" font-family="Helvetica,sans-Serif" font-size="14.00" fill="white">github.com</text>
</g>
<!-- thebunker.net -->
<g id="node6" class="node"><title>thebunker.net</title>
<ellipse fill="green" stroke="black" cx="1148" cy="-90" rx="64.189" ry="18"/>
<text text-anchor="middle" x="1148" y="-86.3" font-family="Helvetica,sans-Serif" font-size="14.00" fill="white">thebunker.net</text>
</g>
<!-- infinityfoods.coop -->
<g id="node7" class="node"><title>infinityfoods.coop</title>
<ellipse fill="green" stroke="black" cx="1372" cy="-378" rx="78.7863" ry="18"/>
<text text-anchor="middle" x="1372" y="-374.3" font-family="Helvetica,sans-Serif" font-size="14.00" fill="white">infinityfoods.coop</text>
</g>
<!-- morningstar.co.uk -->
<g id="node8" class="node"><title>morningstar.co.uk</title>
<ellipse fill="red" stroke="black" cx="1522" cy="-522" rx="81.4863" ry="18"/>
<text text-anchor="middle" x="1522" y="-518.3" font-family="Helvetica,sans-Serif" font-size="14.00" fill="white">morningstar.co.uk</text>
</g>
<!-- sky.com -->
<g id="node9" class="node"><title>sky.com</title>
<ellipse fill="red" stroke="black" cx="1502" cy="-666" rx="43.5923" ry="18"/>
<text text-anchor="middle" x="1502" y="-662.3" font-family="Helvetica,sans-Serif" font-size="14.00" fill="white">sky.com</text>
</g>
<!-- la&#45;cave.co.uk -->
<g id="node10" class="node"><title>la&#45;cave.co.uk</title>
<ellipse fill="red" stroke="black" cx="1626" cy="-666" rx="62.2891" ry="18"/>
<text text-anchor="middle" x="1626" y="-662.3" font-family="Helvetica,sans-Serif" font-size="14.00" fill="white">la&#45;cave.co.uk</text>
</g>
<!-- 64degrees.co.uk -->
<g id="node11" class="node"><title>64degrees.co.uk</title>
<ellipse fill="green" stroke="black" cx="1772" cy="-594" rx="75.2868" ry="18"/>
<text text-anchor="middle" x="1772" y="-590.3" font-family="Helvetica,sans-Serif" font-size="14.00" fill="white">64degrees.co.uk</text>
</g>
<!-- chillifrog.co -->
<g id="node12" class="node"><title>chillifrog.co</title>
<ellipse fill="green" stroke="black" cx="428" cy="-90" rx="54.6905" ry="18"/>
<text text-anchor="middle" x="428" y="-86.3" font-family="Helvetica,sans-Serif" font-size="14.00" fill="white">chillifrog.co</text>
</g>
<!-- 10.248.28.145 -->
<g id="node14" class="node"><title>10.248.28.145</title>
<polygon fill="lightgrey" stroke="black" points="1376.5,-1260 1273.5,-1260 1273.5,-1224 1376.5,-1224 1376.5,-1260"/>
<text text-anchor="middle" x="1325" y="-1238.3" font-family="Helvetica,sans-Serif" font-size="14.00">10.248.28.145</text>
</g>
<!-- gateway&#45;&#45;10.248.28.145 -->
<g id="edge2" class="edge"><title>gateway&#45;&#45;10.248.28.145</title>
<path fill="none" stroke="black" d="M1370.17,-1295.7C1360.87,-1284.85 1348.93,-1270.92 1339.66,-1260.1"/>
</g>
<!-- 10.248.28.153 -->
<g id="node26" class="node"><title>10.248.28.153</title>
<polygon fill="lightgrey" stroke="black" points="1497.5,-1260 1394.5,-1260 1394.5,-1224 1497.5,-1224 1497.5,-1260"/>
<text text-anchor="middle" x="1446" y="-1238.3" font-family="Helvetica,sans-Serif" font-size="14.00">10.248.28.153</text>
</g>
<!-- gateway&#45;&#45;10.248.28.153 -->
<g id="edge15" class="edge"><title>gateway&#45;&#45;10.248.28.153</title>
<path fill="none" stroke="black" d="M1400.08,-1295.7C1409.53,-1284.85 1421.67,-1270.92 1431.09,-1260.1"/>
</g>
<!-- 10.247.84.25 -->
<g id="node15" class="node"><title>10.247.84.25</title>
<polygon fill="lightgrey" stroke="black" points="1374.5,-1188 1279.5,-1188 1279.5,-1152 1374.5,-1152 1374.5,-1188"/>
<text text-anchor="middle" x="1327" y="-1166.3" font-family="Helvetica,sans-Serif" font-size="14.00">10.247.84.25</text>
</g>
<!-- 10.248.28.145&#45;&#45;10.247.84.25 -->
<g id="edge3" class="edge"><title>10.248.28.145&#45;&#45;10.247.84.25</title>
<path fill="none" stroke="black" d="M1325.49,-1223.7C1325.8,-1212.85 1326.2,-1198.92 1326.51,-1188.1"/>
</g>
<!-- 10.247.84.6 -->
<g id="node16" class="node"><title>10.247.84.6</title>
<polygon fill="lightgrey" stroke="black" points="1429,-1116 1341,-1116 1341,-1080 1429,-1080 1429,-1116"/>
<text text-anchor="middle" x="1385" y="-1094.3" font-family="Helvetica,sans-Serif" font-size="14.00">10.247.84.6</text>
</g>
<!-- 10.247.84.25&#45;&#45;10.247.84.6 -->
<g id="edge4" class="edge"><title>10.247.84.25&#45;&#45;10.247.84.6</title>
<path fill="none" stroke="black" d="M1341.34,-1151.7C1350.33,-1140.85 1361.87,-1126.92 1370.83,-1116.1"/>
</g>
<!-- 10.247.84.9 -->
<g id="node17" class="node"><title>10.247.84.9</title>
<polygon fill="lightgrey" stroke="black" points="1429,-1044 1341,-1044 1341,-1008 1429,-1008 1429,-1044"/>
<text text-anchor="middle" x="1385" y="-1022.3" font-family="Helvetica,sans-Serif" font-size="14.00">10.247.84.9</text>
</g>
<!-- 10.247.84.6&#45;&#45;10.247.84.9 -->
<g id="edge5" class="edge"><title>10.247.84.6&#45;&#45;10.247.84.9</title>
<path fill="none" stroke="black" d="M1385,-1079.7C1385,-1068.85 1385,-1054.92 1385,-1044.1"/>
</g>
<!-- 10.247.84.18 -->
<g id="node18" class="node"><title>10.247.84.18</title>
<polygon fill="lightgrey" stroke="black" points="1432.5,-972 1337.5,-972 1337.5,-936 1432.5,-936 1432.5,-972"/>
<text text-anchor="middle" x="1385" y="-950.3" font-family="Helvetica,sans-Serif" font-size="14.00">10.247.84.18</text>
</g>
<!-- 10.247.84.9&#45;&#45;10.247.84.18 -->
<g id="edge6" class="edge"><title>10.247.84.9&#45;&#45;10.247.84.18</title>
<path fill="none" stroke="black" d="M1385,-1007.7C1385,-996.846 1385,-982.917 1385,-972.104"/>
</g>
<!-- 87.237.20.224 -->
<g id="node19" class="node"><title>87.237.20.224</title>
<polygon fill="lightgrey" stroke="black" points="1436.5,-900 1333.5,-900 1333.5,-864 1436.5,-864 1436.5,-900"/>
<text text-anchor="middle" x="1385" y="-878.3" font-family="Helvetica,sans-Serif" font-size="14.00">87.237.20.224</text>
</g>
<!-- 10.247.84.18&#45;&#45;87.237.20.224 -->
<g id="edge7" class="edge"><title>10.247.84.18&#45;&#45;87.237.20.224</title>
<path fill="none" stroke="black" d="M1385,-935.697C1385,-924.846 1385,-910.917 1385,-900.104"/>
</g>
<!-- 87.237.20.73 -->
<g id="node20" class="node"><title>87.237.20.73</title>
<polygon fill="lightgrey" stroke="black" points="1432.5,-828 1337.5,-828 1337.5,-792 1432.5,-792 1432.5,-828"/>
<text text-anchor="middle" x="1385" y="-806.3" font-family="Helvetica,sans-Serif" font-size="14.00">87.237.20.73</text>
</g>
<!-- 87.237.20.224&#45;&#45;87.237.20.73 -->
<g id="edge8" class="edge"><title>87.237.20.224&#45;&#45;87.237.20.73</title>
<path fill="none" stroke="black" d="M1385,-863.697C1385,-852.846 1385,-838.917 1385,-828.104"/>
</g>
<!-- 87.237.20.36 -->
<g id="node21" class="node"><title>87.237.20.36</title>
<polygon fill="lightgrey" stroke="black" points="664.5,-756 569.5,-756 569.5,-720 664.5,-720 664.5,-756"/>
<text text-anchor="middle" x="617" y="-734.3" font-family="Helvetica,sans-Serif" font-size="14.00">87.237.20.36</text>
</g>
<!-- 87.237.20.73&#45;&#45;87.237.20.36 -->
<g id="edge9" class="edge"><title>87.237.20.73&#45;&#45;87.237.20.36</title>
<path fill="none" stroke="black" d="M1337.25,-804.648C1199.45,-792.088 802.176,-755.878 664.584,-743.337"/>
</g>
<!-- 80.150.169.13 -->
<g id="node30" class="node"><title>80.150.169.13</title>
<polygon fill="lightgrey" stroke="black" points="1099.5,-756 996.5,-756 996.5,-720 1099.5,-720 1099.5,-756"/>
<text text-anchor="middle" x="1048" y="-734.3" font-family="Helvetica,sans-Serif" font-size="14.00">80.150.169.13</text>
</g>
<!-- 87.237.20.73&#45;&#45;80.150.169.13 -->
<g id="edge21" class="edge"><title>87.237.20.73&#45;&#45;80.150.169.13</title>
<path fill="none" stroke="black" d="M1337.43,-799.119C1274.65,-786.08 1164.55,-763.209 1099.75,-749.749"/>
</g>
<!-- 87.237.20.33 -->
<g id="node41" class="node"><title>87.237.20.33</title>
<polygon fill="lightgrey" stroke="black" points="1364.5,-756 1269.5,-756 1269.5,-720 1364.5,-720 1364.5,-756"/>
<text text-anchor="middle" x="1317" y="-734.3" font-family="Helvetica,sans-Serif" font-size="14.00">87.237.20.33</text>
</g>
<!-- 87.237.20.73&#45;&#45;87.237.20.33 -->
<g id="edge34" class="edge"><title>87.237.20.73&#45;&#45;87.237.20.33</title>
<path fill="none" stroke="black" d="M1368.19,-791.697C1357.65,-780.846 1344.12,-766.917 1333.62,-756.104"/>
</g>
<!-- 027ff198.bb.sky.com -->
<g id="node54" class="node"><title>027ff198.bb.sky.com</title>
<polygon fill="lightgrey" stroke="black" points="1525,-756 1383,-756 1383,-720 1525,-720 1525,-756"/>
<text text-anchor="middle" x="1454" y="-734.3" font-family="Helvetica,sans-Serif" font-size="14.00">027ff198.bb.sky.com</text>
</g>
<!-- 87.237.20.73&#45;&#45;027ff198.bb.sky.com -->
<g id="edge50" class="edge"><title>87.237.20.73&#45;&#45;027ff198.bb.sky.com</title>
<path fill="none" stroke="black" d="M1402.06,-791.697C1412.75,-780.846 1426.48,-766.917 1437.14,-756.104"/>
</g>
<!-- the&#45;linx.as29550.net -->
<g id="node55" class="node"><title>the&#45;linx.as29550.net</title>
<polygon fill="lightgrey" stroke="black" points="1681,-756 1543,-756 1543,-720 1681,-720 1681,-756"/>
<text text-anchor="middle" x="1612" y="-734.3" font-family="Helvetica,sans-Serif" font-size="14.00">the&#45;linx.as29550.net</text>
</g>
<!-- 87.237.20.73&#45;&#45;the&#45;linx.as29550.net -->
<g id="edge52" class="edge"><title>87.237.20.73&#45;&#45;the&#45;linx.as29550.net</title>
<path fill="none" stroke="black" d="M1432.59,-794.326C1468.73,-783.181 1518.52,-767.828 1556.48,-756.122"/>
</g>
<!-- linx&#45;lon1.as13335.net -->
<g id="node56" class="node"><title>linx&#45;lon1.as13335.net</title>
<polygon fill="lightgrey" stroke="black" points="1844.5,-756 1699.5,-756 1699.5,-720 1844.5,-720 1844.5,-756"/>
<text text-anchor="middle" x="1772" y="-734.3" font-family="Helvetica,sans-Serif" font-size="14.00">linx&#45;lon1.as13335.net</text>
</g>
<!-- 87.237.20.73&#45;&#45;linx&#45;lon1.as13335.net -->
<g id="edge54" class="edge"><title>87.237.20.73&#45;&#45;linx&#45;lon1.as13335.net</title>
<path fill="none" stroke="black" d="M1432.63,-801.213C1492.73,-791.277 1599.19,-773.298 1690,-756 1693,-755.429 1696.06,-754.837 1699.15,-754.231"/>
</g>
<!-- 74.125.52.218 -->
<g id="node22" class="node"><title>74.125.52.218</title>
<polygon fill="lightgrey" stroke="black" points="469.5,-684 366.5,-684 366.5,-648 469.5,-648 469.5,-684"/>
<text text-anchor="middle" x="418" y="-662.3" font-family="Helvetica,sans-Serif" font-size="14.00">74.125.52.218</text>
</g>
<!-- 87.237.20.36&#45;&#45;74.125.52.218 -->
<g id="edge10" class="edge"><title>87.237.20.36&#45;&#45;74.125.52.218</title>
<path fill="none" stroke="black" d="M569.335,-720.233C538.289,-709.313 497.902,-695.106 466.659,-684.116"/>
</g>
<!-- 108.170.246.225 -->
<g id="node23" class="node"><title>108.170.246.225</title>
<polygon fill="lightgrey" stroke="black" points="332,-612 214,-612 214,-576 332,-576 332,-612"/>
<text text-anchor="middle" x="273" y="-590.3" font-family="Helvetica,sans-Serif" font-size="14.00">108.170.246.225</text>
</g>
<!-- 74.125.52.218&#45;&#45;108.170.246.225 -->
<g id="edge11" class="edge"><title>74.125.52.218&#45;&#45;108.170.246.225</title>
<path fill="none" stroke="black" d="M382.529,-647.876C359.976,-636.988 330.887,-622.945 308.356,-612.068"/>
</g>
<!-- 108.170.246.143 -->
<g id="node58" class="node"><title>108.170.246.143</title>
<polygon fill="lightgrey" stroke="black" points="477,-612 359,-612 359,-576 477,-576 477,-612"/>
<text text-anchor="middle" x="418" y="-590.3" font-family="Helvetica,sans-Serif" font-size="14.00">108.170.246.143</text>
</g>
<!-- 74.125.52.218&#45;&#45;108.170.246.143 -->
<g id="edge57" class="edge"><title>74.125.52.218&#45;&#45;108.170.246.143</title>
<path fill="none" stroke="black" d="M418,-647.697C418,-636.846 418,-622.917 418,-612.104"/>
</g>
<!-- 108.170.238.151 -->
<g id="node24" class="node"><title>108.170.238.151</title>
<polygon fill="lightgrey" stroke="black" points="170,-540 52,-540 52,-504 170,-504 170,-540"/>
<text text-anchor="middle" x="111" y="-518.3" font-family="Helvetica,sans-Serif" font-size="14.00">108.170.238.151</text>
</g>
<!-- 108.170.246.225&#45;&#45;108.170.238.151 -->
<g id="edge12" class="edge"><title>108.170.246.225&#45;&#45;108.170.238.151</title>
<path fill="none" stroke="black" d="M233.37,-575.876C208.173,-564.988 175.674,-550.945 150.501,-540.068"/>
</g>
<!-- 108.170.238.149 -->
<g id="node28" class="node"><title>108.170.238.149</title>
<polygon fill="lightgrey" stroke="black" points="332,-540 214,-540 214,-504 332,-504 332,-540"/>
<text text-anchor="middle" x="273" y="-518.3" font-family="Helvetica,sans-Serif" font-size="14.00">108.170.238.149</text>
</g>
<!-- 108.170.246.225&#45;&#45;108.170.238.149 -->
<g id="edge18" class="edge"><title>108.170.246.225&#45;&#45;108.170.238.149</title>
<path fill="none" stroke="black" d="M273,-575.697C273,-564.846 273,-550.917 273,-540.104"/>
</g>
<!-- lhr35s06&#45;in&#45;f99.1e100.net -->
<g id="node25" class="node"><title>lhr35s06&#45;in&#45;f99.1e100.net</title>
<polygon fill="lightgrey" stroke="black" points="170,-468 0,-468 0,-432 170,-432 170,-468"/>
<text text-anchor="middle" x="85" y="-446.3" font-family="Helvetica,sans-Serif" font-size="14.00">lhr35s06&#45;in&#45;f99.1e100.net</text>
</g>
<!-- 108.170.238.151&#45;&#45;lhr35s06&#45;in&#45;f99.1e100.net -->
<g id="edge13" class="edge"><title>108.170.238.151&#45;&#45;lhr35s06&#45;in&#45;f99.1e100.net</title>
<path fill="none" stroke="black" d="M104.573,-503.697C100.543,-492.846 95.3691,-478.917 91.353,-468.104"/>
</g>
<!-- lhr35s06&#45;in&#45;f99.1e100.net&#45;&#45;google.co.uk -->
<g id="edge14" class="edge"><title>lhr35s06&#45;in&#45;f99.1e100.net&#45;&#45;google.co.uk</title>
<path fill="none" stroke="black" d="M85,-431.697C85,-420.846 85,-406.917 85,-396.104"/>
</g>
<!-- 10.247.84.27 -->
<g id="node27" class="node"><title>10.247.84.27</title>
<polygon fill="lightgrey" stroke="black" points="1491.5,-1188 1396.5,-1188 1396.5,-1152 1491.5,-1152 1491.5,-1188"/>
<text text-anchor="middle" x="1444" y="-1166.3" font-family="Helvetica,sans-Serif" font-size="14.00">10.247.84.27</text>
</g>
<!-- 10.248.28.153&#45;&#45;10.247.84.27 -->
<g id="edge16" class="edge"><title>10.248.28.153&#45;&#45;10.247.84.27</title>
<path fill="none" stroke="black" d="M1445.51,-1223.7C1445.2,-1212.85 1444.8,-1198.92 1444.49,-1188.1"/>
</g>
<!-- 10.247.84.27&#45;&#45;10.247.84.6 -->
<g id="edge17" class="edge"><title>10.247.84.27&#45;&#45;10.247.84.6</title>
<path fill="none" stroke="black" d="M1429.42,-1151.7C1420.27,-1140.85 1408.53,-1126.92 1399.42,-1116.1"/>
</g>
<!-- lhr35s06&#45;in&#45;f14.1e100.net -->
<g id="node29" class="node"><title>lhr35s06&#45;in&#45;f14.1e100.net</title>
<polygon fill="lightgrey" stroke="black" points="358,-468 188,-468 188,-432 358,-432 358,-468"/>
<text text-anchor="middle" x="273" y="-446.3" font-family="Helvetica,sans-Serif" font-size="14.00">lhr35s06&#45;in&#45;f14.1e100.net</text>
</g>
<!-- 108.170.238.149&#45;&#45;lhr35s06&#45;in&#45;f14.1e100.net -->
<g id="edge19" class="edge"><title>108.170.238.149&#45;&#45;lhr35s06&#45;in&#45;f14.1e100.net</title>
<path fill="none" stroke="black" d="M273,-503.697C273,-492.846 273,-478.917 273,-468.104"/>
</g>
<!-- lhr35s06&#45;in&#45;f14.1e100.net&#45;&#45;youtube.com -->
<g id="edge20" class="edge"><title>lhr35s06&#45;in&#45;f14.1e100.net&#45;&#45;youtube.com</title>
<path fill="none" stroke="black" d="M273,-431.697C273,-420.846 273,-406.917 273,-396.104"/>
</g>
<!-- 80.150.170.106 -->
<g id="node31" class="node"><title>80.150.170.106</title>
<polygon fill="lightgrey" stroke="black" points="915,-684 805,-684 805,-648 915,-648 915,-684"/>
<text text-anchor="middle" x="860" y="-662.3" font-family="Helvetica,sans-Serif" font-size="14.00">80.150.170.106</text>
</g>
<!-- 80.150.169.13&#45;&#45;80.150.170.106 -->
<g id="edge22" class="edge"><title>80.150.169.13&#45;&#45;80.150.170.106</title>
<path fill="none" stroke="black" d="M1002.01,-719.876C972.768,-708.988 935.053,-694.945 905.841,-684.068"/>
</g>
<!-- ae&#45;11.r04.londen12.uk.bb.gin.ntt.net -->
<g id="node32" class="node"><title>ae&#45;11.r04.londen12.uk.bb.gin.ntt.net</title>
<polygon fill="lightgrey" stroke="black" points="728.5,-612 495.5,-612 495.5,-576 728.5,-576 728.5,-612"/>
<text text-anchor="middle" x="612" y="-590.3" font-family="Helvetica,sans-Serif" font-size="14.00">ae&#45;11.r04.londen12.uk.bb.gin.ntt.net</text>
</g>
<!-- 80.150.170.106&#45;&#45;ae&#45;11.r04.londen12.uk.bb.gin.ntt.net -->
<g id="edge23" class="edge"><title>80.150.170.106&#45;&#45;ae&#45;11.r04.londen12.uk.bb.gin.ntt.net</title>
<path fill="none" stroke="black" d="M804.961,-649.465C765.718,-638.388 712.964,-623.498 672.534,-612.086"/>
</g>
<!-- ae&#45;3.r24.londen12.uk.bb.gin.ntt.net -->
<g id="node33" class="node"><title>ae&#45;3.r24.londen12.uk.bb.gin.ntt.net</title>
<polygon fill="lightgrey" stroke="black" points="973,-612 747,-612 747,-576 973,-576 973,-612"/>
<text text-anchor="middle" x="860" y="-590.3" font-family="Helvetica,sans-Serif" font-size="14.00">ae&#45;3.r24.londen12.uk.bb.gin.ntt.net</text>
</g>
<!-- 80.150.170.106&#45;&#45;ae&#45;3.r24.londen12.uk.bb.gin.ntt.net -->
<g id="edge25" class="edge"><title>80.150.170.106&#45;&#45;ae&#45;3.r24.londen12.uk.bb.gin.ntt.net</title>
<path fill="none" stroke="black" d="M860,-647.697C860,-636.846 860,-622.917 860,-612.104"/>
</g>
<!-- ae&#45;11.r04.londen12.uk.bb.gin.ntt.net&#45;&#45;deanturpin.github.io -->
<g id="edge24" class="edge"><title>ae&#45;11.r04.londen12.uk.bb.gin.ntt.net&#45;&#45;deanturpin.github.io</title>
<path fill="none" stroke="black" d="M612,-575.697C612,-564.846 612,-550.917 612,-540.104"/>
</g>
<!-- ae&#45;5.r24.nycmny01.us.bb.gin.ntt.net -->
<g id="node34" class="node"><title>ae&#45;5.r24.nycmny01.us.bb.gin.ntt.net</title>
<polygon fill="lightgrey" stroke="black" points="976.5,-540 743.5,-540 743.5,-504 976.5,-504 976.5,-540"/>
<text text-anchor="middle" x="860" y="-518.3" font-family="Helvetica,sans-Serif" font-size="14.00">ae&#45;5.r24.nycmny01.us.bb.gin.ntt.net</text>
</g>
<!-- ae&#45;3.r24.londen12.uk.bb.gin.ntt.net&#45;&#45;ae&#45;5.r24.nycmny01.us.bb.gin.ntt.net -->
<g id="edge26" class="edge"><title>ae&#45;3.r24.londen12.uk.bb.gin.ntt.net&#45;&#45;ae&#45;5.r24.nycmny01.us.bb.gin.ntt.net</title>
<path fill="none" stroke="black" d="M860,-575.697C860,-564.846 860,-550.917 860,-540.104"/>
</g>
<!-- ae&#45;1.r25.nycmny01.us.bb.gin.ntt.net -->
<g id="node35" class="node"><title>ae&#45;1.r25.nycmny01.us.bb.gin.ntt.net</title>
<polygon fill="lightgrey" stroke="black" points="976.5,-468 743.5,-468 743.5,-432 976.5,-432 976.5,-468"/>
<text text-anchor="middle" x="860" y="-446.3" font-family="Helvetica,sans-Serif" font-size="14.00">ae&#45;1.r25.nycmny01.us.bb.gin.ntt.net</text>
</g>
<!-- ae&#45;5.r24.nycmny01.us.bb.gin.ntt.net&#45;&#45;ae&#45;1.r25.nycmny01.us.bb.gin.ntt.net -->
<g id="edge27" class="edge"><title>ae&#45;5.r24.nycmny01.us.bb.gin.ntt.net&#45;&#45;ae&#45;1.r25.nycmny01.us.bb.gin.ntt.net</title>
<path fill="none" stroke="black" d="M860,-503.697C860,-492.846 860,-478.917 860,-468.104"/>
</g>
<!-- ae&#45;9.r22.asbnva02.us.bb.gin.ntt.net -->
<g id="node36" class="node"><title>ae&#45;9.r22.asbnva02.us.bb.gin.ntt.net</title>
<polygon fill="lightgrey" stroke="black" points="974.5,-396 745.5,-396 745.5,-360 974.5,-360 974.5,-396"/>
<text text-anchor="middle" x="860" y="-374.3" font-family="Helvetica,sans-Serif" font-size="14.00">ae&#45;9.r22.asbnva02.us.bb.gin.ntt.net</text>
</g>
<!-- ae&#45;1.r25.nycmny01.us.bb.gin.ntt.net&#45;&#45;ae&#45;9.r22.asbnva02.us.bb.gin.ntt.net -->
<g id="edge28" class="edge"><title>ae&#45;1.r25.nycmny01.us.bb.gin.ntt.net&#45;&#45;ae&#45;9.r22.asbnva02.us.bb.gin.ntt.net</title>
<path fill="none" stroke="black" d="M860,-431.697C860,-420.846 860,-406.917 860,-396.104"/>
</g>
<!-- ae&#45;7.r06.asbnva02.us.bb.gin.ntt.net -->
<g id="node37" class="node"><title>ae&#45;7.r06.asbnva02.us.bb.gin.ntt.net</title>
<polygon fill="lightgrey" stroke="black" points="974.5,-324 745.5,-324 745.5,-288 974.5,-288 974.5,-324"/>
<text text-anchor="middle" x="860" y="-302.3" font-family="Helvetica,sans-Serif" font-size="14.00">ae&#45;7.r06.asbnva02.us.bb.gin.ntt.net</text>
</g>
<!-- ae&#45;9.r22.asbnva02.us.bb.gin.ntt.net&#45;&#45;ae&#45;7.r06.asbnva02.us.bb.gin.ntt.net -->
<g id="edge29" class="edge"><title>ae&#45;9.r22.asbnva02.us.bb.gin.ntt.net&#45;&#45;ae&#45;7.r06.asbnva02.us.bb.gin.ntt.net</title>
<path fill="none" stroke="black" d="M860,-359.697C860,-348.846 860,-334.917 860,-324.104"/>
</g>
<!-- ae&#45;1.a01.asbnva02.us.bb.gin.ntt.net -->
<g id="node38" class="node"><title>ae&#45;1.a01.asbnva02.us.bb.gin.ntt.net</title>
<polygon fill="lightgrey" stroke="black" points="976,-252 744,-252 744,-216 976,-216 976,-252"/>
<text text-anchor="middle" x="860" y="-230.3" font-family="Helvetica,sans-Serif" font-size="14.00">ae&#45;1.a01.asbnva02.us.bb.gin.ntt.net</text>
</g>
<!-- ae&#45;7.r06.asbnva02.us.bb.gin.ntt.net&#45;&#45;ae&#45;1.a01.asbnva02.us.bb.gin.ntt.net -->
<g id="edge30" class="edge"><title>ae&#45;7.r06.asbnva02.us.bb.gin.ntt.net&#45;&#45;ae&#45;1.a01.asbnva02.us.bb.gin.ntt.net</title>
<path fill="none" stroke="black" d="M860,-287.697C860,-276.846 860,-262.917 860,-252.104"/>
</g>
<!-- xe&#45;0&#45;0&#45;25&#45;1.a01.asbnva02.us.ce.gin.ntt.net -->
<g id="node39" class="node"><title>xe&#45;0&#45;0&#45;25&#45;1.a01.asbnva02.us.ce.gin.ntt.net</title>
<polygon fill="lightgrey" stroke="black" points="997,-180 723,-180 723,-144 997,-144 997,-180"/>
<text text-anchor="middle" x="860" y="-158.3" font-family="Helvetica,sans-Serif" font-size="14.00">xe&#45;0&#45;0&#45;25&#45;1.a01.asbnva02.us.ce.gin.ntt.net</text>
</g>
<!-- ae&#45;1.a01.asbnva02.us.bb.gin.ntt.net&#45;&#45;xe&#45;0&#45;0&#45;25&#45;1.a01.asbnva02.us.ce.gin.ntt.net -->
<g id="edge31" class="edge"><title>ae&#45;1.a01.asbnva02.us.bb.gin.ntt.net&#45;&#45;xe&#45;0&#45;0&#45;25&#45;1.a01.asbnva02.us.ce.gin.ntt.net</title>
<path fill="none" stroke="black" d="M860,-215.697C860,-204.846 860,-190.917 860,-180.104"/>
</g>
<!-- lb&#45;192&#45;30&#45;253&#45;112&#45;iad.github.com -->
<g id="node40" class="node"><title>lb&#45;192&#45;30&#45;253&#45;112&#45;iad.github.com</title>
<polygon fill="lightgrey" stroke="black" points="970.5,-108 749.5,-108 749.5,-72 970.5,-72 970.5,-108"/>
<text text-anchor="middle" x="860" y="-86.3" font-family="Helvetica,sans-Serif" font-size="14.00">lb&#45;192&#45;30&#45;253&#45;112&#45;iad.github.com</text>
</g>
<!-- xe&#45;0&#45;0&#45;25&#45;1.a01.asbnva02.us.ce.gin.ntt.net&#45;&#45;lb&#45;192&#45;30&#45;253&#45;112&#45;iad.github.com -->
<g id="edge32" class="edge"><title>xe&#45;0&#45;0&#45;25&#45;1.a01.asbnva02.us.ce.gin.ntt.net&#45;&#45;lb&#45;192&#45;30&#45;253&#45;112&#45;iad.github.com</title>
<path fill="none" stroke="black" d="M860,-143.697C860,-132.846 860,-118.917 860,-108.104"/>
</g>
<!-- lb&#45;192&#45;30&#45;253&#45;112&#45;iad.github.com&#45;&#45;github.com -->
<g id="edge33" class="edge"><title>lb&#45;192&#45;30&#45;253&#45;112&#45;iad.github.com&#45;&#45;github.com</title>
<path fill="none" stroke="black" d="M860,-71.6966C860,-60.8463 860,-46.9167 860,-36.1043"/>
</g>
<!-- linx1.orbital.net -->
<g id="node42" class="node"><title>linx1.orbital.net</title>
<polygon fill="lightgrey" stroke="black" points="1203.5,-684 1096.5,-684 1096.5,-648 1203.5,-648 1203.5,-684"/>
<text text-anchor="middle" x="1150" y="-662.3" font-family="Helvetica,sans-Serif" font-size="14.00">linx1.orbital.net</text>
</g>
<!-- 87.237.20.33&#45;&#45;linx1.orbital.net -->
<g id="edge35" class="edge"><title>87.237.20.33&#45;&#45;linx1.orbital.net</title>
<path fill="none" stroke="black" d="M1276.15,-719.876C1250.17,-708.988 1216.67,-694.945 1190.72,-684.068"/>
</g>
<!-- linx.ae4&#45;irt1.lon37.uk.as13237.net -->
<g id="node52" class="node"><title>linx.ae4&#45;irt1.lon37.uk.as13237.net</title>
<polygon fill="lightgrey" stroke="black" points="1440.5,-684 1221.5,-684 1221.5,-648 1440.5,-648 1440.5,-684"/>
<text text-anchor="middle" x="1331" y="-662.3" font-family="Helvetica,sans-Serif" font-size="14.00">linx.ae4&#45;irt1.lon37.uk.as13237.net</text>
</g>
<!-- 87.237.20.33&#45;&#45;linx.ae4&#45;irt1.lon37.uk.as13237.net -->
<g id="edge47" class="edge"><title>87.237.20.33&#45;&#45;linx.ae4&#45;irt1.lon37.uk.as13237.net</title>
<path fill="none" stroke="black" d="M1320.46,-719.697C1322.63,-708.846 1325.42,-694.917 1327.58,-684.104"/>
</g>
<!-- xe2&#45;2&#45;ve&#45;83.thn&#45;pe&#45;2.thn.thebunker.net.202.88.80.in&#45;addr.arpa -->
<g id="node43" class="node"><title>xe2&#45;2&#45;ve&#45;83.thn&#45;pe&#45;2.thn.thebunker.net.202.88.80.in&#45;addr.arpa</title>
<polygon fill="lightgrey" stroke="black" points="1383,-612 991,-612 991,-576 1383,-576 1383,-612"/>
<text text-anchor="middle" x="1187" y="-590.3" font-family="Helvetica,sans-Serif" font-size="14.00">xe2&#45;2&#45;ve&#45;83.thn&#45;pe&#45;2.thn.thebunker.net.202.88.80.in&#45;addr.arpa</text>
</g>
<!-- linx1.orbital.net&#45;&#45;xe2&#45;2&#45;ve&#45;83.thn&#45;pe&#45;2.thn.thebunker.net.202.88.80.in&#45;addr.arpa -->
<g id="edge36" class="edge"><title>linx1.orbital.net&#45;&#45;xe2&#45;2&#45;ve&#45;83.thn&#45;pe&#45;2.thn.thebunker.net.202.88.80.in&#45;addr.arpa</title>
<path fill="none" stroke="black" d="M1159.15,-647.697C1164.88,-636.846 1172.24,-622.917 1177.96,-612.104"/>
</g>
<!-- ip&#45;185&#45;10&#45;15&#45;249.thebunker.net -->
<g id="node44" class="node"><title>ip&#45;185&#45;10&#45;15&#45;249.thebunker.net</title>
<polygon fill="lightgrey" stroke="black" points="1268,-540 1062,-540 1062,-504 1268,-504 1268,-540"/>
<text text-anchor="middle" x="1165" y="-518.3" font-family="Helvetica,sans-Serif" font-size="14.00">ip&#45;185&#45;10&#45;15&#45;249.thebunker.net</text>
</g>
<!-- xe2&#45;2&#45;ve&#45;83.thn&#45;pe&#45;2.thn.thebunker.net.202.88.80.in&#45;addr.arpa&#45;&#45;ip&#45;185&#45;10&#45;15&#45;249.thebunker.net -->
<g id="edge37" class="edge"><title>xe2&#45;2&#45;ve&#45;83.thn&#45;pe&#45;2.thn.thebunker.net.202.88.80.in&#45;addr.arpa&#45;&#45;ip&#45;185&#45;10&#45;15&#45;249.thebunker.net</title>
<path fill="none" stroke="black" d="M1181.56,-575.697C1178.15,-564.846 1173.77,-550.917 1170.38,-540.104"/>
</g>
<!-- 213.129.70.253 -->
<g id="node50" class="node"><title>213.129.70.253</title>
<polygon fill="lightgrey" stroke="black" points="1414,-540 1304,-540 1304,-504 1414,-504 1414,-540"/>
<text text-anchor="middle" x="1359" y="-518.3" font-family="Helvetica,sans-Serif" font-size="14.00">213.129.70.253</text>
</g>
<!-- xe2&#45;2&#45;ve&#45;83.thn&#45;pe&#45;2.thn.thebunker.net.202.88.80.in&#45;addr.arpa&#45;&#45;213.129.70.253 -->
<g id="edge44" class="edge"><title>xe2&#45;2&#45;ve&#45;83.thn&#45;pe&#45;2.thn.thebunker.net.202.88.80.in&#45;addr.arpa&#45;&#45;213.129.70.253</title>
<path fill="none" stroke="black" d="M1229.08,-575.876C1255.83,-564.988 1290.33,-550.945 1317.06,-540.068"/>
</g>
<!-- ip&#45;185&#45;10&#45;15&#45;250.thebunker.net -->
<g id="node45" class="node"><title>ip&#45;185&#45;10&#45;15&#45;250.thebunker.net</title>
<polygon fill="lightgrey" stroke="black" points="1262,-468 1056,-468 1056,-432 1262,-432 1262,-468"/>
<text text-anchor="middle" x="1159" y="-446.3" font-family="Helvetica,sans-Serif" font-size="14.00">ip&#45;185&#45;10&#45;15&#45;250.thebunker.net</text>
</g>
<!-- ip&#45;185&#45;10&#45;15&#45;249.thebunker.net&#45;&#45;ip&#45;185&#45;10&#45;15&#45;250.thebunker.net -->
<g id="edge38" class="edge"><title>ip&#45;185&#45;10&#45;15&#45;249.thebunker.net&#45;&#45;ip&#45;185&#45;10&#45;15&#45;250.thebunker.net</title>
<path fill="none" stroke="black" d="M1163.52,-503.697C1162.59,-492.846 1161.39,-478.917 1160.47,-468.104"/>
</g>
<!-- eth4&#45;1.thn&#45;bgp&#45;2.thn.core.thebunker.net -->
<g id="node46" class="node"><title>eth4&#45;1.thn&#45;bgp&#45;2.thn.core.thebunker.net</title>
<polygon fill="lightgrey" stroke="black" points="1275.5,-396 1020.5,-396 1020.5,-360 1275.5,-360 1275.5,-396"/>
<text text-anchor="middle" x="1148" y="-374.3" font-family="Helvetica,sans-Serif" font-size="14.00">eth4&#45;1.thn&#45;bgp&#45;2.thn.core.thebunker.net</text>
</g>
<!-- ip&#45;185&#45;10&#45;15&#45;250.thebunker.net&#45;&#45;eth4&#45;1.thn&#45;bgp&#45;2.thn.core.thebunker.net -->
<g id="edge39" class="edge"><title>ip&#45;185&#45;10&#45;15&#45;250.thebunker.net&#45;&#45;eth4&#45;1.thn&#45;bgp&#45;2.thn.core.thebunker.net</title>
<path fill="none" stroke="black" d="M1156.28,-431.697C1154.58,-420.846 1152.39,-406.917 1150.69,-396.104"/>
</g>
<!-- tengeth2&#45;1.thn&#45;bgp&#45;1.thn.core.thebunker.net -->
<g id="node47" class="node"><title>tengeth2&#45;1.thn&#45;bgp&#45;1.thn.core.thebunker.net</title>
<polygon fill="lightgrey" stroke="black" points="1288.5,-324 1007.5,-324 1007.5,-288 1288.5,-288 1288.5,-324"/>
<text text-anchor="middle" x="1148" y="-302.3" font-family="Helvetica,sans-Serif" font-size="14.00">tengeth2&#45;1.thn&#45;bgp&#45;1.thn.core.thebunker.net</text>
</g>
<!-- eth4&#45;1.thn&#45;bgp&#45;2.thn.core.thebunker.net&#45;&#45;tengeth2&#45;1.thn&#45;bgp&#45;1.thn.core.thebunker.net -->
<g id="edge40" class="edge"><title>eth4&#45;1.thn&#45;bgp&#45;2.thn.core.thebunker.net&#45;&#45;tengeth2&#45;1.thn&#45;bgp&#45;1.thn.core.thebunker.net</title>
<path fill="none" stroke="black" d="M1148,-359.697C1148,-348.846 1148,-334.917 1148,-324.104"/>
</g>
<!-- tengeth2&#45;2.ash&#45;bgp&#45;2.ash.core.thebunker.net -->
<g id="node48" class="node"><title>tengeth2&#45;2.ash&#45;bgp&#45;2.ash.core.thebunker.net</title>
<polygon fill="lightgrey" stroke="black" points="1291.5,-252 1004.5,-252 1004.5,-216 1291.5,-216 1291.5,-252"/>
<text text-anchor="middle" x="1148" y="-230.3" font-family="Helvetica,sans-Serif" font-size="14.00">tengeth2&#45;2.ash&#45;bgp&#45;2.ash.core.thebunker.net</text>
</g>
<!-- tengeth2&#45;1.thn&#45;bgp&#45;1.thn.core.thebunker.net&#45;&#45;tengeth2&#45;2.ash&#45;bgp&#45;2.ash.core.thebunker.net -->
<g id="edge41" class="edge"><title>tengeth2&#45;1.thn&#45;bgp&#45;1.thn.core.thebunker.net&#45;&#45;tengeth2&#45;2.ash&#45;bgp&#45;2.ash.core.thebunker.net</title>
<path fill="none" stroke="black" d="M1148,-287.697C1148,-276.846 1148,-262.917 1148,-252.104"/>
</g>
<!-- eth2&#45;2.ash&#45;pe&#45;2.ash.core.thebunker.net -->
<g id="node49" class="node"><title>eth2&#45;2.ash&#45;pe&#45;2.ash.core.thebunker.net</title>
<polygon fill="lightgrey" stroke="black" points="1275,-180 1021,-180 1021,-144 1275,-144 1275,-180"/>
<text text-anchor="middle" x="1148" y="-158.3" font-family="Helvetica,sans-Serif" font-size="14.00">eth2&#45;2.ash&#45;pe&#45;2.ash.core.thebunker.net</text>
</g>
<!-- tengeth2&#45;2.ash&#45;bgp&#45;2.ash.core.thebunker.net&#45;&#45;eth2&#45;2.ash&#45;pe&#45;2.ash.core.thebunker.net -->
<g id="edge42" class="edge"><title>tengeth2&#45;2.ash&#45;bgp&#45;2.ash.core.thebunker.net&#45;&#45;eth2&#45;2.ash&#45;pe&#45;2.ash.core.thebunker.net</title>
<path fill="none" stroke="black" d="M1148,-215.697C1148,-204.846 1148,-190.917 1148,-180.104"/>
</g>
<!-- eth2&#45;2.ash&#45;pe&#45;2.ash.core.thebunker.net&#45;&#45;thebunker.net -->
<g id="edge43" class="edge"><title>eth2&#45;2.ash&#45;pe&#45;2.ash.core.thebunker.net&#45;&#45;thebunker.net</title>
<path fill="none" stroke="black" d="M1148,-143.697C1148,-132.846 1148,-118.917 1148,-108.104"/>
</g>
<!-- 213.129.70.237 -->
<g id="node51" class="node"><title>213.129.70.237</title>
<polygon fill="lightgrey" stroke="black" points="1426,-468 1316,-468 1316,-432 1426,-432 1426,-468"/>
<text text-anchor="middle" x="1371" y="-446.3" font-family="Helvetica,sans-Serif" font-size="14.00">213.129.70.237</text>
</g>
<!-- 213.129.70.253&#45;&#45;213.129.70.237 -->
<g id="edge45" class="edge"><title>213.129.70.253&#45;&#45;213.129.70.237</title>
<path fill="none" stroke="black" d="M1361.97,-503.697C1363.83,-492.846 1366.21,-478.917 1368.07,-468.104"/>
</g>
<!-- 213.129.70.237&#45;&#45;infinityfoods.coop -->
<g id="edge46" class="edge"><title>213.129.70.237&#45;&#45;infinityfoods.coop</title>
<path fill="none" stroke="black" d="M1371.25,-431.697C1371.4,-420.846 1371.6,-406.917 1371.76,-396.104"/>
</g>
<!-- 84.207.244.126.not&#45;updated.eunx.net -->
<g id="node53" class="node"><title>84.207.244.126.not&#45;updated.eunx.net</title>
<polygon fill="lightgrey" stroke="black" points="1643,-612 1401,-612 1401,-576 1643,-576 1643,-612"/>
<text text-anchor="middle" x="1522" y="-590.3" font-family="Helvetica,sans-Serif" font-size="14.00">84.207.244.126.not&#45;updated.eunx.net</text>
</g>
<!-- linx.ae4&#45;irt1.lon37.uk.as13237.net&#45;&#45;84.207.244.126.not&#45;updated.eunx.net -->
<g id="edge48" class="edge"><title>linx.ae4&#45;irt1.lon37.uk.as13237.net&#45;&#45;84.207.244.126.not&#45;updated.eunx.net</title>
<path fill="none" stroke="black" d="M1377.72,-647.876C1407.43,-636.988 1445.75,-622.945 1475.43,-612.068"/>
</g>
<!-- 84.207.244.126.not&#45;updated.eunx.net&#45;&#45;morningstar.co.uk -->
<g id="edge49" class="edge"><title>84.207.244.126.not&#45;updated.eunx.net&#45;&#45;morningstar.co.uk</title>
<path fill="none" stroke="black" d="M1522,-575.697C1522,-564.846 1522,-550.917 1522,-540.104"/>
</g>
<!-- 027ff198.bb.sky.com&#45;&#45;sky.com -->
<g id="edge51" class="edge"><title>027ff198.bb.sky.com&#45;&#45;sky.com</title>
<path fill="none" stroke="black" d="M1465.87,-719.697C1473.42,-708.684 1483.14,-694.5 1490.6,-683.622"/>
</g>
<!-- the&#45;linx.as29550.net&#45;&#45;la&#45;cave.co.uk -->
<g id="edge53" class="edge"><title>the&#45;linx.as29550.net&#45;&#45;la&#45;cave.co.uk</title>
<path fill="none" stroke="black" d="M1615.46,-719.697C1617.63,-708.846 1620.42,-694.917 1622.58,-684.104"/>
</g>
<!-- 104.31.94.107 -->
<g id="node57" class="node"><title>104.31.94.107</title>
<polygon fill="lightgrey" stroke="black" points="1823.5,-684 1720.5,-684 1720.5,-648 1823.5,-648 1823.5,-684"/>
<text text-anchor="middle" x="1772" y="-662.3" font-family="Helvetica,sans-Serif" font-size="14.00">104.31.94.107</text>
</g>
<!-- linx&#45;lon1.as13335.net&#45;&#45;104.31.94.107 -->
<g id="edge55" class="edge"><title>linx&#45;lon1.as13335.net&#45;&#45;104.31.94.107</title>
<path fill="none" stroke="black" d="M1772,-719.697C1772,-708.846 1772,-694.917 1772,-684.104"/>
</g>
<!-- 104.31.94.107&#45;&#45;64degrees.co.uk -->
<g id="edge56" class="edge"><title>104.31.94.107&#45;&#45;64degrees.co.uk</title>
<path fill="none" stroke="black" d="M1772,-647.697C1772,-636.846 1772,-622.917 1772,-612.104"/>
</g>
<!-- 216.239.57.207 -->
<g id="node59" class="node"><title>216.239.57.207</title>
<polygon fill="lightgrey" stroke="black" points="478,-540 368,-540 368,-504 478,-504 478,-540"/>
<text text-anchor="middle" x="423" y="-518.3" font-family="Helvetica,sans-Serif" font-size="14.00">216.239.57.207</text>
</g>
<!-- 108.170.246.143&#45;&#45;216.239.57.207 -->
<g id="edge58" class="edge"><title>108.170.246.143&#45;&#45;216.239.57.207</title>
<path fill="none" stroke="black" d="M419.236,-575.697C420.011,-564.846 421.006,-550.917 421.778,-540.104"/>
</g>
<!-- 216.239.42.77 -->
<g id="node60" class="node"><title>216.239.42.77</title>
<polygon fill="lightgrey" stroke="black" points="479.5,-468 376.5,-468 376.5,-432 479.5,-432 479.5,-468"/>
<text text-anchor="middle" x="428" y="-446.3" font-family="Helvetica,sans-Serif" font-size="14.00">216.239.42.77</text>
</g>
<!-- 216.239.57.207&#45;&#45;216.239.42.77 -->
<g id="edge59" class="edge"><title>216.239.57.207&#45;&#45;216.239.42.77</title>
<path fill="none" stroke="black" d="M424.236,-503.697C425.011,-492.846 426.006,-478.917 426.778,-468.104"/>
</g>
<!-- 209.85.253.248 -->
<g id="node61" class="node"><title>209.85.253.248</title>
<polygon fill="lightgrey" stroke="black" points="483,-396 373,-396 373,-360 483,-360 483,-396"/>
<text text-anchor="middle" x="428" y="-374.3" font-family="Helvetica,sans-Serif" font-size="14.00">209.85.253.248</text>
</g>
<!-- 216.239.42.77&#45;&#45;209.85.253.248 -->
<g id="edge60" class="edge"><title>216.239.42.77&#45;&#45;209.85.253.248</title>
<path fill="none" stroke="black" d="M428,-431.697C428,-420.846 428,-406.917 428,-396.104"/>
</g>
<!-- 209.85.143.103 -->
<g id="node62" class="node"><title>209.85.143.103</title>
<polygon fill="lightgrey" stroke="black" points="483,-324 373,-324 373,-288 483,-288 483,-324"/>
<text text-anchor="middle" x="428" y="-302.3" font-family="Helvetica,sans-Serif" font-size="14.00">209.85.143.103</text>
</g>
<!-- 209.85.253.248&#45;&#45;209.85.143.103 -->
<g id="edge61" class="edge"><title>209.85.253.248&#45;&#45;209.85.143.103</title>
<path fill="none" stroke="black" d="M428,-359.697C428,-348.846 428,-334.917 428,-324.104"/>
</g>
<!-- 216.239.54.73 -->
<g id="node63" class="node"><title>216.239.54.73</title>
<polygon fill="lightgrey" stroke="black" points="479.5,-252 376.5,-252 376.5,-216 479.5,-216 479.5,-252"/>
<text text-anchor="middle" x="428" y="-230.3" font-family="Helvetica,sans-Serif" font-size="14.00">216.239.54.73</text>
</g>
<!-- 209.85.143.103&#45;&#45;216.239.54.73 -->
<g id="edge62" class="edge"><title>209.85.143.103&#45;&#45;216.239.54.73</title>
<path fill="none" stroke="black" d="M428,-287.697C428,-276.846 428,-262.917 428,-252.104"/>
</g>
<!-- 147.62.236.23.bc.googleusercontent.com -->
<g id="node64" class="node"><title>147.62.236.23.bc.googleusercontent.com</title>
<polygon fill="lightgrey" stroke="black" points="561,-180 295,-180 295,-144 561,-144 561,-180"/>
<text text-anchor="middle" x="428" y="-158.3" font-family="Helvetica,sans-Serif" font-size="14.00">147.62.236.23.bc.googleusercontent.com</text>
</g>
<!-- 216.239.54.73&#45;&#45;147.62.236.23.bc.googleusercontent.com -->
<g id="edge63" class="edge"><title>216.239.54.73&#45;&#45;147.62.236.23.bc.googleusercontent.com</title>
<path fill="none" stroke="black" d="M428,-215.697C428,-204.846 428,-190.917 428,-180.104"/>
</g>
<!-- 147.62.236.23.bc.googleusercontent.com&#45;&#45;chillifrog.co -->
<g id="edge64" class="edge"><title>147.62.236.23.bc.googleusercontent.com&#45;&#45;chillifrog.co</title>
<path fill="none" stroke="black" d="M428,-143.697C428,-132.846 428,-118.917 428,-108.104"/>
</g>
</g>
</svg>
