<?xml version="1.0" encoding="UTF-8" standalone="no"?>
<!DOCTYPE svg PUBLIC "-//W3C//DTD SVG 1.1//EN"
 "http://www.w3.org/Graphics/SVG/1.1/DTD/svg11.dtd">
<!-- Generated by graphviz version 2.38.0 (20140413.2041)
 -->
<!-- Title: %3 Pages: 1 -->
<svg width="714pt" height="764pt"
 viewBox="0.00 0.00 713.95 764.00" xmlns="http://www.w3.org/2000/svg" xmlns:xlink="http://www.w3.org/1999/xlink">
<g id="graph0" class="graph" transform="scale(1 1) rotate(0) translate(4 760)">
<title>%3</title>
<polygon fill="white" stroke="none" points="-4,4 -4,-760 709.945,-760 709.945,4 -4,4"/>
<!-- soy yo -->
<g id="node1" class="node"><title>soy yo</title>
<ellipse fill="green" stroke="black" cx="284.945" cy="-738" rx="36.2938" ry="18"/>
<text text-anchor="middle" x="284.945" y="-734.3" font-family="Helvetica,sans-Serif" font-size="14.00" fill="white">soy yo</text>
</g>
<!-- 172.20.10.1 -->
<g id="node9" class="node"><title>172.20.10.1</title>
<polygon fill="lightgrey" stroke="black" points="328.945,-684 240.945,-684 240.945,-648 328.945,-648 328.945,-684"/>
<text text-anchor="middle" x="284.945" y="-662.3" font-family="Helvetica,sans-Serif" font-size="14.00">172.20.10.1</text>
</g>
<!-- soy yo&#45;&#45;172.20.10.1 -->
<g id="edge1" class="edge"><title>soy yo&#45;&#45;172.20.10.1</title>
<path fill="none" stroke="black" d="M284.945,-719.697C284.945,-708.846 284.945,-694.917 284.945,-684.104"/>
</g>
<!-- google.com -->
<g id="node2" class="node"><title>google.com</title>
<ellipse fill="green" stroke="black" cx="646.945" cy="-18" rx="56.59" ry="18"/>
<text text-anchor="middle" x="646.945" y="-14.3" font-family="Helvetica,sans-Serif" font-size="14.00" fill="white">google.com</text>
</g>
<!-- github.com -->
<g id="node3" class="node"><title>github.com</title>
<ellipse fill="green" stroke="black" cx="53.9452" cy="-90" rx="53.8905" ry="18"/>
<text text-anchor="middle" x="53.9452" y="-86.3" font-family="Helvetica,sans-Serif" font-size="14.00" fill="white">github.com</text>
</g>
<!-- twitter.com -->
<g id="node4" class="node"><title>twitter.com</title>
<ellipse fill="green" stroke="black" cx="179.945" cy="-90" rx="53.8905" ry="18"/>
<text text-anchor="middle" x="179.945" y="-86.3" font-family="Helvetica,sans-Serif" font-size="14.00" fill="white">twitter.com</text>
</g>
<!-- facebook.com -->
<g id="node5" class="node"><title>facebook.com</title>
<ellipse fill="green" stroke="black" cx="317.945" cy="-90" rx="65.7887" ry="18"/>
<text text-anchor="middle" x="317.945" y="-86.3" font-family="Helvetica,sans-Serif" font-size="14.00" fill="white">facebook.com</text>
</g>
<!-- 4.4.4.4 -->
<g id="node6" class="node"><title>4.4.4.4</title>
<ellipse fill="red" stroke="black" cx="438.945" cy="-90" rx="37.8943" ry="18"/>
<text text-anchor="middle" x="438.945" y="-86.3" font-family="Helvetica,sans-Serif" font-size="14.00" fill="white">4.4.4.4</text>
</g>
<!-- 4.4.8.8 -->
<g id="node7" class="node"><title>4.4.8.8</title>
<ellipse fill="red" stroke="black" cx="531.945" cy="-90" rx="37.8943" ry="18"/>
<text text-anchor="middle" x="531.945" y="-86.3" font-family="Helvetica,sans-Serif" font-size="14.00" fill="white">4.4.8.8</text>
</g>
<!-- 1.2.3.4 -->
<g id="node8" class="node"><title>1.2.3.4</title>
<ellipse fill="red" stroke="black" cx="274.945" cy="-162" rx="37.8943" ry="18"/>
<text text-anchor="middle" x="274.945" y="-158.3" font-family="Helvetica,sans-Serif" font-size="14.00" fill="white">1.2.3.4</text>
</g>
<!-- 10.248.28.145 -->
<g id="node10" class="node"><title>10.248.28.145</title>
<polygon fill="lightgrey" stroke="black" points="215.445,-612 112.445,-612 112.445,-576 215.445,-576 215.445,-612"/>
<text text-anchor="middle" x="163.945" y="-590.3" font-family="Helvetica,sans-Serif" font-size="14.00">10.248.28.145</text>
</g>
<!-- 172.20.10.1&#45;&#45;10.248.28.145 -->
<g id="edge2" class="edge"><title>172.20.10.1&#45;&#45;10.248.28.145</title>
<path fill="none" stroke="black" d="M255.345,-647.876C236.595,-637.029 212.431,-623.05 193.659,-612.19"/>
</g>
<!-- 87.237.20.224 -->
<g id="node15" class="node"><title>87.237.20.224</title>
<polygon fill="lightgrey" stroke="black" points="377.445,-252 274.445,-252 274.445,-216 377.445,-216 377.445,-252"/>
<text text-anchor="middle" x="325.945" y="-230.3" font-family="Helvetica,sans-Serif" font-size="14.00">87.237.20.224</text>
</g>
<!-- 172.20.10.1&#45;&#45;87.237.20.224 -->
<g id="edge17" class="edge"><title>172.20.10.1&#45;&#45;87.237.20.224</title>
<path fill="none" stroke="black" d="M310.869,-647.94C322.968,-638.689 336.525,-626.235 344.945,-612 365.586,-577.106 364.945,-563.542 364.945,-523 364.945,-523 364.945,-523 364.945,-377 364.945,-330.47 345.233,-278.329 333.837,-252.072"/>
</g>
<!-- 10.248.28.153 -->
<g id="node18" class="node"><title>10.248.28.153</title>
<polygon fill="lightgrey" stroke="black" points="336.445,-612 233.445,-612 233.445,-576 336.445,-576 336.445,-612"/>
<text text-anchor="middle" x="284.945" y="-590.3" font-family="Helvetica,sans-Serif" font-size="14.00">10.248.28.153</text>
</g>
<!-- 172.20.10.1&#45;&#45;10.248.28.153 -->
<g id="edge13" class="edge"><title>172.20.10.1&#45;&#45;10.248.28.153</title>
<path fill="none" stroke="black" d="M284.945,-647.697C284.945,-636.846 284.945,-622.917 284.945,-612.104"/>
</g>
<!-- 10.247.84.25 -->
<g id="node11" class="node"><title>10.247.84.25</title>
<polygon fill="lightgrey" stroke="black" points="215.445,-540 120.445,-540 120.445,-504 215.445,-504 215.445,-540"/>
<text text-anchor="middle" x="167.945" y="-518.3" font-family="Helvetica,sans-Serif" font-size="14.00">10.247.84.25</text>
</g>
<!-- 10.248.28.145&#45;&#45;10.247.84.25 -->
<g id="edge3" class="edge"><title>10.248.28.145&#45;&#45;10.247.84.25</title>
<path fill="none" stroke="black" d="M164.934,-575.697C165.554,-564.846 166.35,-550.917 166.968,-540.104"/>
</g>
<!-- 10.247.84.6 -->
<g id="node12" class="node"><title>10.247.84.6</title>
<polygon fill="lightgrey" stroke="black" points="328.945,-468 240.945,-468 240.945,-432 328.945,-432 328.945,-468"/>
<text text-anchor="middle" x="284.945" y="-446.3" font-family="Helvetica,sans-Serif" font-size="14.00">10.247.84.6</text>
</g>
<!-- 10.247.84.25&#45;&#45;10.247.84.6 -->
<g id="edge4" class="edge"><title>10.247.84.25&#45;&#45;10.247.84.6</title>
<path fill="none" stroke="black" d="M196.567,-503.876C214.697,-493.029 238.062,-479.05 256.214,-468.19"/>
</g>
<!-- 10.247.84.9 -->
<g id="node13" class="node"><title>10.247.84.9</title>
<polygon fill="lightgrey" stroke="black" points="329.945,-396 241.945,-396 241.945,-360 329.945,-360 329.945,-396"/>
<text text-anchor="middle" x="285.945" y="-374.3" font-family="Helvetica,sans-Serif" font-size="14.00">10.247.84.9</text>
</g>
<!-- 10.247.84.6&#45;&#45;10.247.84.9 -->
<g id="edge5" class="edge"><title>10.247.84.6&#45;&#45;10.247.84.9</title>
<path fill="none" stroke="black" d="M285.192,-431.697C285.347,-420.846 285.546,-406.917 285.701,-396.104"/>
</g>
<!-- 10.247.84.18 -->
<g id="node14" class="node"><title>10.247.84.18</title>
<polygon fill="lightgrey" stroke="black" points="335.445,-324 240.445,-324 240.445,-288 335.445,-288 335.445,-324"/>
<text text-anchor="middle" x="287.945" y="-302.3" font-family="Helvetica,sans-Serif" font-size="14.00">10.247.84.18</text>
</g>
<!-- 10.247.84.9&#45;&#45;10.247.84.18 -->
<g id="edge6" class="edge"><title>10.247.84.9&#45;&#45;10.247.84.18</title>
<path fill="none" stroke="black" d="M286.44,-359.697C286.75,-348.846 287.148,-334.917 287.457,-324.104"/>
</g>
<!-- 10.247.84.18&#45;&#45;87.237.20.224 -->
<g id="edge7" class="edge"><title>10.247.84.18&#45;&#45;87.237.20.224</title>
<path fill="none" stroke="black" d="M297.338,-287.697C303.229,-276.846 310.79,-262.917 316.66,-252.104"/>
</g>
<!-- 87.237.20.224&#45;&#45;1.2.3.4 -->
<g id="edge20" class="edge"><title>87.237.20.224&#45;&#45;1.2.3.4</title>
<path fill="none" stroke="black" d="M313.338,-215.697C305.197,-204.522 294.677,-190.082 286.708,-179.145"/>
</g>
<!-- 87.237.20.73 -->
<g id="node16" class="node"><title>87.237.20.73</title>
<polygon fill="lightgrey" stroke="black" points="425.445,-180 330.445,-180 330.445,-144 425.445,-144 425.445,-180"/>
<text text-anchor="middle" x="377.945" y="-158.3" font-family="Helvetica,sans-Serif" font-size="14.00">87.237.20.73</text>
</g>
<!-- 87.237.20.224&#45;&#45;87.237.20.73 -->
<g id="edge8" class="edge"><title>87.237.20.224&#45;&#45;87.237.20.73</title>
<path fill="none" stroke="black" d="M338.799,-215.697C346.859,-204.846 357.207,-190.917 365.239,-180.104"/>
</g>
<!-- 87.237.20.73&#45;&#45;github.com -->
<g id="edge11" class="edge"><title>87.237.20.73&#45;&#45;github.com</title>
<path fill="none" stroke="black" d="M330.393,-146.137C327.544,-145.38 324.712,-144.66 321.945,-144 231.967,-122.525 207.247,-128.07 116.945,-108 109.425,-106.329 101.455,-104.346 93.8047,-102.335"/>
</g>
<!-- 87.237.20.73&#45;&#45;twitter.com -->
<g id="edge12" class="edge"><title>87.237.20.73&#45;&#45;twitter.com</title>
<path fill="none" stroke="black" d="M330.267,-144.144C295.023,-131.684 247.784,-114.983 215.735,-103.653"/>
</g>
<!-- 87.237.20.73&#45;&#45;facebook.com -->
<g id="edge16" class="edge"><title>87.237.20.73&#45;&#45;facebook.com</title>
<path fill="none" stroke="black" d="M363.114,-143.697C353.675,-132.684 341.517,-118.5 332.193,-107.622"/>
</g>
<!-- 87.237.20.73&#45;&#45;4.4.4.4 -->
<g id="edge18" class="edge"><title>87.237.20.73&#45;&#45;4.4.4.4</title>
<path fill="none" stroke="black" d="M393.024,-143.697C402.761,-132.522 415.345,-118.082 424.876,-107.145"/>
</g>
<!-- 87.237.20.73&#45;&#45;4.4.8.8 -->
<g id="edge19" class="edge"><title>87.237.20.73&#45;&#45;4.4.8.8</title>
<path fill="none" stroke="black" d="M415.618,-143.876C443.4,-131.248 480.52,-114.375 505.28,-103.121"/>
</g>
<!-- 108.170.246.129 -->
<g id="node17" class="node"><title>108.170.246.129</title>
<polygon fill="lightgrey" stroke="black" points="705.945,-108 587.945,-108 587.945,-72 705.945,-72 705.945,-108"/>
<text text-anchor="middle" x="646.945" y="-86.3" font-family="Helvetica,sans-Serif" font-size="14.00">108.170.246.129</text>
</g>
<!-- 87.237.20.73&#45;&#45;108.170.246.129 -->
<g id="edge9" class="edge"><title>87.237.20.73&#45;&#45;108.170.246.129</title>
<path fill="none" stroke="black" d="M425.727,-148.566C471.02,-136.78 539.184,-119.042 587.868,-106.373"/>
</g>
<!-- 108.170.246.129&#45;&#45;google.com -->
<g id="edge10" class="edge"><title>108.170.246.129&#45;&#45;google.com</title>
<path fill="none" stroke="black" d="M646.945,-71.6966C646.945,-60.8463 646.945,-46.9167 646.945,-36.1043"/>
</g>
<!-- 10.247.84.27 -->
<g id="node19" class="node"><title>10.247.84.27</title>
<polygon fill="lightgrey" stroke="black" points="332.445,-540 237.445,-540 237.445,-504 332.445,-504 332.445,-540"/>
<text text-anchor="middle" x="284.945" y="-518.3" font-family="Helvetica,sans-Serif" font-size="14.00">10.247.84.27</text>
</g>
<!-- 10.248.28.153&#45;&#45;10.247.84.27 -->
<g id="edge14" class="edge"><title>10.248.28.153&#45;&#45;10.247.84.27</title>
<path fill="none" stroke="black" d="M284.945,-575.697C284.945,-564.846 284.945,-550.917 284.945,-540.104"/>
</g>
<!-- 10.247.84.27&#45;&#45;10.247.84.6 -->
<g id="edge15" class="edge"><title>10.247.84.27&#45;&#45;10.247.84.6</title>
<path fill="none" stroke="black" d="M284.945,-503.697C284.945,-492.846 284.945,-478.917 284.945,-468.104"/>
</g>
</g>
</svg>
