<?xml version="1.0" encoding="UTF-8" standalone="no"?>
<!DOCTYPE svg PUBLIC "-//W3C//DTD SVG 1.1//EN"
 "http://www.w3.org/Graphics/SVG/1.1/DTD/svg11.dtd">
<!-- Generated by graphviz version 2.38.0 (20140413.2041)
 -->
<!-- Title: %3 Pages: 1 -->
<svg width="1022pt" height="1196pt"
 viewBox="0.00 0.00 1021.54 1196.00" xmlns="http://www.w3.org/2000/svg" xmlns:xlink="http://www.w3.org/1999/xlink">
<g id="graph0" class="graph" transform="scale(1 1) rotate(0) translate(4 1192)">
<title>%3</title>
<polygon fill="white" stroke="none" points="-4,4 -4,-1192 1017.54,-1192 1017.54,4 -4,4"/>
<!-- soy yo -->
<g id="node1" class="node"><title>soy yo</title>
<ellipse fill="green" stroke="black" cx="663.393" cy="-1170" rx="61.99" ry="18"/>
<text text-anchor="middle" x="663.393" y="-1166.3" font-family="Helvetica,sans-Serif" font-size="14.00" fill="white">192.168.0.25</text>
</g>
<!-- 192.168.0.1 -->
<g id="node12" class="node"><title>192.168.0.1</title>
<polygon fill="lightgrey" stroke="black" points="707.393,-1116 619.393,-1116 619.393,-1080 707.393,-1080 707.393,-1116"/>
<text text-anchor="middle" x="663.393" y="-1094.3" font-family="Helvetica,sans-Serif" font-size="14.00">192.168.0.1</text>
</g>
<!-- soy yo&#45;&#45;192.168.0.1 -->
<g id="edge1" class="edge"><title>soy yo&#45;&#45;192.168.0.1</title>
<path fill="none" stroke="black" d="M663.393,-1151.7C663.393,-1140.85 663.393,-1126.92 663.393,-1116.1"/>
</g>
<!-- google.com -->
<g id="node2" class="node"><title>google.com</title>
<ellipse fill="green" stroke="black" cx="745.393" cy="-738" rx="56.59" ry="18"/>
<text text-anchor="middle" x="745.393" y="-734.3" font-family="Helvetica,sans-Serif" font-size="14.00" fill="white">google.com</text>
</g>
<!-- deanturpin.github.io -->
<g id="node3" class="node"><title>deanturpin.github.io</title>
<ellipse fill="green" stroke="black" cx="221.393" cy="-954" rx="87.9851" ry="18"/>
<text text-anchor="middle" x="221.393" y="-950.3" font-family="Helvetica,sans-Serif" font-size="14.00" fill="white">deanturpin.github.io</text>
</g>
<!-- github.com -->
<g id="node4" class="node"><title>github.com</title>
<ellipse fill="green" stroke="black" cx="678.393" cy="-306" rx="53.8905" ry="18"/>
<text text-anchor="middle" x="678.393" y="-302.3" font-family="Helvetica,sans-Serif" font-size="14.00" fill="white">github.com</text>
</g>
<!-- silobrighton.com -->
<g id="node5" class="node"><title>silobrighton.com</title>
<ellipse fill="red" stroke="black" cx="75.3933" cy="-738" rx="75.2868" ry="18"/>
<text text-anchor="middle" x="75.3933" y="-734.3" font-family="Helvetica,sans-Serif" font-size="14.00" fill="white">silobrighton.com</text>
</g>
<!-- instagram.com -->
<g id="node6" class="node"><title>instagram.com</title>
<ellipse fill="green" stroke="black" cx="803.393" cy="-18" rx="69.5877" ry="18"/>
<text text-anchor="middle" x="803.393" y="-14.3" font-family="Helvetica,sans-Serif" font-size="14.00" fill="white">instagram.com</text>
</g>
<!-- monzo.com -->
<g id="node7" class="node"><title>monzo.com</title>
<ellipse fill="green" stroke="black" cx="372.393" cy="-810" rx="57.3905" ry="18"/>
<text text-anchor="middle" x="372.393" y="-806.3" font-family="Helvetica,sans-Serif" font-size="14.00" fill="white">monzo.com</text>
</g>
<!-- infinityfoods.coop -->
<g id="node8" class="node"><title>infinityfoods.coop</title>
<ellipse fill="green" stroke="black" cx="499.393" cy="-594" rx="78.7863" ry="18"/>
<text text-anchor="middle" x="499.393" y="-590.3" font-family="Helvetica,sans-Serif" font-size="14.00" fill="white">infinityfoods.coop</text>
</g>
<!-- roli.com -->
<g id="node9" class="node"><title>roli.com</title>
<ellipse fill="red" stroke="black" cx="928.393" cy="-306" rx="42.4939" ry="18"/>
<text text-anchor="middle" x="928.393" y="-302.3" font-family="Helvetica,sans-Serif" font-size="14.00" fill="white">roli.com</text>
</g>
<!-- 4.4.4.4 -->
<g id="node10" class="node"><title>4.4.4.4</title>
<ellipse fill="red" stroke="black" cx="592.393" cy="-954" rx="37.8943" ry="18"/>
<text text-anchor="middle" x="592.393" y="-950.3" font-family="Helvetica,sans-Serif" font-size="14.00" fill="white">4.4.4.4</text>
</g>
<!-- instragram.com -->
<g id="node11" class="node"><title>instragram.com</title>
<ellipse fill="red" stroke="black" cx="941.393" cy="-594" rx="72.2875" ry="18"/>
<text text-anchor="middle" x="941.393" y="-590.3" font-family="Helvetica,sans-Serif" font-size="14.00" fill="white">instragram.com</text>
</g>
<!-- 84.38.37.34 -->
<g id="node13" class="node"><title>84.38.37.34</title>
<polygon fill="lightgrey" stroke="black" points="586.393,-1044 498.393,-1044 498.393,-1008 586.393,-1008 586.393,-1044"/>
<text text-anchor="middle" x="542.393" y="-1022.3" font-family="Helvetica,sans-Serif" font-size="14.00">84.38.37.34</text>
</g>
<!-- 192.168.0.1&#45;&#45;84.38.37.34 -->
<g id="edge2" class="edge"><title>192.168.0.1&#45;&#45;84.38.37.34</title>
<path fill="none" stroke="black" d="M633.793,-1079.88C615.043,-1069.03 590.879,-1055.05 572.107,-1044.19"/>
</g>
<!-- 84.38.37.36 -->
<g id="node43" class="node"><title>84.38.37.36</title>
<polygon fill="lightgrey" stroke="black" points="828.393,-1044 740.393,-1044 740.393,-1008 828.393,-1008 828.393,-1044"/>
<text text-anchor="middle" x="784.393" y="-1022.3" font-family="Helvetica,sans-Serif" font-size="14.00">84.38.37.36</text>
</g>
<!-- 192.168.0.1&#45;&#45;84.38.37.36 -->
<g id="edge41" class="edge"><title>192.168.0.1&#45;&#45;84.38.37.36</title>
<path fill="none" stroke="black" d="M692.993,-1079.88C711.744,-1069.03 735.907,-1055.05 754.68,-1044.19"/>
</g>
<!-- 84.38.37.34&#45;&#45;deanturpin.github.io -->
<g id="edge7" class="edge"><title>84.38.37.34&#45;&#45;deanturpin.github.io</title>
<path fill="none" stroke="black" d="M498.097,-1015.34C441.082,-1002.91 341.901,-981.279 279.057,-967.575"/>
</g>
<!-- 84.38.37.34&#45;&#45;4.4.4.4 -->
<g id="edge40" class="edge"><title>84.38.37.34&#45;&#45;4.4.4.4</title>
<path fill="none" stroke="black" d="M554.753,-1007.7C562.734,-996.522 573.049,-982.082 580.861,-971.145"/>
</g>
<!-- 72.14.203.194 -->
<g id="node14" class="node"><title>72.14.203.194</title>
<polygon fill="lightgrey" stroke="black" points="792.893,-972 689.893,-972 689.893,-936 792.893,-936 792.893,-972"/>
<text text-anchor="middle" x="741.393" y="-950.3" font-family="Helvetica,sans-Serif" font-size="14.00">72.14.203.194</text>
</g>
<!-- 84.38.37.34&#45;&#45;72.14.203.194 -->
<g id="edge3" class="edge"><title>84.38.37.34&#45;&#45;72.14.203.194</title>
<path fill="none" stroke="black" d="M586.558,-1009.46C618.047,-998.388 660.378,-983.498 692.82,-972.086"/>
</g>
<!-- 83.231.221.45 -->
<g id="node17" class="node"><title>83.231.221.45</title>
<polygon fill="lightgrey" stroke="black" points="923.893,-756 820.893,-756 820.893,-720 923.893,-720 923.893,-756"/>
<text text-anchor="middle" x="872.393" y="-734.3" font-family="Helvetica,sans-Serif" font-size="14.00">83.231.221.45</text>
</g>
<!-- 84.38.37.34&#45;&#45;83.231.221.45 -->
<g id="edge8" class="edge"><title>84.38.37.34&#45;&#45;83.231.221.45</title>
<path fill="none" stroke="black" d="M586.472,-1010.15C605.319,-1001.71 626.017,-989.311 639.393,-972 689.812,-906.747 626.959,-851.172 684.393,-792 685.011,-791.363 765.304,-768.87 820.745,-753.394"/>
</g>
<!-- 5.57.80.32 -->
<g id="node23" class="node"><title>5.57.80.32</title>
<polygon fill="lightgrey" stroke="black" points="115.393,-972 35.3933,-972 35.3933,-936 115.393,-936 115.393,-972"/>
<text text-anchor="middle" x="75.3933" y="-950.3" font-family="Helvetica,sans-Serif" font-size="14.00">5.57.80.32</text>
</g>
<!-- 84.38.37.34&#45;&#45;5.57.80.32 -->
<g id="edge15" class="edge"><title>84.38.37.34&#45;&#45;5.57.80.32</title>
<path fill="none" stroke="black" d="M498.233,-1022.43C421.391,-1017.28 258.472,-1003.4 124.393,-972 121.5,-971.322 118.539,-970.537 115.574,-969.683"/>
</g>
<!-- 2.127.241.137 -->
<g id="node33" class="node"><title>2.127.241.137</title>
<polygon fill="lightgrey" stroke="black" points="429.893,-972 326.893,-972 326.893,-936 429.893,-936 429.893,-972"/>
<text text-anchor="middle" x="378.393" y="-950.3" font-family="Helvetica,sans-Serif" font-size="14.00">2.127.241.137</text>
</g>
<!-- 84.38.37.34&#45;&#45;2.127.241.137 -->
<g id="edge27" class="edge"><title>84.38.37.34&#45;&#45;2.127.241.137</title>
<path fill="none" stroke="black" d="M502.274,-1007.88C476.766,-996.988 443.865,-982.945 418.382,-972.068"/>
</g>
<!-- 5.57.80.240 -->
<g id="node35" class="node"><title>5.57.80.240</title>
<polygon fill="lightgrey" stroke="black" points="536.393,-972 448.393,-972 448.393,-936 536.393,-936 536.393,-972"/>
<text text-anchor="middle" x="492.393" y="-950.3" font-family="Helvetica,sans-Serif" font-size="14.00">5.57.80.240</text>
</g>
<!-- 84.38.37.34&#45;&#45;5.57.80.240 -->
<g id="edge30" class="edge"><title>84.38.37.34&#45;&#45;5.57.80.240</title>
<path fill="none" stroke="black" d="M530.034,-1007.7C522.284,-996.846 512.334,-982.917 504.611,-972.104"/>
</g>
<!-- 108.170.238.117 -->
<g id="node15" class="node"><title>108.170.238.117</title>
<polygon fill="lightgrey" stroke="black" points="804.393,-900 686.393,-900 686.393,-864 804.393,-864 804.393,-900"/>
<text text-anchor="middle" x="745.393" y="-878.3" font-family="Helvetica,sans-Serif" font-size="14.00">108.170.238.117</text>
</g>
<!-- 72.14.203.194&#45;&#45;108.170.238.117 -->
<g id="edge4" class="edge"><title>72.14.203.194&#45;&#45;108.170.238.117</title>
<path fill="none" stroke="black" d="M742.382,-935.697C743.002,-924.846 743.798,-910.917 744.416,-900.104"/>
</g>
<!-- 216.58.204.46 -->
<g id="node16" class="node"><title>216.58.204.46</title>
<polygon fill="lightgrey" stroke="black" points="796.893,-828 693.893,-828 693.893,-792 796.893,-792 796.893,-828"/>
<text text-anchor="middle" x="745.393" y="-806.3" font-family="Helvetica,sans-Serif" font-size="14.00">216.58.204.46</text>
</g>
<!-- 108.170.238.117&#45;&#45;216.58.204.46 -->
<g id="edge5" class="edge"><title>108.170.238.117&#45;&#45;216.58.204.46</title>
<path fill="none" stroke="black" d="M745.393,-863.697C745.393,-852.846 745.393,-838.917 745.393,-828.104"/>
</g>
<!-- 216.58.204.46&#45;&#45;google.com -->
<g id="edge6" class="edge"><title>216.58.204.46&#45;&#45;google.com</title>
<path fill="none" stroke="black" d="M745.393,-791.697C745.393,-780.846 745.393,-766.917 745.393,-756.104"/>
</g>
<!-- 129.250.4.23 -->
<g id="node18" class="node"><title>129.250.4.23</title>
<polygon fill="lightgrey" stroke="black" points="919.893,-684 824.893,-684 824.893,-648 919.893,-648 919.893,-684"/>
<text text-anchor="middle" x="872.393" y="-662.3" font-family="Helvetica,sans-Serif" font-size="14.00">129.250.4.23</text>
</g>
<!-- 83.231.221.45&#45;&#45;129.250.4.23 -->
<g id="edge9" class="edge"><title>83.231.221.45&#45;&#45;129.250.4.23</title>
<path fill="none" stroke="black" d="M872.393,-719.697C872.393,-708.846 872.393,-694.917 872.393,-684.104"/>
</g>
<!-- 129.250.4.23&#45;&#45;instragram.com -->
<g id="edge46" class="edge"><title>129.250.4.23&#45;&#45;instragram.com</title>
<path fill="none" stroke="black" d="M889.449,-647.697C900.304,-636.684 914.286,-622.5 925.008,-611.622"/>
</g>
<!-- 129.250.2.18 -->
<g id="node19" class="node"><title>129.250.2.18</title>
<polygon fill="lightgrey" stroke="black" points="850.893,-612 755.893,-612 755.893,-576 850.893,-576 850.893,-612"/>
<text text-anchor="middle" x="803.393" y="-590.3" font-family="Helvetica,sans-Serif" font-size="14.00">129.250.2.18</text>
</g>
<!-- 129.250.4.23&#45;&#45;129.250.2.18 -->
<g id="edge10" class="edge"><title>129.250.4.23&#45;&#45;129.250.2.18</title>
<path fill="none" stroke="black" d="M855.337,-647.697C844.642,-636.846 830.911,-622.917 820.253,-612.104"/>
</g>
<!-- 129.250.3.207 -->
<g id="node20" class="node"><title>129.250.3.207</title>
<polygon fill="lightgrey" stroke="black" points="732.893,-540 629.893,-540 629.893,-504 732.893,-504 732.893,-540"/>
<text text-anchor="middle" x="681.393" y="-518.3" font-family="Helvetica,sans-Serif" font-size="14.00">129.250.3.207</text>
</g>
<!-- 129.250.2.18&#45;&#45;129.250.3.207 -->
<g id="edge11" class="edge"><title>129.250.2.18&#45;&#45;129.250.3.207</title>
<path fill="none" stroke="black" d="M773.549,-575.876C754.643,-565.029 730.28,-551.05 711.353,-540.19"/>
</g>
<!-- 129.250.3.181 -->
<g id="node26" class="node"><title>129.250.3.181</title>
<polygon fill="lightgrey" stroke="black" points="854.893,-540 751.893,-540 751.893,-504 854.893,-504 854.893,-540"/>
<text text-anchor="middle" x="803.393" y="-518.3" font-family="Helvetica,sans-Serif" font-size="14.00">129.250.3.181</text>
</g>
<!-- 129.250.2.18&#45;&#45;129.250.3.181 -->
<g id="edge19" class="edge"><title>129.250.2.18&#45;&#45;129.250.3.181</title>
<path fill="none" stroke="black" d="M803.393,-575.697C803.393,-564.846 803.393,-550.917 803.393,-540.104"/>
</g>
<!-- 129.250.4.13 -->
<g id="node40" class="node"><title>129.250.4.13</title>
<polygon fill="lightgrey" stroke="black" points="971.893,-540 876.893,-540 876.893,-504 971.893,-504 971.893,-540"/>
<text text-anchor="middle" x="924.393" y="-518.3" font-family="Helvetica,sans-Serif" font-size="14.00">129.250.4.13</text>
</g>
<!-- 129.250.2.18&#45;&#45;129.250.4.13 -->
<g id="edge36" class="edge"><title>129.250.2.18&#45;&#45;129.250.4.13</title>
<path fill="none" stroke="black" d="M832.993,-575.876C851.744,-565.029 875.907,-551.05 894.68,-540.19"/>
</g>
<!-- 129.250.2.149 -->
<g id="node21" class="node"><title>129.250.2.149</title>
<polygon fill="lightgrey" stroke="black" points="730.893,-468 627.893,-468 627.893,-432 730.893,-432 730.893,-468"/>
<text text-anchor="middle" x="679.393" y="-446.3" font-family="Helvetica,sans-Serif" font-size="14.00">129.250.2.149</text>
</g>
<!-- 129.250.3.207&#45;&#45;129.250.2.149 -->
<g id="edge12" class="edge"><title>129.250.3.207&#45;&#45;129.250.2.149</title>
<path fill="none" stroke="black" d="M680.899,-503.697C680.589,-492.846 680.191,-478.917 679.882,-468.104"/>
</g>
<!-- 129.250.2.20 -->
<g id="node22" class="node"><title>129.250.2.20</title>
<polygon fill="lightgrey" stroke="black" points="725.893,-396 630.893,-396 630.893,-360 725.893,-360 725.893,-396"/>
<text text-anchor="middle" x="678.393" y="-374.3" font-family="Helvetica,sans-Serif" font-size="14.00">129.250.2.20</text>
</g>
<!-- 129.250.2.149&#45;&#45;129.250.2.20 -->
<g id="edge13" class="edge"><title>129.250.2.149&#45;&#45;129.250.2.20</title>
<path fill="none" stroke="black" d="M679.146,-431.697C678.991,-420.846 678.792,-406.917 678.638,-396.104"/>
</g>
<!-- 129.250.2.20&#45;&#45;github.com -->
<g id="edge14" class="edge"><title>129.250.2.20&#45;&#45;github.com</title>
<path fill="none" stroke="black" d="M678.393,-359.697C678.393,-348.846 678.393,-334.917 678.393,-324.104"/>
</g>
<!-- 37.209.223.9 -->
<g id="node24" class="node"><title>37.209.223.9</title>
<polygon fill="lightgrey" stroke="black" points="122.893,-900 27.8933,-900 27.8933,-864 122.893,-864 122.893,-900"/>
<text text-anchor="middle" x="75.3933" y="-878.3" font-family="Helvetica,sans-Serif" font-size="14.00">37.209.223.9</text>
</g>
<!-- 5.57.80.32&#45;&#45;37.209.223.9 -->
<g id="edge16" class="edge"><title>5.57.80.32&#45;&#45;37.209.223.9</title>
<path fill="none" stroke="black" d="M75.3933,-935.697C75.3933,-924.846 75.3933,-910.917 75.3933,-900.104"/>
</g>
<!-- 37.209.223.57 -->
<g id="node25" class="node"><title>37.209.223.57</title>
<polygon fill="lightgrey" stroke="black" points="126.893,-828 23.8933,-828 23.8933,-792 126.893,-792 126.893,-828"/>
<text text-anchor="middle" x="75.3933" y="-806.3" font-family="Helvetica,sans-Serif" font-size="14.00">37.209.223.57</text>
</g>
<!-- 37.209.223.9&#45;&#45;37.209.223.57 -->
<g id="edge17" class="edge"><title>37.209.223.9&#45;&#45;37.209.223.57</title>
<path fill="none" stroke="black" d="M75.3933,-863.697C75.3933,-852.846 75.3933,-838.917 75.3933,-828.104"/>
</g>
<!-- 37.209.223.57&#45;&#45;silobrighton.com -->
<g id="edge18" class="edge"><title>37.209.223.57&#45;&#45;silobrighton.com</title>
<path fill="none" stroke="black" d="M75.3933,-791.697C75.3933,-780.846 75.3933,-766.917 75.3933,-756.104"/>
</g>
<!-- 129.250.3.94 -->
<g id="node27" class="node"><title>129.250.3.94</title>
<polygon fill="lightgrey" stroke="black" points="850.893,-468 755.893,-468 755.893,-432 850.893,-432 850.893,-468"/>
<text text-anchor="middle" x="803.393" y="-446.3" font-family="Helvetica,sans-Serif" font-size="14.00">129.250.3.94</text>
</g>
<!-- 129.250.3.181&#45;&#45;129.250.3.94 -->
<g id="edge20" class="edge"><title>129.250.3.181&#45;&#45;129.250.3.94</title>
<path fill="none" stroke="black" d="M803.393,-503.697C803.393,-492.846 803.393,-478.917 803.393,-468.104"/>
</g>
<!-- 129.250.201.138 -->
<g id="node28" class="node"><title>129.250.201.138</title>
<polygon fill="lightgrey" stroke="black" points="862.393,-396 744.393,-396 744.393,-360 862.393,-360 862.393,-396"/>
<text text-anchor="middle" x="803.393" y="-374.3" font-family="Helvetica,sans-Serif" font-size="14.00">129.250.201.138</text>
</g>
<!-- 129.250.3.94&#45;&#45;129.250.201.138 -->
<g id="edge21" class="edge"><title>129.250.3.94&#45;&#45;129.250.201.138</title>
<path fill="none" stroke="black" d="M803.393,-431.697C803.393,-420.846 803.393,-406.917 803.393,-396.104"/>
</g>
<!-- 54.239.42.98 -->
<g id="node29" class="node"><title>54.239.42.98</title>
<polygon fill="lightgrey" stroke="black" points="850.893,-324 755.893,-324 755.893,-288 850.893,-288 850.893,-324"/>
<text text-anchor="middle" x="803.393" y="-302.3" font-family="Helvetica,sans-Serif" font-size="14.00">54.239.42.98</text>
</g>
<!-- 129.250.201.138&#45;&#45;54.239.42.98 -->
<g id="edge22" class="edge"><title>129.250.201.138&#45;&#45;54.239.42.98</title>
<path fill="none" stroke="black" d="M803.393,-359.697C803.393,-348.846 803.393,-334.917 803.393,-324.104"/>
</g>
<!-- 54.239.111.85 -->
<g id="node30" class="node"><title>54.239.111.85</title>
<polygon fill="lightgrey" stroke="black" points="854.893,-252 751.893,-252 751.893,-216 854.893,-216 854.893,-252"/>
<text text-anchor="middle" x="803.393" y="-230.3" font-family="Helvetica,sans-Serif" font-size="14.00">54.239.111.85</text>
</g>
<!-- 54.239.42.98&#45;&#45;54.239.111.85 -->
<g id="edge23" class="edge"><title>54.239.42.98&#45;&#45;54.239.111.85</title>
<path fill="none" stroke="black" d="M803.393,-287.697C803.393,-276.846 803.393,-262.917 803.393,-252.104"/>
</g>
<!-- 54.239.110.225 -->
<g id="node31" class="node"><title>54.239.110.225</title>
<polygon fill="lightgrey" stroke="black" points="858.393,-180 748.393,-180 748.393,-144 858.393,-144 858.393,-180"/>
<text text-anchor="middle" x="803.393" y="-158.3" font-family="Helvetica,sans-Serif" font-size="14.00">54.239.110.225</text>
</g>
<!-- 54.239.111.85&#45;&#45;54.239.110.225 -->
<g id="edge24" class="edge"><title>54.239.111.85&#45;&#45;54.239.110.225</title>
<path fill="none" stroke="black" d="M803.393,-215.697C803.393,-204.846 803.393,-190.917 803.393,-180.104"/>
</g>
<!-- 52.93.24.183 -->
<g id="node32" class="node"><title>52.93.24.183</title>
<polygon fill="lightgrey" stroke="black" points="850.893,-108 755.893,-108 755.893,-72 850.893,-72 850.893,-108"/>
<text text-anchor="middle" x="803.393" y="-86.3" font-family="Helvetica,sans-Serif" font-size="14.00">52.93.24.183</text>
</g>
<!-- 54.239.110.225&#45;&#45;52.93.24.183 -->
<g id="edge25" class="edge"><title>54.239.110.225&#45;&#45;52.93.24.183</title>
<path fill="none" stroke="black" d="M803.393,-143.697C803.393,-132.846 803.393,-118.917 803.393,-108.104"/>
</g>
<!-- 52.93.24.183&#45;&#45;instagram.com -->
<g id="edge26" class="edge"><title>52.93.24.183&#45;&#45;instagram.com</title>
<path fill="none" stroke="black" d="M803.393,-71.6966C803.393,-60.8463 803.393,-46.9167 803.393,-36.1043"/>
</g>
<!-- 104.25.212.99 -->
<g id="node34" class="node"><title>104.25.212.99</title>
<polygon fill="lightgrey" stroke="black" points="425.893,-900 322.893,-900 322.893,-864 425.893,-864 425.893,-900"/>
<text text-anchor="middle" x="374.393" y="-878.3" font-family="Helvetica,sans-Serif" font-size="14.00">104.25.212.99</text>
</g>
<!-- 2.127.241.137&#45;&#45;104.25.212.99 -->
<g id="edge28" class="edge"><title>2.127.241.137&#45;&#45;104.25.212.99</title>
<path fill="none" stroke="black" d="M377.405,-935.697C376.785,-924.846 375.989,-910.917 375.371,-900.104"/>
</g>
<!-- 104.25.212.99&#45;&#45;monzo.com -->
<g id="edge29" class="edge"><title>104.25.212.99&#45;&#45;monzo.com</title>
<path fill="none" stroke="black" d="M373.899,-863.697C373.589,-852.846 373.191,-838.917 372.882,-828.104"/>
</g>
<!-- 80.88.212.56 -->
<g id="node36" class="node"><title>80.88.212.56</title>
<polygon fill="lightgrey" stroke="black" points="543.893,-900 448.893,-900 448.893,-864 543.893,-864 543.893,-900"/>
<text text-anchor="middle" x="496.393" y="-878.3" font-family="Helvetica,sans-Serif" font-size="14.00">80.88.212.56</text>
</g>
<!-- 5.57.80.240&#45;&#45;80.88.212.56 -->
<g id="edge31" class="edge"><title>5.57.80.240&#45;&#45;80.88.212.56</title>
<path fill="none" stroke="black" d="M493.382,-935.697C494.002,-924.846 494.798,-910.917 495.416,-900.104"/>
</g>
<!-- 80.88.202.138 -->
<g id="node37" class="node"><title>80.88.202.138</title>
<polygon fill="lightgrey" stroke="black" points="550.893,-828 447.893,-828 447.893,-792 550.893,-792 550.893,-828"/>
<text text-anchor="middle" x="499.393" y="-806.3" font-family="Helvetica,sans-Serif" font-size="14.00">80.88.202.138</text>
</g>
<!-- 80.88.212.56&#45;&#45;80.88.202.138 -->
<g id="edge32" class="edge"><title>80.88.212.56&#45;&#45;80.88.202.138</title>
<path fill="none" stroke="black" d="M497.135,-863.697C497.6,-852.846 498.197,-838.917 498.66,-828.104"/>
</g>
<!-- 213.129.70.253 -->
<g id="node38" class="node"><title>213.129.70.253</title>
<polygon fill="lightgrey" stroke="black" points="554.393,-756 444.393,-756 444.393,-720 554.393,-720 554.393,-756"/>
<text text-anchor="middle" x="499.393" y="-734.3" font-family="Helvetica,sans-Serif" font-size="14.00">213.129.70.253</text>
</g>
<!-- 80.88.202.138&#45;&#45;213.129.70.253 -->
<g id="edge33" class="edge"><title>80.88.202.138&#45;&#45;213.129.70.253</title>
<path fill="none" stroke="black" d="M499.393,-791.697C499.393,-780.846 499.393,-766.917 499.393,-756.104"/>
</g>
<!-- 213.129.70.237 -->
<g id="node39" class="node"><title>213.129.70.237</title>
<polygon fill="lightgrey" stroke="black" points="554.393,-684 444.393,-684 444.393,-648 554.393,-648 554.393,-684"/>
<text text-anchor="middle" x="499.393" y="-662.3" font-family="Helvetica,sans-Serif" font-size="14.00">213.129.70.237</text>
</g>
<!-- 213.129.70.253&#45;&#45;213.129.70.237 -->
<g id="edge34" class="edge"><title>213.129.70.253&#45;&#45;213.129.70.237</title>
<path fill="none" stroke="black" d="M499.393,-719.697C499.393,-708.846 499.393,-694.917 499.393,-684.104"/>
</g>
<!-- 213.129.70.237&#45;&#45;infinityfoods.coop -->
<g id="edge35" class="edge"><title>213.129.70.237&#45;&#45;infinityfoods.coop</title>
<path fill="none" stroke="black" d="M499.393,-647.697C499.393,-636.846 499.393,-622.917 499.393,-612.104"/>
</g>
<!-- 129.250.2.45 -->
<g id="node41" class="node"><title>129.250.2.45</title>
<polygon fill="lightgrey" stroke="black" points="973.893,-468 878.893,-468 878.893,-432 973.893,-432 973.893,-468"/>
<text text-anchor="middle" x="926.393" y="-446.3" font-family="Helvetica,sans-Serif" font-size="14.00">129.250.2.45</text>
</g>
<!-- 129.250.4.13&#45;&#45;129.250.2.45 -->
<g id="edge37" class="edge"><title>129.250.4.13&#45;&#45;129.250.2.45</title>
<path fill="none" stroke="black" d="M924.888,-503.697C925.198,-492.846 925.596,-478.917 925.905,-468.104"/>
</g>
<!-- 129.250.5.86 -->
<g id="node42" class="node"><title>129.250.5.86</title>
<polygon fill="lightgrey" stroke="black" points="975.893,-396 880.893,-396 880.893,-360 975.893,-360 975.893,-396"/>
<text text-anchor="middle" x="928.393" y="-374.3" font-family="Helvetica,sans-Serif" font-size="14.00">129.250.5.86</text>
</g>
<!-- 129.250.2.45&#45;&#45;129.250.5.86 -->
<g id="edge38" class="edge"><title>129.250.2.45&#45;&#45;129.250.5.86</title>
<path fill="none" stroke="black" d="M926.888,-431.697C927.198,-420.846 927.596,-406.917 927.905,-396.104"/>
</g>
<!-- 129.250.5.86&#45;&#45;roli.com -->
<g id="edge39" class="edge"><title>129.250.5.86&#45;&#45;roli.com</title>
<path fill="none" stroke="black" d="M928.393,-359.697C928.393,-348.846 928.393,-334.917 928.393,-324.104"/>
</g>
<!-- 89.200.131.151 -->
<g id="node44" class="node"><title>89.200.131.151</title>
<polygon fill="lightgrey" stroke="black" points="925.393,-972 815.393,-972 815.393,-936 925.393,-936 925.393,-972"/>
<text text-anchor="middle" x="870.393" y="-950.3" font-family="Helvetica,sans-Serif" font-size="14.00">89.200.131.151</text>
</g>
<!-- 84.38.37.36&#45;&#45;89.200.131.151 -->
<g id="edge42" class="edge"><title>84.38.37.36&#45;&#45;89.200.131.151</title>
<path fill="none" stroke="black" d="M805.652,-1007.7C818.982,-996.846 836.096,-982.917 849.379,-972.104"/>
</g>
<!-- 10.246.104.21 -->
<g id="node45" class="node"><title>10.246.104.21</title>
<polygon fill="lightgrey" stroke="black" points="925.893,-900 822.893,-900 822.893,-864 925.893,-864 925.893,-900"/>
<text text-anchor="middle" x="874.393" y="-878.3" font-family="Helvetica,sans-Serif" font-size="14.00">10.246.104.21</text>
</g>
<!-- 89.200.131.151&#45;&#45;10.246.104.21 -->
<g id="edge43" class="edge"><title>89.200.131.151&#45;&#45;10.246.104.21</title>
<path fill="none" stroke="black" d="M871.382,-935.697C872.002,-924.846 872.798,-910.917 873.416,-900.104"/>
</g>
<!-- 2.120.8.74 -->
<g id="node46" class="node"><title>2.120.8.74</title>
<polygon fill="lightgrey" stroke="black" points="913.393,-828 833.393,-828 833.393,-792 913.393,-792 913.393,-828"/>
<text text-anchor="middle" x="873.393" y="-806.3" font-family="Helvetica,sans-Serif" font-size="14.00">2.120.8.74</text>
</g>
<!-- 10.246.104.21&#45;&#45;2.120.8.74 -->
<g id="edge44" class="edge"><title>10.246.104.21&#45;&#45;2.120.8.74</title>
<path fill="none" stroke="black" d="M874.146,-863.697C873.991,-852.846 873.792,-838.917 873.638,-828.104"/>
</g>
<!-- 2.120.8.74&#45;&#45;83.231.221.45 -->
<g id="edge45" class="edge"><title>2.120.8.74&#45;&#45;83.231.221.45</title>
<path fill="none" stroke="black" d="M873.146,-791.697C872.991,-780.846 872.792,-766.917 872.638,-756.104"/>
</g>
</g>
</svg>
