<?xml version="1.0" encoding="UTF-8" standalone="no"?>
<!DOCTYPE svg PUBLIC "-//W3C//DTD SVG 1.1//EN"
 "http://www.w3.org/Graphics/SVG/1.1/DTD/svg11.dtd">
<!-- Generated by graphviz version 2.38.0 (20140413.2041)
 -->
<!-- Title: %3 Pages: 1 -->
<svg width="683pt" height="836pt"
 viewBox="0.00 0.00 682.70 836.00" xmlns="http://www.w3.org/2000/svg" xmlns:xlink="http://www.w3.org/1999/xlink">
<g id="graph0" class="graph" transform="scale(1 1) rotate(0) translate(4 832)">
<title>%3</title>
<polygon fill="white" stroke="none" points="-4,4 -4,-832 678.697,-832 678.697,4 -4,4"/>
<!-- soy yo -->
<g id="node1" class="node"><title>soy yo</title>
<ellipse fill="green" stroke="black" cx="401" cy="-810" rx="36.2938" ry="18"/>
<text text-anchor="middle" x="401" y="-806.3" font-family="Helvetica,sans-Serif" font-size="14.00" fill="white">soy yo</text>
</g>
<!-- 10.101.0.1 -->
<g id="node2" class="node"><title>10.101.0.1</title>
<polygon fill="lightgrey" stroke="black" points="441,-756 361,-756 361,-720 441,-720 441,-756"/>
<text text-anchor="middle" x="401" y="-734.3" font-family="Helvetica,sans-Serif" font-size="14.00">10.101.0.1</text>
</g>
<!-- soy yo&#45;&#45;10.101.0.1 -->
<g id="edge1" class="edge"><title>soy yo&#45;&#45;10.101.0.1</title>
<path fill="none" stroke="black" d="M401,-791.697C401,-780.846 401,-766.917 401,-756.104"/>
</g>
<!-- 10.248.96.1 -->
<g id="node3" class="node"><title>10.248.96.1</title>
<polygon fill="lightgrey" stroke="black" points="445,-684 357,-684 357,-648 445,-648 445,-684"/>
<text text-anchor="middle" x="401" y="-662.3" font-family="Helvetica,sans-Serif" font-size="14.00">10.248.96.1</text>
</g>
<!-- 10.101.0.1&#45;&#45;10.248.96.1 -->
<g id="edge2" class="edge"><title>10.101.0.1&#45;&#45;10.248.96.1</title>
<path fill="none" stroke="black" d="M401,-719.697C401,-708.846 401,-694.917 401,-684.104"/>
</g>
<!-- 172.29.32.3 -->
<g id="node4" class="node"><title>172.29.32.3</title>
<polygon fill="lightgrey" stroke="black" points="445,-612 357,-612 357,-576 445,-576 445,-612"/>
<text text-anchor="middle" x="401" y="-590.3" font-family="Helvetica,sans-Serif" font-size="14.00">172.29.32.3</text>
</g>
<!-- 10.248.96.1&#45;&#45;172.29.32.3 -->
<g id="edge3" class="edge"><title>10.248.96.1&#45;&#45;172.29.32.3</title>
<path fill="none" stroke="black" d="M401,-647.697C401,-636.846 401,-622.917 401,-612.104"/>
</g>
<!-- 176.12.107.130 -->
<g id="node5" class="node"><title>176.12.107.130</title>
<polygon fill="lightgrey" stroke="black" points="456,-540 346,-540 346,-504 456,-504 456,-540"/>
<text text-anchor="middle" x="401" y="-518.3" font-family="Helvetica,sans-Serif" font-size="14.00">176.12.107.130</text>
</g>
<!-- 172.29.32.3&#45;&#45;176.12.107.130 -->
<g id="edge4" class="edge"><title>172.29.32.3&#45;&#45;176.12.107.130</title>
<path fill="none" stroke="black" d="M401,-575.697C401,-564.846 401,-550.917 401,-540.104"/>
</g>
<!-- 109.74.255.251 -->
<g id="node6" class="node"><title>109.74.255.251</title>
<polygon fill="lightgrey" stroke="black" points="303,-468 193,-468 193,-432 303,-432 303,-468"/>
<text text-anchor="middle" x="248" y="-446.3" font-family="Helvetica,sans-Serif" font-size="14.00">109.74.255.251</text>
</g>
<!-- 176.12.107.130&#45;&#45;109.74.255.251 -->
<g id="edge5" class="edge"><title>176.12.107.130&#45;&#45;109.74.255.251</title>
<path fill="none" stroke="black" d="M363.572,-503.876C339.774,-492.988 309.081,-478.945 285.306,-468.068"/>
</g>
<!-- 109.74.255.242 -->
<g id="node12" class="node"><title>109.74.255.242</title>
<polygon fill="lightgrey" stroke="black" points="545,-468 435,-468 435,-432 545,-432 545,-468"/>
<text text-anchor="middle" x="490" y="-446.3" font-family="Helvetica,sans-Serif" font-size="14.00">109.74.255.242</text>
</g>
<!-- 176.12.107.130&#45;&#45;109.74.255.242 -->
<g id="edge11" class="edge"><title>176.12.107.130&#45;&#45;109.74.255.242</title>
<path fill="none" stroke="black" d="M423,-503.697C436.795,-492.846 454.506,-478.917 468.253,-468.104"/>
</g>
<!-- 5.57.80.136 -->
<g id="node7" class="node"><title>5.57.80.136</title>
<polygon fill="lightgrey" stroke="black" points="107,-396 19,-396 19,-360 107,-360 107,-396"/>
<text text-anchor="middle" x="63" y="-374.3" font-family="Helvetica,sans-Serif" font-size="14.00">5.57.80.136</text>
</g>
<!-- 109.74.255.251&#45;&#45;5.57.80.136 -->
<g id="edge6" class="edge"><title>109.74.255.251&#45;&#45;5.57.80.136</title>
<path fill="none" stroke="black" d="M202.744,-431.876C173.648,-420.867 136.027,-406.632 107.15,-395.706"/>
</g>
<!-- 104.244.42.193 -->
<g id="node16" class="node"><title>104.244.42.193</title>
<polygon fill="lightgrey" stroke="black" points="239,-396 129,-396 129,-360 239,-360 239,-396"/>
<text text-anchor="middle" x="184" y="-374.3" font-family="Helvetica,sans-Serif" font-size="14.00">104.244.42.193</text>
</g>
<!-- 109.74.255.251&#45;&#45;104.244.42.193 -->
<g id="edge15" class="edge"><title>109.74.255.251&#45;&#45;104.244.42.193</title>
<path fill="none" stroke="black" d="M232.18,-431.697C222.259,-420.846 209.524,-406.917 199.638,-396.104"/>
</g>
<!-- 195.66.225.121 -->
<g id="node18" class="node"><title>195.66.225.121</title>
<polygon fill="lightgrey" stroke="black" points="367,-396 257,-396 257,-360 367,-360 367,-396"/>
<text text-anchor="middle" x="312" y="-374.3" font-family="Helvetica,sans-Serif" font-size="14.00">195.66.225.121</text>
</g>
<!-- 109.74.255.251&#45;&#45;195.66.225.121 -->
<g id="edge17" class="edge"><title>109.74.255.251&#45;&#45;195.66.225.121</title>
<path fill="none" stroke="black" d="M263.82,-431.697C273.741,-420.846 286.476,-406.917 296.362,-396.104"/>
</g>
<!-- 108.170.246.193 -->
<g id="node8" class="node"><title>108.170.246.193</title>
<polygon fill="lightgrey" stroke="black" points="118,-324 0,-324 0,-288 118,-288 118,-324"/>
<text text-anchor="middle" x="59" y="-302.3" font-family="Helvetica,sans-Serif" font-size="14.00">108.170.246.193</text>
</g>
<!-- 5.57.80.136&#45;&#45;108.170.246.193 -->
<g id="edge7" class="edge"><title>5.57.80.136&#45;&#45;108.170.246.193</title>
<path fill="none" stroke="black" d="M62.0112,-359.697C61.3912,-348.846 60.5952,-334.917 59.9774,-324.104"/>
</g>
<!-- 108.170.238.147 -->
<g id="node9" class="node"><title>108.170.238.147</title>
<polygon fill="lightgrey" stroke="black" points="118,-252 0,-252 0,-216 118,-216 118,-252"/>
<text text-anchor="middle" x="59" y="-230.3" font-family="Helvetica,sans-Serif" font-size="14.00">108.170.238.147</text>
</g>
<!-- 108.170.246.193&#45;&#45;108.170.238.147 -->
<g id="edge8" class="edge"><title>108.170.246.193&#45;&#45;108.170.238.147</title>
<path fill="none" stroke="black" d="M59,-287.697C59,-276.846 59,-262.917 59,-252.104"/>
</g>
<!-- 216.58.204.14 -->
<g id="node10" class="node"><title>216.58.204.14</title>
<polygon fill="lightgrey" stroke="black" points="110.5,-180 7.5,-180 7.5,-144 110.5,-144 110.5,-180"/>
<text text-anchor="middle" x="59" y="-158.3" font-family="Helvetica,sans-Serif" font-size="14.00">216.58.204.14</text>
</g>
<!-- 108.170.238.147&#45;&#45;216.58.204.14 -->
<g id="edge9" class="edge"><title>108.170.238.147&#45;&#45;216.58.204.14</title>
<path fill="none" stroke="black" d="M59,-215.697C59,-204.846 59,-190.917 59,-180.104"/>
</g>
<!-- google.com -->
<g id="node11" class="node"><title>google.com</title>
<ellipse fill="orange" stroke="black" cx="59" cy="-90" rx="56.59" ry="18"/>
<text text-anchor="middle" x="59" y="-86.3" font-family="Helvetica,sans-Serif" font-size="14.00" fill="white">google.com</text>
</g>
<!-- 216.58.204.14&#45;&#45;google.com -->
<g id="edge10" class="edge"><title>216.58.204.14&#45;&#45;google.com</title>
<path fill="none" stroke="black" d="M59,-143.697C59,-132.846 59,-118.917 59,-108.104"/>
</g>
<!-- 109.74.255.81 -->
<g id="node13" class="node"><title>109.74.255.81</title>
<polygon fill="lightgrey" stroke="black" points="488.5,-396 385.5,-396 385.5,-360 488.5,-360 488.5,-396"/>
<text text-anchor="middle" x="437" y="-374.3" font-family="Helvetica,sans-Serif" font-size="14.00">109.74.255.81</text>
</g>
<!-- 109.74.255.242&#45;&#45;109.74.255.81 -->
<g id="edge12" class="edge"><title>109.74.255.242&#45;&#45;109.74.255.81</title>
<path fill="none" stroke="black" d="M476.899,-431.697C468.684,-420.846 458.137,-406.917 449.95,-396.104"/>
</g>
<!-- 4.4.4.4 -->
<g id="node24" class="node"><title>4.4.4.4</title>
<ellipse fill="orange" stroke="black" cx="544" cy="-378" rx="37.8943" ry="18"/>
<text text-anchor="middle" x="544" y="-374.3" font-family="Helvetica,sans-Serif" font-size="14.00" fill="white">4.4.4.4</text>
</g>
<!-- 109.74.255.242&#45;&#45;4.4.4.4 -->
<g id="edge23" class="edge"><title>109.74.255.242&#45;&#45;4.4.4.4</title>
<path fill="none" stroke="black" d="M503.348,-431.697C511.968,-420.522 523.108,-406.082 531.546,-395.145"/>
</g>
<!-- 4.4.8.8 -->
<g id="node25" class="node"><title>4.4.8.8</title>
<ellipse fill="orange" stroke="black" cx="637" cy="-378" rx="37.8943" ry="18"/>
<text text-anchor="middle" x="637" y="-374.3" font-family="Helvetica,sans-Serif" font-size="14.00" fill="white">4.4.8.8</text>
</g>
<!-- 109.74.255.242&#45;&#45;4.4.8.8 -->
<g id="edge24" class="edge"><title>109.74.255.242&#45;&#45;4.4.8.8</title>
<path fill="none" stroke="black" d="M525.96,-431.876C552.31,-419.329 587.458,-402.591 611.091,-391.338"/>
</g>
<!-- 4.15.136.22 -->
<g id="node14" class="node"><title>4.15.136.22</title>
<polygon fill="lightgrey" stroke="black" points="481,-324 393,-324 393,-288 481,-288 481,-324"/>
<text text-anchor="middle" x="437" y="-302.3" font-family="Helvetica,sans-Serif" font-size="14.00">4.15.136.22</text>
</g>
<!-- 109.74.255.81&#45;&#45;4.15.136.22 -->
<g id="edge13" class="edge"><title>109.74.255.81&#45;&#45;4.15.136.22</title>
<path fill="none" stroke="black" d="M437,-359.697C437,-348.846 437,-334.917 437,-324.104"/>
</g>
<!-- github.com -->
<g id="node15" class="node"><title>github.com</title>
<ellipse fill="orange" stroke="black" cx="438" cy="-234" rx="53.8905" ry="18"/>
<text text-anchor="middle" x="438" y="-230.3" font-family="Helvetica,sans-Serif" font-size="14.00" fill="white">github.com</text>
</g>
<!-- 4.15.136.22&#45;&#45;github.com -->
<g id="edge14" class="edge"><title>4.15.136.22&#45;&#45;github.com</title>
<path fill="none" stroke="black" d="M437.247,-287.697C437.402,-276.846 437.601,-262.917 437.756,-252.104"/>
</g>
<!-- twitter.com -->
<g id="node17" class="node"><title>twitter.com</title>
<ellipse fill="orange" stroke="black" cx="190" cy="-306" rx="53.8905" ry="18"/>
<text text-anchor="middle" x="190" y="-302.3" font-family="Helvetica,sans-Serif" font-size="14.00" fill="white">twitter.com</text>
</g>
<!-- 104.244.42.193&#45;&#45;twitter.com -->
<g id="edge16" class="edge"><title>104.244.42.193&#45;&#45;twitter.com</title>
<path fill="none" stroke="black" d="M185.483,-359.697C186.413,-348.846 187.607,-334.917 188.534,-324.104"/>
</g>
<!-- 31.13.31.64 -->
<g id="node19" class="node"><title>31.13.31.64</title>
<polygon fill="lightgrey" stroke="black" points="356,-324 268,-324 268,-288 356,-288 356,-324"/>
<text text-anchor="middle" x="312" y="-302.3" font-family="Helvetica,sans-Serif" font-size="14.00">31.13.31.64</text>
</g>
<!-- 195.66.225.121&#45;&#45;31.13.31.64 -->
<g id="edge18" class="edge"><title>195.66.225.121&#45;&#45;31.13.31.64</title>
<path fill="none" stroke="black" d="M312,-359.697C312,-348.846 312,-334.917 312,-324.104"/>
</g>
<!-- 157.240.35.231 -->
<g id="node20" class="node"><title>157.240.35.231</title>
<polygon fill="lightgrey" stroke="black" points="366,-252 256,-252 256,-216 366,-216 366,-252"/>
<text text-anchor="middle" x="311" y="-230.3" font-family="Helvetica,sans-Serif" font-size="14.00">157.240.35.231</text>
</g>
<!-- 31.13.31.64&#45;&#45;157.240.35.231 -->
<g id="edge19" class="edge"><title>31.13.31.64&#45;&#45;157.240.35.231</title>
<path fill="none" stroke="black" d="M311.753,-287.697C311.598,-276.846 311.399,-262.917 311.244,-252.104"/>
</g>
<!-- 173.252.67.189 -->
<g id="node21" class="node"><title>173.252.67.189</title>
<polygon fill="lightgrey" stroke="black" points="366,-180 256,-180 256,-144 366,-144 366,-180"/>
<text text-anchor="middle" x="311" y="-158.3" font-family="Helvetica,sans-Serif" font-size="14.00">173.252.67.189</text>
</g>
<!-- 157.240.35.231&#45;&#45;173.252.67.189 -->
<g id="edge20" class="edge"><title>157.240.35.231&#45;&#45;173.252.67.189</title>
<path fill="none" stroke="black" d="M311,-215.697C311,-204.846 311,-190.917 311,-180.104"/>
</g>
<!-- 31.13.90.36 -->
<g id="node22" class="node"><title>31.13.90.36</title>
<polygon fill="lightgrey" stroke="black" points="355,-108 267,-108 267,-72 355,-72 355,-108"/>
<text text-anchor="middle" x="311" y="-86.3" font-family="Helvetica,sans-Serif" font-size="14.00">31.13.90.36</text>
</g>
<!-- 173.252.67.189&#45;&#45;31.13.90.36 -->
<g id="edge21" class="edge"><title>173.252.67.189&#45;&#45;31.13.90.36</title>
<path fill="none" stroke="black" d="M311,-143.697C311,-132.846 311,-118.917 311,-108.104"/>
</g>
<!-- facebook.com -->
<g id="node23" class="node"><title>facebook.com</title>
<ellipse fill="orange" stroke="black" cx="311" cy="-18" rx="65.7887" ry="18"/>
<text text-anchor="middle" x="311" y="-14.3" font-family="Helvetica,sans-Serif" font-size="14.00" fill="white">facebook.com</text>
</g>
<!-- 31.13.90.36&#45;&#45;facebook.com -->
<g id="edge22" class="edge"><title>31.13.90.36&#45;&#45;facebook.com</title>
<path fill="none" stroke="black" d="M311,-71.6966C311,-60.8463 311,-46.9167 311,-36.1043"/>
</g>
</g>
</svg>
