<?xml version="1.0" encoding="UTF-8" standalone="no"?>
<!DOCTYPE svg PUBLIC "-//W3C//DTD SVG 1.1//EN"
 "http://www.w3.org/Graphics/SVG/1.1/DTD/svg11.dtd">
<!-- Generated by graphviz version 2.38.0 (20140413.2041)
 -->
<!-- Title: %3 Pages: 1 -->
<svg width="154pt" height="1124pt"
 viewBox="0.00 0.00 154.04 1124.00" xmlns="http://www.w3.org/2000/svg" xmlns:xlink="http://www.w3.org/1999/xlink">
<g id="graph0" class="graph" transform="scale(1 1) rotate(0) translate(4 1120)">
<title>%3</title>
<polygon fill="white" stroke="none" points="-4,4 -4,-1120 150.039,-1120 150.039,4 -4,4"/>
<!-- soy&#45;yo -->
<g id="node1" class="node"><title>soy&#45;yo</title>
<ellipse fill="none" stroke="black" cx="66.2941" cy="-1098" rx="34.394" ry="18"/>
<text text-anchor="middle" x="66.2941" y="-1094.3" font-family="Times,serif" font-size="14.00">soy&#45;yo</text>
</g>
<!-- 172.20.10.1 -->
<g id="node2" class="node"><title>172.20.10.1</title>
<ellipse fill="none" stroke="black" cx="66.2941" cy="-1026" rx="53.0913" ry="18"/>
<text text-anchor="middle" x="66.2941" y="-1022.3" font-family="Times,serif" font-size="14.00">172.20.10.1</text>
</g>
<!-- soy&#45;yo&#45;&#45;172.20.10.1 -->
<g id="edge1" class="edge"><title>soy&#45;yo&#45;&#45;172.20.10.1</title>
<path fill="none" stroke="black" d="M66.2941,-1079.7C66.2941,-1068.85 66.2941,-1054.92 66.2941,-1044.1"/>
</g>
<!-- 10.248.28.145 -->
<g id="node3" class="node"><title>10.248.28.145</title>
<ellipse fill="none" stroke="black" cx="66.2941" cy="-954" rx="61.99" ry="18"/>
<text text-anchor="middle" x="66.2941" y="-950.3" font-family="Times,serif" font-size="14.00">10.248.28.145</text>
</g>
<!-- 172.20.10.1&#45;&#45;10.248.28.145 -->
<g id="edge2" class="edge"><title>172.20.10.1&#45;&#45;10.248.28.145</title>
<path fill="none" stroke="black" d="M66.2941,-1007.7C66.2941,-996.846 66.2941,-982.917 66.2941,-972.104"/>
</g>
<!-- 10.247.84.6 -->
<g id="node4" class="node"><title>10.247.84.6</title>
<ellipse fill="none" stroke="black" cx="66.2941" cy="-882" rx="53.0913" ry="18"/>
<text text-anchor="middle" x="66.2941" y="-878.3" font-family="Times,serif" font-size="14.00">10.247.84.6</text>
</g>
<!-- 10.248.28.145&#45;&#45;10.247.84.6 -->
<g id="edge3" class="edge"><title>10.248.28.145&#45;&#45;10.247.84.6</title>
<path fill="none" stroke="black" d="M66.2941,-935.697C66.2941,-924.846 66.2941,-910.917 66.2941,-900.104"/>
</g>
<!-- 10.247.84.9 -->
<g id="node5" class="node"><title>10.247.84.9</title>
<ellipse fill="none" stroke="black" cx="66.2941" cy="-810" rx="53.0913" ry="18"/>
<text text-anchor="middle" x="66.2941" y="-806.3" font-family="Times,serif" font-size="14.00">10.247.84.9</text>
</g>
<!-- 10.247.84.6&#45;&#45;10.247.84.9 -->
<g id="edge4" class="edge"><title>10.247.84.6&#45;&#45;10.247.84.9</title>
<path fill="none" stroke="black" d="M66.2941,-863.697C66.2941,-852.846 66.2941,-838.917 66.2941,-828.104"/>
</g>
<!-- 87.237.20.224 -->
<g id="node6" class="node"><title>87.237.20.224</title>
<ellipse fill="none" stroke="black" cx="66.2941" cy="-738" rx="61.99" ry="18"/>
<text text-anchor="middle" x="66.2941" y="-734.3" font-family="Times,serif" font-size="14.00">87.237.20.224</text>
</g>
<!-- 10.247.84.9&#45;&#45;87.237.20.224 -->
<g id="edge5" class="edge"><title>10.247.84.9&#45;&#45;87.237.20.224</title>
<path fill="none" stroke="black" d="M66.2941,-791.697C66.2941,-780.846 66.2941,-766.917 66.2941,-756.104"/>
</g>
<!-- 87.237.20.73 -->
<g id="node7" class="node"><title>87.237.20.73</title>
<ellipse fill="none" stroke="black" cx="66.2941" cy="-666" rx="57.6901" ry="18"/>
<text text-anchor="middle" x="66.2941" y="-662.3" font-family="Times,serif" font-size="14.00">87.237.20.73</text>
</g>
<!-- 87.237.20.224&#45;&#45;87.237.20.73 -->
<g id="edge6" class="edge"><title>87.237.20.224&#45;&#45;87.237.20.73</title>
<path fill="none" stroke="black" d="M66.2941,-719.697C66.2941,-708.846 66.2941,-694.917 66.2941,-684.104"/>
</g>
<!-- 87.237.20.36 -->
<g id="node8" class="node"><title>87.237.20.36</title>
<ellipse fill="none" stroke="black" cx="66.2941" cy="-594" rx="57.6901" ry="18"/>
<text text-anchor="middle" x="66.2941" y="-590.3" font-family="Times,serif" font-size="14.00">87.237.20.36</text>
</g>
<!-- 87.237.20.73&#45;&#45;87.237.20.36 -->
<g id="edge7" class="edge"><title>87.237.20.73&#45;&#45;87.237.20.36</title>
<path fill="none" stroke="black" d="M66.2941,-647.697C66.2941,-636.846 66.2941,-622.917 66.2941,-612.104"/>
</g>
<!-- 80.150.171.93 -->
<g id="node9" class="node"><title>80.150.171.93</title>
<ellipse fill="none" stroke="black" cx="66.2941" cy="-522" rx="61.99" ry="18"/>
<text text-anchor="middle" x="66.2941" y="-518.3" font-family="Times,serif" font-size="14.00">80.150.171.93</text>
</g>
<!-- 87.237.20.36&#45;&#45;80.150.171.93 -->
<g id="edge8" class="edge"><title>87.237.20.36&#45;&#45;80.150.171.93</title>
<path fill="none" stroke="black" d="M66.2941,-575.697C66.2941,-564.846 66.2941,-550.917 66.2941,-540.104"/>
</g>
<!-- 80.150.170.106 -->
<g id="node10" class="node"><title>80.150.170.106</title>
<ellipse fill="none" stroke="black" cx="66.2941" cy="-450" rx="66.0889" ry="18"/>
<text text-anchor="middle" x="66.2941" y="-446.3" font-family="Times,serif" font-size="14.00">80.150.170.106</text>
</g>
<!-- 80.150.171.93&#45;&#45;80.150.170.106 -->
<g id="edge9" class="edge"><title>80.150.171.93&#45;&#45;80.150.170.106</title>
<path fill="none" stroke="black" d="M66.2941,-503.697C66.2941,-492.846 66.2941,-478.917 66.2941,-468.104"/>
</g>
<!-- 129.250.4.23 -->
<g id="node11" class="node"><title>129.250.4.23</title>
<ellipse fill="none" stroke="black" cx="66.2941" cy="-378" rx="57.6901" ry="18"/>
<text text-anchor="middle" x="66.2941" y="-374.3" font-family="Times,serif" font-size="14.00">129.250.4.23</text>
</g>
<!-- 80.150.170.106&#45;&#45;129.250.4.23 -->
<g id="edge10" class="edge"><title>80.150.170.106&#45;&#45;129.250.4.23</title>
<path fill="none" stroke="black" d="M66.2941,-431.697C66.2941,-420.846 66.2941,-406.917 66.2941,-396.104"/>
</g>
<!-- 129.250.2.18 -->
<g id="node12" class="node"><title>129.250.2.18</title>
<ellipse fill="none" stroke="black" cx="66.2941" cy="-306" rx="57.6901" ry="18"/>
<text text-anchor="middle" x="66.2941" y="-302.3" font-family="Times,serif" font-size="14.00">129.250.2.18</text>
</g>
<!-- 129.250.4.23&#45;&#45;129.250.2.18 -->
<g id="edge11" class="edge"><title>129.250.4.23&#45;&#45;129.250.2.18</title>
<path fill="none" stroke="black" d="M66.2941,-359.697C66.2941,-348.846 66.2941,-334.917 66.2941,-324.104"/>
</g>
<!-- 129.250.3.207 -->
<g id="node13" class="node"><title>129.250.3.207</title>
<ellipse fill="none" stroke="black" cx="66.2941" cy="-234" rx="61.99" ry="18"/>
<text text-anchor="middle" x="66.2941" y="-230.3" font-family="Times,serif" font-size="14.00">129.250.3.207</text>
</g>
<!-- 129.250.2.18&#45;&#45;129.250.3.207 -->
<g id="edge12" class="edge"><title>129.250.2.18&#45;&#45;129.250.3.207</title>
<path fill="none" stroke="black" d="M66.2941,-287.697C66.2941,-276.846 66.2941,-262.917 66.2941,-252.104"/>
</g>
<!-- 129.250.2.149 -->
<g id="node14" class="node"><title>129.250.2.149</title>
<ellipse fill="none" stroke="black" cx="66.2941" cy="-162" rx="61.99" ry="18"/>
<text text-anchor="middle" x="66.2941" y="-158.3" font-family="Times,serif" font-size="14.00">129.250.2.149</text>
</g>
<!-- 129.250.3.207&#45;&#45;129.250.2.149 -->
<g id="edge13" class="edge"><title>129.250.3.207&#45;&#45;129.250.2.149</title>
<path fill="none" stroke="black" d="M66.2941,-215.697C66.2941,-204.846 66.2941,-190.917 66.2941,-180.104"/>
</g>
<!-- 129.250.2.20 -->
<g id="node15" class="node"><title>129.250.2.20</title>
<ellipse fill="none" stroke="black" cx="66.2941" cy="-90" rx="57.6901" ry="18"/>
<text text-anchor="middle" x="66.2941" y="-86.3" font-family="Times,serif" font-size="14.00">129.250.2.20</text>
</g>
<!-- 129.250.2.149&#45;&#45;129.250.2.20 -->
<g id="edge14" class="edge"><title>129.250.2.149&#45;&#45;129.250.2.20</title>
<path fill="none" stroke="black" d="M66.2941,-143.697C66.2941,-132.846 66.2941,-118.917 66.2941,-108.104"/>
</g>
<!-- 129.250.5.182 -->
<g id="node16" class="node"><title>129.250.5.182</title>
<ellipse fill="none" stroke="black" cx="66.2941" cy="-18" rx="61.99" ry="18"/>
<text text-anchor="middle" x="66.2941" y="-14.3" font-family="Times,serif" font-size="14.00">129.250.5.182</text>
</g>
<!-- 129.250.2.20&#45;&#45;129.250.5.182 -->
<g id="edge15" class="edge"><title>129.250.2.20&#45;&#45;129.250.5.182</title>
<path fill="none" stroke="black" d="M66.2941,-71.6966C66.2941,-60.8463 66.2941,-46.9167 66.2941,-36.1043"/>
</g>
<!-- 129.250.5.182&#45;&#45;129.250.5.182 -->
<g id="edge16" class="edge"><title>129.250.5.182&#45;&#45;129.250.5.182</title>
<path fill="none" stroke="black" d="M108.549,-31.2025C128.509,-32.7368 146.039,-28.3359 146.039,-18 146.039,-7.66406 128.509,-3.26321 108.549,-4.79745"/>
</g>
</g>
</svg>
