<?xml version="1.0" encoding="UTF-8" standalone="no"?>
<!DOCTYPE svg PUBLIC "-//W3C//DTD SVG 1.1//EN"
 "http://www.w3.org/Graphics/SVG/1.1/DTD/svg11.dtd">
<!-- Generated by graphviz version 2.38.0 (20140413.2041)
 -->
<!-- Title: %3 Pages: 1 -->
<svg width="791pt" height="692pt"
 viewBox="0.00 0.00 790.94 692.00" xmlns="http://www.w3.org/2000/svg" xmlns:xlink="http://www.w3.org/1999/xlink">
<g id="graph0" class="graph" transform="scale(1 1) rotate(0) translate(4 688)">
<title>%3</title>
<polygon fill="white" stroke="none" points="-4,4 -4,-688 786.943,-688 786.943,4 -4,4"/>
<!-- soy yo -->
<g id="node1" class="node"><title>soy yo</title>
<ellipse fill="green" stroke="black" cx="344.697" cy="-666" rx="36.2938" ry="18"/>
<text text-anchor="middle" x="344.697" y="-662.3" font-family="Helvetica,sans-Serif" font-size="14.00" fill="white">soy yo</text>
</g>
<!-- 192.168.0.1 -->
<g id="node9" class="node"><title>192.168.0.1</title>
<polygon fill="lightgrey" stroke="black" points="388.697,-612 300.697,-612 300.697,-576 388.697,-576 388.697,-612"/>
<text text-anchor="middle" x="344.697" y="-590.3" font-family="Helvetica,sans-Serif" font-size="14.00">192.168.0.1</text>
</g>
<!-- soy yo&#45;&#45;192.168.0.1 -->
<g id="edge1" class="edge"><title>soy yo&#45;&#45;192.168.0.1</title>
<path fill="none" stroke="black" d="M344.697,-647.697C344.697,-636.846 344.697,-622.917 344.697,-612.104"/>
</g>
<!-- github.com -->
<g id="node2" class="node"><title>github.com</title>
<ellipse fill="green" stroke="black" cx="73.6967" cy="-306" rx="53.8905" ry="18"/>
<text text-anchor="middle" x="73.6967" y="-302.3" font-family="Helvetica,sans-Serif" font-size="14.00" fill="white">github.com</text>
</g>
<!-- silobrighton.com -->
<g id="node3" class="node"><title>silobrighton.com</title>
<ellipse fill="red" stroke="black" cx="196.697" cy="-234" rx="75.2868" ry="18"/>
<text text-anchor="middle" x="196.697" y="-230.3" font-family="Helvetica,sans-Serif" font-size="14.00" fill="white">silobrighton.com</text>
</g>
<!-- instagram.com -->
<g id="node4" class="node"><title>instagram.com</title>
<ellipse fill="green" stroke="black" cx="335.697" cy="-306" rx="69.5877" ry="18"/>
<text text-anchor="middle" x="335.697" y="-302.3" font-family="Helvetica,sans-Serif" font-size="14.00" fill="white">instagram.com</text>
</g>
<!-- monzo.com -->
<g id="node5" class="node"><title>monzo.com</title>
<ellipse fill="green" stroke="black" cx="480.697" cy="-306" rx="57.3905" ry="18"/>
<text text-anchor="middle" x="480.697" y="-302.3" font-family="Helvetica,sans-Serif" font-size="14.00" fill="white">monzo.com</text>
</g>
<!-- infinityfoods.coop -->
<g id="node6" class="node"><title>infinityfoods.coop</title>
<ellipse fill="green" stroke="black" cx="601.697" cy="-18" rx="78.7863" ry="18"/>
<text text-anchor="middle" x="601.697" y="-14.3" font-family="Helvetica,sans-Serif" font-size="14.00" fill="white">infinityfoods.coop</text>
</g>
<!-- roli.com -->
<g id="node7" class="node"><title>roli.com</title>
<ellipse fill="red" stroke="black" cx="740.697" cy="-18" rx="42.4939" ry="18"/>
<text text-anchor="middle" x="740.697" y="-14.3" font-family="Helvetica,sans-Serif" font-size="14.00" fill="white">roli.com</text>
</g>
<!-- 4.4.4.4 -->
<g id="node8" class="node"><title>4.4.4.4</title>
<ellipse fill="red" stroke="black" cx="37.6967" cy="-450" rx="37.8943" ry="18"/>
<text text-anchor="middle" x="37.6967" y="-446.3" font-family="Helvetica,sans-Serif" font-size="14.00" fill="white">4.4.4.4</text>
</g>
<!-- 84.38.37.34 -->
<g id="node10" class="node"><title>84.38.37.34</title>
<polygon fill="lightgrey" stroke="black" points="388.697,-540 300.697,-540 300.697,-504 388.697,-504 388.697,-540"/>
<text text-anchor="middle" x="344.697" y="-518.3" font-family="Helvetica,sans-Serif" font-size="14.00">84.38.37.34</text>
</g>
<!-- 192.168.0.1&#45;&#45;84.38.37.34 -->
<g id="edge2" class="edge"><title>192.168.0.1&#45;&#45;84.38.37.34</title>
<path fill="none" stroke="black" d="M344.697,-575.697C344.697,-564.846 344.697,-550.917 344.697,-540.104"/>
</g>
<!-- 84.38.37.34&#45;&#45;4.4.4.4 -->
<g id="edge30" class="edge"><title>84.38.37.34&#45;&#45;4.4.4.4</title>
<path fill="none" stroke="black" d="M300.33,-514.129C247.996,-505.535 158.633,-489.319 83.6967,-468 77.8005,-466.323 71.5823,-464.244 65.6895,-462.123"/>
</g>
<!-- 4.53.116.102 -->
<g id="node11" class="node"><title>4.53.116.102</title>
<polygon fill="lightgrey" stroke="black" points="188.197,-468 93.1967,-468 93.1967,-432 188.197,-432 188.197,-468"/>
<text text-anchor="middle" x="140.697" y="-446.3" font-family="Helvetica,sans-Serif" font-size="14.00">4.53.116.102</text>
</g>
<!-- 84.38.37.34&#45;&#45;4.53.116.102 -->
<g id="edge3" class="edge"><title>84.38.37.34&#45;&#45;4.53.116.102</title>
<path fill="none" stroke="black" d="M300.683,-505.897C267.652,-494.563 222.474,-479.061 188.549,-467.42"/>
</g>
<!-- 5.57.80.32 -->
<g id="node13" class="node"><title>5.57.80.32</title>
<polygon fill="lightgrey" stroke="black" points="286.697,-468 206.697,-468 206.697,-432 286.697,-432 286.697,-468"/>
<text text-anchor="middle" x="246.697" y="-446.3" font-family="Helvetica,sans-Serif" font-size="14.00">5.57.80.32</text>
</g>
<!-- 84.38.37.34&#45;&#45;5.57.80.32 -->
<g id="edge6" class="edge"><title>84.38.37.34&#45;&#45;5.57.80.32</title>
<path fill="none" stroke="black" d="M320.723,-503.876C305.537,-493.029 285.966,-479.05 270.762,-468.19"/>
</g>
<!-- 4.79.22.74 -->
<g id="node16" class="node"><title>4.79.22.74</title>
<polygon fill="lightgrey" stroke="black" points="384.697,-468 304.697,-468 304.697,-432 384.697,-432 384.697,-468"/>
<text text-anchor="middle" x="344.697" y="-446.3" font-family="Helvetica,sans-Serif" font-size="14.00">4.79.22.74</text>
</g>
<!-- 84.38.37.34&#45;&#45;4.79.22.74 -->
<g id="edge10" class="edge"><title>84.38.37.34&#45;&#45;4.79.22.74</title>
<path fill="none" stroke="black" d="M344.697,-503.697C344.697,-492.846 344.697,-478.917 344.697,-468.104"/>
</g>
<!-- 2.127.241.137 -->
<g id="node18" class="node"><title>2.127.241.137</title>
<polygon fill="lightgrey" stroke="black" points="518.197,-468 415.197,-468 415.197,-432 518.197,-432 518.197,-468"/>
<text text-anchor="middle" x="466.697" y="-446.3" font-family="Helvetica,sans-Serif" font-size="14.00">2.127.241.137</text>
</g>
<!-- 84.38.37.34&#45;&#45;2.127.241.137 -->
<g id="edge13" class="edge"><title>84.38.37.34&#45;&#45;2.127.241.137</title>
<path fill="none" stroke="black" d="M374.541,-503.876C393.447,-493.029 417.81,-479.05 436.737,-468.19"/>
</g>
<!-- 5.57.80.240 -->
<g id="node20" class="node"><title>5.57.80.240</title>
<polygon fill="lightgrey" stroke="black" points="637.697,-468 549.697,-468 549.697,-432 637.697,-432 637.697,-468"/>
<text text-anchor="middle" x="593.697" y="-446.3" font-family="Helvetica,sans-Serif" font-size="14.00">5.57.80.240</text>
</g>
<!-- 84.38.37.34&#45;&#45;5.57.80.240 -->
<g id="edge16" class="edge"><title>84.38.37.34&#45;&#45;5.57.80.240</title>
<path fill="none" stroke="black" d="M388.926,-508.566C434.205,-495.837 504.179,-476.166 549.461,-463.436"/>
</g>
<!-- 83.231.221.45 -->
<g id="node26" class="node"><title>83.231.221.45</title>
<polygon fill="lightgrey" stroke="black" points="768.197,-468 665.197,-468 665.197,-432 768.197,-432 768.197,-468"/>
<text text-anchor="middle" x="716.697" y="-446.3" font-family="Helvetica,sans-Serif" font-size="14.00">83.231.221.45</text>
</g>
<!-- 84.38.37.34&#45;&#45;83.231.221.45 -->
<g id="edge23" class="edge"><title>84.38.37.34&#45;&#45;83.231.221.45</title>
<path fill="none" stroke="black" d="M388.88,-514.162C447.868,-504.824 555.51,-487.053 646.697,-468 652.695,-466.747 658.962,-465.35 665.174,-463.912"/>
</g>
<!-- 192.30.253.113 -->
<g id="node12" class="node"><title>192.30.253.113</title>
<polygon fill="lightgrey" stroke="black" points="137.697,-396 27.6967,-396 27.6967,-360 137.697,-360 137.697,-396"/>
<text text-anchor="middle" x="82.6967" y="-374.3" font-family="Helvetica,sans-Serif" font-size="14.00">192.30.253.113</text>
</g>
<!-- 4.53.116.102&#45;&#45;192.30.253.113 -->
<g id="edge4" class="edge"><title>4.53.116.102&#45;&#45;192.30.253.113</title>
<path fill="none" stroke="black" d="M126.36,-431.697C117.369,-420.846 105.828,-406.917 96.8688,-396.104"/>
</g>
<!-- 192.30.253.113&#45;&#45;github.com -->
<g id="edge5" class="edge"><title>192.30.253.113&#45;&#45;github.com</title>
<path fill="none" stroke="black" d="M80.4719,-359.697C79.0769,-348.846 77.2859,-334.917 75.8958,-324.104"/>
</g>
<!-- 37.209.223.9 -->
<g id="node14" class="node"><title>37.209.223.9</title>
<polygon fill="lightgrey" stroke="black" points="261.197,-396 166.197,-396 166.197,-360 261.197,-360 261.197,-396"/>
<text text-anchor="middle" x="213.697" y="-374.3" font-family="Helvetica,sans-Serif" font-size="14.00">37.209.223.9</text>
</g>
<!-- 5.57.80.32&#45;&#45;37.209.223.9 -->
<g id="edge7" class="edge"><title>5.57.80.32&#45;&#45;37.209.223.9</title>
<path fill="none" stroke="black" d="M238.539,-431.697C233.424,-420.846 226.857,-406.917 221.76,-396.104"/>
</g>
<!-- 37.209.223.45 -->
<g id="node15" class="node"><title>37.209.223.45</title>
<polygon fill="lightgrey" stroke="black" points="248.197,-324 145.197,-324 145.197,-288 248.197,-288 248.197,-324"/>
<text text-anchor="middle" x="196.697" y="-302.3" font-family="Helvetica,sans-Serif" font-size="14.00">37.209.223.45</text>
</g>
<!-- 37.209.223.9&#45;&#45;37.209.223.45 -->
<g id="edge8" class="edge"><title>37.209.223.9&#45;&#45;37.209.223.45</title>
<path fill="none" stroke="black" d="M209.494,-359.697C206.859,-348.846 203.476,-334.917 200.851,-324.104"/>
</g>
<!-- 37.209.223.45&#45;&#45;silobrighton.com -->
<g id="edge9" class="edge"><title>37.209.223.45&#45;&#45;silobrighton.com</title>
<path fill="none" stroke="black" d="M196.697,-287.697C196.697,-276.846 196.697,-262.917 196.697,-252.104"/>
</g>
<!-- 54.239.110.195 -->
<g id="node17" class="node"><title>54.239.110.195</title>
<polygon fill="lightgrey" stroke="black" points="394.697,-396 284.697,-396 284.697,-360 394.697,-360 394.697,-396"/>
<text text-anchor="middle" x="339.697" y="-374.3" font-family="Helvetica,sans-Serif" font-size="14.00">54.239.110.195</text>
</g>
<!-- 4.79.22.74&#45;&#45;54.239.110.195 -->
<g id="edge11" class="edge"><title>4.79.22.74&#45;&#45;54.239.110.195</title>
<path fill="none" stroke="black" d="M343.461,-431.697C342.686,-420.846 341.691,-406.917 340.918,-396.104"/>
</g>
<!-- 54.239.110.195&#45;&#45;instagram.com -->
<g id="edge12" class="edge"><title>54.239.110.195&#45;&#45;instagram.com</title>
<path fill="none" stroke="black" d="M338.708,-359.697C338.088,-348.846 337.292,-334.917 336.674,-324.104"/>
</g>
<!-- 104.25.212.99 -->
<g id="node19" class="node"><title>104.25.212.99</title>
<polygon fill="lightgrey" stroke="black" points="526.197,-396 423.197,-396 423.197,-360 526.197,-360 526.197,-396"/>
<text text-anchor="middle" x="474.697" y="-374.3" font-family="Helvetica,sans-Serif" font-size="14.00">104.25.212.99</text>
</g>
<!-- 2.127.241.137&#45;&#45;104.25.212.99 -->
<g id="edge14" class="edge"><title>2.127.241.137&#45;&#45;104.25.212.99</title>
<path fill="none" stroke="black" d="M468.674,-431.697C469.914,-420.846 471.506,-406.917 472.742,-396.104"/>
</g>
<!-- 104.25.212.99&#45;&#45;monzo.com -->
<g id="edge15" class="edge"><title>104.25.212.99&#45;&#45;monzo.com</title>
<path fill="none" stroke="black" d="M476.18,-359.697C477.11,-348.846 478.304,-334.917 479.231,-324.104"/>
</g>
<!-- 80.88.212.56 -->
<g id="node21" class="node"><title>80.88.212.56</title>
<polygon fill="lightgrey" stroke="black" points="649.197,-396 554.197,-396 554.197,-360 649.197,-360 649.197,-396"/>
<text text-anchor="middle" x="601.697" y="-374.3" font-family="Helvetica,sans-Serif" font-size="14.00">80.88.212.56</text>
</g>
<!-- 5.57.80.240&#45;&#45;80.88.212.56 -->
<g id="edge17" class="edge"><title>5.57.80.240&#45;&#45;80.88.212.56</title>
<path fill="none" stroke="black" d="M595.674,-431.697C596.914,-420.846 598.506,-406.917 599.742,-396.104"/>
</g>
<!-- 80.88.202.138 -->
<g id="node22" class="node"><title>80.88.202.138</title>
<polygon fill="lightgrey" stroke="black" points="659.197,-324 556.197,-324 556.197,-288 659.197,-288 659.197,-324"/>
<text text-anchor="middle" x="607.697" y="-302.3" font-family="Helvetica,sans-Serif" font-size="14.00">80.88.202.138</text>
</g>
<!-- 80.88.212.56&#45;&#45;80.88.202.138 -->
<g id="edge18" class="edge"><title>80.88.212.56&#45;&#45;80.88.202.138</title>
<path fill="none" stroke="black" d="M603.18,-359.697C604.11,-348.846 605.304,-334.917 606.231,-324.104"/>
</g>
<!-- 37.200.112.58 -->
<g id="node23" class="node"><title>37.200.112.58</title>
<polygon fill="lightgrey" stroke="black" points="658.197,-252 555.197,-252 555.197,-216 658.197,-216 658.197,-252"/>
<text text-anchor="middle" x="606.697" y="-230.3" font-family="Helvetica,sans-Serif" font-size="14.00">37.200.112.58</text>
</g>
<!-- 80.88.202.138&#45;&#45;37.200.112.58 -->
<g id="edge19" class="edge"><title>80.88.202.138&#45;&#45;37.200.112.58</title>
<path fill="none" stroke="black" d="M607.449,-287.697C607.294,-276.846 607.095,-262.917 606.941,-252.104"/>
</g>
<!-- 213.129.95.153 -->
<g id="node24" class="node"><title>213.129.95.153</title>
<polygon fill="lightgrey" stroke="black" points="661.697,-180 551.697,-180 551.697,-144 661.697,-144 661.697,-180"/>
<text text-anchor="middle" x="606.697" y="-158.3" font-family="Helvetica,sans-Serif" font-size="14.00">213.129.95.153</text>
</g>
<!-- 37.200.112.58&#45;&#45;213.129.95.153 -->
<g id="edge20" class="edge"><title>37.200.112.58&#45;&#45;213.129.95.153</title>
<path fill="none" stroke="black" d="M606.697,-215.697C606.697,-204.846 606.697,-190.917 606.697,-180.104"/>
</g>
<!-- 37.200.112.61 -->
<g id="node25" class="node"><title>37.200.112.61</title>
<polygon fill="lightgrey" stroke="black" points="653.197,-108 550.197,-108 550.197,-72 653.197,-72 653.197,-108"/>
<text text-anchor="middle" x="601.697" y="-86.3" font-family="Helvetica,sans-Serif" font-size="14.00">37.200.112.61</text>
</g>
<!-- 213.129.95.153&#45;&#45;37.200.112.61 -->
<g id="edge21" class="edge"><title>213.129.95.153&#45;&#45;37.200.112.61</title>
<path fill="none" stroke="black" d="M605.461,-143.697C604.686,-132.846 603.691,-118.917 602.918,-108.104"/>
</g>
<!-- 37.200.112.61&#45;&#45;infinityfoods.coop -->
<g id="edge22" class="edge"><title>37.200.112.61&#45;&#45;infinityfoods.coop</title>
<path fill="none" stroke="black" d="M601.697,-71.6966C601.697,-60.8463 601.697,-46.9167 601.697,-36.1043"/>
</g>
<!-- 129.250.4.23 -->
<g id="node27" class="node"><title>129.250.4.23</title>
<polygon fill="lightgrey" stroke="black" points="769.197,-396 674.197,-396 674.197,-360 769.197,-360 769.197,-396"/>
<text text-anchor="middle" x="721.697" y="-374.3" font-family="Helvetica,sans-Serif" font-size="14.00">129.250.4.23</text>
</g>
<!-- 83.231.221.45&#45;&#45;129.250.4.23 -->
<g id="edge24" class="edge"><title>83.231.221.45&#45;&#45;129.250.4.23</title>
<path fill="none" stroke="black" d="M717.933,-431.697C718.708,-420.846 719.703,-406.917 720.475,-396.104"/>
</g>
<!-- 129.250.2.18 -->
<g id="node28" class="node"><title>129.250.2.18</title>
<polygon fill="lightgrey" stroke="black" points="773.197,-324 678.197,-324 678.197,-288 773.197,-288 773.197,-324"/>
<text text-anchor="middle" x="725.697" y="-302.3" font-family="Helvetica,sans-Serif" font-size="14.00">129.250.2.18</text>
</g>
<!-- 129.250.4.23&#45;&#45;129.250.2.18 -->
<g id="edge25" class="edge"><title>129.250.4.23&#45;&#45;129.250.2.18</title>
<path fill="none" stroke="black" d="M722.685,-359.697C723.305,-348.846 724.101,-334.917 724.719,-324.104"/>
</g>
<!-- 129.250.4.13 -->
<g id="node29" class="node"><title>129.250.4.13</title>
<polygon fill="lightgrey" stroke="black" points="773.197,-252 678.197,-252 678.197,-216 773.197,-216 773.197,-252"/>
<text text-anchor="middle" x="725.697" y="-230.3" font-family="Helvetica,sans-Serif" font-size="14.00">129.250.4.13</text>
</g>
<!-- 129.250.2.18&#45;&#45;129.250.4.13 -->
<g id="edge26" class="edge"><title>129.250.2.18&#45;&#45;129.250.4.13</title>
<path fill="none" stroke="black" d="M725.697,-287.697C725.697,-276.846 725.697,-262.917 725.697,-252.104"/>
</g>
<!-- 129.250.2.8 -->
<g id="node30" class="node"><title>129.250.2.8</title>
<polygon fill="lightgrey" stroke="black" points="772.697,-180 684.697,-180 684.697,-144 772.697,-144 772.697,-180"/>
<text text-anchor="middle" x="728.697" y="-158.3" font-family="Helvetica,sans-Serif" font-size="14.00">129.250.2.8</text>
</g>
<!-- 129.250.4.13&#45;&#45;129.250.2.8 -->
<g id="edge27" class="edge"><title>129.250.4.13&#45;&#45;129.250.2.8</title>
<path fill="none" stroke="black" d="M726.438,-215.697C726.903,-204.846 727.5,-190.917 727.964,-180.104"/>
</g>
<!-- 129.250.5.86 -->
<g id="node31" class="node"><title>129.250.5.86</title>
<polygon fill="lightgrey" stroke="black" points="777.197,-108 682.197,-108 682.197,-72 777.197,-72 777.197,-108"/>
<text text-anchor="middle" x="729.697" y="-86.3" font-family="Helvetica,sans-Serif" font-size="14.00">129.250.5.86</text>
</g>
<!-- 129.250.2.8&#45;&#45;129.250.5.86 -->
<g id="edge28" class="edge"><title>129.250.2.8&#45;&#45;129.250.5.86</title>
<path fill="none" stroke="black" d="M728.944,-143.697C729.099,-132.846 729.298,-118.917 729.452,-108.104"/>
</g>
<!-- 129.250.5.86&#45;&#45;roli.com -->
<g id="edge29" class="edge"><title>129.250.5.86&#45;&#45;roli.com</title>
<path fill="none" stroke="black" d="M732.416,-71.6966C734.121,-60.8463 736.31,-46.9167 738.009,-36.1043"/>
</g>
</g>
</svg>
