<?xml version="1.0" encoding="UTF-8" standalone="no"?>
<!DOCTYPE svg PUBLIC "-//W3C//DTD SVG 1.1//EN"
 "http://www.w3.org/Graphics/SVG/1.1/DTD/svg11.dtd">
<!-- Generated by graphviz version 2.38.0 (20140413.2041)
 -->
<!-- Title: %3 Pages: 1 -->
<svg width="942pt" height="1412pt"
 viewBox="0.00 0.00 942.19 1412.00" xmlns="http://www.w3.org/2000/svg" xmlns:xlink="http://www.w3.org/1999/xlink">
<g id="graph0" class="graph" transform="scale(1 1) rotate(0) translate(4 1408)">
<title>%3</title>
<polygon fill="white" stroke="none" points="-4,4 -4,-1408 938.195,-1408 938.195,4 -4,4"/>
<!-- soy yo -->
<g id="node1" class="node"><title>soy yo</title>
<ellipse fill="green" stroke="black" cx="481" cy="-1386" rx="57.3905" ry="18"/>
<text text-anchor="middle" x="481" y="-1382.3" font-family="Helvetica,sans-Serif" font-size="14.00" fill="white">172.20.10.2</text>
</g>
<!-- 172.20.10.1 -->
<g id="node9" class="node"><title>172.20.10.1</title>
<polygon fill="lightgrey" stroke="black" points="525,-1332 437,-1332 437,-1296 525,-1296 525,-1332"/>
<text text-anchor="middle" x="481" y="-1310.3" font-family="Helvetica,sans-Serif" font-size="14.00">172.20.10.1</text>
</g>
<!-- soy yo&#45;&#45;172.20.10.1 -->
<g id="edge1" class="edge"><title>soy yo&#45;&#45;172.20.10.1</title>
<path fill="none" stroke="black" d="M481,-1367.7C481,-1356.85 481,-1342.92 481,-1332.1"/>
</g>
<!-- google.com -->
<g id="node2" class="node"><title>google.com</title>
<ellipse fill="green" stroke="black" cx="59" cy="-378" rx="56.59" ry="18"/>
<text text-anchor="middle" x="59" y="-374.3" font-family="Helvetica,sans-Serif" font-size="14.00" fill="white">google.com</text>
</g>
<!-- deanturpin.github.io -->
<g id="node3" class="node"><title>deanturpin.github.io</title>
<ellipse fill="green" stroke="black" cx="224" cy="-522" rx="87.9851" ry="18"/>
<text text-anchor="middle" x="224" y="-518.3" font-family="Helvetica,sans-Serif" font-size="14.00" fill="white">deanturpin.github.io</text>
</g>
<!-- github.com -->
<g id="node4" class="node"><title>github.com</title>
<ellipse fill="green" stroke="black" cx="352" cy="-18" rx="53.8905" ry="18"/>
<text text-anchor="middle" x="352" y="-14.3" font-family="Helvetica,sans-Serif" font-size="14.00" fill="white">github.com</text>
</g>
<!-- silobrighton.com -->
<g id="node5" class="node"><title>silobrighton.com</title>
<ellipse fill="red" stroke="black" cx="497" cy="-450" rx="75.2868" ry="18"/>
<text text-anchor="middle" x="497" y="-446.3" font-family="Helvetica,sans-Serif" font-size="14.00" fill="white">silobrighton.com</text>
</g>
<!-- monzo.com -->
<g id="node6" class="node"><title>monzo.com</title>
<ellipse fill="green" stroke="black" cx="877" cy="-594" rx="57.3905" ry="18"/>
<text text-anchor="middle" x="877" y="-590.3" font-family="Helvetica,sans-Serif" font-size="14.00" fill="white">monzo.com</text>
</g>
<!-- infinityfoods.coop -->
<g id="node7" class="node"><title>infinityfoods.coop</title>
<ellipse fill="green" stroke="black" cx="645" cy="-378" rx="78.7863" ry="18"/>
<text text-anchor="middle" x="645" y="-374.3" font-family="Helvetica,sans-Serif" font-size="14.00" fill="white">infinityfoods.coop</text>
</g>
<!-- morningstar.co.uk -->
<g id="node8" class="node"><title>morningstar.co.uk</title>
<ellipse fill="red" stroke="black" cx="776" cy="-522" rx="81.4863" ry="18"/>
<text text-anchor="middle" x="776" y="-518.3" font-family="Helvetica,sans-Serif" font-size="14.00" fill="white">morningstar.co.uk</text>
</g>
<!-- 10.248.28.145 -->
<g id="node10" class="node"><title>10.248.28.145</title>
<polygon fill="lightgrey" stroke="black" points="472.5,-1260 369.5,-1260 369.5,-1224 472.5,-1224 472.5,-1260"/>
<text text-anchor="middle" x="421" y="-1238.3" font-family="Helvetica,sans-Serif" font-size="14.00">10.248.28.145</text>
</g>
<!-- 172.20.10.1&#45;&#45;10.248.28.145 -->
<g id="edge2" class="edge"><title>172.20.10.1&#45;&#45;10.248.28.145</title>
<path fill="none" stroke="black" d="M466.169,-1295.7C456.868,-1284.85 444.929,-1270.92 435.661,-1260.1"/>
</g>
<!-- 10.248.28.153 -->
<g id="node22" class="node"><title>10.248.28.153</title>
<polygon fill="lightgrey" stroke="black" points="593.5,-1260 490.5,-1260 490.5,-1224 593.5,-1224 593.5,-1260"/>
<text text-anchor="middle" x="542" y="-1238.3" font-family="Helvetica,sans-Serif" font-size="14.00">10.248.28.153</text>
</g>
<!-- 172.20.10.1&#45;&#45;10.248.28.153 -->
<g id="edge15" class="edge"><title>172.20.10.1&#45;&#45;10.248.28.153</title>
<path fill="none" stroke="black" d="M496.079,-1295.7C505.534,-1284.85 517.673,-1270.92 527.095,-1260.1"/>
</g>
<!-- 10.247.84.25 -->
<g id="node11" class="node"><title>10.247.84.25</title>
<polygon fill="lightgrey" stroke="black" points="470.5,-1188 375.5,-1188 375.5,-1152 470.5,-1152 470.5,-1188"/>
<text text-anchor="middle" x="423" y="-1166.3" font-family="Helvetica,sans-Serif" font-size="14.00">10.247.84.25</text>
</g>
<!-- 10.248.28.145&#45;&#45;10.247.84.25 -->
<g id="edge3" class="edge"><title>10.248.28.145&#45;&#45;10.247.84.25</title>
<path fill="none" stroke="black" d="M421.494,-1223.7C421.804,-1212.85 422.202,-1198.92 422.511,-1188.1"/>
</g>
<!-- 10.247.84.6 -->
<g id="node12" class="node"><title>10.247.84.6</title>
<polygon fill="lightgrey" stroke="black" points="525,-1116 437,-1116 437,-1080 525,-1080 525,-1116"/>
<text text-anchor="middle" x="481" y="-1094.3" font-family="Helvetica,sans-Serif" font-size="14.00">10.247.84.6</text>
</g>
<!-- 10.247.84.25&#45;&#45;10.247.84.6 -->
<g id="edge4" class="edge"><title>10.247.84.25&#45;&#45;10.247.84.6</title>
<path fill="none" stroke="black" d="M437.337,-1151.7C446.327,-1140.85 457.869,-1126.92 466.828,-1116.1"/>
</g>
<!-- 10.247.84.9 -->
<g id="node13" class="node"><title>10.247.84.9</title>
<polygon fill="lightgrey" stroke="black" points="525,-1044 437,-1044 437,-1008 525,-1008 525,-1044"/>
<text text-anchor="middle" x="481" y="-1022.3" font-family="Helvetica,sans-Serif" font-size="14.00">10.247.84.9</text>
</g>
<!-- 10.247.84.6&#45;&#45;10.247.84.9 -->
<g id="edge5" class="edge"><title>10.247.84.6&#45;&#45;10.247.84.9</title>
<path fill="none" stroke="black" d="M481,-1079.7C481,-1068.85 481,-1054.92 481,-1044.1"/>
</g>
<!-- 10.247.84.18 -->
<g id="node14" class="node"><title>10.247.84.18</title>
<polygon fill="lightgrey" stroke="black" points="528.5,-972 433.5,-972 433.5,-936 528.5,-936 528.5,-972"/>
<text text-anchor="middle" x="481" y="-950.3" font-family="Helvetica,sans-Serif" font-size="14.00">10.247.84.18</text>
</g>
<!-- 10.247.84.9&#45;&#45;10.247.84.18 -->
<g id="edge6" class="edge"><title>10.247.84.9&#45;&#45;10.247.84.18</title>
<path fill="none" stroke="black" d="M481,-1007.7C481,-996.846 481,-982.917 481,-972.104"/>
</g>
<!-- 87.237.20.224 -->
<g id="node15" class="node"><title>87.237.20.224</title>
<polygon fill="lightgrey" stroke="black" points="532.5,-900 429.5,-900 429.5,-864 532.5,-864 532.5,-900"/>
<text text-anchor="middle" x="481" y="-878.3" font-family="Helvetica,sans-Serif" font-size="14.00">87.237.20.224</text>
</g>
<!-- 10.247.84.18&#45;&#45;87.237.20.224 -->
<g id="edge7" class="edge"><title>10.247.84.18&#45;&#45;87.237.20.224</title>
<path fill="none" stroke="black" d="M481,-935.697C481,-924.846 481,-910.917 481,-900.104"/>
</g>
<!-- 87.237.20.73 -->
<g id="node16" class="node"><title>87.237.20.73</title>
<polygon fill="lightgrey" stroke="black" points="528.5,-828 433.5,-828 433.5,-792 528.5,-792 528.5,-828"/>
<text text-anchor="middle" x="481" y="-806.3" font-family="Helvetica,sans-Serif" font-size="14.00">87.237.20.73</text>
</g>
<!-- 87.237.20.224&#45;&#45;87.237.20.73 -->
<g id="edge8" class="edge"><title>87.237.20.224&#45;&#45;87.237.20.73</title>
<path fill="none" stroke="black" d="M481,-863.697C481,-852.846 481,-838.917 481,-828.104"/>
</g>
<!-- 87.237.20.36 -->
<g id="node17" class="node"><title>87.237.20.36</title>
<polygon fill="lightgrey" stroke="black" points="331.5,-756 236.5,-756 236.5,-720 331.5,-720 331.5,-756"/>
<text text-anchor="middle" x="284" y="-734.3" font-family="Helvetica,sans-Serif" font-size="14.00">87.237.20.36</text>
</g>
<!-- 87.237.20.73&#45;&#45;87.237.20.36 -->
<g id="edge9" class="edge"><title>87.237.20.73&#45;&#45;87.237.20.36</title>
<path fill="none" stroke="black" d="M433.312,-792.055C402.452,-781.09 362.43,-766.869 331.59,-755.91"/>
</g>
<!-- 80.150.169.13 -->
<g id="node24" class="node"><title>80.150.169.13</title>
<polygon fill="lightgrey" stroke="black" points="456.5,-756 353.5,-756 353.5,-720 456.5,-720 456.5,-756"/>
<text text-anchor="middle" x="405" y="-734.3" font-family="Helvetica,sans-Serif" font-size="14.00">80.150.169.13</text>
</g>
<!-- 87.237.20.73&#45;&#45;80.150.169.13 -->
<g id="edge18" class="edge"><title>87.237.20.73&#45;&#45;80.150.169.13</title>
<path fill="none" stroke="black" d="M462.213,-791.697C450.433,-780.846 435.31,-766.917 423.57,-756.104"/>
</g>
<!-- 87.237.20.33 -->
<g id="node35" class="node"><title>87.237.20.33</title>
<polygon fill="lightgrey" stroke="black" points="605.5,-756 510.5,-756 510.5,-720 605.5,-720 605.5,-756"/>
<text text-anchor="middle" x="558" y="-734.3" font-family="Helvetica,sans-Serif" font-size="14.00">87.237.20.33</text>
</g>
<!-- 87.237.20.73&#45;&#45;87.237.20.33 -->
<g id="edge31" class="edge"><title>87.237.20.73&#45;&#45;87.237.20.33</title>
<path fill="none" stroke="black" d="M500.034,-791.697C511.969,-780.846 527.292,-766.917 539.185,-756.104"/>
</g>
<!-- 195.66.225.179 -->
<g id="node39" class="node"><title>195.66.225.179</title>
<polygon fill="lightgrey" stroke="black" points="857,-756 747,-756 747,-720 857,-720 857,-756"/>
<text text-anchor="middle" x="802" y="-734.3" font-family="Helvetica,sans-Serif" font-size="14.00">195.66.225.179</text>
</g>
<!-- 87.237.20.73&#45;&#45;195.66.225.179 -->
<g id="edge36" class="edge"><title>87.237.20.73&#45;&#45;195.66.225.179</title>
<path fill="none" stroke="black" d="M528.71,-798.596C586.956,-785.894 685.274,-764.454 746.749,-751.049"/>
</g>
<!-- 74.125.52.218 -->
<g id="node18" class="node"><title>74.125.52.218</title>
<polygon fill="lightgrey" stroke="black" points="204.5,-684 101.5,-684 101.5,-648 204.5,-648 204.5,-684"/>
<text text-anchor="middle" x="153" y="-662.3" font-family="Helvetica,sans-Serif" font-size="14.00">74.125.52.218</text>
</g>
<!-- 87.237.20.36&#45;&#45;74.125.52.218 -->
<g id="edge10" class="edge"><title>87.237.20.36&#45;&#45;74.125.52.218</title>
<path fill="none" stroke="black" d="M251.954,-719.876C231.654,-709.029 205.493,-695.05 185.169,-684.19"/>
</g>
<!-- 108.170.246.225 -->
<g id="node19" class="node"><title>108.170.246.225</title>
<polygon fill="lightgrey" stroke="black" points="143,-612 25,-612 25,-576 143,-576 143,-612"/>
<text text-anchor="middle" x="84" y="-590.3" font-family="Helvetica,sans-Serif" font-size="14.00">108.170.246.225</text>
</g>
<!-- 74.125.52.218&#45;&#45;108.170.246.225 -->
<g id="edge11" class="edge"><title>74.125.52.218&#45;&#45;108.170.246.225</title>
<path fill="none" stroke="black" d="M135.944,-647.697C125.248,-636.846 111.518,-622.917 100.86,-612.104"/>
</g>
<!-- 108.170.235.105 -->
<g id="node20" class="node"><title>108.170.235.105</title>
<polygon fill="lightgrey" stroke="black" points="118,-540 0,-540 0,-504 118,-504 118,-540"/>
<text text-anchor="middle" x="59" y="-518.3" font-family="Helvetica,sans-Serif" font-size="14.00">108.170.235.105</text>
</g>
<!-- 108.170.246.225&#45;&#45;108.170.235.105 -->
<g id="edge12" class="edge"><title>108.170.246.225&#45;&#45;108.170.235.105</title>
<path fill="none" stroke="black" d="M77.8202,-575.697C73.9451,-564.846 68.9703,-550.917 65.1087,-540.104"/>
</g>
<!-- 172.217.23.46 -->
<g id="node21" class="node"><title>172.217.23.46</title>
<polygon fill="lightgrey" stroke="black" points="110.5,-468 7.5,-468 7.5,-432 110.5,-432 110.5,-468"/>
<text text-anchor="middle" x="59" y="-446.3" font-family="Helvetica,sans-Serif" font-size="14.00">172.217.23.46</text>
</g>
<!-- 108.170.235.105&#45;&#45;172.217.23.46 -->
<g id="edge13" class="edge"><title>108.170.235.105&#45;&#45;172.217.23.46</title>
<path fill="none" stroke="black" d="M59,-503.697C59,-492.846 59,-478.917 59,-468.104"/>
</g>
<!-- 172.217.23.46&#45;&#45;google.com -->
<g id="edge14" class="edge"><title>172.217.23.46&#45;&#45;google.com</title>
<path fill="none" stroke="black" d="M59,-431.697C59,-420.846 59,-406.917 59,-396.104"/>
</g>
<!-- 10.247.84.27 -->
<g id="node23" class="node"><title>10.247.84.27</title>
<polygon fill="lightgrey" stroke="black" points="587.5,-1188 492.5,-1188 492.5,-1152 587.5,-1152 587.5,-1188"/>
<text text-anchor="middle" x="540" y="-1166.3" font-family="Helvetica,sans-Serif" font-size="14.00">10.247.84.27</text>
</g>
<!-- 10.248.28.153&#45;&#45;10.247.84.27 -->
<g id="edge16" class="edge"><title>10.248.28.153&#45;&#45;10.247.84.27</title>
<path fill="none" stroke="black" d="M541.506,-1223.7C541.196,-1212.85 540.798,-1198.92 540.489,-1188.1"/>
</g>
<!-- 10.247.84.27&#45;&#45;10.247.84.6 -->
<g id="edge17" class="edge"><title>10.247.84.27&#45;&#45;10.247.84.6</title>
<path fill="none" stroke="black" d="M525.416,-1151.7C516.27,-1140.85 504.53,-1126.92 495.417,-1116.1"/>
</g>
<!-- 80.150.170.106 -->
<g id="node25" class="node"><title>80.150.170.106</title>
<polygon fill="lightgrey" stroke="black" points="424,-684 314,-684 314,-648 424,-648 424,-684"/>
<text text-anchor="middle" x="369" y="-662.3" font-family="Helvetica,sans-Serif" font-size="14.00">80.150.170.106</text>
</g>
<!-- 80.150.169.13&#45;&#45;80.150.170.106 -->
<g id="edge19" class="edge"><title>80.150.169.13&#45;&#45;80.150.170.106</title>
<path fill="none" stroke="black" d="M396.101,-719.697C390.521,-708.846 383.357,-694.917 377.797,-684.104"/>
</g>
<!-- 129.250.4.149 -->
<g id="node26" class="node"><title>129.250.4.149</title>
<polygon fill="lightgrey" stroke="black" points="290.5,-612 187.5,-612 187.5,-576 290.5,-576 290.5,-612"/>
<text text-anchor="middle" x="239" y="-590.3" font-family="Helvetica,sans-Serif" font-size="14.00">129.250.4.149</text>
</g>
<!-- 80.150.170.106&#45;&#45;129.250.4.149 -->
<g id="edge20" class="edge"><title>80.150.170.106&#45;&#45;129.250.4.149</title>
<path fill="none" stroke="black" d="M337.198,-647.876C317.053,-637.029 291.092,-623.05 270.924,-612.19"/>
</g>
<!-- 129.250.4.23 -->
<g id="node27" class="node"><title>129.250.4.23</title>
<polygon fill="lightgrey" stroke="black" points="419.5,-612 324.5,-612 324.5,-576 419.5,-576 419.5,-612"/>
<text text-anchor="middle" x="372" y="-590.3" font-family="Helvetica,sans-Serif" font-size="14.00">129.250.4.23</text>
</g>
<!-- 80.150.170.106&#45;&#45;129.250.4.23 -->
<g id="edge22" class="edge"><title>80.150.170.106&#45;&#45;129.250.4.23</title>
<path fill="none" stroke="black" d="M369.742,-647.697C370.207,-636.846 370.804,-622.917 371.267,-612.104"/>
</g>
<!-- 129.250.4.149&#45;&#45;deanturpin.github.io -->
<g id="edge21" class="edge"><title>129.250.4.149&#45;&#45;deanturpin.github.io</title>
<path fill="none" stroke="black" d="M235.292,-575.697C232.967,-564.846 229.982,-550.917 227.665,-540.104"/>
</g>
<!-- 129.250.2.18 -->
<g id="node28" class="node"><title>129.250.2.18</title>
<polygon fill="lightgrey" stroke="black" points="424.5,-540 329.5,-540 329.5,-504 424.5,-504 424.5,-540"/>
<text text-anchor="middle" x="377" y="-518.3" font-family="Helvetica,sans-Serif" font-size="14.00">129.250.2.18</text>
</g>
<!-- 129.250.4.23&#45;&#45;129.250.2.18 -->
<g id="edge23" class="edge"><title>129.250.4.23&#45;&#45;129.250.2.18</title>
<path fill="none" stroke="black" d="M373.236,-575.697C374.011,-564.846 375.006,-550.917 375.778,-540.104"/>
</g>
<!-- 129.250.3.207 -->
<g id="node29" class="node"><title>129.250.3.207</title>
<polygon fill="lightgrey" stroke="black" points="403.5,-468 300.5,-468 300.5,-432 403.5,-432 403.5,-468"/>
<text text-anchor="middle" x="352" y="-446.3" font-family="Helvetica,sans-Serif" font-size="14.00">129.250.3.207</text>
</g>
<!-- 129.250.2.18&#45;&#45;129.250.3.207 -->
<g id="edge24" class="edge"><title>129.250.2.18&#45;&#45;129.250.3.207</title>
<path fill="none" stroke="black" d="M370.82,-503.697C366.945,-492.846 361.97,-478.917 358.109,-468.104"/>
</g>
<!-- 129.250.2.149 -->
<g id="node30" class="node"><title>129.250.2.149</title>
<polygon fill="lightgrey" stroke="black" points="403.5,-396 300.5,-396 300.5,-360 403.5,-360 403.5,-396"/>
<text text-anchor="middle" x="352" y="-374.3" font-family="Helvetica,sans-Serif" font-size="14.00">129.250.2.149</text>
</g>
<!-- 129.250.3.207&#45;&#45;129.250.2.149 -->
<g id="edge25" class="edge"><title>129.250.3.207&#45;&#45;129.250.2.149</title>
<path fill="none" stroke="black" d="M352,-431.697C352,-420.846 352,-406.917 352,-396.104"/>
</g>
<!-- 129.250.2.20 -->
<g id="node31" class="node"><title>129.250.2.20</title>
<polygon fill="lightgrey" stroke="black" points="399.5,-324 304.5,-324 304.5,-288 399.5,-288 399.5,-324"/>
<text text-anchor="middle" x="352" y="-302.3" font-family="Helvetica,sans-Serif" font-size="14.00">129.250.2.20</text>
</g>
<!-- 129.250.2.149&#45;&#45;129.250.2.20 -->
<g id="edge26" class="edge"><title>129.250.2.149&#45;&#45;129.250.2.20</title>
<path fill="none" stroke="black" d="M352,-359.697C352,-348.846 352,-334.917 352,-324.104"/>
</g>
<!-- 129.250.5.214 -->
<g id="node32" class="node"><title>129.250.5.214</title>
<polygon fill="lightgrey" stroke="black" points="403.5,-252 300.5,-252 300.5,-216 403.5,-216 403.5,-252"/>
<text text-anchor="middle" x="352" y="-230.3" font-family="Helvetica,sans-Serif" font-size="14.00">129.250.5.214</text>
</g>
<!-- 129.250.2.20&#45;&#45;129.250.5.214 -->
<g id="edge27" class="edge"><title>129.250.2.20&#45;&#45;129.250.5.214</title>
<path fill="none" stroke="black" d="M352,-287.697C352,-276.846 352,-262.917 352,-252.104"/>
</g>
<!-- 128.241.3.30 -->
<g id="node33" class="node"><title>128.241.3.30</title>
<polygon fill="lightgrey" stroke="black" points="399.5,-180 304.5,-180 304.5,-144 399.5,-144 399.5,-180"/>
<text text-anchor="middle" x="352" y="-158.3" font-family="Helvetica,sans-Serif" font-size="14.00">128.241.3.30</text>
</g>
<!-- 129.250.5.214&#45;&#45;128.241.3.30 -->
<g id="edge28" class="edge"><title>129.250.5.214&#45;&#45;128.241.3.30</title>
<path fill="none" stroke="black" d="M352,-215.697C352,-204.846 352,-190.917 352,-180.104"/>
</g>
<!-- 192.30.253.112 -->
<g id="node34" class="node"><title>192.30.253.112</title>
<polygon fill="lightgrey" stroke="black" points="407,-108 297,-108 297,-72 407,-72 407,-108"/>
<text text-anchor="middle" x="352" y="-86.3" font-family="Helvetica,sans-Serif" font-size="14.00">192.30.253.112</text>
</g>
<!-- 128.241.3.30&#45;&#45;192.30.253.112 -->
<g id="edge29" class="edge"><title>128.241.3.30&#45;&#45;192.30.253.112</title>
<path fill="none" stroke="black" d="M352,-143.697C352,-132.846 352,-118.917 352,-108.104"/>
</g>
<!-- 192.30.253.112&#45;&#45;github.com -->
<g id="edge30" class="edge"><title>192.30.253.112&#45;&#45;github.com</title>
<path fill="none" stroke="black" d="M352,-71.6966C352,-60.8463 352,-46.9167 352,-36.1043"/>
</g>
<!-- 195.66.225.215 -->
<g id="node36" class="node"><title>195.66.225.215</title>
<polygon fill="lightgrey" stroke="black" points="552,-684 442,-684 442,-648 552,-648 552,-684"/>
<text text-anchor="middle" x="497" y="-662.3" font-family="Helvetica,sans-Serif" font-size="14.00">195.66.225.215</text>
</g>
<!-- 87.237.20.33&#45;&#45;195.66.225.215 -->
<g id="edge32" class="edge"><title>87.237.20.33&#45;&#45;195.66.225.215</title>
<path fill="none" stroke="black" d="M542.921,-719.697C533.466,-708.846 521.327,-694.917 511.905,-684.104"/>
</g>
<!-- 195.66.225.93 -->
<g id="node41" class="node"><title>195.66.225.93</title>
<polygon fill="lightgrey" stroke="black" points="673.5,-684 570.5,-684 570.5,-648 673.5,-648 673.5,-684"/>
<text text-anchor="middle" x="622" y="-662.3" font-family="Helvetica,sans-Serif" font-size="14.00">195.66.225.93</text>
</g>
<!-- 87.237.20.33&#45;&#45;195.66.225.93 -->
<g id="edge39" class="edge"><title>87.237.20.33&#45;&#45;195.66.225.93</title>
<path fill="none" stroke="black" d="M573.82,-719.697C583.741,-708.846 596.476,-694.917 606.362,-684.104"/>
</g>
<!-- 195.66.224.99 -->
<g id="node45" class="node"><title>195.66.224.99</title>
<polygon fill="lightgrey" stroke="black" points="796.5,-684 693.5,-684 693.5,-648 796.5,-648 796.5,-684"/>
<text text-anchor="middle" x="745" y="-662.3" font-family="Helvetica,sans-Serif" font-size="14.00">195.66.224.99</text>
</g>
<!-- 87.237.20.33&#45;&#45;195.66.224.99 -->
<g id="edge44" class="edge"><title>87.237.20.33&#45;&#45;195.66.224.99</title>
<path fill="none" stroke="black" d="M603.745,-719.876C632.832,-708.988 670.346,-694.945 699.403,-684.068"/>
</g>
<!-- 37.209.223.57 -->
<g id="node37" class="node"><title>37.209.223.57</title>
<polygon fill="lightgrey" stroke="black" points="548.5,-612 445.5,-612 445.5,-576 548.5,-576 548.5,-612"/>
<text text-anchor="middle" x="497" y="-590.3" font-family="Helvetica,sans-Serif" font-size="14.00">37.209.223.57</text>
</g>
<!-- 195.66.225.215&#45;&#45;37.209.223.57 -->
<g id="edge33" class="edge"><title>195.66.225.215&#45;&#45;37.209.223.57</title>
<path fill="none" stroke="black" d="M497,-647.697C497,-636.846 497,-622.917 497,-612.104"/>
</g>
<!-- 37.209.223.45 -->
<g id="node38" class="node"><title>37.209.223.45</title>
<polygon fill="lightgrey" stroke="black" points="548.5,-540 445.5,-540 445.5,-504 548.5,-504 548.5,-540"/>
<text text-anchor="middle" x="497" y="-518.3" font-family="Helvetica,sans-Serif" font-size="14.00">37.209.223.45</text>
</g>
<!-- 37.209.223.57&#45;&#45;37.209.223.45 -->
<g id="edge34" class="edge"><title>37.209.223.57&#45;&#45;37.209.223.45</title>
<path fill="none" stroke="black" d="M497,-575.697C497,-564.846 497,-550.917 497,-540.104"/>
</g>
<!-- 37.209.223.45&#45;&#45;silobrighton.com -->
<g id="edge35" class="edge"><title>37.209.223.45&#45;&#45;silobrighton.com</title>
<path fill="none" stroke="black" d="M497,-503.697C497,-492.846 497,-478.917 497,-468.104"/>
</g>
<!-- 104.25.211.99 -->
<g id="node40" class="node"><title>104.25.211.99</title>
<polygon fill="lightgrey" stroke="black" points="922.5,-684 819.5,-684 819.5,-648 922.5,-648 922.5,-684"/>
<text text-anchor="middle" x="871" y="-662.3" font-family="Helvetica,sans-Serif" font-size="14.00">104.25.211.99</text>
</g>
<!-- 195.66.225.179&#45;&#45;104.25.211.99 -->
<g id="edge37" class="edge"><title>195.66.225.179&#45;&#45;104.25.211.99</title>
<path fill="none" stroke="black" d="M819.056,-719.697C829.752,-708.846 843.482,-694.917 854.14,-684.104"/>
</g>
<!-- 104.25.211.99&#45;&#45;monzo.com -->
<g id="edge38" class="edge"><title>104.25.211.99&#45;&#45;monzo.com</title>
<path fill="none" stroke="black" d="M872.483,-647.697C873.413,-636.846 874.607,-622.917 875.534,-612.104"/>
</g>
<!-- 80.88.202.138 -->
<g id="node42" class="node"><title>80.88.202.138</title>
<polygon fill="lightgrey" stroke="black" points="673.5,-612 570.5,-612 570.5,-576 673.5,-576 673.5,-612"/>
<text text-anchor="middle" x="622" y="-590.3" font-family="Helvetica,sans-Serif" font-size="14.00">80.88.202.138</text>
</g>
<!-- 195.66.225.93&#45;&#45;80.88.202.138 -->
<g id="edge40" class="edge"><title>195.66.225.93&#45;&#45;80.88.202.138</title>
<path fill="none" stroke="black" d="M622,-647.697C622,-636.846 622,-622.917 622,-612.104"/>
</g>
<!-- 213.129.70.253 -->
<g id="node43" class="node"><title>213.129.70.253</title>
<polygon fill="lightgrey" stroke="black" points="677,-540 567,-540 567,-504 677,-504 677,-540"/>
<text text-anchor="middle" x="622" y="-518.3" font-family="Helvetica,sans-Serif" font-size="14.00">213.129.70.253</text>
</g>
<!-- 80.88.202.138&#45;&#45;213.129.70.253 -->
<g id="edge41" class="edge"><title>80.88.202.138&#45;&#45;213.129.70.253</title>
<path fill="none" stroke="black" d="M622,-575.697C622,-564.846 622,-550.917 622,-540.104"/>
</g>
<!-- 213.129.70.237 -->
<g id="node44" class="node"><title>213.129.70.237</title>
<polygon fill="lightgrey" stroke="black" points="700,-468 590,-468 590,-432 700,-432 700,-468"/>
<text text-anchor="middle" x="645" y="-446.3" font-family="Helvetica,sans-Serif" font-size="14.00">213.129.70.237</text>
</g>
<!-- 213.129.70.253&#45;&#45;213.129.70.237 -->
<g id="edge42" class="edge"><title>213.129.70.253&#45;&#45;213.129.70.237</title>
<path fill="none" stroke="black" d="M627.685,-503.697C631.251,-492.846 635.827,-478.917 639.38,-468.104"/>
</g>
<!-- 213.129.70.237&#45;&#45;infinityfoods.coop -->
<g id="edge43" class="edge"><title>213.129.70.237&#45;&#45;infinityfoods.coop</title>
<path fill="none" stroke="black" d="M645,-431.697C645,-420.846 645,-406.917 645,-396.104"/>
</g>
<!-- 84.207.244.126 -->
<g id="node46" class="node"><title>84.207.244.126</title>
<polygon fill="lightgrey" stroke="black" points="802,-612 692,-612 692,-576 802,-576 802,-612"/>
<text text-anchor="middle" x="747" y="-590.3" font-family="Helvetica,sans-Serif" font-size="14.00">84.207.244.126</text>
</g>
<!-- 195.66.224.99&#45;&#45;84.207.244.126 -->
<g id="edge45" class="edge"><title>195.66.224.99&#45;&#45;84.207.244.126</title>
<path fill="none" stroke="black" d="M745.494,-647.697C745.804,-636.846 746.202,-622.917 746.511,-612.104"/>
</g>
<!-- 84.207.244.126&#45;&#45;morningstar.co.uk -->
<g id="edge46" class="edge"><title>84.207.244.126&#45;&#45;morningstar.co.uk</title>
<path fill="none" stroke="black" d="M754.169,-575.697C758.664,-564.846 764.435,-550.917 768.914,-540.104"/>
</g>
</g>
</svg>
