<?xml version="1.0" encoding="UTF-8" standalone="no"?>
<!DOCTYPE svg PUBLIC "-//W3C//DTD SVG 1.1//EN"
 "http://www.w3.org/Graphics/SVG/1.1/DTD/svg11.dtd">
<!-- Generated by graphviz version 2.38.0 (20140413.2041)
 -->
<!-- Title: %3 Pages: 1 -->
<svg width="2003pt" height="1412pt"
 viewBox="0.00 0.00 2003.19 1412.00" xmlns="http://www.w3.org/2000/svg" xmlns:xlink="http://www.w3.org/1999/xlink">
<g id="graph0" class="graph" transform="scale(1 1) rotate(0) translate(4 1408)">
<title>%3</title>
<polygon fill="white" stroke="none" points="-4,4 -4,-1408 1999.19,-1408 1999.19,4 -4,4"/>
<!-- soy yo -->
<g id="node1" class="node"><title>soy yo</title>
<ellipse fill="orange" stroke="black" cx="1067" cy="-1386" rx="58.4896" ry="18"/>
<text text-anchor="middle" x="1067" y="-1382.3" font-family="Helvetica,sans-Serif" font-size="14.00" fill="white">dev (soy yo)</text>
</g>
<!-- gateway -->
<g id="node11" class="node"><title>gateway</title>
<polygon fill="lightgrey" stroke="black" points="1100.5,-1332 1033.5,-1332 1033.5,-1296 1100.5,-1296 1100.5,-1332"/>
<text text-anchor="middle" x="1067" y="-1310.3" font-family="Helvetica,sans-Serif" font-size="14.00">gateway</text>
</g>
<!-- soy yo&#45;&#45;gateway -->
<g id="edge1" class="edge"><title>soy yo&#45;&#45;gateway</title>
<path fill="none" stroke="black" d="M1067,-1367.7C1067,-1356.85 1067,-1342.92 1067,-1332.1"/>
</g>
<!-- google.com -->
<g id="node2" class="node"><title>google.com</title>
<ellipse fill="green" stroke="black" cx="85" cy="-378" rx="56.59" ry="18"/>
<text text-anchor="middle" x="85" y="-374.3" font-family="Helvetica,sans-Serif" font-size="14.00" fill="white">google.com</text>
</g>
<!-- google.co.uk -->
<g id="node3" class="node"><title>google.co.uk</title>
<ellipse fill="green" stroke="black" cx="270" cy="-378" rx="60.3893" ry="18"/>
<text text-anchor="middle" x="270" y="-374.3" font-family="Helvetica,sans-Serif" font-size="14.00" fill="white">google.co.uk</text>
</g>
<!-- google.co.in -->
<g id="node4" class="node"><title>google.co.in</title>
<ellipse fill="green" stroke="black" cx="451" cy="-378" rx="57.6901" ry="18"/>
<text text-anchor="middle" x="451" y="-374.3" font-family="Helvetica,sans-Serif" font-size="14.00" fill="white">google.co.in</text>
</g>
<!-- deanturpin.github.io -->
<g id="node5" class="node"><title>deanturpin.github.io</title>
<ellipse fill="green" stroke="black" cx="608" cy="-522" rx="87.9851" ry="18"/>
<text text-anchor="middle" x="608" y="-518.3" font-family="Helvetica,sans-Serif" font-size="14.00" fill="white">deanturpin.github.io</text>
</g>
<!-- github.com -->
<g id="node6" class="node"><title>github.com</title>
<ellipse fill="green" stroke="black" cx="856" cy="-18" rx="53.8905" ry="18"/>
<text text-anchor="middle" x="856" y="-14.3" font-family="Helvetica,sans-Serif" font-size="14.00" fill="white">github.com</text>
</g>
<!-- silobrighton.com -->
<g id="node7" class="node"><title>silobrighton.com</title>
<ellipse fill="red" stroke="black" cx="1090" cy="-450" rx="75.2868" ry="18"/>
<text text-anchor="middle" x="1090" y="-446.3" font-family="Helvetica,sans-Serif" font-size="14.00" fill="white">silobrighton.com</text>
</g>
<!-- monzo.com -->
<g id="node8" class="node"><title>monzo.com</title>
<ellipse fill="green" stroke="black" cx="1938" cy="-594" rx="57.3905" ry="18"/>
<text text-anchor="middle" x="1938" y="-590.3" font-family="Helvetica,sans-Serif" font-size="14.00" fill="white">monzo.com</text>
</g>
<!-- infinityfoods.coop -->
<g id="node9" class="node"><title>infinityfoods.coop</title>
<ellipse fill="green" stroke="black" cx="1407" cy="-378" rx="78.7863" ry="18"/>
<text text-anchor="middle" x="1407" y="-374.3" font-family="Helvetica,sans-Serif" font-size="14.00" fill="white">infinityfoods.coop</text>
</g>
<!-- morningstar.co.uk -->
<g id="node10" class="node"><title>morningstar.co.uk</title>
<ellipse fill="red" stroke="black" cx="1742" cy="-522" rx="81.4863" ry="18"/>
<text text-anchor="middle" x="1742" y="-518.3" font-family="Helvetica,sans-Serif" font-size="14.00" fill="white">morningstar.co.uk</text>
</g>
<!-- 10.248.28.153 -->
<g id="node12" class="node"><title>10.248.28.153</title>
<polygon fill="lightgrey" stroke="black" points="1058.5,-1260 955.5,-1260 955.5,-1224 1058.5,-1224 1058.5,-1260"/>
<text text-anchor="middle" x="1007" y="-1238.3" font-family="Helvetica,sans-Serif" font-size="14.00">10.248.28.153</text>
</g>
<!-- gateway&#45;&#45;10.248.28.153 -->
<g id="edge2" class="edge"><title>gateway&#45;&#45;10.248.28.153</title>
<path fill="none" stroke="black" d="M1052.17,-1295.7C1042.87,-1284.85 1030.93,-1270.92 1021.66,-1260.1"/>
</g>
<!-- 10.248.28.145 -->
<g id="node26" class="node"><title>10.248.28.145</title>
<polygon fill="lightgrey" stroke="black" points="1179.5,-1260 1076.5,-1260 1076.5,-1224 1179.5,-1224 1179.5,-1260"/>
<text text-anchor="middle" x="1128" y="-1238.3" font-family="Helvetica,sans-Serif" font-size="14.00">10.248.28.145</text>
</g>
<!-- gateway&#45;&#45;10.248.28.145 -->
<g id="edge18" class="edge"><title>gateway&#45;&#45;10.248.28.145</title>
<path fill="none" stroke="black" d="M1082.08,-1295.7C1091.53,-1284.85 1103.67,-1270.92 1113.09,-1260.1"/>
</g>
<!-- 10.247.84.27 -->
<g id="node13" class="node"><title>10.247.84.27</title>
<polygon fill="lightgrey" stroke="black" points="1056.5,-1188 961.5,-1188 961.5,-1152 1056.5,-1152 1056.5,-1188"/>
<text text-anchor="middle" x="1009" y="-1166.3" font-family="Helvetica,sans-Serif" font-size="14.00">10.247.84.27</text>
</g>
<!-- 10.248.28.153&#45;&#45;10.247.84.27 -->
<g id="edge3" class="edge"><title>10.248.28.153&#45;&#45;10.247.84.27</title>
<path fill="none" stroke="black" d="M1007.49,-1223.7C1007.8,-1212.85 1008.2,-1198.92 1008.51,-1188.1"/>
</g>
<!-- 10.247.84.6 -->
<g id="node14" class="node"><title>10.247.84.6</title>
<polygon fill="lightgrey" stroke="black" points="1111,-1116 1023,-1116 1023,-1080 1111,-1080 1111,-1116"/>
<text text-anchor="middle" x="1067" y="-1094.3" font-family="Helvetica,sans-Serif" font-size="14.00">10.247.84.6</text>
</g>
<!-- 10.247.84.27&#45;&#45;10.247.84.6 -->
<g id="edge4" class="edge"><title>10.247.84.27&#45;&#45;10.247.84.6</title>
<path fill="none" stroke="black" d="M1023.34,-1151.7C1032.33,-1140.85 1043.87,-1126.92 1052.83,-1116.1"/>
</g>
<!-- 10.247.84.9 -->
<g id="node15" class="node"><title>10.247.84.9</title>
<polygon fill="lightgrey" stroke="black" points="1111,-1044 1023,-1044 1023,-1008 1111,-1008 1111,-1044"/>
<text text-anchor="middle" x="1067" y="-1022.3" font-family="Helvetica,sans-Serif" font-size="14.00">10.247.84.9</text>
</g>
<!-- 10.247.84.6&#45;&#45;10.247.84.9 -->
<g id="edge5" class="edge"><title>10.247.84.6&#45;&#45;10.247.84.9</title>
<path fill="none" stroke="black" d="M1067,-1079.7C1067,-1068.85 1067,-1054.92 1067,-1044.1"/>
</g>
<!-- 10.247.84.18 -->
<g id="node16" class="node"><title>10.247.84.18</title>
<polygon fill="lightgrey" stroke="black" points="1114.5,-972 1019.5,-972 1019.5,-936 1114.5,-936 1114.5,-972"/>
<text text-anchor="middle" x="1067" y="-950.3" font-family="Helvetica,sans-Serif" font-size="14.00">10.247.84.18</text>
</g>
<!-- 10.247.84.9&#45;&#45;10.247.84.18 -->
<g id="edge6" class="edge"><title>10.247.84.9&#45;&#45;10.247.84.18</title>
<path fill="none" stroke="black" d="M1067,-1007.7C1067,-996.846 1067,-982.917 1067,-972.104"/>
</g>
<!-- 87.237.20.224 -->
<g id="node17" class="node"><title>87.237.20.224</title>
<polygon fill="lightgrey" stroke="black" points="1118.5,-900 1015.5,-900 1015.5,-864 1118.5,-864 1118.5,-900"/>
<text text-anchor="middle" x="1067" y="-878.3" font-family="Helvetica,sans-Serif" font-size="14.00">87.237.20.224</text>
</g>
<!-- 10.247.84.18&#45;&#45;87.237.20.224 -->
<g id="edge7" class="edge"><title>10.247.84.18&#45;&#45;87.237.20.224</title>
<path fill="none" stroke="black" d="M1067,-935.697C1067,-924.846 1067,-910.917 1067,-900.104"/>
</g>
<!-- 87.237.20.73 -->
<g id="node18" class="node"><title>87.237.20.73</title>
<polygon fill="lightgrey" stroke="black" points="1114.5,-828 1019.5,-828 1019.5,-792 1114.5,-792 1114.5,-828"/>
<text text-anchor="middle" x="1067" y="-806.3" font-family="Helvetica,sans-Serif" font-size="14.00">87.237.20.73</text>
</g>
<!-- 87.237.20.224&#45;&#45;87.237.20.73 -->
<g id="edge8" class="edge"><title>87.237.20.224&#45;&#45;87.237.20.73</title>
<path fill="none" stroke="black" d="M1067,-863.697C1067,-852.846 1067,-838.917 1067,-828.104"/>
</g>
<!-- 87.237.20.36 -->
<g id="node19" class="node"><title>87.237.20.36</title>
<polygon fill="lightgrey" stroke="black" points="714.5,-756 619.5,-756 619.5,-720 714.5,-720 714.5,-756"/>
<text text-anchor="middle" x="667" y="-734.3" font-family="Helvetica,sans-Serif" font-size="14.00">87.237.20.36</text>
</g>
<!-- 87.237.20.73&#45;&#45;87.237.20.36 -->
<g id="edge9" class="edge"><title>87.237.20.73&#45;&#45;87.237.20.36</title>
<path fill="none" stroke="black" d="M1019.15,-800.626C942.11,-787.144 791.471,-760.782 714.596,-747.329"/>
</g>
<!-- 80.150.169.13 -->
<g id="node31" class="node"><title>80.150.169.13</title>
<polygon fill="lightgrey" stroke="black" points="997.5,-756 894.5,-756 894.5,-720 997.5,-720 997.5,-756"/>
<text text-anchor="middle" x="946" y="-734.3" font-family="Helvetica,sans-Serif" font-size="14.00">80.150.169.13</text>
</g>
<!-- 87.237.20.73&#45;&#45;80.150.169.13 -->
<g id="edge25" class="edge"><title>87.237.20.73&#45;&#45;80.150.169.13</title>
<path fill="none" stroke="black" d="M1037.4,-791.876C1018.65,-781.029 994.486,-767.05 975.714,-756.19"/>
</g>
<!-- 87.237.20.33 -->
<g id="node42" class="node"><title>87.237.20.33</title>
<polygon fill="lightgrey" stroke="black" points="1235.5,-756 1140.5,-756 1140.5,-720 1235.5,-720 1235.5,-756"/>
<text text-anchor="middle" x="1188" y="-734.3" font-family="Helvetica,sans-Serif" font-size="14.00">87.237.20.33</text>
</g>
<!-- 87.237.20.73&#45;&#45;87.237.20.33 -->
<g id="edge38" class="edge"><title>87.237.20.73&#45;&#45;87.237.20.33</title>
<path fill="none" stroke="black" d="M1096.6,-791.876C1115.35,-781.029 1139.51,-767.05 1158.29,-756.19"/>
</g>
<!-- linx&#45;lon1.as13335.net -->
<g id="node46" class="node"><title>linx&#45;lon1.as13335.net</title>
<polygon fill="lightgrey" stroke="black" points="1572.5,-756 1427.5,-756 1427.5,-720 1572.5,-720 1572.5,-756"/>
<text text-anchor="middle" x="1500" y="-734.3" font-family="Helvetica,sans-Serif" font-size="14.00">linx&#45;lon1.as13335.net</text>
</g>
<!-- 87.237.20.73&#45;&#45;linx&#45;lon1.as13335.net -->
<g id="edge43" class="edge"><title>87.237.20.73&#45;&#45;linx&#45;lon1.as13335.net</title>
<path fill="none" stroke="black" d="M1114.58,-801.309C1190.15,-789.091 1338.16,-765.164 1427.15,-750.777"/>
</g>
<!-- 74.125.52.218 -->
<g id="node20" class="node"><title>74.125.52.218</title>
<polygon fill="lightgrey" stroke="black" points="465.5,-684 362.5,-684 362.5,-648 465.5,-648 465.5,-684"/>
<text text-anchor="middle" x="414" y="-662.3" font-family="Helvetica,sans-Serif" font-size="14.00">74.125.52.218</text>
</g>
<!-- 87.237.20.36&#45;&#45;74.125.52.218 -->
<g id="edge10" class="edge"><title>87.237.20.36&#45;&#45;74.125.52.218</title>
<path fill="none" stroke="black" d="M619.413,-723.834C575.612,-711.715 510.795,-693.781 465.728,-681.312"/>
</g>
<!-- 108.170.246.193 -->
<g id="node21" class="node"><title>108.170.246.193</title>
<polygon fill="lightgrey" stroke="black" points="329,-612 211,-612 211,-576 329,-576 329,-612"/>
<text text-anchor="middle" x="270" y="-590.3" font-family="Helvetica,sans-Serif" font-size="14.00">108.170.246.193</text>
</g>
<!-- 74.125.52.218&#45;&#45;108.170.246.193 -->
<g id="edge11" class="edge"><title>74.125.52.218&#45;&#45;108.170.246.193</title>
<path fill="none" stroke="black" d="M378.774,-647.876C356.459,-637.029 327.702,-623.05 305.362,-612.19"/>
</g>
<!-- 108.170.246.225 -->
<g id="node28" class="node"><title>108.170.246.225</title>
<polygon fill="lightgrey" stroke="black" points="473,-612 355,-612 355,-576 473,-576 473,-612"/>
<text text-anchor="middle" x="414" y="-590.3" font-family="Helvetica,sans-Serif" font-size="14.00">108.170.246.225</text>
</g>
<!-- 74.125.52.218&#45;&#45;108.170.246.225 -->
<g id="edge21" class="edge"><title>74.125.52.218&#45;&#45;108.170.246.225</title>
<path fill="none" stroke="black" d="M414,-647.697C414,-636.846 414,-622.917 414,-612.104"/>
</g>
<!-- 108.170.238.151 -->
<g id="node22" class="node"><title>108.170.238.151</title>
<polygon fill="lightgrey" stroke="black" points="168,-540 50,-540 50,-504 168,-504 168,-540"/>
<text text-anchor="middle" x="109" y="-518.3" font-family="Helvetica,sans-Serif" font-size="14.00">108.170.238.151</text>
</g>
<!-- 108.170.246.193&#45;&#45;108.170.238.151 -->
<g id="edge12" class="edge"><title>108.170.246.193&#45;&#45;108.170.238.151</title>
<path fill="none" stroke="black" d="M230.615,-575.876C205.573,-564.988 173.274,-550.945 148.257,-540.068"/>
</g>
<!-- 108.170.235.107 -->
<g id="node24" class="node"><title>108.170.235.107</title>
<polygon fill="lightgrey" stroke="black" points="329,-540 211,-540 211,-504 329,-504 329,-540"/>
<text text-anchor="middle" x="270" y="-518.3" font-family="Helvetica,sans-Serif" font-size="14.00">108.170.235.107</text>
</g>
<!-- 108.170.246.193&#45;&#45;108.170.235.107 -->
<g id="edge15" class="edge"><title>108.170.246.193&#45;&#45;108.170.235.107</title>
<path fill="none" stroke="black" d="M270,-575.697C270,-564.846 270,-550.917 270,-540.104"/>
</g>
<!-- lhr35s06&#45;in&#45;f14.1e100.net -->
<g id="node23" class="node"><title>lhr35s06&#45;in&#45;f14.1e100.net</title>
<polygon fill="lightgrey" stroke="black" points="170,-468 0,-468 0,-432 170,-432 170,-468"/>
<text text-anchor="middle" x="85" y="-446.3" font-family="Helvetica,sans-Serif" font-size="14.00">lhr35s06&#45;in&#45;f14.1e100.net</text>
</g>
<!-- 108.170.238.151&#45;&#45;lhr35s06&#45;in&#45;f14.1e100.net -->
<g id="edge13" class="edge"><title>108.170.238.151&#45;&#45;lhr35s06&#45;in&#45;f14.1e100.net</title>
<path fill="none" stroke="black" d="M103.067,-503.697C99.3473,-492.846 94.5714,-478.917 90.8643,-468.104"/>
</g>
<!-- lhr35s06&#45;in&#45;f14.1e100.net&#45;&#45;google.com -->
<g id="edge14" class="edge"><title>lhr35s06&#45;in&#45;f14.1e100.net&#45;&#45;google.com</title>
<path fill="none" stroke="black" d="M85,-431.697C85,-420.846 85,-406.917 85,-396.104"/>
</g>
<!-- lhr35s02&#45;in&#45;f3.1e100.net -->
<g id="node25" class="node"><title>lhr35s02&#45;in&#45;f3.1e100.net</title>
<polygon fill="lightgrey" stroke="black" points="351.5,-468 188.5,-468 188.5,-432 351.5,-432 351.5,-468"/>
<text text-anchor="middle" x="270" y="-446.3" font-family="Helvetica,sans-Serif" font-size="14.00">lhr35s02&#45;in&#45;f3.1e100.net</text>
</g>
<!-- 108.170.235.107&#45;&#45;lhr35s02&#45;in&#45;f3.1e100.net -->
<g id="edge16" class="edge"><title>108.170.235.107&#45;&#45;lhr35s02&#45;in&#45;f3.1e100.net</title>
<path fill="none" stroke="black" d="M270,-503.697C270,-492.846 270,-478.917 270,-468.104"/>
</g>
<!-- lhr35s02&#45;in&#45;f3.1e100.net&#45;&#45;google.co.uk -->
<g id="edge17" class="edge"><title>lhr35s02&#45;in&#45;f3.1e100.net&#45;&#45;google.co.uk</title>
<path fill="none" stroke="black" d="M270,-431.697C270,-420.846 270,-406.917 270,-396.104"/>
</g>
<!-- 10.247.84.25 -->
<g id="node27" class="node"><title>10.247.84.25</title>
<polygon fill="lightgrey" stroke="black" points="1173.5,-1188 1078.5,-1188 1078.5,-1152 1173.5,-1152 1173.5,-1188"/>
<text text-anchor="middle" x="1126" y="-1166.3" font-family="Helvetica,sans-Serif" font-size="14.00">10.247.84.25</text>
</g>
<!-- 10.248.28.145&#45;&#45;10.247.84.25 -->
<g id="edge19" class="edge"><title>10.248.28.145&#45;&#45;10.247.84.25</title>
<path fill="none" stroke="black" d="M1127.51,-1223.7C1127.2,-1212.85 1126.8,-1198.92 1126.49,-1188.1"/>
</g>
<!-- 10.247.84.25&#45;&#45;10.247.84.6 -->
<g id="edge20" class="edge"><title>10.247.84.25&#45;&#45;10.247.84.6</title>
<path fill="none" stroke="black" d="M1111.42,-1151.7C1102.27,-1140.85 1090.53,-1126.92 1081.42,-1116.1"/>
</g>
<!-- 108.170.238.149 -->
<g id="node29" class="node"><title>108.170.238.149</title>
<polygon fill="lightgrey" stroke="black" points="488,-540 370,-540 370,-504 488,-504 488,-540"/>
<text text-anchor="middle" x="429" y="-518.3" font-family="Helvetica,sans-Serif" font-size="14.00">108.170.238.149</text>
</g>
<!-- 108.170.246.225&#45;&#45;108.170.238.149 -->
<g id="edge22" class="edge"><title>108.170.246.225&#45;&#45;108.170.238.149</title>
<path fill="none" stroke="black" d="M417.708,-575.697C420.033,-564.846 423.018,-550.917 425.335,-540.104"/>
</g>
<!-- lhr35s06&#45;in&#45;f3.1e100.net -->
<g id="node30" class="node"><title>lhr35s06&#45;in&#45;f3.1e100.net</title>
<polygon fill="lightgrey" stroke="black" points="532.5,-468 369.5,-468 369.5,-432 532.5,-432 532.5,-468"/>
<text text-anchor="middle" x="451" y="-446.3" font-family="Helvetica,sans-Serif" font-size="14.00">lhr35s06&#45;in&#45;f3.1e100.net</text>
</g>
<!-- 108.170.238.149&#45;&#45;lhr35s06&#45;in&#45;f3.1e100.net -->
<g id="edge23" class="edge"><title>108.170.238.149&#45;&#45;lhr35s06&#45;in&#45;f3.1e100.net</title>
<path fill="none" stroke="black" d="M434.438,-503.697C437.848,-492.846 442.226,-478.917 445.624,-468.104"/>
</g>
<!-- lhr35s06&#45;in&#45;f3.1e100.net&#45;&#45;google.co.in -->
<g id="edge24" class="edge"><title>lhr35s06&#45;in&#45;f3.1e100.net&#45;&#45;google.co.in</title>
<path fill="none" stroke="black" d="M451,-431.697C451,-420.846 451,-406.917 451,-396.104"/>
</g>
<!-- 80.150.170.106 -->
<g id="node32" class="node"><title>80.150.170.106</title>
<polygon fill="lightgrey" stroke="black" points="911,-684 801,-684 801,-648 911,-648 911,-684"/>
<text text-anchor="middle" x="856" y="-662.3" font-family="Helvetica,sans-Serif" font-size="14.00">80.150.170.106</text>
</g>
<!-- 80.150.169.13&#45;&#45;80.150.170.106 -->
<g id="edge26" class="edge"><title>80.150.169.13&#45;&#45;80.150.170.106</title>
<path fill="none" stroke="black" d="M923.753,-719.697C909.802,-708.846 891.893,-694.917 877.991,-684.104"/>
</g>
<!-- ae&#45;25.r00.londen10.uk.bb.gin.ntt.net -->
<g id="node33" class="node"><title>ae&#45;25.r00.londen10.uk.bb.gin.ntt.net</title>
<polygon fill="lightgrey" stroke="black" points="724.5,-612 491.5,-612 491.5,-576 724.5,-576 724.5,-612"/>
<text text-anchor="middle" x="608" y="-590.3" font-family="Helvetica,sans-Serif" font-size="14.00">ae&#45;25.r00.londen10.uk.bb.gin.ntt.net</text>
</g>
<!-- 80.150.170.106&#45;&#45;ae&#45;25.r00.londen10.uk.bb.gin.ntt.net -->
<g id="edge27" class="edge"><title>80.150.170.106&#45;&#45;ae&#45;25.r00.londen10.uk.bb.gin.ntt.net</title>
<path fill="none" stroke="black" d="M800.961,-649.465C761.718,-638.388 708.964,-623.498 668.534,-612.086"/>
</g>
<!-- ae&#45;3.r24.londen12.uk.bb.gin.ntt.net -->
<g id="node34" class="node"><title>ae&#45;3.r24.londen12.uk.bb.gin.ntt.net</title>
<polygon fill="lightgrey" stroke="black" points="969,-612 743,-612 743,-576 969,-576 969,-612"/>
<text text-anchor="middle" x="856" y="-590.3" font-family="Helvetica,sans-Serif" font-size="14.00">ae&#45;3.r24.londen12.uk.bb.gin.ntt.net</text>
</g>
<!-- 80.150.170.106&#45;&#45;ae&#45;3.r24.londen12.uk.bb.gin.ntt.net -->
<g id="edge29" class="edge"><title>80.150.170.106&#45;&#45;ae&#45;3.r24.londen12.uk.bb.gin.ntt.net</title>
<path fill="none" stroke="black" d="M856,-647.697C856,-636.846 856,-622.917 856,-612.104"/>
</g>
<!-- ae&#45;25.r00.londen10.uk.bb.gin.ntt.net&#45;&#45;deanturpin.github.io -->
<g id="edge28" class="edge"><title>ae&#45;25.r00.londen10.uk.bb.gin.ntt.net&#45;&#45;deanturpin.github.io</title>
<path fill="none" stroke="black" d="M608,-575.697C608,-564.846 608,-550.917 608,-540.104"/>
</g>
<!-- ae&#45;5.r24.nycmny01.us.bb.gin.ntt.net -->
<g id="node35" class="node"><title>ae&#45;5.r24.nycmny01.us.bb.gin.ntt.net</title>
<polygon fill="lightgrey" stroke="black" points="972.5,-540 739.5,-540 739.5,-504 972.5,-504 972.5,-540"/>
<text text-anchor="middle" x="856" y="-518.3" font-family="Helvetica,sans-Serif" font-size="14.00">ae&#45;5.r24.nycmny01.us.bb.gin.ntt.net</text>
</g>
<!-- ae&#45;3.r24.londen12.uk.bb.gin.ntt.net&#45;&#45;ae&#45;5.r24.nycmny01.us.bb.gin.ntt.net -->
<g id="edge30" class="edge"><title>ae&#45;3.r24.londen12.uk.bb.gin.ntt.net&#45;&#45;ae&#45;5.r24.nycmny01.us.bb.gin.ntt.net</title>
<path fill="none" stroke="black" d="M856,-575.697C856,-564.846 856,-550.917 856,-540.104"/>
</g>
<!-- ae&#45;1.r25.nycmny01.us.bb.gin.ntt.net -->
<g id="node36" class="node"><title>ae&#45;1.r25.nycmny01.us.bb.gin.ntt.net</title>
<polygon fill="lightgrey" stroke="black" points="972.5,-468 739.5,-468 739.5,-432 972.5,-432 972.5,-468"/>
<text text-anchor="middle" x="856" y="-446.3" font-family="Helvetica,sans-Serif" font-size="14.00">ae&#45;1.r25.nycmny01.us.bb.gin.ntt.net</text>
</g>
<!-- ae&#45;5.r24.nycmny01.us.bb.gin.ntt.net&#45;&#45;ae&#45;1.r25.nycmny01.us.bb.gin.ntt.net -->
<g id="edge31" class="edge"><title>ae&#45;5.r24.nycmny01.us.bb.gin.ntt.net&#45;&#45;ae&#45;1.r25.nycmny01.us.bb.gin.ntt.net</title>
<path fill="none" stroke="black" d="M856,-503.697C856,-492.846 856,-478.917 856,-468.104"/>
</g>
<!-- ae&#45;9.r22.asbnva02.us.bb.gin.ntt.net -->
<g id="node37" class="node"><title>ae&#45;9.r22.asbnva02.us.bb.gin.ntt.net</title>
<polygon fill="lightgrey" stroke="black" points="970.5,-396 741.5,-396 741.5,-360 970.5,-360 970.5,-396"/>
<text text-anchor="middle" x="856" y="-374.3" font-family="Helvetica,sans-Serif" font-size="14.00">ae&#45;9.r22.asbnva02.us.bb.gin.ntt.net</text>
</g>
<!-- ae&#45;1.r25.nycmny01.us.bb.gin.ntt.net&#45;&#45;ae&#45;9.r22.asbnva02.us.bb.gin.ntt.net -->
<g id="edge32" class="edge"><title>ae&#45;1.r25.nycmny01.us.bb.gin.ntt.net&#45;&#45;ae&#45;9.r22.asbnva02.us.bb.gin.ntt.net</title>
<path fill="none" stroke="black" d="M856,-431.697C856,-420.846 856,-406.917 856,-396.104"/>
</g>
<!-- ae&#45;7.r06.asbnva02.us.bb.gin.ntt.net -->
<g id="node38" class="node"><title>ae&#45;7.r06.asbnva02.us.bb.gin.ntt.net</title>
<polygon fill="lightgrey" stroke="black" points="970.5,-324 741.5,-324 741.5,-288 970.5,-288 970.5,-324"/>
<text text-anchor="middle" x="856" y="-302.3" font-family="Helvetica,sans-Serif" font-size="14.00">ae&#45;7.r06.asbnva02.us.bb.gin.ntt.net</text>
</g>
<!-- ae&#45;9.r22.asbnva02.us.bb.gin.ntt.net&#45;&#45;ae&#45;7.r06.asbnva02.us.bb.gin.ntt.net -->
<g id="edge33" class="edge"><title>ae&#45;9.r22.asbnva02.us.bb.gin.ntt.net&#45;&#45;ae&#45;7.r06.asbnva02.us.bb.gin.ntt.net</title>
<path fill="none" stroke="black" d="M856,-359.697C856,-348.846 856,-334.917 856,-324.104"/>
</g>
<!-- ae&#45;1.a01.asbnva02.us.bb.gin.ntt.net -->
<g id="node39" class="node"><title>ae&#45;1.a01.asbnva02.us.bb.gin.ntt.net</title>
<polygon fill="lightgrey" stroke="black" points="972,-252 740,-252 740,-216 972,-216 972,-252"/>
<text text-anchor="middle" x="856" y="-230.3" font-family="Helvetica,sans-Serif" font-size="14.00">ae&#45;1.a01.asbnva02.us.bb.gin.ntt.net</text>
</g>
<!-- ae&#45;7.r06.asbnva02.us.bb.gin.ntt.net&#45;&#45;ae&#45;1.a01.asbnva02.us.bb.gin.ntt.net -->
<g id="edge34" class="edge"><title>ae&#45;7.r06.asbnva02.us.bb.gin.ntt.net&#45;&#45;ae&#45;1.a01.asbnva02.us.bb.gin.ntt.net</title>
<path fill="none" stroke="black" d="M856,-287.697C856,-276.846 856,-262.917 856,-252.104"/>
</g>
<!-- xe&#45;0&#45;0&#45;25&#45;1.a01.asbnva02.us.ce.gin.ntt.net -->
<g id="node40" class="node"><title>xe&#45;0&#45;0&#45;25&#45;1.a01.asbnva02.us.ce.gin.ntt.net</title>
<polygon fill="lightgrey" stroke="black" points="993,-180 719,-180 719,-144 993,-144 993,-180"/>
<text text-anchor="middle" x="856" y="-158.3" font-family="Helvetica,sans-Serif" font-size="14.00">xe&#45;0&#45;0&#45;25&#45;1.a01.asbnva02.us.ce.gin.ntt.net</text>
</g>
<!-- ae&#45;1.a01.asbnva02.us.bb.gin.ntt.net&#45;&#45;xe&#45;0&#45;0&#45;25&#45;1.a01.asbnva02.us.ce.gin.ntt.net -->
<g id="edge35" class="edge"><title>ae&#45;1.a01.asbnva02.us.bb.gin.ntt.net&#45;&#45;xe&#45;0&#45;0&#45;25&#45;1.a01.asbnva02.us.ce.gin.ntt.net</title>
<path fill="none" stroke="black" d="M856,-215.697C856,-204.846 856,-190.917 856,-180.104"/>
</g>
<!-- lb&#45;192&#45;30&#45;253&#45;112&#45;iad.github.com -->
<g id="node41" class="node"><title>lb&#45;192&#45;30&#45;253&#45;112&#45;iad.github.com</title>
<polygon fill="lightgrey" stroke="black" points="966.5,-108 745.5,-108 745.5,-72 966.5,-72 966.5,-108"/>
<text text-anchor="middle" x="856" y="-86.3" font-family="Helvetica,sans-Serif" font-size="14.00">lb&#45;192&#45;30&#45;253&#45;112&#45;iad.github.com</text>
</g>
<!-- xe&#45;0&#45;0&#45;25&#45;1.a01.asbnva02.us.ce.gin.ntt.net&#45;&#45;lb&#45;192&#45;30&#45;253&#45;112&#45;iad.github.com -->
<g id="edge36" class="edge"><title>xe&#45;0&#45;0&#45;25&#45;1.a01.asbnva02.us.ce.gin.ntt.net&#45;&#45;lb&#45;192&#45;30&#45;253&#45;112&#45;iad.github.com</title>
<path fill="none" stroke="black" d="M856,-143.697C856,-132.846 856,-118.917 856,-108.104"/>
</g>
<!-- lb&#45;192&#45;30&#45;253&#45;112&#45;iad.github.com&#45;&#45;github.com -->
<g id="edge37" class="edge"><title>lb&#45;192&#45;30&#45;253&#45;112&#45;iad.github.com&#45;&#45;github.com</title>
<path fill="none" stroke="black" d="M856,-71.6966C856,-60.8463 856,-46.9167 856,-36.1043"/>
</g>
<!-- 195.66.225.215 -->
<g id="node43" class="node"><title>195.66.225.215</title>
<polygon fill="lightgrey" stroke="black" points="1180,-684 1070,-684 1070,-648 1180,-648 1180,-684"/>
<text text-anchor="middle" x="1125" y="-662.3" font-family="Helvetica,sans-Serif" font-size="14.00">195.66.225.215</text>
</g>
<!-- 87.237.20.33&#45;&#45;195.66.225.215 -->
<g id="edge39" class="edge"><title>87.237.20.33&#45;&#45;195.66.225.215</title>
<path fill="none" stroke="black" d="M1172.43,-719.697C1162.66,-708.846 1150.13,-694.917 1140.39,-684.104"/>
</g>
<!-- linx1.orbital.net -->
<g id="node48" class="node"><title>linx1.orbital.net</title>
<polygon fill="lightgrey" stroke="black" points="1400.5,-684 1293.5,-684 1293.5,-648 1400.5,-648 1400.5,-684"/>
<text text-anchor="middle" x="1347" y="-662.3" font-family="Helvetica,sans-Serif" font-size="14.00">linx1.orbital.net</text>
</g>
<!-- 87.237.20.33&#45;&#45;linx1.orbital.net -->
<g id="edge46" class="edge"><title>87.237.20.33&#45;&#45;linx1.orbital.net</title>
<path fill="none" stroke="black" d="M1226.9,-719.876C1251.63,-708.988 1283.52,-694.945 1308.23,-684.068"/>
</g>
<!-- linx.ae4&#45;irt1.lon37.uk.as13237.net -->
<g id="node52" class="node"><title>linx.ae4&#45;irt1.lon37.uk.as13237.net</title>
<polygon fill="lightgrey" stroke="black" points="1761.5,-684 1542.5,-684 1542.5,-648 1761.5,-648 1761.5,-684"/>
<text text-anchor="middle" x="1652" y="-662.3" font-family="Helvetica,sans-Serif" font-size="14.00">linx.ae4&#45;irt1.lon37.uk.as13237.net</text>
</g>
<!-- 87.237.20.33&#45;&#45;linx.ae4&#45;irt1.lon37.uk.as13237.net -->
<g id="edge51" class="edge"><title>87.237.20.33&#45;&#45;linx.ae4&#45;irt1.lon37.uk.as13237.net</title>
<path fill="none" stroke="black" d="M1235.91,-729.772C1307.69,-718.944 1445.08,-698.216 1542.32,-683.546"/>
</g>
<!-- 4d&#45;lgw&#45;bbr&#45;2&#45;0002&#45;6.4d&#45;dc.com -->
<g id="node44" class="node"><title>4d&#45;lgw&#45;bbr&#45;2&#45;0002&#45;6.4d&#45;dc.com</title>
<polygon fill="lightgrey" stroke="black" points="1193,-612 987,-612 987,-576 1193,-576 1193,-612"/>
<text text-anchor="middle" x="1090" y="-590.3" font-family="Helvetica,sans-Serif" font-size="14.00">4d&#45;lgw&#45;bbr&#45;2&#45;0002&#45;6.4d&#45;dc.com</text>
</g>
<!-- 195.66.225.215&#45;&#45;4d&#45;lgw&#45;bbr&#45;2&#45;0002&#45;6.4d&#45;dc.com -->
<g id="edge40" class="edge"><title>195.66.225.215&#45;&#45;4d&#45;lgw&#45;bbr&#45;2&#45;0002&#45;6.4d&#45;dc.com</title>
<path fill="none" stroke="black" d="M1116.35,-647.697C1110.92,-636.846 1103.96,-622.917 1098.55,-612.104"/>
</g>
<!-- 4d&#45;lgw&#45;men&#45;2&#45;024.4d&#45;dc.com -->
<g id="node45" class="node"><title>4d&#45;lgw&#45;men&#45;2&#45;024.4d&#45;dc.com</title>
<polygon fill="lightgrey" stroke="black" points="1187,-540 993,-540 993,-504 1187,-504 1187,-540"/>
<text text-anchor="middle" x="1090" y="-518.3" font-family="Helvetica,sans-Serif" font-size="14.00">4d&#45;lgw&#45;men&#45;2&#45;024.4d&#45;dc.com</text>
</g>
<!-- 4d&#45;lgw&#45;bbr&#45;2&#45;0002&#45;6.4d&#45;dc.com&#45;&#45;4d&#45;lgw&#45;men&#45;2&#45;024.4d&#45;dc.com -->
<g id="edge41" class="edge"><title>4d&#45;lgw&#45;bbr&#45;2&#45;0002&#45;6.4d&#45;dc.com&#45;&#45;4d&#45;lgw&#45;men&#45;2&#45;024.4d&#45;dc.com</title>
<path fill="none" stroke="black" d="M1090,-575.697C1090,-564.846 1090,-550.917 1090,-540.104"/>
</g>
<!-- 4d&#45;lgw&#45;men&#45;2&#45;024.4d&#45;dc.com&#45;&#45;silobrighton.com -->
<g id="edge42" class="edge"><title>4d&#45;lgw&#45;men&#45;2&#45;024.4d&#45;dc.com&#45;&#45;silobrighton.com</title>
<path fill="none" stroke="black" d="M1090,-503.697C1090,-492.846 1090,-478.917 1090,-468.104"/>
</g>
<!-- 104.25.211.99 -->
<g id="node47" class="node"><title>104.25.211.99</title>
<polygon fill="lightgrey" stroke="black" points="1953.5,-684 1850.5,-684 1850.5,-648 1953.5,-648 1953.5,-684"/>
<text text-anchor="middle" x="1902" y="-662.3" font-family="Helvetica,sans-Serif" font-size="14.00">104.25.211.99</text>
</g>
<!-- linx&#45;lon1.as13335.net&#45;&#45;104.25.211.99 -->
<g id="edge44" class="edge"><title>linx&#45;lon1.as13335.net&#45;&#45;104.25.211.99</title>
<path fill="none" stroke="black" d="M1572.8,-724.324C1653.01,-710.357 1779.96,-688.25 1850.48,-675.971"/>
</g>
<!-- 104.25.211.99&#45;&#45;monzo.com -->
<g id="edge45" class="edge"><title>104.25.211.99&#45;&#45;monzo.com</title>
<path fill="none" stroke="black" d="M1910.9,-647.697C1916.48,-636.846 1923.64,-622.917 1929.2,-612.104"/>
</g>
<!-- xe2&#45;2&#45;ve&#45;83.thn&#45;pe&#45;2.thn.thebunker.net.202.88.80.in&#45;addr.arpa -->
<g id="node49" class="node"><title>xe2&#45;2&#45;ve&#45;83.thn&#45;pe&#45;2.thn.thebunker.net.202.88.80.in&#45;addr.arpa</title>
<polygon fill="lightgrey" stroke="black" points="1603,-612 1211,-612 1211,-576 1603,-576 1603,-612"/>
<text text-anchor="middle" x="1407" y="-590.3" font-family="Helvetica,sans-Serif" font-size="14.00">xe2&#45;2&#45;ve&#45;83.thn&#45;pe&#45;2.thn.thebunker.net.202.88.80.in&#45;addr.arpa</text>
</g>
<!-- linx1.orbital.net&#45;&#45;xe2&#45;2&#45;ve&#45;83.thn&#45;pe&#45;2.thn.thebunker.net.202.88.80.in&#45;addr.arpa -->
<g id="edge47" class="edge"><title>linx1.orbital.net&#45;&#45;xe2&#45;2&#45;ve&#45;83.thn&#45;pe&#45;2.thn.thebunker.net.202.88.80.in&#45;addr.arpa</title>
<path fill="none" stroke="black" d="M1361.83,-647.697C1371.13,-636.846 1383.07,-622.917 1392.34,-612.104"/>
</g>
<!-- 213.129.70.253 -->
<g id="node50" class="node"><title>213.129.70.253</title>
<polygon fill="lightgrey" stroke="black" points="1462,-540 1352,-540 1352,-504 1462,-504 1462,-540"/>
<text text-anchor="middle" x="1407" y="-518.3" font-family="Helvetica,sans-Serif" font-size="14.00">213.129.70.253</text>
</g>
<!-- xe2&#45;2&#45;ve&#45;83.thn&#45;pe&#45;2.thn.thebunker.net.202.88.80.in&#45;addr.arpa&#45;&#45;213.129.70.253 -->
<g id="edge48" class="edge"><title>xe2&#45;2&#45;ve&#45;83.thn&#45;pe&#45;2.thn.thebunker.net.202.88.80.in&#45;addr.arpa&#45;&#45;213.129.70.253</title>
<path fill="none" stroke="black" d="M1407,-575.697C1407,-564.846 1407,-550.917 1407,-540.104"/>
</g>
<!-- 213.129.70.237 -->
<g id="node51" class="node"><title>213.129.70.237</title>
<polygon fill="lightgrey" stroke="black" points="1462,-468 1352,-468 1352,-432 1462,-432 1462,-468"/>
<text text-anchor="middle" x="1407" y="-446.3" font-family="Helvetica,sans-Serif" font-size="14.00">213.129.70.237</text>
</g>
<!-- 213.129.70.253&#45;&#45;213.129.70.237 -->
<g id="edge49" class="edge"><title>213.129.70.253&#45;&#45;213.129.70.237</title>
<path fill="none" stroke="black" d="M1407,-503.697C1407,-492.846 1407,-478.917 1407,-468.104"/>
</g>
<!-- 213.129.70.237&#45;&#45;infinityfoods.coop -->
<g id="edge50" class="edge"><title>213.129.70.237&#45;&#45;infinityfoods.coop</title>
<path fill="none" stroke="black" d="M1407,-431.697C1407,-420.846 1407,-406.917 1407,-396.104"/>
</g>
<!-- 84.207.244.126.not&#45;updated.eunx.net -->
<g id="node53" class="node"><title>84.207.244.126.not&#45;updated.eunx.net</title>
<polygon fill="lightgrey" stroke="black" points="1863,-612 1621,-612 1621,-576 1863,-576 1863,-612"/>
<text text-anchor="middle" x="1742" y="-590.3" font-family="Helvetica,sans-Serif" font-size="14.00">84.207.244.126.not&#45;updated.eunx.net</text>
</g>
<!-- linx.ae4&#45;irt1.lon37.uk.as13237.net&#45;&#45;84.207.244.126.not&#45;updated.eunx.net -->
<g id="edge52" class="edge"><title>linx.ae4&#45;irt1.lon37.uk.as13237.net&#45;&#45;84.207.244.126.not&#45;updated.eunx.net</title>
<path fill="none" stroke="black" d="M1674.25,-647.697C1688.2,-636.846 1706.11,-622.917 1720.01,-612.104"/>
</g>
<!-- 84.207.244.126.not&#45;updated.eunx.net&#45;&#45;morningstar.co.uk -->
<g id="edge53" class="edge"><title>84.207.244.126.not&#45;updated.eunx.net&#45;&#45;morningstar.co.uk</title>
<path fill="none" stroke="black" d="M1742,-575.697C1742,-564.846 1742,-550.917 1742,-540.104"/>
</g>
</g>
</svg>
