<?xml version="1.0" encoding="UTF-8" standalone="no"?>
<!DOCTYPE svg PUBLIC "-//W3C//DTD SVG 1.1//EN"
 "http://www.w3.org/Graphics/SVG/1.1/DTD/svg11.dtd">
<!-- Generated by graphviz version 2.38.0 (20140413.2041)
 -->
<!-- Title: %3 Pages: 1 -->
<svg width="1148pt" height="1147pt"
 viewBox="0.00 0.00 1147.50 1147.00" xmlns="http://www.w3.org/2000/svg" xmlns:xlink="http://www.w3.org/1999/xlink">
<g id="graph0" class="graph" transform="scale(1 1) rotate(0) translate(4 1143)">
<title>%3</title>
<polygon fill="white" stroke="none" points="-4,4 -4,-1143 1143.5,-1143 1143.5,4 -4,4"/>
<text text-anchor="middle" x="154" y="-1123.8" font-family="Helvetica,sans-Serif" font-size="14.00">./hosts2dot.sh &#45; Thu 14 Dec 13:09:24 GMT 2017</text>
<!-- soy_yo -->
<g id="node1" class="node"><title>soy_yo</title>
<path fill="lightgrey" stroke="white" d="M607.5,-1116C607.5,-1116 541.5,-1116 541.5,-1116 535.5,-1116 529.5,-1110 529.5,-1104 529.5,-1104 529.5,-1092 529.5,-1092 529.5,-1086 535.5,-1080 541.5,-1080 541.5,-1080 607.5,-1080 607.5,-1080 613.5,-1080 619.5,-1086 619.5,-1092 619.5,-1092 619.5,-1104 619.5,-1104 619.5,-1110 613.5,-1116 607.5,-1116"/>
<text text-anchor="middle" x="574.5" y="-1094.3" font-family="Helvetica,sans-Serif" font-size="14.00">dev (soy yo)</text>
</g>
<!-- gateway -->
<g id="node3" class="node"><title>gateway</title>
<path fill="lightgrey" stroke="white" d="M596,-1044C596,-1044 553,-1044 553,-1044 547,-1044 541,-1038 541,-1032 541,-1032 541,-1020 541,-1020 541,-1014 547,-1008 553,-1008 553,-1008 596,-1008 596,-1008 602,-1008 608,-1014 608,-1020 608,-1020 608,-1032 608,-1032 608,-1038 602,-1044 596,-1044"/>
<text text-anchor="middle" x="574.5" y="-1022.3" font-family="Helvetica,sans-Serif" font-size="14.00">gateway</text>
</g>
<!-- soy_yo&#45;&#45;gateway -->
<g id="edge1" class="edge"><title>soy_yo&#45;&#45;gateway</title>
<path fill="none" stroke="black" d="M574.5,-1079.7C574.5,-1068.85 574.5,-1054.92 574.5,-1044.1"/>
</g>
<!-- google.co.uk -->
<g id="node2" class="node"><title>google.co.uk</title>
<path fill="green" stroke="white" d="M380,-612C380,-612 311,-612 311,-612 305,-612 299,-606 299,-600 299,-600 299,-588 299,-588 299,-582 305,-576 311,-576 311,-576 380,-576 380,-576 386,-576 392,-582 392,-588 392,-588 392,-600 392,-600 392,-606 386,-612 380,-612"/>
<text text-anchor="middle" x="345.5" y="-590.3" font-family="Helvetica,sans-Serif" font-size="14.00" fill="white">google.co.uk</text>
</g>
<!-- gateway&#45;&#45;gateway -->
<g id="edge2" class="edge"><title>gateway&#45;&#45;gateway</title>
<path fill="none" stroke="black" d="M608.181,-1039.47C618.202,-1039.07 626,-1034.58 626,-1026 626,-1017.42 618.202,-1012.93 608.181,-1012.53"/>
</g>
<!-- 10.248.28.145 -->
<g id="node4" class="node"><title>10.248.28.145</title>
<path fill="lightgrey" stroke="white" d="M554,-972C554,-972 475,-972 475,-972 469,-972 463,-966 463,-960 463,-960 463,-948 463,-948 463,-942 469,-936 475,-936 475,-936 554,-936 554,-936 560,-936 566,-942 566,-948 566,-948 566,-960 566,-960 566,-966 560,-972 554,-972"/>
<text text-anchor="middle" x="514.5" y="-950.3" font-family="Helvetica,sans-Serif" font-size="14.00">10.248.28.145</text>
</g>
<!-- gateway&#45;&#45;10.248.28.145 -->
<g id="edge3" class="edge"><title>gateway&#45;&#45;10.248.28.145</title>
<path fill="none" stroke="black" d="M559.669,-1007.7C550.368,-996.846 538.429,-982.917 529.161,-972.104"/>
</g>
<!-- 10.248.28.153 -->
<g id="node10" class="node"><title>10.248.28.153</title>
<path fill="lightgrey" stroke="white" d="M675,-972C675,-972 596,-972 596,-972 590,-972 584,-966 584,-960 584,-960 584,-948 584,-948 584,-942 590,-936 596,-936 596,-936 675,-936 675,-936 681,-936 687,-942 687,-948 687,-948 687,-960 687,-960 687,-966 681,-972 675,-972"/>
<text text-anchor="middle" x="635.5" y="-950.3" font-family="Helvetica,sans-Serif" font-size="14.00">10.248.28.153</text>
</g>
<!-- gateway&#45;&#45;10.248.28.153 -->
<g id="edge9" class="edge"><title>gateway&#45;&#45;10.248.28.153</title>
<path fill="none" stroke="black" d="M589.579,-1007.7C599.034,-996.846 611.173,-982.917 620.595,-972.104"/>
</g>
<!-- 10.247.84.6 -->
<g id="node5" class="node"><title>10.247.84.6</title>
<path fill="lightgrey" stroke="white" d="M606.5,-900C606.5,-900 542.5,-900 542.5,-900 536.5,-900 530.5,-894 530.5,-888 530.5,-888 530.5,-876 530.5,-876 530.5,-870 536.5,-864 542.5,-864 542.5,-864 606.5,-864 606.5,-864 612.5,-864 618.5,-870 618.5,-876 618.5,-876 618.5,-888 618.5,-888 618.5,-894 612.5,-900 606.5,-900"/>
<text text-anchor="middle" x="574.5" y="-878.3" font-family="Helvetica,sans-Serif" font-size="14.00">10.247.84.6</text>
</g>
<!-- 10.248.28.145&#45;&#45;10.247.84.6 -->
<g id="edge4" class="edge"><title>10.248.28.145&#45;&#45;10.247.84.6</title>
<path fill="none" stroke="black" d="M529.331,-935.697C538.632,-924.846 550.571,-910.917 559.839,-900.104"/>
</g>
<!-- 10.247.84.9 -->
<g id="node6" class="node"><title>10.247.84.9</title>
<path fill="lightgrey" stroke="white" d="M606.5,-828C606.5,-828 542.5,-828 542.5,-828 536.5,-828 530.5,-822 530.5,-816 530.5,-816 530.5,-804 530.5,-804 530.5,-798 536.5,-792 542.5,-792 542.5,-792 606.5,-792 606.5,-792 612.5,-792 618.5,-798 618.5,-804 618.5,-804 618.5,-816 618.5,-816 618.5,-822 612.5,-828 606.5,-828"/>
<text text-anchor="middle" x="574.5" y="-806.3" font-family="Helvetica,sans-Serif" font-size="14.00">10.247.84.9</text>
</g>
<!-- 10.247.84.6&#45;&#45;10.247.84.9 -->
<g id="edge5" class="edge"><title>10.247.84.6&#45;&#45;10.247.84.9</title>
<path fill="none" stroke="black" d="M574.5,-863.697C574.5,-852.846 574.5,-838.917 574.5,-828.104"/>
</g>
<!-- 87.237.20.224 -->
<g id="node7" class="node"><title>87.237.20.224</title>
<path fill="lightgrey" stroke="white" d="M614,-756C614,-756 535,-756 535,-756 529,-756 523,-750 523,-744 523,-744 523,-732 523,-732 523,-726 529,-720 535,-720 535,-720 614,-720 614,-720 620,-720 626,-726 626,-732 626,-732 626,-744 626,-744 626,-750 620,-756 614,-756"/>
<text text-anchor="middle" x="574.5" y="-734.3" font-family="Helvetica,sans-Serif" font-size="14.00">87.237.20.224</text>
</g>
<!-- 10.247.84.9&#45;&#45;87.237.20.224 -->
<g id="edge6" class="edge"><title>10.247.84.9&#45;&#45;87.237.20.224</title>
<path fill="none" stroke="black" d="M574.5,-791.697C574.5,-780.846 574.5,-766.917 574.5,-756.104"/>
</g>
<!-- 87.237.20.73 -->
<g id="node8" class="node"><title>87.237.20.73</title>
<path fill="lightgrey" stroke="white" d="M610,-684C610,-684 539,-684 539,-684 533,-684 527,-678 527,-672 527,-672 527,-660 527,-660 527,-654 533,-648 539,-648 539,-648 610,-648 610,-648 616,-648 622,-654 622,-660 622,-660 622,-672 622,-672 622,-678 616,-684 610,-684"/>
<text text-anchor="middle" x="574.5" y="-662.3" font-family="Helvetica,sans-Serif" font-size="14.00">87.237.20.73</text>
</g>
<!-- 87.237.20.224&#45;&#45;87.237.20.73 -->
<g id="edge7" class="edge"><title>87.237.20.224&#45;&#45;87.237.20.73</title>
<path fill="none" stroke="black" d="M574.5,-719.697C574.5,-708.846 574.5,-694.917 574.5,-684.104"/>
</g>
<!-- 87.237.20.73&#45;&#45;google.co.uk -->
<g id="edge8" class="edge"><title>87.237.20.73&#45;&#45;google.co.uk</title>
<path fill="none" stroke="black" d="M526.849,-650.543C491.872,-639.918 443.218,-625.108 400.5,-612 397.729,-611.15 394.88,-610.274 392.007,-609.389"/>
</g>
<!-- 87.237.20.73&#45;&#45;87.237.20.73 -->
<g id="edge29" class="edge"><title>87.237.20.73&#45;&#45;87.237.20.73</title>
<path fill="none" stroke="black" d="M622.19,-679.101C632.513,-677.82 640,-673.453 640,-666 640,-658.547 632.513,-654.18 622.19,-652.899"/>
</g>
<!-- youtube.com -->
<g id="node9" class="node"><title>youtube.com</title>
<path fill="green" stroke="white" d="M493,-612C493,-612 422,-612 422,-612 416,-612 410,-606 410,-600 410,-600 410,-588 410,-588 410,-582 416,-576 422,-576 422,-576 493,-576 493,-576 499,-576 505,-582 505,-588 505,-588 505,-600 505,-600 505,-606 499,-612 493,-612"/>
<text text-anchor="middle" x="457.5" y="-590.3" font-family="Helvetica,sans-Serif" font-size="14.00" fill="white">youtube.com</text>
</g>
<!-- 87.237.20.73&#45;&#45;youtube.com -->
<g id="edge11" class="edge"><title>87.237.20.73&#45;&#45;youtube.com</title>
<path fill="none" stroke="black" d="M545.879,-647.876C527.748,-637.029 504.383,-623.05 486.231,-612.19"/>
</g>
<!-- 80.150.169.13 -->
<g id="node12" class="node"><title>80.150.169.13</title>
<path fill="lightgrey" stroke="white" d="M614,-612C614,-612 535,-612 535,-612 529,-612 523,-606 523,-600 523,-600 523,-588 523,-588 523,-582 529,-576 535,-576 535,-576 614,-576 614,-576 620,-576 626,-582 626,-588 626,-588 626,-600 626,-600 626,-606 620,-612 614,-612"/>
<text text-anchor="middle" x="574.5" y="-590.3" font-family="Helvetica,sans-Serif" font-size="14.00">80.150.169.13</text>
</g>
<!-- 87.237.20.73&#45;&#45;80.150.169.13 -->
<g id="edge12" class="edge"><title>87.237.20.73&#45;&#45;80.150.169.13</title>
<path fill="none" stroke="black" d="M574.5,-647.697C574.5,-636.846 574.5,-622.917 574.5,-612.104"/>
</g>
<!-- 87.237.20.33 -->
<g id="node24" class="node"><title>87.237.20.33</title>
<path fill="lightgrey" stroke="white" d="M727,-612C727,-612 656,-612 656,-612 650,-612 644,-606 644,-600 644,-600 644,-588 644,-588 644,-582 650,-576 656,-576 656,-576 727,-576 727,-576 733,-576 739,-582 739,-588 739,-588 739,-600 739,-600 739,-606 733,-612 727,-612"/>
<text text-anchor="middle" x="691.5" y="-590.3" font-family="Helvetica,sans-Serif" font-size="14.00">87.237.20.33</text>
</g>
<!-- 87.237.20.73&#45;&#45;87.237.20.33 -->
<g id="edge24" class="edge"><title>87.237.20.73&#45;&#45;87.237.20.33</title>
<path fill="none" stroke="black" d="M603.121,-647.876C621.252,-637.029 644.617,-623.05 662.769,-612.19"/>
</g>
<!-- bbr01.lon01.networklayer.com -->
<g id="node32" class="node"><title>bbr01.lon01.networklayer.com</title>
<path fill="lightgrey" stroke="white" d="M954.5,-612C954.5,-612 780.5,-612 780.5,-612 774.5,-612 768.5,-606 768.5,-600 768.5,-600 768.5,-588 768.5,-588 768.5,-582 774.5,-576 780.5,-576 780.5,-576 954.5,-576 954.5,-576 960.5,-576 966.5,-582 966.5,-588 966.5,-588 966.5,-600 966.5,-600 966.5,-606 960.5,-612 954.5,-612"/>
<text text-anchor="middle" x="867.5" y="-590.3" font-family="Helvetica,sans-Serif" font-size="14.00">bbr01.lon01.networklayer.com</text>
</g>
<!-- 87.237.20.73&#45;&#45;bbr01.lon01.networklayer.com -->
<g id="edge33" class="edge"><title>87.237.20.73&#45;&#45;bbr01.lon01.networklayer.com</title>
<path fill="none" stroke="black" d="M622.228,-653.597C669.416,-642.324 742.195,-624.936 796.232,-612.026"/>
</g>
<!-- 10.248.28.153&#45;&#45;10.247.84.6 -->
<g id="edge10" class="edge"><title>10.248.28.153&#45;&#45;10.247.84.6</title>
<path fill="none" stroke="black" d="M620.421,-935.697C610.966,-924.846 598.827,-910.917 589.405,-900.104"/>
</g>
<!-- deanturpin.github.io -->
<g id="node11" class="node"><title>deanturpin.github.io</title>
<path fill="green" stroke="white" d="M172,-324C172,-324 61,-324 61,-324 55,-324 49,-318 49,-312 49,-312 49,-300 49,-300 49,-294 55,-288 61,-288 61,-288 172,-288 172,-288 178,-288 184,-294 184,-300 184,-300 184,-312 184,-312 184,-318 178,-324 172,-324"/>
<text text-anchor="middle" x="116.5" y="-302.3" font-family="Helvetica,sans-Serif" font-size="14.00" fill="white">deanturpin.github.io</text>
</g>
<!-- 80.150.170.106 -->
<g id="node13" class="node"><title>80.150.170.106</title>
<path fill="lightgrey" stroke="white" d="M407.5,-540C407.5,-540 321.5,-540 321.5,-540 315.5,-540 309.5,-534 309.5,-528 309.5,-528 309.5,-516 309.5,-516 309.5,-510 315.5,-504 321.5,-504 321.5,-504 407.5,-504 407.5,-504 413.5,-504 419.5,-510 419.5,-516 419.5,-516 419.5,-528 419.5,-528 419.5,-534 413.5,-540 407.5,-540"/>
<text text-anchor="middle" x="364.5" y="-518.3" font-family="Helvetica,sans-Serif" font-size="14.00">80.150.170.106</text>
</g>
<!-- 80.150.169.13&#45;&#45;80.150.170.106 -->
<g id="edge13" class="edge"><title>80.150.169.13&#45;&#45;80.150.170.106</title>
<path fill="none" stroke="black" d="M523.397,-575.966C490.738,-565.079 448.536,-551.012 415.832,-540.111"/>
</g>
<!-- ae&#45;25.r00.londen10.uk.bb.gin.ntt.net -->
<g id="node14" class="node"><title>ae&#45;25.r00.londen10.uk.bb.gin.ntt.net</title>
<path fill="lightgrey" stroke="white" d="M221,-468C221,-468 12,-468 12,-468 6,-468 1.42109e-14,-462 1.42109e-14,-456 1.42109e-14,-456 1.42109e-14,-444 1.42109e-14,-444 1.42109e-14,-438 6,-432 12,-432 12,-432 221,-432 221,-432 227,-432 233,-438 233,-444 233,-444 233,-456 233,-456 233,-462 227,-468 221,-468"/>
<text text-anchor="middle" x="116.5" y="-446.3" font-family="Helvetica,sans-Serif" font-size="14.00">ae&#45;25.r00.londen10.uk.bb.gin.ntt.net</text>
</g>
<!-- 80.150.170.106&#45;&#45;ae&#45;25.r00.londen10.uk.bb.gin.ntt.net -->
<g id="edge14" class="edge"><title>80.150.170.106&#45;&#45;ae&#45;25.r00.londen10.uk.bb.gin.ntt.net</title>
<path fill="none" stroke="black" d="M309.461,-505.465C270.218,-494.388 217.464,-479.498 177.034,-468.086"/>
</g>
<!-- ae&#45;3.r24.londen12.uk.bb.gin.ntt.net -->
<g id="node17" class="node"><title>ae&#45;3.r24.londen12.uk.bb.gin.ntt.net</title>
<path fill="lightgrey" stroke="white" d="M465.5,-468C465.5,-468 263.5,-468 263.5,-468 257.5,-468 251.5,-462 251.5,-456 251.5,-456 251.5,-444 251.5,-444 251.5,-438 257.5,-432 263.5,-432 263.5,-432 465.5,-432 465.5,-432 471.5,-432 477.5,-438 477.5,-444 477.5,-444 477.5,-456 477.5,-456 477.5,-462 471.5,-468 465.5,-468"/>
<text text-anchor="middle" x="364.5" y="-446.3" font-family="Helvetica,sans-Serif" font-size="14.00">ae&#45;3.r24.londen12.uk.bb.gin.ntt.net</text>
</g>
<!-- 80.150.170.106&#45;&#45;ae&#45;3.r24.londen12.uk.bb.gin.ntt.net -->
<g id="edge17" class="edge"><title>80.150.170.106&#45;&#45;ae&#45;3.r24.londen12.uk.bb.gin.ntt.net</title>
<path fill="none" stroke="black" d="M364.5,-503.697C364.5,-492.846 364.5,-478.917 364.5,-468.104"/>
</g>
<!-- 151.101.17.147 -->
<g id="node15" class="node"><title>151.101.17.147</title>
<path fill="lightgrey" stroke="white" d="M159.5,-396C159.5,-396 73.5,-396 73.5,-396 67.5,-396 61.5,-390 61.5,-384 61.5,-384 61.5,-372 61.5,-372 61.5,-366 67.5,-360 73.5,-360 73.5,-360 159.5,-360 159.5,-360 165.5,-360 171.5,-366 171.5,-372 171.5,-372 171.5,-384 171.5,-384 171.5,-390 165.5,-396 159.5,-396"/>
<text text-anchor="middle" x="116.5" y="-374.3" font-family="Helvetica,sans-Serif" font-size="14.00">151.101.17.147</text>
</g>
<!-- ae&#45;25.r00.londen10.uk.bb.gin.ntt.net&#45;&#45;151.101.17.147 -->
<g id="edge15" class="edge"><title>ae&#45;25.r00.londen10.uk.bb.gin.ntt.net&#45;&#45;151.101.17.147</title>
<path fill="none" stroke="black" d="M116.5,-431.697C116.5,-420.846 116.5,-406.917 116.5,-396.104"/>
</g>
<!-- 151.101.17.147&#45;&#45;deanturpin.github.io -->
<g id="edge16" class="edge"><title>151.101.17.147&#45;&#45;deanturpin.github.io</title>
<path fill="none" stroke="black" d="M116.5,-359.697C116.5,-348.846 116.5,-334.917 116.5,-324.104"/>
</g>
<!-- github.com -->
<g id="node16" class="node"><title>github.com</title>
<path fill="green" stroke="white" d="M394,-36C394,-36 335,-36 335,-36 329,-36 323,-30 323,-24 323,-24 323,-12 323,-12 323,-6 329,-0 335,-0 335,-0 394,-0 394,-0 400,-0 406,-6 406,-12 406,-12 406,-24 406,-24 406,-30 400,-36 394,-36"/>
<text text-anchor="middle" x="364.5" y="-14.3" font-family="Helvetica,sans-Serif" font-size="14.00" fill="white">github.com</text>
</g>
<!-- ae&#45;5.r24.nycmny01.us.bb.gin.ntt.net -->
<g id="node18" class="node"><title>ae&#45;5.r24.nycmny01.us.bb.gin.ntt.net</title>
<path fill="lightgrey" stroke="white" d="M469,-396C469,-396 260,-396 260,-396 254,-396 248,-390 248,-384 248,-384 248,-372 248,-372 248,-366 254,-360 260,-360 260,-360 469,-360 469,-360 475,-360 481,-366 481,-372 481,-372 481,-384 481,-384 481,-390 475,-396 469,-396"/>
<text text-anchor="middle" x="364.5" y="-374.3" font-family="Helvetica,sans-Serif" font-size="14.00">ae&#45;5.r24.nycmny01.us.bb.gin.ntt.net</text>
</g>
<!-- ae&#45;3.r24.londen12.uk.bb.gin.ntt.net&#45;&#45;ae&#45;5.r24.nycmny01.us.bb.gin.ntt.net -->
<g id="edge18" class="edge"><title>ae&#45;3.r24.londen12.uk.bb.gin.ntt.net&#45;&#45;ae&#45;5.r24.nycmny01.us.bb.gin.ntt.net</title>
<path fill="none" stroke="black" d="M364.5,-431.697C364.5,-420.846 364.5,-406.917 364.5,-396.104"/>
</g>
<!-- ae&#45;1.r25.nycmny01.us.bb.gin.ntt.net -->
<g id="node19" class="node"><title>ae&#45;1.r25.nycmny01.us.bb.gin.ntt.net</title>
<path fill="lightgrey" stroke="white" d="M469,-324C469,-324 260,-324 260,-324 254,-324 248,-318 248,-312 248,-312 248,-300 248,-300 248,-294 254,-288 260,-288 260,-288 469,-288 469,-288 475,-288 481,-294 481,-300 481,-300 481,-312 481,-312 481,-318 475,-324 469,-324"/>
<text text-anchor="middle" x="364.5" y="-302.3" font-family="Helvetica,sans-Serif" font-size="14.00">ae&#45;1.r25.nycmny01.us.bb.gin.ntt.net</text>
</g>
<!-- ae&#45;5.r24.nycmny01.us.bb.gin.ntt.net&#45;&#45;ae&#45;1.r25.nycmny01.us.bb.gin.ntt.net -->
<g id="edge19" class="edge"><title>ae&#45;5.r24.nycmny01.us.bb.gin.ntt.net&#45;&#45;ae&#45;1.r25.nycmny01.us.bb.gin.ntt.net</title>
<path fill="none" stroke="black" d="M364.5,-359.697C364.5,-348.846 364.5,-334.917 364.5,-324.104"/>
</g>
<!-- ae&#45;9.r22.asbnva02.us.bb.gin.ntt.net -->
<g id="node20" class="node"><title>ae&#45;9.r22.asbnva02.us.bb.gin.ntt.net</title>
<path fill="lightgrey" stroke="white" d="M467,-252C467,-252 262,-252 262,-252 256,-252 250,-246 250,-240 250,-240 250,-228 250,-228 250,-222 256,-216 262,-216 262,-216 467,-216 467,-216 473,-216 479,-222 479,-228 479,-228 479,-240 479,-240 479,-246 473,-252 467,-252"/>
<text text-anchor="middle" x="364.5" y="-230.3" font-family="Helvetica,sans-Serif" font-size="14.00">ae&#45;9.r22.asbnva02.us.bb.gin.ntt.net</text>
</g>
<!-- ae&#45;1.r25.nycmny01.us.bb.gin.ntt.net&#45;&#45;ae&#45;9.r22.asbnva02.us.bb.gin.ntt.net -->
<g id="edge20" class="edge"><title>ae&#45;1.r25.nycmny01.us.bb.gin.ntt.net&#45;&#45;ae&#45;9.r22.asbnva02.us.bb.gin.ntt.net</title>
<path fill="none" stroke="black" d="M364.5,-287.697C364.5,-276.846 364.5,-262.917 364.5,-252.104"/>
</g>
<!-- ae&#45;1.r05.asbnva02.us.bb.gin.ntt.net -->
<g id="node21" class="node"><title>ae&#45;1.r05.asbnva02.us.bb.gin.ntt.net</title>
<path fill="lightgrey" stroke="white" d="M467,-180C467,-180 262,-180 262,-180 256,-180 250,-174 250,-168 250,-168 250,-156 250,-156 250,-150 256,-144 262,-144 262,-144 467,-144 467,-144 473,-144 479,-150 479,-156 479,-156 479,-168 479,-168 479,-174 473,-180 467,-180"/>
<text text-anchor="middle" x="364.5" y="-158.3" font-family="Helvetica,sans-Serif" font-size="14.00">ae&#45;1.r05.asbnva02.us.bb.gin.ntt.net</text>
</g>
<!-- ae&#45;9.r22.asbnva02.us.bb.gin.ntt.net&#45;&#45;ae&#45;1.r05.asbnva02.us.bb.gin.ntt.net -->
<g id="edge21" class="edge"><title>ae&#45;9.r22.asbnva02.us.bb.gin.ntt.net&#45;&#45;ae&#45;1.r05.asbnva02.us.bb.gin.ntt.net</title>
<path fill="none" stroke="black" d="M364.5,-215.697C364.5,-204.846 364.5,-190.917 364.5,-180.104"/>
</g>
<!-- ae&#45;0.a03.asbnva02.us.bb.gin.ntt.net -->
<g id="node22" class="node"><title>ae&#45;0.a03.asbnva02.us.bb.gin.ntt.net</title>
<path fill="lightgrey" stroke="white" d="M468.5,-108C468.5,-108 260.5,-108 260.5,-108 254.5,-108 248.5,-102 248.5,-96 248.5,-96 248.5,-84 248.5,-84 248.5,-78 254.5,-72 260.5,-72 260.5,-72 468.5,-72 468.5,-72 474.5,-72 480.5,-78 480.5,-84 480.5,-84 480.5,-96 480.5,-96 480.5,-102 474.5,-108 468.5,-108"/>
<text text-anchor="middle" x="364.5" y="-86.3" font-family="Helvetica,sans-Serif" font-size="14.00">ae&#45;0.a03.asbnva02.us.bb.gin.ntt.net</text>
</g>
<!-- ae&#45;1.r05.asbnva02.us.bb.gin.ntt.net&#45;&#45;ae&#45;0.a03.asbnva02.us.bb.gin.ntt.net -->
<g id="edge22" class="edge"><title>ae&#45;1.r05.asbnva02.us.bb.gin.ntt.net&#45;&#45;ae&#45;0.a03.asbnva02.us.bb.gin.ntt.net</title>
<path fill="none" stroke="black" d="M364.5,-143.697C364.5,-132.846 364.5,-118.917 364.5,-108.104"/>
</g>
<!-- ae&#45;0.a03.asbnva02.us.bb.gin.ntt.net&#45;&#45;github.com -->
<g id="edge23" class="edge"><title>ae&#45;0.a03.asbnva02.us.bb.gin.ntt.net&#45;&#45;github.com</title>
<path fill="none" stroke="black" d="M364.5,-71.6966C364.5,-60.8463 364.5,-46.9167 364.5,-36.1043"/>
</g>
<!-- thebunker.net -->
<g id="node23" class="node"><title>thebunker.net</title>
<path fill="green" stroke="white" d="M703,-324C703,-324 628,-324 628,-324 622,-324 616,-318 616,-312 616,-312 616,-300 616,-300 616,-294 622,-288 628,-288 628,-288 703,-288 703,-288 709,-288 715,-294 715,-300 715,-300 715,-312 715,-312 715,-318 709,-324 703,-324"/>
<text text-anchor="middle" x="665.5" y="-302.3" font-family="Helvetica,sans-Serif" font-size="14.00" fill="white">thebunker.net</text>
</g>
<!-- linx1.orbital.net -->
<g id="node25" class="node"><title>linx1.orbital.net</title>
<path fill="lightgrey" stroke="white" d="M733,-540C733,-540 650,-540 650,-540 644,-540 638,-534 638,-528 638,-528 638,-516 638,-516 638,-510 644,-504 650,-504 650,-504 733,-504 733,-504 739,-504 745,-510 745,-516 745,-516 745,-528 745,-528 745,-534 739,-540 733,-540"/>
<text text-anchor="middle" x="691.5" y="-518.3" font-family="Helvetica,sans-Serif" font-size="14.00">linx1.orbital.net</text>
</g>
<!-- 87.237.20.33&#45;&#45;linx1.orbital.net -->
<g id="edge25" class="edge"><title>87.237.20.33&#45;&#45;linx1.orbital.net</title>
<path fill="none" stroke="black" d="M691.5,-575.697C691.5,-564.846 691.5,-550.917 691.5,-540.104"/>
</g>
<!-- xe2&#45;2&#45;ve&#45;83.thn&#45;pe&#45;2.thn.thebunker.net.202.88.80.in&#45;addr.arpa -->
<g id="node26" class="node"><title>xe2&#45;2&#45;ve&#45;83.thn&#45;pe&#45;2.thn.thebunker.net.202.88.80.in&#45;addr.arpa</title>
<path fill="lightgrey" stroke="white" d="M875.5,-468C875.5,-468 507.5,-468 507.5,-468 501.5,-468 495.5,-462 495.5,-456 495.5,-456 495.5,-444 495.5,-444 495.5,-438 501.5,-432 507.5,-432 507.5,-432 875.5,-432 875.5,-432 881.5,-432 887.5,-438 887.5,-444 887.5,-444 887.5,-456 887.5,-456 887.5,-462 881.5,-468 875.5,-468"/>
<text text-anchor="middle" x="691.5" y="-446.3" font-family="Helvetica,sans-Serif" font-size="14.00">xe2&#45;2&#45;ve&#45;83.thn&#45;pe&#45;2.thn.thebunker.net.202.88.80.in&#45;addr.arpa</text>
</g>
<!-- linx1.orbital.net&#45;&#45;xe2&#45;2&#45;ve&#45;83.thn&#45;pe&#45;2.thn.thebunker.net.202.88.80.in&#45;addr.arpa -->
<g id="edge26" class="edge"><title>linx1.orbital.net&#45;&#45;xe2&#45;2&#45;ve&#45;83.thn&#45;pe&#45;2.thn.thebunker.net.202.88.80.in&#45;addr.arpa</title>
<path fill="none" stroke="black" d="M691.5,-503.697C691.5,-492.846 691.5,-478.917 691.5,-468.104"/>
</g>
<!-- ash&#45;gslb&#45;1&#45;gw.eth1&#45;36.ash&#45;pe&#45;2.thebunker.net -->
<g id="node27" class="node"><title>ash&#45;gslb&#45;1&#45;gw.eth1&#45;36.ash&#45;pe&#45;2.thebunker.net</title>
<path fill="lightgrey" stroke="white" d="M800.5,-396C800.5,-396 530.5,-396 530.5,-396 524.5,-396 518.5,-390 518.5,-384 518.5,-384 518.5,-372 518.5,-372 518.5,-366 524.5,-360 530.5,-360 530.5,-360 800.5,-360 800.5,-360 806.5,-360 812.5,-366 812.5,-372 812.5,-372 812.5,-384 812.5,-384 812.5,-390 806.5,-396 800.5,-396"/>
<text text-anchor="middle" x="665.5" y="-374.3" font-family="Helvetica,sans-Serif" font-size="14.00">ash&#45;gslb&#45;1&#45;gw.eth1&#45;36.ash&#45;pe&#45;2.thebunker.net</text>
</g>
<!-- xe2&#45;2&#45;ve&#45;83.thn&#45;pe&#45;2.thn.thebunker.net.202.88.80.in&#45;addr.arpa&#45;&#45;ash&#45;gslb&#45;1&#45;gw.eth1&#45;36.ash&#45;pe&#45;2.thebunker.net -->
<g id="edge27" class="edge"><title>xe2&#45;2&#45;ve&#45;83.thn&#45;pe&#45;2.thn.thebunker.net.202.88.80.in&#45;addr.arpa&#45;&#45;ash&#45;gslb&#45;1&#45;gw.eth1&#45;36.ash&#45;pe&#45;2.thebunker.net</title>
<path fill="none" stroke="black" d="M685.073,-431.697C681.043,-420.846 675.869,-406.917 671.853,-396.104"/>
</g>
<!-- 213.129.70.253 -->
<g id="node29" class="node"><title>213.129.70.253</title>
<path fill="lightgrey" stroke="white" d="M928.5,-396C928.5,-396 842.5,-396 842.5,-396 836.5,-396 830.5,-390 830.5,-384 830.5,-384 830.5,-372 830.5,-372 830.5,-366 836.5,-360 842.5,-360 842.5,-360 928.5,-360 928.5,-360 934.5,-360 940.5,-366 940.5,-372 940.5,-372 940.5,-384 940.5,-384 940.5,-390 934.5,-396 928.5,-396"/>
<text text-anchor="middle" x="885.5" y="-374.3" font-family="Helvetica,sans-Serif" font-size="14.00">213.129.70.253</text>
</g>
<!-- xe2&#45;2&#45;ve&#45;83.thn&#45;pe&#45;2.thn.thebunker.net.202.88.80.in&#45;addr.arpa&#45;&#45;213.129.70.253 -->
<g id="edge30" class="edge"><title>xe2&#45;2&#45;ve&#45;83.thn&#45;pe&#45;2.thn.thebunker.net.202.88.80.in&#45;addr.arpa&#45;&#45;213.129.70.253</title>
<path fill="none" stroke="black" d="M738.958,-431.876C769.133,-420.988 808.051,-406.945 838.196,-396.068"/>
</g>
<!-- ash&#45;gslb&#45;1&#45;gw.eth1&#45;36.ash&#45;pe&#45;2.thebunker.net&#45;&#45;thebunker.net -->
<g id="edge28" class="edge"><title>ash&#45;gslb&#45;1&#45;gw.eth1&#45;36.ash&#45;pe&#45;2.thebunker.net&#45;&#45;thebunker.net</title>
<path fill="none" stroke="black" d="M665.5,-359.697C665.5,-348.846 665.5,-334.917 665.5,-324.104"/>
</g>
<!-- infinityfoods.coop -->
<g id="node28" class="node"><title>infinityfoods.coop</title>
<path fill="green" stroke="white" d="M934,-252C934,-252 837,-252 837,-252 831,-252 825,-246 825,-240 825,-240 825,-228 825,-228 825,-222 831,-216 837,-216 837,-216 934,-216 934,-216 940,-216 946,-222 946,-228 946,-228 946,-240 946,-240 946,-246 940,-252 934,-252"/>
<text text-anchor="middle" x="885.5" y="-230.3" font-family="Helvetica,sans-Serif" font-size="14.00" fill="white">infinityfoods.coop</text>
</g>
<!-- 213.129.70.237 -->
<g id="node30" class="node"><title>213.129.70.237</title>
<path fill="lightgrey" stroke="white" d="M928.5,-324C928.5,-324 842.5,-324 842.5,-324 836.5,-324 830.5,-318 830.5,-312 830.5,-312 830.5,-300 830.5,-300 830.5,-294 836.5,-288 842.5,-288 842.5,-288 928.5,-288 928.5,-288 934.5,-288 940.5,-294 940.5,-300 940.5,-300 940.5,-312 940.5,-312 940.5,-318 934.5,-324 928.5,-324"/>
<text text-anchor="middle" x="885.5" y="-302.3" font-family="Helvetica,sans-Serif" font-size="14.00">213.129.70.237</text>
</g>
<!-- 213.129.70.253&#45;&#45;213.129.70.237 -->
<g id="edge31" class="edge"><title>213.129.70.253&#45;&#45;213.129.70.237</title>
<path fill="none" stroke="black" d="M885.5,-359.697C885.5,-348.846 885.5,-334.917 885.5,-324.104"/>
</g>
<!-- 213.129.70.237&#45;&#45;infinityfoods.coop -->
<g id="edge32" class="edge"><title>213.129.70.237&#45;&#45;infinityfoods.coop</title>
<path fill="none" stroke="black" d="M885.5,-287.697C885.5,-276.846 885.5,-262.917 885.5,-252.104"/>
</g>
<!-- kraydel.com -->
<g id="node31" class="node"><title>kraydel.com</title>
<path fill="green" stroke="white" d="M1055.5,-396C1055.5,-396 989.5,-396 989.5,-396 983.5,-396 977.5,-390 977.5,-384 977.5,-384 977.5,-372 977.5,-372 977.5,-366 983.5,-360 989.5,-360 989.5,-360 1055.5,-360 1055.5,-360 1061.5,-360 1067.5,-366 1067.5,-372 1067.5,-372 1067.5,-384 1067.5,-384 1067.5,-390 1061.5,-396 1055.5,-396"/>
<text text-anchor="middle" x="1022.5" y="-374.3" font-family="Helvetica,sans-Serif" font-size="14.00" fill="white">kraydel.com</text>
</g>
<!-- c1.13.2da9.ip4.static.sl&#45;reverse.com -->
<g id="node33" class="node"><title>c1.13.2da9.ip4.static.sl&#45;reverse.com</title>
<path fill="lightgrey" stroke="white" d="M1055,-540C1055,-540 846,-540 846,-540 840,-540 834,-534 834,-528 834,-528 834,-516 834,-516 834,-510 840,-504 846,-504 846,-504 1055,-504 1055,-504 1061,-504 1067,-510 1067,-516 1067,-516 1067,-528 1067,-528 1067,-534 1061,-540 1055,-540"/>
<text text-anchor="middle" x="950.5" y="-518.3" font-family="Helvetica,sans-Serif" font-size="14.00">c1.13.2da9.ip4.static.sl&#45;reverse.com</text>
</g>
<!-- bbr01.lon01.networklayer.com&#45;&#45;c1.13.2da9.ip4.static.sl&#45;reverse.com -->
<g id="edge34" class="edge"><title>bbr01.lon01.networklayer.com&#45;&#45;c1.13.2da9.ip4.static.sl&#45;reverse.com</title>
<path fill="none" stroke="black" d="M888.017,-575.697C900.882,-564.846 917.399,-550.917 930.219,-540.104"/>
</g>
<!-- 7b.76.32a9.ip4.static.sl&#45;reverse.com -->
<g id="node34" class="node"><title>7b.76.32a9.ip4.static.sl&#45;reverse.com</title>
<path fill="lightgrey" stroke="white" d="M1127.5,-468C1127.5,-468 917.5,-468 917.5,-468 911.5,-468 905.5,-462 905.5,-456 905.5,-456 905.5,-444 905.5,-444 905.5,-438 911.5,-432 917.5,-432 917.5,-432 1127.5,-432 1127.5,-432 1133.5,-432 1139.5,-438 1139.5,-444 1139.5,-444 1139.5,-456 1139.5,-456 1139.5,-462 1133.5,-468 1127.5,-468"/>
<text text-anchor="middle" x="1022.5" y="-446.3" font-family="Helvetica,sans-Serif" font-size="14.00">7b.76.32a9.ip4.static.sl&#45;reverse.com</text>
</g>
<!-- c1.13.2da9.ip4.static.sl&#45;reverse.com&#45;&#45;7b.76.32a9.ip4.static.sl&#45;reverse.com -->
<g id="edge35" class="edge"><title>c1.13.2da9.ip4.static.sl&#45;reverse.com&#45;&#45;7b.76.32a9.ip4.static.sl&#45;reverse.com</title>
<path fill="none" stroke="black" d="M968.298,-503.697C979.458,-492.846 993.786,-478.917 1004.91,-468.104"/>
</g>
<!-- 7b.76.32a9.ip4.static.sl&#45;reverse.com&#45;&#45;kraydel.com -->
<g id="edge36" class="edge"><title>7b.76.32a9.ip4.static.sl&#45;reverse.com&#45;&#45;kraydel.com</title>
<path fill="none" stroke="black" d="M1022.5,-431.697C1022.5,-420.846 1022.5,-406.917 1022.5,-396.104"/>
</g>
</g>
</svg>
