<?xml version="1.0" encoding="UTF-8" standalone="no"?>
<!DOCTYPE svg PUBLIC "-//W3C//DTD SVG 1.1//EN"
 "http://www.w3.org/Graphics/SVG/1.1/DTD/svg11.dtd">
<!-- Generated by graphviz version 2.38.0 (20140413.2041)
 -->
<!-- Title: %3 Pages: 1 -->
<svg width="230pt" height="1196pt"
 viewBox="0.00 0.00 229.99 1196.00" xmlns="http://www.w3.org/2000/svg" xmlns:xlink="http://www.w3.org/1999/xlink">
<g id="graph0" class="graph" transform="scale(1 1) rotate(0) translate(4 1192)">
<title>%3</title>
<polygon fill="white" stroke="none" points="-4,4 -4,-1192 225.991,-1192 225.991,4 -4,4"/>
<!-- soy&#45;yo -->
<g id="node1" class="node"><title>soy&#45;yo</title>
<ellipse fill="green" stroke="black" cx="111.645" cy="-1170" rx="34.394" ry="18"/>
<text text-anchor="middle" x="111.645" y="-1166.3" font-family="Times,serif" font-size="14.00" fill="white">soy&#45;yo</text>
</g>
<!-- 172.20.10.1 -->
<g id="node2" class="node"><title>172.20.10.1</title>
<polygon fill="lightgrey" stroke="black" points="152.645,-1116 70.6453,-1116 70.6453,-1080 152.645,-1080 152.645,-1116"/>
<text text-anchor="middle" x="111.645" y="-1094.3" font-family="Times,serif" font-size="14.00">172.20.10.1</text>
</g>
<!-- soy&#45;yo&#45;&#45;172.20.10.1 -->
<g id="edge1" class="edge"><title>soy&#45;yo&#45;&#45;172.20.10.1</title>
<path fill="none" stroke="black" d="M111.645,-1151.7C111.645,-1140.85 111.645,-1126.92 111.645,-1116.1"/>
</g>
<!-- 10.248.28.145 -->
<g id="node3" class="node"><title>10.248.28.145</title>
<polygon fill="lightgrey" stroke="black" points="103.145,-1044 8.14533,-1044 8.14533,-1008 103.145,-1008 103.145,-1044"/>
<text text-anchor="middle" x="55.6453" y="-1022.3" font-family="Times,serif" font-size="14.00">10.248.28.145</text>
</g>
<!-- 172.20.10.1&#45;&#45;10.248.28.145 -->
<g id="edge2" class="edge"><title>172.20.10.1&#45;&#45;10.248.28.145</title>
<path fill="none" stroke="black" d="M97.8026,-1079.7C89.1224,-1068.85 77.9787,-1054.92 69.3288,-1044.1"/>
</g>
<!-- 10.248.28.153 -->
<g id="node10" class="node"><title>10.248.28.153</title>
<polygon fill="lightgrey" stroke="black" points="216.145,-1044 121.145,-1044 121.145,-1008 216.145,-1008 216.145,-1044"/>
<text text-anchor="middle" x="168.645" y="-1022.3" font-family="Times,serif" font-size="14.00">10.248.28.153</text>
</g>
<!-- 172.20.10.1&#45;&#45;10.248.28.153 -->
<g id="edge9" class="edge"><title>172.20.10.1&#45;&#45;10.248.28.153</title>
<path fill="none" stroke="black" d="M125.735,-1079.7C134.57,-1068.85 145.913,-1054.92 154.718,-1044.1"/>
</g>
<!-- 10.247.84.6 -->
<g id="node4" class="node"><title>10.247.84.6</title>
<polygon fill="lightgrey" stroke="black" points="152.645,-972 70.6453,-972 70.6453,-936 152.645,-936 152.645,-972"/>
<text text-anchor="middle" x="111.645" y="-950.3" font-family="Times,serif" font-size="14.00">10.247.84.6</text>
</g>
<!-- 10.248.28.145&#45;&#45;10.247.84.6 -->
<g id="edge3" class="edge"><title>10.248.28.145&#45;&#45;10.247.84.6</title>
<path fill="none" stroke="black" d="M69.488,-1007.7C78.1683,-996.846 89.312,-982.917 97.9619,-972.104"/>
</g>
<!-- 10.247.84.9 -->
<g id="node5" class="node"><title>10.247.84.9</title>
<polygon fill="lightgrey" stroke="black" points="152.645,-900 70.6453,-900 70.6453,-864 152.645,-864 152.645,-900"/>
<text text-anchor="middle" x="111.645" y="-878.3" font-family="Times,serif" font-size="14.00">10.247.84.9</text>
</g>
<!-- 10.247.84.6&#45;&#45;10.247.84.9 -->
<g id="edge4" class="edge"><title>10.247.84.6&#45;&#45;10.247.84.9</title>
<path fill="none" stroke="black" d="M111.645,-935.697C111.645,-924.846 111.645,-910.917 111.645,-900.104"/>
</g>
<!-- 87.237.20.224 -->
<g id="node6" class="node"><title>87.237.20.224</title>
<polygon fill="lightgrey" stroke="black" points="159.145,-828 64.1453,-828 64.1453,-792 159.145,-792 159.145,-828"/>
<text text-anchor="middle" x="111.645" y="-806.3" font-family="Times,serif" font-size="14.00">87.237.20.224</text>
</g>
<!-- 10.247.84.9&#45;&#45;87.237.20.224 -->
<g id="edge5" class="edge"><title>10.247.84.9&#45;&#45;87.237.20.224</title>
<path fill="none" stroke="black" d="M111.645,-863.697C111.645,-852.846 111.645,-838.917 111.645,-828.104"/>
</g>
<!-- 87.237.20.73 -->
<g id="node7" class="node"><title>87.237.20.73</title>
<polygon fill="lightgrey" stroke="black" points="156.145,-756 67.1453,-756 67.1453,-720 156.145,-720 156.145,-756"/>
<text text-anchor="middle" x="111.645" y="-734.3" font-family="Times,serif" font-size="14.00">87.237.20.73</text>
</g>
<!-- 87.237.20.224&#45;&#45;87.237.20.73 -->
<g id="edge6" class="edge"><title>87.237.20.224&#45;&#45;87.237.20.73</title>
<path fill="none" stroke="black" d="M111.645,-791.697C111.645,-780.846 111.645,-766.917 111.645,-756.104"/>
</g>
<!-- 87.237.20.36 -->
<g id="node8" class="node"><title>87.237.20.36</title>
<polygon fill="lightgrey" stroke="black" points="156.145,-684 67.1453,-684 67.1453,-648 156.145,-648 156.145,-684"/>
<text text-anchor="middle" x="111.645" y="-662.3" font-family="Times,serif" font-size="14.00">87.237.20.36</text>
</g>
<!-- 87.237.20.73&#45;&#45;87.237.20.36 -->
<g id="edge7" class="edge"><title>87.237.20.73&#45;&#45;87.237.20.36</title>
<path fill="none" stroke="black" d="M111.645,-719.697C111.645,-708.846 111.645,-694.917 111.645,-684.104"/>
</g>
<!-- google.com -->
<g id="node9" class="node"><title>google.com</title>
<ellipse fill="orange" stroke="black" cx="52.6453" cy="-594" rx="52.7911" ry="18"/>
<text text-anchor="middle" x="52.6453" y="-590.3" font-family="Times,serif" font-size="14.00">google.com</text>
</g>
<!-- 87.237.20.36&#45;&#45;google.com -->
<g id="edge8" class="edge"><title>87.237.20.36&#45;&#45;google.com</title>
<path fill="none" stroke="black" d="M97.0611,-647.697C87.7793,-636.684 75.8241,-622.5 66.6556,-611.622"/>
</g>
<!-- 80.157.131.29 -->
<g id="node11" class="node"><title>80.157.131.29</title>
<polygon fill="lightgrey" stroke="black" points="218.145,-612 123.145,-612 123.145,-576 218.145,-576 218.145,-612"/>
<text text-anchor="middle" x="170.645" y="-590.3" font-family="Times,serif" font-size="14.00">80.157.131.29</text>
</g>
<!-- 87.237.20.36&#45;&#45;80.157.131.29 -->
<g id="edge11" class="edge"><title>87.237.20.36&#45;&#45;80.157.131.29</title>
<path fill="none" stroke="black" d="M126.23,-647.697C135.375,-636.846 147.116,-622.917 156.229,-612.104"/>
</g>
<!-- 10.248.28.153&#45;&#45;10.247.84.6 -->
<g id="edge10" class="edge"><title>10.248.28.153&#45;&#45;10.247.84.6</title>
<path fill="none" stroke="black" d="M154.555,-1007.7C145.72,-996.846 134.378,-982.917 125.573,-972.104"/>
</g>
<!-- 80.150.170.106 -->
<g id="node12" class="node"><title>80.150.170.106</title>
<polygon fill="lightgrey" stroke="black" points="221.645,-540 119.645,-540 119.645,-504 221.645,-504 221.645,-540"/>
<text text-anchor="middle" x="170.645" y="-518.3" font-family="Times,serif" font-size="14.00">80.150.170.106</text>
</g>
<!-- 80.157.131.29&#45;&#45;80.150.170.106 -->
<g id="edge12" class="edge"><title>80.157.131.29&#45;&#45;80.150.170.106</title>
<path fill="none" stroke="black" d="M170.645,-575.697C170.645,-564.846 170.645,-550.917 170.645,-540.104"/>
</g>
<!-- 129.250.4.23 -->
<g id="node13" class="node"><title>129.250.4.23</title>
<polygon fill="lightgrey" stroke="black" points="215.145,-468 126.145,-468 126.145,-432 215.145,-432 215.145,-468"/>
<text text-anchor="middle" x="170.645" y="-446.3" font-family="Times,serif" font-size="14.00">129.250.4.23</text>
</g>
<!-- 80.150.170.106&#45;&#45;129.250.4.23 -->
<g id="edge13" class="edge"><title>80.150.170.106&#45;&#45;129.250.4.23</title>
<path fill="none" stroke="black" d="M170.645,-503.697C170.645,-492.846 170.645,-478.917 170.645,-468.104"/>
</g>
<!-- 129.250.2.18 -->
<g id="node14" class="node"><title>129.250.2.18</title>
<polygon fill="lightgrey" stroke="black" points="215.145,-396 126.145,-396 126.145,-360 215.145,-360 215.145,-396"/>
<text text-anchor="middle" x="170.645" y="-374.3" font-family="Times,serif" font-size="14.00">129.250.2.18</text>
</g>
<!-- 129.250.4.23&#45;&#45;129.250.2.18 -->
<g id="edge14" class="edge"><title>129.250.4.23&#45;&#45;129.250.2.18</title>
<path fill="none" stroke="black" d="M170.645,-431.697C170.645,-420.846 170.645,-406.917 170.645,-396.104"/>
</g>
<!-- 129.250.3.207 -->
<g id="node15" class="node"><title>129.250.3.207</title>
<polygon fill="lightgrey" stroke="black" points="218.145,-324 123.145,-324 123.145,-288 218.145,-288 218.145,-324"/>
<text text-anchor="middle" x="170.645" y="-302.3" font-family="Times,serif" font-size="14.00">129.250.3.207</text>
</g>
<!-- 129.250.2.18&#45;&#45;129.250.3.207 -->
<g id="edge15" class="edge"><title>129.250.2.18&#45;&#45;129.250.3.207</title>
<path fill="none" stroke="black" d="M170.645,-359.697C170.645,-348.846 170.645,-334.917 170.645,-324.104"/>
</g>
<!-- 129.250.2.149 -->
<g id="node16" class="node"><title>129.250.2.149</title>
<polygon fill="lightgrey" stroke="black" points="218.145,-252 123.145,-252 123.145,-216 218.145,-216 218.145,-252"/>
<text text-anchor="middle" x="170.645" y="-230.3" font-family="Times,serif" font-size="14.00">129.250.2.149</text>
</g>
<!-- 129.250.3.207&#45;&#45;129.250.2.149 -->
<g id="edge16" class="edge"><title>129.250.3.207&#45;&#45;129.250.2.149</title>
<path fill="none" stroke="black" d="M170.645,-287.697C170.645,-276.846 170.645,-262.917 170.645,-252.104"/>
</g>
<!-- 129.250.2.121 -->
<g id="node17" class="node"><title>129.250.2.121</title>
<polygon fill="lightgrey" stroke="black" points="218.145,-180 123.145,-180 123.145,-144 218.145,-144 218.145,-180"/>
<text text-anchor="middle" x="170.645" y="-158.3" font-family="Times,serif" font-size="14.00">129.250.2.121</text>
</g>
<!-- 129.250.2.149&#45;&#45;129.250.2.121 -->
<g id="edge17" class="edge"><title>129.250.2.149&#45;&#45;129.250.2.121</title>
<path fill="none" stroke="black" d="M170.645,-215.697C170.645,-204.846 170.645,-190.917 170.645,-180.104"/>
</g>
<!-- 129.250.5.188 -->
<g id="node18" class="node"><title>129.250.5.188</title>
<polygon fill="lightgrey" stroke="black" points="218.145,-108 123.145,-108 123.145,-72 218.145,-72 218.145,-108"/>
<text text-anchor="middle" x="170.645" y="-86.3" font-family="Times,serif" font-size="14.00">129.250.5.188</text>
</g>
<!-- 129.250.2.121&#45;&#45;129.250.5.188 -->
<g id="edge18" class="edge"><title>129.250.2.121&#45;&#45;129.250.5.188</title>
<path fill="none" stroke="black" d="M170.645,-143.697C170.645,-132.846 170.645,-118.917 170.645,-108.104"/>
</g>
<!-- github.com -->
<g id="node19" class="node"><title>github.com</title>
<ellipse fill="orange" stroke="black" cx="170.645" cy="-18" rx="51.1914" ry="18"/>
<text text-anchor="middle" x="170.645" y="-14.3" font-family="Times,serif" font-size="14.00">github.com</text>
</g>
<!-- 129.250.5.188&#45;&#45;github.com -->
<g id="edge19" class="edge"><title>129.250.5.188&#45;&#45;github.com</title>
<path fill="none" stroke="black" d="M170.645,-71.6966C170.645,-60.8463 170.645,-46.9167 170.645,-36.1043"/>
</g>
</g>
</svg>
