<?xml version="1.0" encoding="UTF-8" standalone="no"?>
<!DOCTYPE svg PUBLIC "-//W3C//DTD SVG 1.1//EN"
 "http://www.w3.org/Graphics/SVG/1.1/DTD/svg11.dtd">
<!-- Generated by graphviz version 2.38.0 (20140413.2041)
 -->
<!-- Title: %3 Pages: 1 -->
<svg width="1106pt" height="1075pt"
 viewBox="0.00 0.00 1106.00 1075.00" xmlns="http://www.w3.org/2000/svg" xmlns:xlink="http://www.w3.org/1999/xlink">
<g id="graph0" class="graph" transform="scale(1 1) rotate(0) translate(4 1071)">
<title>%3</title>
<polygon fill="white" stroke="none" points="-4,4 -4,-1071 1102,-1071 1102,4 -4,4"/>
<text text-anchor="middle" x="154" y="-1051.8" font-family="Helvetica,sans-Serif" font-size="14.00">./hosts2dot.sh &#45; Thu 14 Dec 10:58:34 GMT 2017</text>
<!-- soy_yo -->
<g id="node1" class="node"><title>soy_yo</title>
<path fill="lightgrey" stroke="white" d="M664.5,-1044C664.5,-1044 603.5,-1044 603.5,-1044 597.5,-1044 591.5,-1038 591.5,-1032 591.5,-1032 591.5,-1020 591.5,-1020 591.5,-1014 597.5,-1008 603.5,-1008 603.5,-1008 664.5,-1008 664.5,-1008 670.5,-1008 676.5,-1014 676.5,-1020 676.5,-1020 676.5,-1032 676.5,-1032 676.5,-1038 670.5,-1044 664.5,-1044"/>
<text text-anchor="middle" x="634" y="-1022.3" font-family="Times,serif" font-size="14.00">dev (soy yo)</text>
</g>
<!-- gateway -->
<g id="node3" class="node"><title>gateway</title>
<path fill="lightgrey" stroke="white" d="M653,-972C653,-972 615,-972 615,-972 609,-972 603,-966 603,-960 603,-960 603,-948 603,-948 603,-942 609,-936 615,-936 615,-936 653,-936 653,-936 659,-936 665,-942 665,-948 665,-948 665,-960 665,-960 665,-966 659,-972 653,-972"/>
<text text-anchor="middle" x="634" y="-950.3" font-family="Times,serif" font-size="14.00">gateway</text>
</g>
<!-- soy_yo&#45;&#45;gateway -->
<g id="edge1" class="edge"><title>soy_yo&#45;&#45;gateway</title>
<path fill="none" stroke="black" d="M634,-1007.7C634,-996.846 634,-982.917 634,-972.104"/>
</g>
<!-- google.co.uk -->
<g id="node2" class="node"><title>google.co.uk</title>
<path fill="green" stroke="white" d="M344.5,-540C344.5,-540 281.5,-540 281.5,-540 275.5,-540 269.5,-534 269.5,-528 269.5,-528 269.5,-516 269.5,-516 269.5,-510 275.5,-504 281.5,-504 281.5,-504 344.5,-504 344.5,-504 350.5,-504 356.5,-510 356.5,-516 356.5,-516 356.5,-528 356.5,-528 356.5,-534 350.5,-540 344.5,-540"/>
<text text-anchor="middle" x="313" y="-518.3" font-family="Times,serif" font-size="14.00" fill="white">google.co.uk</text>
</g>
<!-- gateway&#45;&#45;gateway -->
<g id="edge2" class="edge"><title>gateway&#45;&#45;gateway</title>
<path fill="none" stroke="black" d="M665.102,-967.497C675.087,-967.358 683,-962.859 683,-954 683,-945.141 675.087,-940.642 665.102,-940.503"/>
</g>
<!-- 10.248.28.145 -->
<g id="node4" class="node"><title>10.248.28.145</title>
<path fill="lightgrey" stroke="white" d="M613.5,-900C613.5,-900 542.5,-900 542.5,-900 536.5,-900 530.5,-894 530.5,-888 530.5,-888 530.5,-876 530.5,-876 530.5,-870 536.5,-864 542.5,-864 542.5,-864 613.5,-864 613.5,-864 619.5,-864 625.5,-870 625.5,-876 625.5,-876 625.5,-888 625.5,-888 625.5,-894 619.5,-900 613.5,-900"/>
<text text-anchor="middle" x="578" y="-878.3" font-family="Times,serif" font-size="14.00">10.248.28.145</text>
</g>
<!-- gateway&#45;&#45;10.248.28.145 -->
<g id="edge3" class="edge"><title>gateway&#45;&#45;10.248.28.145</title>
<path fill="none" stroke="black" d="M620.157,-935.697C611.477,-924.846 600.333,-910.917 591.683,-900.104"/>
</g>
<!-- 10.248.28.153 -->
<g id="node10" class="node"><title>10.248.28.153</title>
<path fill="lightgrey" stroke="white" d="M726.5,-900C726.5,-900 655.5,-900 655.5,-900 649.5,-900 643.5,-894 643.5,-888 643.5,-888 643.5,-876 643.5,-876 643.5,-870 649.5,-864 655.5,-864 655.5,-864 726.5,-864 726.5,-864 732.5,-864 738.5,-870 738.5,-876 738.5,-876 738.5,-888 738.5,-888 738.5,-894 732.5,-900 726.5,-900"/>
<text text-anchor="middle" x="691" y="-878.3" font-family="Times,serif" font-size="14.00">10.248.28.153</text>
</g>
<!-- gateway&#45;&#45;10.248.28.153 -->
<g id="edge9" class="edge"><title>gateway&#45;&#45;10.248.28.153</title>
<path fill="none" stroke="black" d="M648.09,-935.697C656.925,-924.846 668.268,-910.917 677.072,-900.104"/>
</g>
<!-- 10.247.84.6 -->
<g id="node5" class="node"><title>10.247.84.6</title>
<path fill="lightgrey" stroke="white" d="M663,-828C663,-828 605,-828 605,-828 599,-828 593,-822 593,-816 593,-816 593,-804 593,-804 593,-798 599,-792 605,-792 605,-792 663,-792 663,-792 669,-792 675,-798 675,-804 675,-804 675,-816 675,-816 675,-822 669,-828 663,-828"/>
<text text-anchor="middle" x="634" y="-806.3" font-family="Times,serif" font-size="14.00">10.247.84.6</text>
</g>
<!-- 10.248.28.145&#45;&#45;10.247.84.6 -->
<g id="edge4" class="edge"><title>10.248.28.145&#45;&#45;10.247.84.6</title>
<path fill="none" stroke="black" d="M591.843,-863.697C600.523,-852.846 611.667,-838.917 620.317,-828.104"/>
</g>
<!-- 10.247.84.9 -->
<g id="node6" class="node"><title>10.247.84.9</title>
<path fill="lightgrey" stroke="white" d="M663,-756C663,-756 605,-756 605,-756 599,-756 593,-750 593,-744 593,-744 593,-732 593,-732 593,-726 599,-720 605,-720 605,-720 663,-720 663,-720 669,-720 675,-726 675,-732 675,-732 675,-744 675,-744 675,-750 669,-756 663,-756"/>
<text text-anchor="middle" x="634" y="-734.3" font-family="Times,serif" font-size="14.00">10.247.84.9</text>
</g>
<!-- 10.247.84.6&#45;&#45;10.247.84.9 -->
<g id="edge5" class="edge"><title>10.247.84.6&#45;&#45;10.247.84.9</title>
<path fill="none" stroke="black" d="M634,-791.697C634,-780.846 634,-766.917 634,-756.104"/>
</g>
<!-- 87.237.20.224 -->
<g id="node7" class="node"><title>87.237.20.224</title>
<path fill="lightgrey" stroke="white" d="M669.5,-684C669.5,-684 598.5,-684 598.5,-684 592.5,-684 586.5,-678 586.5,-672 586.5,-672 586.5,-660 586.5,-660 586.5,-654 592.5,-648 598.5,-648 598.5,-648 669.5,-648 669.5,-648 675.5,-648 681.5,-654 681.5,-660 681.5,-660 681.5,-672 681.5,-672 681.5,-678 675.5,-684 669.5,-684"/>
<text text-anchor="middle" x="634" y="-662.3" font-family="Times,serif" font-size="14.00">87.237.20.224</text>
</g>
<!-- 10.247.84.9&#45;&#45;87.237.20.224 -->
<g id="edge6" class="edge"><title>10.247.84.9&#45;&#45;87.237.20.224</title>
<path fill="none" stroke="black" d="M634,-719.697C634,-708.846 634,-694.917 634,-684.104"/>
</g>
<!-- 87.237.20.73 -->
<g id="node8" class="node"><title>87.237.20.73</title>
<path fill="lightgrey" stroke="white" d="M666.5,-612C666.5,-612 601.5,-612 601.5,-612 595.5,-612 589.5,-606 589.5,-600 589.5,-600 589.5,-588 589.5,-588 589.5,-582 595.5,-576 601.5,-576 601.5,-576 666.5,-576 666.5,-576 672.5,-576 678.5,-582 678.5,-588 678.5,-588 678.5,-600 678.5,-600 678.5,-606 672.5,-612 666.5,-612"/>
<text text-anchor="middle" x="634" y="-590.3" font-family="Times,serif" font-size="14.00">87.237.20.73</text>
</g>
<!-- 87.237.20.224&#45;&#45;87.237.20.73 -->
<g id="edge7" class="edge"><title>87.237.20.224&#45;&#45;87.237.20.73</title>
<path fill="none" stroke="black" d="M634,-647.697C634,-636.846 634,-622.917 634,-612.104"/>
</g>
<!-- 87.237.20.73&#45;&#45;google.co.uk -->
<g id="edge8" class="edge"><title>87.237.20.73&#45;&#45;google.co.uk</title>
<path fill="none" stroke="black" d="M589.07,-585.744C535.545,-576.725 443.607,-560.049 366,-540 362.913,-539.202 359.74,-538.328 356.557,-537.41"/>
</g>
<!-- youtube.com -->
<g id="node9" class="node"><title>youtube.com</title>
<path fill="green" stroke="white" d="M451,-540C451,-540 387,-540 387,-540 381,-540 375,-534 375,-528 375,-528 375,-516 375,-516 375,-510 381,-504 387,-504 387,-504 451,-504 451,-504 457,-504 463,-510 463,-516 463,-516 463,-528 463,-528 463,-534 457,-540 451,-540"/>
<text text-anchor="middle" x="419" y="-518.3" font-family="Times,serif" font-size="14.00" fill="white">youtube.com</text>
</g>
<!-- 87.237.20.73&#45;&#45;youtube.com -->
<g id="edge11" class="edge"><title>87.237.20.73&#45;&#45;youtube.com</title>
<path fill="none" stroke="black" d="M589.452,-578.496C552.43,-566.442 500.027,-549.381 463.123,-537.366"/>
</g>
<!-- 80.150.169.13 -->
<g id="node12" class="node"><title>80.150.169.13</title>
<path fill="lightgrey" stroke="white" d="M564.5,-540C564.5,-540 493.5,-540 493.5,-540 487.5,-540 481.5,-534 481.5,-528 481.5,-528 481.5,-516 481.5,-516 481.5,-510 487.5,-504 493.5,-504 493.5,-504 564.5,-504 564.5,-504 570.5,-504 576.5,-510 576.5,-516 576.5,-516 576.5,-528 576.5,-528 576.5,-534 570.5,-540 564.5,-540"/>
<text text-anchor="middle" x="529" y="-518.3" font-family="Times,serif" font-size="14.00">80.150.169.13</text>
</g>
<!-- 87.237.20.73&#45;&#45;80.150.169.13 -->
<g id="edge12" class="edge"><title>87.237.20.73&#45;&#45;80.150.169.13</title>
<path fill="none" stroke="black" d="M608.314,-575.876C592.043,-565.029 571.075,-551.05 554.785,-540.19"/>
</g>
<!-- github.com -->
<g id="node16" class="node"><title>github.com</title>
<path fill="green" stroke="white" d="M661.5,-540C661.5,-540 606.5,-540 606.5,-540 600.5,-540 594.5,-534 594.5,-528 594.5,-528 594.5,-516 594.5,-516 594.5,-510 600.5,-504 606.5,-504 606.5,-504 661.5,-504 661.5,-504 667.5,-504 673.5,-510 673.5,-516 673.5,-516 673.5,-528 673.5,-528 673.5,-534 667.5,-540 661.5,-540"/>
<text text-anchor="middle" x="634" y="-518.3" font-family="Times,serif" font-size="14.00" fill="white">github.com</text>
</g>
<!-- 87.237.20.73&#45;&#45;github.com -->
<g id="edge24" class="edge"><title>87.237.20.73&#45;&#45;github.com</title>
<path fill="none" stroke="black" d="M634,-575.697C634,-564.846 634,-550.917 634,-540.104"/>
</g>
<!-- 87.237.20.33 -->
<g id="node24" class="node"><title>87.237.20.33</title>
<path fill="lightgrey" stroke="white" d="M768.5,-540C768.5,-540 703.5,-540 703.5,-540 697.5,-540 691.5,-534 691.5,-528 691.5,-528 691.5,-516 691.5,-516 691.5,-510 697.5,-504 703.5,-504 703.5,-504 768.5,-504 768.5,-504 774.5,-504 780.5,-510 780.5,-516 780.5,-516 780.5,-528 780.5,-528 780.5,-534 774.5,-540 768.5,-540"/>
<text text-anchor="middle" x="736" y="-518.3" font-family="Times,serif" font-size="14.00">87.237.20.33</text>
</g>
<!-- 87.237.20.73&#45;&#45;87.237.20.33 -->
<g id="edge25" class="edge"><title>87.237.20.73&#45;&#45;87.237.20.33</title>
<path fill="none" stroke="black" d="M658.952,-575.876C674.758,-565.029 695.127,-551.05 710.952,-540.19"/>
</g>
<!-- bbr01.lon01.networklayer.com -->
<g id="node32" class="node"><title>bbr01.lon01.networklayer.com</title>
<path fill="lightgrey" stroke="white" d="M980.5,-540C980.5,-540 819.5,-540 819.5,-540 813.5,-540 807.5,-534 807.5,-528 807.5,-528 807.5,-516 807.5,-516 807.5,-510 813.5,-504 819.5,-504 819.5,-504 980.5,-504 980.5,-504 986.5,-504 992.5,-510 992.5,-516 992.5,-516 992.5,-528 992.5,-528 992.5,-534 986.5,-540 980.5,-540"/>
<text text-anchor="middle" x="900" y="-518.3" font-family="Times,serif" font-size="14.00">bbr01.lon01.networklayer.com</text>
</g>
<!-- 87.237.20.73&#45;&#45;bbr01.lon01.networklayer.com -->
<g id="edge33" class="edge"><title>87.237.20.73&#45;&#45;bbr01.lon01.networklayer.com</title>
<path fill="none" stroke="black" d="M678.522,-581.284C721.413,-569.997 786.77,-552.797 835.383,-540.004"/>
</g>
<!-- 10.248.28.153&#45;&#45;10.247.84.6 -->
<g id="edge10" class="edge"><title>10.248.28.153&#45;&#45;10.247.84.6</title>
<path fill="none" stroke="black" d="M676.91,-863.697C668.075,-852.846 656.732,-838.917 647.928,-828.104"/>
</g>
<!-- deanturpin.github.io -->
<g id="node11" class="node"><title>deanturpin.github.io</title>
<path fill="green" stroke="white" d="M159.5,-252C159.5,-252 56.5,-252 56.5,-252 50.5,-252 44.5,-246 44.5,-240 44.5,-240 44.5,-228 44.5,-228 44.5,-222 50.5,-216 56.5,-216 56.5,-216 159.5,-216 159.5,-216 165.5,-216 171.5,-222 171.5,-228 171.5,-228 171.5,-240 171.5,-240 171.5,-246 165.5,-252 159.5,-252"/>
<text text-anchor="middle" x="108" y="-230.3" font-family="Times,serif" font-size="14.00" fill="white">deanturpin.github.io</text>
</g>
<!-- 80.150.170.106 -->
<g id="node13" class="node"><title>80.150.170.106</title>
<path fill="lightgrey" stroke="white" d="M378,-468C378,-468 300,-468 300,-468 294,-468 288,-462 288,-456 288,-456 288,-444 288,-444 288,-438 294,-432 300,-432 300,-432 378,-432 378,-432 384,-432 390,-438 390,-444 390,-444 390,-456 390,-456 390,-462 384,-468 378,-468"/>
<text text-anchor="middle" x="339" y="-446.3" font-family="Times,serif" font-size="14.00">80.150.170.106</text>
</g>
<!-- 80.150.169.13&#45;&#45;80.150.170.106 -->
<g id="edge13" class="edge"><title>80.150.169.13&#45;&#45;80.150.170.106</title>
<path fill="none" stroke="black" d="M482.521,-503.876C452.968,-492.988 414.852,-478.945 385.328,-468.068"/>
</g>
<!-- ae&#45;25.r00.londen10.uk.bb.gin.ntt.net -->
<g id="node14" class="node"><title>ae&#45;25.r00.londen10.uk.bb.gin.ntt.net</title>
<path fill="lightgrey" stroke="white" d="M204,-396C204,-396 12,-396 12,-396 6,-396 0,-390 0,-384 0,-384 0,-372 0,-372 0,-366 6,-360 12,-360 12,-360 204,-360 204,-360 210,-360 216,-366 216,-372 216,-372 216,-384 216,-384 216,-390 210,-396 204,-396"/>
<text text-anchor="middle" x="108" y="-374.3" font-family="Times,serif" font-size="14.00">ae&#45;25.r00.londen10.uk.bb.gin.ntt.net</text>
</g>
<!-- 80.150.170.106&#45;&#45;ae&#45;25.r00.londen10.uk.bb.gin.ntt.net -->
<g id="edge14" class="edge"><title>80.150.170.106&#45;&#45;ae&#45;25.r00.londen10.uk.bb.gin.ntt.net</title>
<path fill="none" stroke="black" d="M287.734,-433.465C251.181,-422.388 202.043,-407.498 164.384,-396.086"/>
</g>
<!-- ae&#45;3.r24.londen12.uk.bb.gin.ntt.net -->
<g id="node17" class="node"><title>ae&#45;3.r24.londen12.uk.bb.gin.ntt.net</title>
<path fill="lightgrey" stroke="white" d="M431.5,-396C431.5,-396 246.5,-396 246.5,-396 240.5,-396 234.5,-390 234.5,-384 234.5,-384 234.5,-372 234.5,-372 234.5,-366 240.5,-360 246.5,-360 246.5,-360 431.5,-360 431.5,-360 437.5,-360 443.5,-366 443.5,-372 443.5,-372 443.5,-384 443.5,-384 443.5,-390 437.5,-396 431.5,-396"/>
<text text-anchor="middle" x="339" y="-374.3" font-family="Times,serif" font-size="14.00">ae&#45;3.r24.londen12.uk.bb.gin.ntt.net</text>
</g>
<!-- 80.150.170.106&#45;&#45;ae&#45;3.r24.londen12.uk.bb.gin.ntt.net -->
<g id="edge17" class="edge"><title>80.150.170.106&#45;&#45;ae&#45;3.r24.londen12.uk.bb.gin.ntt.net</title>
<path fill="none" stroke="black" d="M339,-431.697C339,-420.846 339,-406.917 339,-396.104"/>
</g>
<!-- 151.101.17.147 -->
<g id="node15" class="node"><title>151.101.17.147</title>
<path fill="lightgrey" stroke="white" d="M147,-324C147,-324 69,-324 69,-324 63,-324 57,-318 57,-312 57,-312 57,-300 57,-300 57,-294 63,-288 69,-288 69,-288 147,-288 147,-288 153,-288 159,-294 159,-300 159,-300 159,-312 159,-312 159,-318 153,-324 147,-324"/>
<text text-anchor="middle" x="108" y="-302.3" font-family="Times,serif" font-size="14.00">151.101.17.147</text>
</g>
<!-- ae&#45;25.r00.londen10.uk.bb.gin.ntt.net&#45;&#45;151.101.17.147 -->
<g id="edge15" class="edge"><title>ae&#45;25.r00.londen10.uk.bb.gin.ntt.net&#45;&#45;151.101.17.147</title>
<path fill="none" stroke="black" d="M108,-359.697C108,-348.846 108,-334.917 108,-324.104"/>
</g>
<!-- 151.101.17.147&#45;&#45;deanturpin.github.io -->
<g id="edge16" class="edge"><title>151.101.17.147&#45;&#45;deanturpin.github.io</title>
<path fill="none" stroke="black" d="M108,-287.697C108,-276.846 108,-262.917 108,-252.104"/>
</g>
<!-- ae&#45;5.r24.nycmny01.us.bb.gin.ntt.net -->
<g id="node18" class="node"><title>ae&#45;5.r24.nycmny01.us.bb.gin.ntt.net</title>
<path fill="lightgrey" stroke="white" d="M418.5,-324C418.5,-324 227.5,-324 227.5,-324 221.5,-324 215.5,-318 215.5,-312 215.5,-312 215.5,-300 215.5,-300 215.5,-294 221.5,-288 227.5,-288 227.5,-288 418.5,-288 418.5,-288 424.5,-288 430.5,-294 430.5,-300 430.5,-300 430.5,-312 430.5,-312 430.5,-318 424.5,-324 418.5,-324"/>
<text text-anchor="middle" x="323" y="-302.3" font-family="Times,serif" font-size="14.00">ae&#45;5.r24.nycmny01.us.bb.gin.ntt.net</text>
</g>
<!-- ae&#45;3.r24.londen12.uk.bb.gin.ntt.net&#45;&#45;ae&#45;5.r24.nycmny01.us.bb.gin.ntt.net -->
<g id="edge18" class="edge"><title>ae&#45;3.r24.londen12.uk.bb.gin.ntt.net&#45;&#45;ae&#45;5.r24.nycmny01.us.bb.gin.ntt.net</title>
<path fill="none" stroke="black" d="M335.045,-359.697C332.565,-348.846 329.381,-334.917 326.91,-324.104"/>
</g>
<!-- ae&#45;1.r25.nycmny01.us.bb.gin.ntt.net -->
<g id="node19" class="node"><title>ae&#45;1.r25.nycmny01.us.bb.gin.ntt.net</title>
<path fill="lightgrey" stroke="white" d="M462.5,-252C462.5,-252 271.5,-252 271.5,-252 265.5,-252 259.5,-246 259.5,-240 259.5,-240 259.5,-228 259.5,-228 259.5,-222 265.5,-216 271.5,-216 271.5,-216 462.5,-216 462.5,-216 468.5,-216 474.5,-222 474.5,-228 474.5,-228 474.5,-240 474.5,-240 474.5,-246 468.5,-252 462.5,-252"/>
<text text-anchor="middle" x="367" y="-230.3" font-family="Times,serif" font-size="14.00">ae&#45;1.r25.nycmny01.us.bb.gin.ntt.net</text>
</g>
<!-- ae&#45;5.r24.nycmny01.us.bb.gin.ntt.net&#45;&#45;ae&#45;1.r25.nycmny01.us.bb.gin.ntt.net -->
<g id="edge19" class="edge"><title>ae&#45;5.r24.nycmny01.us.bb.gin.ntt.net&#45;&#45;ae&#45;1.r25.nycmny01.us.bb.gin.ntt.net</title>
<path fill="none" stroke="black" d="M333.876,-287.697C340.697,-276.846 349.452,-262.917 356.249,-252.104"/>
</g>
<!-- ae&#45;9.r22.asbnva02.us.bb.gin.ntt.net -->
<g id="node20" class="node"><title>ae&#45;9.r22.asbnva02.us.bb.gin.ntt.net</title>
<path fill="lightgrey" stroke="white" d="M578.5,-180C578.5,-180 393.5,-180 393.5,-180 387.5,-180 381.5,-174 381.5,-168 381.5,-168 381.5,-156 381.5,-156 381.5,-150 387.5,-144 393.5,-144 393.5,-144 578.5,-144 578.5,-144 584.5,-144 590.5,-150 590.5,-156 590.5,-156 590.5,-168 590.5,-168 590.5,-174 584.5,-180 578.5,-180"/>
<text text-anchor="middle" x="486" y="-158.3" font-family="Times,serif" font-size="14.00">ae&#45;9.r22.asbnva02.us.bb.gin.ntt.net</text>
</g>
<!-- ae&#45;1.r25.nycmny01.us.bb.gin.ntt.net&#45;&#45;ae&#45;9.r22.asbnva02.us.bb.gin.ntt.net -->
<g id="edge20" class="edge"><title>ae&#45;1.r25.nycmny01.us.bb.gin.ntt.net&#45;&#45;ae&#45;9.r22.asbnva02.us.bb.gin.ntt.net</title>
<path fill="none" stroke="black" d="M396.111,-215.876C414.551,-205.029 438.315,-191.05 456.777,-180.19"/>
</g>
<!-- ae&#45;1.r05.asbnva02.us.bb.gin.ntt.net -->
<g id="node21" class="node"><title>ae&#45;1.r05.asbnva02.us.bb.gin.ntt.net</title>
<path fill="lightgrey" stroke="white" d="M818.5,-108C818.5,-108 633.5,-108 633.5,-108 627.5,-108 621.5,-102 621.5,-96 621.5,-96 621.5,-84 621.5,-84 621.5,-78 627.5,-72 633.5,-72 633.5,-72 818.5,-72 818.5,-72 824.5,-72 830.5,-78 830.5,-84 830.5,-84 830.5,-96 830.5,-96 830.5,-102 824.5,-108 818.5,-108"/>
<text text-anchor="middle" x="726" y="-86.3" font-family="Times,serif" font-size="14.00">ae&#45;1.r05.asbnva02.us.bb.gin.ntt.net</text>
</g>
<!-- ae&#45;9.r22.asbnva02.us.bb.gin.ntt.net&#45;&#45;ae&#45;1.r05.asbnva02.us.bb.gin.ntt.net -->
<g id="edge21" class="edge"><title>ae&#45;9.r22.asbnva02.us.bb.gin.ntt.net&#45;&#45;ae&#45;1.r05.asbnva02.us.bb.gin.ntt.net</title>
<path fill="none" stroke="black" d="M544.404,-143.966C581.728,-133.079 629.959,-119.012 667.334,-108.111"/>
</g>
<!-- ae&#45;0.a03.asbnva02.us.bb.gin.ntt.net -->
<g id="node22" class="node"><title>ae&#45;0.a03.asbnva02.us.bb.gin.ntt.net</title>
<path fill="lightgrey" stroke="white" d="M1005,-36C1005,-36 819,-36 819,-36 813,-36 807,-30 807,-24 807,-24 807,-12 807,-12 807,-6 813,-0 819,-0 819,-0 1005,-0 1005,-0 1011,-0 1017,-6 1017,-12 1017,-12 1017,-24 1017,-24 1017,-30 1011,-36 1005,-36"/>
<text text-anchor="middle" x="912" y="-14.3" font-family="Times,serif" font-size="14.00">ae&#45;0.a03.asbnva02.us.bb.gin.ntt.net</text>
</g>
<!-- ae&#45;1.r05.asbnva02.us.bb.gin.ntt.net&#45;&#45;ae&#45;0.a03.asbnva02.us.bb.gin.ntt.net -->
<g id="edge22" class="edge"><title>ae&#45;1.r05.asbnva02.us.bb.gin.ntt.net&#45;&#45;ae&#45;0.a03.asbnva02.us.bb.gin.ntt.net</title>
<path fill="none" stroke="black" d="M771.501,-71.8761C800.431,-60.9882 837.745,-46.9454 866.647,-36.0683"/>
</g>
<!-- ae&#45;0.a03.asbnva02.us.bb.gin.ntt.net&#45;&#45;87.237.20.73 -->
<g id="edge23" class="edge"><title>ae&#45;0.a03.asbnva02.us.bb.gin.ntt.net&#45;&#45;87.237.20.73</title>
<path fill="none" stroke="black" d="M969.578,-36.0351C1024.2,-56.1683 1098,-95.4898 1098,-161 1098,-451 1098,-451 1098,-451 1098,-509.508 1053.86,-514.925 1001,-540 944.653,-566.728 763.379,-583.357 678.552,-589.864"/>
</g>
<!-- thebunker.net -->
<g id="node23" class="node"><title>thebunker.net</title>
<path fill="green" stroke="white" d="M615.5,-252C615.5,-252 548.5,-252 548.5,-252 542.5,-252 536.5,-246 536.5,-240 536.5,-240 536.5,-228 536.5,-228 536.5,-222 542.5,-216 548.5,-216 548.5,-216 615.5,-216 615.5,-216 621.5,-216 627.5,-222 627.5,-228 627.5,-228 627.5,-240 627.5,-240 627.5,-246 621.5,-252 615.5,-252"/>
<text text-anchor="middle" x="582" y="-230.3" font-family="Times,serif" font-size="14.00" fill="white">thebunker.net</text>
</g>
<!-- linx1.orbital.net -->
<g id="node25" class="node"><title>linx1.orbital.net</title>
<path fill="lightgrey" stroke="white" d="M706,-468C706,-468 626,-468 626,-468 620,-468 614,-462 614,-456 614,-456 614,-444 614,-444 614,-438 620,-432 626,-432 626,-432 706,-432 706,-432 712,-432 718,-438 718,-444 718,-444 718,-456 718,-456 718,-462 712,-468 706,-468"/>
<text text-anchor="middle" x="666" y="-446.3" font-family="Times,serif" font-size="14.00">linx1.orbital.net</text>
</g>
<!-- 87.237.20.33&#45;&#45;linx1.orbital.net -->
<g id="edge26" class="edge"><title>87.237.20.33&#45;&#45;linx1.orbital.net</title>
<path fill="none" stroke="black" d="M718.697,-503.697C707.846,-492.846 693.917,-478.917 683.104,-468.104"/>
</g>
<!-- xe2&#45;2&#45;ve&#45;83.thn&#45;pe&#45;2.thn.thebunker.net.202.88.80.in&#45;addr.arpa -->
<g id="node26" class="node"><title>xe2&#45;2&#45;ve&#45;83.thn&#45;pe&#45;2.thn.thebunker.net.202.88.80.in&#45;addr.arpa</title>
<path fill="lightgrey" stroke="white" d="M824.5,-396C824.5,-396 489.5,-396 489.5,-396 483.5,-396 477.5,-390 477.5,-384 477.5,-384 477.5,-372 477.5,-372 477.5,-366 483.5,-360 489.5,-360 489.5,-360 824.5,-360 824.5,-360 830.5,-360 836.5,-366 836.5,-372 836.5,-372 836.5,-384 836.5,-384 836.5,-390 830.5,-396 824.5,-396"/>
<text text-anchor="middle" x="657" y="-374.3" font-family="Times,serif" font-size="14.00">xe2&#45;2&#45;ve&#45;83.thn&#45;pe&#45;2.thn.thebunker.net.202.88.80.in&#45;addr.arpa</text>
</g>
<!-- linx1.orbital.net&#45;&#45;xe2&#45;2&#45;ve&#45;83.thn&#45;pe&#45;2.thn.thebunker.net.202.88.80.in&#45;addr.arpa -->
<g id="edge27" class="edge"><title>linx1.orbital.net&#45;&#45;xe2&#45;2&#45;ve&#45;83.thn&#45;pe&#45;2.thn.thebunker.net.202.88.80.in&#45;addr.arpa</title>
<path fill="none" stroke="black" d="M663.775,-431.697C662.38,-420.846 660.589,-406.917 659.199,-396.104"/>
</g>
<!-- ash&#45;gslb&#45;1&#45;gw.eth1&#45;36.ash&#45;pe&#45;2.thebunker.net -->
<g id="node27" class="node"><title>ash&#45;gslb&#45;1&#45;gw.eth1&#45;36.ash&#45;pe&#45;2.thebunker.net</title>
<path fill="lightgrey" stroke="white" d="M703.5,-324C703.5,-324 460.5,-324 460.5,-324 454.5,-324 448.5,-318 448.5,-312 448.5,-312 448.5,-300 448.5,-300 448.5,-294 454.5,-288 460.5,-288 460.5,-288 703.5,-288 703.5,-288 709.5,-288 715.5,-294 715.5,-300 715.5,-300 715.5,-312 715.5,-312 715.5,-318 709.5,-324 703.5,-324"/>
<text text-anchor="middle" x="582" y="-302.3" font-family="Times,serif" font-size="14.00">ash&#45;gslb&#45;1&#45;gw.eth1&#45;36.ash&#45;pe&#45;2.thebunker.net</text>
</g>
<!-- xe2&#45;2&#45;ve&#45;83.thn&#45;pe&#45;2.thn.thebunker.net.202.88.80.in&#45;addr.arpa&#45;&#45;ash&#45;gslb&#45;1&#45;gw.eth1&#45;36.ash&#45;pe&#45;2.thebunker.net -->
<g id="edge28" class="edge"><title>xe2&#45;2&#45;ve&#45;83.thn&#45;pe&#45;2.thn.thebunker.net.202.88.80.in&#45;addr.arpa&#45;&#45;ash&#45;gslb&#45;1&#45;gw.eth1&#45;36.ash&#45;pe&#45;2.thebunker.net</title>
<path fill="none" stroke="black" d="M638.461,-359.697C626.835,-348.846 611.911,-334.917 600.326,-324.104"/>
</g>
<!-- 213.129.70.253 -->
<g id="node29" class="node"><title>213.129.70.253</title>
<path fill="lightgrey" stroke="white" d="M824,-324C824,-324 746,-324 746,-324 740,-324 734,-318 734,-312 734,-312 734,-300 734,-300 734,-294 740,-288 746,-288 746,-288 824,-288 824,-288 830,-288 836,-294 836,-300 836,-300 836,-312 836,-312 836,-318 830,-324 824,-324"/>
<text text-anchor="middle" x="785" y="-302.3" font-family="Times,serif" font-size="14.00">213.129.70.253</text>
</g>
<!-- xe2&#45;2&#45;ve&#45;83.thn&#45;pe&#45;2.thn.thebunker.net.202.88.80.in&#45;addr.arpa&#45;&#45;213.129.70.253 -->
<g id="edge30" class="edge"><title>xe2&#45;2&#45;ve&#45;83.thn&#45;pe&#45;2.thn.thebunker.net.202.88.80.in&#45;addr.arpa&#45;&#45;213.129.70.253</title>
<path fill="none" stroke="black" d="M688.312,-359.876C708.148,-349.029 733.709,-335.05 753.567,-324.19"/>
</g>
<!-- ash&#45;gslb&#45;1&#45;gw.eth1&#45;36.ash&#45;pe&#45;2.thebunker.net&#45;&#45;thebunker.net -->
<g id="edge29" class="edge"><title>ash&#45;gslb&#45;1&#45;gw.eth1&#45;36.ash&#45;pe&#45;2.thebunker.net&#45;&#45;thebunker.net</title>
<path fill="none" stroke="black" d="M582,-287.697C582,-276.846 582,-262.917 582,-252.104"/>
</g>
<!-- infinityfoods.coop -->
<g id="node28" class="node"><title>infinityfoods.coop</title>
<path fill="green" stroke="white" d="M831,-180C831,-180 739,-180 739,-180 733,-180 727,-174 727,-168 727,-168 727,-156 727,-156 727,-150 733,-144 739,-144 739,-144 831,-144 831,-144 837,-144 843,-150 843,-156 843,-156 843,-168 843,-168 843,-174 837,-180 831,-180"/>
<text text-anchor="middle" x="785" y="-158.3" font-family="Times,serif" font-size="14.00" fill="white">infinityfoods.coop</text>
</g>
<!-- 213.129.70.237 -->
<g id="node30" class="node"><title>213.129.70.237</title>
<path fill="lightgrey" stroke="white" d="M824,-252C824,-252 746,-252 746,-252 740,-252 734,-246 734,-240 734,-240 734,-228 734,-228 734,-222 740,-216 746,-216 746,-216 824,-216 824,-216 830,-216 836,-222 836,-228 836,-228 836,-240 836,-240 836,-246 830,-252 824,-252"/>
<text text-anchor="middle" x="785" y="-230.3" font-family="Times,serif" font-size="14.00">213.129.70.237</text>
</g>
<!-- 213.129.70.253&#45;&#45;213.129.70.237 -->
<g id="edge31" class="edge"><title>213.129.70.253&#45;&#45;213.129.70.237</title>
<path fill="none" stroke="black" d="M785,-287.697C785,-276.846 785,-262.917 785,-252.104"/>
</g>
<!-- 213.129.70.237&#45;&#45;infinityfoods.coop -->
<g id="edge32" class="edge"><title>213.129.70.237&#45;&#45;infinityfoods.coop</title>
<path fill="none" stroke="black" d="M785,-215.697C785,-204.846 785,-190.917 785,-180.104"/>
</g>
<!-- kraydel.com -->
<g id="node31" class="node"><title>kraydel.com</title>
<path fill="green" stroke="white" d="M992.5,-252C992.5,-252 931.5,-252 931.5,-252 925.5,-252 919.5,-246 919.5,-240 919.5,-240 919.5,-228 919.5,-228 919.5,-222 925.5,-216 931.5,-216 931.5,-216 992.5,-216 992.5,-216 998.5,-216 1004.5,-222 1004.5,-228 1004.5,-228 1004.5,-240 1004.5,-240 1004.5,-246 998.5,-252 992.5,-252"/>
<text text-anchor="middle" x="962" y="-230.3" font-family="Times,serif" font-size="14.00" fill="white">kraydel.com</text>
</g>
<!-- ae5.cbs01.tg01.lon01.networklayer.com -->
<g id="node33" class="node"><title>ae5.cbs01.tg01.lon01.networklayer.com</title>
<path fill="lightgrey" stroke="white" d="M1023,-468C1023,-468 811,-468 811,-468 805,-468 799,-462 799,-456 799,-456 799,-444 799,-444 799,-438 805,-432 811,-432 811,-432 1023,-432 1023,-432 1029,-432 1035,-438 1035,-444 1035,-444 1035,-456 1035,-456 1035,-462 1029,-468 1023,-468"/>
<text text-anchor="middle" x="917" y="-446.3" font-family="Times,serif" font-size="14.00">ae5.cbs01.tg01.lon01.networklayer.com</text>
</g>
<!-- bbr01.lon01.networklayer.com&#45;&#45;ae5.cbs01.tg01.lon01.networklayer.com -->
<g id="edge34" class="edge"><title>bbr01.lon01.networklayer.com&#45;&#45;ae5.cbs01.tg01.lon01.networklayer.com</title>
<path fill="none" stroke="black" d="M904.202,-503.697C906.837,-492.846 910.22,-478.917 912.846,-468.104"/>
</g>
<!-- c1.13.2da9.ip4.static.sl&#45;reverse.com -->
<g id="node34" class="node"><title>c1.13.2da9.ip4.static.sl&#45;reverse.com</title>
<path fill="lightgrey" stroke="white" d="M1057,-396C1057,-396 867,-396 867,-396 861,-396 855,-390 855,-384 855,-384 855,-372 855,-372 855,-366 861,-360 867,-360 867,-360 1057,-360 1057,-360 1063,-360 1069,-366 1069,-372 1069,-372 1069,-384 1069,-384 1069,-390 1063,-396 1057,-396"/>
<text text-anchor="middle" x="962" y="-374.3" font-family="Times,serif" font-size="14.00">c1.13.2da9.ip4.static.sl&#45;reverse.com</text>
</g>
<!-- ae5.cbs01.tg01.lon01.networklayer.com&#45;&#45;c1.13.2da9.ip4.static.sl&#45;reverse.com -->
<g id="edge35" class="edge"><title>ae5.cbs01.tg01.lon01.networklayer.com&#45;&#45;c1.13.2da9.ip4.static.sl&#45;reverse.com</title>
<path fill="none" stroke="black" d="M928.124,-431.697C935.099,-420.846 944.054,-406.917 951.004,-396.104"/>
</g>
<!-- 7b.76.32a9.ip4.static.sl&#45;reverse.com -->
<g id="node35" class="node"><title>7b.76.32a9.ip4.static.sl&#45;reverse.com</title>
<path fill="lightgrey" stroke="white" d="M1057.5,-324C1057.5,-324 866.5,-324 866.5,-324 860.5,-324 854.5,-318 854.5,-312 854.5,-312 854.5,-300 854.5,-300 854.5,-294 860.5,-288 866.5,-288 866.5,-288 1057.5,-288 1057.5,-288 1063.5,-288 1069.5,-294 1069.5,-300 1069.5,-300 1069.5,-312 1069.5,-312 1069.5,-318 1063.5,-324 1057.5,-324"/>
<text text-anchor="middle" x="962" y="-302.3" font-family="Times,serif" font-size="14.00">7b.76.32a9.ip4.static.sl&#45;reverse.com</text>
</g>
<!-- c1.13.2da9.ip4.static.sl&#45;reverse.com&#45;&#45;7b.76.32a9.ip4.static.sl&#45;reverse.com -->
<g id="edge36" class="edge"><title>c1.13.2da9.ip4.static.sl&#45;reverse.com&#45;&#45;7b.76.32a9.ip4.static.sl&#45;reverse.com</title>
<path fill="none" stroke="black" d="M962,-359.697C962,-348.846 962,-334.917 962,-324.104"/>
</g>
<!-- 7b.76.32a9.ip4.static.sl&#45;reverse.com&#45;&#45;kraydel.com -->
<g id="edge37" class="edge"><title>7b.76.32a9.ip4.static.sl&#45;reverse.com&#45;&#45;kraydel.com</title>
<path fill="none" stroke="black" d="M962,-287.697C962,-276.846 962,-262.917 962,-252.104"/>
</g>
</g>
</svg>
