<?xml version="1.0" encoding="UTF-8" standalone="no"?>
<!DOCTYPE svg PUBLIC "-//W3C//DTD SVG 1.1//EN"
 "http://www.w3.org/Graphics/SVG/1.1/DTD/svg11.dtd">
<!-- Generated by graphviz version 2.38.0 (20140413.2041)
 -->
<!-- Title: %3 Pages: 1 -->
<svg width="674pt" height="692pt"
 viewBox="0.00 0.00 674.39 692.00" xmlns="http://www.w3.org/2000/svg" xmlns:xlink="http://www.w3.org/1999/xlink">
<g id="graph0" class="graph" transform="scale(1 1) rotate(0) translate(4 688)">
<title>%3</title>
<polygon fill="white" stroke="none" points="-4,4 -4,-688 670.392,-688 670.392,4 -4,4"/>
<!-- soy yo -->
<g id="node1" class="node"><title>soy yo</title>
<ellipse fill="green" stroke="black" cx="360.645" cy="-666" rx="34.394" ry="18"/>
<text text-anchor="middle" x="360.645" y="-662.3" font-family="Times,serif" font-size="14.00" fill="white">soy yo</text>
</g>
<!-- 172.20.10.1 -->
<g id="node2" class="node"><title>172.20.10.1</title>
<polygon fill="lightgrey" stroke="black" points="401.645,-612 319.645,-612 319.645,-576 401.645,-576 401.645,-612"/>
<text text-anchor="middle" x="360.645" y="-590.3" font-family="Times,serif" font-size="14.00">172.20.10.1</text>
</g>
<!-- soy yo&#45;&#45;172.20.10.1 -->
<g id="edge1" class="edge"><title>soy yo&#45;&#45;172.20.10.1</title>
<path fill="none" stroke="black" d="M360.645,-647.697C360.645,-636.846 360.645,-622.917 360.645,-612.104"/>
</g>
<!-- 10.248.28.145 -->
<g id="node3" class="node"><title>10.248.28.145</title>
<polygon fill="lightgrey" stroke="black" points="352.145,-540 257.145,-540 257.145,-504 352.145,-504 352.145,-540"/>
<text text-anchor="middle" x="304.645" y="-518.3" font-family="Times,serif" font-size="14.00">10.248.28.145</text>
</g>
<!-- 172.20.10.1&#45;&#45;10.248.28.145 -->
<g id="edge2" class="edge"><title>172.20.10.1&#45;&#45;10.248.28.145</title>
<path fill="none" stroke="black" d="M346.803,-575.697C338.122,-564.846 326.979,-550.917 318.329,-540.104"/>
</g>
<!-- 10.248.28.153 -->
<g id="node11" class="node"><title>10.248.28.153</title>
<polygon fill="lightgrey" stroke="black" points="465.145,-540 370.145,-540 370.145,-504 465.145,-504 465.145,-540"/>
<text text-anchor="middle" x="417.645" y="-518.3" font-family="Times,serif" font-size="14.00">10.248.28.153</text>
</g>
<!-- 172.20.10.1&#45;&#45;10.248.28.153 -->
<g id="edge10" class="edge"><title>172.20.10.1&#45;&#45;10.248.28.153</title>
<path fill="none" stroke="black" d="M374.735,-575.697C383.57,-564.846 394.913,-550.917 403.718,-540.104"/>
</g>
<!-- 10.247.84.25 -->
<g id="node4" class="node"><title>10.247.84.25</title>
<polygon fill="lightgrey" stroke="black" points="350.145,-468 261.145,-468 261.145,-432 350.145,-432 350.145,-468"/>
<text text-anchor="middle" x="305.645" y="-446.3" font-family="Times,serif" font-size="14.00">10.247.84.25</text>
</g>
<!-- 10.248.28.145&#45;&#45;10.247.84.25 -->
<g id="edge3" class="edge"><title>10.248.28.145&#45;&#45;10.247.84.25</title>
<path fill="none" stroke="black" d="M304.893,-503.697C305.048,-492.846 305.247,-478.917 305.401,-468.104"/>
</g>
<!-- 10.247.84.6 -->
<g id="node5" class="node"><title>10.247.84.6</title>
<polygon fill="lightgrey" stroke="black" points="401.645,-396 319.645,-396 319.645,-360 401.645,-360 401.645,-396"/>
<text text-anchor="middle" x="360.645" y="-374.3" font-family="Times,serif" font-size="14.00">10.247.84.6</text>
</g>
<!-- 10.247.84.25&#45;&#45;10.247.84.6 -->
<g id="edge4" class="edge"><title>10.247.84.25&#45;&#45;10.247.84.6</title>
<path fill="none" stroke="black" d="M319.241,-431.697C327.766,-420.846 338.711,-406.917 347.206,-396.104"/>
</g>
<!-- 10.247.84.9 -->
<g id="node6" class="node"><title>10.247.84.9</title>
<polygon fill="lightgrey" stroke="black" points="401.645,-324 319.645,-324 319.645,-288 401.645,-288 401.645,-324"/>
<text text-anchor="middle" x="360.645" y="-302.3" font-family="Times,serif" font-size="14.00">10.247.84.9</text>
</g>
<!-- 10.247.84.6&#45;&#45;10.247.84.9 -->
<g id="edge5" class="edge"><title>10.247.84.6&#45;&#45;10.247.84.9</title>
<path fill="none" stroke="black" d="M360.645,-359.697C360.645,-348.846 360.645,-334.917 360.645,-324.104"/>
</g>
<!-- 10.247.84.18 -->
<g id="node7" class="node"><title>10.247.84.18</title>
<polygon fill="lightgrey" stroke="black" points="405.145,-252 316.145,-252 316.145,-216 405.145,-216 405.145,-252"/>
<text text-anchor="middle" x="360.645" y="-230.3" font-family="Times,serif" font-size="14.00">10.247.84.18</text>
</g>
<!-- 10.247.84.9&#45;&#45;10.247.84.18 -->
<g id="edge6" class="edge"><title>10.247.84.9&#45;&#45;10.247.84.18</title>
<path fill="none" stroke="black" d="M360.645,-287.697C360.645,-276.846 360.645,-262.917 360.645,-252.104"/>
</g>
<!-- 87.237.20.224 -->
<g id="node8" class="node"><title>87.237.20.224</title>
<polygon fill="lightgrey" stroke="black" points="408.145,-180 313.145,-180 313.145,-144 408.145,-144 408.145,-180"/>
<text text-anchor="middle" x="360.645" y="-158.3" font-family="Times,serif" font-size="14.00">87.237.20.224</text>
</g>
<!-- 10.247.84.18&#45;&#45;87.237.20.224 -->
<g id="edge7" class="edge"><title>10.247.84.18&#45;&#45;87.237.20.224</title>
<path fill="none" stroke="black" d="M360.645,-215.697C360.645,-204.846 360.645,-190.917 360.645,-180.104"/>
</g>
<!-- 87.237.20.73 -->
<g id="node9" class="node"><title>87.237.20.73</title>
<polygon fill="lightgrey" stroke="black" points="405.145,-108 316.145,-108 316.145,-72 405.145,-72 405.145,-108"/>
<text text-anchor="middle" x="360.645" y="-86.3" font-family="Times,serif" font-size="14.00">87.237.20.73</text>
</g>
<!-- 87.237.20.224&#45;&#45;87.237.20.73 -->
<g id="edge8" class="edge"><title>87.237.20.224&#45;&#45;87.237.20.73</title>
<path fill="none" stroke="black" d="M360.645,-143.697C360.645,-132.846 360.645,-118.917 360.645,-108.104"/>
</g>
<!-- google.com -->
<g id="node10" class="node"><title>google.com</title>
<ellipse fill="orange" stroke="black" cx="52.6453" cy="-18" rx="52.7911" ry="18"/>
<text text-anchor="middle" x="52.6453" y="-14.3" font-family="Times,serif" font-size="14.00" fill="white">google.com</text>
</g>
<!-- 87.237.20.73&#45;&#45;google.com -->
<g id="edge9" class="edge"><title>87.237.20.73&#45;&#45;google.com</title>
<path fill="none" stroke="black" d="M316.035,-80.1632C266.619,-70.1947 184.666,-53.1286 114.645,-36 107.273,-34.1966 99.4428,-32.1518 91.9181,-30.1211"/>
</g>
<!-- github.com -->
<g id="node13" class="node"><title>github.com</title>
<ellipse fill="orange" stroke="black" cx="174.645" cy="-18" rx="51.1914" ry="18"/>
<text text-anchor="middle" x="174.645" y="-14.3" font-family="Times,serif" font-size="14.00" fill="white">github.com</text>
</g>
<!-- 87.237.20.73&#45;&#45;github.com -->
<g id="edge13" class="edge"><title>87.237.20.73&#45;&#45;github.com</title>
<path fill="none" stroke="black" d="M316.094,-72.2333C282.992,-59.7756 238.529,-43.0421 208.352,-31.6853"/>
</g>
<!-- twitter.com -->
<g id="node14" class="node"><title>twitter.com</title>
<ellipse fill="orange" stroke="black" cx="295.645" cy="-18" rx="51.9908" ry="18"/>
<text text-anchor="middle" x="295.645" y="-14.3" font-family="Times,serif" font-size="14.00" fill="white">twitter.com</text>
</g>
<!-- 87.237.20.73&#45;&#45;twitter.com -->
<g id="edge14" class="edge"><title>87.237.20.73&#45;&#45;twitter.com</title>
<path fill="none" stroke="black" d="M344.578,-71.6966C334.352,-60.6843 321.181,-46.5002 311.08,-35.6223"/>
</g>
<!-- facebook.com -->
<g id="node15" class="node"><title>facebook.com</title>
<ellipse fill="orange" stroke="black" cx="426.645" cy="-18" rx="61.1893" ry="18"/>
<text text-anchor="middle" x="426.645" y="-14.3" font-family="Times,serif" font-size="14.00" fill="white">facebook.com</text>
</g>
<!-- 87.237.20.73&#45;&#45;facebook.com -->
<g id="edge15" class="edge"><title>87.237.20.73&#45;&#45;facebook.com</title>
<path fill="none" stroke="black" d="M376.96,-71.6966C387.343,-60.6843 400.717,-46.5002 410.973,-35.6223"/>
</g>
<!-- 4.4.4.4 -->
<g id="node16" class="node"><title>4.4.4.4</title>
<ellipse fill="orange" stroke="black" cx="541.645" cy="-18" rx="35.9954" ry="18"/>
<text text-anchor="middle" x="541.645" y="-14.3" font-family="Times,serif" font-size="14.00" fill="white">4.4.4.4</text>
</g>
<!-- 87.237.20.73&#45;&#45;4.4.4.4 -->
<g id="edge16" class="edge"><title>87.237.20.73&#45;&#45;4.4.4.4</title>
<path fill="none" stroke="black" d="M404.923,-71.8761C439.041,-58.6811 485.141,-40.8526 514.132,-29.6404"/>
</g>
<!-- 4.4.8.8 -->
<g id="node17" class="node"><title>4.4.8.8</title>
<ellipse fill="orange" stroke="black" cx="630.645" cy="-18" rx="35.9954" ry="18"/>
<text text-anchor="middle" x="630.645" y="-14.3" font-family="Times,serif" font-size="14.00" fill="white">4.4.8.8</text>
</g>
<!-- 87.237.20.73&#45;&#45;4.4.8.8 -->
<g id="edge17" class="edge"><title>87.237.20.73&#45;&#45;4.4.8.8</title>
<path fill="none" stroke="black" d="M405.302,-80.4304C451.245,-71.1719 524.65,-55.145 586.645,-36 592.279,-34.2602 598.224,-32.1544 603.86,-30.0259"/>
</g>
<!-- 10.247.84.27 -->
<g id="node12" class="node"><title>10.247.84.27</title>
<polygon fill="lightgrey" stroke="black" points="460.145,-468 371.145,-468 371.145,-432 460.145,-432 460.145,-468"/>
<text text-anchor="middle" x="415.645" y="-446.3" font-family="Times,serif" font-size="14.00">10.247.84.27</text>
</g>
<!-- 10.248.28.153&#45;&#45;10.247.84.27 -->
<g id="edge11" class="edge"><title>10.248.28.153&#45;&#45;10.247.84.27</title>
<path fill="none" stroke="black" d="M417.151,-503.697C416.841,-492.846 416.443,-478.917 416.134,-468.104"/>
</g>
<!-- 10.247.84.27&#45;&#45;10.247.84.6 -->
<g id="edge12" class="edge"><title>10.247.84.27&#45;&#45;10.247.84.6</title>
<path fill="none" stroke="black" d="M402.05,-431.697C393.525,-420.846 382.58,-406.917 374.084,-396.104"/>
</g>
</g>
</svg>
