<?xml version="1.0" encoding="UTF-8" standalone="no"?>
<!DOCTYPE svg PUBLIC "-//W3C//DTD SVG 1.1//EN"
 "http://www.w3.org/Graphics/SVG/1.1/DTD/svg11.dtd">
<!-- Generated by graphviz version 2.38.0 (20140413.2041)
 -->
<!-- Title: %3 Pages: 1 -->
<svg width="1702pt" height="1412pt"
 viewBox="0.00 0.00 1702.00 1412.00" xmlns="http://www.w3.org/2000/svg" xmlns:xlink="http://www.w3.org/1999/xlink">
<g id="graph0" class="graph" transform="scale(1 1) rotate(0) translate(4 1408)">
<title>%3</title>
<polygon fill="white" stroke="none" points="-4,4 -4,-1408 1698,-1408 1698,4 -4,4"/>
<!-- soy yo -->
<g id="node1" class="node"><title>soy yo</title>
<ellipse fill="orange" stroke="black" cx="563" cy="-1386" rx="58.4896" ry="18"/>
<text text-anchor="middle" x="563" y="-1382.3" font-family="Helvetica,sans-Serif" font-size="14.00" fill="white">dev (soy yo)</text>
</g>
<!-- gateway -->
<g id="node10" class="node"><title>gateway</title>
<polygon fill="lightgrey" stroke="black" points="596.5,-1332 529.5,-1332 529.5,-1296 596.5,-1296 596.5,-1332"/>
<text text-anchor="middle" x="563" y="-1310.3" font-family="Helvetica,sans-Serif" font-size="14.00">gateway</text>
</g>
<!-- soy yo&#45;&#45;gateway -->
<g id="edge1" class="edge"><title>soy yo&#45;&#45;gateway</title>
<path fill="none" stroke="black" d="M563,-1367.7C563,-1356.85 563,-1342.92 563,-1332.1"/>
</g>
<!-- google.co.uk -->
<g id="node2" class="node"><title>google.co.uk</title>
<ellipse fill="green" stroke="black" cx="85" cy="-378" rx="60.3893" ry="18"/>
<text text-anchor="middle" x="85" y="-374.3" font-family="Helvetica,sans-Serif" font-size="14.00" fill="white">google.co.uk</text>
</g>
<!-- youtube.com -->
<g id="node3" class="node"><title>youtube.com</title>
<ellipse fill="green" stroke="black" cx="273" cy="-378" rx="61.99" ry="18"/>
<text text-anchor="middle" x="273" y="-374.3" font-family="Helvetica,sans-Serif" font-size="14.00" fill="white">youtube.com</text>
</g>
<!-- deanturpin.github.io -->
<g id="node4" class="node"><title>deanturpin.github.io</title>
<ellipse fill="green" stroke="black" cx="439" cy="-522" rx="87.9851" ry="18"/>
<text text-anchor="middle" x="439" y="-518.3" font-family="Helvetica,sans-Serif" font-size="14.00" fill="white">deanturpin.github.io</text>
</g>
<!-- github.com -->
<g id="node5" class="node"><title>github.com</title>
<ellipse fill="green" stroke="black" cx="687" cy="-18" rx="53.8905" ry="18"/>
<text text-anchor="middle" x="687" y="-14.3" font-family="Helvetica,sans-Serif" font-size="14.00" fill="white">github.com</text>
</g>
<!-- thebunker.net -->
<g id="node6" class="node"><title>thebunker.net</title>
<ellipse fill="green" stroke="black" cx="970" cy="-90" rx="64.189" ry="18"/>
<text text-anchor="middle" x="970" y="-86.3" font-family="Helvetica,sans-Serif" font-size="14.00" fill="white">thebunker.net</text>
</g>
<!-- silobrighton.com -->
<g id="node7" class="node"><title>silobrighton.com</title>
<ellipse fill="red" stroke="black" cx="1331" cy="-450" rx="75.2868" ry="18"/>
<text text-anchor="middle" x="1331" y="-446.3" font-family="Helvetica,sans-Serif" font-size="14.00" fill="white">silobrighton.com</text>
</g>
<!-- infinityfoods.coop -->
<g id="node8" class="node"><title>infinityfoods.coop</title>
<ellipse fill="green" stroke="black" cx="1194" cy="-378" rx="78.7863" ry="18"/>
<text text-anchor="middle" x="1194" y="-374.3" font-family="Helvetica,sans-Serif" font-size="14.00" fill="white">infinityfoods.coop</text>
</g>
<!-- morningstar.co.uk -->
<g id="node9" class="node"><title>morningstar.co.uk</title>
<ellipse fill="red" stroke="black" cx="1573" cy="-522" rx="81.4863" ry="18"/>
<text text-anchor="middle" x="1573" y="-518.3" font-family="Helvetica,sans-Serif" font-size="14.00" fill="white">morningstar.co.uk</text>
</g>
<!-- 10.124.203.181 -->
<g id="node11" class="node"><title>10.124.203.181</title>
<polygon fill="lightgrey" stroke="black" points="554,-1260 444,-1260 444,-1224 554,-1224 554,-1260"/>
<text text-anchor="middle" x="499" y="-1238.3" font-family="Helvetica,sans-Serif" font-size="14.00">10.124.203.181</text>
</g>
<!-- gateway&#45;&#45;10.124.203.181 -->
<g id="edge2" class="edge"><title>gateway&#45;&#45;10.124.203.181</title>
<path fill="none" stroke="black" d="M547.18,-1295.7C537.259,-1284.85 524.524,-1270.92 514.638,-1260.1"/>
</g>
<!-- 10.124.203.177 -->
<g id="node23" class="node"><title>10.124.203.177</title>
<polygon fill="lightgrey" stroke="black" points="682,-1260 572,-1260 572,-1224 682,-1224 682,-1260"/>
<text text-anchor="middle" x="627" y="-1238.3" font-family="Helvetica,sans-Serif" font-size="14.00">10.124.203.177</text>
</g>
<!-- gateway&#45;&#45;10.124.203.177 -->
<g id="edge15" class="edge"><title>gateway&#45;&#45;10.124.203.177</title>
<path fill="none" stroke="black" d="M578.82,-1295.7C588.741,-1284.85 601.476,-1270.92 611.362,-1260.1"/>
</g>
<!-- 10.247.84.27 -->
<g id="node12" class="node"><title>10.247.84.27</title>
<polygon fill="lightgrey" stroke="black" points="550.5,-1188 455.5,-1188 455.5,-1152 550.5,-1152 550.5,-1188"/>
<text text-anchor="middle" x="503" y="-1166.3" font-family="Helvetica,sans-Serif" font-size="14.00">10.247.84.27</text>
</g>
<!-- 10.124.203.181&#45;&#45;10.247.84.27 -->
<g id="edge3" class="edge"><title>10.124.203.181&#45;&#45;10.247.84.27</title>
<path fill="none" stroke="black" d="M499.989,-1223.7C500.609,-1212.85 501.405,-1198.92 502.023,-1188.1"/>
</g>
<!-- 10.247.84.6 -->
<g id="node13" class="node"><title>10.247.84.6</title>
<polygon fill="lightgrey" stroke="black" points="607,-1116 519,-1116 519,-1080 607,-1080 607,-1116"/>
<text text-anchor="middle" x="563" y="-1094.3" font-family="Helvetica,sans-Serif" font-size="14.00">10.247.84.6</text>
</g>
<!-- 10.247.84.27&#45;&#45;10.247.84.6 -->
<g id="edge4" class="edge"><title>10.247.84.27&#45;&#45;10.247.84.6</title>
<path fill="none" stroke="black" d="M517.831,-1151.7C527.132,-1140.85 539.071,-1126.92 548.339,-1116.1"/>
</g>
<!-- 10.247.84.9 -->
<g id="node14" class="node"><title>10.247.84.9</title>
<polygon fill="lightgrey" stroke="black" points="607,-1044 519,-1044 519,-1008 607,-1008 607,-1044"/>
<text text-anchor="middle" x="563" y="-1022.3" font-family="Helvetica,sans-Serif" font-size="14.00">10.247.84.9</text>
</g>
<!-- 10.247.84.6&#45;&#45;10.247.84.9 -->
<g id="edge5" class="edge"><title>10.247.84.6&#45;&#45;10.247.84.9</title>
<path fill="none" stroke="black" d="M563,-1079.7C563,-1068.85 563,-1054.92 563,-1044.1"/>
</g>
<!-- 10.247.84.18 -->
<g id="node15" class="node"><title>10.247.84.18</title>
<polygon fill="lightgrey" stroke="black" points="610.5,-972 515.5,-972 515.5,-936 610.5,-936 610.5,-972"/>
<text text-anchor="middle" x="563" y="-950.3" font-family="Helvetica,sans-Serif" font-size="14.00">10.247.84.18</text>
</g>
<!-- 10.247.84.9&#45;&#45;10.247.84.18 -->
<g id="edge6" class="edge"><title>10.247.84.9&#45;&#45;10.247.84.18</title>
<path fill="none" stroke="black" d="M563,-1007.7C563,-996.846 563,-982.917 563,-972.104"/>
</g>
<!-- 87.237.20.224 -->
<g id="node16" class="node"><title>87.237.20.224</title>
<polygon fill="lightgrey" stroke="black" points="614.5,-900 511.5,-900 511.5,-864 614.5,-864 614.5,-900"/>
<text text-anchor="middle" x="563" y="-878.3" font-family="Helvetica,sans-Serif" font-size="14.00">87.237.20.224</text>
</g>
<!-- 10.247.84.18&#45;&#45;87.237.20.224 -->
<g id="edge7" class="edge"><title>10.247.84.18&#45;&#45;87.237.20.224</title>
<path fill="none" stroke="black" d="M563,-935.697C563,-924.846 563,-910.917 563,-900.104"/>
</g>
<!-- 87.237.20.73 -->
<g id="node17" class="node"><title>87.237.20.73</title>
<polygon fill="lightgrey" stroke="black" points="610.5,-828 515.5,-828 515.5,-792 610.5,-792 610.5,-828"/>
<text text-anchor="middle" x="563" y="-806.3" font-family="Helvetica,sans-Serif" font-size="14.00">87.237.20.73</text>
</g>
<!-- 87.237.20.224&#45;&#45;87.237.20.73 -->
<g id="edge8" class="edge"><title>87.237.20.224&#45;&#45;87.237.20.73</title>
<path fill="none" stroke="black" d="M563,-863.697C563,-852.846 563,-838.917 563,-828.104"/>
</g>
<!-- 87.237.20.36 -->
<g id="node18" class="node"><title>87.237.20.36</title>
<polygon fill="lightgrey" stroke="black" points="489.5,-756 394.5,-756 394.5,-720 489.5,-720 489.5,-756"/>
<text text-anchor="middle" x="442" y="-734.3" font-family="Helvetica,sans-Serif" font-size="14.00">87.237.20.36</text>
</g>
<!-- 87.237.20.73&#45;&#45;87.237.20.36 -->
<g id="edge9" class="edge"><title>87.237.20.73&#45;&#45;87.237.20.36</title>
<path fill="none" stroke="black" d="M533.4,-791.876C514.65,-781.029 490.486,-767.05 471.714,-756.19"/>
</g>
<!-- 80.150.169.13 -->
<g id="node27" class="node"><title>80.150.169.13</title>
<polygon fill="lightgrey" stroke="black" points="614.5,-756 511.5,-756 511.5,-720 614.5,-720 614.5,-756"/>
<text text-anchor="middle" x="563" y="-734.3" font-family="Helvetica,sans-Serif" font-size="14.00">80.150.169.13</text>
</g>
<!-- 87.237.20.73&#45;&#45;80.150.169.13 -->
<g id="edge21" class="edge"><title>87.237.20.73&#45;&#45;80.150.169.13</title>
<path fill="none" stroke="black" d="M563,-791.697C563,-780.846 563,-766.917 563,-756.104"/>
</g>
<!-- 87.237.20.33 -->
<g id="node38" class="node"><title>87.237.20.33</title>
<polygon fill="lightgrey" stroke="black" points="1162.5,-756 1067.5,-756 1067.5,-720 1162.5,-720 1162.5,-756"/>
<text text-anchor="middle" x="1115" y="-734.3" font-family="Helvetica,sans-Serif" font-size="14.00">87.237.20.33</text>
</g>
<!-- 87.237.20.73&#45;&#45;87.237.20.33 -->
<g id="edge34" class="edge"><title>87.237.20.73&#45;&#45;87.237.20.33</title>
<path fill="none" stroke="black" d="M610.541,-802.971C714.885,-789.739 962.959,-758.281 1067.38,-745.039"/>
</g>
<!-- 74.125.52.218 -->
<g id="node19" class="node"><title>74.125.52.218</title>
<polygon fill="lightgrey" stroke="black" points="455.5,-684 352.5,-684 352.5,-648 455.5,-648 455.5,-684"/>
<text text-anchor="middle" x="404" y="-662.3" font-family="Helvetica,sans-Serif" font-size="14.00">74.125.52.218</text>
</g>
<!-- 87.237.20.36&#45;&#45;74.125.52.218 -->
<g id="edge10" class="edge"><title>87.237.20.36&#45;&#45;74.125.52.218</title>
<path fill="none" stroke="black" d="M432.607,-719.697C426.717,-708.846 419.155,-694.917 413.285,-684.104"/>
</g>
<!-- 108.170.246.225 -->
<g id="node20" class="node"><title>108.170.246.225</title>
<polygon fill="lightgrey" stroke="black" points="304,-612 186,-612 186,-576 304,-576 304,-612"/>
<text text-anchor="middle" x="245" y="-590.3" font-family="Helvetica,sans-Serif" font-size="14.00">108.170.246.225</text>
</g>
<!-- 74.125.52.218&#45;&#45;108.170.246.225 -->
<g id="edge11" class="edge"><title>74.125.52.218&#45;&#45;108.170.246.225</title>
<path fill="none" stroke="black" d="M365.104,-647.876C340.373,-636.988 308.476,-622.945 283.769,-612.068"/>
</g>
<!-- 108.170.235.105 -->
<g id="node21" class="node"><title>108.170.235.105</title>
<polygon fill="lightgrey" stroke="black" points="157,-540 39,-540 39,-504 157,-504 157,-540"/>
<text text-anchor="middle" x="98" y="-518.3" font-family="Helvetica,sans-Serif" font-size="14.00">108.170.235.105</text>
</g>
<!-- 108.170.246.225&#45;&#45;108.170.235.105 -->
<g id="edge12" class="edge"><title>108.170.246.225&#45;&#45;108.170.235.105</title>
<path fill="none" stroke="black" d="M209.04,-575.876C186.175,-564.988 156.685,-550.945 133.843,-540.068"/>
</g>
<!-- 108.170.235.107 -->
<g id="node25" class="node"><title>108.170.235.107</title>
<polygon fill="lightgrey" stroke="black" points="319,-540 201,-540 201,-504 319,-504 319,-540"/>
<text text-anchor="middle" x="260" y="-518.3" font-family="Helvetica,sans-Serif" font-size="14.00">108.170.235.107</text>
</g>
<!-- 108.170.246.225&#45;&#45;108.170.235.107 -->
<g id="edge18" class="edge"><title>108.170.246.225&#45;&#45;108.170.235.107</title>
<path fill="none" stroke="black" d="M248.708,-575.697C251.033,-564.846 254.018,-550.917 256.335,-540.104"/>
</g>
<!-- lhr35s02&#45;in&#45;f35.1e100.net -->
<g id="node22" class="node"><title>lhr35s02&#45;in&#45;f35.1e100.net</title>
<polygon fill="lightgrey" stroke="black" points="170,-468 0,-468 0,-432 170,-432 170,-468"/>
<text text-anchor="middle" x="85" y="-446.3" font-family="Helvetica,sans-Serif" font-size="14.00">lhr35s02&#45;in&#45;f35.1e100.net</text>
</g>
<!-- 108.170.235.105&#45;&#45;lhr35s02&#45;in&#45;f35.1e100.net -->
<g id="edge13" class="edge"><title>108.170.235.105&#45;&#45;lhr35s02&#45;in&#45;f35.1e100.net</title>
<path fill="none" stroke="black" d="M94.7865,-503.697C92.7715,-492.846 90.1845,-478.917 88.1765,-468.104"/>
</g>
<!-- lhr35s02&#45;in&#45;f35.1e100.net&#45;&#45;google.co.uk -->
<g id="edge14" class="edge"><title>lhr35s02&#45;in&#45;f35.1e100.net&#45;&#45;google.co.uk</title>
<path fill="none" stroke="black" d="M85,-431.697C85,-420.846 85,-406.917 85,-396.104"/>
</g>
<!-- 10.247.84.25 -->
<g id="node24" class="node"><title>10.247.84.25</title>
<polygon fill="lightgrey" stroke="black" points="670.5,-1188 575.5,-1188 575.5,-1152 670.5,-1152 670.5,-1188"/>
<text text-anchor="middle" x="623" y="-1166.3" font-family="Helvetica,sans-Serif" font-size="14.00">10.247.84.25</text>
</g>
<!-- 10.124.203.177&#45;&#45;10.247.84.25 -->
<g id="edge16" class="edge"><title>10.124.203.177&#45;&#45;10.247.84.25</title>
<path fill="none" stroke="black" d="M626.011,-1223.7C625.391,-1212.85 624.595,-1198.92 623.977,-1188.1"/>
</g>
<!-- 10.247.84.25&#45;&#45;10.247.84.6 -->
<g id="edge17" class="edge"><title>10.247.84.25&#45;&#45;10.247.84.6</title>
<path fill="none" stroke="black" d="M608.169,-1151.7C598.868,-1140.85 586.929,-1126.92 577.661,-1116.1"/>
</g>
<!-- lhr35s02&#45;in&#45;f14.1e100.net -->
<g id="node26" class="node"><title>lhr35s02&#45;in&#45;f14.1e100.net</title>
<polygon fill="lightgrey" stroke="black" points="358,-468 188,-468 188,-432 358,-432 358,-468"/>
<text text-anchor="middle" x="273" y="-446.3" font-family="Helvetica,sans-Serif" font-size="14.00">lhr35s02&#45;in&#45;f14.1e100.net</text>
</g>
<!-- 108.170.235.107&#45;&#45;lhr35s02&#45;in&#45;f14.1e100.net -->
<g id="edge19" class="edge"><title>108.170.235.107&#45;&#45;lhr35s02&#45;in&#45;f14.1e100.net</title>
<path fill="none" stroke="black" d="M263.213,-503.697C265.229,-492.846 267.815,-478.917 269.823,-468.104"/>
</g>
<!-- lhr35s02&#45;in&#45;f14.1e100.net&#45;&#45;youtube.com -->
<g id="edge20" class="edge"><title>lhr35s02&#45;in&#45;f14.1e100.net&#45;&#45;youtube.com</title>
<path fill="none" stroke="black" d="M273,-431.697C273,-420.846 273,-406.917 273,-396.104"/>
</g>
<!-- 80.150.170.106 -->
<g id="node28" class="node"><title>80.150.170.106</title>
<polygon fill="lightgrey" stroke="black" points="618,-684 508,-684 508,-648 618,-648 618,-684"/>
<text text-anchor="middle" x="563" y="-662.3" font-family="Helvetica,sans-Serif" font-size="14.00">80.150.170.106</text>
</g>
<!-- 80.150.169.13&#45;&#45;80.150.170.106 -->
<g id="edge22" class="edge"><title>80.150.169.13&#45;&#45;80.150.170.106</title>
<path fill="none" stroke="black" d="M563,-719.697C563,-708.846 563,-694.917 563,-684.104"/>
</g>
<!-- ae&#45;25.r00.londen10.uk.bb.gin.ntt.net -->
<g id="node29" class="node"><title>ae&#45;25.r00.londen10.uk.bb.gin.ntt.net</title>
<polygon fill="lightgrey" stroke="black" points="555.5,-612 322.5,-612 322.5,-576 555.5,-576 555.5,-612"/>
<text text-anchor="middle" x="439" y="-590.3" font-family="Helvetica,sans-Serif" font-size="14.00">ae&#45;25.r00.londen10.uk.bb.gin.ntt.net</text>
</g>
<!-- 80.150.170.106&#45;&#45;ae&#45;25.r00.londen10.uk.bb.gin.ntt.net -->
<g id="edge23" class="edge"><title>80.150.170.106&#45;&#45;ae&#45;25.r00.londen10.uk.bb.gin.ntt.net</title>
<path fill="none" stroke="black" d="M532.666,-647.876C513.451,-637.029 488.688,-623.05 469.45,-612.19"/>
</g>
<!-- ae&#45;3.r24.londen12.uk.bb.gin.ntt.net -->
<g id="node30" class="node"><title>ae&#45;3.r24.londen12.uk.bb.gin.ntt.net</title>
<polygon fill="lightgrey" stroke="black" points="800,-612 574,-612 574,-576 800,-576 800,-612"/>
<text text-anchor="middle" x="687" y="-590.3" font-family="Helvetica,sans-Serif" font-size="14.00">ae&#45;3.r24.londen12.uk.bb.gin.ntt.net</text>
</g>
<!-- 80.150.170.106&#45;&#45;ae&#45;3.r24.londen12.uk.bb.gin.ntt.net -->
<g id="edge25" class="edge"><title>80.150.170.106&#45;&#45;ae&#45;3.r24.londen12.uk.bb.gin.ntt.net</title>
<path fill="none" stroke="black" d="M593.334,-647.876C612.549,-637.029 637.312,-623.05 656.55,-612.19"/>
</g>
<!-- ae&#45;25.r00.londen10.uk.bb.gin.ntt.net&#45;&#45;deanturpin.github.io -->
<g id="edge24" class="edge"><title>ae&#45;25.r00.londen10.uk.bb.gin.ntt.net&#45;&#45;deanturpin.github.io</title>
<path fill="none" stroke="black" d="M439,-575.697C439,-564.846 439,-550.917 439,-540.104"/>
</g>
<!-- ae&#45;5.r24.nycmny01.us.bb.gin.ntt.net -->
<g id="node31" class="node"><title>ae&#45;5.r24.nycmny01.us.bb.gin.ntt.net</title>
<polygon fill="lightgrey" stroke="black" points="803.5,-540 570.5,-540 570.5,-504 803.5,-504 803.5,-540"/>
<text text-anchor="middle" x="687" y="-518.3" font-family="Helvetica,sans-Serif" font-size="14.00">ae&#45;5.r24.nycmny01.us.bb.gin.ntt.net</text>
</g>
<!-- ae&#45;3.r24.londen12.uk.bb.gin.ntt.net&#45;&#45;ae&#45;5.r24.nycmny01.us.bb.gin.ntt.net -->
<g id="edge26" class="edge"><title>ae&#45;3.r24.londen12.uk.bb.gin.ntt.net&#45;&#45;ae&#45;5.r24.nycmny01.us.bb.gin.ntt.net</title>
<path fill="none" stroke="black" d="M687,-575.697C687,-564.846 687,-550.917 687,-540.104"/>
</g>
<!-- ae&#45;1.r25.nycmny01.us.bb.gin.ntt.net -->
<g id="node32" class="node"><title>ae&#45;1.r25.nycmny01.us.bb.gin.ntt.net</title>
<polygon fill="lightgrey" stroke="black" points="803.5,-468 570.5,-468 570.5,-432 803.5,-432 803.5,-468"/>
<text text-anchor="middle" x="687" y="-446.3" font-family="Helvetica,sans-Serif" font-size="14.00">ae&#45;1.r25.nycmny01.us.bb.gin.ntt.net</text>
</g>
<!-- ae&#45;5.r24.nycmny01.us.bb.gin.ntt.net&#45;&#45;ae&#45;1.r25.nycmny01.us.bb.gin.ntt.net -->
<g id="edge27" class="edge"><title>ae&#45;5.r24.nycmny01.us.bb.gin.ntt.net&#45;&#45;ae&#45;1.r25.nycmny01.us.bb.gin.ntt.net</title>
<path fill="none" stroke="black" d="M687,-503.697C687,-492.846 687,-478.917 687,-468.104"/>
</g>
<!-- ae&#45;9.r22.asbnva02.us.bb.gin.ntt.net -->
<g id="node33" class="node"><title>ae&#45;9.r22.asbnva02.us.bb.gin.ntt.net</title>
<polygon fill="lightgrey" stroke="black" points="801.5,-396 572.5,-396 572.5,-360 801.5,-360 801.5,-396"/>
<text text-anchor="middle" x="687" y="-374.3" font-family="Helvetica,sans-Serif" font-size="14.00">ae&#45;9.r22.asbnva02.us.bb.gin.ntt.net</text>
</g>
<!-- ae&#45;1.r25.nycmny01.us.bb.gin.ntt.net&#45;&#45;ae&#45;9.r22.asbnva02.us.bb.gin.ntt.net -->
<g id="edge28" class="edge"><title>ae&#45;1.r25.nycmny01.us.bb.gin.ntt.net&#45;&#45;ae&#45;9.r22.asbnva02.us.bb.gin.ntt.net</title>
<path fill="none" stroke="black" d="M687,-431.697C687,-420.846 687,-406.917 687,-396.104"/>
</g>
<!-- ae&#45;7.r06.asbnva02.us.bb.gin.ntt.net -->
<g id="node34" class="node"><title>ae&#45;7.r06.asbnva02.us.bb.gin.ntt.net</title>
<polygon fill="lightgrey" stroke="black" points="801.5,-324 572.5,-324 572.5,-288 801.5,-288 801.5,-324"/>
<text text-anchor="middle" x="687" y="-302.3" font-family="Helvetica,sans-Serif" font-size="14.00">ae&#45;7.r06.asbnva02.us.bb.gin.ntt.net</text>
</g>
<!-- ae&#45;9.r22.asbnva02.us.bb.gin.ntt.net&#45;&#45;ae&#45;7.r06.asbnva02.us.bb.gin.ntt.net -->
<g id="edge29" class="edge"><title>ae&#45;9.r22.asbnva02.us.bb.gin.ntt.net&#45;&#45;ae&#45;7.r06.asbnva02.us.bb.gin.ntt.net</title>
<path fill="none" stroke="black" d="M687,-359.697C687,-348.846 687,-334.917 687,-324.104"/>
</g>
<!-- ae&#45;1.a01.asbnva02.us.bb.gin.ntt.net -->
<g id="node35" class="node"><title>ae&#45;1.a01.asbnva02.us.bb.gin.ntt.net</title>
<polygon fill="lightgrey" stroke="black" points="803,-252 571,-252 571,-216 803,-216 803,-252"/>
<text text-anchor="middle" x="687" y="-230.3" font-family="Helvetica,sans-Serif" font-size="14.00">ae&#45;1.a01.asbnva02.us.bb.gin.ntt.net</text>
</g>
<!-- ae&#45;7.r06.asbnva02.us.bb.gin.ntt.net&#45;&#45;ae&#45;1.a01.asbnva02.us.bb.gin.ntt.net -->
<g id="edge30" class="edge"><title>ae&#45;7.r06.asbnva02.us.bb.gin.ntt.net&#45;&#45;ae&#45;1.a01.asbnva02.us.bb.gin.ntt.net</title>
<path fill="none" stroke="black" d="M687,-287.697C687,-276.846 687,-262.917 687,-252.104"/>
</g>
<!-- xe&#45;0&#45;0&#45;25&#45;1.a01.asbnva02.us.ce.gin.ntt.net -->
<g id="node36" class="node"><title>xe&#45;0&#45;0&#45;25&#45;1.a01.asbnva02.us.ce.gin.ntt.net</title>
<polygon fill="lightgrey" stroke="black" points="824,-180 550,-180 550,-144 824,-144 824,-180"/>
<text text-anchor="middle" x="687" y="-158.3" font-family="Helvetica,sans-Serif" font-size="14.00">xe&#45;0&#45;0&#45;25&#45;1.a01.asbnva02.us.ce.gin.ntt.net</text>
</g>
<!-- ae&#45;1.a01.asbnva02.us.bb.gin.ntt.net&#45;&#45;xe&#45;0&#45;0&#45;25&#45;1.a01.asbnva02.us.ce.gin.ntt.net -->
<g id="edge31" class="edge"><title>ae&#45;1.a01.asbnva02.us.bb.gin.ntt.net&#45;&#45;xe&#45;0&#45;0&#45;25&#45;1.a01.asbnva02.us.ce.gin.ntt.net</title>
<path fill="none" stroke="black" d="M687,-215.697C687,-204.846 687,-190.917 687,-180.104"/>
</g>
<!-- lb&#45;192&#45;30&#45;253&#45;113&#45;iad.github.com -->
<g id="node37" class="node"><title>lb&#45;192&#45;30&#45;253&#45;113&#45;iad.github.com</title>
<polygon fill="lightgrey" stroke="black" points="797.5,-108 576.5,-108 576.5,-72 797.5,-72 797.5,-108"/>
<text text-anchor="middle" x="687" y="-86.3" font-family="Helvetica,sans-Serif" font-size="14.00">lb&#45;192&#45;30&#45;253&#45;113&#45;iad.github.com</text>
</g>
<!-- xe&#45;0&#45;0&#45;25&#45;1.a01.asbnva02.us.ce.gin.ntt.net&#45;&#45;lb&#45;192&#45;30&#45;253&#45;113&#45;iad.github.com -->
<g id="edge32" class="edge"><title>xe&#45;0&#45;0&#45;25&#45;1.a01.asbnva02.us.ce.gin.ntt.net&#45;&#45;lb&#45;192&#45;30&#45;253&#45;113&#45;iad.github.com</title>
<path fill="none" stroke="black" d="M687,-143.697C687,-132.846 687,-118.917 687,-108.104"/>
</g>
<!-- lb&#45;192&#45;30&#45;253&#45;113&#45;iad.github.com&#45;&#45;github.com -->
<g id="edge33" class="edge"><title>lb&#45;192&#45;30&#45;253&#45;113&#45;iad.github.com&#45;&#45;github.com</title>
<path fill="none" stroke="black" d="M687,-71.6966C687,-60.8463 687,-46.9167 687,-36.1043"/>
</g>
<!-- linx1.orbital.net -->
<g id="node39" class="node"><title>linx1.orbital.net</title>
<polygon fill="lightgrey" stroke="black" points="1105.5,-684 998.5,-684 998.5,-648 1105.5,-648 1105.5,-684"/>
<text text-anchor="middle" x="1052" y="-662.3" font-family="Helvetica,sans-Serif" font-size="14.00">linx1.orbital.net</text>
</g>
<!-- 87.237.20.33&#45;&#45;linx1.orbital.net -->
<g id="edge35" class="edge"><title>87.237.20.33&#45;&#45;linx1.orbital.net</title>
<path fill="none" stroke="black" d="M1099.43,-719.697C1089.66,-708.846 1077.13,-694.917 1067.39,-684.104"/>
</g>
<!-- 195.66.225.215 -->
<g id="node47" class="node"><title>195.66.225.215</title>
<polygon fill="lightgrey" stroke="black" points="1329,-684 1219,-684 1219,-648 1329,-648 1329,-684"/>
<text text-anchor="middle" x="1274" y="-662.3" font-family="Helvetica,sans-Serif" font-size="14.00">195.66.225.215</text>
</g>
<!-- 87.237.20.33&#45;&#45;195.66.225.215 -->
<g id="edge44" class="edge"><title>87.237.20.33&#45;&#45;195.66.225.215</title>
<path fill="none" stroke="black" d="M1153.9,-719.876C1178.63,-708.988 1210.52,-694.945 1235.23,-684.068"/>
</g>
<!-- linx.ae4&#45;irt1.lon37.uk.as13237.net -->
<g id="node52" class="node"><title>linx.ae4&#45;irt1.lon37.uk.as13237.net</title>
<polygon fill="lightgrey" stroke="black" points="1643.5,-684 1424.5,-684 1424.5,-648 1643.5,-648 1643.5,-684"/>
<text text-anchor="middle" x="1534" y="-662.3" font-family="Helvetica,sans-Serif" font-size="14.00">linx.ae4&#45;irt1.lon37.uk.as13237.net</text>
</g>
<!-- 87.237.20.33&#45;&#45;linx.ae4&#45;irt1.lon37.uk.as13237.net -->
<g id="edge51" class="edge"><title>87.237.20.33&#45;&#45;linx.ae4&#45;irt1.lon37.uk.as13237.net</title>
<path fill="none" stroke="black" d="M1162.66,-729.038C1227.86,-718.145 1346.55,-698.316 1432.22,-684.004"/>
</g>
<!-- xe2&#45;2&#45;ve&#45;83.thn&#45;pe&#45;2.thn.thebunker.net.202.88.80.in&#45;addr.arpa -->
<g id="node40" class="node"><title>xe2&#45;2&#45;ve&#45;83.thn&#45;pe&#45;2.thn.thebunker.net.202.88.80.in&#45;addr.arpa</title>
<polygon fill="lightgrey" stroke="black" points="1210,-612 818,-612 818,-576 1210,-576 1210,-612"/>
<text text-anchor="middle" x="1014" y="-590.3" font-family="Helvetica,sans-Serif" font-size="14.00">xe2&#45;2&#45;ve&#45;83.thn&#45;pe&#45;2.thn.thebunker.net.202.88.80.in&#45;addr.arpa</text>
</g>
<!-- linx1.orbital.net&#45;&#45;xe2&#45;2&#45;ve&#45;83.thn&#45;pe&#45;2.thn.thebunker.net.202.88.80.in&#45;addr.arpa -->
<g id="edge36" class="edge"><title>linx1.orbital.net&#45;&#45;xe2&#45;2&#45;ve&#45;83.thn&#45;pe&#45;2.thn.thebunker.net.202.88.80.in&#45;addr.arpa</title>
<path fill="none" stroke="black" d="M1042.61,-647.697C1036.72,-636.846 1029.15,-622.917 1023.29,-612.104"/>
</g>
<!-- ip&#45;185&#45;10&#45;15&#45;249.thebunker.net -->
<g id="node41" class="node"><title>ip&#45;185&#45;10&#45;15&#45;249.thebunker.net</title>
<polygon fill="lightgrey" stroke="black" points="1076,-540 870,-540 870,-504 1076,-504 1076,-540"/>
<text text-anchor="middle" x="973" y="-518.3" font-family="Helvetica,sans-Serif" font-size="14.00">ip&#45;185&#45;10&#45;15&#45;249.thebunker.net</text>
</g>
<!-- xe2&#45;2&#45;ve&#45;83.thn&#45;pe&#45;2.thn.thebunker.net.202.88.80.in&#45;addr.arpa&#45;&#45;ip&#45;185&#45;10&#45;15&#45;249.thebunker.net -->
<g id="edge37" class="edge"><title>xe2&#45;2&#45;ve&#45;83.thn&#45;pe&#45;2.thn.thebunker.net.202.88.80.in&#45;addr.arpa&#45;&#45;ip&#45;185&#45;10&#45;15&#45;249.thebunker.net</title>
<path fill="none" stroke="black" d="M1003.87,-575.697C997.51,-564.846 989.351,-550.917 983.018,-540.104"/>
</g>
<!-- 213.129.70.253 -->
<g id="node50" class="node"><title>213.129.70.253</title>
<polygon fill="lightgrey" stroke="black" points="1212,-540 1102,-540 1102,-504 1212,-504 1212,-540"/>
<text text-anchor="middle" x="1157" y="-518.3" font-family="Helvetica,sans-Serif" font-size="14.00">213.129.70.253</text>
</g>
<!-- xe2&#45;2&#45;ve&#45;83.thn&#45;pe&#45;2.thn.thebunker.net.202.88.80.in&#45;addr.arpa&#45;&#45;213.129.70.253 -->
<g id="edge48" class="edge"><title>xe2&#45;2&#45;ve&#45;83.thn&#45;pe&#45;2.thn.thebunker.net.202.88.80.in&#45;addr.arpa&#45;&#45;213.129.70.253</title>
<path fill="none" stroke="black" d="M1048.98,-575.876C1071.14,-565.029 1099.7,-551.05 1121.88,-540.19"/>
</g>
<!-- ip&#45;185&#45;10&#45;15&#45;250.thebunker.net -->
<g id="node42" class="node"><title>ip&#45;185&#45;10&#45;15&#45;250.thebunker.net</title>
<polygon fill="lightgrey" stroke="black" points="1074,-468 868,-468 868,-432 1074,-432 1074,-468"/>
<text text-anchor="middle" x="971" y="-446.3" font-family="Helvetica,sans-Serif" font-size="14.00">ip&#45;185&#45;10&#45;15&#45;250.thebunker.net</text>
</g>
<!-- ip&#45;185&#45;10&#45;15&#45;249.thebunker.net&#45;&#45;ip&#45;185&#45;10&#45;15&#45;250.thebunker.net -->
<g id="edge38" class="edge"><title>ip&#45;185&#45;10&#45;15&#45;249.thebunker.net&#45;&#45;ip&#45;185&#45;10&#45;15&#45;250.thebunker.net</title>
<path fill="none" stroke="black" d="M972.506,-503.697C972.196,-492.846 971.798,-478.917 971.489,-468.104"/>
</g>
<!-- eth4&#45;1.thn&#45;bgp&#45;2.thn.core.thebunker.net -->
<g id="node43" class="node"><title>eth4&#45;1.thn&#45;bgp&#45;2.thn.core.thebunker.net</title>
<polygon fill="lightgrey" stroke="black" points="1097.5,-396 842.5,-396 842.5,-360 1097.5,-360 1097.5,-396"/>
<text text-anchor="middle" x="970" y="-374.3" font-family="Helvetica,sans-Serif" font-size="14.00">eth4&#45;1.thn&#45;bgp&#45;2.thn.core.thebunker.net</text>
</g>
<!-- ip&#45;185&#45;10&#45;15&#45;250.thebunker.net&#45;&#45;eth4&#45;1.thn&#45;bgp&#45;2.thn.core.thebunker.net -->
<g id="edge39" class="edge"><title>ip&#45;185&#45;10&#45;15&#45;250.thebunker.net&#45;&#45;eth4&#45;1.thn&#45;bgp&#45;2.thn.core.thebunker.net</title>
<path fill="none" stroke="black" d="M970.753,-431.697C970.598,-420.846 970.399,-406.917 970.244,-396.104"/>
</g>
<!-- tengeth2&#45;1.thn&#45;bgp&#45;1.thn.core.thebunker.net -->
<g id="node44" class="node"><title>tengeth2&#45;1.thn&#45;bgp&#45;1.thn.core.thebunker.net</title>
<polygon fill="lightgrey" stroke="black" points="1110.5,-324 829.5,-324 829.5,-288 1110.5,-288 1110.5,-324"/>
<text text-anchor="middle" x="970" y="-302.3" font-family="Helvetica,sans-Serif" font-size="14.00">tengeth2&#45;1.thn&#45;bgp&#45;1.thn.core.thebunker.net</text>
</g>
<!-- eth4&#45;1.thn&#45;bgp&#45;2.thn.core.thebunker.net&#45;&#45;tengeth2&#45;1.thn&#45;bgp&#45;1.thn.core.thebunker.net -->
<g id="edge40" class="edge"><title>eth4&#45;1.thn&#45;bgp&#45;2.thn.core.thebunker.net&#45;&#45;tengeth2&#45;1.thn&#45;bgp&#45;1.thn.core.thebunker.net</title>
<path fill="none" stroke="black" d="M970,-359.697C970,-348.846 970,-334.917 970,-324.104"/>
</g>
<!-- tengeth2&#45;2.ash&#45;bgp&#45;2.ash.core.thebunker.net -->
<g id="node45" class="node"><title>tengeth2&#45;2.ash&#45;bgp&#45;2.ash.core.thebunker.net</title>
<polygon fill="lightgrey" stroke="black" points="1113.5,-252 826.5,-252 826.5,-216 1113.5,-216 1113.5,-252"/>
<text text-anchor="middle" x="970" y="-230.3" font-family="Helvetica,sans-Serif" font-size="14.00">tengeth2&#45;2.ash&#45;bgp&#45;2.ash.core.thebunker.net</text>
</g>
<!-- tengeth2&#45;1.thn&#45;bgp&#45;1.thn.core.thebunker.net&#45;&#45;tengeth2&#45;2.ash&#45;bgp&#45;2.ash.core.thebunker.net -->
<g id="edge41" class="edge"><title>tengeth2&#45;1.thn&#45;bgp&#45;1.thn.core.thebunker.net&#45;&#45;tengeth2&#45;2.ash&#45;bgp&#45;2.ash.core.thebunker.net</title>
<path fill="none" stroke="black" d="M970,-287.697C970,-276.846 970,-262.917 970,-252.104"/>
</g>
<!-- eth2&#45;2.ash&#45;pe&#45;2.ash.core.thebunker.net -->
<g id="node46" class="node"><title>eth2&#45;2.ash&#45;pe&#45;2.ash.core.thebunker.net</title>
<polygon fill="lightgrey" stroke="black" points="1097,-180 843,-180 843,-144 1097,-144 1097,-180"/>
<text text-anchor="middle" x="970" y="-158.3" font-family="Helvetica,sans-Serif" font-size="14.00">eth2&#45;2.ash&#45;pe&#45;2.ash.core.thebunker.net</text>
</g>
<!-- tengeth2&#45;2.ash&#45;bgp&#45;2.ash.core.thebunker.net&#45;&#45;eth2&#45;2.ash&#45;pe&#45;2.ash.core.thebunker.net -->
<g id="edge42" class="edge"><title>tengeth2&#45;2.ash&#45;bgp&#45;2.ash.core.thebunker.net&#45;&#45;eth2&#45;2.ash&#45;pe&#45;2.ash.core.thebunker.net</title>
<path fill="none" stroke="black" d="M970,-215.697C970,-204.846 970,-190.917 970,-180.104"/>
</g>
<!-- eth2&#45;2.ash&#45;pe&#45;2.ash.core.thebunker.net&#45;&#45;thebunker.net -->
<g id="edge43" class="edge"><title>eth2&#45;2.ash&#45;pe&#45;2.ash.core.thebunker.net&#45;&#45;thebunker.net</title>
<path fill="none" stroke="black" d="M970,-143.697C970,-132.846 970,-118.917 970,-108.104"/>
</g>
<!-- 4d&#45;lgw&#45;bbr&#45;2&#45;0002&#45;6.4d&#45;dc.com -->
<g id="node48" class="node"><title>4d&#45;lgw&#45;bbr&#45;2&#45;0002&#45;6.4d&#45;dc.com</title>
<polygon fill="lightgrey" stroke="black" points="1434,-612 1228,-612 1228,-576 1434,-576 1434,-612"/>
<text text-anchor="middle" x="1331" y="-590.3" font-family="Helvetica,sans-Serif" font-size="14.00">4d&#45;lgw&#45;bbr&#45;2&#45;0002&#45;6.4d&#45;dc.com</text>
</g>
<!-- 195.66.225.215&#45;&#45;4d&#45;lgw&#45;bbr&#45;2&#45;0002&#45;6.4d&#45;dc.com -->
<g id="edge45" class="edge"><title>195.66.225.215&#45;&#45;4d&#45;lgw&#45;bbr&#45;2&#45;0002&#45;6.4d&#45;dc.com</title>
<path fill="none" stroke="black" d="M1288.09,-647.697C1296.93,-636.846 1308.27,-622.917 1317.07,-612.104"/>
</g>
<!-- 4d&#45;lgw&#45;men&#45;2&#45;024.4d&#45;dc.com -->
<g id="node49" class="node"><title>4d&#45;lgw&#45;men&#45;2&#45;024.4d&#45;dc.com</title>
<polygon fill="lightgrey" stroke="black" points="1428,-540 1234,-540 1234,-504 1428,-504 1428,-540"/>
<text text-anchor="middle" x="1331" y="-518.3" font-family="Helvetica,sans-Serif" font-size="14.00">4d&#45;lgw&#45;men&#45;2&#45;024.4d&#45;dc.com</text>
</g>
<!-- 4d&#45;lgw&#45;bbr&#45;2&#45;0002&#45;6.4d&#45;dc.com&#45;&#45;4d&#45;lgw&#45;men&#45;2&#45;024.4d&#45;dc.com -->
<g id="edge46" class="edge"><title>4d&#45;lgw&#45;bbr&#45;2&#45;0002&#45;6.4d&#45;dc.com&#45;&#45;4d&#45;lgw&#45;men&#45;2&#45;024.4d&#45;dc.com</title>
<path fill="none" stroke="black" d="M1331,-575.697C1331,-564.846 1331,-550.917 1331,-540.104"/>
</g>
<!-- 4d&#45;lgw&#45;men&#45;2&#45;024.4d&#45;dc.com&#45;&#45;silobrighton.com -->
<g id="edge47" class="edge"><title>4d&#45;lgw&#45;men&#45;2&#45;024.4d&#45;dc.com&#45;&#45;silobrighton.com</title>
<path fill="none" stroke="black" d="M1331,-503.697C1331,-492.846 1331,-478.917 1331,-468.104"/>
</g>
<!-- 213.129.70.237 -->
<g id="node51" class="node"><title>213.129.70.237</title>
<polygon fill="lightgrey" stroke="black" points="1225,-468 1115,-468 1115,-432 1225,-432 1225,-468"/>
<text text-anchor="middle" x="1170" y="-446.3" font-family="Helvetica,sans-Serif" font-size="14.00">213.129.70.237</text>
</g>
<!-- 213.129.70.253&#45;&#45;213.129.70.237 -->
<g id="edge49" class="edge"><title>213.129.70.253&#45;&#45;213.129.70.237</title>
<path fill="none" stroke="black" d="M1160.21,-503.697C1162.23,-492.846 1164.82,-478.917 1166.82,-468.104"/>
</g>
<!-- 213.129.70.237&#45;&#45;infinityfoods.coop -->
<g id="edge50" class="edge"><title>213.129.70.237&#45;&#45;infinityfoods.coop</title>
<path fill="none" stroke="black" d="M1175.93,-431.697C1179.65,-420.846 1184.43,-406.917 1188.14,-396.104"/>
</g>
<!-- 84.207.244.126.not&#45;updated.eunx.net -->
<g id="node53" class="node"><title>84.207.244.126.not&#45;updated.eunx.net</title>
<polygon fill="lightgrey" stroke="black" points="1694,-612 1452,-612 1452,-576 1694,-576 1694,-612"/>
<text text-anchor="middle" x="1573" y="-590.3" font-family="Helvetica,sans-Serif" font-size="14.00">84.207.244.126.not&#45;updated.eunx.net</text>
</g>
<!-- linx.ae4&#45;irt1.lon37.uk.as13237.net&#45;&#45;84.207.244.126.not&#45;updated.eunx.net -->
<g id="edge52" class="edge"><title>linx.ae4&#45;irt1.lon37.uk.as13237.net&#45;&#45;84.207.244.126.not&#45;updated.eunx.net</title>
<path fill="none" stroke="black" d="M1543.64,-647.697C1549.69,-636.846 1557.45,-622.917 1563.47,-612.104"/>
</g>
<!-- 84.207.244.126.not&#45;updated.eunx.net&#45;&#45;morningstar.co.uk -->
<g id="edge53" class="edge"><title>84.207.244.126.not&#45;updated.eunx.net&#45;&#45;morningstar.co.uk</title>
<path fill="none" stroke="black" d="M1573,-575.697C1573,-564.846 1573,-550.917 1573,-540.104"/>
</g>
</g>
</svg>
