<?xml version="1.0" encoding="UTF-8" standalone="no"?>
<!DOCTYPE svg PUBLIC "-//W3C//DTD SVG 1.1//EN"
 "http://www.w3.org/Graphics/SVG/1.1/DTD/svg11.dtd">
<!-- Generated by graphviz version 2.38.0 (20140413.2041)
 -->
<!-- Title: %3 Pages: 1 -->
<svg width="316pt" height="211pt"
 viewBox="0.00 0.00 316.00 211.00" xmlns="http://www.w3.org/2000/svg" xmlns:xlink="http://www.w3.org/1999/xlink">
<g id="graph0" class="graph" transform="scale(1 1) rotate(0) translate(4 207)">
<title>%3</title>
<polygon fill="white" stroke="none" points="-4,4 -4,-207 312,-207 312,4 -4,4"/>
<text text-anchor="middle" x="154" y="-187.8" font-family="Helvetica,sans-Serif" font-size="14.00">./hosts2dot.sh &#45; Thu 14 Dec 22:08:02 GMT 2017</text>
<!-- soy_yo -->
<g id="node1" class="node"><title>soy_yo</title>
<path fill="lightgrey" stroke="white" d="M169,-180C169,-180 139,-180 139,-180 133,-180 127,-174 127,-168 127,-168 127,-156 127,-156 127,-150 133,-144 139,-144 139,-144 169,-144 169,-144 175,-144 181,-150 181,-156 181,-156 181,-168 181,-168 181,-174 175,-180 169,-180"/>
<text text-anchor="middle" x="154" y="-158.3" font-family="Helvetica,sans-Serif" font-size="14.00">dev</text>
</g>
<!-- localhost -->
<g id="node3" class="node"><title>localhost</title>
<path fill="lightgrey" stroke="white" d="M177,-108C177,-108 131,-108 131,-108 125,-108 119,-102 119,-96 119,-96 119,-84 119,-84 119,-78 125,-72 131,-72 131,-72 177,-72 177,-72 183,-72 189,-78 189,-84 189,-84 189,-96 189,-96 189,-102 183,-108 177,-108"/>
<text text-anchor="middle" x="154" y="-86.3" font-family="Helvetica,sans-Serif" font-size="14.00">localhost</text>
</g>
<!-- soy_yo&#45;&#45;localhost -->
<g id="edge1" class="edge"><title>soy_yo&#45;&#45;localhost</title>
<path fill="none" stroke="black" d="M154,-143.697C154,-132.846 154,-118.917 154,-108.104"/>
</g>
<!-- 127.0.0.1 localhost # blah yeh -->
<g id="node2" class="node"><title>127.0.0.1 localhost # blah yeh</title>
<path fill="green" stroke="white" d="M240,-36C240,-36 68,-36 68,-36 62,-36 56,-30 56,-24 56,-24 56,-12 56,-12 56,-6 62,-0 68,-0 68,-0 240,-0 240,-0 246,-0 252,-6 252,-12 252,-12 252,-24 252,-24 252,-30 246,-36 240,-36"/>
<text text-anchor="middle" x="154" y="-14.3" font-family="Helvetica,sans-Serif" font-size="14.00" fill="white">127.0.0.1 localhost # blah yeh</text>
</g>
<!-- localhost&#45;&#45;127.0.0.1 localhost # blah yeh -->
<g id="edge2" class="edge"><title>localhost&#45;&#45;127.0.0.1 localhost # blah yeh</title>
<path fill="none" stroke="black" d="M154,-71.6966C154,-60.8463 154,-46.9167 154,-36.1043"/>
</g>
</g>
</svg>
