<?xml version="1.0" encoding="UTF-8" standalone="no"?>
<!DOCTYPE svg PUBLIC "-//W3C//DTD SVG 1.1//EN"
 "http://www.w3.org/Graphics/SVG/1.1/DTD/svg11.dtd">
<!-- Generated by graphviz version 2.38.0 (20140413.2041)
 -->
<!-- Title: %3 Pages: 1 -->
<svg width="1140pt" height="1075pt"
 viewBox="0.00 0.00 1139.50 1075.00" xmlns="http://www.w3.org/2000/svg" xmlns:xlink="http://www.w3.org/1999/xlink">
<g id="graph0" class="graph" transform="scale(1 1) rotate(0) translate(4 1071)">
<title>%3</title>
<polygon fill="white" stroke="none" points="-4,4 -4,-1071 1135.5,-1071 1135.5,4 -4,4"/>
<text text-anchor="middle" x="154" y="-1051.8" font-family="Helvetica,sans-Serif" font-size="14.00">./hosts2dot.sh &#45; Thu 14 Dec 22:36:09 GMT 2017</text>
<!-- soy_yo -->
<g id="node1" class="node"><title>soy_yo</title>
<path fill="lightgrey" stroke="white" d="M462.5,-1044C462.5,-1044 432.5,-1044 432.5,-1044 426.5,-1044 420.5,-1038 420.5,-1032 420.5,-1032 420.5,-1020 420.5,-1020 420.5,-1014 426.5,-1008 432.5,-1008 432.5,-1008 462.5,-1008 462.5,-1008 468.5,-1008 474.5,-1014 474.5,-1020 474.5,-1020 474.5,-1032 474.5,-1032 474.5,-1038 468.5,-1044 462.5,-1044"/>
<text text-anchor="middle" x="447.5" y="-1022.3" font-family="Helvetica,sans-Serif" font-size="14.00">dev</text>
</g>
<!-- localhost -->
<g id="node3" class="node"><title>localhost</title>
<path fill="lightgrey" stroke="white" d="M402.5,-972C402.5,-972 356.5,-972 356.5,-972 350.5,-972 344.5,-966 344.5,-960 344.5,-960 344.5,-948 344.5,-948 344.5,-942 350.5,-936 356.5,-936 356.5,-936 402.5,-936 402.5,-936 408.5,-936 414.5,-942 414.5,-948 414.5,-948 414.5,-960 414.5,-960 414.5,-966 408.5,-972 402.5,-972"/>
<text text-anchor="middle" x="379.5" y="-950.3" font-family="Helvetica,sans-Serif" font-size="14.00">localhost</text>
</g>
<!-- soy_yo&#45;&#45;localhost -->
<g id="edge1" class="edge"><title>soy_yo&#45;&#45;localhost</title>
<path fill="none" stroke="black" d="M430.691,-1007.7C420.151,-996.846 406.619,-982.917 396.116,-972.104"/>
</g>
<!-- gateway -->
<g id="node5" class="node"><title>gateway</title>
<path fill="lightgrey" stroke="white" d="M538,-972C538,-972 495,-972 495,-972 489,-972 483,-966 483,-960 483,-960 483,-948 483,-948 483,-942 489,-936 495,-936 495,-936 538,-936 538,-936 544,-936 550,-942 550,-948 550,-948 550,-960 550,-960 550,-966 544,-972 538,-972"/>
<text text-anchor="middle" x="516.5" y="-950.3" font-family="Helvetica,sans-Serif" font-size="14.00">gateway</text>
</g>
<!-- soy_yo&#45;&#45;gateway -->
<g id="edge3" class="edge"><title>soy_yo&#45;&#45;gateway</title>
<path fill="none" stroke="black" d="M464.556,-1007.7C475.252,-996.846 488.982,-982.917 499.64,-972.104"/>
</g>
<!-- 127.0.0.1 localhost # for local people -->
<g id="node2" class="node"><title>127.0.0.1 localhost # for local people</title>
<path fill="green" stroke="white" d="M434.5,-900C434.5,-900 222.5,-900 222.5,-900 216.5,-900 210.5,-894 210.5,-888 210.5,-888 210.5,-876 210.5,-876 210.5,-870 216.5,-864 222.5,-864 222.5,-864 434.5,-864 434.5,-864 440.5,-864 446.5,-870 446.5,-876 446.5,-876 446.5,-888 446.5,-888 446.5,-894 440.5,-900 434.5,-900"/>
<text text-anchor="middle" x="328.5" y="-878.3" font-family="Helvetica,sans-Serif" font-size="14.00" fill="white">127.0.0.1 localhost # for local people</text>
</g>
<!-- localhost&#45;&#45;127.0.0.1 localhost # for local people -->
<g id="edge2" class="edge"><title>localhost&#45;&#45;127.0.0.1 localhost # for local people</title>
<path fill="none" stroke="black" d="M366.893,-935.697C358.988,-924.846 348.839,-910.917 340.962,-900.104"/>
</g>
<!-- 192.30.253.113 &#45;&#45; github -->
<g id="node4" class="node"><title>192.30.253.113 &#45;&#45; github</title>
<path fill="green" stroke="white" d="M186.5,-36C186.5,-36 46.5,-36 46.5,-36 40.5,-36 34.5,-30 34.5,-24 34.5,-24 34.5,-12 34.5,-12 34.5,-6 40.5,-0 46.5,-0 46.5,-0 186.5,-0 186.5,-0 192.5,-0 198.5,-6 198.5,-12 198.5,-12 198.5,-24 198.5,-24 198.5,-30 192.5,-36 186.5,-36"/>
<text text-anchor="middle" x="116.5" y="-14.3" font-family="Helvetica,sans-Serif" font-size="14.00" fill="white">192.30.253.113 &#45;&#45; github</text>
</g>
<!-- gateway&#45;&#45;gateway -->
<g id="edge4" class="edge"><title>gateway&#45;&#45;gateway</title>
<path fill="none" stroke="black" d="M550.181,-967.47C560.202,-967.068 568,-962.578 568,-954 568,-945.422 560.202,-940.932 550.181,-940.53"/>
</g>
<!-- 10.248.28.145 -->
<g id="node6" class="node"><title>10.248.28.145</title>
<path fill="lightgrey" stroke="white" d="M556,-900C556,-900 477,-900 477,-900 471,-900 465,-894 465,-888 465,-888 465,-876 465,-876 465,-870 471,-864 477,-864 477,-864 556,-864 556,-864 562,-864 568,-870 568,-876 568,-876 568,-888 568,-888 568,-894 562,-900 556,-900"/>
<text text-anchor="middle" x="516.5" y="-878.3" font-family="Helvetica,sans-Serif" font-size="14.00">10.248.28.145</text>
</g>
<!-- gateway&#45;&#45;10.248.28.145 -->
<g id="edge5" class="edge"><title>gateway&#45;&#45;10.248.28.145</title>
<path fill="none" stroke="black" d="M516.5,-935.697C516.5,-924.846 516.5,-910.917 516.5,-900.104"/>
</g>
<!-- 10.248.28.153 -->
<g id="node20" class="node"><title>10.248.28.153</title>
<path fill="lightgrey" stroke="white" d="M677,-900C677,-900 598,-900 598,-900 592,-900 586,-894 586,-888 586,-888 586,-876 586,-876 586,-870 592,-864 598,-864 598,-864 677,-864 677,-864 683,-864 689,-870 689,-876 689,-876 689,-888 689,-888 689,-894 683,-900 677,-900"/>
<text text-anchor="middle" x="637.5" y="-878.3" font-family="Helvetica,sans-Serif" font-size="14.00">10.248.28.153</text>
</g>
<!-- gateway&#45;&#45;10.248.28.153 -->
<g id="edge20" class="edge"><title>gateway&#45;&#45;10.248.28.153</title>
<path fill="none" stroke="black" d="M546.1,-935.876C564.85,-925.029 589.014,-911.05 607.786,-900.19"/>
</g>
<!-- 10.247.84.6 -->
<g id="node7" class="node"><title>10.247.84.6</title>
<path fill="lightgrey" stroke="white" d="M608.5,-828C608.5,-828 544.5,-828 544.5,-828 538.5,-828 532.5,-822 532.5,-816 532.5,-816 532.5,-804 532.5,-804 532.5,-798 538.5,-792 544.5,-792 544.5,-792 608.5,-792 608.5,-792 614.5,-792 620.5,-798 620.5,-804 620.5,-804 620.5,-816 620.5,-816 620.5,-822 614.5,-828 608.5,-828"/>
<text text-anchor="middle" x="576.5" y="-806.3" font-family="Helvetica,sans-Serif" font-size="14.00">10.247.84.6</text>
</g>
<!-- 10.248.28.145&#45;&#45;10.247.84.6 -->
<g id="edge6" class="edge"><title>10.248.28.145&#45;&#45;10.247.84.6</title>
<path fill="none" stroke="black" d="M531.331,-863.697C540.632,-852.846 552.571,-838.917 561.839,-828.104"/>
</g>
<!-- 10.247.84.9 -->
<g id="node8" class="node"><title>10.247.84.9</title>
<path fill="lightgrey" stroke="white" d="M608.5,-756C608.5,-756 544.5,-756 544.5,-756 538.5,-756 532.5,-750 532.5,-744 532.5,-744 532.5,-732 532.5,-732 532.5,-726 538.5,-720 544.5,-720 544.5,-720 608.5,-720 608.5,-720 614.5,-720 620.5,-726 620.5,-732 620.5,-732 620.5,-744 620.5,-744 620.5,-750 614.5,-756 608.5,-756"/>
<text text-anchor="middle" x="576.5" y="-734.3" font-family="Helvetica,sans-Serif" font-size="14.00">10.247.84.9</text>
</g>
<!-- 10.247.84.6&#45;&#45;10.247.84.9 -->
<g id="edge7" class="edge"><title>10.247.84.6&#45;&#45;10.247.84.9</title>
<path fill="none" stroke="black" d="M576.5,-791.697C576.5,-780.846 576.5,-766.917 576.5,-756.104"/>
</g>
<!-- 87.237.20.224 -->
<g id="node9" class="node"><title>87.237.20.224</title>
<path fill="lightgrey" stroke="white" d="M616,-684C616,-684 537,-684 537,-684 531,-684 525,-678 525,-672 525,-672 525,-660 525,-660 525,-654 531,-648 537,-648 537,-648 616,-648 616,-648 622,-648 628,-654 628,-660 628,-660 628,-672 628,-672 628,-678 622,-684 616,-684"/>
<text text-anchor="middle" x="576.5" y="-662.3" font-family="Helvetica,sans-Serif" font-size="14.00">87.237.20.224</text>
</g>
<!-- 10.247.84.9&#45;&#45;87.237.20.224 -->
<g id="edge8" class="edge"><title>10.247.84.9&#45;&#45;87.237.20.224</title>
<path fill="none" stroke="black" d="M576.5,-719.697C576.5,-708.846 576.5,-694.917 576.5,-684.104"/>
</g>
<!-- 87.237.20.73 -->
<g id="node10" class="node"><title>87.237.20.73</title>
<path fill="lightgrey" stroke="white" d="M612,-612C612,-612 541,-612 541,-612 535,-612 529,-606 529,-600 529,-600 529,-588 529,-588 529,-582 535,-576 541,-576 541,-576 612,-576 612,-576 618,-576 624,-582 624,-588 624,-588 624,-600 624,-600 624,-606 618,-612 612,-612"/>
<text text-anchor="middle" x="576.5" y="-590.3" font-family="Helvetica,sans-Serif" font-size="14.00">87.237.20.73</text>
</g>
<!-- 87.237.20.224&#45;&#45;87.237.20.73 -->
<g id="edge9" class="edge"><title>87.237.20.224&#45;&#45;87.237.20.73</title>
<path fill="none" stroke="black" d="M576.5,-647.697C576.5,-636.846 576.5,-622.917 576.5,-612.104"/>
</g>
<!-- 80.150.169.13 -->
<g id="node11" class="node"><title>80.150.169.13</title>
<path fill="lightgrey" stroke="white" d="M388,-540C388,-540 309,-540 309,-540 303,-540 297,-534 297,-528 297,-528 297,-516 297,-516 297,-510 303,-504 309,-504 309,-504 388,-504 388,-504 394,-504 400,-510 400,-516 400,-516 400,-528 400,-528 400,-534 394,-540 388,-540"/>
<text text-anchor="middle" x="348.5" y="-518.3" font-family="Helvetica,sans-Serif" font-size="14.00">80.150.169.13</text>
</g>
<!-- 87.237.20.73&#45;&#45;80.150.169.13 -->
<g id="edge10" class="edge"><title>87.237.20.73&#45;&#45;80.150.169.13</title>
<path fill="none" stroke="black" d="M528.981,-578.411C491.395,-566.871 438.988,-550.781 400.326,-538.911"/>
</g>
<!-- 216.58.213.99 google -->
<g id="node18" class="node"><title>216.58.213.99 google</title>
<path fill="green" stroke="white" d="M553,-540C553,-540 430,-540 430,-540 424,-540 418,-534 418,-528 418,-528 418,-516 418,-516 418,-510 424,-504 430,-504 430,-504 553,-504 553,-504 559,-504 565,-510 565,-516 565,-516 565,-528 565,-528 565,-534 559,-540 553,-540"/>
<text text-anchor="middle" x="491.5" y="-518.3" font-family="Helvetica,sans-Serif" font-size="14.00" fill="white">216.58.213.99 google</text>
</g>
<!-- 87.237.20.73&#45;&#45;216.58.213.99 google -->
<g id="edge19" class="edge"><title>87.237.20.73&#45;&#45;216.58.213.99 google</title>
<path fill="none" stroke="black" d="M555.489,-575.697C542.313,-564.846 525.399,-550.917 512.27,-540.104"/>
</g>
<!-- youtube.com # youtube -->
<g id="node19" class="node"><title>youtube.com # youtube</title>
<path fill="green" stroke="white" d="M729.5,-540C729.5,-540 595.5,-540 595.5,-540 589.5,-540 583.5,-534 583.5,-528 583.5,-528 583.5,-516 583.5,-516 583.5,-510 589.5,-504 595.5,-504 595.5,-504 729.5,-504 729.5,-504 735.5,-504 741.5,-510 741.5,-516 741.5,-516 741.5,-528 741.5,-528 741.5,-534 735.5,-540 729.5,-540"/>
<text text-anchor="middle" x="662.5" y="-518.3" font-family="Helvetica,sans-Serif" font-size="14.00" fill="white">youtube.com # youtube</text>
</g>
<!-- 87.237.20.73&#45;&#45;youtube.com # youtube -->
<g id="edge22" class="edge"><title>87.237.20.73&#45;&#45;youtube.com # youtube</title>
<path fill="none" stroke="black" d="M597.758,-575.697C611.089,-564.846 628.202,-550.917 641.486,-540.104"/>
</g>
<!-- 87.237.20.33 -->
<g id="node25" class="node"><title>87.237.20.33</title>
<path fill="lightgrey" stroke="white" d="M843,-540C843,-540 772,-540 772,-540 766,-540 760,-534 760,-528 760,-528 760,-516 760,-516 760,-510 766,-504 772,-504 772,-504 843,-504 843,-504 849,-504 855,-510 855,-516 855,-516 855,-528 855,-528 855,-534 849,-540 843,-540"/>
<text text-anchor="middle" x="807.5" y="-518.3" font-family="Helvetica,sans-Serif" font-size="14.00">87.237.20.33</text>
</g>
<!-- 87.237.20.73&#45;&#45;87.237.20.33 -->
<g id="edge26" class="edge"><title>87.237.20.73&#45;&#45;87.237.20.33</title>
<path fill="none" stroke="black" d="M624.083,-578.581C663.838,-566.534 720.241,-549.442 759.978,-537.4"/>
</g>
<!-- 80.150.170.106 -->
<g id="node12" class="node"><title>80.150.170.106</title>
<path fill="lightgrey" stroke="white" d="M391.5,-468C391.5,-468 305.5,-468 305.5,-468 299.5,-468 293.5,-462 293.5,-456 293.5,-456 293.5,-444 293.5,-444 293.5,-438 299.5,-432 305.5,-432 305.5,-432 391.5,-432 391.5,-432 397.5,-432 403.5,-438 403.5,-444 403.5,-444 403.5,-456 403.5,-456 403.5,-462 397.5,-468 391.5,-468"/>
<text text-anchor="middle" x="348.5" y="-446.3" font-family="Helvetica,sans-Serif" font-size="14.00">80.150.170.106</text>
</g>
<!-- 80.150.169.13&#45;&#45;80.150.170.106 -->
<g id="edge11" class="edge"><title>80.150.169.13&#45;&#45;80.150.170.106</title>
<path fill="none" stroke="black" d="M348.5,-503.697C348.5,-492.846 348.5,-478.917 348.5,-468.104"/>
</g>
<!-- ae&#45;3.r24.londen12.uk.bb.gin.ntt.net -->
<g id="node13" class="node"><title>ae&#45;3.r24.londen12.uk.bb.gin.ntt.net</title>
<path fill="lightgrey" stroke="white" d="M217.5,-396C217.5,-396 15.5,-396 15.5,-396 9.5,-396 3.5,-390 3.5,-384 3.5,-384 3.5,-372 3.5,-372 3.5,-366 9.5,-360 15.5,-360 15.5,-360 217.5,-360 217.5,-360 223.5,-360 229.5,-366 229.5,-372 229.5,-372 229.5,-384 229.5,-384 229.5,-390 223.5,-396 217.5,-396"/>
<text text-anchor="middle" x="116.5" y="-374.3" font-family="Helvetica,sans-Serif" font-size="14.00">ae&#45;3.r24.londen12.uk.bb.gin.ntt.net</text>
</g>
<!-- 80.150.170.106&#45;&#45;ae&#45;3.r24.londen12.uk.bb.gin.ntt.net -->
<g id="edge12" class="edge"><title>80.150.170.106&#45;&#45;ae&#45;3.r24.londen12.uk.bb.gin.ntt.net</title>
<path fill="none" stroke="black" d="M293.225,-432.322C256.904,-421.363 209.522,-407.067 172.963,-396.036"/>
</g>
<!-- ae&#45;25.r00.londen10.uk.bb.gin.ntt.net -->
<g id="node22" class="node"><title>ae&#45;25.r00.londen10.uk.bb.gin.ntt.net</title>
<path fill="lightgrey" stroke="white" d="M469,-396C469,-396 260,-396 260,-396 254,-396 248,-390 248,-384 248,-384 248,-372 248,-372 248,-366 254,-360 260,-360 260,-360 469,-360 469,-360 475,-360 481,-366 481,-372 481,-372 481,-384 481,-384 481,-390 475,-396 469,-396"/>
<text text-anchor="middle" x="364.5" y="-374.3" font-family="Helvetica,sans-Serif" font-size="14.00">ae&#45;25.r00.londen10.uk.bb.gin.ntt.net</text>
</g>
<!-- 80.150.170.106&#45;&#45;ae&#45;25.r00.londen10.uk.bb.gin.ntt.net -->
<g id="edge23" class="edge"><title>80.150.170.106&#45;&#45;ae&#45;25.r00.londen10.uk.bb.gin.ntt.net</title>
<path fill="none" stroke="black" d="M352.455,-431.697C354.935,-420.846 358.119,-406.917 360.59,-396.104"/>
</g>
<!-- ae&#45;5.r24.nycmny01.us.bb.gin.ntt.net -->
<g id="node14" class="node"><title>ae&#45;5.r24.nycmny01.us.bb.gin.ntt.net</title>
<path fill="lightgrey" stroke="white" d="M221,-324C221,-324 12,-324 12,-324 6,-324 1.42109e-14,-318 1.42109e-14,-312 1.42109e-14,-312 1.42109e-14,-300 1.42109e-14,-300 1.42109e-14,-294 6,-288 12,-288 12,-288 221,-288 221,-288 227,-288 233,-294 233,-300 233,-300 233,-312 233,-312 233,-318 227,-324 221,-324"/>
<text text-anchor="middle" x="116.5" y="-302.3" font-family="Helvetica,sans-Serif" font-size="14.00">ae&#45;5.r24.nycmny01.us.bb.gin.ntt.net</text>
</g>
<!-- ae&#45;3.r24.londen12.uk.bb.gin.ntt.net&#45;&#45;ae&#45;5.r24.nycmny01.us.bb.gin.ntt.net -->
<g id="edge13" class="edge"><title>ae&#45;3.r24.londen12.uk.bb.gin.ntt.net&#45;&#45;ae&#45;5.r24.nycmny01.us.bb.gin.ntt.net</title>
<path fill="none" stroke="black" d="M116.5,-359.697C116.5,-348.846 116.5,-334.917 116.5,-324.104"/>
</g>
<!-- ae&#45;5.r24.nycmny01.us.bb.gin.ntt.net&#45;&#45;ae&#45;5.r24.nycmny01.us.bb.gin.ntt.net -->
<g id="edge14" class="edge"><title>ae&#45;5.r24.nycmny01.us.bb.gin.ntt.net&#45;&#45;ae&#45;5.r24.nycmny01.us.bb.gin.ntt.net</title>
<path fill="none" stroke="black" d="M233.178,-316.823C244.103,-314.6 251,-310.992 251,-306 251,-301.008 244.103,-297.4 233.178,-295.177"/>
</g>
<!-- ae&#45;9.r22.asbnva02.us.bb.gin.ntt.net -->
<g id="node15" class="node"><title>ae&#45;9.r22.asbnva02.us.bb.gin.ntt.net</title>
<path fill="lightgrey" stroke="white" d="M219,-252C219,-252 14,-252 14,-252 8,-252 2,-246 2,-240 2,-240 2,-228 2,-228 2,-222 8,-216 14,-216 14,-216 219,-216 219,-216 225,-216 231,-222 231,-228 231,-228 231,-240 231,-240 231,-246 225,-252 219,-252"/>
<text text-anchor="middle" x="116.5" y="-230.3" font-family="Helvetica,sans-Serif" font-size="14.00">ae&#45;9.r22.asbnva02.us.bb.gin.ntt.net</text>
</g>
<!-- ae&#45;5.r24.nycmny01.us.bb.gin.ntt.net&#45;&#45;ae&#45;9.r22.asbnva02.us.bb.gin.ntt.net -->
<g id="edge15" class="edge"><title>ae&#45;5.r24.nycmny01.us.bb.gin.ntt.net&#45;&#45;ae&#45;9.r22.asbnva02.us.bb.gin.ntt.net</title>
<path fill="none" stroke="black" d="M116.5,-287.697C116.5,-276.846 116.5,-262.917 116.5,-252.104"/>
</g>
<!-- ae&#45;1.r05.asbnva02.us.bb.gin.ntt.net -->
<g id="node16" class="node"><title>ae&#45;1.r05.asbnva02.us.bb.gin.ntt.net</title>
<path fill="lightgrey" stroke="white" d="M219,-180C219,-180 14,-180 14,-180 8,-180 2,-174 2,-168 2,-168 2,-156 2,-156 2,-150 8,-144 14,-144 14,-144 219,-144 219,-144 225,-144 231,-150 231,-156 231,-156 231,-168 231,-168 231,-174 225,-180 219,-180"/>
<text text-anchor="middle" x="116.5" y="-158.3" font-family="Helvetica,sans-Serif" font-size="14.00">ae&#45;1.r05.asbnva02.us.bb.gin.ntt.net</text>
</g>
<!-- ae&#45;9.r22.asbnva02.us.bb.gin.ntt.net&#45;&#45;ae&#45;1.r05.asbnva02.us.bb.gin.ntt.net -->
<g id="edge16" class="edge"><title>ae&#45;9.r22.asbnva02.us.bb.gin.ntt.net&#45;&#45;ae&#45;1.r05.asbnva02.us.bb.gin.ntt.net</title>
<path fill="none" stroke="black" d="M116.5,-215.697C116.5,-204.846 116.5,-190.917 116.5,-180.104"/>
</g>
<!-- ae&#45;0.a03.asbnva02.us.bb.gin.ntt.net -->
<g id="node17" class="node"><title>ae&#45;0.a03.asbnva02.us.bb.gin.ntt.net</title>
<path fill="lightgrey" stroke="white" d="M220.5,-108C220.5,-108 12.5,-108 12.5,-108 6.5,-108 0.5,-102 0.5,-96 0.5,-96 0.5,-84 0.5,-84 0.5,-78 6.5,-72 12.5,-72 12.5,-72 220.5,-72 220.5,-72 226.5,-72 232.5,-78 232.5,-84 232.5,-84 232.5,-96 232.5,-96 232.5,-102 226.5,-108 220.5,-108"/>
<text text-anchor="middle" x="116.5" y="-86.3" font-family="Helvetica,sans-Serif" font-size="14.00">ae&#45;0.a03.asbnva02.us.bb.gin.ntt.net</text>
</g>
<!-- ae&#45;1.r05.asbnva02.us.bb.gin.ntt.net&#45;&#45;ae&#45;0.a03.asbnva02.us.bb.gin.ntt.net -->
<g id="edge17" class="edge"><title>ae&#45;1.r05.asbnva02.us.bb.gin.ntt.net&#45;&#45;ae&#45;0.a03.asbnva02.us.bb.gin.ntt.net</title>
<path fill="none" stroke="black" d="M116.5,-143.697C116.5,-132.846 116.5,-118.917 116.5,-108.104"/>
</g>
<!-- ae&#45;0.a03.asbnva02.us.bb.gin.ntt.net&#45;&#45;192.30.253.113 &#45;&#45; github -->
<g id="edge18" class="edge"><title>ae&#45;0.a03.asbnva02.us.bb.gin.ntt.net&#45;&#45;192.30.253.113 &#45;&#45; github</title>
<path fill="none" stroke="black" d="M116.5,-71.6966C116.5,-60.8463 116.5,-46.9167 116.5,-36.1043"/>
</g>
<!-- 10.248.28.153&#45;&#45;10.247.84.6 -->
<g id="edge21" class="edge"><title>10.248.28.153&#45;&#45;10.247.84.6</title>
<path fill="none" stroke="black" d="M622.421,-863.697C612.966,-852.846 600.827,-838.917 591.405,-828.104"/>
</g>
<!-- deanturpin.github.io -->
<g id="node21" class="node"><title>deanturpin.github.io</title>
<path fill="green" stroke="white" d="M420,-252C420,-252 309,-252 309,-252 303,-252 297,-246 297,-240 297,-240 297,-228 297,-228 297,-222 303,-216 309,-216 309,-216 420,-216 420,-216 426,-216 432,-222 432,-228 432,-228 432,-240 432,-240 432,-246 426,-252 420,-252"/>
<text text-anchor="middle" x="364.5" y="-230.3" font-family="Helvetica,sans-Serif" font-size="14.00" fill="white">deanturpin.github.io</text>
</g>
<!-- 151.101.17.147 -->
<g id="node23" class="node"><title>151.101.17.147</title>
<path fill="lightgrey" stroke="white" d="M407.5,-324C407.5,-324 321.5,-324 321.5,-324 315.5,-324 309.5,-318 309.5,-312 309.5,-312 309.5,-300 309.5,-300 309.5,-294 315.5,-288 321.5,-288 321.5,-288 407.5,-288 407.5,-288 413.5,-288 419.5,-294 419.5,-300 419.5,-300 419.5,-312 419.5,-312 419.5,-318 413.5,-324 407.5,-324"/>
<text text-anchor="middle" x="364.5" y="-302.3" font-family="Helvetica,sans-Serif" font-size="14.00">151.101.17.147</text>
</g>
<!-- ae&#45;25.r00.londen10.uk.bb.gin.ntt.net&#45;&#45;151.101.17.147 -->
<g id="edge24" class="edge"><title>ae&#45;25.r00.londen10.uk.bb.gin.ntt.net&#45;&#45;151.101.17.147</title>
<path fill="none" stroke="black" d="M364.5,-359.697C364.5,-348.846 364.5,-334.917 364.5,-324.104"/>
</g>
<!-- 151.101.17.147&#45;&#45;deanturpin.github.io -->
<g id="edge25" class="edge"><title>151.101.17.147&#45;&#45;deanturpin.github.io</title>
<path fill="none" stroke="black" d="M364.5,-287.697C364.5,-276.846 364.5,-262.917 364.5,-252.104"/>
</g>
<!-- thebunker.net -->
<g id="node24" class="node"><title>thebunker.net</title>
<path fill="green" stroke="white" d="M648,-252C648,-252 573,-252 573,-252 567,-252 561,-246 561,-240 561,-240 561,-228 561,-228 561,-222 567,-216 573,-216 573,-216 648,-216 648,-216 654,-216 660,-222 660,-228 660,-228 660,-240 660,-240 660,-246 654,-252 648,-252"/>
<text text-anchor="middle" x="610.5" y="-230.3" font-family="Helvetica,sans-Serif" font-size="14.00" fill="white">thebunker.net</text>
</g>
<!-- linx1.orbital.net -->
<g id="node26" class="node"><title>linx1.orbital.net</title>
<path fill="lightgrey" stroke="white" d="M785,-468C785,-468 702,-468 702,-468 696,-468 690,-462 690,-456 690,-456 690,-444 690,-444 690,-438 696,-432 702,-432 702,-432 785,-432 785,-432 791,-432 797,-438 797,-444 797,-444 797,-456 797,-456 797,-462 791,-468 785,-468"/>
<text text-anchor="middle" x="743.5" y="-446.3" font-family="Helvetica,sans-Serif" font-size="14.00">linx1.orbital.net</text>
</g>
<!-- 87.237.20.33&#45;&#45;linx1.orbital.net -->
<g id="edge27" class="edge"><title>87.237.20.33&#45;&#45;linx1.orbital.net</title>
<path fill="none" stroke="black" d="M791.68,-503.697C781.759,-492.846 769.024,-478.917 759.138,-468.104"/>
</g>
<!-- 195.66.225.215 -->
<g id="node33" class="node"><title>195.66.225.215</title>
<path fill="lightgrey" stroke="white" d="M1008.5,-468C1008.5,-468 922.5,-468 922.5,-468 916.5,-468 910.5,-462 910.5,-456 910.5,-456 910.5,-444 910.5,-444 910.5,-438 916.5,-432 922.5,-432 922.5,-432 1008.5,-432 1008.5,-432 1014.5,-432 1020.5,-438 1020.5,-444 1020.5,-444 1020.5,-456 1020.5,-456 1020.5,-462 1014.5,-468 1008.5,-468"/>
<text text-anchor="middle" x="965.5" y="-446.3" font-family="Helvetica,sans-Serif" font-size="14.00">195.66.225.215</text>
</g>
<!-- 87.237.20.33&#45;&#45;195.66.225.215 -->
<g id="edge34" class="edge"><title>87.237.20.33&#45;&#45;195.66.225.215</title>
<path fill="none" stroke="black" d="M846.151,-503.876C870.727,-492.988 902.423,-478.945 926.974,-468.068"/>
</g>
<!-- xe2&#45;2&#45;ve&#45;83.thn&#45;pe&#45;2.thn.thebunker.net.202.88.80.in&#45;addr.arpa -->
<g id="node27" class="node"><title>xe2&#45;2&#45;ve&#45;83.thn&#45;pe&#45;2.thn.thebunker.net.202.88.80.in&#45;addr.arpa</title>
<path fill="lightgrey" stroke="white" d="M895.5,-396C895.5,-396 527.5,-396 527.5,-396 521.5,-396 515.5,-390 515.5,-384 515.5,-384 515.5,-372 515.5,-372 515.5,-366 521.5,-360 527.5,-360 527.5,-360 895.5,-360 895.5,-360 901.5,-360 907.5,-366 907.5,-372 907.5,-372 907.5,-384 907.5,-384 907.5,-390 901.5,-396 895.5,-396"/>
<text text-anchor="middle" x="711.5" y="-374.3" font-family="Helvetica,sans-Serif" font-size="14.00">xe2&#45;2&#45;ve&#45;83.thn&#45;pe&#45;2.thn.thebunker.net.202.88.80.in&#45;addr.arpa</text>
</g>
<!-- linx1.orbital.net&#45;&#45;xe2&#45;2&#45;ve&#45;83.thn&#45;pe&#45;2.thn.thebunker.net.202.88.80.in&#45;addr.arpa -->
<g id="edge28" class="edge"><title>linx1.orbital.net&#45;&#45;xe2&#45;2&#45;ve&#45;83.thn&#45;pe&#45;2.thn.thebunker.net.202.88.80.in&#45;addr.arpa</title>
<path fill="none" stroke="black" d="M735.59,-431.697C730.63,-420.846 724.262,-406.917 719.319,-396.104"/>
</g>
<!-- ash&#45;gslb&#45;1&#45;gw.eth1&#45;36.ash&#45;pe&#45;2.thebunker.net -->
<g id="node28" class="node"><title>ash&#45;gslb&#45;1&#45;gw.eth1&#45;36.ash&#45;pe&#45;2.thebunker.net</title>
<path fill="lightgrey" stroke="white" d="M745.5,-324C745.5,-324 475.5,-324 475.5,-324 469.5,-324 463.5,-318 463.5,-312 463.5,-312 463.5,-300 463.5,-300 463.5,-294 469.5,-288 475.5,-288 475.5,-288 745.5,-288 745.5,-288 751.5,-288 757.5,-294 757.5,-300 757.5,-300 757.5,-312 757.5,-312 757.5,-318 751.5,-324 745.5,-324"/>
<text text-anchor="middle" x="610.5" y="-302.3" font-family="Helvetica,sans-Serif" font-size="14.00">ash&#45;gslb&#45;1&#45;gw.eth1&#45;36.ash&#45;pe&#45;2.thebunker.net</text>
</g>
<!-- xe2&#45;2&#45;ve&#45;83.thn&#45;pe&#45;2.thn.thebunker.net.202.88.80.in&#45;addr.arpa&#45;&#45;ash&#45;gslb&#45;1&#45;gw.eth1&#45;36.ash&#45;pe&#45;2.thebunker.net -->
<g id="edge29" class="edge"><title>xe2&#45;2&#45;ve&#45;83.thn&#45;pe&#45;2.thn.thebunker.net.202.88.80.in&#45;addr.arpa&#45;&#45;ash&#45;gslb&#45;1&#45;gw.eth1&#45;36.ash&#45;pe&#45;2.thebunker.net</title>
<path fill="none" stroke="black" d="M686.793,-359.876C671.141,-349.029 650.972,-335.05 635.302,-324.19"/>
</g>
<!-- 213.129.70.253 -->
<g id="node30" class="node"><title>213.129.70.253</title>
<path fill="lightgrey" stroke="white" d="M873.5,-324C873.5,-324 787.5,-324 787.5,-324 781.5,-324 775.5,-318 775.5,-312 775.5,-312 775.5,-300 775.5,-300 775.5,-294 781.5,-288 787.5,-288 787.5,-288 873.5,-288 873.5,-288 879.5,-288 885.5,-294 885.5,-300 885.5,-300 885.5,-312 885.5,-312 885.5,-318 879.5,-324 873.5,-324"/>
<text text-anchor="middle" x="830.5" y="-302.3" font-family="Helvetica,sans-Serif" font-size="14.00">213.129.70.253</text>
</g>
<!-- xe2&#45;2&#45;ve&#45;83.thn&#45;pe&#45;2.thn.thebunker.net.202.88.80.in&#45;addr.arpa&#45;&#45;213.129.70.253 -->
<g id="edge31" class="edge"><title>xe2&#45;2&#45;ve&#45;83.thn&#45;pe&#45;2.thn.thebunker.net.202.88.80.in&#45;addr.arpa&#45;&#45;213.129.70.253</title>
<path fill="none" stroke="black" d="M740.611,-359.876C759.051,-349.029 782.815,-335.05 801.277,-324.19"/>
</g>
<!-- ash&#45;gslb&#45;1&#45;gw.eth1&#45;36.ash&#45;pe&#45;2.thebunker.net&#45;&#45;thebunker.net -->
<g id="edge30" class="edge"><title>ash&#45;gslb&#45;1&#45;gw.eth1&#45;36.ash&#45;pe&#45;2.thebunker.net&#45;&#45;thebunker.net</title>
<path fill="none" stroke="black" d="M610.5,-287.697C610.5,-276.846 610.5,-262.917 610.5,-252.104"/>
</g>
<!-- infinityfoods.coop -->
<g id="node29" class="node"><title>infinityfoods.coop</title>
<path fill="green" stroke="white" d="M879,-180C879,-180 782,-180 782,-180 776,-180 770,-174 770,-168 770,-168 770,-156 770,-156 770,-150 776,-144 782,-144 782,-144 879,-144 879,-144 885,-144 891,-150 891,-156 891,-156 891,-168 891,-168 891,-174 885,-180 879,-180"/>
<text text-anchor="middle" x="830.5" y="-158.3" font-family="Helvetica,sans-Serif" font-size="14.00" fill="white">infinityfoods.coop</text>
</g>
<!-- 213.129.70.237 -->
<g id="node31" class="node"><title>213.129.70.237</title>
<path fill="lightgrey" stroke="white" d="M873.5,-252C873.5,-252 787.5,-252 787.5,-252 781.5,-252 775.5,-246 775.5,-240 775.5,-240 775.5,-228 775.5,-228 775.5,-222 781.5,-216 787.5,-216 787.5,-216 873.5,-216 873.5,-216 879.5,-216 885.5,-222 885.5,-228 885.5,-228 885.5,-240 885.5,-240 885.5,-246 879.5,-252 873.5,-252"/>
<text text-anchor="middle" x="830.5" y="-230.3" font-family="Helvetica,sans-Serif" font-size="14.00">213.129.70.237</text>
</g>
<!-- 213.129.70.253&#45;&#45;213.129.70.237 -->
<g id="edge32" class="edge"><title>213.129.70.253&#45;&#45;213.129.70.237</title>
<path fill="none" stroke="black" d="M830.5,-287.697C830.5,-276.846 830.5,-262.917 830.5,-252.104"/>
</g>
<!-- 213.129.70.237&#45;&#45;infinityfoods.coop -->
<g id="edge33" class="edge"><title>213.129.70.237&#45;&#45;infinityfoods.coop</title>
<path fill="none" stroke="black" d="M830.5,-215.697C830.5,-204.846 830.5,-190.917 830.5,-180.104"/>
</g>
<!-- silobrighton.com # zero waste -->
<g id="node32" class="node"><title>silobrighton.com # zero waste</title>
<path fill="red" stroke="white" d="M1114.5,-252C1114.5,-252 942.5,-252 942.5,-252 936.5,-252 930.5,-246 930.5,-240 930.5,-240 930.5,-228 930.5,-228 930.5,-222 936.5,-216 942.5,-216 942.5,-216 1114.5,-216 1114.5,-216 1120.5,-216 1126.5,-222 1126.5,-228 1126.5,-228 1126.5,-240 1126.5,-240 1126.5,-246 1120.5,-252 1114.5,-252"/>
<text text-anchor="middle" x="1028.5" y="-230.3" font-family="Helvetica,sans-Serif" font-size="14.00" fill="white">silobrighton.com # zero waste</text>
</g>
<!-- 4d&#45;lgw&#45;bbr&#45;2&#45;0002&#45;6.4d&#45;dc.com -->
<g id="node34" class="node"><title>4d&#45;lgw&#45;bbr&#45;2&#45;0002&#45;6.4d&#45;dc.com</title>
<path fill="lightgrey" stroke="white" d="M1119.5,-396C1119.5,-396 937.5,-396 937.5,-396 931.5,-396 925.5,-390 925.5,-384 925.5,-384 925.5,-372 925.5,-372 925.5,-366 931.5,-360 937.5,-360 937.5,-360 1119.5,-360 1119.5,-360 1125.5,-360 1131.5,-366 1131.5,-372 1131.5,-372 1131.5,-384 1131.5,-384 1131.5,-390 1125.5,-396 1119.5,-396"/>
<text text-anchor="middle" x="1028.5" y="-374.3" font-family="Helvetica,sans-Serif" font-size="14.00">4d&#45;lgw&#45;bbr&#45;2&#45;0002&#45;6.4d&#45;dc.com</text>
</g>
<!-- 195.66.225.215&#45;&#45;4d&#45;lgw&#45;bbr&#45;2&#45;0002&#45;6.4d&#45;dc.com -->
<g id="edge35" class="edge"><title>195.66.225.215&#45;&#45;4d&#45;lgw&#45;bbr&#45;2&#45;0002&#45;6.4d&#45;dc.com</title>
<path fill="none" stroke="black" d="M981.073,-431.697C990.838,-420.846 1003.37,-406.917 1013.11,-396.104"/>
</g>
<!-- 4d&#45;lgw&#45;men&#45;2&#45;024.4d&#45;dc.com -->
<g id="node35" class="node"><title>4d&#45;lgw&#45;men&#45;2&#45;024.4d&#45;dc.com</title>
<path fill="lightgrey" stroke="white" d="M1113.5,-324C1113.5,-324 943.5,-324 943.5,-324 937.5,-324 931.5,-318 931.5,-312 931.5,-312 931.5,-300 931.5,-300 931.5,-294 937.5,-288 943.5,-288 943.5,-288 1113.5,-288 1113.5,-288 1119.5,-288 1125.5,-294 1125.5,-300 1125.5,-300 1125.5,-312 1125.5,-312 1125.5,-318 1119.5,-324 1113.5,-324"/>
<text text-anchor="middle" x="1028.5" y="-302.3" font-family="Helvetica,sans-Serif" font-size="14.00">4d&#45;lgw&#45;men&#45;2&#45;024.4d&#45;dc.com</text>
</g>
<!-- 4d&#45;lgw&#45;bbr&#45;2&#45;0002&#45;6.4d&#45;dc.com&#45;&#45;4d&#45;lgw&#45;men&#45;2&#45;024.4d&#45;dc.com -->
<g id="edge36" class="edge"><title>4d&#45;lgw&#45;bbr&#45;2&#45;0002&#45;6.4d&#45;dc.com&#45;&#45;4d&#45;lgw&#45;men&#45;2&#45;024.4d&#45;dc.com</title>
<path fill="none" stroke="black" d="M1028.5,-359.697C1028.5,-348.846 1028.5,-334.917 1028.5,-324.104"/>
</g>
<!-- 4d&#45;lgw&#45;men&#45;2&#45;024.4d&#45;dc.com&#45;&#45;silobrighton.com # zero waste -->
<g id="edge37" class="edge"><title>4d&#45;lgw&#45;men&#45;2&#45;024.4d&#45;dc.com&#45;&#45;silobrighton.com # zero waste</title>
<path fill="none" stroke="black" d="M1028.5,-287.697C1028.5,-276.846 1028.5,-262.917 1028.5,-252.104"/>
</g>
</g>
</svg>
