<?xml version="1.0" encoding="UTF-8" standalone="no"?>
<!DOCTYPE svg PUBLIC "-//W3C//DTD SVG 1.1//EN"
 "http://www.w3.org/Graphics/SVG/1.1/DTD/svg11.dtd">
<!-- Generated by graphviz version 2.40.1 (20161225.0304)
 -->
<!-- Title: %3 Pages: 1 -->
<svg width="3523pt" height="1075pt"
 viewBox="0.00 0.00 3523.00 1075.00" xmlns="http://www.w3.org/2000/svg" xmlns:xlink="http://www.w3.org/1999/xlink">
<g id="graph0" class="graph" transform="scale(1 1) rotate(0) translate(4 1071)">
<title>%3</title>
<polygon fill="#ffffff" stroke="transparent" points="-4,4 -4,-1071 3519,-1071 3519,4 -4,4"/>
<text text-anchor="middle" x="148.5" y="-1051.8" font-family="Helvetica,sans-Serif" font-size="14.00" fill="#000000">./hosts2dot.sh &#45; Sun &#160;7 Oct 12:16:18 BST 2018</text>
<!-- soy_yo -->
<g id="node1" class="node">
<title>soy_yo</title>
<path fill="#d3d3d3" stroke="#ffffff" d="M1963,-1044C1963,-1044 1933,-1044 1933,-1044 1927,-1044 1921,-1038 1921,-1032 1921,-1032 1921,-1020 1921,-1020 1921,-1014 1927,-1008 1933,-1008 1933,-1008 1963,-1008 1963,-1008 1969,-1008 1975,-1014 1975,-1020 1975,-1020 1975,-1032 1975,-1032 1975,-1038 1969,-1044 1963,-1044"/>
<text text-anchor="middle" x="1948" y="-1022.3" font-family="Helvetica,sans-Serif" font-size="14.00" fill="#000000">ken</text>
</g>
<!-- localhost -->
<g id="node3" class="node">
<title>localhost</title>
<path fill="#d3d3d3" stroke="#ffffff" d="M1715,-972C1715,-972 1669,-972 1669,-972 1663,-972 1657,-966 1657,-960 1657,-960 1657,-948 1657,-948 1657,-942 1663,-936 1669,-936 1669,-936 1715,-936 1715,-936 1721,-936 1727,-942 1727,-948 1727,-948 1727,-960 1727,-960 1727,-966 1721,-972 1715,-972"/>
<text text-anchor="middle" x="1692" y="-950.3" font-family="Helvetica,sans-Serif" font-size="14.00" fill="#000000">localhost</text>
</g>
<!-- soy_yo&#45;&#45;localhost -->
<g id="edge1" class="edge">
<title>soy_yo&#45;&#45;localhost</title>
<path fill="none" stroke="#000000" d="M1920.6035,-1018.2947C1873.9105,-1005.1623 1778.967,-978.4595 1727.3437,-963.9404"/>
</g>
<!-- SkyRouter.Home -->
<g id="node5" class="node">
<title>SkyRouter.Home</title>
<path fill="#d3d3d3" stroke="#ffffff" d="M1911,-972C1911,-972 1815,-972 1815,-972 1809,-972 1803,-966 1803,-960 1803,-960 1803,-948 1803,-948 1803,-942 1809,-936 1815,-936 1815,-936 1911,-936 1911,-936 1917,-936 1923,-942 1923,-948 1923,-948 1923,-960 1923,-960 1923,-966 1917,-972 1911,-972"/>
<text text-anchor="middle" x="1863" y="-950.3" font-family="Helvetica,sans-Serif" font-size="14.00" fill="#000000">SkyRouter.Home</text>
</g>
<!-- soy_yo&#45;&#45;SkyRouter.Home -->
<g id="edge3" class="edge">
<title>soy_yo&#45;&#45;SkyRouter.Home</title>
<path fill="none" stroke="#000000" d="M1926.5509,-1007.8314C1913.6656,-996.9167 1897.3264,-983.0764 1884.4422,-972.1628"/>
</g>
<!-- 2a02:c7f:700c:bd00::1 -->
<g id="node22" class="node">
<title>2a02:c7f:700c:bd00::1</title>
<path fill="#d3d3d3" stroke="#ffffff" d="M2117,-972C2117,-972 1991,-972 1991,-972 1985,-972 1979,-966 1979,-960 1979,-960 1979,-948 1979,-948 1979,-942 1985,-936 1991,-936 1991,-936 2117,-936 2117,-936 2123,-936 2129,-942 2129,-948 2129,-948 2129,-960 2129,-960 2129,-966 2123,-972 2117,-972"/>
<text text-anchor="middle" x="2054" y="-950.3" font-family="Helvetica,sans-Serif" font-size="14.00" fill="#000000">2a02:c7f:700c:bd00::1</text>
</g>
<!-- soy_yo&#45;&#45;2a02:c7f:700c:bd00::1 -->
<g id="edge21" class="edge">
<title>soy_yo&#45;&#45;2a02:c7f:700c:bd00::1</title>
<path fill="none" stroke="#000000" d="M1974.7483,-1007.8314C1990.8171,-996.9167 2011.193,-983.0764 2027.2603,-972.1628"/>
</g>
<g id="node98" class="node">
<title></title>
<path fill="#ff0000" stroke="#ffffff" d="M2207,-972C2207,-972 2177,-972 2177,-972 2171,-972 2165,-966 2165,-960 2165,-960 2165,-948 2165,-948 2165,-942 2171,-936 2177,-936 2177,-936 2207,-936 2207,-936 2213,-936 2219,-942 2219,-948 2219,-948 2219,-960 2219,-960 2219,-966 2213,-972 2207,-972"/>
</g>
<!-- soy_yo&#45;&#45; -->
<g id="edge103" class="edge">
<title>soy_yo&#45;&#45;</title>
<path fill="none" stroke="#000000" d="M1975.151,-1020.8506C2015.4049,-1012.7943 2092.9477,-995.6487 2156,-972 2158.8788,-970.9203 2161.8314,-969.68 2164.7476,-968.3662"/>
</g>
<!-- 127.0.0.1 localhost # for local people -->
<g id="node2" class="node">
<title>127.0.0.1 localhost # for local people</title>
<path fill="#00ff00" stroke="#ffffff" d="M1730,-900C1730,-900 1518,-900 1518,-900 1512,-900 1506,-894 1506,-888 1506,-888 1506,-876 1506,-876 1506,-870 1512,-864 1518,-864 1518,-864 1730,-864 1730,-864 1736,-864 1742,-870 1742,-876 1742,-876 1742,-888 1742,-888 1742,-894 1736,-900 1730,-900"/>
<text text-anchor="middle" x="1624" y="-878.3" font-family="Helvetica,sans-Serif" font-size="14.00" fill="#ffffff">127.0.0.1 localhost # for local people</text>
</g>
<!-- localhost&#45;&#45;127.0.0.1 localhost # for local people -->
<g id="edge2" class="edge">
<title>localhost&#45;&#45;127.0.0.1 localhost # for local people</title>
<path fill="none" stroke="#000000" d="M1674.8407,-935.8314C1664.6111,-925 1651.6605,-911.2876 1641.3903,-900.4133"/>
</g>
<!-- 192.30.253.113 &#45;&#45; github -->
<g id="node4" class="node">
<title>192.30.253.113 &#45;&#45; github</title>
<path fill="#00ff00" stroke="#ffffff" d="M199,-756C199,-756 59,-756 59,-756 53,-756 47,-750 47,-744 47,-744 47,-732 47,-732 47,-726 53,-720 59,-720 59,-720 199,-720 199,-720 205,-720 211,-726 211,-732 211,-732 211,-744 211,-744 211,-750 205,-756 199,-756"/>
<text text-anchor="middle" x="129" y="-734.3" font-family="Helvetica,sans-Serif" font-size="14.00" fill="#ffffff">192.30.253.113 &#45;&#45; github</text>
</g>
<!-- SkyRouter.Home&#45;&#45;SkyRouter.Home -->
<g id="edge4" class="edge">
<title>SkyRouter.Home&#45;&#45;SkyRouter.Home</title>
<path fill="none" stroke="#000000" d="M1923.1758,-966.6563C1933.6875,-964.9688 1941,-960.75 1941,-954 1941,-947.25 1933.6875,-943.0313 1923.1758,-941.3438"/>
</g>
<!-- be331.pr2.bllon.isp.sky.com -->
<g id="node6" class="node">
<title>be331.pr2.bllon.isp.sky.com</title>
<path fill="#d3d3d3" stroke="#ffffff" d="M1933.5,-900C1933.5,-900 1772.5,-900 1772.5,-900 1766.5,-900 1760.5,-894 1760.5,-888 1760.5,-888 1760.5,-876 1760.5,-876 1760.5,-870 1766.5,-864 1772.5,-864 1772.5,-864 1933.5,-864 1933.5,-864 1939.5,-864 1945.5,-870 1945.5,-876 1945.5,-876 1945.5,-888 1945.5,-888 1945.5,-894 1939.5,-900 1933.5,-900"/>
<text text-anchor="middle" x="1853" y="-878.3" font-family="Helvetica,sans-Serif" font-size="14.00" fill="#000000">be331.pr2.bllon.isp.sky.com</text>
</g>
<!-- SkyRouter.Home&#45;&#45;be331.pr2.bllon.isp.sky.com -->
<g id="edge5" class="edge">
<title>SkyRouter.Home&#45;&#45;be331.pr2.bllon.isp.sky.com</title>
<path fill="none" stroke="#000000" d="M1860.4766,-935.8314C1858.9722,-925 1857.0677,-911.2876 1855.5574,-900.4133"/>
</g>
<!-- ae&#45;2&#45;4.bear2.Washington111.Level3.net -->
<g id="node7" class="node">
<title>ae&#45;2&#45;4.bear2.Washington111.Level3.net</title>
<path fill="#d3d3d3" stroke="#ffffff" d="M246,-828C246,-828 12,-828 12,-828 6,-828 0,-822 0,-816 0,-816 0,-804 0,-804 0,-798 6,-792 12,-792 12,-792 246,-792 246,-792 252,-792 258,-798 258,-804 258,-804 258,-816 258,-816 258,-822 252,-828 246,-828"/>
<text text-anchor="middle" x="129" y="-806.3" font-family="Helvetica,sans-Serif" font-size="14.00" fill="#000000">ae&#45;2&#45;4.bear2.Washington111.Level3.net</text>
</g>
<!-- be331.pr2.bllon.isp.sky.com&#45;&#45;ae&#45;2&#45;4.bear2.Washington111.Level3.net -->
<g id="edge6" class="edge">
<title>be331.pr2.bllon.isp.sky.com&#45;&#45;ae&#45;2&#45;4.bear2.Washington111.Level3.net</title>
<path fill="none" stroke="#000000" d="M1760.2434,-865.0213C1757.1295,-864.6462 1754.0418,-864.3036 1751,-864 1094.5111,-798.4874 924.7958,-878.7362 267,-828 264.1092,-827.777 261.1863,-827.5354 258.2404,-827.2774"/>
</g>
<!-- deanturpin.github.io # My top level GitHub Page -->
<g id="node8" class="node">
<title>deanturpin.github.io # My top level GitHub Page</title>
<path fill="#00ff00" stroke="#ffffff" d="M569.5,-828C569.5,-828 288.5,-828 288.5,-828 282.5,-828 276.5,-822 276.5,-816 276.5,-816 276.5,-804 276.5,-804 276.5,-798 282.5,-792 288.5,-792 288.5,-792 569.5,-792 569.5,-792 575.5,-792 581.5,-798 581.5,-804 581.5,-804 581.5,-816 581.5,-816 581.5,-822 575.5,-828 569.5,-828"/>
<text text-anchor="middle" x="429" y="-806.3" font-family="Helvetica,sans-Serif" font-size="14.00" fill="#ffffff">deanturpin.github.io # My top level GitHub Page</text>
</g>
<!-- be331.pr2.bllon.isp.sky.com&#45;&#45;deanturpin.github.io # My top level GitHub Page -->
<g id="edge8" class="edge">
<title>be331.pr2.bllon.isp.sky.com&#45;&#45;deanturpin.github.io # My top level GitHub Page</title>
<path fill="none" stroke="#000000" d="M1760.2407,-865.0482C1757.1275,-864.6654 1754.0408,-864.3138 1751,-864 1237.9219,-811.0439 1105.5101,-864.5094 591,-828 587.895,-827.7797 584.7578,-827.545 581.5968,-827.2978"/>
</g>
<!-- 027ff191.bb.sky.com -->
<g id="node10" class="node">
<title>027ff191.bb.sky.com</title>
<path fill="#d3d3d3" stroke="#ffffff" d="M730,-828C730,-828 612,-828 612,-828 606,-828 600,-822 600,-816 600,-816 600,-804 600,-804 600,-798 606,-792 612,-792 612,-792 730,-792 730,-792 736,-792 742,-798 742,-804 742,-804 742,-816 742,-816 742,-822 736,-828 730,-828"/>
<text text-anchor="middle" x="671" y="-806.3" font-family="Helvetica,sans-Serif" font-size="14.00" fill="#000000">027ff191.bb.sky.com</text>
</g>
<!-- be331.pr2.bllon.isp.sky.com&#45;&#45;027ff191.bb.sky.com -->
<g id="edge9" class="edge">
<title>be331.pr2.bllon.isp.sky.com&#45;&#45;027ff191.bb.sky.com</title>
<path fill="none" stroke="#000000" d="M1760.2386,-865.0679C1757.126,-864.6795 1754.04,-864.3214 1751,-864 1308.7323,-817.2436 1192.0571,-885.0569 751,-828 748.1763,-827.6347 745.3055,-827.2166 742.4123,-826.7563"/>
</g>
<!-- 72.14.203.194 -->
<g id="node19" class="node">
<title>72.14.203.194</title>
<path fill="#d3d3d3" stroke="#ffffff" d="M2244.5,-756C2244.5,-756 2165.5,-756 2165.5,-756 2159.5,-756 2153.5,-750 2153.5,-744 2153.5,-744 2153.5,-732 2153.5,-732 2153.5,-726 2159.5,-720 2165.5,-720 2165.5,-720 2244.5,-720 2244.5,-720 2250.5,-720 2256.5,-726 2256.5,-732 2256.5,-732 2256.5,-744 2256.5,-744 2256.5,-750 2250.5,-756 2244.5,-756"/>
<text text-anchor="middle" x="2205" y="-734.3" font-family="Helvetica,sans-Serif" font-size="14.00" fill="#000000">72.14.203.194</text>
</g>
<!-- be331.pr2.bllon.isp.sky.com&#45;&#45;72.14.203.194 -->
<g id="edge18" class="edge">
<title>be331.pr2.bllon.isp.sky.com&#45;&#45;72.14.203.194</title>
<path fill="none" stroke="#000000" d="M1945.5142,-865.3313C1948.7121,-864.8644 1951.8811,-864.4188 1955,-864 1998.0208,-858.2234 2314.7551,-860.0764 2344,-828 2376.056,-792.8404 2308.5706,-765.5263 2256.8502,-750.6084"/>
</g>
<!-- 4d&#45;dc&#45;gw&#45;b.lonap.net -->
<g id="node24" class="node">
<title>4d&#45;dc&#45;gw&#45;b.lonap.net</title>
<path fill="#d3d3d3" stroke="#ffffff" d="M891.5,-828C891.5,-828 772.5,-828 772.5,-828 766.5,-828 760.5,-822 760.5,-816 760.5,-816 760.5,-804 760.5,-804 760.5,-798 766.5,-792 772.5,-792 772.5,-792 891.5,-792 891.5,-792 897.5,-792 903.5,-798 903.5,-804 903.5,-804 903.5,-816 903.5,-816 903.5,-822 897.5,-828 891.5,-828"/>
<text text-anchor="middle" x="832" y="-806.3" font-family="Helvetica,sans-Serif" font-size="14.00" fill="#000000">4d&#45;dc&#45;gw&#45;b.lonap.net</text>
</g>
<!-- be331.pr2.bllon.isp.sky.com&#45;&#45;4d&#45;dc&#45;gw&#45;b.lonap.net -->
<g id="edge24" class="edge">
<title>be331.pr2.bllon.isp.sky.com&#45;&#45;4d&#45;dc&#45;gw&#45;b.lonap.net</title>
<path fill="none" stroke="#000000" d="M1760.2356,-865.0956C1757.1239,-864.6992 1754.0389,-864.3319 1751,-864 1380.4164,-823.5197 1282.6035,-876.6221 913,-828 910.0007,-827.6054 906.9484,-827.1545 903.872,-826.659"/>
</g>
<!-- hisbe.co.uk # Zero packaging -->
<g id="node27" class="node">
<title>hisbe.co.uk # Zero packaging</title>
<path fill="#00ff00" stroke="#ffffff" d="M1347.5,-828C1347.5,-828 1178.5,-828 1178.5,-828 1172.5,-828 1166.5,-822 1166.5,-816 1166.5,-816 1166.5,-804 1166.5,-804 1166.5,-798 1172.5,-792 1178.5,-792 1178.5,-792 1347.5,-792 1347.5,-792 1353.5,-792 1359.5,-798 1359.5,-804 1359.5,-804 1359.5,-816 1359.5,-816 1359.5,-822 1353.5,-828 1347.5,-828"/>
<text text-anchor="middle" x="1263" y="-806.3" font-family="Helvetica,sans-Serif" font-size="14.00" fill="#ffffff">hisbe.co.uk # Zero packaging</text>
</g>
<!-- be331.pr2.bllon.isp.sky.com&#45;&#45;hisbe.co.uk # Zero packaging -->
<g id="edge29" class="edge">
<title>be331.pr2.bllon.isp.sky.com&#45;&#45;hisbe.co.uk # Zero packaging</title>
<path fill="none" stroke="#000000" d="M1760.4849,-865.3381C1757.2873,-864.8693 1754.1185,-864.4214 1751,-864 1582.0059,-841.1636 1538.067,-850.29 1369,-828 1365.9465,-827.5974 1362.8463,-827.172 1359.718,-826.7282"/>
</g>
<!-- ae0&#45;406.lon10.core&#45;backbone.com -->
<g id="node29" class="node">
<title>ae0&#45;406.lon10.core&#45;backbone.com</title>
<path fill="#d3d3d3" stroke="#ffffff" d="M1136,-828C1136,-828 934,-828 934,-828 928,-828 922,-822 922,-816 922,-816 922,-804 922,-804 922,-798 928,-792 934,-792 934,-792 1136,-792 1136,-792 1142,-792 1148,-798 1148,-804 1148,-804 1148,-816 1148,-816 1148,-822 1142,-828 1136,-828"/>
<text text-anchor="middle" x="1035" y="-806.3" font-family="Helvetica,sans-Serif" font-size="14.00" fill="#000000">ae0&#45;406.lon10.core&#45;backbone.com</text>
</g>
<!-- be331.pr2.bllon.isp.sky.com&#45;&#45;ae0&#45;406.lon10.core&#45;backbone.com -->
<g id="edge30" class="edge">
<title>be331.pr2.bllon.isp.sky.com&#45;&#45;ae0&#45;406.lon10.core&#45;backbone.com</title>
<path fill="none" stroke="#000000" d="M1760.2277,-865.1654C1757.1182,-864.7491 1754.0358,-864.3587 1751,-864 1488.3424,-832.9677 1420.0688,-855.3274 1157,-828 1154.1251,-827.7014 1151.2142,-827.3842 1148.279,-827.0512"/>
</g>
<!-- ae3.cr11&#45;lon1.ip4.gtt.net -->
<g id="node37" class="node">
<title>ae3.cr11&#45;lon1.ip4.gtt.net</title>
<path fill="#d3d3d3" stroke="#ffffff" d="M1528,-828C1528,-828 1390,-828 1390,-828 1384,-828 1378,-822 1378,-816 1378,-816 1378,-804 1378,-804 1378,-798 1384,-792 1390,-792 1390,-792 1528,-792 1528,-792 1534,-792 1540,-798 1540,-804 1540,-804 1540,-816 1540,-816 1540,-822 1534,-828 1528,-828"/>
<text text-anchor="middle" x="1459" y="-806.3" font-family="Helvetica,sans-Serif" font-size="14.00" fill="#000000">ae3.cr11&#45;lon1.ip4.gtt.net</text>
</g>
<!-- be331.pr2.bllon.isp.sky.com&#45;&#45;ae3.cr11&#45;lon1.ip4.gtt.net -->
<g id="edge38" class="edge">
<title>be331.pr2.bllon.isp.sky.com&#45;&#45;ae3.cr11&#45;lon1.ip4.gtt.net</title>
<path fill="none" stroke="#000000" d="M1760.2664,-865.6318C1678.6314,-851.2054 1569.6085,-831.8907 1549,-828 1546.1816,-827.4679 1543.3146,-826.9216 1540.4197,-826.3658"/>
</g>
<!-- AMAZON.COM.edge2.Washington1.Level3.net -->
<g id="node42" class="node">
<title>AMAZON.COM.edge2.Washington1.Level3.net</title>
<path fill="#d3d3d3" stroke="#ffffff" d="M1849.5,-828C1849.5,-828 1570.5,-828 1570.5,-828 1564.5,-828 1558.5,-822 1558.5,-816 1558.5,-816 1558.5,-804 1558.5,-804 1558.5,-798 1564.5,-792 1570.5,-792 1570.5,-792 1849.5,-792 1849.5,-792 1855.5,-792 1861.5,-798 1861.5,-804 1861.5,-804 1861.5,-816 1861.5,-816 1861.5,-822 1855.5,-828 1849.5,-828"/>
<text text-anchor="middle" x="1710" y="-806.3" font-family="Helvetica,sans-Serif" font-size="14.00" fill="#000000">AMAZON.COM.edge2.Washington1.Level3.net</text>
</g>
<!-- be331.pr2.bllon.isp.sky.com&#45;&#45;AMAZON.COM.edge2.Washington1.Level3.net -->
<g id="edge43" class="edge">
<title>be331.pr2.bllon.isp.sky.com&#45;&#45;AMAZON.COM.edge2.Washington1.Level3.net</title>
<path fill="none" stroke="#000000" d="M1816.9151,-863.8314C1795.2373,-852.9167 1767.7491,-839.0764 1746.0734,-828.1628"/>
</g>
<!-- www.cryptocompare.com # CC -->
<g id="node51" class="node">
<title>www.cryptocompare.com # CC</title>
<path fill="#00ff00" stroke="#ffffff" d="M2323,-828C2323,-828 2143,-828 2143,-828 2137,-828 2131,-822 2131,-816 2131,-816 2131,-804 2131,-804 2131,-798 2137,-792 2143,-792 2143,-792 2323,-792 2323,-792 2329,-792 2335,-798 2335,-804 2335,-804 2335,-816 2335,-816 2335,-822 2329,-828 2323,-828"/>
<text text-anchor="middle" x="2233" y="-806.3" font-family="Helvetica,sans-Serif" font-size="14.00" fill="#ffffff">www.cryptocompare.com # CC</text>
</g>
<!-- be331.pr2.bllon.isp.sky.com&#45;&#45;www.cryptocompare.com # CC -->
<g id="edge54" class="edge">
<title>be331.pr2.bllon.isp.sky.com&#45;&#45;www.cryptocompare.com # CC</title>
<path fill="none" stroke="#000000" d="M1945.9585,-864.3868C2004.1852,-853.3544 2079.0329,-839.1727 2137.6981,-828.0572"/>
</g>
<!-- ae38&#45;0.lon04&#45;96cbe&#45;1b.ntwk.msn.net -->
<g id="node53" class="node">
<title>ae38&#45;0.lon04&#45;96cbe&#45;1b.ntwk.msn.net</title>
<path fill="#d3d3d3" stroke="#ffffff" d="M2619,-828C2619,-828 2403,-828 2403,-828 2397,-828 2391,-822 2391,-816 2391,-816 2391,-804 2391,-804 2391,-798 2397,-792 2403,-792 2403,-792 2619,-792 2619,-792 2625,-792 2631,-798 2631,-804 2631,-804 2631,-816 2631,-816 2631,-822 2625,-828 2619,-828"/>
<text text-anchor="middle" x="2511" y="-806.3" font-family="Helvetica,sans-Serif" font-size="14.00" fill="#000000">ae38&#45;0.lon04&#45;96cbe&#45;1b.ntwk.msn.net</text>
</g>
<!-- be331.pr2.bllon.isp.sky.com&#45;&#45;ae38&#45;0.lon04&#45;96cbe&#45;1b.ntwk.msn.net -->
<g id="edge55" class="edge">
<title>be331.pr2.bllon.isp.sky.com&#45;&#45;ae38&#45;0.lon04&#45;96cbe&#45;1b.ntwk.msn.net</title>
<path fill="none" stroke="#000000" d="M1945.5103,-865.3021C1948.7093,-864.8436 1951.8797,-864.4076 1955,-864 2141.6512,-839.6192 2189.8868,-848.5362 2377,-828 2381.5499,-827.5006 2386.1841,-826.9729 2390.8634,-826.424"/>
</g>
<!-- 74.125.49.150 -->
<g id="node61" class="node">
<title>74.125.49.150</title>
<path fill="#d3d3d3" stroke="#ffffff" d="M2740.5,-828C2740.5,-828 2661.5,-828 2661.5,-828 2655.5,-828 2649.5,-822 2649.5,-816 2649.5,-816 2649.5,-804 2649.5,-804 2649.5,-798 2655.5,-792 2661.5,-792 2661.5,-792 2740.5,-792 2740.5,-792 2746.5,-792 2752.5,-798 2752.5,-804 2752.5,-804 2752.5,-816 2752.5,-816 2752.5,-822 2746.5,-828 2740.5,-828"/>
<text text-anchor="middle" x="2701" y="-806.3" font-family="Helvetica,sans-Serif" font-size="14.00" fill="#000000">74.125.49.150</text>
</g>
<!-- be331.pr2.bllon.isp.sky.com&#45;&#45;74.125.49.150 -->
<g id="edge63" class="edge">
<title>be331.pr2.bllon.isp.sky.com&#45;&#45;74.125.49.150</title>
<path fill="none" stroke="#000000" d="M1945.7686,-865.1336C1948.8791,-864.7263 1951.9628,-864.3465 1955,-864 2257.8999,-829.4451 2339.5158,-879.4944 2640,-828 2643.0473,-827.4778 2646.1577,-826.8545 2649.281,-826.1584"/>
</g>
<!-- bbr02.lon01.networklayer.com -->
<g id="node71" class="node">
<title>bbr02.lon01.networklayer.com</title>
<path fill="#d3d3d3" stroke="#ffffff" d="M2957,-828C2957,-828 2783,-828 2783,-828 2777,-828 2771,-822 2771,-816 2771,-816 2771,-804 2771,-804 2771,-798 2777,-792 2783,-792 2783,-792 2957,-792 2957,-792 2963,-792 2969,-798 2969,-804 2969,-804 2969,-816 2969,-816 2969,-822 2963,-828 2957,-828"/>
<text text-anchor="middle" x="2870" y="-806.3" font-family="Helvetica,sans-Serif" font-size="14.00" fill="#000000">bbr02.lon01.networklayer.com</text>
</g>
<!-- be331.pr2.bllon.isp.sky.com&#45;&#45;bbr02.lon01.networklayer.com -->
<g id="edge73" class="edge">
<title>be331.pr2.bllon.isp.sky.com&#45;&#45;bbr02.lon01.networklayer.com</title>
<path fill="none" stroke="#000000" d="M1945.7651,-865.1021C1948.8766,-864.7039 1951.9614,-864.3344 1955,-864 2311.8682,-824.7204 2404.9488,-865.5798 2762,-828 2764.9302,-827.6916 2767.9014,-827.3546 2770.898,-826.9935"/>
</g>
<!-- ge&#45;3&#45;3&#45;0.mpr1.lhr3.uk.above.net -->
<g id="node83" class="node">
<title>ge&#45;3&#45;3&#45;0.mpr1.lhr3.uk.above.net</title>
<path fill="#d3d3d3" stroke="#ffffff" d="M3189,-828C3189,-828 3003,-828 3003,-828 2997,-828 2991,-822 2991,-816 2991,-816 2991,-804 2991,-804 2991,-798 2997,-792 3003,-792 3003,-792 3189,-792 3189,-792 3195,-792 3201,-798 3201,-804 3201,-804 3201,-816 3201,-816 3201,-822 3195,-828 3189,-828"/>
<text text-anchor="middle" x="3096" y="-806.3" font-family="Helvetica,sans-Serif" font-size="14.00" fill="#000000">ge&#45;3&#45;3&#45;0.mpr1.lhr3.uk.above.net</text>
</g>
<!-- be331.pr2.bllon.isp.sky.com&#45;&#45;ge&#45;3&#45;3&#45;0.mpr1.lhr3.uk.above.net -->
<g id="edge85" class="edge">
<title>be331.pr2.bllon.isp.sky.com&#45;&#45;ge&#45;3&#45;3&#45;0.mpr1.lhr3.uk.above.net</title>
<path fill="none" stroke="#000000" d="M1945.7611,-865.0647C1948.8737,-864.6772 1951.9599,-864.3202 1955,-864 2407.4461,-816.3525 2525.0296,-870.3741 2978,-828 2982.2298,-827.6043 2986.5388,-827.1566 2990.8872,-826.6677"/>
</g>
<!-- THE&#45;GO&#45;DADD.ear3.Amsterdam1.Level3.net -->
<g id="node90" class="node">
<title>THE&#45;GO&#45;DADD.ear3.Amsterdam1.Level3.net</title>
<path fill="#d3d3d3" stroke="#ffffff" d="M3501,-828C3501,-828 3233,-828 3233,-828 3227,-828 3221,-822 3221,-816 3221,-816 3221,-804 3221,-804 3221,-798 3227,-792 3233,-792 3233,-792 3501,-792 3501,-792 3507,-792 3513,-798 3513,-804 3513,-804 3513,-816 3513,-816 3513,-822 3507,-828 3501,-828"/>
<text text-anchor="middle" x="3367" y="-806.3" font-family="Helvetica,sans-Serif" font-size="14.00" fill="#000000">THE&#45;GO&#45;DADD.ear3.Amsterdam1.Level3.net</text>
</g>
<!-- be331.pr2.bllon.isp.sky.com&#45;&#45;THE&#45;GO&#45;DADD.ear3.Amsterdam1.Level3.net -->
<g id="edge92" class="edge">
<title>be331.pr2.bllon.isp.sky.com&#45;&#45;THE&#45;GO&#45;DADD.ear3.Amsterdam1.Level3.net</title>
<path fill="none" stroke="#000000" d="M1945.7584,-865.0389C1948.8718,-864.6587 1951.9589,-864.3103 1955,-864 2510.1254,-807.3624 2653.4151,-867.8158 3210,-828 3213.5575,-827.7455 3217.1586,-827.4704 3220.7896,-827.1776"/>
</g>
<!-- 1&#45;3&#45;2.pr01.thca.uk.exponential&#45;e.net -->
<g id="node96" class="node">
<title>1&#45;3&#45;2.pr01.thca.uk.exponential&#45;e.net</title>
<path fill="#d3d3d3" stroke="#ffffff" d="M2100.5,-828C2100.5,-828 1891.5,-828 1891.5,-828 1885.5,-828 1879.5,-822 1879.5,-816 1879.5,-816 1879.5,-804 1879.5,-804 1879.5,-798 1885.5,-792 1891.5,-792 1891.5,-792 2100.5,-792 2100.5,-792 2106.5,-792 2112.5,-798 2112.5,-804 2112.5,-804 2112.5,-816 2112.5,-816 2112.5,-822 2106.5,-828 2100.5,-828"/>
<text text-anchor="middle" x="1996" y="-806.3" font-family="Helvetica,sans-Serif" font-size="14.00" fill="#000000">1&#45;3&#45;2.pr01.thca.uk.exponential&#45;e.net</text>
</g>
<!-- be331.pr2.bllon.isp.sky.com&#45;&#45;1&#45;3&#45;2.pr01.thca.uk.exponential&#45;e.net -->
<g id="edge98" class="edge">
<title>be331.pr2.bllon.isp.sky.com&#45;&#45;1&#45;3&#45;2.pr01.thca.uk.exponential&#45;e.net</title>
<path fill="none" stroke="#000000" d="M1889.0849,-863.8314C1910.7627,-852.9167 1938.2509,-839.0764 1959.9266,-828.1628"/>
</g>
<!-- ae&#45;2&#45;4.bear2.Washington111.Level3.net&#45;&#45;192.30.253.113 &#45;&#45; github -->
<g id="edge7" class="edge">
<title>ae&#45;2&#45;4.bear2.Washington111.Level3.net&#45;&#45;192.30.253.113 &#45;&#45; github</title>
<path fill="none" stroke="#000000" d="M129,-791.8314C129,-781 129,-767.2876 129,-756.4133"/>
</g>
<!-- duckduckgo.com -->
<g id="node9" class="node">
<title>duckduckgo.com</title>
<path fill="#ff0000" stroke="#ffffff" d="M703.5,-252C703.5,-252 608.5,-252 608.5,-252 602.5,-252 596.5,-246 596.5,-240 596.5,-240 596.5,-228 596.5,-228 596.5,-222 602.5,-216 608.5,-216 608.5,-216 703.5,-216 703.5,-216 709.5,-216 715.5,-222 715.5,-228 715.5,-228 715.5,-240 715.5,-240 715.5,-246 709.5,-252 703.5,-252"/>
<text text-anchor="middle" x="656" y="-230.3" font-family="Helvetica,sans-Serif" font-size="14.00" fill="#ffffff">duckduckgo.com</text>
</g>
<!-- 54.239.100.230 -->
<g id="node11" class="node">
<title>54.239.100.230</title>
<path fill="#d3d3d3" stroke="#ffffff" d="M699,-756C699,-756 613,-756 613,-756 607,-756 601,-750 601,-744 601,-744 601,-732 601,-732 601,-726 607,-720 613,-720 613,-720 699,-720 699,-720 705,-720 711,-726 711,-732 711,-732 711,-744 711,-744 711,-750 705,-756 699,-756"/>
<text text-anchor="middle" x="656" y="-734.3" font-family="Helvetica,sans-Serif" font-size="14.00" fill="#000000">54.239.100.230</text>
</g>
<!-- 027ff191.bb.sky.com&#45;&#45;54.239.100.230 -->
<g id="edge10" class="edge">
<title>027ff191.bb.sky.com&#45;&#45;54.239.100.230</title>
<path fill="none" stroke="#000000" d="M667.2149,-791.8314C664.9583,-781 662.1016,-767.2876 659.8361,-756.4133"/>
</g>
<!-- 54.239.101.17 -->
<g id="node12" class="node">
<title>54.239.101.17</title>
<path fill="#d3d3d3" stroke="#ffffff" d="M695.5,-684C695.5,-684 616.5,-684 616.5,-684 610.5,-684 604.5,-678 604.5,-672 604.5,-672 604.5,-660 604.5,-660 604.5,-654 610.5,-648 616.5,-648 616.5,-648 695.5,-648 695.5,-648 701.5,-648 707.5,-654 707.5,-660 707.5,-660 707.5,-672 707.5,-672 707.5,-678 701.5,-684 695.5,-684"/>
<text text-anchor="middle" x="656" y="-662.3" font-family="Helvetica,sans-Serif" font-size="14.00" fill="#000000">54.239.101.17</text>
</g>
<!-- 54.239.100.230&#45;&#45;54.239.101.17 -->
<g id="edge11" class="edge">
<title>54.239.100.230&#45;&#45;54.239.101.17</title>
<path fill="none" stroke="#000000" d="M656,-719.8314C656,-709 656,-695.2876 656,-684.4133"/>
</g>
<!-- 54.239.44.150 -->
<g id="node13" class="node">
<title>54.239.44.150</title>
<path fill="#d3d3d3" stroke="#ffffff" d="M695.5,-612C695.5,-612 616.5,-612 616.5,-612 610.5,-612 604.5,-606 604.5,-600 604.5,-600 604.5,-588 604.5,-588 604.5,-582 610.5,-576 616.5,-576 616.5,-576 695.5,-576 695.5,-576 701.5,-576 707.5,-582 707.5,-588 707.5,-588 707.5,-600 707.5,-600 707.5,-606 701.5,-612 695.5,-612"/>
<text text-anchor="middle" x="656" y="-590.3" font-family="Helvetica,sans-Serif" font-size="14.00" fill="#000000">54.239.44.150</text>
</g>
<!-- 54.239.101.17&#45;&#45;54.239.44.150 -->
<g id="edge12" class="edge">
<title>54.239.101.17&#45;&#45;54.239.44.150</title>
<path fill="none" stroke="#000000" d="M656,-647.8314C656,-637 656,-623.2876 656,-612.4133"/>
</g>
<!-- 52.93.6.136 -->
<g id="node14" class="node">
<title>52.93.6.136</title>
<path fill="#d3d3d3" stroke="#ffffff" d="M688,-540C688,-540 624,-540 624,-540 618,-540 612,-534 612,-528 612,-528 612,-516 612,-516 612,-510 618,-504 624,-504 624,-504 688,-504 688,-504 694,-504 700,-510 700,-516 700,-516 700,-528 700,-528 700,-534 694,-540 688,-540"/>
<text text-anchor="middle" x="656" y="-518.3" font-family="Helvetica,sans-Serif" font-size="14.00" fill="#000000">52.93.6.136</text>
</g>
<!-- 54.239.44.150&#45;&#45;52.93.6.136 -->
<g id="edge13" class="edge">
<title>54.239.44.150&#45;&#45;52.93.6.136</title>
<path fill="none" stroke="#000000" d="M656,-575.8314C656,-565 656,-551.2876 656,-540.4133"/>
</g>
<!-- 52.93.101.17 -->
<g id="node15" class="node">
<title>52.93.101.17</title>
<path fill="#d3d3d3" stroke="#ffffff" d="M691.5,-468C691.5,-468 620.5,-468 620.5,-468 614.5,-468 608.5,-462 608.5,-456 608.5,-456 608.5,-444 608.5,-444 608.5,-438 614.5,-432 620.5,-432 620.5,-432 691.5,-432 691.5,-432 697.5,-432 703.5,-438 703.5,-444 703.5,-444 703.5,-456 703.5,-456 703.5,-462 697.5,-468 691.5,-468"/>
<text text-anchor="middle" x="656" y="-446.3" font-family="Helvetica,sans-Serif" font-size="14.00" fill="#000000">52.93.101.17</text>
</g>
<!-- 52.93.6.136&#45;&#45;52.93.101.17 -->
<g id="edge14" class="edge">
<title>52.93.6.136&#45;&#45;52.93.101.17</title>
<path fill="none" stroke="#000000" d="M656,-503.8314C656,-493 656,-479.2876 656,-468.4133"/>
</g>
<!-- 52.93.101.24 -->
<g id="node16" class="node">
<title>52.93.101.24</title>
<path fill="#d3d3d3" stroke="#ffffff" d="M691.5,-396C691.5,-396 620.5,-396 620.5,-396 614.5,-396 608.5,-390 608.5,-384 608.5,-384 608.5,-372 608.5,-372 608.5,-366 614.5,-360 620.5,-360 620.5,-360 691.5,-360 691.5,-360 697.5,-360 703.5,-366 703.5,-372 703.5,-372 703.5,-384 703.5,-384 703.5,-390 697.5,-396 691.5,-396"/>
<text text-anchor="middle" x="656" y="-374.3" font-family="Helvetica,sans-Serif" font-size="14.00" fill="#000000">52.93.101.24</text>
</g>
<!-- 52.93.101.17&#45;&#45;52.93.101.24 -->
<g id="edge15" class="edge">
<title>52.93.101.17&#45;&#45;52.93.101.24</title>
<path fill="none" stroke="#000000" d="M656,-431.8314C656,-421 656,-407.2876 656,-396.4133"/>
</g>
<!-- 52.93.7.53 -->
<g id="node17" class="node">
<title>52.93.7.53</title>
<path fill="#d3d3d3" stroke="#ffffff" d="M684,-324C684,-324 628,-324 628,-324 622,-324 616,-318 616,-312 616,-312 616,-300 616,-300 616,-294 622,-288 628,-288 628,-288 684,-288 684,-288 690,-288 696,-294 696,-300 696,-300 696,-312 696,-312 696,-318 690,-324 684,-324"/>
<text text-anchor="middle" x="656" y="-302.3" font-family="Helvetica,sans-Serif" font-size="14.00" fill="#000000">52.93.7.53</text>
</g>
<!-- 52.93.101.24&#45;&#45;52.93.7.53 -->
<g id="edge16" class="edge">
<title>52.93.101.24&#45;&#45;52.93.7.53</title>
<path fill="none" stroke="#000000" d="M656,-359.8314C656,-349 656,-335.2876 656,-324.4133"/>
</g>
<!-- 52.93.7.53&#45;&#45;duckduckgo.com -->
<g id="edge17" class="edge">
<title>52.93.7.53&#45;&#45;duckduckgo.com</title>
<path fill="none" stroke="#000000" d="M656,-287.8314C656,-277 656,-263.2876 656,-252.4133"/>
</g>
<!-- google.com -->
<g id="node18" class="node">
<title>google.com</title>
<path fill="#00ff00" stroke="#ffffff" d="M2047.5,-612C2047.5,-612 1984.5,-612 1984.5,-612 1978.5,-612 1972.5,-606 1972.5,-600 1972.5,-600 1972.5,-588 1972.5,-588 1972.5,-582 1978.5,-576 1984.5,-576 1984.5,-576 2047.5,-576 2047.5,-576 2053.5,-576 2059.5,-582 2059.5,-588 2059.5,-588 2059.5,-600 2059.5,-600 2059.5,-606 2053.5,-612 2047.5,-612"/>
<text text-anchor="middle" x="2016" y="-590.3" font-family="Helvetica,sans-Serif" font-size="14.00" fill="#ffffff">google.com</text>
</g>
<!-- 97e7fe2a.skybroadband.com -->
<g id="node20" class="node">
<title>97e7fe2a.skybroadband.com</title>
<path fill="#d3d3d3" stroke="#ffffff" d="M2166.5,-684C2166.5,-684 1999.5,-684 1999.5,-684 1993.5,-684 1987.5,-678 1987.5,-672 1987.5,-672 1987.5,-660 1987.5,-660 1987.5,-654 1993.5,-648 1999.5,-648 1999.5,-648 2166.5,-648 2166.5,-648 2172.5,-648 2178.5,-654 2178.5,-660 2178.5,-660 2178.5,-672 2178.5,-672 2178.5,-678 2172.5,-684 2166.5,-684"/>
<text text-anchor="middle" x="2083" y="-662.3" font-family="Helvetica,sans-Serif" font-size="14.00" fill="#000000">97e7fe2a.skybroadband.com</text>
</g>
<!-- 72.14.203.194&#45;&#45;97e7fe2a.skybroadband.com -->
<g id="edge19" class="edge">
<title>72.14.203.194&#45;&#45;97e7fe2a.skybroadband.com</title>
<path fill="none" stroke="#000000" d="M2174.2142,-719.8314C2155.72,-708.9167 2132.2684,-695.0764 2113.7759,-684.1628"/>
</g>
<!-- 97e7fe2a.skybroadband.com&#45;&#45;google.com -->
<g id="edge20" class="edge">
<title>97e7fe2a.skybroadband.com&#45;&#45;google.com</title>
<path fill="none" stroke="#000000" d="M2066.0931,-647.8314C2056.0139,-637 2043.2537,-623.2876 2033.1346,-612.4133"/>
</g>
<!-- 97e7fe2a.skybroadband.com&#45;&#45;97e7fe2a.skybroadband.com -->
<g id="edge101" class="edge">
<title>97e7fe2a.skybroadband.com&#45;&#45;97e7fe2a.skybroadband.com</title>
<path fill="none" stroke="#000000" d="M2178.637,-677.4401C2189.4755,-675.2977 2196.5,-671.4844 2196.5,-666 2196.5,-660.5156 2189.4755,-656.7023 2178.637,-654.5599"/>
</g>
<!-- glastonbury.seetickets.com -->
<g id="node95" class="node">
<title>glastonbury.seetickets.com</title>
<path fill="#00ff00" stroke="#ffffff" d="M2246,-612C2246,-612 2090,-612 2090,-612 2084,-612 2078,-606 2078,-600 2078,-600 2078,-588 2078,-588 2078,-582 2084,-576 2090,-576 2090,-576 2246,-576 2246,-576 2252,-576 2258,-582 2258,-588 2258,-588 2258,-600 2258,-600 2258,-606 2252,-612 2246,-612"/>
<text text-anchor="middle" x="2168" y="-590.3" font-family="Helvetica,sans-Serif" font-size="14.00" fill="#ffffff">glastonbury.seetickets.com</text>
</g>
<!-- 97e7fe2a.skybroadband.com&#45;&#45;glastonbury.seetickets.com -->
<g id="edge102" class="edge">
<title>97e7fe2a.skybroadband.com&#45;&#45;glastonbury.seetickets.com</title>
<path fill="none" stroke="#000000" d="M2104.4491,-647.8314C2117.3344,-636.9167 2133.6736,-623.0764 2146.5578,-612.1628"/>
</g>
<!-- infinityfoods.coop # Good food -->
<g id="node21" class="node">
<title>infinityfoods.coop # Good food</title>
<path fill="#00ff00" stroke="#ffffff" d="M2152,-900C2152,-900 1976,-900 1976,-900 1970,-900 1964,-894 1964,-888 1964,-888 1964,-876 1964,-876 1964,-870 1970,-864 1976,-864 1976,-864 2152,-864 2152,-864 2158,-864 2164,-870 2164,-876 2164,-876 2164,-888 2164,-888 2164,-894 2158,-900 2152,-900"/>
<text text-anchor="middle" x="2064" y="-878.3" font-family="Helvetica,sans-Serif" font-size="14.00" fill="#ffffff">infinityfoods.coop # Good food</text>
</g>
<!-- 2a02:c7f:700c:bd00::1&#45;&#45;infinityfoods.coop # Good food -->
<g id="edge23" class="edge">
<title>2a02:c7f:700c:bd00::1&#45;&#45;infinityfoods.coop # Good food</title>
<path fill="none" stroke="#000000" d="M2056.5234,-935.8314C2058.0278,-925 2059.9323,-911.2876 2061.4426,-900.4133"/>
</g>
<!-- 2a02:c7f:700c:bd00::1&#45;&#45;2a02:c7f:700c:bd00::1 -->
<g id="edge22" class="edge">
<title>2a02:c7f:700c:bd00::1&#45;&#45;2a02:c7f:700c:bd00::1</title>
<path fill="none" stroke="#000000" d="M2129.1684,-966.1149C2139.8394,-964.1555 2147,-960.1172 2147,-954 2147,-947.8828 2139.8394,-943.8445 2129.1684,-941.8851"/>
</g>
<!-- greenparty.org.uk -->
<g id="node94" class="node">
<title>greenparty.org.uk</title>
<path fill="#00ff00" stroke="#ffffff" d="M2292,-900C2292,-900 2194,-900 2194,-900 2188,-900 2182,-894 2182,-888 2182,-888 2182,-876 2182,-876 2182,-870 2188,-864 2194,-864 2194,-864 2292,-864 2292,-864 2298,-864 2304,-870 2304,-876 2304,-876 2304,-888 2304,-888 2304,-894 2298,-900 2292,-900"/>
<text text-anchor="middle" x="2243" y="-878.3" font-family="Helvetica,sans-Serif" font-size="14.00" fill="#ffffff">greenparty.org.uk</text>
</g>
<!-- 2a02:c7f:700c:bd00::1&#45;&#45;greenparty.org.uk -->
<g id="edge97" class="edge">
<title>2a02:c7f:700c:bd00::1&#45;&#45;greenparty.org.uk</title>
<path fill="none" stroke="#000000" d="M2101.6927,-935.8314C2130.453,-924.875 2166.9518,-910.9708 2195.6503,-900.038"/>
</g>
<!-- silobrighton.com # Zero waste -->
<g id="node23" class="node">
<title>silobrighton.com # Zero waste</title>
<path fill="#ff0000" stroke="#ffffff" d="M918.5,-612C918.5,-612 745.5,-612 745.5,-612 739.5,-612 733.5,-606 733.5,-600 733.5,-600 733.5,-588 733.5,-588 733.5,-582 739.5,-576 745.5,-576 745.5,-576 918.5,-576 918.5,-576 924.5,-576 930.5,-582 930.5,-588 930.5,-588 930.5,-600 930.5,-600 930.5,-606 924.5,-612 918.5,-612"/>
<text text-anchor="middle" x="832" y="-590.3" font-family="Helvetica,sans-Serif" font-size="14.00" fill="#ffffff">silobrighton.com # Zero waste</text>
</g>
<!-- 4d&#45;lgw&#45;bbr&#45;2&#45;0002&#45;6.4d&#45;dc.com -->
<g id="node25" class="node">
<title>4d&#45;lgw&#45;bbr&#45;2&#45;0002&#45;6.4d&#45;dc.com</title>
<path fill="#d3d3d3" stroke="#ffffff" d="M923,-756C923,-756 741,-756 741,-756 735,-756 729,-750 729,-744 729,-744 729,-732 729,-732 729,-726 735,-720 741,-720 741,-720 923,-720 923,-720 929,-720 935,-726 935,-732 935,-732 935,-744 935,-744 935,-750 929,-756 923,-756"/>
<text text-anchor="middle" x="832" y="-734.3" font-family="Helvetica,sans-Serif" font-size="14.00" fill="#000000">4d&#45;lgw&#45;bbr&#45;2&#45;0002&#45;6.4d&#45;dc.com</text>
</g>
<!-- 4d&#45;dc&#45;gw&#45;b.lonap.net&#45;&#45;4d&#45;lgw&#45;bbr&#45;2&#45;0002&#45;6.4d&#45;dc.com -->
<g id="edge25" class="edge">
<title>4d&#45;dc&#45;gw&#45;b.lonap.net&#45;&#45;4d&#45;lgw&#45;bbr&#45;2&#45;0002&#45;6.4d&#45;dc.com</title>
<path fill="none" stroke="#000000" d="M832,-791.8314C832,-781 832,-767.2876 832,-756.4133"/>
</g>
<!-- 4d&#45;lgw&#45;bbr&#45;2&#45;0002&#45;6.4d&#45;dc.com&#45;&#45;4d&#45;lgw&#45;bbr&#45;2&#45;0002&#45;6.4d&#45;dc.com -->
<g id="edge26" class="edge">
<title>4d&#45;lgw&#45;bbr&#45;2&#45;0002&#45;6.4d&#45;dc.com&#45;&#45;4d&#45;lgw&#45;bbr&#45;2&#45;0002&#45;6.4d&#45;dc.com</title>
<path fill="none" stroke="#000000" d="M935.2716,-749.1855C946.0763,-747.0019 953,-743.2734 953,-738 953,-732.7266 946.0763,-728.9981 935.2716,-726.8145"/>
</g>
<!-- 4d&#45;lgw&#45;men&#45;2&#45;024.4d&#45;dc.com -->
<g id="node26" class="node">
<title>4d&#45;lgw&#45;men&#45;2&#45;024.4d&#45;dc.com</title>
<path fill="#d3d3d3" stroke="#ffffff" d="M917,-684C917,-684 747,-684 747,-684 741,-684 735,-678 735,-672 735,-672 735,-660 735,-660 735,-654 741,-648 747,-648 747,-648 917,-648 917,-648 923,-648 929,-654 929,-660 929,-660 929,-672 929,-672 929,-678 923,-684 917,-684"/>
<text text-anchor="middle" x="832" y="-662.3" font-family="Helvetica,sans-Serif" font-size="14.00" fill="#000000">4d&#45;lgw&#45;men&#45;2&#45;024.4d&#45;dc.com</text>
</g>
<!-- 4d&#45;lgw&#45;bbr&#45;2&#45;0002&#45;6.4d&#45;dc.com&#45;&#45;4d&#45;lgw&#45;men&#45;2&#45;024.4d&#45;dc.com -->
<g id="edge27" class="edge">
<title>4d&#45;lgw&#45;bbr&#45;2&#45;0002&#45;6.4d&#45;dc.com&#45;&#45;4d&#45;lgw&#45;men&#45;2&#45;024.4d&#45;dc.com</title>
<path fill="none" stroke="#000000" d="M832,-719.8314C832,-709 832,-695.2876 832,-684.4133"/>
</g>
<!-- 4d&#45;lgw&#45;men&#45;2&#45;024.4d&#45;dc.com&#45;&#45;silobrighton.com # Zero waste -->
<g id="edge28" class="edge">
<title>4d&#45;lgw&#45;men&#45;2&#45;024.4d&#45;dc.com&#45;&#45;silobrighton.com # Zero waste</title>
<path fill="none" stroke="#000000" d="M832,-647.8314C832,-637 832,-623.2876 832,-612.4133"/>
</g>
<!-- rate.sx # Command line crypto ticker -->
<g id="node28" class="node">
<title>rate.sx # Command line crypto ticker</title>
<path fill="#00ff00" stroke="#ffffff" d="M1193.5,-324C1193.5,-324 980.5,-324 980.5,-324 974.5,-324 968.5,-318 968.5,-312 968.5,-312 968.5,-300 968.5,-300 968.5,-294 974.5,-288 980.5,-288 980.5,-288 1193.5,-288 1193.5,-288 1199.5,-288 1205.5,-294 1205.5,-300 1205.5,-300 1205.5,-312 1205.5,-312 1205.5,-318 1199.5,-324 1193.5,-324"/>
<text text-anchor="middle" x="1087" y="-302.3" font-family="Helvetica,sans-Serif" font-size="14.00" fill="#ffffff">rate.sx # Command line crypto ticker</text>
</g>
<!-- ae2&#45;2077.fra20.core&#45;backbone.com -->
<g id="node30" class="node">
<title>ae2&#45;2077.fra20.core&#45;backbone.com</title>
<path fill="#d3d3d3" stroke="#ffffff" d="M1190.5,-756C1190.5,-756 983.5,-756 983.5,-756 977.5,-756 971.5,-750 971.5,-744 971.5,-744 971.5,-732 971.5,-732 971.5,-726 977.5,-720 983.5,-720 983.5,-720 1190.5,-720 1190.5,-720 1196.5,-720 1202.5,-726 1202.5,-732 1202.5,-732 1202.5,-744 1202.5,-744 1202.5,-750 1196.5,-756 1190.5,-756"/>
<text text-anchor="middle" x="1087" y="-734.3" font-family="Helvetica,sans-Serif" font-size="14.00" fill="#000000">ae2&#45;2077.fra20.core&#45;backbone.com</text>
</g>
<!-- ae0&#45;406.lon10.core&#45;backbone.com&#45;&#45;ae2&#45;2077.fra20.core&#45;backbone.com -->
<g id="edge31" class="edge">
<title>ae0&#45;406.lon10.core&#45;backbone.com&#45;&#45;ae2&#45;2077.fra20.core&#45;backbone.com</title>
<path fill="none" stroke="#000000" d="M1048.1218,-791.8314C1055.9444,-781 1065.8479,-767.2876 1073.7015,-756.4133"/>
</g>
<!-- core&#45;backbone.hetzner.com -->
<g id="node31" class="node">
<title>core&#45;backbone.hetzner.com</title>
<path fill="#d3d3d3" stroke="#ffffff" d="M1167.5,-684C1167.5,-684 1006.5,-684 1006.5,-684 1000.5,-684 994.5,-678 994.5,-672 994.5,-672 994.5,-660 994.5,-660 994.5,-654 1000.5,-648 1006.5,-648 1006.5,-648 1167.5,-648 1167.5,-648 1173.5,-648 1179.5,-654 1179.5,-660 1179.5,-660 1179.5,-672 1179.5,-672 1179.5,-678 1173.5,-684 1167.5,-684"/>
<text text-anchor="middle" x="1087" y="-662.3" font-family="Helvetica,sans-Serif" font-size="14.00" fill="#000000">core&#45;backbone.hetzner.com</text>
</g>
<!-- ae2&#45;2077.fra20.core&#45;backbone.com&#45;&#45;core&#45;backbone.hetzner.com -->
<g id="edge32" class="edge">
<title>ae2&#45;2077.fra20.core&#45;backbone.com&#45;&#45;core&#45;backbone.hetzner.com</title>
<path fill="none" stroke="#000000" d="M1087,-719.8314C1087,-709 1087,-695.2876 1087,-684.4133"/>
</g>
<!-- core24.fsn1.hetzner.com -->
<g id="node32" class="node">
<title>core24.fsn1.hetzner.com</title>
<path fill="#d3d3d3" stroke="#ffffff" d="M1158,-612C1158,-612 1016,-612 1016,-612 1010,-612 1004,-606 1004,-600 1004,-600 1004,-588 1004,-588 1004,-582 1010,-576 1016,-576 1016,-576 1158,-576 1158,-576 1164,-576 1170,-582 1170,-588 1170,-588 1170,-600 1170,-600 1170,-606 1164,-612 1158,-612"/>
<text text-anchor="middle" x="1087" y="-590.3" font-family="Helvetica,sans-Serif" font-size="14.00" fill="#000000">core24.fsn1.hetzner.com</text>
</g>
<!-- core&#45;backbone.hetzner.com&#45;&#45;core24.fsn1.hetzner.com -->
<g id="edge33" class="edge">
<title>core&#45;backbone.hetzner.com&#45;&#45;core24.fsn1.hetzner.com</title>
<path fill="none" stroke="#000000" d="M1087,-647.8314C1087,-637 1087,-623.2876 1087,-612.4133"/>
</g>
<!-- ex9k1.dc7.fsn1.hetzner.com -->
<g id="node33" class="node">
<title>ex9k1.dc7.fsn1.hetzner.com</title>
<path fill="#d3d3d3" stroke="#ffffff" d="M1168,-540C1168,-540 1006,-540 1006,-540 1000,-540 994,-534 994,-528 994,-528 994,-516 994,-516 994,-510 1000,-504 1006,-504 1006,-504 1168,-504 1168,-504 1174,-504 1180,-510 1180,-516 1180,-516 1180,-528 1180,-528 1180,-534 1174,-540 1168,-540"/>
<text text-anchor="middle" x="1087" y="-518.3" font-family="Helvetica,sans-Serif" font-size="14.00" fill="#000000">ex9k1.dc7.fsn1.hetzner.com</text>
</g>
<!-- core24.fsn1.hetzner.com&#45;&#45;ex9k1.dc7.fsn1.hetzner.com -->
<g id="edge34" class="edge">
<title>core24.fsn1.hetzner.com&#45;&#45;ex9k1.dc7.fsn1.hetzner.com</title>
<path fill="none" stroke="#000000" d="M1087,-575.8314C1087,-565 1087,-551.2876 1087,-540.4133"/>
</g>
<!-- b6.xgu.ru -->
<g id="node34" class="node">
<title>b6.xgu.ru</title>
<path fill="#d3d3d3" stroke="#ffffff" d="M1111.5,-468C1111.5,-468 1062.5,-468 1062.5,-468 1056.5,-468 1050.5,-462 1050.5,-456 1050.5,-456 1050.5,-444 1050.5,-444 1050.5,-438 1056.5,-432 1062.5,-432 1062.5,-432 1111.5,-432 1111.5,-432 1117.5,-432 1123.5,-438 1123.5,-444 1123.5,-444 1123.5,-456 1123.5,-456 1123.5,-462 1117.5,-468 1111.5,-468"/>
<text text-anchor="middle" x="1087" y="-446.3" font-family="Helvetica,sans-Serif" font-size="14.00" fill="#000000">b6.xgu.ru</text>
</g>
<!-- ex9k1.dc7.fsn1.hetzner.com&#45;&#45;b6.xgu.ru -->
<g id="edge35" class="edge">
<title>ex9k1.dc7.fsn1.hetzner.com&#45;&#45;b6.xgu.ru</title>
<path fill="none" stroke="#000000" d="M1087,-503.8314C1087,-493 1087,-479.2876 1087,-468.4133"/>
</g>
<!-- cheat.sh -->
<g id="node35" class="node">
<title>cheat.sh</title>
<path fill="#d3d3d3" stroke="#ffffff" d="M1109,-396C1109,-396 1065,-396 1065,-396 1059,-396 1053,-390 1053,-384 1053,-384 1053,-372 1053,-372 1053,-366 1059,-360 1065,-360 1065,-360 1109,-360 1109,-360 1115,-360 1121,-366 1121,-372 1121,-372 1121,-384 1121,-384 1121,-390 1115,-396 1109,-396"/>
<text text-anchor="middle" x="1087" y="-374.3" font-family="Helvetica,sans-Serif" font-size="14.00" fill="#000000">cheat.sh</text>
</g>
<!-- b6.xgu.ru&#45;&#45;cheat.sh -->
<g id="edge36" class="edge">
<title>b6.xgu.ru&#45;&#45;cheat.sh</title>
<path fill="none" stroke="#000000" d="M1087,-431.8314C1087,-421 1087,-407.2876 1087,-396.4133"/>
</g>
<!-- cheat.sh&#45;&#45;rate.sx # Command line crypto ticker -->
<g id="edge37" class="edge">
<title>cheat.sh&#45;&#45;rate.sx # Command line crypto ticker</title>
<path fill="none" stroke="#000000" d="M1087,-359.8314C1087,-349 1087,-335.2876 1087,-324.4133"/>
</g>
<!-- 66.39.50.36 # Pair Networks -->
<g id="node36" class="node">
<title>66.39.50.36 # Pair Networks</title>
<path fill="#00ff00" stroke="#ffffff" d="M1540.5,-540C1540.5,-540 1377.5,-540 1377.5,-540 1371.5,-540 1365.5,-534 1365.5,-528 1365.5,-528 1365.5,-516 1365.5,-516 1365.5,-510 1371.5,-504 1377.5,-504 1377.5,-504 1540.5,-504 1540.5,-504 1546.5,-504 1552.5,-510 1552.5,-516 1552.5,-516 1552.5,-528 1552.5,-528 1552.5,-534 1546.5,-540 1540.5,-540"/>
<text text-anchor="middle" x="1459" y="-518.3" font-family="Helvetica,sans-Serif" font-size="14.00" fill="#ffffff">66.39.50.36 # Pair Networks</text>
</g>
<!-- xe&#45;1&#45;0&#45;0.cr0&#45;pit1.ip4.gtt.net -->
<g id="node38" class="node">
<title>xe&#45;1&#45;0&#45;0.cr0&#45;pit1.ip4.gtt.net</title>
<path fill="#d3d3d3" stroke="#ffffff" d="M1536.5,-756C1536.5,-756 1381.5,-756 1381.5,-756 1375.5,-756 1369.5,-750 1369.5,-744 1369.5,-744 1369.5,-732 1369.5,-732 1369.5,-726 1375.5,-720 1381.5,-720 1381.5,-720 1536.5,-720 1536.5,-720 1542.5,-720 1548.5,-726 1548.5,-732 1548.5,-732 1548.5,-744 1548.5,-744 1548.5,-750 1542.5,-756 1536.5,-756"/>
<text text-anchor="middle" x="1459" y="-734.3" font-family="Helvetica,sans-Serif" font-size="14.00" fill="#000000">xe&#45;1&#45;0&#45;0.cr0&#45;pit1.ip4.gtt.net</text>
</g>
<!-- ae3.cr11&#45;lon1.ip4.gtt.net&#45;&#45;xe&#45;1&#45;0&#45;0.cr0&#45;pit1.ip4.gtt.net -->
<g id="edge39" class="edge">
<title>ae3.cr11&#45;lon1.ip4.gtt.net&#45;&#45;xe&#45;1&#45;0&#45;0.cr0&#45;pit1.ip4.gtt.net</title>
<path fill="none" stroke="#000000" d="M1459,-791.8314C1459,-781 1459,-767.2876 1459,-756.4133"/>
</g>
<!-- ip4.gtt.net -->
<g id="node39" class="node">
<title>ip4.gtt.net</title>
<path fill="#d3d3d3" stroke="#ffffff" d="M1485,-684C1485,-684 1433,-684 1433,-684 1427,-684 1421,-678 1421,-672 1421,-672 1421,-660 1421,-660 1421,-654 1427,-648 1433,-648 1433,-648 1485,-648 1485,-648 1491,-648 1497,-654 1497,-660 1497,-660 1497,-672 1497,-672 1497,-678 1491,-684 1485,-684"/>
<text text-anchor="middle" x="1459" y="-662.3" font-family="Helvetica,sans-Serif" font-size="14.00" fill="#000000">ip4.gtt.net</text>
</g>
<!-- xe&#45;1&#45;0&#45;0.cr0&#45;pit1.ip4.gtt.net&#45;&#45;ip4.gtt.net -->
<g id="edge40" class="edge">
<title>xe&#45;1&#45;0&#45;0.cr0&#45;pit1.ip4.gtt.net&#45;&#45;ip4.gtt.net</title>
<path fill="none" stroke="#000000" d="M1459,-719.8314C1459,-709 1459,-695.2876 1459,-684.4133"/>
</g>
<!-- www3.g17.pair.com -->
<g id="node40" class="node">
<title>www3.g17.pair.com</title>
<path fill="#d3d3d3" stroke="#ffffff" d="M1515,-612C1515,-612 1403,-612 1403,-612 1397,-612 1391,-606 1391,-600 1391,-600 1391,-588 1391,-588 1391,-582 1397,-576 1403,-576 1403,-576 1515,-576 1515,-576 1521,-576 1527,-582 1527,-588 1527,-588 1527,-600 1527,-600 1527,-606 1521,-612 1515,-612"/>
<text text-anchor="middle" x="1459" y="-590.3" font-family="Helvetica,sans-Serif" font-size="14.00" fill="#000000">www3.g17.pair.com</text>
</g>
<!-- ip4.gtt.net&#45;&#45;www3.g17.pair.com -->
<g id="edge41" class="edge">
<title>ip4.gtt.net&#45;&#45;www3.g17.pair.com</title>
<path fill="none" stroke="#000000" d="M1459,-647.8314C1459,-637 1459,-623.2876 1459,-612.4133"/>
</g>
<!-- www3.g17.pair.com&#45;&#45;66.39.50.36 # Pair Networks -->
<g id="edge42" class="edge">
<title>www3.g17.pair.com&#45;&#45;66.39.50.36 # Pair Networks</title>
<path fill="none" stroke="#000000" d="M1459,-575.8314C1459,-565 1459,-551.2876 1459,-540.4133"/>
</g>
<!-- travis&#45;ci.org # Travis CI -->
<g id="node41" class="node">
<title>travis&#45;ci.org # Travis CI</title>
<path fill="#ff0000" stroke="#ffffff" d="M1669.5,-468C1669.5,-468 1538.5,-468 1538.5,-468 1532.5,-468 1526.5,-462 1526.5,-456 1526.5,-456 1526.5,-444 1526.5,-444 1526.5,-438 1532.5,-432 1538.5,-432 1538.5,-432 1669.5,-432 1669.5,-432 1675.5,-432 1681.5,-438 1681.5,-444 1681.5,-444 1681.5,-456 1681.5,-456 1681.5,-462 1675.5,-468 1669.5,-468"/>
<text text-anchor="middle" x="1604" y="-446.3" font-family="Helvetica,sans-Serif" font-size="14.00" fill="#ffffff">travis&#45;ci.org # Travis CI</text>
</g>
<!-- 54.239.110.205 -->
<g id="node43" class="node">
<title>54.239.110.205</title>
<path fill="#d3d3d3" stroke="#ffffff" d="M1709,-756C1709,-756 1623,-756 1623,-756 1617,-756 1611,-750 1611,-744 1611,-744 1611,-732 1611,-732 1611,-726 1617,-720 1623,-720 1623,-720 1709,-720 1709,-720 1715,-720 1721,-726 1721,-732 1721,-732 1721,-744 1721,-744 1721,-750 1715,-756 1709,-756"/>
<text text-anchor="middle" x="1666" y="-734.3" font-family="Helvetica,sans-Serif" font-size="14.00" fill="#000000">54.239.110.205</text>
</g>
<!-- AMAZON.COM.edge2.Washington1.Level3.net&#45;&#45;54.239.110.205 -->
<g id="edge44" class="edge">
<title>AMAZON.COM.edge2.Washington1.Level3.net&#45;&#45;54.239.110.205</title>
<path fill="none" stroke="#000000" d="M1698.8969,-791.8314C1692.2778,-781 1683.898,-767.2876 1677.2526,-756.4133"/>
</g>
<!-- 54.239.110.207 -->
<g id="node48" class="node">
<title>54.239.110.207</title>
<path fill="#d3d3d3" stroke="#ffffff" d="M1837,-756C1837,-756 1751,-756 1751,-756 1745,-756 1739,-750 1739,-744 1739,-744 1739,-732 1739,-732 1739,-726 1745,-720 1751,-720 1751,-720 1837,-720 1837,-720 1843,-720 1849,-726 1849,-732 1849,-732 1849,-744 1849,-744 1849,-750 1843,-756 1837,-756"/>
<text text-anchor="middle" x="1794" y="-734.3" font-family="Helvetica,sans-Serif" font-size="14.00" fill="#000000">54.239.110.207</text>
</g>
<!-- AMAZON.COM.edge2.Washington1.Level3.net&#45;&#45;54.239.110.207 -->
<g id="edge49" class="edge">
<title>AMAZON.COM.edge2.Washington1.Level3.net&#45;&#45;54.239.110.207</title>
<path fill="none" stroke="#000000" d="M1731.1967,-791.8314C1743.9305,-780.9167 1760.0775,-767.0764 1772.81,-756.1628"/>
</g>
<!-- 52.93.26.82 -->
<g id="node44" class="node">
<title>52.93.26.82</title>
<path fill="#d3d3d3" stroke="#ffffff" d="M1701,-684C1701,-684 1637,-684 1637,-684 1631,-684 1625,-678 1625,-672 1625,-672 1625,-660 1625,-660 1625,-654 1631,-648 1637,-648 1637,-648 1701,-648 1701,-648 1707,-648 1713,-654 1713,-660 1713,-660 1713,-672 1713,-672 1713,-678 1707,-684 1701,-684"/>
<text text-anchor="middle" x="1669" y="-662.3" font-family="Helvetica,sans-Serif" font-size="14.00" fill="#000000">52.93.26.82</text>
</g>
<!-- 54.239.110.205&#45;&#45;52.93.26.82 -->
<g id="edge45" class="edge">
<title>54.239.110.205&#45;&#45;52.93.26.82</title>
<path fill="none" stroke="#000000" d="M1666.757,-719.8314C1667.2083,-709 1667.7797,-695.2876 1668.2328,-684.4133"/>
</g>
<!-- 52.93.27.221 -->
<g id="node45" class="node">
<title>52.93.27.221</title>
<path fill="#d3d3d3" stroke="#ffffff" d="M1758.5,-612C1758.5,-612 1687.5,-612 1687.5,-612 1681.5,-612 1675.5,-606 1675.5,-600 1675.5,-600 1675.5,-588 1675.5,-588 1675.5,-582 1681.5,-576 1687.5,-576 1687.5,-576 1758.5,-576 1758.5,-576 1764.5,-576 1770.5,-582 1770.5,-588 1770.5,-588 1770.5,-600 1770.5,-600 1770.5,-606 1764.5,-612 1758.5,-612"/>
<text text-anchor="middle" x="1723" y="-590.3" font-family="Helvetica,sans-Serif" font-size="14.00" fill="#000000">52.93.27.221</text>
</g>
<!-- 52.93.26.82&#45;&#45;52.93.27.221 -->
<g id="edge46" class="edge">
<title>52.93.26.82&#45;&#45;52.93.27.221</title>
<path fill="none" stroke="#000000" d="M1682.6265,-647.8314C1690.75,-637 1701.0343,-623.2876 1709.19,-612.4133"/>
</g>
<!-- 72.21.197.237 -->
<g id="node46" class="node">
<title>72.21.197.237</title>
<path fill="#d3d3d3" stroke="#ffffff" d="M1661.5,-540C1661.5,-540 1582.5,-540 1582.5,-540 1576.5,-540 1570.5,-534 1570.5,-528 1570.5,-528 1570.5,-516 1570.5,-516 1570.5,-510 1576.5,-504 1582.5,-504 1582.5,-504 1661.5,-504 1661.5,-504 1667.5,-504 1673.5,-510 1673.5,-516 1673.5,-516 1673.5,-528 1673.5,-528 1673.5,-534 1667.5,-540 1661.5,-540"/>
<text text-anchor="middle" x="1622" y="-518.3" font-family="Helvetica,sans-Serif" font-size="14.00" fill="#000000">72.21.197.237</text>
</g>
<!-- 52.93.27.221&#45;&#45;72.21.197.237 -->
<g id="edge47" class="edge">
<title>52.93.27.221&#45;&#45;72.21.197.237</title>
<path fill="none" stroke="#000000" d="M1697.5134,-575.8314C1682.2026,-564.9167 1662.7878,-551.0764 1647.4784,-540.1628"/>
</g>
<!-- 52.93.24.159 -->
<g id="node50" class="node">
<title>52.93.24.159</title>
<path fill="#d3d3d3" stroke="#ffffff" d="M1810.5,-540C1810.5,-540 1739.5,-540 1739.5,-540 1733.5,-540 1727.5,-534 1727.5,-528 1727.5,-528 1727.5,-516 1727.5,-516 1727.5,-510 1733.5,-504 1739.5,-504 1739.5,-504 1810.5,-504 1810.5,-504 1816.5,-504 1822.5,-510 1822.5,-516 1822.5,-516 1822.5,-528 1822.5,-528 1822.5,-534 1816.5,-540 1810.5,-540"/>
<text text-anchor="middle" x="1775" y="-518.3" font-family="Helvetica,sans-Serif" font-size="14.00" fill="#000000">52.93.24.159</text>
</g>
<!-- 52.93.27.221&#45;&#45;52.93.24.159 -->
<g id="edge52" class="edge">
<title>52.93.27.221&#45;&#45;52.93.24.159</title>
<path fill="none" stroke="#000000" d="M1736.1218,-575.8314C1743.9444,-565 1753.8479,-551.2876 1761.7015,-540.4133"/>
</g>
<!-- 72.21.197.237&#45;&#45;travis&#45;ci.org # Travis CI -->
<g id="edge48" class="edge">
<title>72.21.197.237&#45;&#45;travis&#45;ci.org # Travis CI</title>
<path fill="none" stroke="#000000" d="M1617.4578,-503.8314C1614.75,-493 1611.3219,-479.2876 1608.6033,-468.4133"/>
</g>
<!-- travis&#45;ci.com # Travis CI Pro -->
<g id="node47" class="node">
<title>travis&#45;ci.com # Travis CI Pro</title>
<path fill="#ff0000" stroke="#ffffff" d="M1874.5,-468C1874.5,-468 1711.5,-468 1711.5,-468 1705.5,-468 1699.5,-462 1699.5,-456 1699.5,-456 1699.5,-444 1699.5,-444 1699.5,-438 1705.5,-432 1711.5,-432 1711.5,-432 1874.5,-432 1874.5,-432 1880.5,-432 1886.5,-438 1886.5,-444 1886.5,-444 1886.5,-456 1886.5,-456 1886.5,-462 1880.5,-468 1874.5,-468"/>
<text text-anchor="middle" x="1793" y="-446.3" font-family="Helvetica,sans-Serif" font-size="14.00" fill="#ffffff">travis&#45;ci.com # Travis CI Pro</text>
</g>
<!-- 54.239.111.91 -->
<g id="node49" class="node">
<title>54.239.111.91</title>
<path fill="#d3d3d3" stroke="#ffffff" d="M1829.5,-684C1829.5,-684 1750.5,-684 1750.5,-684 1744.5,-684 1738.5,-678 1738.5,-672 1738.5,-672 1738.5,-660 1738.5,-660 1738.5,-654 1744.5,-648 1750.5,-648 1750.5,-648 1829.5,-648 1829.5,-648 1835.5,-648 1841.5,-654 1841.5,-660 1841.5,-660 1841.5,-672 1841.5,-672 1841.5,-678 1835.5,-684 1829.5,-684"/>
<text text-anchor="middle" x="1790" y="-662.3" font-family="Helvetica,sans-Serif" font-size="14.00" fill="#000000">54.239.111.91</text>
</g>
<!-- 54.239.110.207&#45;&#45;54.239.111.91 -->
<g id="edge50" class="edge">
<title>54.239.110.207&#45;&#45;54.239.111.91</title>
<path fill="none" stroke="#000000" d="M1792.9906,-719.8314C1792.3889,-709 1791.6271,-695.2876 1791.023,-684.4133"/>
</g>
<!-- 54.239.111.91&#45;&#45;52.93.27.221 -->
<g id="edge51" class="edge">
<title>54.239.111.91&#45;&#45;52.93.27.221</title>
<path fill="none" stroke="#000000" d="M1773.0931,-647.8314C1763.0139,-637 1750.2537,-623.2876 1740.1346,-612.4133"/>
</g>
<!-- 52.93.24.159&#45;&#45;travis&#45;ci.com # Travis CI Pro -->
<g id="edge53" class="edge">
<title>52.93.24.159&#45;&#45;travis&#45;ci.com # Travis CI Pro</title>
<path fill="none" stroke="#000000" d="M1779.5422,-503.8314C1782.25,-493 1785.6781,-479.2876 1788.3967,-468.4133"/>
</g>
<!-- min&#45;api.cryptocompare.com # CC API -->
<g id="node52" class="node">
<title>min&#45;api.cryptocompare.com # CC API</title>
<path fill="#ff0000" stroke="#ffffff" d="M2577.5,-324C2577.5,-324 2356.5,-324 2356.5,-324 2350.5,-324 2344.5,-318 2344.5,-312 2344.5,-312 2344.5,-300 2344.5,-300 2344.5,-294 2350.5,-288 2356.5,-288 2356.5,-288 2577.5,-288 2577.5,-288 2583.5,-288 2589.5,-294 2589.5,-300 2589.5,-300 2589.5,-312 2589.5,-312 2589.5,-318 2583.5,-324 2577.5,-324"/>
<text text-anchor="middle" x="2467" y="-302.3" font-family="Helvetica,sans-Serif" font-size="14.00" fill="#ffffff">min&#45;api.cryptocompare.com # CC API</text>
</g>
<!-- be&#45;62&#45;0.ibr01.lon30.ntwk.msn.net -->
<g id="node54" class="node">
<title>be&#45;62&#45;0.ibr01.lon30.ntwk.msn.net</title>
<path fill="#d3d3d3" stroke="#ffffff" d="M2578,-756C2578,-756 2384,-756 2384,-756 2378,-756 2372,-750 2372,-744 2372,-744 2372,-732 2372,-732 2372,-726 2378,-720 2384,-720 2384,-720 2578,-720 2578,-720 2584,-720 2590,-726 2590,-732 2590,-732 2590,-744 2590,-744 2590,-750 2584,-756 2578,-756"/>
<text text-anchor="middle" x="2481" y="-734.3" font-family="Helvetica,sans-Serif" font-size="14.00" fill="#000000">be&#45;62&#45;0.ibr01.lon30.ntwk.msn.net</text>
</g>
<!-- ae38&#45;0.lon04&#45;96cbe&#45;1b.ntwk.msn.net&#45;&#45;be&#45;62&#45;0.ibr01.lon30.ntwk.msn.net -->
<g id="edge56" class="edge">
<title>ae38&#45;0.lon04&#45;96cbe&#45;1b.ntwk.msn.net&#45;&#45;be&#45;62&#45;0.ibr01.lon30.ntwk.msn.net</title>
<path fill="none" stroke="#000000" d="M2503.4297,-791.8314C2498.9167,-781 2493.2032,-767.2876 2488.6722,-756.4133"/>
</g>
<!-- be&#45;2&#45;0.ibr01.lts.ntwk.msn.net -->
<g id="node55" class="node">
<title>be&#45;2&#45;0.ibr01.lts.ntwk.msn.net</title>
<path fill="#d3d3d3" stroke="#ffffff" d="M2562.5,-684C2562.5,-684 2395.5,-684 2395.5,-684 2389.5,-684 2383.5,-678 2383.5,-672 2383.5,-672 2383.5,-660 2383.5,-660 2383.5,-654 2389.5,-648 2395.5,-648 2395.5,-648 2562.5,-648 2562.5,-648 2568.5,-648 2574.5,-654 2574.5,-660 2574.5,-660 2574.5,-672 2574.5,-672 2574.5,-678 2568.5,-684 2562.5,-684"/>
<text text-anchor="middle" x="2479" y="-662.3" font-family="Helvetica,sans-Serif" font-size="14.00" fill="#000000">be&#45;2&#45;0.ibr01.lts.ntwk.msn.net</text>
</g>
<!-- be&#45;62&#45;0.ibr01.lon30.ntwk.msn.net&#45;&#45;be&#45;2&#45;0.ibr01.lts.ntwk.msn.net -->
<g id="edge57" class="edge">
<title>be&#45;62&#45;0.ibr01.lon30.ntwk.msn.net&#45;&#45;be&#45;2&#45;0.ibr01.lts.ntwk.msn.net</title>
<path fill="none" stroke="#000000" d="M2480.4953,-719.8314C2480.1944,-709 2479.8135,-695.2876 2479.5115,-684.4133"/>
</g>
<!-- be&#45;5&#45;0.ibr01.amb.ntwk.msn.net -->
<g id="node56" class="node">
<title>be&#45;5&#45;0.ibr01.amb.ntwk.msn.net</title>
<path fill="#d3d3d3" stroke="#ffffff" d="M2566,-612C2566,-612 2386,-612 2386,-612 2380,-612 2374,-606 2374,-600 2374,-600 2374,-588 2374,-588 2374,-582 2380,-576 2386,-576 2386,-576 2566,-576 2566,-576 2572,-576 2578,-582 2578,-588 2578,-588 2578,-600 2578,-600 2578,-606 2572,-612 2566,-612"/>
<text text-anchor="middle" x="2476" y="-590.3" font-family="Helvetica,sans-Serif" font-size="14.00" fill="#000000">be&#45;5&#45;0.ibr01.amb.ntwk.msn.net</text>
</g>
<!-- be&#45;2&#45;0.ibr01.lts.ntwk.msn.net&#45;&#45;be&#45;5&#45;0.ibr01.amb.ntwk.msn.net -->
<g id="edge58" class="edge">
<title>be&#45;2&#45;0.ibr01.lts.ntwk.msn.net&#45;&#45;be&#45;5&#45;0.ibr01.amb.ntwk.msn.net</title>
<path fill="none" stroke="#000000" d="M2478.243,-647.8314C2477.7917,-637 2477.2203,-623.2876 2476.7672,-612.4133"/>
</g>
<!-- be&#45;1&#45;0.ibr02.amb.ntwk.msn.net -->
<g id="node57" class="node">
<title>be&#45;1&#45;0.ibr02.amb.ntwk.msn.net</title>
<path fill="#d3d3d3" stroke="#ffffff" d="M2565,-540C2565,-540 2385,-540 2385,-540 2379,-540 2373,-534 2373,-528 2373,-528 2373,-516 2373,-516 2373,-510 2379,-504 2385,-504 2385,-504 2565,-504 2565,-504 2571,-504 2577,-510 2577,-516 2577,-516 2577,-528 2577,-528 2577,-534 2571,-540 2565,-540"/>
<text text-anchor="middle" x="2475" y="-518.3" font-family="Helvetica,sans-Serif" font-size="14.00" fill="#000000">be&#45;1&#45;0.ibr02.amb.ntwk.msn.net</text>
</g>
<!-- be&#45;5&#45;0.ibr01.amb.ntwk.msn.net&#45;&#45;be&#45;1&#45;0.ibr02.amb.ntwk.msn.net -->
<g id="edge59" class="edge">
<title>be&#45;5&#45;0.ibr01.amb.ntwk.msn.net&#45;&#45;be&#45;1&#45;0.ibr02.amb.ntwk.msn.net</title>
<path fill="none" stroke="#000000" d="M2475.7477,-575.8314C2475.5972,-565 2475.4068,-551.2876 2475.2557,-540.4133"/>
</g>
<!-- be&#45;2&#45;0.ibr02.ams06.ntwk.msn.net -->
<g id="node58" class="node">
<title>be&#45;2&#45;0.ibr02.ams06.ntwk.msn.net</title>
<path fill="#d3d3d3" stroke="#ffffff" d="M2571,-468C2571,-468 2377,-468 2377,-468 2371,-468 2365,-462 2365,-456 2365,-456 2365,-444 2365,-444 2365,-438 2371,-432 2377,-432 2377,-432 2571,-432 2571,-432 2577,-432 2583,-438 2583,-444 2583,-444 2583,-456 2583,-456 2583,-462 2577,-468 2571,-468"/>
<text text-anchor="middle" x="2474" y="-446.3" font-family="Helvetica,sans-Serif" font-size="14.00" fill="#000000">be&#45;2&#45;0.ibr02.ams06.ntwk.msn.net</text>
</g>
<!-- be&#45;1&#45;0.ibr02.amb.ntwk.msn.net&#45;&#45;be&#45;2&#45;0.ibr02.ams06.ntwk.msn.net -->
<g id="edge60" class="edge">
<title>be&#45;1&#45;0.ibr02.amb.ntwk.msn.net&#45;&#45;be&#45;2&#45;0.ibr02.ams06.ntwk.msn.net</title>
<path fill="none" stroke="#000000" d="M2474.7477,-503.8314C2474.5972,-493 2474.4068,-479.2876 2474.2557,-468.4133"/>
</g>
<!-- ae121&#45;0.icr01.ams06.ntwk.msn.net -->
<g id="node59" class="node">
<title>ae121&#45;0.icr01.ams06.ntwk.msn.net</title>
<path fill="#d3d3d3" stroke="#ffffff" d="M2572,-396C2572,-396 2368,-396 2368,-396 2362,-396 2356,-390 2356,-384 2356,-384 2356,-372 2356,-372 2356,-366 2362,-360 2368,-360 2368,-360 2572,-360 2572,-360 2578,-360 2584,-366 2584,-372 2584,-372 2584,-384 2584,-384 2584,-390 2578,-396 2572,-396"/>
<text text-anchor="middle" x="2470" y="-374.3" font-family="Helvetica,sans-Serif" font-size="14.00" fill="#000000">ae121&#45;0.icr01.ams06.ntwk.msn.net</text>
</g>
<!-- be&#45;2&#45;0.ibr02.ams06.ntwk.msn.net&#45;&#45;ae121&#45;0.icr01.ams06.ntwk.msn.net -->
<g id="edge61" class="edge">
<title>be&#45;2&#45;0.ibr02.ams06.ntwk.msn.net&#45;&#45;ae121&#45;0.icr01.ams06.ntwk.msn.net</title>
<path fill="none" stroke="#000000" d="M2472.9906,-431.8314C2472.3889,-421 2471.6271,-407.2876 2471.023,-396.4133"/>
</g>
<!-- ae121&#45;0.icr01.ams06.ntwk.msn.net&#45;&#45;min&#45;api.cryptocompare.com # CC API -->
<g id="edge62" class="edge">
<title>ae121&#45;0.icr01.ams06.ntwk.msn.net&#45;&#45;min&#45;api.cryptocompare.com # CC API</title>
<path fill="none" stroke="#000000" d="M2469.243,-359.8314C2468.7917,-349 2468.2203,-335.2876 2467.7672,-324.4133"/>
</g>
<!-- codecov.io # Got it covered -->
<g id="node60" class="node">
<title>codecov.io # Got it covered</title>
<path fill="#00ff00" stroke="#ffffff" d="M2731.5,-180C2731.5,-180 2574.5,-180 2574.5,-180 2568.5,-180 2562.5,-174 2562.5,-168 2562.5,-168 2562.5,-156 2562.5,-156 2562.5,-150 2568.5,-144 2574.5,-144 2574.5,-144 2731.5,-144 2731.5,-144 2737.5,-144 2743.5,-150 2743.5,-156 2743.5,-156 2743.5,-168 2743.5,-168 2743.5,-174 2737.5,-180 2731.5,-180"/>
<text text-anchor="middle" x="2653" y="-158.3" font-family="Helvetica,sans-Serif" font-size="14.00" fill="#ffffff">codecov.io # Got it covered</text>
</g>
<!-- 74.125.242.114 -->
<g id="node62" class="node">
<title>74.125.242.114</title>
<path fill="#d3d3d3" stroke="#ffffff" d="M2712,-756C2712,-756 2626,-756 2626,-756 2620,-756 2614,-750 2614,-744 2614,-744 2614,-732 2614,-732 2614,-726 2620,-720 2626,-720 2626,-720 2712,-720 2712,-720 2718,-720 2724,-726 2724,-732 2724,-732 2724,-744 2724,-744 2724,-750 2718,-756 2712,-756"/>
<text text-anchor="middle" x="2669" y="-734.3" font-family="Helvetica,sans-Serif" font-size="14.00" fill="#000000">74.125.242.114</text>
</g>
<!-- 74.125.49.150&#45;&#45;74.125.242.114 -->
<g id="edge64" class="edge">
<title>74.125.49.150&#45;&#45;74.125.242.114</title>
<path fill="none" stroke="#000000" d="M2692.925,-791.8314C2688.1111,-781 2682.0167,-767.2876 2677.1837,-756.4133"/>
</g>
<!-- 74.125.242.83 -->
<g id="node63" class="node">
<title>74.125.242.83</title>
<path fill="#d3d3d3" stroke="#ffffff" d="M2707.5,-684C2707.5,-684 2628.5,-684 2628.5,-684 2622.5,-684 2616.5,-678 2616.5,-672 2616.5,-672 2616.5,-660 2616.5,-660 2616.5,-654 2622.5,-648 2628.5,-648 2628.5,-648 2707.5,-648 2707.5,-648 2713.5,-648 2719.5,-654 2719.5,-660 2719.5,-660 2719.5,-672 2719.5,-672 2719.5,-678 2713.5,-684 2707.5,-684"/>
<text text-anchor="middle" x="2668" y="-662.3" font-family="Helvetica,sans-Serif" font-size="14.00" fill="#000000">74.125.242.83</text>
</g>
<!-- 74.125.242.114&#45;&#45;74.125.242.83 -->
<g id="edge65" class="edge">
<title>74.125.242.114&#45;&#45;74.125.242.83</title>
<path fill="none" stroke="#000000" d="M2668.7477,-719.8314C2668.5972,-709 2668.4068,-695.2876 2668.2557,-684.4133"/>
</g>
<!-- 209.85.250.185 -->
<g id="node64" class="node">
<title>209.85.250.185</title>
<path fill="#d3d3d3" stroke="#ffffff" d="M2710,-612C2710,-612 2624,-612 2624,-612 2618,-612 2612,-606 2612,-600 2612,-600 2612,-588 2612,-588 2612,-582 2618,-576 2624,-576 2624,-576 2710,-576 2710,-576 2716,-576 2722,-582 2722,-588 2722,-588 2722,-600 2722,-600 2722,-606 2716,-612 2710,-612"/>
<text text-anchor="middle" x="2667" y="-590.3" font-family="Helvetica,sans-Serif" font-size="14.00" fill="#000000">209.85.250.185</text>
</g>
<!-- 74.125.242.83&#45;&#45;209.85.250.185 -->
<g id="edge66" class="edge">
<title>74.125.242.83&#45;&#45;209.85.250.185</title>
<path fill="none" stroke="#000000" d="M2667.7477,-647.8314C2667.5972,-637 2667.4068,-623.2876 2667.2557,-612.4133"/>
</g>
<!-- 108.170.236.33 -->
<g id="node65" class="node">
<title>108.170.236.33</title>
<path fill="#d3d3d3" stroke="#ffffff" d="M2710,-540C2710,-540 2624,-540 2624,-540 2618,-540 2612,-534 2612,-528 2612,-528 2612,-516 2612,-516 2612,-510 2618,-504 2624,-504 2624,-504 2710,-504 2710,-504 2716,-504 2722,-510 2722,-516 2722,-516 2722,-528 2722,-528 2722,-534 2716,-540 2710,-540"/>
<text text-anchor="middle" x="2667" y="-518.3" font-family="Helvetica,sans-Serif" font-size="14.00" fill="#000000">108.170.236.33</text>
</g>
<!-- 209.85.250.185&#45;&#45;108.170.236.33 -->
<g id="edge67" class="edge">
<title>209.85.250.185&#45;&#45;108.170.236.33</title>
<path fill="none" stroke="#000000" d="M2667,-575.8314C2667,-565 2667,-551.2876 2667,-540.4133"/>
</g>
<!-- 108.170.235.156 -->
<g id="node66" class="node">
<title>108.170.235.156</title>
<path fill="#d3d3d3" stroke="#ffffff" d="M2714,-468C2714,-468 2620,-468 2620,-468 2614,-468 2608,-462 2608,-456 2608,-456 2608,-444 2608,-444 2608,-438 2614,-432 2620,-432 2620,-432 2714,-432 2714,-432 2720,-432 2726,-438 2726,-444 2726,-444 2726,-456 2726,-456 2726,-462 2720,-468 2714,-468"/>
<text text-anchor="middle" x="2667" y="-446.3" font-family="Helvetica,sans-Serif" font-size="14.00" fill="#000000">108.170.235.156</text>
</g>
<!-- 108.170.236.33&#45;&#45;108.170.235.156 -->
<g id="edge68" class="edge">
<title>108.170.236.33&#45;&#45;108.170.235.156</title>
<path fill="none" stroke="#000000" d="M2667,-503.8314C2667,-493 2667,-479.2876 2667,-468.4133"/>
</g>
<!-- 108.170.246.65 -->
<g id="node67" class="node">
<title>108.170.246.65</title>
<path fill="#d3d3d3" stroke="#ffffff" d="M2710,-396C2710,-396 2624,-396 2624,-396 2618,-396 2612,-390 2612,-384 2612,-384 2612,-372 2612,-372 2612,-366 2618,-360 2624,-360 2624,-360 2710,-360 2710,-360 2716,-360 2722,-366 2722,-372 2722,-372 2722,-384 2722,-384 2722,-390 2716,-396 2710,-396"/>
<text text-anchor="middle" x="2667" y="-374.3" font-family="Helvetica,sans-Serif" font-size="14.00" fill="#000000">108.170.246.65</text>
</g>
<!-- 108.170.235.156&#45;&#45;108.170.246.65 -->
<g id="edge69" class="edge">
<title>108.170.235.156&#45;&#45;108.170.246.65</title>
<path fill="none" stroke="#000000" d="M2667,-431.8314C2667,-421 2667,-407.2876 2667,-396.4133"/>
</g>
<!-- 108.170.238.167 -->
<g id="node68" class="node">
<title>108.170.238.167</title>
<path fill="#d3d3d3" stroke="#ffffff" d="M2714,-324C2714,-324 2620,-324 2620,-324 2614,-324 2608,-318 2608,-312 2608,-312 2608,-300 2608,-300 2608,-294 2614,-288 2620,-288 2620,-288 2714,-288 2714,-288 2720,-288 2726,-294 2726,-300 2726,-300 2726,-312 2726,-312 2726,-318 2720,-324 2714,-324"/>
<text text-anchor="middle" x="2667" y="-302.3" font-family="Helvetica,sans-Serif" font-size="14.00" fill="#000000">108.170.238.167</text>
</g>
<!-- 108.170.246.65&#45;&#45;108.170.238.167 -->
<g id="edge70" class="edge">
<title>108.170.246.65&#45;&#45;108.170.238.167</title>
<path fill="none" stroke="#000000" d="M2667,-359.8314C2667,-349 2667,-335.2876 2667,-324.4133"/>
</g>
<!-- 247.43.199.35.bc.googleusercontent.com -->
<g id="node69" class="node">
<title>247.43.199.35.bc.googleusercontent.com</title>
<path fill="#d3d3d3" stroke="#ffffff" d="M2774,-252C2774,-252 2532,-252 2532,-252 2526,-252 2520,-246 2520,-240 2520,-240 2520,-228 2520,-228 2520,-222 2526,-216 2532,-216 2532,-216 2774,-216 2774,-216 2780,-216 2786,-222 2786,-228 2786,-228 2786,-240 2786,-240 2786,-246 2780,-252 2774,-252"/>
<text text-anchor="middle" x="2653" y="-230.3" font-family="Helvetica,sans-Serif" font-size="14.00" fill="#000000">247.43.199.35.bc.googleusercontent.com</text>
</g>
<!-- 108.170.238.167&#45;&#45;247.43.199.35.bc.googleusercontent.com -->
<g id="edge71" class="edge">
<title>108.170.238.167&#45;&#45;247.43.199.35.bc.googleusercontent.com</title>
<path fill="none" stroke="#000000" d="M2663.4672,-287.8314C2661.3611,-277 2658.6948,-263.2876 2656.5804,-252.4133"/>
</g>
<!-- 247.43.199.35.bc.googleusercontent.com&#45;&#45;codecov.io # Got it covered -->
<g id="edge72" class="edge">
<title>247.43.199.35.bc.googleusercontent.com&#45;&#45;codecov.io # Got it covered</title>
<path fill="none" stroke="#000000" d="M2653,-215.8314C2653,-205 2653,-191.2876 2653,-180.4133"/>
</g>
<!-- fixer.io # Fiat currencies -->
<g id="node70" class="node">
<title>fixer.io # Fiat currencies</title>
<path fill="#00ff00" stroke="#ffffff" d="M2984,-36C2984,-36 2848,-36 2848,-36 2842,-36 2836,-30 2836,-24 2836,-24 2836,-12 2836,-12 2836,-6 2842,0 2848,0 2848,0 2984,0 2984,0 2990,0 2996,-6 2996,-12 2996,-12 2996,-24 2996,-24 2996,-30 2990,-36 2984,-36"/>
<text text-anchor="middle" x="2916" y="-14.3" font-family="Helvetica,sans-Serif" font-size="14.00" fill="#ffffff">fixer.io # Fiat currencies</text>
</g>
<!-- ae5.cbs01.tg01.lon01.networklayer.com -->
<g id="node72" class="node">
<title>ae5.cbs01.tg01.lon01.networklayer.com</title>
<path fill="#d3d3d3" stroke="#ffffff" d="M2986,-756C2986,-756 2754,-756 2754,-756 2748,-756 2742,-750 2742,-744 2742,-744 2742,-732 2742,-732 2742,-726 2748,-720 2754,-720 2754,-720 2986,-720 2986,-720 2992,-720 2998,-726 2998,-732 2998,-732 2998,-744 2998,-744 2998,-750 2992,-756 2986,-756"/>
<text text-anchor="middle" x="2870" y="-734.3" font-family="Helvetica,sans-Serif" font-size="14.00" fill="#000000">ae5.cbs01.tg01.lon01.networklayer.com</text>
</g>
<!-- bbr02.lon01.networklayer.com&#45;&#45;ae5.cbs01.tg01.lon01.networklayer.com -->
<g id="edge74" class="edge">
<title>bbr02.lon01.networklayer.com&#45;&#45;ae5.cbs01.tg01.lon01.networklayer.com</title>
<path fill="none" stroke="#000000" d="M2870,-791.8314C2870,-781 2870,-767.2876 2870,-756.4133"/>
</g>
<!-- ae1.cbs02.tl01.nyc01.networklayer.com -->
<g id="node73" class="node">
<title>ae1.cbs02.tl01.nyc01.networklayer.com</title>
<path fill="#d3d3d3" stroke="#ffffff" d="M2985,-684C2985,-684 2755,-684 2755,-684 2749,-684 2743,-678 2743,-672 2743,-672 2743,-660 2743,-660 2743,-654 2749,-648 2755,-648 2755,-648 2985,-648 2985,-648 2991,-648 2997,-654 2997,-660 2997,-660 2997,-672 2997,-672 2997,-678 2991,-684 2985,-684"/>
<text text-anchor="middle" x="2870" y="-662.3" font-family="Helvetica,sans-Serif" font-size="14.00" fill="#000000">ae1.cbs02.tl01.nyc01.networklayer.com</text>
</g>
<!-- ae5.cbs01.tg01.lon01.networklayer.com&#45;&#45;ae1.cbs02.tl01.nyc01.networklayer.com -->
<g id="edge75" class="edge">
<title>ae5.cbs01.tg01.lon01.networklayer.com&#45;&#45;ae1.cbs02.tl01.nyc01.networklayer.com</title>
<path fill="none" stroke="#000000" d="M2870,-719.8314C2870,-709 2870,-695.2876 2870,-684.4133"/>
</g>
<!-- ae0.cbs01.eq01.chi01.networklayer.com -->
<g id="node74" class="node">
<title>ae0.cbs01.eq01.chi01.networklayer.com</title>
<path fill="#d3d3d3" stroke="#ffffff" d="M2987.5,-612C2987.5,-612 2752.5,-612 2752.5,-612 2746.5,-612 2740.5,-606 2740.5,-600 2740.5,-600 2740.5,-588 2740.5,-588 2740.5,-582 2746.5,-576 2752.5,-576 2752.5,-576 2987.5,-576 2987.5,-576 2993.5,-576 2999.5,-582 2999.5,-588 2999.5,-588 2999.5,-600 2999.5,-600 2999.5,-606 2993.5,-612 2987.5,-612"/>
<text text-anchor="middle" x="2870" y="-590.3" font-family="Helvetica,sans-Serif" font-size="14.00" fill="#000000">ae0.cbs01.eq01.chi01.networklayer.com</text>
</g>
<!-- ae1.cbs02.tl01.nyc01.networklayer.com&#45;&#45;ae0.cbs01.eq01.chi01.networklayer.com -->
<g id="edge76" class="edge">
<title>ae1.cbs02.tl01.nyc01.networklayer.com&#45;&#45;ae0.cbs01.eq01.chi01.networklayer.com</title>
<path fill="none" stroke="#000000" d="M2870,-647.8314C2870,-637 2870,-623.2876 2870,-612.4133"/>
</g>
<!-- ae7.cbs02.eq01.chi01.networklayer.com -->
<g id="node75" class="node">
<title>ae7.cbs02.eq01.chi01.networklayer.com</title>
<path fill="#d3d3d3" stroke="#ffffff" d="M2987.5,-540C2987.5,-540 2752.5,-540 2752.5,-540 2746.5,-540 2740.5,-534 2740.5,-528 2740.5,-528 2740.5,-516 2740.5,-516 2740.5,-510 2746.5,-504 2752.5,-504 2752.5,-504 2987.5,-504 2987.5,-504 2993.5,-504 2999.5,-510 2999.5,-516 2999.5,-516 2999.5,-528 2999.5,-528 2999.5,-534 2993.5,-540 2987.5,-540"/>
<text text-anchor="middle" x="2870" y="-518.3" font-family="Helvetica,sans-Serif" font-size="14.00" fill="#000000">ae7.cbs02.eq01.chi01.networklayer.com</text>
</g>
<!-- ae0.cbs01.eq01.chi01.networklayer.com&#45;&#45;ae7.cbs02.eq01.chi01.networklayer.com -->
<g id="edge77" class="edge">
<title>ae0.cbs01.eq01.chi01.networklayer.com&#45;&#45;ae7.cbs02.eq01.chi01.networklayer.com</title>
<path fill="none" stroke="#000000" d="M2870,-575.8314C2870,-565 2870,-551.2876 2870,-540.4133"/>
</g>
<!-- ae0.cbs02.cs01.den01.networklayer.com -->
<g id="node76" class="node">
<title>ae0.cbs02.cs01.den01.networklayer.com</title>
<path fill="#d3d3d3" stroke="#ffffff" d="M2995.5,-468C2995.5,-468 2756.5,-468 2756.5,-468 2750.5,-468 2744.5,-462 2744.5,-456 2744.5,-456 2744.5,-444 2744.5,-444 2744.5,-438 2750.5,-432 2756.5,-432 2756.5,-432 2995.5,-432 2995.5,-432 3001.5,-432 3007.5,-438 3007.5,-444 3007.5,-444 3007.5,-456 3007.5,-456 3007.5,-462 3001.5,-468 2995.5,-468"/>
<text text-anchor="middle" x="2876" y="-446.3" font-family="Helvetica,sans-Serif" font-size="14.00" fill="#000000">ae0.cbs02.cs01.den01.networklayer.com</text>
</g>
<!-- ae7.cbs02.eq01.chi01.networklayer.com&#45;&#45;ae0.cbs02.cs01.den01.networklayer.com -->
<g id="edge78" class="edge">
<title>ae7.cbs02.eq01.chi01.networklayer.com&#45;&#45;ae0.cbs02.cs01.den01.networklayer.com</title>
<path fill="none" stroke="#000000" d="M2871.5141,-503.8314C2872.4167,-493 2873.5594,-479.2876 2874.4656,-468.4133"/>
</g>
<!-- ae1.cbs01.eq01.sjc02.networklayer.com -->
<g id="node77" class="node">
<title>ae1.cbs01.eq01.sjc02.networklayer.com</title>
<path fill="#d3d3d3" stroke="#ffffff" d="M2993,-396C2993,-396 2759,-396 2759,-396 2753,-396 2747,-390 2747,-384 2747,-384 2747,-372 2747,-372 2747,-366 2753,-360 2759,-360 2759,-360 2993,-360 2993,-360 2999,-360 3005,-366 3005,-372 3005,-372 3005,-384 3005,-384 3005,-390 2999,-396 2993,-396"/>
<text text-anchor="middle" x="2876" y="-374.3" font-family="Helvetica,sans-Serif" font-size="14.00" fill="#000000">ae1.cbs01.eq01.sjc02.networklayer.com</text>
</g>
<!-- ae0.cbs02.cs01.den01.networklayer.com&#45;&#45;ae1.cbs01.eq01.sjc02.networklayer.com -->
<g id="edge79" class="edge">
<title>ae0.cbs02.cs01.den01.networklayer.com&#45;&#45;ae1.cbs01.eq01.sjc02.networklayer.com</title>
<path fill="none" stroke="#000000" d="M2876,-431.8314C2876,-421 2876,-407.2876 2876,-396.4133"/>
</g>
<!-- ae23.bbr02.eq01.sjc02.networklayer.com -->
<g id="node78" class="node">
<title>ae23.bbr02.eq01.sjc02.networklayer.com</title>
<path fill="#d3d3d3" stroke="#ffffff" d="M3023,-324C3023,-324 2783,-324 2783,-324 2777,-324 2771,-318 2771,-312 2771,-312 2771,-300 2771,-300 2771,-294 2777,-288 2783,-288 2783,-288 3023,-288 3023,-288 3029,-288 3035,-294 3035,-300 3035,-300 3035,-312 3035,-312 3035,-318 3029,-324 3023,-324"/>
<text text-anchor="middle" x="2903" y="-302.3" font-family="Helvetica,sans-Serif" font-size="14.00" fill="#000000">ae23.bbr02.eq01.sjc02.networklayer.com</text>
</g>
<!-- ae1.cbs01.eq01.sjc02.networklayer.com&#45;&#45;ae23.bbr02.eq01.sjc02.networklayer.com -->
<g id="edge80" class="edge">
<title>ae1.cbs01.eq01.sjc02.networklayer.com&#45;&#45;ae23.bbr02.eq01.sjc02.networklayer.com</title>
<path fill="none" stroke="#000000" d="M2882.8132,-359.8314C2886.875,-349 2892.0172,-335.2876 2896.095,-324.4133"/>
</g>
<!-- ae6.dar01.sjc01.networklayer.com -->
<g id="node79" class="node">
<title>ae6.dar01.sjc01.networklayer.com</title>
<path fill="#d3d3d3" stroke="#ffffff" d="M3015.5,-252C3015.5,-252 2816.5,-252 2816.5,-252 2810.5,-252 2804.5,-246 2804.5,-240 2804.5,-240 2804.5,-228 2804.5,-228 2804.5,-222 2810.5,-216 2816.5,-216 2816.5,-216 3015.5,-216 3015.5,-216 3021.5,-216 3027.5,-222 3027.5,-228 3027.5,-228 3027.5,-240 3027.5,-240 3027.5,-246 3021.5,-252 3015.5,-252"/>
<text text-anchor="middle" x="2916" y="-230.3" font-family="Helvetica,sans-Serif" font-size="14.00" fill="#000000">ae6.dar01.sjc01.networklayer.com</text>
</g>
<!-- ae23.bbr02.eq01.sjc02.networklayer.com&#45;&#45;ae6.dar01.sjc01.networklayer.com -->
<g id="edge81" class="edge">
<title>ae23.bbr02.eq01.sjc02.networklayer.com&#45;&#45;ae6.dar01.sjc01.networklayer.com</title>
<path fill="none" stroke="#000000" d="M2906.2804,-287.8314C2908.2361,-277 2910.712,-263.2876 2912.6754,-252.4133"/>
</g>
<!-- po2.fcr02.sr02.sjc01.networklayer.com -->
<g id="node80" class="node">
<title>po2.fcr02.sr02.sjc01.networklayer.com</title>
<path fill="#d3d3d3" stroke="#ffffff" d="M3028,-180C3028,-180 2804,-180 2804,-180 2798,-180 2792,-174 2792,-168 2792,-168 2792,-156 2792,-156 2792,-150 2798,-144 2804,-144 2804,-144 3028,-144 3028,-144 3034,-144 3040,-150 3040,-156 3040,-156 3040,-168 3040,-168 3040,-174 3034,-180 3028,-180"/>
<text text-anchor="middle" x="2916" y="-158.3" font-family="Helvetica,sans-Serif" font-size="14.00" fill="#000000">po2.fcr02.sr02.sjc01.networklayer.com</text>
</g>
<!-- ae6.dar01.sjc01.networklayer.com&#45;&#45;po2.fcr02.sr02.sjc01.networklayer.com -->
<g id="edge82" class="edge">
<title>ae6.dar01.sjc01.networklayer.com&#45;&#45;po2.fcr02.sr02.sjc01.networklayer.com</title>
<path fill="none" stroke="#000000" d="M2916,-215.8314C2916,-205 2916,-191.2876 2916,-180.4133"/>
</g>
<!-- 2.f3.f617.ip4.static.sl&#45;reverse.com -->
<g id="node81" class="node">
<title>2.f3.f617.ip4.static.sl&#45;reverse.com</title>
<path fill="#d3d3d3" stroke="#ffffff" d="M3013.5,-108C3013.5,-108 2818.5,-108 2818.5,-108 2812.5,-108 2806.5,-102 2806.5,-96 2806.5,-96 2806.5,-84 2806.5,-84 2806.5,-78 2812.5,-72 2818.5,-72 2818.5,-72 3013.5,-72 3013.5,-72 3019.5,-72 3025.5,-78 3025.5,-84 3025.5,-84 3025.5,-96 3025.5,-96 3025.5,-102 3019.5,-108 3013.5,-108"/>
<text text-anchor="middle" x="2916" y="-86.3" font-family="Helvetica,sans-Serif" font-size="14.00" fill="#000000">2.f3.f617.ip4.static.sl&#45;reverse.com</text>
</g>
<!-- po2.fcr02.sr02.sjc01.networklayer.com&#45;&#45;2.f3.f617.ip4.static.sl&#45;reverse.com -->
<g id="edge83" class="edge">
<title>po2.fcr02.sr02.sjc01.networklayer.com&#45;&#45;2.f3.f617.ip4.static.sl&#45;reverse.com</title>
<path fill="none" stroke="#000000" d="M2916,-143.8314C2916,-133 2916,-119.2876 2916,-108.4133"/>
</g>
<!-- 2.f3.f617.ip4.static.sl&#45;reverse.com&#45;&#45;fixer.io # Fiat currencies -->
<g id="edge84" class="edge">
<title>2.f3.f617.ip4.static.sl&#45;reverse.com&#45;&#45;fixer.io # Fiat currencies</title>
<path fill="none" stroke="#000000" d="M2916,-71.8314C2916,-61 2916,-47.2876 2916,-36.4133"/>
</g>
<!-- fnxweb.com # Lair of The Phoenix -->
<g id="node82" class="node">
<title>fnxweb.com # Lair of The Phoenix</title>
<path fill="#00ff00" stroke="#ffffff" d="M3232.5,-396C3232.5,-396 3035.5,-396 3035.5,-396 3029.5,-396 3023.5,-390 3023.5,-384 3023.5,-384 3023.5,-372 3023.5,-372 3023.5,-366 3029.5,-360 3035.5,-360 3035.5,-360 3232.5,-360 3232.5,-360 3238.5,-360 3244.5,-366 3244.5,-372 3244.5,-372 3244.5,-384 3244.5,-384 3244.5,-390 3238.5,-396 3232.5,-396"/>
<text text-anchor="middle" x="3134" y="-374.3" font-family="Helvetica,sans-Serif" font-size="14.00" fill="#ffffff">fnxweb.com # Lair of The Phoenix</text>
</g>
<!-- ae6.mpr3.lhr3.uk.zip.zayo.com -->
<g id="node84" class="node">
<title>ae6.mpr3.lhr3.uk.zip.zayo.com</title>
<path fill="#d3d3d3" stroke="#ffffff" d="M3210,-756C3210,-756 3032,-756 3032,-756 3026,-756 3020,-750 3020,-744 3020,-744 3020,-732 3020,-732 3020,-726 3026,-720 3032,-720 3032,-720 3210,-720 3210,-720 3216,-720 3222,-726 3222,-732 3222,-732 3222,-744 3222,-744 3222,-750 3216,-756 3210,-756"/>
<text text-anchor="middle" x="3121" y="-734.3" font-family="Helvetica,sans-Serif" font-size="14.00" fill="#000000">ae6.mpr3.lhr3.uk.zip.zayo.com</text>
</g>
<!-- ge&#45;3&#45;3&#45;0.mpr1.lhr3.uk.above.net&#45;&#45;ae6.mpr3.lhr3.uk.zip.zayo.com -->
<g id="edge86" class="edge">
<title>ge&#45;3&#45;3&#45;0.mpr1.lhr3.uk.above.net&#45;&#45;ae6.mpr3.lhr3.uk.zip.zayo.com</title>
<path fill="none" stroke="#000000" d="M3102.3086,-791.8314C3106.0694,-781 3110.8307,-767.2876 3114.6065,-756.4133"/>
</g>
<!-- ae7.mpr1.lhr8.uk.zip.zayo.com -->
<g id="node85" class="node">
<title>ae7.mpr1.lhr8.uk.zip.zayo.com</title>
<path fill="#d3d3d3" stroke="#ffffff" d="M3213,-684C3213,-684 3035,-684 3035,-684 3029,-684 3023,-678 3023,-672 3023,-672 3023,-660 3023,-660 3023,-654 3029,-648 3035,-648 3035,-648 3213,-648 3213,-648 3219,-648 3225,-654 3225,-660 3225,-660 3225,-672 3225,-672 3225,-678 3219,-684 3213,-684"/>
<text text-anchor="middle" x="3124" y="-662.3" font-family="Helvetica,sans-Serif" font-size="14.00" fill="#000000">ae7.mpr1.lhr8.uk.zip.zayo.com</text>
</g>
<!-- ae6.mpr3.lhr3.uk.zip.zayo.com&#45;&#45;ae7.mpr1.lhr8.uk.zip.zayo.com -->
<g id="edge87" class="edge">
<title>ae6.mpr3.lhr3.uk.zip.zayo.com&#45;&#45;ae7.mpr1.lhr8.uk.zip.zayo.com</title>
<path fill="none" stroke="#000000" d="M3121.757,-719.8314C3122.2083,-709 3122.7797,-695.2876 3123.2328,-684.4133"/>
</g>
<!-- te&#45;0&#45;0&#45;0&#45;3.cr01.thm&#45;lon.pulsant.net -->
<g id="node86" class="node">
<title>te&#45;0&#45;0&#45;0&#45;3.cr01.thm&#45;lon.pulsant.net</title>
<path fill="#d3d3d3" stroke="#ffffff" d="M3230.5,-612C3230.5,-612 3029.5,-612 3029.5,-612 3023.5,-612 3017.5,-606 3017.5,-600 3017.5,-600 3017.5,-588 3017.5,-588 3017.5,-582 3023.5,-576 3029.5,-576 3029.5,-576 3230.5,-576 3230.5,-576 3236.5,-576 3242.5,-582 3242.5,-588 3242.5,-588 3242.5,-600 3242.5,-600 3242.5,-606 3236.5,-612 3230.5,-612"/>
<text text-anchor="middle" x="3130" y="-590.3" font-family="Helvetica,sans-Serif" font-size="14.00" fill="#000000">te&#45;0&#45;0&#45;0&#45;3.cr01.thm&#45;lon.pulsant.net</text>
</g>
<!-- ae7.mpr1.lhr8.uk.zip.zayo.com&#45;&#45;te&#45;0&#45;0&#45;0&#45;3.cr01.thm&#45;lon.pulsant.net -->
<g id="edge88" class="edge">
<title>ae7.mpr1.lhr8.uk.zip.zayo.com&#45;&#45;te&#45;0&#45;0&#45;0&#45;3.cr01.thm&#45;lon.pulsant.net</title>
<path fill="none" stroke="#000000" d="M3125.5141,-647.8314C3126.4167,-637 3127.5594,-623.2876 3128.4656,-612.4133"/>
</g>
<!-- te&#45;0&#45;0&#45;0&#45;0.cr02.dc2&#45;mhd.pulsant.net -->
<g id="node87" class="node">
<title>te&#45;0&#45;0&#45;0&#45;0.cr02.dc2&#45;mhd.pulsant.net</title>
<path fill="#d3d3d3" stroke="#ffffff" d="M3238.5,-540C3238.5,-540 3029.5,-540 3029.5,-540 3023.5,-540 3017.5,-534 3017.5,-528 3017.5,-528 3017.5,-516 3017.5,-516 3017.5,-510 3023.5,-504 3029.5,-504 3029.5,-504 3238.5,-504 3238.5,-504 3244.5,-504 3250.5,-510 3250.5,-516 3250.5,-516 3250.5,-528 3250.5,-528 3250.5,-534 3244.5,-540 3238.5,-540"/>
<text text-anchor="middle" x="3134" y="-518.3" font-family="Helvetica,sans-Serif" font-size="14.00" fill="#000000">te&#45;0&#45;0&#45;0&#45;0.cr02.dc2&#45;mhd.pulsant.net</text>
</g>
<!-- te&#45;0&#45;0&#45;0&#45;3.cr01.thm&#45;lon.pulsant.net&#45;&#45;te&#45;0&#45;0&#45;0&#45;0.cr02.dc2&#45;mhd.pulsant.net -->
<g id="edge89" class="edge">
<title>te&#45;0&#45;0&#45;0&#45;3.cr01.thm&#45;lon.pulsant.net&#45;&#45;te&#45;0&#45;0&#45;0&#45;0.cr02.dc2&#45;mhd.pulsant.net</title>
<path fill="none" stroke="#000000" d="M3131.0094,-575.8314C3131.6111,-565 3132.3729,-551.2876 3132.977,-540.4133"/>
</g>
<!-- ge&#45;5&#45;2.ds01.dc1&#45;mhd.pulsant.net -->
<g id="node88" class="node">
<title>ge&#45;5&#45;2.ds01.dc1&#45;mhd.pulsant.net</title>
<path fill="#d3d3d3" stroke="#ffffff" d="M3229.5,-468C3229.5,-468 3038.5,-468 3038.5,-468 3032.5,-468 3026.5,-462 3026.5,-456 3026.5,-456 3026.5,-444 3026.5,-444 3026.5,-438 3032.5,-432 3038.5,-432 3038.5,-432 3229.5,-432 3229.5,-432 3235.5,-432 3241.5,-438 3241.5,-444 3241.5,-444 3241.5,-456 3241.5,-456 3241.5,-462 3235.5,-468 3229.5,-468"/>
<text text-anchor="middle" x="3134" y="-446.3" font-family="Helvetica,sans-Serif" font-size="14.00" fill="#000000">ge&#45;5&#45;2.ds01.dc1&#45;mhd.pulsant.net</text>
</g>
<!-- te&#45;0&#45;0&#45;0&#45;0.cr02.dc2&#45;mhd.pulsant.net&#45;&#45;ge&#45;5&#45;2.ds01.dc1&#45;mhd.pulsant.net -->
<g id="edge90" class="edge">
<title>te&#45;0&#45;0&#45;0&#45;0.cr02.dc2&#45;mhd.pulsant.net&#45;&#45;ge&#45;5&#45;2.ds01.dc1&#45;mhd.pulsant.net</title>
<path fill="none" stroke="#000000" d="M3134,-503.8314C3134,-493 3134,-479.2876 3134,-468.4133"/>
</g>
<!-- ge&#45;5&#45;2.ds01.dc1&#45;mhd.pulsant.net&#45;&#45;fnxweb.com # Lair of The Phoenix -->
<g id="edge91" class="edge">
<title>ge&#45;5&#45;2.ds01.dc1&#45;mhd.pulsant.net&#45;&#45;fnxweb.com # Lair of The Phoenix</title>
<path fill="none" stroke="#000000" d="M3134,-431.8314C3134,-421 3134,-407.2876 3134,-396.4133"/>
</g>
<!-- tomahawktechnology.com -->
<g id="node89" class="node">
<title>tomahawktechnology.com</title>
<path fill="#00ff00" stroke="#ffffff" d="M3463,-540C3463,-540 3313,-540 3313,-540 3307,-540 3301,-534 3301,-528 3301,-528 3301,-516 3301,-516 3301,-510 3307,-504 3313,-504 3313,-504 3463,-504 3463,-504 3469,-504 3475,-510 3475,-516 3475,-516 3475,-528 3475,-528 3475,-534 3469,-540 3463,-540"/>
<text text-anchor="middle" x="3388" y="-518.3" font-family="Helvetica,sans-Serif" font-size="14.00" fill="#ffffff">tomahawktechnology.com</text>
</g>
<!-- ip&#45;208&#45;109&#45;115&#45;138.ip.secureserver.net -->
<g id="node91" class="node">
<title>ip&#45;208&#45;109&#45;115&#45;138.ip.secureserver.net</title>
<path fill="#d3d3d3" stroke="#ffffff" d="M3488,-756C3488,-756 3258,-756 3258,-756 3252,-756 3246,-750 3246,-744 3246,-744 3246,-732 3246,-732 3246,-726 3252,-720 3258,-720 3258,-720 3488,-720 3488,-720 3494,-720 3500,-726 3500,-732 3500,-732 3500,-744 3500,-744 3500,-750 3494,-756 3488,-756"/>
<text text-anchor="middle" x="3373" y="-734.3" font-family="Helvetica,sans-Serif" font-size="14.00" fill="#000000">ip&#45;208&#45;109&#45;115&#45;138.ip.secureserver.net</text>
</g>
<!-- THE&#45;GO&#45;DADD.ear3.Amsterdam1.Level3.net&#45;&#45;ip&#45;208&#45;109&#45;115&#45;138.ip.secureserver.net -->
<g id="edge93" class="edge">
<title>THE&#45;GO&#45;DADD.ear3.Amsterdam1.Level3.net&#45;&#45;ip&#45;208&#45;109&#45;115&#45;138.ip.secureserver.net</title>
<path fill="none" stroke="#000000" d="M3368.5141,-791.8314C3369.4167,-781 3370.5594,-767.2876 3371.4656,-756.4133"/>
</g>
<!-- ip&#45;208&#45;109&#45;115&#45;146.ip.secureserver.net -->
<g id="node92" class="node">
<title>ip&#45;208&#45;109&#45;115&#45;146.ip.secureserver.net</title>
<path fill="#d3d3d3" stroke="#ffffff" d="M3494,-684C3494,-684 3264,-684 3264,-684 3258,-684 3252,-678 3252,-672 3252,-672 3252,-660 3252,-660 3252,-654 3258,-648 3264,-648 3264,-648 3494,-648 3494,-648 3500,-648 3506,-654 3506,-660 3506,-660 3506,-672 3506,-672 3506,-678 3500,-684 3494,-684"/>
<text text-anchor="middle" x="3379" y="-662.3" font-family="Helvetica,sans-Serif" font-size="14.00" fill="#000000">ip&#45;208&#45;109&#45;115&#45;146.ip.secureserver.net</text>
</g>
<!-- ip&#45;208&#45;109&#45;115&#45;138.ip.secureserver.net&#45;&#45;ip&#45;208&#45;109&#45;115&#45;146.ip.secureserver.net -->
<g id="edge94" class="edge">
<title>ip&#45;208&#45;109&#45;115&#45;138.ip.secureserver.net&#45;&#45;ip&#45;208&#45;109&#45;115&#45;146.ip.secureserver.net</title>
<path fill="none" stroke="#000000" d="M3374.5141,-719.8314C3375.4167,-709 3376.5594,-695.2876 3377.4656,-684.4133"/>
</g>
<!-- ip&#45;208&#45;109&#45;115&#45;142.ip.secureserver.net -->
<g id="node93" class="node">
<title>ip&#45;208&#45;109&#45;115&#45;142.ip.secureserver.net</title>
<path fill="#d3d3d3" stroke="#ffffff" d="M3503,-612C3503,-612 3273,-612 3273,-612 3267,-612 3261,-606 3261,-600 3261,-600 3261,-588 3261,-588 3261,-582 3267,-576 3273,-576 3273,-576 3503,-576 3503,-576 3509,-576 3515,-582 3515,-588 3515,-588 3515,-600 3515,-600 3515,-606 3509,-612 3503,-612"/>
<text text-anchor="middle" x="3388" y="-590.3" font-family="Helvetica,sans-Serif" font-size="14.00" fill="#000000">ip&#45;208&#45;109&#45;115&#45;142.ip.secureserver.net</text>
</g>
<!-- ip&#45;208&#45;109&#45;115&#45;146.ip.secureserver.net&#45;&#45;ip&#45;208&#45;109&#45;115&#45;142.ip.secureserver.net -->
<g id="edge95" class="edge">
<title>ip&#45;208&#45;109&#45;115&#45;146.ip.secureserver.net&#45;&#45;ip&#45;208&#45;109&#45;115&#45;142.ip.secureserver.net</title>
<path fill="none" stroke="#000000" d="M3381.2711,-647.8314C3382.625,-637 3384.3391,-623.2876 3385.6983,-612.4133"/>
</g>
<!-- ip&#45;208&#45;109&#45;115&#45;142.ip.secureserver.net&#45;&#45;tomahawktechnology.com -->
<g id="edge96" class="edge">
<title>ip&#45;208&#45;109&#45;115&#45;142.ip.secureserver.net&#45;&#45;tomahawktechnology.com</title>
<path fill="none" stroke="#000000" d="M3388,-575.8314C3388,-565 3388,-551.2876 3388,-540.4133"/>
</g>
<!-- 167.98.17.49 -->
<g id="node97" class="node">
<title>167.98.17.49</title>
<path fill="#d3d3d3" stroke="#ffffff" d="M2075.5,-756C2075.5,-756 2004.5,-756 2004.5,-756 1998.5,-756 1992.5,-750 1992.5,-744 1992.5,-744 1992.5,-732 1992.5,-732 1992.5,-726 1998.5,-720 2004.5,-720 2004.5,-720 2075.5,-720 2075.5,-720 2081.5,-720 2087.5,-726 2087.5,-732 2087.5,-732 2087.5,-744 2087.5,-744 2087.5,-750 2081.5,-756 2075.5,-756"/>
<text text-anchor="middle" x="2040" y="-734.3" font-family="Helvetica,sans-Serif" font-size="14.00" fill="#000000">167.98.17.49</text>
</g>
<!-- 1&#45;3&#45;2.pr01.thca.uk.exponential&#45;e.net&#45;&#45;167.98.17.49 -->
<g id="edge99" class="edge">
<title>1&#45;3&#45;2.pr01.thca.uk.exponential&#45;e.net&#45;&#45;167.98.17.49</title>
<path fill="none" stroke="#000000" d="M2007.1031,-791.8314C2013.7222,-781 2022.102,-767.2876 2028.7474,-756.4133"/>
</g>
<!-- 167.98.17.49&#45;&#45;97e7fe2a.skybroadband.com -->
<g id="edge100" class="edge">
<title>167.98.17.49&#45;&#45;97e7fe2a.skybroadband.com</title>
<path fill="none" stroke="#000000" d="M2050.8507,-719.8314C2057.3194,-709 2065.5088,-695.2876 2072.0032,-684.4133"/>
</g>
</g>
</svg>
