<?xml version="1.0" encoding="UTF-8" standalone="no"?>
<!DOCTYPE svg PUBLIC "-//W3C//DTD SVG 1.1//EN"
 "http://www.w3.org/Graphics/SVG/1.1/DTD/svg11.dtd">
<!-- Generated by graphviz version 2.36.0 (20140111.2315)
 -->
<!-- Title: %3 Pages: 1 -->
<svg width="2113pt" height="1075pt"
 viewBox="0.00 0.00 2113.00 1075.00" xmlns="http://www.w3.org/2000/svg" xmlns:xlink="http://www.w3.org/1999/xlink">
<g id="graph0" class="graph" transform="scale(1 1) rotate(0) translate(4 1071)">
<title>%3</title>
<polygon fill="white" stroke="none" points="-4,4 -4,-1071 2109,-1071 2109,4 -4,4"/>
<text text-anchor="middle" x="150" y="-1051.8" font-family="Helvetica,sans-Serif" font-size="14.00">./hosts2dot.sh &#45; Tue Aug &#160;6 13:26:02 UTC 2019</text>
<!-- soy_yo -->
<g id="node1" class="node"><title>soy_yo</title>
<path fill="lightgrey" stroke="white" d="M1389.25,-1044C1389.25,-1044 1088.75,-1044 1088.75,-1044 1082.75,-1044 1076.75,-1038 1076.75,-1032 1076.75,-1032 1076.75,-1020 1076.75,-1020 1076.75,-1014 1082.75,-1008 1088.75,-1008 1088.75,-1008 1389.25,-1008 1389.25,-1008 1395.25,-1008 1401.25,-1014 1401.25,-1020 1401.25,-1020 1401.25,-1032 1401.25,-1032 1401.25,-1038 1395.25,-1044 1389.25,-1044"/>
<text text-anchor="middle" x="1239" y="-1022.3" font-family="Helvetica,sans-Serif" font-size="14.00">travis&#45;job&#45;2ba99967&#45;9a7e&#45;47ed&#45;bcd5&#45;72cff49a3648</text>
</g>
<!-- localhost -->
<g id="node3" class="node"><title>localhost</title>
<path fill="lightgrey" stroke="white" d="M247,-972C247,-972 201,-972 201,-972 195,-972 189,-966 189,-960 189,-960 189,-948 189,-948 189,-942 195,-936 201,-936 201,-936 247,-936 247,-936 253,-936 259,-942 259,-948 259,-948 259,-960 259,-960 259,-966 253,-972 247,-972"/>
<text text-anchor="middle" x="224" y="-950.3" font-family="Helvetica,sans-Serif" font-size="14.00">localhost</text>
</g>
<!-- soy_yo&#45;&#45;localhost -->
<g id="edge1" class="edge"><title>soy_yo&#45;&#45;localhost</title>
<path fill="none" stroke="black" d="M1076.41,-1017.6C902.23,-1009.08 617.776,-993.439 373,-972 333.965,-968.581 289.33,-963.307 259.171,-959.54"/>
</g>
<!-- 216.239.59.150 -->
<g id="node5" class="node"><title>216.239.59.150</title>
<path fill="lightgrey" stroke="white" d="M480,-972C480,-972 394,-972 394,-972 388,-972 382,-966 382,-960 382,-960 382,-948 382,-948 382,-942 388,-936 394,-936 394,-936 480,-936 480,-936 486,-936 492,-942 492,-948 492,-948 492,-960 492,-960 492,-966 486,-972 480,-972"/>
<text text-anchor="middle" x="437" y="-950.3" font-family="Helvetica,sans-Serif" font-size="14.00">216.239.59.150</text>
</g>
<!-- soy_yo&#45;&#45;216.239.59.150 -->
<g id="edge3" class="edge"><title>soy_yo&#45;&#45;216.239.59.150</title>
<path fill="none" stroke="black" d="M1076.7,-1010.83C895.222,-994.994 611.183,-970.203 492.268,-959.824"/>
</g>
<!-- 216.239.59.162 -->
<g id="node14" class="node"><title>216.239.59.162</title>
<path fill="lightgrey" stroke="white" d="M935,-972C935,-972 849,-972 849,-972 843,-972 837,-966 837,-960 837,-960 837,-948 837,-948 837,-942 843,-936 849,-936 849,-936 935,-936 935,-936 941,-936 947,-942 947,-948 947,-948 947,-960 947,-960 947,-966 941,-972 935,-972"/>
<text text-anchor="middle" x="892" y="-950.3" font-family="Helvetica,sans-Serif" font-size="14.00">216.239.59.162</text>
</g>
<!-- soy_yo&#45;&#45;216.239.59.162 -->
<g id="edge13" class="edge"><title>soy_yo&#45;&#45;216.239.59.162</title>
<path fill="none" stroke="black" d="M1154.56,-1007.97C1090.06,-994.955 1003.04,-977.4 947.209,-966.137"/>
</g>
<!-- 209.85.250.9 -->
<g id="node18" class="node"><title>209.85.250.9</title>
<path fill="lightgrey" stroke="white" d="M1214.25,-972C1214.25,-972 1143.75,-972 1143.75,-972 1137.75,-972 1131.75,-966 1131.75,-960 1131.75,-960 1131.75,-948 1131.75,-948 1131.75,-942 1137.75,-936 1143.75,-936 1143.75,-936 1214.25,-936 1214.25,-936 1220.25,-936 1226.25,-942 1226.25,-948 1226.25,-948 1226.25,-960 1226.25,-960 1226.25,-966 1220.25,-972 1214.25,-972"/>
<text text-anchor="middle" x="1179" y="-950.3" font-family="Helvetica,sans-Serif" font-size="14.00">209.85.250.9</text>
</g>
<!-- soy_yo&#45;&#45;209.85.250.9 -->
<g id="edge17" class="edge"><title>soy_yo&#45;&#45;209.85.250.9</title>
<path fill="none" stroke="black" d="M1224.17,-1007.7C1214.87,-996.846 1202.93,-982.917 1193.66,-972.104"/>
</g>
<!-- 216.239.57.197 -->
<g id="node28" class="node"><title>216.239.57.197</title>
<path fill="lightgrey" stroke="white" d="M1343,-972C1343,-972 1257,-972 1257,-972 1251,-972 1245,-966 1245,-960 1245,-960 1245,-948 1245,-948 1245,-942 1251,-936 1257,-936 1257,-936 1343,-936 1343,-936 1349,-936 1355,-942 1355,-948 1355,-948 1355,-960 1355,-960 1355,-966 1349,-972 1343,-972"/>
<text text-anchor="middle" x="1300" y="-950.3" font-family="Helvetica,sans-Serif" font-size="14.00">216.239.57.197</text>
</g>
<!-- soy_yo&#45;&#45;216.239.57.197 -->
<g id="edge27" class="edge"><title>soy_yo&#45;&#45;216.239.57.197</title>
<path fill="none" stroke="black" d="M1254.08,-1007.7C1263.53,-996.846 1275.67,-982.917 1285.09,-972.104"/>
</g>
<!-- 209.85.250.141 -->
<g id="node39" class="node"><title>209.85.250.141</title>
<path fill="lightgrey" stroke="white" d="M1471,-972C1471,-972 1385,-972 1385,-972 1379,-972 1373,-966 1373,-960 1373,-960 1373,-948 1373,-948 1373,-942 1379,-936 1385,-936 1385,-936 1471,-936 1471,-936 1477,-936 1483,-942 1483,-948 1483,-948 1483,-960 1483,-960 1483,-966 1477,-972 1471,-972"/>
<text text-anchor="middle" x="1428" y="-950.3" font-family="Helvetica,sans-Serif" font-size="14.00">209.85.250.141</text>
</g>
<!-- soy_yo&#45;&#45;209.85.250.141 -->
<g id="edge39" class="edge"><title>soy_yo&#45;&#45;209.85.250.141</title>
<path fill="none" stroke="black" d="M1285.23,-1007.88C1314.63,-996.988 1352.55,-982.945 1381.92,-972.068"/>
</g>
<!-- turpin.dev # My website -->
<g id="node71" class="node"><title>turpin.dev # My website</title>
<path fill="green" stroke="white" d="M1666.25,-972C1666.25,-972 1531.75,-972 1531.75,-972 1525.75,-972 1519.75,-966 1519.75,-960 1519.75,-960 1519.75,-948 1519.75,-948 1519.75,-942 1525.75,-936 1531.75,-936 1531.75,-936 1666.25,-936 1666.25,-936 1672.25,-936 1678.25,-942 1678.25,-948 1678.25,-948 1678.25,-960 1678.25,-960 1678.25,-966 1672.25,-972 1666.25,-972"/>
<text text-anchor="middle" x="1599" y="-950.3" font-family="Helvetica,sans-Serif" font-size="14.00" fill="white">turpin.dev # My website</text>
</g>
<!-- soy_yo&#45;&#45;turpin.dev # My website -->
<g id="edge73" class="edge"><title>soy_yo&#45;&#45;turpin.dev # My website</title>
<path fill="none" stroke="black" d="M1326.61,-1007.97C1385.51,-996.513 1462.51,-981.539 1519.62,-970.435"/>
</g>
<g id="node90" class="node"><title></title>
<path fill="red" stroke="white" d="M1738,-972C1738,-972 1708,-972 1708,-972 1702,-972 1696,-966 1696,-960 1696,-960 1696,-948 1696,-948 1696,-942 1702,-936 1708,-936 1708,-936 1738,-936 1738,-936 1744,-936 1750,-942 1750,-948 1750,-948 1750,-960 1750,-960 1750,-966 1744,-972 1738,-972"/>
</g>
<!-- soy_yo&#45;&#45; -->
<g id="edge93" class="edge"><title>soy_yo&#45;&#45;</title>
<path fill="none" stroke="black" d="M1401.4,-1018.45C1487.58,-1011.82 1594.5,-998.546 1687,-972 1689.92,-971.161 1692.91,-970.108 1695.84,-968.94"/>
</g>
<!-- 127.0.0.1 localhost # for local people -->
<g id="node2" class="node"><title>127.0.0.1 localhost # for local people</title>
<path fill="green" stroke="white" d="M224,-900C224,-900 12,-900 12,-900 6,-900 0,-894 0,-888 0,-888 0,-876 0,-876 0,-870 6,-864 12,-864 12,-864 224,-864 224,-864 230,-864 236,-870 236,-876 236,-876 236,-888 236,-888 236,-894 230,-900 224,-900"/>
<text text-anchor="middle" x="118" y="-878.3" font-family="Helvetica,sans-Serif" font-size="14.00" fill="white">127.0.0.1 localhost # for local people</text>
</g>
<!-- localhost&#45;&#45;127.0.0.1 localhost # for local people -->
<g id="edge2" class="edge"><title>localhost&#45;&#45;127.0.0.1 localhost # for local people</title>
<path fill="none" stroke="black" d="M198.069,-935.876C181.643,-925.029 160.475,-911.05 144.03,-900.19"/>
</g>
<!-- duckduckgo.com -->
<g id="node4" class="node"><title>duckduckgo.com</title>
<path fill="red" stroke="white" d="M305.25,-396C305.25,-396 210.75,-396 210.75,-396 204.75,-396 198.75,-390 198.75,-384 198.75,-384 198.75,-372 198.75,-372 198.75,-366 204.75,-360 210.75,-360 210.75,-360 305.25,-360 305.25,-360 311.25,-360 317.25,-366 317.25,-372 317.25,-372 317.25,-384 317.25,-384 317.25,-390 311.25,-396 305.25,-396"/>
<text text-anchor="middle" x="258" y="-374.3" font-family="Helvetica,sans-Serif" font-size="14.00" fill="white">duckduckgo.com</text>
</g>
<!-- 216.239.59.150&#45;&#45;216.239.59.150 -->
<g id="edge4" class="edge"><title>216.239.59.150&#45;&#45;216.239.59.150</title>
<path fill="none" stroke="black" d="M492.073,-966.854C502.574,-965.316 510,-961.031 510,-954 510,-946.969 502.574,-942.684 492.073,-941.146"/>
</g>
<!-- 108.170.244.18 -->
<g id="node6" class="node"><title>108.170.244.18</title>
<path fill="lightgrey" stroke="white" d="M352,-900C352,-900 266,-900 266,-900 260,-900 254,-894 254,-888 254,-888 254,-876 254,-876 254,-870 260,-864 266,-864 266,-864 352,-864 352,-864 358,-864 364,-870 364,-876 364,-876 364,-888 364,-888 364,-894 358,-900 352,-900"/>
<text text-anchor="middle" x="309" y="-878.3" font-family="Helvetica,sans-Serif" font-size="14.00">108.170.244.18</text>
</g>
<!-- 216.239.59.150&#45;&#45;108.170.244.18 -->
<g id="edge5" class="edge"><title>216.239.59.150&#45;&#45;108.170.244.18</title>
<path fill="none" stroke="black" d="M405.688,-935.876C385.852,-925.029 360.291,-911.05 340.433,-900.19"/>
</g>
<!-- 209.85.250.147 -->
<g id="node63" class="node"><title>209.85.250.147</title>
<path fill="lightgrey" stroke="white" d="M480,-900C480,-900 394,-900 394,-900 388,-900 382,-894 382,-888 382,-888 382,-876 382,-876 382,-870 388,-864 394,-864 394,-864 480,-864 480,-864 486,-864 492,-870 492,-876 492,-876 492,-888 492,-888 492,-894 486,-900 480,-900"/>
<text text-anchor="middle" x="437" y="-878.3" font-family="Helvetica,sans-Serif" font-size="14.00">209.85.250.147</text>
</g>
<!-- 216.239.59.150&#45;&#45;209.85.250.147 -->
<g id="edge64" class="edge"><title>216.239.59.150&#45;&#45;209.85.250.147</title>
<path fill="none" stroke="black" d="M437,-935.697C437,-924.846 437,-910.917 437,-900.104"/>
</g>
<!-- 52.93.249.83 -->
<g id="node7" class="node"><title>52.93.249.83</title>
<path fill="lightgrey" stroke="white" d="M296.25,-828C296.25,-828 225.75,-828 225.75,-828 219.75,-828 213.75,-822 213.75,-816 213.75,-816 213.75,-804 213.75,-804 213.75,-798 219.75,-792 225.75,-792 225.75,-792 296.25,-792 296.25,-792 302.25,-792 308.25,-798 308.25,-804 308.25,-804 308.25,-816 308.25,-816 308.25,-822 302.25,-828 296.25,-828"/>
<text text-anchor="middle" x="261" y="-806.3" font-family="Helvetica,sans-Serif" font-size="14.00">52.93.249.83</text>
</g>
<!-- 108.170.244.18&#45;&#45;52.93.249.83 -->
<g id="edge6" class="edge"><title>108.170.244.18&#45;&#45;52.93.249.83</title>
<path fill="none" stroke="black" d="M297.135,-863.697C289.695,-852.846 280.143,-838.917 272.729,-828.104"/>
</g>
<!-- 52.95.62.31 -->
<g id="node8" class="node"><title>52.95.62.31</title>
<path fill="lightgrey" stroke="white" d="M289.5,-756C289.5,-756 226.5,-756 226.5,-756 220.5,-756 214.5,-750 214.5,-744 214.5,-744 214.5,-732 214.5,-732 214.5,-726 220.5,-720 226.5,-720 226.5,-720 289.5,-720 289.5,-720 295.5,-720 301.5,-726 301.5,-732 301.5,-732 301.5,-744 301.5,-744 301.5,-750 295.5,-756 289.5,-756"/>
<text text-anchor="middle" x="258" y="-734.3" font-family="Helvetica,sans-Serif" font-size="14.00">52.95.62.31</text>
</g>
<!-- 52.93.249.83&#45;&#45;52.95.62.31 -->
<g id="edge7" class="edge"><title>52.93.249.83&#45;&#45;52.95.62.31</title>
<path fill="none" stroke="black" d="M260.258,-791.697C259.793,-780.846 259.196,-766.917 258.733,-756.104"/>
</g>
<!-- 54.239.42.73 -->
<g id="node9" class="node"><title>54.239.42.73</title>
<path fill="lightgrey" stroke="white" d="M293.25,-684C293.25,-684 222.75,-684 222.75,-684 216.75,-684 210.75,-678 210.75,-672 210.75,-672 210.75,-660 210.75,-660 210.75,-654 216.75,-648 222.75,-648 222.75,-648 293.25,-648 293.25,-648 299.25,-648 305.25,-654 305.25,-660 305.25,-660 305.25,-672 305.25,-672 305.25,-678 299.25,-684 293.25,-684"/>
<text text-anchor="middle" x="258" y="-662.3" font-family="Helvetica,sans-Serif" font-size="14.00">54.239.42.73</text>
</g>
<!-- 52.95.62.31&#45;&#45;54.239.42.73 -->
<g id="edge8" class="edge"><title>52.95.62.31&#45;&#45;54.239.42.73</title>
<path fill="none" stroke="black" d="M258,-719.697C258,-708.846 258,-694.917 258,-684.104"/>
</g>
<!-- 52.93.131.182 -->
<g id="node10" class="node"><title>52.93.131.182</title>
<path fill="lightgrey" stroke="white" d="M297.25,-612C297.25,-612 218.75,-612 218.75,-612 212.75,-612 206.75,-606 206.75,-600 206.75,-600 206.75,-588 206.75,-588 206.75,-582 212.75,-576 218.75,-576 218.75,-576 297.25,-576 297.25,-576 303.25,-576 309.25,-582 309.25,-588 309.25,-588 309.25,-600 309.25,-600 309.25,-606 303.25,-612 297.25,-612"/>
<text text-anchor="middle" x="258" y="-590.3" font-family="Helvetica,sans-Serif" font-size="14.00">52.93.131.182</text>
</g>
<!-- 54.239.42.73&#45;&#45;52.93.131.182 -->
<g id="edge9" class="edge"><title>54.239.42.73&#45;&#45;52.93.131.182</title>
<path fill="none" stroke="black" d="M258,-647.697C258,-636.846 258,-622.917 258,-612.104"/>
</g>
<!-- 54.240.229.167 -->
<g id="node11" class="node"><title>54.240.229.167</title>
<path fill="lightgrey" stroke="white" d="M301,-540C301,-540 215,-540 215,-540 209,-540 203,-534 203,-528 203,-528 203,-516 203,-516 203,-510 209,-504 215,-504 215,-504 301,-504 301,-504 307,-504 313,-510 313,-516 313,-516 313,-528 313,-528 313,-534 307,-540 301,-540"/>
<text text-anchor="middle" x="258" y="-518.3" font-family="Helvetica,sans-Serif" font-size="14.00">54.240.229.167</text>
</g>
<!-- 52.93.131.182&#45;&#45;54.240.229.167 -->
<g id="edge10" class="edge"><title>52.93.131.182&#45;&#45;54.240.229.167</title>
<path fill="none" stroke="black" d="M258,-575.697C258,-564.846 258,-550.917 258,-540.104"/>
</g>
<!-- 52.93.28.234 -->
<g id="node12" class="node"><title>52.93.28.234</title>
<path fill="lightgrey" stroke="white" d="M293.25,-468C293.25,-468 222.75,-468 222.75,-468 216.75,-468 210.75,-462 210.75,-456 210.75,-456 210.75,-444 210.75,-444 210.75,-438 216.75,-432 222.75,-432 222.75,-432 293.25,-432 293.25,-432 299.25,-432 305.25,-438 305.25,-444 305.25,-444 305.25,-456 305.25,-456 305.25,-462 299.25,-468 293.25,-468"/>
<text text-anchor="middle" x="258" y="-446.3" font-family="Helvetica,sans-Serif" font-size="14.00">52.93.28.234</text>
</g>
<!-- 54.240.229.167&#45;&#45;52.93.28.234 -->
<g id="edge11" class="edge"><title>54.240.229.167&#45;&#45;52.93.28.234</title>
<path fill="none" stroke="black" d="M258,-503.697C258,-492.846 258,-478.917 258,-468.104"/>
</g>
<!-- 52.93.28.234&#45;&#45;duckduckgo.com -->
<g id="edge12" class="edge"><title>52.93.28.234&#45;&#45;duckduckgo.com</title>
<path fill="none" stroke="black" d="M258,-431.697C258,-420.846 258,-406.917 258,-396.104"/>
</g>
<!-- infinityfoods.coop # Organic food -->
<g id="node13" class="node"><title>infinityfoods.coop # Organic food</title>
<path fill="green" stroke="white" d="M677.5,-756C677.5,-756 488.5,-756 488.5,-756 482.5,-756 476.5,-750 476.5,-744 476.5,-744 476.5,-732 476.5,-732 476.5,-726 482.5,-720 488.5,-720 488.5,-720 677.5,-720 677.5,-720 683.5,-720 689.5,-726 689.5,-732 689.5,-732 689.5,-744 689.5,-744 689.5,-750 683.5,-756 677.5,-756"/>
<text text-anchor="middle" x="583" y="-734.3" font-family="Helvetica,sans-Serif" font-size="14.00" fill="white">infinityfoods.coop # Organic food</text>
</g>
<!-- 216.239.59.162&#45;&#45;216.239.59.162 -->
<g id="edge84" class="edge"><title>216.239.59.162&#45;&#45;216.239.59.162</title>
<path fill="none" stroke="black" d="M947.073,-966.854C957.574,-965.316 965,-961.031 965,-954 965,-946.969 957.574,-942.684 947.073,-941.146"/>
</g>
<!-- 209.85.254.95 -->
<g id="node15" class="node"><title>209.85.254.95</title>
<path fill="lightgrey" stroke="white" d="M648.25,-900C648.25,-900 569.75,-900 569.75,-900 563.75,-900 557.75,-894 557.75,-888 557.75,-888 557.75,-876 557.75,-876 557.75,-870 563.75,-864 569.75,-864 569.75,-864 648.25,-864 648.25,-864 654.25,-864 660.25,-870 660.25,-876 660.25,-876 660.25,-888 660.25,-888 660.25,-894 654.25,-900 648.25,-900"/>
<text text-anchor="middle" x="609" y="-878.3" font-family="Helvetica,sans-Serif" font-size="14.00">209.85.254.95</text>
</g>
<!-- 216.239.59.162&#45;&#45;209.85.254.95 -->
<g id="edge14" class="edge"><title>216.239.59.162&#45;&#45;209.85.254.95</title>
<path fill="none" stroke="black" d="M836.763,-939.337C785.611,-926.685 710.138,-908.016 660.288,-895.686"/>
</g>
<!-- 209.85.250.145 -->
<g id="node53" class="node"><title>209.85.250.145</title>
<path fill="lightgrey" stroke="white" d="M803,-900C803,-900 717,-900 717,-900 711,-900 705,-894 705,-888 705,-888 705,-876 705,-876 705,-870 711,-864 717,-864 717,-864 803,-864 803,-864 809,-864 815,-870 815,-876 815,-876 815,-888 815,-888 815,-894 809,-900 803,-900"/>
<text text-anchor="middle" x="760" y="-878.3" font-family="Helvetica,sans-Serif" font-size="14.00">209.85.250.145</text>
</g>
<!-- 216.239.59.162&#45;&#45;209.85.250.145 -->
<g id="edge54" class="edge"><title>216.239.59.162&#45;&#45;209.85.250.145</title>
<path fill="none" stroke="black" d="M859.709,-935.876C839.254,-925.029 812.894,-911.05 792.415,-900.19"/>
</g>
<!-- 216.239.63.174 -->
<g id="node66" class="node"><title>216.239.63.174</title>
<path fill="lightgrey" stroke="white" d="M935,-900C935,-900 849,-900 849,-900 843,-900 837,-894 837,-888 837,-888 837,-876 837,-876 837,-870 843,-864 849,-864 849,-864 935,-864 935,-864 941,-864 947,-870 947,-876 947,-876 947,-888 947,-888 947,-894 941,-900 935,-900"/>
<text text-anchor="middle" x="892" y="-878.3" font-family="Helvetica,sans-Serif" font-size="14.00">216.239.63.174</text>
</g>
<!-- 216.239.59.162&#45;&#45;216.239.63.174 -->
<g id="edge67" class="edge"><title>216.239.59.162&#45;&#45;216.239.63.174</title>
<path fill="none" stroke="black" d="M892,-935.697C892,-924.846 892,-910.917 892,-900.104"/>
</g>
<!-- 108.170.243.215 -->
<g id="node83" class="node"><title>108.170.243.215</title>
<path fill="lightgrey" stroke="white" d="M1093,-900C1093,-900 999,-900 999,-900 993,-900 987,-894 987,-888 987,-888 987,-876 987,-876 987,-870 993,-864 999,-864 999,-864 1093,-864 1093,-864 1099,-864 1105,-870 1105,-876 1105,-876 1105,-888 1105,-888 1105,-894 1099,-900 1093,-900"/>
<text text-anchor="middle" x="1046" y="-878.3" font-family="Helvetica,sans-Serif" font-size="14.00">108.170.243.215</text>
</g>
<!-- 216.239.59.162&#45;&#45;108.170.243.215 -->
<g id="edge85" class="edge"><title>216.239.59.162&#45;&#45;108.170.243.215</title>
<path fill="none" stroke="black" d="M929.673,-935.876C953.626,-924.988 984.52,-910.945 1008.45,-900.068"/>
</g>
<!-- 108.170.244.16 -->
<g id="node16" class="node"><title>108.170.244.16</title>
<path fill="lightgrey" stroke="white" d="M639,-828C639,-828 553,-828 553,-828 547,-828 541,-822 541,-816 541,-816 541,-804 541,-804 541,-798 547,-792 553,-792 553,-792 639,-792 639,-792 645,-792 651,-798 651,-804 651,-804 651,-816 651,-816 651,-822 645,-828 639,-828"/>
<text text-anchor="middle" x="596" y="-806.3" font-family="Helvetica,sans-Serif" font-size="14.00">108.170.244.16</text>
</g>
<!-- 209.85.254.95&#45;&#45;108.170.244.16 -->
<g id="edge15" class="edge"><title>209.85.254.95&#45;&#45;108.170.244.16</title>
<path fill="none" stroke="black" d="M605.787,-863.697C603.771,-852.846 601.185,-838.917 599.177,-828.104"/>
</g>
<!-- 108.170.244.16&#45;&#45;infinityfoods.coop # Organic food -->
<g id="edge16" class="edge"><title>108.170.244.16&#45;&#45;infinityfoods.coop # Organic food</title>
<path fill="none" stroke="black" d="M592.787,-791.697C590.771,-780.846 588.185,-766.917 586.177,-756.104"/>
</g>
<!-- silobrighton.com # RIP :( -->
<g id="node17" class="node"><title>silobrighton.com # RIP :(</title>
<path fill="red" stroke="white" d="M1112.25,-324C1112.25,-324 971.75,-324 971.75,-324 965.75,-324 959.75,-318 959.75,-312 959.75,-312 959.75,-300 959.75,-300 959.75,-294 965.75,-288 971.75,-288 971.75,-288 1112.25,-288 1112.25,-288 1118.25,-288 1124.25,-294 1124.25,-300 1124.25,-300 1124.25,-312 1124.25,-312 1124.25,-318 1118.25,-324 1112.25,-324"/>
<text text-anchor="middle" x="1042" y="-302.3" font-family="Helvetica,sans-Serif" font-size="14.00" fill="white">silobrighton.com # RIP :(</text>
</g>
<!-- 216.239.58.255 -->
<g id="node19" class="node"><title>216.239.58.255</title>
<path fill="lightgrey" stroke="white" d="M1283,-900C1283,-900 1197,-900 1197,-900 1191,-900 1185,-894 1185,-888 1185,-888 1185,-876 1185,-876 1185,-870 1191,-864 1197,-864 1197,-864 1283,-864 1283,-864 1289,-864 1295,-870 1295,-876 1295,-876 1295,-888 1295,-888 1295,-894 1289,-900 1283,-900"/>
<text text-anchor="middle" x="1240" y="-878.3" font-family="Helvetica,sans-Serif" font-size="14.00">216.239.58.255</text>
</g>
<!-- 209.85.250.9&#45;&#45;216.239.58.255 -->
<g id="edge18" class="edge"><title>209.85.250.9&#45;&#45;216.239.58.255</title>
<path fill="none" stroke="black" d="M1194.08,-935.697C1203.53,-924.846 1215.67,-910.917 1225.09,-900.104"/>
</g>
<!-- 172.253.65.177 -->
<g id="node20" class="node"><title>172.253.65.177</title>
<path fill="lightgrey" stroke="white" d="M1283,-828C1283,-828 1197,-828 1197,-828 1191,-828 1185,-822 1185,-816 1185,-816 1185,-804 1185,-804 1185,-798 1191,-792 1197,-792 1197,-792 1283,-792 1283,-792 1289,-792 1295,-798 1295,-804 1295,-804 1295,-816 1295,-816 1295,-822 1289,-828 1283,-828"/>
<text text-anchor="middle" x="1240" y="-806.3" font-family="Helvetica,sans-Serif" font-size="14.00">172.253.65.177</text>
</g>
<!-- 216.239.58.255&#45;&#45;172.253.65.177 -->
<g id="edge19" class="edge"><title>216.239.58.255&#45;&#45;172.253.65.177</title>
<path fill="none" stroke="black" d="M1240,-863.697C1240,-852.846 1240,-838.917 1240,-828.104"/>
</g>
<!-- 216.239.57.226 -->
<g id="node21" class="node"><title>216.239.57.226</title>
<path fill="lightgrey" stroke="white" d="M1153,-756C1153,-756 1067,-756 1067,-756 1061,-756 1055,-750 1055,-744 1055,-744 1055,-732 1055,-732 1055,-726 1061,-720 1067,-720 1067,-720 1153,-720 1153,-720 1159,-720 1165,-726 1165,-732 1165,-732 1165,-744 1165,-744 1165,-750 1159,-756 1153,-756"/>
<text text-anchor="middle" x="1110" y="-734.3" font-family="Helvetica,sans-Serif" font-size="14.00">216.239.57.226</text>
</g>
<!-- 172.253.65.177&#45;&#45;216.239.57.226 -->
<g id="edge20" class="edge"><title>172.253.65.177&#45;&#45;216.239.57.226</title>
<path fill="none" stroke="black" d="M1208.2,-791.876C1188.05,-781.029 1162.09,-767.05 1141.92,-756.19"/>
</g>
<!-- 209.85.142.166 -->
<g id="node29" class="node"><title>209.85.142.166</title>
<path fill="lightgrey" stroke="white" d="M1283,-756C1283,-756 1197,-756 1197,-756 1191,-756 1185,-750 1185,-744 1185,-744 1185,-732 1185,-732 1185,-726 1191,-720 1197,-720 1197,-720 1283,-720 1283,-720 1289,-720 1295,-726 1295,-732 1295,-732 1295,-744 1295,-744 1295,-750 1289,-756 1283,-756"/>
<text text-anchor="middle" x="1240" y="-734.3" font-family="Helvetica,sans-Serif" font-size="14.00">209.85.142.166</text>
</g>
<!-- 172.253.65.177&#45;&#45;209.85.142.166 -->
<g id="edge29" class="edge"><title>172.253.65.177&#45;&#45;209.85.142.166</title>
<path fill="none" stroke="black" d="M1240,-791.697C1240,-780.846 1240,-766.917 1240,-756.104"/>
</g>
<!-- 108.170.246.177 -->
<g id="node22" class="node"><title>108.170.246.177</title>
<path fill="lightgrey" stroke="white" d="M1150,-684C1150,-684 1056,-684 1056,-684 1050,-684 1044,-678 1044,-672 1044,-672 1044,-660 1044,-660 1044,-654 1050,-648 1056,-648 1056,-648 1150,-648 1150,-648 1156,-648 1162,-654 1162,-660 1162,-660 1162,-672 1162,-672 1162,-678 1156,-684 1150,-684"/>
<text text-anchor="middle" x="1103" y="-662.3" font-family="Helvetica,sans-Serif" font-size="14.00">108.170.246.177</text>
</g>
<!-- 216.239.57.226&#45;&#45;108.170.246.177 -->
<g id="edge21" class="edge"><title>216.239.57.226&#45;&#45;108.170.246.177</title>
<path fill="none" stroke="black" d="M1108.27,-719.697C1107.18,-708.846 1105.79,-694.917 1104.71,-684.104"/>
</g>
<!-- 4d&#45;dc&#45;gw&#45;a.lonap.net -->
<g id="node23" class="node"><title>4d&#45;dc&#45;gw&#45;a.lonap.net</title>
<path fill="lightgrey" stroke="white" d="M1114.25,-612C1114.25,-612 995.75,-612 995.75,-612 989.75,-612 983.75,-606 983.75,-600 983.75,-600 983.75,-588 983.75,-588 983.75,-582 989.75,-576 995.75,-576 995.75,-576 1114.25,-576 1114.25,-576 1120.25,-576 1126.25,-582 1126.25,-588 1126.25,-588 1126.25,-600 1126.25,-600 1126.25,-606 1120.25,-612 1114.25,-612"/>
<text text-anchor="middle" x="1055" y="-590.3" font-family="Helvetica,sans-Serif" font-size="14.00">4d&#45;dc&#45;gw&#45;a.lonap.net</text>
</g>
<!-- 108.170.246.177&#45;&#45;4d&#45;dc&#45;gw&#45;a.lonap.net -->
<g id="edge22" class="edge"><title>108.170.246.177&#45;&#45;4d&#45;dc&#45;gw&#45;a.lonap.net</title>
<path fill="none" stroke="black" d="M1091.13,-647.697C1083.69,-636.846 1074.14,-622.917 1066.73,-612.104"/>
</g>
<!-- 4d&#45;thn&#45;bbr1&#45;003.4d&#45;dc.com -->
<g id="node24" class="node"><title>4d&#45;thn&#45;bbr1&#45;003.4d&#45;dc.com</title>
<path fill="lightgrey" stroke="white" d="M1130.25,-540C1130.25,-540 973.75,-540 973.75,-540 967.75,-540 961.75,-534 961.75,-528 961.75,-528 961.75,-516 961.75,-516 961.75,-510 967.75,-504 973.75,-504 973.75,-504 1130.25,-504 1130.25,-504 1136.25,-504 1142.25,-510 1142.25,-516 1142.25,-516 1142.25,-528 1142.25,-528 1142.25,-534 1136.25,-540 1130.25,-540"/>
<text text-anchor="middle" x="1052" y="-518.3" font-family="Helvetica,sans-Serif" font-size="14.00">4d&#45;thn&#45;bbr1&#45;003.4d&#45;dc.com</text>
</g>
<!-- 4d&#45;dc&#45;gw&#45;a.lonap.net&#45;&#45;4d&#45;thn&#45;bbr1&#45;003.4d&#45;dc.com -->
<g id="edge23" class="edge"><title>4d&#45;dc&#45;gw&#45;a.lonap.net&#45;&#45;4d&#45;thn&#45;bbr1&#45;003.4d&#45;dc.com</title>
<path fill="none" stroke="black" d="M1054.26,-575.697C1053.79,-564.846 1053.2,-550.917 1052.73,-540.104"/>
</g>
<!-- lgw&#45;bbr&#45;2&#45;0026.4d&#45;dc.com -->
<g id="node25" class="node"><title>lgw&#45;bbr&#45;2&#45;0026.4d&#45;dc.com</title>
<path fill="lightgrey" stroke="white" d="M1122.25,-468C1122.25,-468 971.75,-468 971.75,-468 965.75,-468 959.75,-462 959.75,-456 959.75,-456 959.75,-444 959.75,-444 959.75,-438 965.75,-432 971.75,-432 971.75,-432 1122.25,-432 1122.25,-432 1128.25,-432 1134.25,-438 1134.25,-444 1134.25,-444 1134.25,-456 1134.25,-456 1134.25,-462 1128.25,-468 1122.25,-468"/>
<text text-anchor="middle" x="1047" y="-446.3" font-family="Helvetica,sans-Serif" font-size="14.00">lgw&#45;bbr&#45;2&#45;0026.4d&#45;dc.com</text>
</g>
<!-- 4d&#45;thn&#45;bbr1&#45;003.4d&#45;dc.com&#45;&#45;lgw&#45;bbr&#45;2&#45;0026.4d&#45;dc.com -->
<g id="edge24" class="edge"><title>4d&#45;thn&#45;bbr1&#45;003.4d&#45;dc.com&#45;&#45;lgw&#45;bbr&#45;2&#45;0026.4d&#45;dc.com</title>
<path fill="none" stroke="black" d="M1050.76,-503.697C1049.99,-492.846 1048.99,-478.917 1048.22,-468.104"/>
</g>
<!-- 4d&#45;lgw&#45;men&#45;2&#45;024.4d&#45;dc.com -->
<g id="node26" class="node"><title>4d&#45;lgw&#45;men&#45;2&#45;024.4d&#45;dc.com</title>
<path fill="lightgrey" stroke="white" d="M1126.5,-396C1126.5,-396 957.5,-396 957.5,-396 951.5,-396 945.5,-390 945.5,-384 945.5,-384 945.5,-372 945.5,-372 945.5,-366 951.5,-360 957.5,-360 957.5,-360 1126.5,-360 1126.5,-360 1132.5,-360 1138.5,-366 1138.5,-372 1138.5,-372 1138.5,-384 1138.5,-384 1138.5,-390 1132.5,-396 1126.5,-396"/>
<text text-anchor="middle" x="1042" y="-374.3" font-family="Helvetica,sans-Serif" font-size="14.00">4d&#45;lgw&#45;men&#45;2&#45;024.4d&#45;dc.com</text>
</g>
<!-- lgw&#45;bbr&#45;2&#45;0026.4d&#45;dc.com&#45;&#45;4d&#45;lgw&#45;men&#45;2&#45;024.4d&#45;dc.com -->
<g id="edge25" class="edge"><title>lgw&#45;bbr&#45;2&#45;0026.4d&#45;dc.com&#45;&#45;4d&#45;lgw&#45;men&#45;2&#45;024.4d&#45;dc.com</title>
<path fill="none" stroke="black" d="M1045.76,-431.697C1044.99,-420.846 1043.99,-406.917 1043.22,-396.104"/>
</g>
<!-- 4d&#45;lgw&#45;men&#45;2&#45;024.4d&#45;dc.com&#45;&#45;silobrighton.com # RIP :( -->
<g id="edge26" class="edge"><title>4d&#45;lgw&#45;men&#45;2&#45;024.4d&#45;dc.com&#45;&#45;silobrighton.com # RIP :(</title>
<path fill="none" stroke="black" d="M1042,-359.697C1042,-348.846 1042,-334.917 1042,-324.104"/>
</g>
<!-- rate.sx # Command line crypto ticker -->
<g id="node27" class="node"><title>rate.sx # Command line crypto ticker</title>
<path fill="green" stroke="white" d="M1345.25,-108C1345.25,-108 1132.75,-108 1132.75,-108 1126.75,-108 1120.75,-102 1120.75,-96 1120.75,-96 1120.75,-84 1120.75,-84 1120.75,-78 1126.75,-72 1132.75,-72 1132.75,-72 1345.25,-72 1345.25,-72 1351.25,-72 1357.25,-78 1357.25,-84 1357.25,-84 1357.25,-96 1357.25,-96 1357.25,-102 1351.25,-108 1345.25,-108"/>
<text text-anchor="middle" x="1239" y="-86.3" font-family="Helvetica,sans-Serif" font-size="14.00" fill="white">rate.sx # Command line crypto ticker</text>
</g>
<!-- 216.239.57.197&#45;&#45;216.239.58.255 -->
<g id="edge28" class="edge"><title>216.239.57.197&#45;&#45;216.239.58.255</title>
<path fill="none" stroke="black" d="M1285.17,-935.697C1275.87,-924.846 1263.93,-910.917 1254.66,-900.104"/>
</g>
<!-- 216.239.57.137 -->
<g id="node73" class="node"><title>216.239.57.137</title>
<path fill="lightgrey" stroke="white" d="M1415,-900C1415,-900 1329,-900 1329,-900 1323,-900 1317,-894 1317,-888 1317,-888 1317,-876 1317,-876 1317,-870 1323,-864 1329,-864 1329,-864 1415,-864 1415,-864 1421,-864 1427,-870 1427,-876 1427,-876 1427,-888 1427,-888 1427,-894 1421,-900 1415,-900"/>
<text text-anchor="middle" x="1372" y="-878.3" font-family="Helvetica,sans-Serif" font-size="14.00">216.239.57.137</text>
</g>
<!-- 216.239.57.197&#45;&#45;216.239.57.137 -->
<g id="edge74" class="edge"><title>216.239.57.197&#45;&#45;216.239.57.137</title>
<path fill="none" stroke="black" d="M1317.8,-935.697C1328.96,-924.846 1343.29,-910.917 1354.41,-900.104"/>
</g>
<!-- 209.85.253.112 -->
<g id="node30" class="node"><title>209.85.253.112</title>
<path fill="lightgrey" stroke="white" d="M1283,-684C1283,-684 1197,-684 1197,-684 1191,-684 1185,-678 1185,-672 1185,-672 1185,-660 1185,-660 1185,-654 1191,-648 1197,-648 1197,-648 1283,-648 1283,-648 1289,-648 1295,-654 1295,-660 1295,-660 1295,-672 1295,-672 1295,-678 1289,-684 1283,-684"/>
<text text-anchor="middle" x="1240" y="-662.3" font-family="Helvetica,sans-Serif" font-size="14.00">209.85.253.112</text>
</g>
<!-- 209.85.142.166&#45;&#45;209.85.253.112 -->
<g id="edge30" class="edge"><title>209.85.142.166&#45;&#45;209.85.253.112</title>
<path fill="none" stroke="black" d="M1240,-719.697C1240,-708.846 1240,-694.917 1240,-684.104"/>
</g>
<!-- 108.170.241.169 -->
<g id="node31" class="node"><title>108.170.241.169</title>
<path fill="lightgrey" stroke="white" d="M1287,-612C1287,-612 1193,-612 1193,-612 1187,-612 1181,-606 1181,-600 1181,-600 1181,-588 1181,-588 1181,-582 1187,-576 1193,-576 1193,-576 1287,-576 1287,-576 1293,-576 1299,-582 1299,-588 1299,-588 1299,-600 1299,-600 1299,-606 1293,-612 1287,-612"/>
<text text-anchor="middle" x="1240" y="-590.3" font-family="Helvetica,sans-Serif" font-size="14.00">108.170.241.169</text>
</g>
<!-- 209.85.253.112&#45;&#45;108.170.241.169 -->
<g id="edge31" class="edge"><title>209.85.253.112&#45;&#45;108.170.241.169</title>
<path fill="none" stroke="black" d="M1240,-647.697C1240,-636.846 1240,-622.917 1240,-612.104"/>
</g>
<!-- google&#45;gw.hetzner.com -->
<g id="node32" class="node"><title>google&#45;gw.hetzner.com</title>
<path fill="lightgrey" stroke="white" d="M1306.5,-540C1306.5,-540 1173.5,-540 1173.5,-540 1167.5,-540 1161.5,-534 1161.5,-528 1161.5,-528 1161.5,-516 1161.5,-516 1161.5,-510 1167.5,-504 1173.5,-504 1173.5,-504 1306.5,-504 1306.5,-504 1312.5,-504 1318.5,-510 1318.5,-516 1318.5,-516 1318.5,-528 1318.5,-528 1318.5,-534 1312.5,-540 1306.5,-540"/>
<text text-anchor="middle" x="1240" y="-518.3" font-family="Helvetica,sans-Serif" font-size="14.00">google&#45;gw.hetzner.com</text>
</g>
<!-- 108.170.241.169&#45;&#45;google&#45;gw.hetzner.com -->
<g id="edge32" class="edge"><title>108.170.241.169&#45;&#45;google&#45;gw.hetzner.com</title>
<path fill="none" stroke="black" d="M1240,-575.697C1240,-564.846 1240,-550.917 1240,-540.104"/>
</g>
<!-- core1.fra.hetzner.com -->
<g id="node33" class="node"><title>core1.fra.hetzner.com</title>
<path fill="lightgrey" stroke="white" d="M1302.25,-468C1302.25,-468 1177.75,-468 1177.75,-468 1171.75,-468 1165.75,-462 1165.75,-456 1165.75,-456 1165.75,-444 1165.75,-444 1165.75,-438 1171.75,-432 1177.75,-432 1177.75,-432 1302.25,-432 1302.25,-432 1308.25,-432 1314.25,-438 1314.25,-444 1314.25,-444 1314.25,-456 1314.25,-456 1314.25,-462 1308.25,-468 1302.25,-468"/>
<text text-anchor="middle" x="1240" y="-446.3" font-family="Helvetica,sans-Serif" font-size="14.00">core1.fra.hetzner.com</text>
</g>
<!-- google&#45;gw.hetzner.com&#45;&#45;core1.fra.hetzner.com -->
<g id="edge33" class="edge"><title>google&#45;gw.hetzner.com&#45;&#45;core1.fra.hetzner.com</title>
<path fill="none" stroke="black" d="M1240,-503.697C1240,-492.846 1240,-478.917 1240,-468.104"/>
</g>
<!-- core24.fsn1.hetzner.com -->
<g id="node34" class="node"><title>core24.fsn1.hetzner.com</title>
<path fill="lightgrey" stroke="white" d="M1311,-396C1311,-396 1169,-396 1169,-396 1163,-396 1157,-390 1157,-384 1157,-384 1157,-372 1157,-372 1157,-366 1163,-360 1169,-360 1169,-360 1311,-360 1311,-360 1317,-360 1323,-366 1323,-372 1323,-372 1323,-384 1323,-384 1323,-390 1317,-396 1311,-396"/>
<text text-anchor="middle" x="1240" y="-374.3" font-family="Helvetica,sans-Serif" font-size="14.00">core24.fsn1.hetzner.com</text>
</g>
<!-- core1.fra.hetzner.com&#45;&#45;core24.fsn1.hetzner.com -->
<g id="edge34" class="edge"><title>core1.fra.hetzner.com&#45;&#45;core24.fsn1.hetzner.com</title>
<path fill="none" stroke="black" d="M1240,-431.697C1240,-420.846 1240,-406.917 1240,-396.104"/>
</g>
<!-- ex9k1.dc7.fsn1.hetzner.com -->
<g id="node35" class="node"><title>ex9k1.dc7.fsn1.hetzner.com</title>
<path fill="lightgrey" stroke="white" d="M1319.5,-324C1319.5,-324 1158.5,-324 1158.5,-324 1152.5,-324 1146.5,-318 1146.5,-312 1146.5,-312 1146.5,-300 1146.5,-300 1146.5,-294 1152.5,-288 1158.5,-288 1158.5,-288 1319.5,-288 1319.5,-288 1325.5,-288 1331.5,-294 1331.5,-300 1331.5,-300 1331.5,-312 1331.5,-312 1331.5,-318 1325.5,-324 1319.5,-324"/>
<text text-anchor="middle" x="1239" y="-302.3" font-family="Helvetica,sans-Serif" font-size="14.00">ex9k1.dc7.fsn1.hetzner.com</text>
</g>
<!-- core24.fsn1.hetzner.com&#45;&#45;ex9k1.dc7.fsn1.hetzner.com -->
<g id="edge35" class="edge"><title>core24.fsn1.hetzner.com&#45;&#45;ex9k1.dc7.fsn1.hetzner.com</title>
<path fill="none" stroke="black" d="M1239.75,-359.697C1239.6,-348.846 1239.4,-334.917 1239.24,-324.104"/>
</g>
<!-- b6.xgu.ru -->
<g id="node36" class="node"><title>b6.xgu.ru</title>
<path fill="lightgrey" stroke="white" d="M1263.25,-252C1263.25,-252 1214.75,-252 1214.75,-252 1208.75,-252 1202.75,-246 1202.75,-240 1202.75,-240 1202.75,-228 1202.75,-228 1202.75,-222 1208.75,-216 1214.75,-216 1214.75,-216 1263.25,-216 1263.25,-216 1269.25,-216 1275.25,-222 1275.25,-228 1275.25,-228 1275.25,-240 1275.25,-240 1275.25,-246 1269.25,-252 1263.25,-252"/>
<text text-anchor="middle" x="1239" y="-230.3" font-family="Helvetica,sans-Serif" font-size="14.00">b6.xgu.ru</text>
</g>
<!-- ex9k1.dc7.fsn1.hetzner.com&#45;&#45;b6.xgu.ru -->
<g id="edge36" class="edge"><title>ex9k1.dc7.fsn1.hetzner.com&#45;&#45;b6.xgu.ru</title>
<path fill="none" stroke="black" d="M1239,-287.697C1239,-276.846 1239,-262.917 1239,-252.104"/>
</g>
<!-- cheat.sh -->
<g id="node37" class="node"><title>cheat.sh</title>
<path fill="lightgrey" stroke="white" d="M1261,-180C1261,-180 1217,-180 1217,-180 1211,-180 1205,-174 1205,-168 1205,-168 1205,-156 1205,-156 1205,-150 1211,-144 1217,-144 1217,-144 1261,-144 1261,-144 1267,-144 1273,-150 1273,-156 1273,-156 1273,-168 1273,-168 1273,-174 1267,-180 1261,-180"/>
<text text-anchor="middle" x="1239" y="-158.3" font-family="Helvetica,sans-Serif" font-size="14.00">cheat.sh</text>
</g>
<!-- b6.xgu.ru&#45;&#45;cheat.sh -->
<g id="edge37" class="edge"><title>b6.xgu.ru&#45;&#45;cheat.sh</title>
<path fill="none" stroke="black" d="M1239,-215.697C1239,-204.846 1239,-190.917 1239,-180.104"/>
</g>
<!-- cheat.sh&#45;&#45;rate.sx # Command line crypto ticker -->
<g id="edge38" class="edge"><title>cheat.sh&#45;&#45;rate.sx # Command line crypto ticker</title>
<path fill="none" stroke="black" d="M1239,-143.697C1239,-132.846 1239,-118.917 1239,-108.104"/>
</g>
<!-- fixer.io # Fiat currencies -->
<g id="node38" class="node"><title>fixer.io # Fiat currencies</title>
<path fill="green" stroke="white" d="M1823,-36C1823,-36 1687,-36 1687,-36 1681,-36 1675,-30 1675,-24 1675,-24 1675,-12 1675,-12 1675,-6 1681,-0 1687,-0 1687,-0 1823,-0 1823,-0 1829,-0 1835,-6 1835,-12 1835,-12 1835,-24 1835,-24 1835,-30 1829,-36 1823,-36"/>
<text text-anchor="middle" x="1755" y="-14.3" font-family="Helvetica,sans-Serif" font-size="14.00" fill="white">fixer.io # Fiat currencies</text>
</g>
<!-- 209.85.250.141&#45;&#45;209.85.250.141 -->
<g id="edge40" class="edge"><title>209.85.250.141&#45;&#45;209.85.250.141</title>
<path fill="none" stroke="black" d="M1483.07,-966.854C1493.57,-965.316 1501,-961.031 1501,-954 1501,-946.969 1493.57,-942.684 1483.07,-941.146"/>
</g>
<!-- 216.239.59.169 -->
<g id="node40" class="node"><title>216.239.59.169</title>
<path fill="lightgrey" stroke="white" d="M1572,-900C1572,-900 1486,-900 1486,-900 1480,-900 1474,-894 1474,-888 1474,-888 1474,-876 1474,-876 1474,-870 1480,-864 1486,-864 1486,-864 1572,-864 1572,-864 1578,-864 1584,-870 1584,-876 1584,-876 1584,-888 1584,-888 1584,-894 1578,-900 1572,-900"/>
<text text-anchor="middle" x="1529" y="-878.3" font-family="Helvetica,sans-Serif" font-size="14.00">216.239.59.169</text>
</g>
<!-- 209.85.250.141&#45;&#45;216.239.59.169 -->
<g id="edge41" class="edge"><title>209.85.250.141&#45;&#45;216.239.59.169</title>
<path fill="none" stroke="black" d="M1452.71,-935.876C1468.36,-925.029 1488.53,-911.05 1504.2,-900.19"/>
</g>
<!-- 108.170.228.83 -->
<g id="node85" class="node"><title>108.170.228.83</title>
<path fill="lightgrey" stroke="white" d="M1753,-900C1753,-900 1667,-900 1667,-900 1661,-900 1655,-894 1655,-888 1655,-888 1655,-876 1655,-876 1655,-870 1661,-864 1667,-864 1667,-864 1753,-864 1753,-864 1759,-864 1765,-870 1765,-876 1765,-876 1765,-888 1765,-888 1765,-894 1759,-900 1753,-900"/>
<text text-anchor="middle" x="1710" y="-878.3" font-family="Helvetica,sans-Serif" font-size="14.00">108.170.228.83</text>
</g>
<!-- 209.85.250.141&#45;&#45;108.170.228.83 -->
<g id="edge87" class="edge"><title>209.85.250.141&#45;&#45;108.170.228.83</title>
<path fill="none" stroke="black" d="M1483.04,-939.337C1532.57,-927.043 1604.98,-909.068 1654.62,-896.748"/>
</g>
<!-- 108.170.252.139 -->
<g id="node41" class="node"><title>108.170.252.139</title>
<path fill="lightgrey" stroke="white" d="M1602,-828C1602,-828 1508,-828 1508,-828 1502,-828 1496,-822 1496,-816 1496,-816 1496,-804 1496,-804 1496,-798 1502,-792 1508,-792 1508,-792 1602,-792 1602,-792 1608,-792 1614,-798 1614,-804 1614,-804 1614,-816 1614,-816 1614,-822 1608,-828 1602,-828"/>
<text text-anchor="middle" x="1555" y="-806.3" font-family="Helvetica,sans-Serif" font-size="14.00">108.170.252.139</text>
</g>
<!-- 216.239.59.169&#45;&#45;108.170.252.139 -->
<g id="edge42" class="edge"><title>216.239.59.169&#45;&#45;108.170.252.139</title>
<path fill="none" stroke="black" d="M1535.43,-863.697C1539.46,-852.846 1544.63,-838.917 1548.65,-828.104"/>
</g>
<!-- ae32.bbr01.eq01.dal03.networklayer.com -->
<g id="node42" class="node"><title>ae32.bbr01.eq01.dal03.networklayer.com</title>
<path fill="lightgrey" stroke="white" d="M1719,-756C1719,-756 1477,-756 1477,-756 1471,-756 1465,-750 1465,-744 1465,-744 1465,-732 1465,-732 1465,-726 1471,-720 1477,-720 1477,-720 1719,-720 1719,-720 1725,-720 1731,-726 1731,-732 1731,-732 1731,-744 1731,-744 1731,-750 1725,-756 1719,-756"/>
<text text-anchor="middle" x="1598" y="-734.3" font-family="Helvetica,sans-Serif" font-size="14.00">ae32.bbr01.eq01.dal03.networklayer.com</text>
</g>
<!-- 108.170.252.139&#45;&#45;ae32.bbr01.eq01.dal03.networklayer.com -->
<g id="edge43" class="edge"><title>108.170.252.139&#45;&#45;ae32.bbr01.eq01.dal03.networklayer.com</title>
<path fill="none" stroke="black" d="M1565.63,-791.697C1572.29,-780.846 1580.85,-766.917 1587.49,-756.104"/>
</g>
<!-- ae5.cbs01.eq01.dal03.networklayer.com -->
<g id="node43" class="node"><title>ae5.cbs01.eq01.dal03.networklayer.com</title>
<path fill="lightgrey" stroke="white" d="M1743,-684C1743,-684 1507,-684 1507,-684 1501,-684 1495,-678 1495,-672 1495,-672 1495,-660 1495,-660 1495,-654 1501,-648 1507,-648 1507,-648 1743,-648 1743,-648 1749,-648 1755,-654 1755,-660 1755,-660 1755,-672 1755,-672 1755,-678 1749,-684 1743,-684"/>
<text text-anchor="middle" x="1625" y="-662.3" font-family="Helvetica,sans-Serif" font-size="14.00">ae5.cbs01.eq01.dal03.networklayer.com</text>
</g>
<!-- ae32.bbr01.eq01.dal03.networklayer.com&#45;&#45;ae5.cbs01.eq01.dal03.networklayer.com -->
<g id="edge44" class="edge"><title>ae32.bbr01.eq01.dal03.networklayer.com&#45;&#45;ae5.cbs01.eq01.dal03.networklayer.com</title>
<path fill="none" stroke="black" d="M1604.67,-719.697C1608.86,-708.846 1614.23,-694.917 1618.4,-684.104"/>
</g>
<!-- ae8.cbs01.dr01.dal04.networklayer.com -->
<g id="node44" class="node"><title>ae8.cbs01.dr01.dal04.networklayer.com</title>
<path fill="lightgrey" stroke="white" d="M1752.25,-612C1752.25,-612 1519.75,-612 1519.75,-612 1513.75,-612 1507.75,-606 1507.75,-600 1507.75,-600 1507.75,-588 1507.75,-588 1507.75,-582 1513.75,-576 1519.75,-576 1519.75,-576 1752.25,-576 1752.25,-576 1758.25,-576 1764.25,-582 1764.25,-588 1764.25,-588 1764.25,-600 1764.25,-600 1764.25,-606 1758.25,-612 1752.25,-612"/>
<text text-anchor="middle" x="1636" y="-590.3" font-family="Helvetica,sans-Serif" font-size="14.00">ae8.cbs01.dr01.dal04.networklayer.com</text>
</g>
<!-- ae5.cbs01.eq01.dal03.networklayer.com&#45;&#45;ae8.cbs01.dr01.dal04.networklayer.com -->
<g id="edge45" class="edge"><title>ae5.cbs01.eq01.dal03.networklayer.com&#45;&#45;ae8.cbs01.dr01.dal04.networklayer.com</title>
<path fill="none" stroke="black" d="M1627.72,-647.697C1629.42,-636.846 1631.61,-622.917 1633.31,-612.104"/>
</g>
<!-- ae2.cbs01.cs01.lax01.networklayer.com -->
<g id="node45" class="node"><title>ae2.cbs01.cs01.lax01.networklayer.com</title>
<path fill="lightgrey" stroke="white" d="M1871.25,-540C1871.25,-540 1638.75,-540 1638.75,-540 1632.75,-540 1626.75,-534 1626.75,-528 1626.75,-528 1626.75,-516 1626.75,-516 1626.75,-510 1632.75,-504 1638.75,-504 1638.75,-504 1871.25,-504 1871.25,-504 1877.25,-504 1883.25,-510 1883.25,-516 1883.25,-516 1883.25,-528 1883.25,-528 1883.25,-534 1877.25,-540 1871.25,-540"/>
<text text-anchor="middle" x="1755" y="-518.3" font-family="Helvetica,sans-Serif" font-size="14.00">ae2.cbs01.cs01.lax01.networklayer.com</text>
</g>
<!-- ae8.cbs01.dr01.dal04.networklayer.com&#45;&#45;ae2.cbs01.cs01.lax01.networklayer.com -->
<g id="edge46" class="edge"><title>ae8.cbs01.dr01.dal04.networklayer.com&#45;&#45;ae2.cbs01.cs01.lax01.networklayer.com</title>
<path fill="none" stroke="black" d="M1665.11,-575.876C1683.55,-565.029 1707.32,-551.05 1725.78,-540.19"/>
</g>
<!-- ae7.cbs02.cs01.lax01.networklayer.com -->
<g id="node46" class="node"><title>ae7.cbs02.cs01.lax01.networklayer.com</title>
<path fill="lightgrey" stroke="white" d="M1871.25,-468C1871.25,-468 1638.75,-468 1638.75,-468 1632.75,-468 1626.75,-462 1626.75,-456 1626.75,-456 1626.75,-444 1626.75,-444 1626.75,-438 1632.75,-432 1638.75,-432 1638.75,-432 1871.25,-432 1871.25,-432 1877.25,-432 1883.25,-438 1883.25,-444 1883.25,-444 1883.25,-456 1883.25,-456 1883.25,-462 1877.25,-468 1871.25,-468"/>
<text text-anchor="middle" x="1755" y="-446.3" font-family="Helvetica,sans-Serif" font-size="14.00">ae7.cbs02.cs01.lax01.networklayer.com</text>
</g>
<!-- ae2.cbs01.cs01.lax01.networklayer.com&#45;&#45;ae7.cbs02.cs01.lax01.networklayer.com -->
<g id="edge47" class="edge"><title>ae2.cbs01.cs01.lax01.networklayer.com&#45;&#45;ae7.cbs02.cs01.lax01.networklayer.com</title>
<path fill="none" stroke="black" d="M1755,-503.697C1755,-492.846 1755,-478.917 1755,-468.104"/>
</g>
<!-- ae0.cbs02.eq01.sjc02.networklayer.com -->
<g id="node47" class="node"><title>ae0.cbs02.eq01.sjc02.networklayer.com</title>
<path fill="lightgrey" stroke="white" d="M1872,-396C1872,-396 1638,-396 1638,-396 1632,-396 1626,-390 1626,-384 1626,-384 1626,-372 1626,-372 1626,-366 1632,-360 1638,-360 1638,-360 1872,-360 1872,-360 1878,-360 1884,-366 1884,-372 1884,-372 1884,-384 1884,-384 1884,-390 1878,-396 1872,-396"/>
<text text-anchor="middle" x="1755" y="-374.3" font-family="Helvetica,sans-Serif" font-size="14.00">ae0.cbs02.eq01.sjc02.networklayer.com</text>
</g>
<!-- ae7.cbs02.cs01.lax01.networklayer.com&#45;&#45;ae0.cbs02.eq01.sjc02.networklayer.com -->
<g id="edge48" class="edge"><title>ae7.cbs02.cs01.lax01.networklayer.com&#45;&#45;ae0.cbs02.eq01.sjc02.networklayer.com</title>
<path fill="none" stroke="black" d="M1755,-431.697C1755,-420.846 1755,-406.917 1755,-396.104"/>
</g>
<!-- ae24.bbr01.eq01.sjc02.networklayer.com -->
<g id="node48" class="node"><title>ae24.bbr01.eq01.sjc02.networklayer.com</title>
<path fill="lightgrey" stroke="white" d="M1875,-324C1875,-324 1635,-324 1635,-324 1629,-324 1623,-318 1623,-312 1623,-312 1623,-300 1623,-300 1623,-294 1629,-288 1635,-288 1635,-288 1875,-288 1875,-288 1881,-288 1887,-294 1887,-300 1887,-300 1887,-312 1887,-312 1887,-318 1881,-324 1875,-324"/>
<text text-anchor="middle" x="1755" y="-302.3" font-family="Helvetica,sans-Serif" font-size="14.00">ae24.bbr01.eq01.sjc02.networklayer.com</text>
</g>
<!-- ae0.cbs02.eq01.sjc02.networklayer.com&#45;&#45;ae24.bbr01.eq01.sjc02.networklayer.com -->
<g id="edge49" class="edge"><title>ae0.cbs02.eq01.sjc02.networklayer.com&#45;&#45;ae24.bbr01.eq01.sjc02.networklayer.com</title>
<path fill="none" stroke="black" d="M1755,-359.697C1755,-348.846 1755,-334.917 1755,-324.104"/>
</g>
<!-- ae5.dar01.sjc01.networklayer.com -->
<g id="node49" class="node"><title>ae5.dar01.sjc01.networklayer.com</title>
<path fill="lightgrey" stroke="white" d="M1854.25,-252C1854.25,-252 1655.75,-252 1655.75,-252 1649.75,-252 1643.75,-246 1643.75,-240 1643.75,-240 1643.75,-228 1643.75,-228 1643.75,-222 1649.75,-216 1655.75,-216 1655.75,-216 1854.25,-216 1854.25,-216 1860.25,-216 1866.25,-222 1866.25,-228 1866.25,-228 1866.25,-240 1866.25,-240 1866.25,-246 1860.25,-252 1854.25,-252"/>
<text text-anchor="middle" x="1755" y="-230.3" font-family="Helvetica,sans-Serif" font-size="14.00">ae5.dar01.sjc01.networklayer.com</text>
</g>
<!-- ae24.bbr01.eq01.sjc02.networklayer.com&#45;&#45;ae5.dar01.sjc01.networklayer.com -->
<g id="edge50" class="edge"><title>ae24.bbr01.eq01.sjc02.networklayer.com&#45;&#45;ae5.dar01.sjc01.networklayer.com</title>
<path fill="none" stroke="black" d="M1755,-287.697C1755,-276.846 1755,-262.917 1755,-252.104"/>
</g>
<!-- 9f.76.1732.ip4.static.sl&#45;reverse.com -->
<g id="node50" class="node"><title>9f.76.1732.ip4.static.sl&#45;reverse.com</title>
<path fill="lightgrey" stroke="white" d="M1857.5,-180C1857.5,-180 1652.5,-180 1652.5,-180 1646.5,-180 1640.5,-174 1640.5,-168 1640.5,-168 1640.5,-156 1640.5,-156 1640.5,-150 1646.5,-144 1652.5,-144 1652.5,-144 1857.5,-144 1857.5,-144 1863.5,-144 1869.5,-150 1869.5,-156 1869.5,-156 1869.5,-168 1869.5,-168 1869.5,-174 1863.5,-180 1857.5,-180"/>
<text text-anchor="middle" x="1755" y="-158.3" font-family="Helvetica,sans-Serif" font-size="14.00">9f.76.1732.ip4.static.sl&#45;reverse.com</text>
</g>
<!-- ae5.dar01.sjc01.networklayer.com&#45;&#45;9f.76.1732.ip4.static.sl&#45;reverse.com -->
<g id="edge51" class="edge"><title>ae5.dar01.sjc01.networklayer.com&#45;&#45;9f.76.1732.ip4.static.sl&#45;reverse.com</title>
<path fill="none" stroke="black" d="M1755,-215.697C1755,-204.846 1755,-190.917 1755,-180.104"/>
</g>
<!-- c9.a7.559e.ip4.static.sl&#45;reverse.com -->
<g id="node51" class="node"><title>c9.a7.559e.ip4.static.sl&#45;reverse.com</title>
<path fill="lightgrey" stroke="white" d="M1859.25,-108C1859.25,-108 1650.75,-108 1650.75,-108 1644.75,-108 1638.75,-102 1638.75,-96 1638.75,-96 1638.75,-84 1638.75,-84 1638.75,-78 1644.75,-72 1650.75,-72 1650.75,-72 1859.25,-72 1859.25,-72 1865.25,-72 1871.25,-78 1871.25,-84 1871.25,-84 1871.25,-96 1871.25,-96 1871.25,-102 1865.25,-108 1859.25,-108"/>
<text text-anchor="middle" x="1755" y="-86.3" font-family="Helvetica,sans-Serif" font-size="14.00">c9.a7.559e.ip4.static.sl&#45;reverse.com</text>
</g>
<!-- 9f.76.1732.ip4.static.sl&#45;reverse.com&#45;&#45;c9.a7.559e.ip4.static.sl&#45;reverse.com -->
<g id="edge52" class="edge"><title>9f.76.1732.ip4.static.sl&#45;reverse.com&#45;&#45;c9.a7.559e.ip4.static.sl&#45;reverse.com</title>
<path fill="none" stroke="black" d="M1755,-143.697C1755,-132.846 1755,-118.917 1755,-108.104"/>
</g>
<!-- c9.a7.559e.ip4.static.sl&#45;reverse.com&#45;&#45;fixer.io # Fiat currencies -->
<g id="edge53" class="edge"><title>c9.a7.559e.ip4.static.sl&#45;reverse.com&#45;&#45;fixer.io # Fiat currencies</title>
<path fill="none" stroke="black" d="M1755,-71.6966C1755,-60.8463 1755,-46.9167 1755,-36.1043"/>
</g>
<!-- travis&#45;ci.org # Travis CI -->
<g id="node52" class="node"><title>travis&#45;ci.org # Travis CI</title>
<path fill="red" stroke="white" d="M758.25,-252C758.25,-252 627.75,-252 627.75,-252 621.75,-252 615.75,-246 615.75,-240 615.75,-240 615.75,-228 615.75,-228 615.75,-222 621.75,-216 627.75,-216 627.75,-216 758.25,-216 758.25,-216 764.25,-216 770.25,-222 770.25,-228 770.25,-228 770.25,-240 770.25,-240 770.25,-246 764.25,-252 758.25,-252"/>
<text text-anchor="middle" x="693" y="-230.3" font-family="Helvetica,sans-Serif" font-size="14.00" fill="white">travis&#45;ci.org # Travis CI</text>
</g>
<!-- 108.170.243.167 -->
<g id="node54" class="node"><title>108.170.243.167</title>
<path fill="lightgrey" stroke="white" d="M803,-828C803,-828 709,-828 709,-828 703,-828 697,-822 697,-816 697,-816 697,-804 697,-804 697,-798 703,-792 709,-792 709,-792 803,-792 803,-792 809,-792 815,-798 815,-804 815,-804 815,-816 815,-816 815,-822 809,-828 803,-828"/>
<text text-anchor="middle" x="756" y="-806.3" font-family="Helvetica,sans-Serif" font-size="14.00">108.170.243.167</text>
</g>
<!-- 209.85.250.145&#45;&#45;108.170.243.167 -->
<g id="edge55" class="edge"><title>209.85.250.145&#45;&#45;108.170.243.167</title>
<path fill="none" stroke="black" d="M759.011,-863.697C758.391,-852.846 757.595,-838.917 756.977,-828.104"/>
</g>
<!-- 52.93.249.89 -->
<g id="node55" class="node"><title>52.93.249.89</title>
<path fill="lightgrey" stroke="white" d="M791.25,-756C791.25,-756 720.75,-756 720.75,-756 714.75,-756 708.75,-750 708.75,-744 708.75,-744 708.75,-732 708.75,-732 708.75,-726 714.75,-720 720.75,-720 720.75,-720 791.25,-720 791.25,-720 797.25,-720 803.25,-726 803.25,-732 803.25,-732 803.25,-744 803.25,-744 803.25,-750 797.25,-756 791.25,-756"/>
<text text-anchor="middle" x="756" y="-734.3" font-family="Helvetica,sans-Serif" font-size="14.00">52.93.249.89</text>
</g>
<!-- 108.170.243.167&#45;&#45;52.93.249.89 -->
<g id="edge56" class="edge"><title>108.170.243.167&#45;&#45;52.93.249.89</title>
<path fill="none" stroke="black" d="M756,-791.697C756,-780.846 756,-766.917 756,-756.104"/>
</g>
<!-- 52.95.62.143 -->
<g id="node56" class="node"><title>52.95.62.143</title>
<path fill="lightgrey" stroke="white" d="M752.25,-684C752.25,-684 681.75,-684 681.75,-684 675.75,-684 669.75,-678 669.75,-672 669.75,-672 669.75,-660 669.75,-660 669.75,-654 675.75,-648 681.75,-648 681.75,-648 752.25,-648 752.25,-648 758.25,-648 764.25,-654 764.25,-660 764.25,-660 764.25,-672 764.25,-672 764.25,-678 758.25,-684 752.25,-684"/>
<text text-anchor="middle" x="717" y="-662.3" font-family="Helvetica,sans-Serif" font-size="14.00">52.95.62.143</text>
</g>
<!-- 52.93.249.89&#45;&#45;52.95.62.143 -->
<g id="edge57" class="edge"><title>52.93.249.89&#45;&#45;52.95.62.143</title>
<path fill="none" stroke="black" d="M746.36,-719.697C740.314,-708.846 732.554,-694.917 726.53,-684.104"/>
</g>
<!-- 52.93.129.122 -->
<g id="node57" class="node"><title>52.93.129.122</title>
<path fill="lightgrey" stroke="white" d="M740.25,-612C740.25,-612 661.75,-612 661.75,-612 655.75,-612 649.75,-606 649.75,-600 649.75,-600 649.75,-588 649.75,-588 649.75,-582 655.75,-576 661.75,-576 661.75,-576 740.25,-576 740.25,-576 746.25,-576 752.25,-582 752.25,-588 752.25,-588 752.25,-600 752.25,-600 752.25,-606 746.25,-612 740.25,-612"/>
<text text-anchor="middle" x="701" y="-590.3" font-family="Helvetica,sans-Serif" font-size="14.00">52.93.129.122</text>
</g>
<!-- 52.95.62.143&#45;&#45;52.93.129.122 -->
<g id="edge58" class="edge"><title>52.95.62.143&#45;&#45;52.93.129.122</title>
<path fill="none" stroke="black" d="M713.045,-647.697C710.565,-636.846 707.381,-622.917 704.91,-612.104"/>
</g>
<!-- 54.240.229.149 -->
<g id="node58" class="node"><title>54.240.229.149</title>
<path fill="lightgrey" stroke="white" d="M736,-540C736,-540 650,-540 650,-540 644,-540 638,-534 638,-528 638,-528 638,-516 638,-516 638,-510 644,-504 650,-504 650,-504 736,-504 736,-504 742,-504 748,-510 748,-516 748,-516 748,-528 748,-528 748,-534 742,-540 736,-540"/>
<text text-anchor="middle" x="693" y="-518.3" font-family="Helvetica,sans-Serif" font-size="14.00">54.240.229.149</text>
</g>
<!-- 52.93.129.122&#45;&#45;54.240.229.149 -->
<g id="edge59" class="edge"><title>52.93.129.122&#45;&#45;54.240.229.149</title>
<path fill="none" stroke="black" d="M699.022,-575.697C697.782,-564.846 696.19,-550.917 694.955,-540.104"/>
</g>
<!-- 52.93.129.134 -->
<g id="node59" class="node"><title>52.93.129.134</title>
<path fill="lightgrey" stroke="white" d="M732.25,-468C732.25,-468 653.75,-468 653.75,-468 647.75,-468 641.75,-462 641.75,-456 641.75,-456 641.75,-444 641.75,-444 641.75,-438 647.75,-432 653.75,-432 653.75,-432 732.25,-432 732.25,-432 738.25,-432 744.25,-438 744.25,-444 744.25,-444 744.25,-456 744.25,-456 744.25,-462 738.25,-468 732.25,-468"/>
<text text-anchor="middle" x="693" y="-446.3" font-family="Helvetica,sans-Serif" font-size="14.00">52.93.129.134</text>
</g>
<!-- 54.240.229.149&#45;&#45;52.93.129.134 -->
<g id="edge60" class="edge"><title>54.240.229.149&#45;&#45;52.93.129.134</title>
<path fill="none" stroke="black" d="M693,-503.697C693,-492.846 693,-478.917 693,-468.104"/>
</g>
<!-- 52.93.131.190 -->
<g id="node60" class="node"><title>52.93.131.190</title>
<path fill="lightgrey" stroke="white" d="M732.25,-396C732.25,-396 653.75,-396 653.75,-396 647.75,-396 641.75,-390 641.75,-384 641.75,-384 641.75,-372 641.75,-372 641.75,-366 647.75,-360 653.75,-360 653.75,-360 732.25,-360 732.25,-360 738.25,-360 744.25,-366 744.25,-372 744.25,-372 744.25,-384 744.25,-384 744.25,-390 738.25,-396 732.25,-396"/>
<text text-anchor="middle" x="693" y="-374.3" font-family="Helvetica,sans-Serif" font-size="14.00">52.93.131.190</text>
</g>
<!-- 52.93.129.134&#45;&#45;52.93.131.190 -->
<g id="edge61" class="edge"><title>52.93.129.134&#45;&#45;52.93.131.190</title>
<path fill="none" stroke="black" d="M693,-431.697C693,-420.846 693,-406.917 693,-396.104"/>
</g>
<!-- 52.93.28.72 -->
<g id="node61" class="node"><title>52.93.28.72</title>
<path fill="lightgrey" stroke="white" d="M724.5,-324C724.5,-324 661.5,-324 661.5,-324 655.5,-324 649.5,-318 649.5,-312 649.5,-312 649.5,-300 649.5,-300 649.5,-294 655.5,-288 661.5,-288 661.5,-288 724.5,-288 724.5,-288 730.5,-288 736.5,-294 736.5,-300 736.5,-300 736.5,-312 736.5,-312 736.5,-318 730.5,-324 724.5,-324"/>
<text text-anchor="middle" x="693" y="-302.3" font-family="Helvetica,sans-Serif" font-size="14.00">52.93.28.72</text>
</g>
<!-- 52.93.131.190&#45;&#45;52.93.28.72 -->
<g id="edge62" class="edge"><title>52.93.131.190&#45;&#45;52.93.28.72</title>
<path fill="none" stroke="black" d="M693,-359.697C693,-348.846 693,-334.917 693,-324.104"/>
</g>
<!-- 52.93.28.72&#45;&#45;travis&#45;ci.org # Travis CI -->
<g id="edge63" class="edge"><title>52.93.28.72&#45;&#45;travis&#45;ci.org # Travis CI</title>
<path fill="none" stroke="black" d="M693,-287.697C693,-276.846 693,-262.917 693,-252.104"/>
</g>
<!-- cryptocompare.com -->
<g id="node62" class="node"><title>cryptocompare.com</title>
<path fill="green" stroke="white" d="M445.25,-756C445.25,-756 332.75,-756 332.75,-756 326.75,-756 320.75,-750 320.75,-744 320.75,-744 320.75,-732 320.75,-732 320.75,-726 326.75,-720 332.75,-720 332.75,-720 445.25,-720 445.25,-720 451.25,-720 457.25,-726 457.25,-732 457.25,-732 457.25,-744 457.25,-744 457.25,-750 451.25,-756 445.25,-756"/>
<text text-anchor="middle" x="389" y="-734.3" font-family="Helvetica,sans-Serif" font-size="14.00" fill="white">cryptocompare.com</text>
</g>
<!-- 108.170.243.196 -->
<g id="node64" class="node"><title>108.170.243.196</title>
<path fill="lightgrey" stroke="white" d="M460,-828C460,-828 366,-828 366,-828 360,-828 354,-822 354,-816 354,-816 354,-804 354,-804 354,-798 360,-792 366,-792 366,-792 460,-792 460,-792 466,-792 472,-798 472,-804 472,-804 472,-816 472,-816 472,-822 466,-828 460,-828"/>
<text text-anchor="middle" x="413" y="-806.3" font-family="Helvetica,sans-Serif" font-size="14.00">108.170.243.196</text>
</g>
<!-- 209.85.250.147&#45;&#45;108.170.243.196 -->
<g id="edge65" class="edge"><title>209.85.250.147&#45;&#45;108.170.243.196</title>
<path fill="none" stroke="black" d="M431.067,-863.697C427.347,-852.846 422.571,-838.917 418.864,-828.104"/>
</g>
<!-- 108.170.243.196&#45;&#45;cryptocompare.com -->
<g id="edge66" class="edge"><title>108.170.243.196&#45;&#45;cryptocompare.com</title>
<path fill="none" stroke="black" d="M407.067,-791.697C403.347,-780.846 398.571,-766.917 394.864,-756.104"/>
</g>
<!-- londonstockexchange.com -->
<g id="node65" class="node"><title>londonstockexchange.com</title>
<path fill="red" stroke="white" d="M931.25,-540C931.25,-540 778.75,-540 778.75,-540 772.75,-540 766.75,-534 766.75,-528 766.75,-528 766.75,-516 766.75,-516 766.75,-510 772.75,-504 778.75,-504 778.75,-504 931.25,-504 931.25,-504 937.25,-504 943.25,-510 943.25,-516 943.25,-516 943.25,-528 943.25,-528 943.25,-534 937.25,-540 931.25,-540"/>
<text text-anchor="middle" x="855" y="-518.3" font-family="Helvetica,sans-Serif" font-size="14.00" fill="white">londonstockexchange.com</text>
</g>
<!-- 108.170.243.212 -->
<g id="node67" class="node"><title>108.170.243.212</title>
<path fill="lightgrey" stroke="white" d="M939,-828C939,-828 845,-828 845,-828 839,-828 833,-822 833,-816 833,-816 833,-804 833,-804 833,-798 839,-792 845,-792 845,-792 939,-792 939,-792 945,-792 951,-798 951,-804 951,-804 951,-816 951,-816 951,-822 945,-828 939,-828"/>
<text text-anchor="middle" x="892" y="-806.3" font-family="Helvetica,sans-Serif" font-size="14.00">108.170.243.212</text>
</g>
<!-- 216.239.63.174&#45;&#45;108.170.243.212 -->
<g id="edge68" class="edge"><title>216.239.63.174&#45;&#45;108.170.243.212</title>
<path fill="none" stroke="black" d="M892,-863.697C892,-852.846 892,-838.917 892,-828.104"/>
</g>
<!-- lag&#45;35.ear4.Chicago2.Level3.net -->
<g id="node68" class="node"><title>lag&#45;35.ear4.Chicago2.Level3.net</title>
<path fill="lightgrey" stroke="white" d="M1021.5,-756C1021.5,-756 834.5,-756 834.5,-756 828.5,-756 822.5,-750 822.5,-744 822.5,-744 822.5,-732 822.5,-732 822.5,-726 828.5,-720 834.5,-720 834.5,-720 1021.5,-720 1021.5,-720 1027.5,-720 1033.5,-726 1033.5,-732 1033.5,-732 1033.5,-744 1033.5,-744 1033.5,-750 1027.5,-756 1021.5,-756"/>
<text text-anchor="middle" x="928" y="-734.3" font-family="Helvetica,sans-Serif" font-size="14.00">lag&#45;35.ear4.Chicago2.Level3.net</text>
</g>
<!-- 108.170.243.212&#45;&#45;lag&#45;35.ear4.Chicago2.Level3.net -->
<g id="edge69" class="edge"><title>108.170.243.212&#45;&#45;lag&#45;35.ear4.Chicago2.Level3.net</title>
<path fill="none" stroke="black" d="M900.899,-791.697C906.479,-780.846 913.643,-766.917 919.203,-756.104"/>
</g>
<!-- ae&#45;1&#45;51.msr1.Chicago2.Level3.net -->
<g id="node69" class="node"><title>ae&#45;1&#45;51.msr1.Chicago2.Level3.net</title>
<path fill="lightgrey" stroke="white" d="M1003.5,-684C1003.5,-684 804.5,-684 804.5,-684 798.5,-684 792.5,-678 792.5,-672 792.5,-672 792.5,-660 792.5,-660 792.5,-654 798.5,-648 804.5,-648 804.5,-648 1003.5,-648 1003.5,-648 1009.5,-648 1015.5,-654 1015.5,-660 1015.5,-660 1015.5,-672 1015.5,-672 1015.5,-678 1009.5,-684 1003.5,-684"/>
<text text-anchor="middle" x="904" y="-662.3" font-family="Helvetica,sans-Serif" font-size="14.00">ae&#45;1&#45;51.msr1.Chicago2.Level3.net</text>
</g>
<!-- lag&#45;35.ear4.Chicago2.Level3.net&#45;&#45;ae&#45;1&#45;51.msr1.Chicago2.Level3.net -->
<g id="edge70" class="edge"><title>lag&#45;35.ear4.Chicago2.Level3.net&#45;&#45;ae&#45;1&#45;51.msr1.Chicago2.Level3.net</title>
<path fill="none" stroke="black" d="M922.067,-719.697C918.347,-708.846 913.571,-694.917 909.864,-684.104"/>
</g>
<!-- 8.46.100.126 -->
<g id="node70" class="node"><title>8.46.100.126</title>
<path fill="lightgrey" stroke="white" d="M936.25,-612C936.25,-612 865.75,-612 865.75,-612 859.75,-612 853.75,-606 853.75,-600 853.75,-600 853.75,-588 853.75,-588 853.75,-582 859.75,-576 865.75,-576 865.75,-576 936.25,-576 936.25,-576 942.25,-576 948.25,-582 948.25,-588 948.25,-588 948.25,-600 948.25,-600 948.25,-606 942.25,-612 936.25,-612"/>
<text text-anchor="middle" x="901" y="-590.3" font-family="Helvetica,sans-Serif" font-size="14.00">8.46.100.126</text>
</g>
<!-- ae&#45;1&#45;51.msr1.Chicago2.Level3.net&#45;&#45;8.46.100.126 -->
<g id="edge71" class="edge"><title>ae&#45;1&#45;51.msr1.Chicago2.Level3.net&#45;&#45;8.46.100.126</title>
<path fill="none" stroke="black" d="M903.258,-647.697C902.793,-636.846 902.196,-622.917 901.733,-612.104"/>
</g>
<!-- 8.46.100.126&#45;&#45;londonstockexchange.com -->
<g id="edge72" class="edge"><title>8.46.100.126&#45;&#45;londonstockexchange.com</title>
<path fill="none" stroke="black" d="M889.629,-575.697C882.499,-564.846 873.345,-550.917 866.24,-540.104"/>
</g>
<!-- tomahawktechnology.com # Nino&#39;s website -->
<g id="node72" class="node"><title>tomahawktechnology.com # Nino&#39;s website</title>
<path fill="green" stroke="white" d="M1603,-252C1603,-252 1351,-252 1351,-252 1345,-252 1339,-246 1339,-240 1339,-240 1339,-228 1339,-228 1339,-222 1345,-216 1351,-216 1351,-216 1603,-216 1603,-216 1609,-216 1615,-222 1615,-228 1615,-228 1615,-240 1615,-240 1615,-246 1609,-252 1603,-252"/>
<text text-anchor="middle" x="1477" y="-230.3" font-family="Helvetica,sans-Serif" font-size="14.00" fill="white">tomahawktechnology.com # Nino&#39;s website</text>
</g>
<!-- 172.253.65.165 -->
<g id="node74" class="node"><title>172.253.65.165</title>
<path fill="lightgrey" stroke="white" d="M1417,-828C1417,-828 1331,-828 1331,-828 1325,-828 1319,-822 1319,-816 1319,-816 1319,-804 1319,-804 1319,-798 1325,-792 1331,-792 1331,-792 1417,-792 1417,-792 1423,-792 1429,-798 1429,-804 1429,-804 1429,-816 1429,-816 1429,-822 1423,-828 1417,-828"/>
<text text-anchor="middle" x="1374" y="-806.3" font-family="Helvetica,sans-Serif" font-size="14.00">172.253.65.165</text>
</g>
<!-- 216.239.57.137&#45;&#45;172.253.65.165 -->
<g id="edge75" class="edge"><title>216.239.57.137&#45;&#45;172.253.65.165</title>
<path fill="none" stroke="black" d="M1372.49,-863.697C1372.8,-852.846 1373.2,-838.917 1373.51,-828.104"/>
</g>
<!-- 108.170.237.242 -->
<g id="node75" class="node"><title>108.170.237.242</title>
<path fill="lightgrey" stroke="white" d="M1424,-756C1424,-756 1330,-756 1330,-756 1324,-756 1318,-750 1318,-744 1318,-744 1318,-732 1318,-732 1318,-726 1324,-720 1330,-720 1330,-720 1424,-720 1424,-720 1430,-720 1436,-726 1436,-732 1436,-732 1436,-744 1436,-744 1436,-750 1430,-756 1424,-756"/>
<text text-anchor="middle" x="1377" y="-734.3" font-family="Helvetica,sans-Serif" font-size="14.00">108.170.237.242</text>
</g>
<!-- 172.253.65.165&#45;&#45;108.170.237.242 -->
<g id="edge76" class="edge"><title>172.253.65.165&#45;&#45;108.170.237.242</title>
<path fill="none" stroke="black" d="M1374.74,-791.697C1375.21,-780.846 1375.8,-766.917 1376.27,-756.104"/>
</g>
<!-- 216.239.41.208 -->
<g id="node76" class="node"><title>216.239.41.208</title>
<path fill="lightgrey" stroke="white" d="M1431,-684C1431,-684 1345,-684 1345,-684 1339,-684 1333,-678 1333,-672 1333,-672 1333,-660 1333,-660 1333,-654 1339,-648 1345,-648 1345,-648 1431,-648 1431,-648 1437,-648 1443,-654 1443,-660 1443,-660 1443,-672 1443,-672 1443,-678 1437,-684 1431,-684"/>
<text text-anchor="middle" x="1388" y="-662.3" font-family="Helvetica,sans-Serif" font-size="14.00">216.239.41.208</text>
</g>
<!-- 108.170.237.242&#45;&#45;216.239.41.208 -->
<g id="edge77" class="edge"><title>108.170.237.242&#45;&#45;216.239.41.208</title>
<path fill="none" stroke="black" d="M1379.72,-719.697C1381.42,-708.846 1383.61,-694.917 1385.31,-684.104"/>
</g>
<!-- 108.170.241.166 -->
<g id="node77" class="node"><title>108.170.241.166</title>
<path fill="lightgrey" stroke="white" d="M1441,-612C1441,-612 1347,-612 1347,-612 1341,-612 1335,-606 1335,-600 1335,-600 1335,-588 1335,-588 1335,-582 1341,-576 1347,-576 1347,-576 1441,-576 1441,-576 1447,-576 1453,-582 1453,-588 1453,-588 1453,-600 1453,-600 1453,-606 1447,-612 1441,-612"/>
<text text-anchor="middle" x="1394" y="-590.3" font-family="Helvetica,sans-Serif" font-size="14.00">108.170.241.166</text>
</g>
<!-- 216.239.41.208&#45;&#45;108.170.241.166 -->
<g id="edge78" class="edge"><title>216.239.41.208&#45;&#45;108.170.241.166</title>
<path fill="none" stroke="black" d="M1389.48,-647.697C1390.41,-636.846 1391.61,-622.917 1392.53,-612.104"/>
</g>
<!-- ae10.ibrsa0105&#45;01.ams3.bb.godaddy.com -->
<g id="node78" class="node"><title>ae10.ibrsa0105&#45;01.ams3.bb.godaddy.com</title>
<path fill="lightgrey" stroke="white" d="M1596.25,-540C1596.25,-540 1349.75,-540 1349.75,-540 1343.75,-540 1337.75,-534 1337.75,-528 1337.75,-528 1337.75,-516 1337.75,-516 1337.75,-510 1343.75,-504 1349.75,-504 1349.75,-504 1596.25,-504 1596.25,-504 1602.25,-504 1608.25,-510 1608.25,-516 1608.25,-516 1608.25,-528 1608.25,-528 1608.25,-534 1602.25,-540 1596.25,-540"/>
<text text-anchor="middle" x="1473" y="-518.3" font-family="Helvetica,sans-Serif" font-size="14.00">ae10.ibrsa0105&#45;01.ams3.bb.godaddy.com</text>
</g>
<!-- 108.170.241.166&#45;&#45;ae10.ibrsa0105&#45;01.ams3.bb.godaddy.com -->
<g id="edge79" class="edge"><title>108.170.241.166&#45;&#45;ae10.ibrsa0105&#45;01.ams3.bb.godaddy.com</title>
<path fill="none" stroke="black" d="M1413.53,-575.697C1425.77,-564.846 1441.49,-550.917 1453.7,-540.104"/>
</g>
<!-- ae2.bbsa0106&#45;01.ams3.bb.godaddy.com -->
<g id="node79" class="node"><title>ae2.bbsa0106&#45;01.ams3.bb.godaddy.com</title>
<path fill="lightgrey" stroke="white" d="M1594.25,-468C1594.25,-468 1355.75,-468 1355.75,-468 1349.75,-468 1343.75,-462 1343.75,-456 1343.75,-456 1343.75,-444 1343.75,-444 1343.75,-438 1349.75,-432 1355.75,-432 1355.75,-432 1594.25,-432 1594.25,-432 1600.25,-432 1606.25,-438 1606.25,-444 1606.25,-444 1606.25,-456 1606.25,-456 1606.25,-462 1600.25,-468 1594.25,-468"/>
<text text-anchor="middle" x="1475" y="-446.3" font-family="Helvetica,sans-Serif" font-size="14.00">ae2.bbsa0106&#45;01.ams3.bb.godaddy.com</text>
</g>
<!-- ae10.ibrsa0105&#45;01.ams3.bb.godaddy.com&#45;&#45;ae2.bbsa0106&#45;01.ams3.bb.godaddy.com -->
<g id="edge80" class="edge"><title>ae10.ibrsa0105&#45;01.ams3.bb.godaddy.com&#45;&#45;ae2.bbsa0106&#45;01.ams3.bb.godaddy.com</title>
<path fill="none" stroke="black" d="M1473.49,-503.697C1473.8,-492.846 1474.2,-478.917 1474.51,-468.104"/>
</g>
<!-- ip&#45;188&#45;121&#45;33&#45;202.ip.secureserver.net -->
<g id="node80" class="node"><title>ip&#45;188&#45;121&#45;33&#45;202.ip.secureserver.net</title>
<path fill="lightgrey" stroke="white" d="M1587,-396C1587,-396 1365,-396 1365,-396 1359,-396 1353,-390 1353,-384 1353,-384 1353,-372 1353,-372 1353,-366 1359,-360 1365,-360 1365,-360 1587,-360 1587,-360 1593,-360 1599,-366 1599,-372 1599,-372 1599,-384 1599,-384 1599,-390 1593,-396 1587,-396"/>
<text text-anchor="middle" x="1476" y="-374.3" font-family="Helvetica,sans-Serif" font-size="14.00">ip&#45;188&#45;121&#45;33&#45;202.ip.secureserver.net</text>
</g>
<!-- ae2.bbsa0106&#45;01.ams3.bb.godaddy.com&#45;&#45;ip&#45;188&#45;121&#45;33&#45;202.ip.secureserver.net -->
<g id="edge81" class="edge"><title>ae2.bbsa0106&#45;01.ams3.bb.godaddy.com&#45;&#45;ip&#45;188&#45;121&#45;33&#45;202.ip.secureserver.net</title>
<path fill="none" stroke="black" d="M1475.25,-431.697C1475.4,-420.846 1475.6,-406.917 1475.76,-396.104"/>
</g>
<!-- ip&#45;208&#45;109&#45;115&#45;142.ip.secureserver.net -->
<g id="node81" class="node"><title>ip&#45;208&#45;109&#45;115&#45;142.ip.secureserver.net</title>
<path fill="lightgrey" stroke="white" d="M1592,-324C1592,-324 1362,-324 1362,-324 1356,-324 1350,-318 1350,-312 1350,-312 1350,-300 1350,-300 1350,-294 1356,-288 1362,-288 1362,-288 1592,-288 1592,-288 1598,-288 1604,-294 1604,-300 1604,-300 1604,-312 1604,-312 1604,-318 1598,-324 1592,-324"/>
<text text-anchor="middle" x="1477" y="-302.3" font-family="Helvetica,sans-Serif" font-size="14.00">ip&#45;208&#45;109&#45;115&#45;142.ip.secureserver.net</text>
</g>
<!-- ip&#45;188&#45;121&#45;33&#45;202.ip.secureserver.net&#45;&#45;ip&#45;208&#45;109&#45;115&#45;142.ip.secureserver.net -->
<g id="edge82" class="edge"><title>ip&#45;188&#45;121&#45;33&#45;202.ip.secureserver.net&#45;&#45;ip&#45;208&#45;109&#45;115&#45;142.ip.secureserver.net</title>
<path fill="none" stroke="black" d="M1476.25,-359.697C1476.4,-348.846 1476.6,-334.917 1476.76,-324.104"/>
</g>
<!-- ip&#45;208&#45;109&#45;115&#45;142.ip.secureserver.net&#45;&#45;tomahawktechnology.com # Nino&#39;s website -->
<g id="edge83" class="edge"><title>ip&#45;208&#45;109&#45;115&#45;142.ip.secureserver.net&#45;&#45;tomahawktechnology.com # Nino&#39;s website</title>
<path fill="none" stroke="black" d="M1477,-287.697C1477,-276.846 1477,-262.917 1477,-252.104"/>
</g>
<!-- brignull.com # Harry&#39;s website -->
<g id="node82" class="node"><title>brignull.com # Harry&#39;s website</title>
<path fill="green" stroke="white" d="M1154.25,-828C1154.25,-828 981.75,-828 981.75,-828 975.75,-828 969.75,-822 969.75,-816 969.75,-816 969.75,-804 969.75,-804 969.75,-798 975.75,-792 981.75,-792 981.75,-792 1154.25,-792 1154.25,-792 1160.25,-792 1166.25,-798 1166.25,-804 1166.25,-804 1166.25,-816 1166.25,-816 1166.25,-822 1160.25,-828 1154.25,-828"/>
<text text-anchor="middle" x="1068" y="-806.3" font-family="Helvetica,sans-Serif" font-size="14.00" fill="white">brignull.com # Harry&#39;s website</text>
</g>
<!-- 108.170.243.215&#45;&#45;brignull.com # Harry&#39;s website -->
<g id="edge86" class="edge"><title>108.170.243.215&#45;&#45;brignull.com # Harry&#39;s website</title>
<path fill="none" stroke="black" d="M1051.44,-863.697C1054.85,-852.846 1059.23,-838.917 1062.62,-828.104"/>
</g>
<!-- squarepoint&#45;capital.com # SP -->
<g id="node84" class="node"><title>squarepoint&#45;capital.com # SP</title>
<path fill="green" stroke="white" d="M2083.5,-540C2083.5,-540 1914.5,-540 1914.5,-540 1908.5,-540 1902.5,-534 1902.5,-528 1902.5,-528 1902.5,-516 1902.5,-516 1902.5,-510 1908.5,-504 1914.5,-504 1914.5,-504 2083.5,-504 2083.5,-504 2089.5,-504 2095.5,-510 2095.5,-516 2095.5,-516 2095.5,-528 2095.5,-528 2095.5,-534 2089.5,-540 2083.5,-540"/>
<text text-anchor="middle" x="1999" y="-518.3" font-family="Helvetica,sans-Serif" font-size="14.00" fill="white">squarepoint&#45;capital.com # SP</text>
</g>
<!-- 108.170.252.134 -->
<g id="node86" class="node"><title>108.170.252.134</title>
<path fill="lightgrey" stroke="white" d="M1836,-828C1836,-828 1742,-828 1742,-828 1736,-828 1730,-822 1730,-816 1730,-816 1730,-804 1730,-804 1730,-798 1736,-792 1742,-792 1742,-792 1836,-792 1836,-792 1842,-792 1848,-798 1848,-804 1848,-804 1848,-816 1848,-816 1848,-822 1842,-828 1836,-828"/>
<text text-anchor="middle" x="1789" y="-806.3" font-family="Helvetica,sans-Serif" font-size="14.00">108.170.252.134</text>
</g>
<!-- 108.170.228.83&#45;&#45;108.170.252.134 -->
<g id="edge88" class="edge"><title>108.170.228.83&#45;&#45;108.170.252.134</title>
<path fill="none" stroke="black" d="M1729.53,-863.697C1741.77,-852.846 1757.49,-838.917 1769.7,-828.104"/>
</g>
<!-- cored&#45;dcpe4.dfw1.rackspace.net -->
<g id="node87" class="node"><title>cored&#45;dcpe4.dfw1.rackspace.net</title>
<path fill="lightgrey" stroke="white" d="M1975.5,-756C1975.5,-756 1788.5,-756 1788.5,-756 1782.5,-756 1776.5,-750 1776.5,-744 1776.5,-744 1776.5,-732 1776.5,-732 1776.5,-726 1782.5,-720 1788.5,-720 1788.5,-720 1975.5,-720 1975.5,-720 1981.5,-720 1987.5,-726 1987.5,-732 1987.5,-732 1987.5,-744 1987.5,-744 1987.5,-750 1981.5,-756 1975.5,-756"/>
<text text-anchor="middle" x="1882" y="-734.3" font-family="Helvetica,sans-Serif" font-size="14.00">cored&#45;dcpe4.dfw1.rackspace.net</text>
</g>
<!-- 108.170.252.134&#45;&#45;cored&#45;dcpe4.dfw1.rackspace.net -->
<g id="edge89" class="edge"><title>108.170.252.134&#45;&#45;cored&#45;dcpe4.dfw1.rackspace.net</title>
<path fill="none" stroke="black" d="M1811.99,-791.697C1826.4,-780.846 1844.91,-766.917 1859.28,-756.104"/>
</g>
<!-- core10&#45;corec.dfw1.rackspace.net -->
<g id="node88" class="node"><title>core10&#45;corec.dfw1.rackspace.net</title>
<path fill="lightgrey" stroke="white" d="M2047.25,-684C2047.25,-684 1856.75,-684 1856.75,-684 1850.75,-684 1844.75,-678 1844.75,-672 1844.75,-672 1844.75,-660 1844.75,-660 1844.75,-654 1850.75,-648 1856.75,-648 1856.75,-648 2047.25,-648 2047.25,-648 2053.25,-648 2059.25,-654 2059.25,-660 2059.25,-660 2059.25,-672 2059.25,-672 2059.25,-678 2053.25,-684 2047.25,-684"/>
<text text-anchor="middle" x="1952" y="-662.3" font-family="Helvetica,sans-Serif" font-size="14.00">core10&#45;corec.dfw1.rackspace.net</text>
</g>
<!-- cored&#45;dcpe4.dfw1.rackspace.net&#45;&#45;core10&#45;corec.dfw1.rackspace.net -->
<g id="edge90" class="edge"><title>cored&#45;dcpe4.dfw1.rackspace.net&#45;&#45;core10&#45;corec.dfw1.rackspace.net</title>
<path fill="none" stroke="black" d="M1899.3,-719.697C1910.15,-708.846 1924.08,-694.917 1934.9,-684.104"/>
</g>
<!-- core10&#45;aggr171b&#45;8.dfw3.rackspace.net -->
<g id="node89" class="node"><title>core10&#45;aggr171b&#45;8.dfw3.rackspace.net</title>
<path fill="lightgrey" stroke="white" d="M2093.25,-612C2093.25,-612 1866.75,-612 1866.75,-612 1860.75,-612 1854.75,-606 1854.75,-600 1854.75,-600 1854.75,-588 1854.75,-588 1854.75,-582 1860.75,-576 1866.75,-576 1866.75,-576 2093.25,-576 2093.25,-576 2099.25,-576 2105.25,-582 2105.25,-588 2105.25,-588 2105.25,-600 2105.25,-600 2105.25,-606 2099.25,-612 2093.25,-612"/>
<text text-anchor="middle" x="1980" y="-590.3" font-family="Helvetica,sans-Serif" font-size="14.00">core10&#45;aggr171b&#45;8.dfw3.rackspace.net</text>
</g>
<!-- core10&#45;corec.dfw1.rackspace.net&#45;&#45;core10&#45;aggr171b&#45;8.dfw3.rackspace.net -->
<g id="edge91" class="edge"><title>core10&#45;corec.dfw1.rackspace.net&#45;&#45;core10&#45;aggr171b&#45;8.dfw3.rackspace.net</title>
<path fill="none" stroke="black" d="M1958.92,-647.697C1963.26,-636.846 1968.83,-622.917 1973.16,-612.104"/>
</g>
<!-- core10&#45;aggr171b&#45;8.dfw3.rackspace.net&#45;&#45;squarepoint&#45;capital.com # SP -->
<g id="edge92" class="edge"><title>core10&#45;aggr171b&#45;8.dfw3.rackspace.net&#45;&#45;squarepoint&#45;capital.com # SP</title>
<path fill="none" stroke="black" d="M1984.7,-575.697C1987.64,-564.846 1991.42,-550.917 1994.36,-540.104"/>
</g>
</g>
</svg>
