<?xml version="1.0" encoding="UTF-8" standalone="no"?>
<!DOCTYPE svg PUBLIC "-//W3C//DTD SVG 1.1//EN"
 "http://www.w3.org/Graphics/SVG/1.1/DTD/svg11.dtd">
<!-- Generated by graphviz version 2.38.0 (20140413.2041)
 -->
<!-- Title: %3 Pages: 1 -->
<svg width="1049pt" height="1147pt"
 viewBox="0.00 0.00 1048.50 1147.00" xmlns="http://www.w3.org/2000/svg" xmlns:xlink="http://www.w3.org/1999/xlink">
<g id="graph0" class="graph" transform="scale(1 1) rotate(0) translate(4 1143)">
<title>%3</title>
<polygon fill="white" stroke="none" points="-4,4 -4,-1143 1044.5,-1143 1044.5,4 -4,4"/>
<text text-anchor="middle" x="154" y="-1123.8" font-family="Helvetica,sans-Serif" font-size="14.00">./hosts2dot.sh &#45; Thu 14 Dec 13:50:27 GMT 2017</text>
<!-- soy_yo -->
<g id="node1" class="node"><title>soy_yo</title>
<path fill="lightgrey" stroke="white" d="M508.5,-1116C508.5,-1116 442.5,-1116 442.5,-1116 436.5,-1116 430.5,-1110 430.5,-1104 430.5,-1104 430.5,-1092 430.5,-1092 430.5,-1086 436.5,-1080 442.5,-1080 442.5,-1080 508.5,-1080 508.5,-1080 514.5,-1080 520.5,-1086 520.5,-1092 520.5,-1092 520.5,-1104 520.5,-1104 520.5,-1110 514.5,-1116 508.5,-1116"/>
<text text-anchor="middle" x="475.5" y="-1094.3" font-family="Helvetica,sans-Serif" font-size="14.00">dev (soy yo)</text>
</g>
<!-- gateway -->
<g id="node3" class="node"><title>gateway</title>
<path fill="lightgrey" stroke="white" d="M497,-1044C497,-1044 454,-1044 454,-1044 448,-1044 442,-1038 442,-1032 442,-1032 442,-1020 442,-1020 442,-1014 448,-1008 454,-1008 454,-1008 497,-1008 497,-1008 503,-1008 509,-1014 509,-1020 509,-1020 509,-1032 509,-1032 509,-1038 503,-1044 497,-1044"/>
<text text-anchor="middle" x="475.5" y="-1022.3" font-family="Helvetica,sans-Serif" font-size="14.00">gateway</text>
</g>
<!-- soy_yo&#45;&#45;gateway -->
<g id="edge1" class="edge"><title>soy_yo&#45;&#45;gateway</title>
<path fill="none" stroke="black" d="M475.5,-1079.7C475.5,-1068.85 475.5,-1054.92 475.5,-1044.1"/>
</g>
<!-- google.co.uk -->
<g id="node2" class="node"><title>google.co.uk</title>
<path fill="green" stroke="white" d="M281,-612C281,-612 212,-612 212,-612 206,-612 200,-606 200,-600 200,-600 200,-588 200,-588 200,-582 206,-576 212,-576 212,-576 281,-576 281,-576 287,-576 293,-582 293,-588 293,-588 293,-600 293,-600 293,-606 287,-612 281,-612"/>
<text text-anchor="middle" x="246.5" y="-590.3" font-family="Helvetica,sans-Serif" font-size="14.00" fill="white">google.co.uk</text>
</g>
<!-- gateway&#45;&#45;gateway -->
<g id="edge2" class="edge"><title>gateway&#45;&#45;gateway</title>
<path fill="none" stroke="black" d="M509.181,-1039.47C519.202,-1039.07 527,-1034.58 527,-1026 527,-1017.42 519.202,-1012.93 509.181,-1012.53"/>
</g>
<!-- 10.248.28.153 -->
<g id="node4" class="node"><title>10.248.28.153</title>
<path fill="lightgrey" stroke="white" d="M455,-972C455,-972 376,-972 376,-972 370,-972 364,-966 364,-960 364,-960 364,-948 364,-948 364,-942 370,-936 376,-936 376,-936 455,-936 455,-936 461,-936 467,-942 467,-948 467,-948 467,-960 467,-960 467,-966 461,-972 455,-972"/>
<text text-anchor="middle" x="415.5" y="-950.3" font-family="Helvetica,sans-Serif" font-size="14.00">10.248.28.153</text>
</g>
<!-- gateway&#45;&#45;10.248.28.153 -->
<g id="edge3" class="edge"><title>gateway&#45;&#45;10.248.28.153</title>
<path fill="none" stroke="black" d="M460.669,-1007.7C451.368,-996.846 439.429,-982.917 430.161,-972.104"/>
</g>
<!-- 10.248.28.145 -->
<g id="node10" class="node"><title>10.248.28.145</title>
<path fill="lightgrey" stroke="white" d="M576,-972C576,-972 497,-972 497,-972 491,-972 485,-966 485,-960 485,-960 485,-948 485,-948 485,-942 491,-936 497,-936 497,-936 576,-936 576,-936 582,-936 588,-942 588,-948 588,-948 588,-960 588,-960 588,-966 582,-972 576,-972"/>
<text text-anchor="middle" x="536.5" y="-950.3" font-family="Helvetica,sans-Serif" font-size="14.00">10.248.28.145</text>
</g>
<!-- gateway&#45;&#45;10.248.28.145 -->
<g id="edge10" class="edge"><title>gateway&#45;&#45;10.248.28.145</title>
<path fill="none" stroke="black" d="M490.579,-1007.7C500.034,-996.846 512.173,-982.917 521.595,-972.104"/>
</g>
<!-- 10.247.84.6 -->
<g id="node5" class="node"><title>10.247.84.6</title>
<path fill="lightgrey" stroke="white" d="M507.5,-900C507.5,-900 443.5,-900 443.5,-900 437.5,-900 431.5,-894 431.5,-888 431.5,-888 431.5,-876 431.5,-876 431.5,-870 437.5,-864 443.5,-864 443.5,-864 507.5,-864 507.5,-864 513.5,-864 519.5,-870 519.5,-876 519.5,-876 519.5,-888 519.5,-888 519.5,-894 513.5,-900 507.5,-900"/>
<text text-anchor="middle" x="475.5" y="-878.3" font-family="Helvetica,sans-Serif" font-size="14.00">10.247.84.6</text>
</g>
<!-- 10.248.28.153&#45;&#45;10.247.84.6 -->
<g id="edge4" class="edge"><title>10.248.28.153&#45;&#45;10.247.84.6</title>
<path fill="none" stroke="black" d="M430.331,-935.697C439.632,-924.846 451.571,-910.917 460.839,-900.104"/>
</g>
<!-- 10.247.84.9 -->
<g id="node6" class="node"><title>10.247.84.9</title>
<path fill="lightgrey" stroke="white" d="M507.5,-828C507.5,-828 443.5,-828 443.5,-828 437.5,-828 431.5,-822 431.5,-816 431.5,-816 431.5,-804 431.5,-804 431.5,-798 437.5,-792 443.5,-792 443.5,-792 507.5,-792 507.5,-792 513.5,-792 519.5,-798 519.5,-804 519.5,-804 519.5,-816 519.5,-816 519.5,-822 513.5,-828 507.5,-828"/>
<text text-anchor="middle" x="475.5" y="-806.3" font-family="Helvetica,sans-Serif" font-size="14.00">10.247.84.9</text>
</g>
<!-- 10.247.84.6&#45;&#45;10.247.84.9 -->
<g id="edge5" class="edge"><title>10.247.84.6&#45;&#45;10.247.84.9</title>
<path fill="none" stroke="black" d="M475.5,-863.697C475.5,-852.846 475.5,-838.917 475.5,-828.104"/>
</g>
<!-- 87.237.20.224 -->
<g id="node7" class="node"><title>87.237.20.224</title>
<path fill="lightgrey" stroke="white" d="M515,-756C515,-756 436,-756 436,-756 430,-756 424,-750 424,-744 424,-744 424,-732 424,-732 424,-726 430,-720 436,-720 436,-720 515,-720 515,-720 521,-720 527,-726 527,-732 527,-732 527,-744 527,-744 527,-750 521,-756 515,-756"/>
<text text-anchor="middle" x="475.5" y="-734.3" font-family="Helvetica,sans-Serif" font-size="14.00">87.237.20.224</text>
</g>
<!-- 10.247.84.9&#45;&#45;87.237.20.224 -->
<g id="edge6" class="edge"><title>10.247.84.9&#45;&#45;87.237.20.224</title>
<path fill="none" stroke="black" d="M475.5,-791.697C475.5,-780.846 475.5,-766.917 475.5,-756.104"/>
</g>
<!-- 87.237.20.224&#45;&#45;87.237.20.224 -->
<g id="edge7" class="edge"><title>87.237.20.224&#45;&#45;87.237.20.224</title>
<path fill="none" stroke="black" d="M527.025,-750.985C537.5,-749.571 545,-745.242 545,-738 545,-730.758 537.5,-726.429 527.025,-725.015"/>
</g>
<!-- 87.237.20.73 -->
<g id="node8" class="node"><title>87.237.20.73</title>
<path fill="lightgrey" stroke="white" d="M511,-684C511,-684 440,-684 440,-684 434,-684 428,-678 428,-672 428,-672 428,-660 428,-660 428,-654 434,-648 440,-648 440,-648 511,-648 511,-648 517,-648 523,-654 523,-660 523,-660 523,-672 523,-672 523,-678 517,-684 511,-684"/>
<text text-anchor="middle" x="475.5" y="-662.3" font-family="Helvetica,sans-Serif" font-size="14.00">87.237.20.73</text>
</g>
<!-- 87.237.20.224&#45;&#45;87.237.20.73 -->
<g id="edge8" class="edge"><title>87.237.20.224&#45;&#45;87.237.20.73</title>
<path fill="none" stroke="black" d="M475.5,-719.697C475.5,-708.846 475.5,-694.917 475.5,-684.104"/>
</g>
<!-- 87.237.20.73&#45;&#45;google.co.uk -->
<g id="edge9" class="edge"><title>87.237.20.73&#45;&#45;google.co.uk</title>
<path fill="none" stroke="black" d="M427.849,-650.543C392.872,-639.918 344.218,-625.108 301.5,-612 298.729,-611.15 295.88,-610.274 293.007,-609.389"/>
</g>
<!-- youtube.com -->
<g id="node9" class="node"><title>youtube.com</title>
<path fill="green" stroke="white" d="M394,-612C394,-612 323,-612 323,-612 317,-612 311,-606 311,-600 311,-600 311,-588 311,-588 311,-582 317,-576 323,-576 323,-576 394,-576 394,-576 400,-576 406,-582 406,-588 406,-588 406,-600 406,-600 406,-606 400,-612 394,-612"/>
<text text-anchor="middle" x="358.5" y="-590.3" font-family="Helvetica,sans-Serif" font-size="14.00" fill="white">youtube.com</text>
</g>
<!-- 87.237.20.73&#45;&#45;youtube.com -->
<g id="edge12" class="edge"><title>87.237.20.73&#45;&#45;youtube.com</title>
<path fill="none" stroke="black" d="M446.879,-647.876C428.748,-637.029 405.383,-623.05 387.231,-612.19"/>
</g>
<!-- 80.150.169.13 -->
<g id="node12" class="node"><title>80.150.169.13</title>
<path fill="lightgrey" stroke="white" d="M515,-612C515,-612 436,-612 436,-612 430,-612 424,-606 424,-600 424,-600 424,-588 424,-588 424,-582 430,-576 436,-576 436,-576 515,-576 515,-576 521,-576 527,-582 527,-588 527,-588 527,-600 527,-600 527,-606 521,-612 515,-612"/>
<text text-anchor="middle" x="475.5" y="-590.3" font-family="Helvetica,sans-Serif" font-size="14.00">80.150.169.13</text>
</g>
<!-- 87.237.20.73&#45;&#45;80.150.169.13 -->
<g id="edge13" class="edge"><title>87.237.20.73&#45;&#45;80.150.169.13</title>
<path fill="none" stroke="black" d="M475.5,-647.697C475.5,-636.846 475.5,-622.917 475.5,-612.104"/>
</g>
<!-- 87.237.20.33 -->
<g id="node23" class="node"><title>87.237.20.33</title>
<path fill="lightgrey" stroke="white" d="M628,-612C628,-612 557,-612 557,-612 551,-612 545,-606 545,-600 545,-600 545,-588 545,-588 545,-582 551,-576 557,-576 557,-576 628,-576 628,-576 634,-576 640,-582 640,-588 640,-588 640,-600 640,-600 640,-606 634,-612 628,-612"/>
<text text-anchor="middle" x="592.5" y="-590.3" font-family="Helvetica,sans-Serif" font-size="14.00">87.237.20.33</text>
</g>
<!-- 87.237.20.73&#45;&#45;87.237.20.33 -->
<g id="edge25" class="edge"><title>87.237.20.73&#45;&#45;87.237.20.33</title>
<path fill="none" stroke="black" d="M504.121,-647.876C522.252,-637.029 545.617,-623.05 563.769,-612.19"/>
</g>
<!-- bbr01.lon01.networklayer.com -->
<g id="node31" class="node"><title>bbr01.lon01.networklayer.com</title>
<path fill="lightgrey" stroke="white" d="M864.5,-612C864.5,-612 690.5,-612 690.5,-612 684.5,-612 678.5,-606 678.5,-600 678.5,-600 678.5,-588 678.5,-588 678.5,-582 684.5,-576 690.5,-576 690.5,-576 864.5,-576 864.5,-576 870.5,-576 876.5,-582 876.5,-588 876.5,-588 876.5,-600 876.5,-600 876.5,-606 870.5,-612 864.5,-612"/>
<text text-anchor="middle" x="777.5" y="-590.3" font-family="Helvetica,sans-Serif" font-size="14.00">bbr01.lon01.networklayer.com</text>
</g>
<!-- 87.237.20.73&#45;&#45;bbr01.lon01.networklayer.com -->
<g id="edge34" class="edge"><title>87.237.20.73&#45;&#45;bbr01.lon01.networklayer.com</title>
<path fill="none" stroke="black" d="M523.02,-653.985C571.606,-642.724 647.734,-625.078 704.078,-612.018"/>
</g>
<!-- 10.248.28.145&#45;&#45;10.247.84.6 -->
<g id="edge11" class="edge"><title>10.248.28.145&#45;&#45;10.247.84.6</title>
<path fill="none" stroke="black" d="M521.421,-935.697C511.966,-924.846 499.827,-910.917 490.405,-900.104"/>
</g>
<!-- deanturpin.github.io -->
<g id="node11" class="node"><title>deanturpin.github.io</title>
<path fill="green" stroke="white" d="M123,-396C123,-396 12,-396 12,-396 6,-396 0,-390 0,-384 0,-384 0,-372 0,-372 0,-366 6,-360 12,-360 12,-360 123,-360 123,-360 129,-360 135,-366 135,-372 135,-372 135,-384 135,-384 135,-390 129,-396 123,-396"/>
<text text-anchor="middle" x="67.5" y="-374.3" font-family="Helvetica,sans-Serif" font-size="14.00" fill="white">deanturpin.github.io</text>
</g>
<!-- 80.150.170.106 -->
<g id="node13" class="node"><title>80.150.170.106</title>
<path fill="lightgrey" stroke="white" d="M308.5,-540C308.5,-540 222.5,-540 222.5,-540 216.5,-540 210.5,-534 210.5,-528 210.5,-528 210.5,-516 210.5,-516 210.5,-510 216.5,-504 222.5,-504 222.5,-504 308.5,-504 308.5,-504 314.5,-504 320.5,-510 320.5,-516 320.5,-516 320.5,-528 320.5,-528 320.5,-534 314.5,-540 308.5,-540"/>
<text text-anchor="middle" x="265.5" y="-518.3" font-family="Helvetica,sans-Serif" font-size="14.00">80.150.170.106</text>
</g>
<!-- 80.150.169.13&#45;&#45;80.150.170.106 -->
<g id="edge14" class="edge"><title>80.150.169.13&#45;&#45;80.150.170.106</title>
<path fill="none" stroke="black" d="M424.397,-575.966C391.738,-565.079 349.536,-551.012 316.832,-540.111"/>
</g>
<!-- 80.150.170.106&#45;&#45;80.150.170.106 -->
<g id="edge15" class="edge"><title>80.150.170.106&#45;&#45;80.150.170.106</title>
<path fill="none" stroke="black" d="M320.573,-534.854C331.074,-533.316 338.5,-529.031 338.5,-522 338.5,-514.969 331.074,-510.684 320.573,-509.146"/>
</g>
<!-- 151.101.17.147 -->
<g id="node14" class="node"><title>151.101.17.147</title>
<path fill="lightgrey" stroke="white" d="M114.5,-468C114.5,-468 28.5,-468 28.5,-468 22.5,-468 16.5,-462 16.5,-456 16.5,-456 16.5,-444 16.5,-444 16.5,-438 22.5,-432 28.5,-432 28.5,-432 114.5,-432 114.5,-432 120.5,-432 126.5,-438 126.5,-444 126.5,-444 126.5,-456 126.5,-456 126.5,-462 120.5,-468 114.5,-468"/>
<text text-anchor="middle" x="71.5" y="-446.3" font-family="Helvetica,sans-Serif" font-size="14.00">151.101.17.147</text>
</g>
<!-- 80.150.170.106&#45;&#45;151.101.17.147 -->
<g id="edge16" class="edge"><title>80.150.170.106&#45;&#45;151.101.17.147</title>
<path fill="none" stroke="black" d="M218.042,-503.876C187.867,-492.988 148.949,-478.945 118.804,-468.068"/>
</g>
<!-- ae&#45;3.r24.londen12.uk.bb.gin.ntt.net -->
<g id="node16" class="node"><title>ae&#45;3.r24.londen12.uk.bb.gin.ntt.net</title>
<path fill="lightgrey" stroke="white" d="M366.5,-468C366.5,-468 164.5,-468 164.5,-468 158.5,-468 152.5,-462 152.5,-456 152.5,-456 152.5,-444 152.5,-444 152.5,-438 158.5,-432 164.5,-432 164.5,-432 366.5,-432 366.5,-432 372.5,-432 378.5,-438 378.5,-444 378.5,-444 378.5,-456 378.5,-456 378.5,-462 372.5,-468 366.5,-468"/>
<text text-anchor="middle" x="265.5" y="-446.3" font-family="Helvetica,sans-Serif" font-size="14.00">ae&#45;3.r24.londen12.uk.bb.gin.ntt.net</text>
</g>
<!-- 80.150.170.106&#45;&#45;ae&#45;3.r24.londen12.uk.bb.gin.ntt.net -->
<g id="edge18" class="edge"><title>80.150.170.106&#45;&#45;ae&#45;3.r24.londen12.uk.bb.gin.ntt.net</title>
<path fill="none" stroke="black" d="M265.5,-503.697C265.5,-492.846 265.5,-478.917 265.5,-468.104"/>
</g>
<!-- 151.101.17.147&#45;&#45;deanturpin.github.io -->
<g id="edge17" class="edge"><title>151.101.17.147&#45;&#45;deanturpin.github.io</title>
<path fill="none" stroke="black" d="M70.5112,-431.697C69.8912,-420.846 69.0952,-406.917 68.4774,-396.104"/>
</g>
<!-- github.com -->
<g id="node15" class="node"><title>github.com</title>
<path fill="green" stroke="white" d="M299,-36C299,-36 240,-36 240,-36 234,-36 228,-30 228,-24 228,-24 228,-12 228,-12 228,-6 234,-0 240,-0 240,-0 299,-0 299,-0 305,-0 311,-6 311,-12 311,-12 311,-24 311,-24 311,-30 305,-36 299,-36"/>
<text text-anchor="middle" x="269.5" y="-14.3" font-family="Helvetica,sans-Serif" font-size="14.00" fill="white">github.com</text>
</g>
<!-- ae&#45;5.r24.nycmny01.us.bb.gin.ntt.net -->
<g id="node17" class="node"><title>ae&#45;5.r24.nycmny01.us.bb.gin.ntt.net</title>
<path fill="lightgrey" stroke="white" d="M374,-396C374,-396 165,-396 165,-396 159,-396 153,-390 153,-384 153,-384 153,-372 153,-372 153,-366 159,-360 165,-360 165,-360 374,-360 374,-360 380,-360 386,-366 386,-372 386,-372 386,-384 386,-384 386,-390 380,-396 374,-396"/>
<text text-anchor="middle" x="269.5" y="-374.3" font-family="Helvetica,sans-Serif" font-size="14.00">ae&#45;5.r24.nycmny01.us.bb.gin.ntt.net</text>
</g>
<!-- ae&#45;3.r24.londen12.uk.bb.gin.ntt.net&#45;&#45;ae&#45;5.r24.nycmny01.us.bb.gin.ntt.net -->
<g id="edge19" class="edge"><title>ae&#45;3.r24.londen12.uk.bb.gin.ntt.net&#45;&#45;ae&#45;5.r24.nycmny01.us.bb.gin.ntt.net</title>
<path fill="none" stroke="black" d="M266.489,-431.697C267.109,-420.846 267.905,-406.917 268.523,-396.104"/>
</g>
<!-- ae&#45;1.r25.nycmny01.us.bb.gin.ntt.net -->
<g id="node18" class="node"><title>ae&#45;1.r25.nycmny01.us.bb.gin.ntt.net</title>
<path fill="lightgrey" stroke="white" d="M374,-324C374,-324 165,-324 165,-324 159,-324 153,-318 153,-312 153,-312 153,-300 153,-300 153,-294 159,-288 165,-288 165,-288 374,-288 374,-288 380,-288 386,-294 386,-300 386,-300 386,-312 386,-312 386,-318 380,-324 374,-324"/>
<text text-anchor="middle" x="269.5" y="-302.3" font-family="Helvetica,sans-Serif" font-size="14.00">ae&#45;1.r25.nycmny01.us.bb.gin.ntt.net</text>
</g>
<!-- ae&#45;5.r24.nycmny01.us.bb.gin.ntt.net&#45;&#45;ae&#45;1.r25.nycmny01.us.bb.gin.ntt.net -->
<g id="edge20" class="edge"><title>ae&#45;5.r24.nycmny01.us.bb.gin.ntt.net&#45;&#45;ae&#45;1.r25.nycmny01.us.bb.gin.ntt.net</title>
<path fill="none" stroke="black" d="M269.5,-359.697C269.5,-348.846 269.5,-334.917 269.5,-324.104"/>
</g>
<!-- ae&#45;9.r22.asbnva02.us.bb.gin.ntt.net -->
<g id="node19" class="node"><title>ae&#45;9.r22.asbnva02.us.bb.gin.ntt.net</title>
<path fill="lightgrey" stroke="white" d="M372,-252C372,-252 167,-252 167,-252 161,-252 155,-246 155,-240 155,-240 155,-228 155,-228 155,-222 161,-216 167,-216 167,-216 372,-216 372,-216 378,-216 384,-222 384,-228 384,-228 384,-240 384,-240 384,-246 378,-252 372,-252"/>
<text text-anchor="middle" x="269.5" y="-230.3" font-family="Helvetica,sans-Serif" font-size="14.00">ae&#45;9.r22.asbnva02.us.bb.gin.ntt.net</text>
</g>
<!-- ae&#45;1.r25.nycmny01.us.bb.gin.ntt.net&#45;&#45;ae&#45;9.r22.asbnva02.us.bb.gin.ntt.net -->
<g id="edge21" class="edge"><title>ae&#45;1.r25.nycmny01.us.bb.gin.ntt.net&#45;&#45;ae&#45;9.r22.asbnva02.us.bb.gin.ntt.net</title>
<path fill="none" stroke="black" d="M269.5,-287.697C269.5,-276.846 269.5,-262.917 269.5,-252.104"/>
</g>
<!-- ae&#45;1.r05.asbnva02.us.bb.gin.ntt.net -->
<g id="node20" class="node"><title>ae&#45;1.r05.asbnva02.us.bb.gin.ntt.net</title>
<path fill="lightgrey" stroke="white" d="M372,-180C372,-180 167,-180 167,-180 161,-180 155,-174 155,-168 155,-168 155,-156 155,-156 155,-150 161,-144 167,-144 167,-144 372,-144 372,-144 378,-144 384,-150 384,-156 384,-156 384,-168 384,-168 384,-174 378,-180 372,-180"/>
<text text-anchor="middle" x="269.5" y="-158.3" font-family="Helvetica,sans-Serif" font-size="14.00">ae&#45;1.r05.asbnva02.us.bb.gin.ntt.net</text>
</g>
<!-- ae&#45;9.r22.asbnva02.us.bb.gin.ntt.net&#45;&#45;ae&#45;1.r05.asbnva02.us.bb.gin.ntt.net -->
<g id="edge22" class="edge"><title>ae&#45;9.r22.asbnva02.us.bb.gin.ntt.net&#45;&#45;ae&#45;1.r05.asbnva02.us.bb.gin.ntt.net</title>
<path fill="none" stroke="black" d="M269.5,-215.697C269.5,-204.846 269.5,-190.917 269.5,-180.104"/>
</g>
<!-- ae&#45;0.a03.asbnva02.us.bb.gin.ntt.net -->
<g id="node21" class="node"><title>ae&#45;0.a03.asbnva02.us.bb.gin.ntt.net</title>
<path fill="lightgrey" stroke="white" d="M373.5,-108C373.5,-108 165.5,-108 165.5,-108 159.5,-108 153.5,-102 153.5,-96 153.5,-96 153.5,-84 153.5,-84 153.5,-78 159.5,-72 165.5,-72 165.5,-72 373.5,-72 373.5,-72 379.5,-72 385.5,-78 385.5,-84 385.5,-84 385.5,-96 385.5,-96 385.5,-102 379.5,-108 373.5,-108"/>
<text text-anchor="middle" x="269.5" y="-86.3" font-family="Helvetica,sans-Serif" font-size="14.00">ae&#45;0.a03.asbnva02.us.bb.gin.ntt.net</text>
</g>
<!-- ae&#45;1.r05.asbnva02.us.bb.gin.ntt.net&#45;&#45;ae&#45;0.a03.asbnva02.us.bb.gin.ntt.net -->
<g id="edge23" class="edge"><title>ae&#45;1.r05.asbnva02.us.bb.gin.ntt.net&#45;&#45;ae&#45;0.a03.asbnva02.us.bb.gin.ntt.net</title>
<path fill="none" stroke="black" d="M269.5,-143.697C269.5,-132.846 269.5,-118.917 269.5,-108.104"/>
</g>
<!-- ae&#45;0.a03.asbnva02.us.bb.gin.ntt.net&#45;&#45;github.com -->
<g id="edge24" class="edge"><title>ae&#45;0.a03.asbnva02.us.bb.gin.ntt.net&#45;&#45;github.com</title>
<path fill="none" stroke="black" d="M269.5,-71.6966C269.5,-60.8463 269.5,-46.9167 269.5,-36.1043"/>
</g>
<!-- thebunker.net -->
<g id="node22" class="node"><title>thebunker.net</title>
<path fill="green" stroke="white" d="M606,-324C606,-324 531,-324 531,-324 525,-324 519,-318 519,-312 519,-312 519,-300 519,-300 519,-294 525,-288 531,-288 531,-288 606,-288 606,-288 612,-288 618,-294 618,-300 618,-300 618,-312 618,-312 618,-318 612,-324 606,-324"/>
<text text-anchor="middle" x="568.5" y="-302.3" font-family="Helvetica,sans-Serif" font-size="14.00" fill="white">thebunker.net</text>
</g>
<!-- 87.237.20.33&#45;&#45;87.237.20.33 -->
<g id="edge26" class="edge"><title>87.237.20.33&#45;&#45;87.237.20.33</title>
<path fill="none" stroke="black" d="M640.19,-607.101C650.513,-605.82 658,-601.453 658,-594 658,-586.547 650.513,-582.18 640.19,-580.899"/>
</g>
<!-- linx1.orbital.net -->
<g id="node24" class="node"><title>linx1.orbital.net</title>
<path fill="lightgrey" stroke="white" d="M634,-540C634,-540 551,-540 551,-540 545,-540 539,-534 539,-528 539,-528 539,-516 539,-516 539,-510 545,-504 551,-504 551,-504 634,-504 634,-504 640,-504 646,-510 646,-516 646,-516 646,-528 646,-528 646,-534 640,-540 634,-540"/>
<text text-anchor="middle" x="592.5" y="-518.3" font-family="Helvetica,sans-Serif" font-size="14.00">linx1.orbital.net</text>
</g>
<!-- 87.237.20.33&#45;&#45;linx1.orbital.net -->
<g id="edge27" class="edge"><title>87.237.20.33&#45;&#45;linx1.orbital.net</title>
<path fill="none" stroke="black" d="M592.5,-575.697C592.5,-564.846 592.5,-550.917 592.5,-540.104"/>
</g>
<!-- xe2&#45;2&#45;ve&#45;83.thn&#45;pe&#45;2.thn.thebunker.net.202.88.80.in&#45;addr.arpa -->
<g id="node25" class="node"><title>xe2&#45;2&#45;ve&#45;83.thn&#45;pe&#45;2.thn.thebunker.net.202.88.80.in&#45;addr.arpa</title>
<path fill="lightgrey" stroke="white" d="M776.5,-468C776.5,-468 408.5,-468 408.5,-468 402.5,-468 396.5,-462 396.5,-456 396.5,-456 396.5,-444 396.5,-444 396.5,-438 402.5,-432 408.5,-432 408.5,-432 776.5,-432 776.5,-432 782.5,-432 788.5,-438 788.5,-444 788.5,-444 788.5,-456 788.5,-456 788.5,-462 782.5,-468 776.5,-468"/>
<text text-anchor="middle" x="592.5" y="-446.3" font-family="Helvetica,sans-Serif" font-size="14.00">xe2&#45;2&#45;ve&#45;83.thn&#45;pe&#45;2.thn.thebunker.net.202.88.80.in&#45;addr.arpa</text>
</g>
<!-- linx1.orbital.net&#45;&#45;xe2&#45;2&#45;ve&#45;83.thn&#45;pe&#45;2.thn.thebunker.net.202.88.80.in&#45;addr.arpa -->
<g id="edge28" class="edge"><title>linx1.orbital.net&#45;&#45;xe2&#45;2&#45;ve&#45;83.thn&#45;pe&#45;2.thn.thebunker.net.202.88.80.in&#45;addr.arpa</title>
<path fill="none" stroke="black" d="M592.5,-503.697C592.5,-492.846 592.5,-478.917 592.5,-468.104"/>
</g>
<!-- ash&#45;gslb&#45;1&#45;gw.eth1&#45;36.ash&#45;pe&#45;2.thebunker.net -->
<g id="node26" class="node"><title>ash&#45;gslb&#45;1&#45;gw.eth1&#45;36.ash&#45;pe&#45;2.thebunker.net</title>
<path fill="lightgrey" stroke="white" d="M703.5,-396C703.5,-396 433.5,-396 433.5,-396 427.5,-396 421.5,-390 421.5,-384 421.5,-384 421.5,-372 421.5,-372 421.5,-366 427.5,-360 433.5,-360 433.5,-360 703.5,-360 703.5,-360 709.5,-360 715.5,-366 715.5,-372 715.5,-372 715.5,-384 715.5,-384 715.5,-390 709.5,-396 703.5,-396"/>
<text text-anchor="middle" x="568.5" y="-374.3" font-family="Helvetica,sans-Serif" font-size="14.00">ash&#45;gslb&#45;1&#45;gw.eth1&#45;36.ash&#45;pe&#45;2.thebunker.net</text>
</g>
<!-- xe2&#45;2&#45;ve&#45;83.thn&#45;pe&#45;2.thn.thebunker.net.202.88.80.in&#45;addr.arpa&#45;&#45;ash&#45;gslb&#45;1&#45;gw.eth1&#45;36.ash&#45;pe&#45;2.thebunker.net -->
<g id="edge29" class="edge"><title>xe2&#45;2&#45;ve&#45;83.thn&#45;pe&#45;2.thn.thebunker.net.202.88.80.in&#45;addr.arpa&#45;&#45;ash&#45;gslb&#45;1&#45;gw.eth1&#45;36.ash&#45;pe&#45;2.thebunker.net</title>
<path fill="none" stroke="black" d="M586.567,-431.697C582.847,-420.846 578.071,-406.917 574.364,-396.104"/>
</g>
<!-- 213.129.70.253 -->
<g id="node28" class="node"><title>213.129.70.253</title>
<path fill="lightgrey" stroke="white" d="M831.5,-396C831.5,-396 745.5,-396 745.5,-396 739.5,-396 733.5,-390 733.5,-384 733.5,-384 733.5,-372 733.5,-372 733.5,-366 739.5,-360 745.5,-360 745.5,-360 831.5,-360 831.5,-360 837.5,-360 843.5,-366 843.5,-372 843.5,-372 843.5,-384 843.5,-384 843.5,-390 837.5,-396 831.5,-396"/>
<text text-anchor="middle" x="788.5" y="-374.3" font-family="Helvetica,sans-Serif" font-size="14.00">213.129.70.253</text>
</g>
<!-- xe2&#45;2&#45;ve&#45;83.thn&#45;pe&#45;2.thn.thebunker.net.202.88.80.in&#45;addr.arpa&#45;&#45;213.129.70.253 -->
<g id="edge31" class="edge"><title>xe2&#45;2&#45;ve&#45;83.thn&#45;pe&#45;2.thn.thebunker.net.202.88.80.in&#45;addr.arpa&#45;&#45;213.129.70.253</title>
<path fill="none" stroke="black" d="M640.196,-431.966C670.678,-421.079 710.067,-407.012 740.59,-396.111"/>
</g>
<!-- ash&#45;gslb&#45;1&#45;gw.eth1&#45;36.ash&#45;pe&#45;2.thebunker.net&#45;&#45;thebunker.net -->
<g id="edge30" class="edge"><title>ash&#45;gslb&#45;1&#45;gw.eth1&#45;36.ash&#45;pe&#45;2.thebunker.net&#45;&#45;thebunker.net</title>
<path fill="none" stroke="black" d="M568.5,-359.697C568.5,-348.846 568.5,-334.917 568.5,-324.104"/>
</g>
<!-- infinityfoods.coop -->
<g id="node27" class="node"><title>infinityfoods.coop</title>
<path fill="green" stroke="white" d="M837,-252C837,-252 740,-252 740,-252 734,-252 728,-246 728,-240 728,-240 728,-228 728,-228 728,-222 734,-216 740,-216 740,-216 837,-216 837,-216 843,-216 849,-222 849,-228 849,-228 849,-240 849,-240 849,-246 843,-252 837,-252"/>
<text text-anchor="middle" x="788.5" y="-230.3" font-family="Helvetica,sans-Serif" font-size="14.00" fill="white">infinityfoods.coop</text>
</g>
<!-- 213.129.70.237 -->
<g id="node29" class="node"><title>213.129.70.237</title>
<path fill="lightgrey" stroke="white" d="M831.5,-324C831.5,-324 745.5,-324 745.5,-324 739.5,-324 733.5,-318 733.5,-312 733.5,-312 733.5,-300 733.5,-300 733.5,-294 739.5,-288 745.5,-288 745.5,-288 831.5,-288 831.5,-288 837.5,-288 843.5,-294 843.5,-300 843.5,-300 843.5,-312 843.5,-312 843.5,-318 837.5,-324 831.5,-324"/>
<text text-anchor="middle" x="788.5" y="-302.3" font-family="Helvetica,sans-Serif" font-size="14.00">213.129.70.237</text>
</g>
<!-- 213.129.70.253&#45;&#45;213.129.70.237 -->
<g id="edge32" class="edge"><title>213.129.70.253&#45;&#45;213.129.70.237</title>
<path fill="none" stroke="black" d="M788.5,-359.697C788.5,-348.846 788.5,-334.917 788.5,-324.104"/>
</g>
<!-- 213.129.70.237&#45;&#45;infinityfoods.coop -->
<g id="edge33" class="edge"><title>213.129.70.237&#45;&#45;infinityfoods.coop</title>
<path fill="none" stroke="black" d="M788.5,-287.697C788.5,-276.846 788.5,-262.917 788.5,-252.104"/>
</g>
<!-- kraydel.com -->
<g id="node30" class="node"><title>kraydel.com</title>
<path fill="green" stroke="white" d="M956.5,-396C956.5,-396 890.5,-396 890.5,-396 884.5,-396 878.5,-390 878.5,-384 878.5,-384 878.5,-372 878.5,-372 878.5,-366 884.5,-360 890.5,-360 890.5,-360 956.5,-360 956.5,-360 962.5,-360 968.5,-366 968.5,-372 968.5,-372 968.5,-384 968.5,-384 968.5,-390 962.5,-396 956.5,-396"/>
<text text-anchor="middle" x="923.5" y="-374.3" font-family="Helvetica,sans-Serif" font-size="14.00" fill="white">kraydel.com</text>
</g>
<!-- c1.13.2da9.ip4.static.sl&#45;reverse.com -->
<g id="node32" class="node"><title>c1.13.2da9.ip4.static.sl&#45;reverse.com</title>
<path fill="lightgrey" stroke="white" d="M956,-540C956,-540 747,-540 747,-540 741,-540 735,-534 735,-528 735,-528 735,-516 735,-516 735,-510 741,-504 747,-504 747,-504 956,-504 956,-504 962,-504 968,-510 968,-516 968,-516 968,-528 968,-528 968,-534 962,-540 956,-540"/>
<text text-anchor="middle" x="851.5" y="-518.3" font-family="Helvetica,sans-Serif" font-size="14.00">c1.13.2da9.ip4.static.sl&#45;reverse.com</text>
</g>
<!-- bbr01.lon01.networklayer.com&#45;&#45;c1.13.2da9.ip4.static.sl&#45;reverse.com -->
<g id="edge35" class="edge"><title>bbr01.lon01.networklayer.com&#45;&#45;c1.13.2da9.ip4.static.sl&#45;reverse.com</title>
<path fill="none" stroke="black" d="M795.792,-575.697C807.262,-564.846 821.988,-550.917 833.418,-540.104"/>
</g>
<!-- 7b.76.32a9.ip4.static.sl&#45;reverse.com -->
<g id="node33" class="node"><title>7b.76.32a9.ip4.static.sl&#45;reverse.com</title>
<path fill="lightgrey" stroke="white" d="M1028.5,-468C1028.5,-468 818.5,-468 818.5,-468 812.5,-468 806.5,-462 806.5,-456 806.5,-456 806.5,-444 806.5,-444 806.5,-438 812.5,-432 818.5,-432 818.5,-432 1028.5,-432 1028.5,-432 1034.5,-432 1040.5,-438 1040.5,-444 1040.5,-444 1040.5,-456 1040.5,-456 1040.5,-462 1034.5,-468 1028.5,-468"/>
<text text-anchor="middle" x="923.5" y="-446.3" font-family="Helvetica,sans-Serif" font-size="14.00">7b.76.32a9.ip4.static.sl&#45;reverse.com</text>
</g>
<!-- c1.13.2da9.ip4.static.sl&#45;reverse.com&#45;&#45;7b.76.32a9.ip4.static.sl&#45;reverse.com -->
<g id="edge36" class="edge"><title>c1.13.2da9.ip4.static.sl&#45;reverse.com&#45;&#45;7b.76.32a9.ip4.static.sl&#45;reverse.com</title>
<path fill="none" stroke="black" d="M869.298,-503.697C880.458,-492.846 894.786,-478.917 905.907,-468.104"/>
</g>
<!-- 7b.76.32a9.ip4.static.sl&#45;reverse.com&#45;&#45;kraydel.com -->
<g id="edge37" class="edge"><title>7b.76.32a9.ip4.static.sl&#45;reverse.com&#45;&#45;kraydel.com</title>
<path fill="none" stroke="black" d="M923.5,-431.697C923.5,-420.846 923.5,-406.917 923.5,-396.104"/>
</g>
</g>
</svg>
