<?xml version="1.0" encoding="UTF-8" standalone="no"?>
<!DOCTYPE svg PUBLIC "-//W3C//DTD SVG 1.1//EN"
 "http://www.w3.org/Graphics/SVG/1.1/DTD/svg11.dtd">
<!-- Generated by graphviz version 2.38.0 (20140413.2041)
 -->
<!-- Title: %3 Pages: 1 -->
<svg width="1922pt" height="859pt"
 viewBox="0.00 0.00 1921.50 859.00" xmlns="http://www.w3.org/2000/svg" xmlns:xlink="http://www.w3.org/1999/xlink">
<g id="graph0" class="graph" transform="scale(1 1) rotate(0) translate(4 855)">
<title>%3</title>
<polygon fill="white" stroke="none" points="-4,4 -4,-855 1917.5,-855 1917.5,4 -4,4"/>
<text text-anchor="middle" x="151" y="-835.8" font-family="Helvetica,sans-Serif" font-size="14.00">./hosts2dot.sh &#45; Sat 13 Jan 13:25:00 GMT 2018</text>
<!-- soy_yo -->
<g id="node1" class="node"><title>soy_yo</title>
<path fill="lightgrey" stroke="white" d="M1014.5,-828C1014.5,-828 984.5,-828 984.5,-828 978.5,-828 972.5,-822 972.5,-816 972.5,-816 972.5,-804 972.5,-804 972.5,-798 978.5,-792 984.5,-792 984.5,-792 1014.5,-792 1014.5,-792 1020.5,-792 1026.5,-798 1026.5,-804 1026.5,-804 1026.5,-816 1026.5,-816 1026.5,-822 1020.5,-828 1014.5,-828"/>
<text text-anchor="middle" x="999.5" y="-806.3" font-family="Helvetica,sans-Serif" font-size="14.00">dev</text>
</g>
<!-- localhost -->
<g id="node3" class="node"><title>localhost</title>
<path fill="lightgrey" stroke="white" d="M851.5,-756C851.5,-756 805.5,-756 805.5,-756 799.5,-756 793.5,-750 793.5,-744 793.5,-744 793.5,-732 793.5,-732 793.5,-726 799.5,-720 805.5,-720 805.5,-720 851.5,-720 851.5,-720 857.5,-720 863.5,-726 863.5,-732 863.5,-732 863.5,-744 863.5,-744 863.5,-750 857.5,-756 851.5,-756"/>
<text text-anchor="middle" x="828.5" y="-734.3" font-family="Helvetica,sans-Serif" font-size="14.00">localhost</text>
</g>
<!-- soy_yo&#45;&#45;localhost -->
<g id="edge1" class="edge"><title>soy_yo&#45;&#45;localhost</title>
<path fill="none" stroke="black" d="M972.405,-797.908C943.022,-785.88 896.012,-766.637 863.769,-753.438"/>
</g>
<!-- SkyRouter.Home -->
<g id="node5" class="node"><title>SkyRouter.Home</title>
<path fill="lightgrey" stroke="white" d="M1047.5,-756C1047.5,-756 951.5,-756 951.5,-756 945.5,-756 939.5,-750 939.5,-744 939.5,-744 939.5,-732 939.5,-732 939.5,-726 945.5,-720 951.5,-720 951.5,-720 1047.5,-720 1047.5,-720 1053.5,-720 1059.5,-726 1059.5,-732 1059.5,-732 1059.5,-744 1059.5,-744 1059.5,-750 1053.5,-756 1047.5,-756"/>
<text text-anchor="middle" x="999.5" y="-734.3" font-family="Helvetica,sans-Serif" font-size="14.00">SkyRouter.Home</text>
</g>
<!-- soy_yo&#45;&#45;SkyRouter.Home -->
<g id="edge3" class="edge"><title>soy_yo&#45;&#45;SkyRouter.Home</title>
<path fill="none" stroke="black" d="M999.5,-791.697C999.5,-780.846 999.5,-766.917 999.5,-756.104"/>
</g>
<!-- 2a02:c7f:700c:bd00::1 -->
<g id="node17" class="node"><title>2a02:c7f:700c:bd00::1</title>
<path fill="lightgrey" stroke="white" d="M1453.5,-756C1453.5,-756 1327.5,-756 1327.5,-756 1321.5,-756 1315.5,-750 1315.5,-744 1315.5,-744 1315.5,-732 1315.5,-732 1315.5,-726 1321.5,-720 1327.5,-720 1327.5,-720 1453.5,-720 1453.5,-720 1459.5,-720 1465.5,-726 1465.5,-732 1465.5,-732 1465.5,-744 1465.5,-744 1465.5,-750 1459.5,-756 1453.5,-756"/>
<text text-anchor="middle" x="1390.5" y="-734.3" font-family="Helvetica,sans-Serif" font-size="14.00">2a02:c7f:700c:bd00::1</text>
</g>
<!-- soy_yo&#45;&#45;2a02:c7f:700c:bd00::1 -->
<g id="edge16" class="edge"><title>soy_yo&#45;&#45;2a02:c7f:700c:bd00::1</title>
<path fill="none" stroke="black" d="M1026.68,-804.133C1085.65,-793.576 1227.1,-768.254 1315.24,-752.474"/>
</g>
<!-- 127.0.0.1 localhost # for local people -->
<g id="node2" class="node"><title>127.0.0.1 localhost # for local people</title>
<path fill="green" stroke="white" d="M876.5,-684C876.5,-684 664.5,-684 664.5,-684 658.5,-684 652.5,-678 652.5,-672 652.5,-672 652.5,-660 652.5,-660 652.5,-654 658.5,-648 664.5,-648 664.5,-648 876.5,-648 876.5,-648 882.5,-648 888.5,-654 888.5,-660 888.5,-660 888.5,-672 888.5,-672 888.5,-678 882.5,-684 876.5,-684"/>
<text text-anchor="middle" x="770.5" y="-662.3" font-family="Helvetica,sans-Serif" font-size="14.00" fill="white">127.0.0.1 localhost # for local people</text>
</g>
<!-- localhost&#45;&#45;127.0.0.1 localhost # for local people -->
<g id="edge2" class="edge"><title>localhost&#45;&#45;127.0.0.1 localhost # for local people</title>
<path fill="none" stroke="black" d="M814.163,-719.697C805.173,-708.846 793.631,-694.917 784.672,-684.104"/>
</g>
<!-- 192.30.253.113 &#45;&#45; github -->
<g id="node4" class="node"><title>192.30.253.113 &#45;&#45; github</title>
<path fill="green" stroke="white" d="M1448.5,-108C1448.5,-108 1308.5,-108 1308.5,-108 1302.5,-108 1296.5,-102 1296.5,-96 1296.5,-96 1296.5,-84 1296.5,-84 1296.5,-78 1302.5,-72 1308.5,-72 1308.5,-72 1448.5,-72 1448.5,-72 1454.5,-72 1460.5,-78 1460.5,-84 1460.5,-84 1460.5,-96 1460.5,-96 1460.5,-102 1454.5,-108 1448.5,-108"/>
<text text-anchor="middle" x="1378.5" y="-86.3" font-family="Helvetica,sans-Serif" font-size="14.00" fill="white">192.30.253.113 &#45;&#45; github</text>
</g>
<!-- SkyRouter.Home&#45;&#45;SkyRouter.Home -->
<g id="edge4" class="edge"><title>SkyRouter.Home&#45;&#45;SkyRouter.Home</title>
<path fill="none" stroke="black" d="M1059.68,-750.656C1070.19,-748.969 1077.5,-744.75 1077.5,-738 1077.5,-731.25 1070.19,-727.031 1059.68,-725.344"/>
</g>
<!-- be331.pr2.bllon.isp.sky.com -->
<g id="node6" class="node"><title>be331.pr2.bllon.isp.sky.com</title>
<path fill="lightgrey" stroke="white" d="M1080,-684C1080,-684 919,-684 919,-684 913,-684 907,-678 907,-672 907,-672 907,-660 907,-660 907,-654 913,-648 919,-648 919,-648 1080,-648 1080,-648 1086,-648 1092,-654 1092,-660 1092,-660 1092,-672 1092,-672 1092,-678 1086,-684 1080,-684"/>
<text text-anchor="middle" x="999.5" y="-662.3" font-family="Helvetica,sans-Serif" font-size="14.00">be331.pr2.bllon.isp.sky.com</text>
</g>
<!-- SkyRouter.Home&#45;&#45;be331.pr2.bllon.isp.sky.com -->
<g id="edge5" class="edge"><title>SkyRouter.Home&#45;&#45;be331.pr2.bllon.isp.sky.com</title>
<path fill="none" stroke="black" d="M999.5,-719.697C999.5,-708.846 999.5,-694.917 999.5,-684.104"/>
</g>
<!-- ae&#45;3.r02.londen03.uk.bb.gin.ntt.net -->
<g id="node7" class="node"><title>ae&#45;3.r02.londen03.uk.bb.gin.ntt.net</title>
<path fill="lightgrey" stroke="white" d="M1491.5,-612C1491.5,-612 1289.5,-612 1289.5,-612 1283.5,-612 1277.5,-606 1277.5,-600 1277.5,-600 1277.5,-588 1277.5,-588 1277.5,-582 1283.5,-576 1289.5,-576 1289.5,-576 1491.5,-576 1491.5,-576 1497.5,-576 1503.5,-582 1503.5,-588 1503.5,-588 1503.5,-600 1503.5,-600 1503.5,-606 1497.5,-612 1491.5,-612"/>
<text text-anchor="middle" x="1390.5" y="-590.3" font-family="Helvetica,sans-Serif" font-size="14.00">ae&#45;3.r02.londen03.uk.bb.gin.ntt.net</text>
</g>
<!-- be331.pr2.bllon.isp.sky.com&#45;&#45;ae&#45;3.r02.londen03.uk.bb.gin.ntt.net -->
<g id="edge6" class="edge"><title>be331.pr2.bllon.isp.sky.com&#45;&#45;ae&#45;3.r02.londen03.uk.bb.gin.ntt.net</title>
<path fill="none" stroke="black" d="M1092.16,-648.411C1153.47,-637.434 1233.65,-623.08 1295.45,-612.017"/>
</g>
<!-- 72.14.203.194 -->
<g id="node15" class="node"><title>72.14.203.194</title>
<path fill="lightgrey" stroke="white" d="M1247,-612C1247,-612 1168,-612 1168,-612 1162,-612 1156,-606 1156,-600 1156,-600 1156,-588 1156,-588 1156,-582 1162,-576 1168,-576 1168,-576 1247,-576 1247,-576 1253,-576 1259,-582 1259,-588 1259,-588 1259,-600 1259,-600 1259,-606 1253,-612 1247,-612"/>
<text text-anchor="middle" x="1207.5" y="-590.3" font-family="Helvetica,sans-Serif" font-size="14.00">72.14.203.194</text>
</g>
<!-- be331.pr2.bllon.isp.sky.com&#45;&#45;72.14.203.194 -->
<g id="edge14" class="edge"><title>be331.pr2.bllon.isp.sky.com&#45;&#45;72.14.203.194</title>
<path fill="none" stroke="black" d="M1050.12,-647.966C1082.46,-637.079 1124.26,-623.012 1156.66,-612.111"/>
</g>
<!-- lonap1.orbital.net -->
<g id="node25" class="node"><title>lonap1.orbital.net</title>
<path fill="lightgrey" stroke="white" d="M349.5,-612C349.5,-612 253.5,-612 253.5,-612 247.5,-612 241.5,-606 241.5,-600 241.5,-600 241.5,-588 241.5,-588 241.5,-582 247.5,-576 253.5,-576 253.5,-576 349.5,-576 349.5,-576 355.5,-576 361.5,-582 361.5,-588 361.5,-588 361.5,-600 361.5,-600 361.5,-606 355.5,-612 349.5,-612"/>
<text text-anchor="middle" x="301.5" y="-590.3" font-family="Helvetica,sans-Serif" font-size="14.00">lonap1.orbital.net</text>
</g>
<!-- be331.pr2.bllon.isp.sky.com&#45;&#45;lonap1.orbital.net -->
<g id="edge27" class="edge"><title>be331.pr2.bllon.isp.sky.com&#45;&#45;lonap1.orbital.net</title>
<path fill="none" stroke="black" d="M906.985,-649.221C903.787,-648.79 900.618,-648.381 897.5,-648 694.387,-623.156 642.086,-632.604 438.5,-612 413.343,-609.454 385.654,-606.119 361.792,-603.078"/>
</g>
<!-- 4d&#45;dc&#45;gw&#45;b.lonap.net -->
<g id="node33" class="node"><title>4d&#45;dc&#45;gw&#45;b.lonap.net</title>
<path fill="lightgrey" stroke="white" d="M579,-612C579,-612 460,-612 460,-612 454,-612 448,-606 448,-600 448,-600 448,-588 448,-588 448,-582 454,-576 460,-576 460,-576 579,-576 579,-576 585,-576 591,-582 591,-588 591,-588 591,-600 591,-600 591,-606 585,-612 579,-612"/>
<text text-anchor="middle" x="519.5" y="-590.3" font-family="Helvetica,sans-Serif" font-size="14.00">4d&#45;dc&#45;gw&#45;b.lonap.net</text>
</g>
<!-- be331.pr2.bllon.isp.sky.com&#45;&#45;4d&#45;dc&#45;gw&#45;b.lonap.net -->
<g id="edge35" class="edge"><title>be331.pr2.bllon.isp.sky.com&#45;&#45;4d&#45;dc&#45;gw&#45;b.lonap.net</title>
<path fill="none" stroke="black" d="M906.96,-649.404C903.77,-648.921 900.609,-648.452 897.5,-648 768.972,-629.32 735.777,-632.329 607.5,-612 602.275,-611.172 596.885,-610.264 591.467,-609.312"/>
</g>
<!-- ae0&#45;406.lon10.core&#45;backbone.com -->
<g id="node37" class="node"><title>ae0&#45;406.lon10.core&#45;backbone.com</title>
<path fill="lightgrey" stroke="white" d="M830.5,-612C830.5,-612 628.5,-612 628.5,-612 622.5,-612 616.5,-606 616.5,-600 616.5,-600 616.5,-588 616.5,-588 616.5,-582 622.5,-576 628.5,-576 628.5,-576 830.5,-576 830.5,-576 836.5,-576 842.5,-582 842.5,-588 842.5,-588 842.5,-600 842.5,-600 842.5,-606 836.5,-612 830.5,-612"/>
<text text-anchor="middle" x="729.5" y="-590.3" font-family="Helvetica,sans-Serif" font-size="14.00">ae0&#45;406.lon10.core&#45;backbone.com</text>
</g>
<!-- be331.pr2.bllon.isp.sky.com&#45;&#45;ae0&#45;406.lon10.core&#45;backbone.com -->
<g id="edge40" class="edge"><title>be331.pr2.bllon.isp.sky.com&#45;&#45;ae0&#45;406.lon10.core&#45;backbone.com</title>
<path fill="none" stroke="black" d="M933.796,-647.966C891.806,-637.079 837.546,-623.012 795.499,-612.111"/>
</g>
<!-- GIGLINX&#45;INC.bear1.Pittsburgh3.Level3.net -->
<g id="node46" class="node"><title>GIGLINX&#45;INC.bear1.Pittsburgh3.Level3.net</title>
<path fill="lightgrey" stroke="white" d="M1126,-612C1126,-612 873,-612 873,-612 867,-612 861,-606 861,-600 861,-600 861,-588 861,-588 861,-582 867,-576 873,-576 873,-576 1126,-576 1126,-576 1132,-576 1138,-582 1138,-588 1138,-588 1138,-600 1138,-600 1138,-606 1132,-612 1126,-612"/>
<text text-anchor="middle" x="999.5" y="-590.3" font-family="Helvetica,sans-Serif" font-size="14.00">GIGLINX&#45;INC.bear1.Pittsburgh3.Level3.net</text>
</g>
<!-- be331.pr2.bllon.isp.sky.com&#45;&#45;GIGLINX&#45;INC.bear1.Pittsburgh3.Level3.net -->
<g id="edge49" class="edge"><title>be331.pr2.bllon.isp.sky.com&#45;&#45;GIGLINX&#45;INC.bear1.Pittsburgh3.Level3.net</title>
<path fill="none" stroke="black" d="M999.5,-647.697C999.5,-636.846 999.5,-622.917 999.5,-612.104"/>
</g>
<!-- ae&#45;3.r02.londen03.uk.bb.gin.ntt.net&#45;&#45;ae&#45;3.r02.londen03.uk.bb.gin.ntt.net -->
<g id="edge22" class="edge"><title>ae&#45;3.r02.londen03.uk.bb.gin.ntt.net&#45;&#45;ae&#45;3.r02.londen03.uk.bb.gin.ntt.net</title>
<path fill="none" stroke="black" d="M1503.69,-604.916C1514.59,-602.701 1521.5,-599.062 1521.5,-594 1521.5,-588.938 1514.59,-585.299 1503.69,-583.084"/>
</g>
<!-- ae&#45;3.r24.londen12.uk.bb.gin.ntt.net -->
<g id="node8" class="node"><title>ae&#45;3.r24.londen12.uk.bb.gin.ntt.net</title>
<path fill="lightgrey" stroke="white" d="M1481.5,-540C1481.5,-540 1279.5,-540 1279.5,-540 1273.5,-540 1267.5,-534 1267.5,-528 1267.5,-528 1267.5,-516 1267.5,-516 1267.5,-510 1273.5,-504 1279.5,-504 1279.5,-504 1481.5,-504 1481.5,-504 1487.5,-504 1493.5,-510 1493.5,-516 1493.5,-516 1493.5,-528 1493.5,-528 1493.5,-534 1487.5,-540 1481.5,-540"/>
<text text-anchor="middle" x="1380.5" y="-518.3" font-family="Helvetica,sans-Serif" font-size="14.00">ae&#45;3.r24.londen12.uk.bb.gin.ntt.net</text>
</g>
<!-- ae&#45;3.r02.londen03.uk.bb.gin.ntt.net&#45;&#45;ae&#45;3.r24.londen12.uk.bb.gin.ntt.net -->
<g id="edge7" class="edge"><title>ae&#45;3.r02.londen03.uk.bb.gin.ntt.net&#45;&#45;ae&#45;3.r24.londen12.uk.bb.gin.ntt.net</title>
<path fill="none" stroke="black" d="M1388.03,-575.697C1386.48,-564.846 1384.49,-550.917 1382.94,-540.104"/>
</g>
<!-- ae&#45;5.r25.londen12.uk.bb.gin.ntt.net -->
<g id="node21" class="node"><title>ae&#45;5.r25.londen12.uk.bb.gin.ntt.net</title>
<path fill="lightgrey" stroke="white" d="M1725.5,-540C1725.5,-540 1523.5,-540 1523.5,-540 1517.5,-540 1511.5,-534 1511.5,-528 1511.5,-528 1511.5,-516 1511.5,-516 1511.5,-510 1517.5,-504 1523.5,-504 1523.5,-504 1725.5,-504 1725.5,-504 1731.5,-504 1737.5,-510 1737.5,-516 1737.5,-516 1737.5,-528 1737.5,-528 1737.5,-534 1731.5,-540 1725.5,-540"/>
<text text-anchor="middle" x="1624.5" y="-518.3" font-family="Helvetica,sans-Serif" font-size="14.00">ae&#45;5.r25.londen12.uk.bb.gin.ntt.net</text>
</g>
<!-- ae&#45;3.r02.londen03.uk.bb.gin.ntt.net&#45;&#45;ae&#45;5.r25.londen12.uk.bb.gin.ntt.net -->
<g id="edge23" class="edge"><title>ae&#45;3.r02.londen03.uk.bb.gin.ntt.net&#45;&#45;ae&#45;5.r25.londen12.uk.bb.gin.ntt.net</title>
<path fill="none" stroke="black" d="M1447.44,-575.966C1483.83,-565.079 1530.86,-551.012 1567.3,-540.111"/>
</g>
<!-- ae&#45;5.r24.nycmny01.us.bb.gin.ntt.net -->
<g id="node9" class="node"><title>ae&#45;5.r24.nycmny01.us.bb.gin.ntt.net</title>
<path fill="lightgrey" stroke="white" d="M1483,-468C1483,-468 1274,-468 1274,-468 1268,-468 1262,-462 1262,-456 1262,-456 1262,-444 1262,-444 1262,-438 1268,-432 1274,-432 1274,-432 1483,-432 1483,-432 1489,-432 1495,-438 1495,-444 1495,-444 1495,-456 1495,-456 1495,-462 1489,-468 1483,-468"/>
<text text-anchor="middle" x="1378.5" y="-446.3" font-family="Helvetica,sans-Serif" font-size="14.00">ae&#45;5.r24.nycmny01.us.bb.gin.ntt.net</text>
</g>
<!-- ae&#45;3.r24.londen12.uk.bb.gin.ntt.net&#45;&#45;ae&#45;5.r24.nycmny01.us.bb.gin.ntt.net -->
<g id="edge8" class="edge"><title>ae&#45;3.r24.londen12.uk.bb.gin.ntt.net&#45;&#45;ae&#45;5.r24.nycmny01.us.bb.gin.ntt.net</title>
<path fill="none" stroke="black" d="M1380.01,-503.697C1379.7,-492.846 1379.3,-478.917 1378.99,-468.104"/>
</g>
<!-- ae&#45;1.r25.nycmny01.us.bb.gin.ntt.net -->
<g id="node10" class="node"><title>ae&#45;1.r25.nycmny01.us.bb.gin.ntt.net</title>
<path fill="lightgrey" stroke="white" d="M1483,-396C1483,-396 1274,-396 1274,-396 1268,-396 1262,-390 1262,-384 1262,-384 1262,-372 1262,-372 1262,-366 1268,-360 1274,-360 1274,-360 1483,-360 1483,-360 1489,-360 1495,-366 1495,-372 1495,-372 1495,-384 1495,-384 1495,-390 1489,-396 1483,-396"/>
<text text-anchor="middle" x="1378.5" y="-374.3" font-family="Helvetica,sans-Serif" font-size="14.00">ae&#45;1.r25.nycmny01.us.bb.gin.ntt.net</text>
</g>
<!-- ae&#45;5.r24.nycmny01.us.bb.gin.ntt.net&#45;&#45;ae&#45;1.r25.nycmny01.us.bb.gin.ntt.net -->
<g id="edge9" class="edge"><title>ae&#45;5.r24.nycmny01.us.bb.gin.ntt.net&#45;&#45;ae&#45;1.r25.nycmny01.us.bb.gin.ntt.net</title>
<path fill="none" stroke="black" d="M1378.5,-431.697C1378.5,-420.846 1378.5,-406.917 1378.5,-396.104"/>
</g>
<!-- ae&#45;9.r22.asbnva02.us.bb.gin.ntt.net -->
<g id="node11" class="node"><title>ae&#45;9.r22.asbnva02.us.bb.gin.ntt.net</title>
<path fill="lightgrey" stroke="white" d="M1481,-324C1481,-324 1276,-324 1276,-324 1270,-324 1264,-318 1264,-312 1264,-312 1264,-300 1264,-300 1264,-294 1270,-288 1276,-288 1276,-288 1481,-288 1481,-288 1487,-288 1493,-294 1493,-300 1493,-300 1493,-312 1493,-312 1493,-318 1487,-324 1481,-324"/>
<text text-anchor="middle" x="1378.5" y="-302.3" font-family="Helvetica,sans-Serif" font-size="14.00">ae&#45;9.r22.asbnva02.us.bb.gin.ntt.net</text>
</g>
<!-- ae&#45;1.r25.nycmny01.us.bb.gin.ntt.net&#45;&#45;ae&#45;9.r22.asbnva02.us.bb.gin.ntt.net -->
<g id="edge10" class="edge"><title>ae&#45;1.r25.nycmny01.us.bb.gin.ntt.net&#45;&#45;ae&#45;9.r22.asbnva02.us.bb.gin.ntt.net</title>
<path fill="none" stroke="black" d="M1378.5,-359.697C1378.5,-348.846 1378.5,-334.917 1378.5,-324.104"/>
</g>
<!-- ae&#45;7.r06.asbnva02.us.bb.gin.ntt.net -->
<g id="node12" class="node"><title>ae&#45;7.r06.asbnva02.us.bb.gin.ntt.net</title>
<path fill="lightgrey" stroke="white" d="M1481,-252C1481,-252 1276,-252 1276,-252 1270,-252 1264,-246 1264,-240 1264,-240 1264,-228 1264,-228 1264,-222 1270,-216 1276,-216 1276,-216 1481,-216 1481,-216 1487,-216 1493,-222 1493,-228 1493,-228 1493,-240 1493,-240 1493,-246 1487,-252 1481,-252"/>
<text text-anchor="middle" x="1378.5" y="-230.3" font-family="Helvetica,sans-Serif" font-size="14.00">ae&#45;7.r06.asbnva02.us.bb.gin.ntt.net</text>
</g>
<!-- ae&#45;9.r22.asbnva02.us.bb.gin.ntt.net&#45;&#45;ae&#45;7.r06.asbnva02.us.bb.gin.ntt.net -->
<g id="edge11" class="edge"><title>ae&#45;9.r22.asbnva02.us.bb.gin.ntt.net&#45;&#45;ae&#45;7.r06.asbnva02.us.bb.gin.ntt.net</title>
<path fill="none" stroke="black" d="M1378.5,-287.697C1378.5,-276.846 1378.5,-262.917 1378.5,-252.104"/>
</g>
<!-- ae&#45;1.a01.asbnva02.us.bb.gin.ntt.net -->
<g id="node13" class="node"><title>ae&#45;1.a01.asbnva02.us.bb.gin.ntt.net</title>
<path fill="lightgrey" stroke="white" d="M1482.5,-180C1482.5,-180 1274.5,-180 1274.5,-180 1268.5,-180 1262.5,-174 1262.5,-168 1262.5,-168 1262.5,-156 1262.5,-156 1262.5,-150 1268.5,-144 1274.5,-144 1274.5,-144 1482.5,-144 1482.5,-144 1488.5,-144 1494.5,-150 1494.5,-156 1494.5,-156 1494.5,-168 1494.5,-168 1494.5,-174 1488.5,-180 1482.5,-180"/>
<text text-anchor="middle" x="1378.5" y="-158.3" font-family="Helvetica,sans-Serif" font-size="14.00">ae&#45;1.a01.asbnva02.us.bb.gin.ntt.net</text>
</g>
<!-- ae&#45;7.r06.asbnva02.us.bb.gin.ntt.net&#45;&#45;ae&#45;1.a01.asbnva02.us.bb.gin.ntt.net -->
<g id="edge12" class="edge"><title>ae&#45;7.r06.asbnva02.us.bb.gin.ntt.net&#45;&#45;ae&#45;1.a01.asbnva02.us.bb.gin.ntt.net</title>
<path fill="none" stroke="black" d="M1378.5,-215.697C1378.5,-204.846 1378.5,-190.917 1378.5,-180.104"/>
</g>
<!-- ae&#45;1.a01.asbnva02.us.bb.gin.ntt.net&#45;&#45;192.30.253.113 &#45;&#45; github -->
<g id="edge13" class="edge"><title>ae&#45;1.a01.asbnva02.us.bb.gin.ntt.net&#45;&#45;192.30.253.113 &#45;&#45; github</title>
<path fill="none" stroke="black" d="M1378.5,-143.697C1378.5,-132.846 1378.5,-118.917 1378.5,-108.104"/>
</g>
<!-- 216.58.213.99 google -->
<g id="node14" class="node"><title>216.58.213.99 google</title>
<path fill="green" stroke="white" d="M1237,-540C1237,-540 1114,-540 1114,-540 1108,-540 1102,-534 1102,-528 1102,-528 1102,-516 1102,-516 1102,-510 1108,-504 1114,-504 1114,-504 1237,-504 1237,-504 1243,-504 1249,-510 1249,-516 1249,-516 1249,-528 1249,-528 1249,-534 1243,-540 1237,-540"/>
<text text-anchor="middle" x="1175.5" y="-518.3" font-family="Helvetica,sans-Serif" font-size="14.00" fill="white">216.58.213.99 google</text>
</g>
<!-- 72.14.203.194&#45;&#45;216.58.213.99 google -->
<g id="edge15" class="edge"><title>72.14.203.194&#45;&#45;216.58.213.99 google</title>
<path fill="none" stroke="black" d="M1199.59,-575.697C1194.63,-564.846 1188.26,-550.917 1183.32,-540.104"/>
</g>
<!-- youtube.com # youtube -->
<g id="node16" class="node"><title>youtube.com # youtube</title>
<path fill="green" stroke="white" d="M1901.5,-540C1901.5,-540 1767.5,-540 1767.5,-540 1761.5,-540 1755.5,-534 1755.5,-528 1755.5,-528 1755.5,-516 1755.5,-516 1755.5,-510 1761.5,-504 1767.5,-504 1767.5,-504 1901.5,-504 1901.5,-504 1907.5,-504 1913.5,-510 1913.5,-516 1913.5,-516 1913.5,-528 1913.5,-528 1913.5,-534 1907.5,-540 1901.5,-540"/>
<text text-anchor="middle" x="1834.5" y="-518.3" font-family="Helvetica,sans-Serif" font-size="14.00" fill="white">youtube.com # youtube</text>
</g>
<!-- 2a02:c7f:700c:bd00::1&#45;&#45;ae&#45;3.r02.londen03.uk.bb.gin.ntt.net -->
<g id="edge21" class="edge"><title>2a02:c7f:700c:bd00::1&#45;&#45;ae&#45;3.r02.londen03.uk.bb.gin.ntt.net</title>
<path fill="none" stroke="black" d="M1390.5,-719.871C1390.5,-692.578 1390.5,-639.52 1390.5,-612.189"/>
</g>
<!-- 2a02:c7f:700c:bd00::1&#45;&#45;2a02:c7f:700c:bd00::1 -->
<g id="edge17" class="edge"><title>2a02:c7f:700c:bd00::1&#45;&#45;2a02:c7f:700c:bd00::1</title>
<path fill="none" stroke="black" d="M1465.67,-750.115C1476.34,-748.155 1483.5,-744.117 1483.5,-738 1483.5,-731.883 1476.34,-727.845 1465.67,-725.885"/>
</g>
<!-- 2001:4860:1:1::22a -->
<g id="node18" class="node"><title>2001:4860:1:1::22a</title>
<path fill="lightgrey" stroke="white" d="M1661,-684C1661,-684 1552,-684 1552,-684 1546,-684 1540,-678 1540,-672 1540,-672 1540,-660 1540,-660 1540,-654 1546,-648 1552,-648 1552,-648 1661,-648 1661,-648 1667,-648 1673,-654 1673,-660 1673,-660 1673,-672 1673,-672 1673,-678 1667,-684 1661,-684"/>
<text text-anchor="middle" x="1606.5" y="-662.3" font-family="Helvetica,sans-Serif" font-size="14.00">2001:4860:1:1::22a</text>
</g>
<!-- 2a02:c7f:700c:bd00::1&#45;&#45;2001:4860:1:1::22a -->
<g id="edge18" class="edge"><title>2a02:c7f:700c:bd00::1&#45;&#45;2001:4860:1:1::22a</title>
<path fill="none" stroke="black" d="M1443.06,-719.966C1476.66,-709.079 1520.06,-695.012 1553.7,-684.111"/>
</g>
<!-- lhr35s10&#45;in&#45;x0e.1e100.net -->
<g id="node19" class="node"><title>lhr35s10&#45;in&#45;x0e.1e100.net</title>
<path fill="lightgrey" stroke="white" d="M1803,-612C1803,-612 1654,-612 1654,-612 1648,-612 1642,-606 1642,-600 1642,-600 1642,-588 1642,-588 1642,-582 1648,-576 1654,-576 1654,-576 1803,-576 1803,-576 1809,-576 1815,-582 1815,-588 1815,-588 1815,-600 1815,-600 1815,-606 1809,-612 1803,-612"/>
<text text-anchor="middle" x="1728.5" y="-590.3" font-family="Helvetica,sans-Serif" font-size="14.00">lhr35s10&#45;in&#45;x0e.1e100.net</text>
</g>
<!-- 2001:4860:1:1::22a&#45;&#45;lhr35s10&#45;in&#45;x0e.1e100.net -->
<g id="edge19" class="edge"><title>2001:4860:1:1::22a&#45;&#45;lhr35s10&#45;in&#45;x0e.1e100.net</title>
<path fill="none" stroke="black" d="M1636.34,-647.876C1655.25,-637.029 1679.61,-623.05 1698.54,-612.19"/>
</g>
<!-- lhr35s10&#45;in&#45;x0e.1e100.net&#45;&#45;youtube.com # youtube -->
<g id="edge20" class="edge"><title>lhr35s10&#45;in&#45;x0e.1e100.net&#45;&#45;youtube.com # youtube</title>
<path fill="none" stroke="black" d="M1754.43,-575.876C1770.86,-565.029 1792.02,-551.05 1808.47,-540.19"/>
</g>
<!-- deanturpin.github.io -->
<g id="node20" class="node"><title>deanturpin.github.io</title>
<path fill="green" stroke="white" d="M1682,-324C1682,-324 1571,-324 1571,-324 1565,-324 1559,-318 1559,-312 1559,-312 1559,-300 1559,-300 1559,-294 1565,-288 1571,-288 1571,-288 1682,-288 1682,-288 1688,-288 1694,-294 1694,-300 1694,-300 1694,-312 1694,-312 1694,-318 1688,-324 1682,-324"/>
<text text-anchor="middle" x="1626.5" y="-302.3" font-family="Helvetica,sans-Serif" font-size="14.00" fill="white">deanturpin.github.io</text>
</g>
<!-- ae&#45;2.r02.londen01.uk.bb.gin.ntt.net -->
<g id="node22" class="node"><title>ae&#45;2.r02.londen01.uk.bb.gin.ntt.net</title>
<path fill="lightgrey" stroke="white" d="M1727.5,-468C1727.5,-468 1525.5,-468 1525.5,-468 1519.5,-468 1513.5,-462 1513.5,-456 1513.5,-456 1513.5,-444 1513.5,-444 1513.5,-438 1519.5,-432 1525.5,-432 1525.5,-432 1727.5,-432 1727.5,-432 1733.5,-432 1739.5,-438 1739.5,-444 1739.5,-444 1739.5,-456 1739.5,-456 1739.5,-462 1733.5,-468 1727.5,-468"/>
<text text-anchor="middle" x="1626.5" y="-446.3" font-family="Helvetica,sans-Serif" font-size="14.00">ae&#45;2.r02.londen01.uk.bb.gin.ntt.net</text>
</g>
<!-- ae&#45;5.r25.londen12.uk.bb.gin.ntt.net&#45;&#45;ae&#45;2.r02.londen01.uk.bb.gin.ntt.net -->
<g id="edge24" class="edge"><title>ae&#45;5.r25.londen12.uk.bb.gin.ntt.net&#45;&#45;ae&#45;2.r02.londen01.uk.bb.gin.ntt.net</title>
<path fill="none" stroke="black" d="M1624.99,-503.697C1625.3,-492.846 1625.7,-478.917 1626.01,-468.104"/>
</g>
<!-- 2a02:c79:2::331 -->
<g id="node23" class="node"><title>2a02:c79:2::331</title>
<path fill="lightgrey" stroke="white" d="M1671,-396C1671,-396 1582,-396 1582,-396 1576,-396 1570,-390 1570,-384 1570,-384 1570,-372 1570,-372 1570,-366 1576,-360 1582,-360 1582,-360 1671,-360 1671,-360 1677,-360 1683,-366 1683,-372 1683,-372 1683,-384 1683,-384 1683,-390 1677,-396 1671,-396"/>
<text text-anchor="middle" x="1626.5" y="-374.3" font-family="Helvetica,sans-Serif" font-size="14.00">2a02:c79:2::331</text>
</g>
<!-- ae&#45;2.r02.londen01.uk.bb.gin.ntt.net&#45;&#45;2a02:c79:2::331 -->
<g id="edge25" class="edge"><title>ae&#45;2.r02.londen01.uk.bb.gin.ntt.net&#45;&#45;2a02:c79:2::331</title>
<path fill="none" stroke="black" d="M1626.5,-431.697C1626.5,-420.846 1626.5,-406.917 1626.5,-396.104"/>
</g>
<!-- 2a02:c79:2::331&#45;&#45;deanturpin.github.io -->
<g id="edge26" class="edge"><title>2a02:c79:2::331&#45;&#45;deanturpin.github.io</title>
<path fill="none" stroke="black" d="M1626.5,-359.697C1626.5,-348.846 1626.5,-334.917 1626.5,-324.104"/>
</g>
<!-- thebunker.net -->
<g id="node24" class="node"><title>thebunker.net</title>
<path fill="green" stroke="white" d="M145,-324C145,-324 70,-324 70,-324 64,-324 58,-318 58,-312 58,-312 58,-300 58,-300 58,-294 64,-288 70,-288 70,-288 145,-288 145,-288 151,-288 157,-294 157,-300 157,-300 157,-312 157,-312 157,-318 151,-324 145,-324"/>
<text text-anchor="middle" x="107.5" y="-302.3" font-family="Helvetica,sans-Serif" font-size="14.00" fill="white">thebunker.net</text>
</g>
<!-- v900.thn&#45;br1.orbital.net -->
<g id="node26" class="node"><title>v900.thn&#45;br1.orbital.net</title>
<path fill="lightgrey" stroke="white" d="M319,-540C319,-540 188,-540 188,-540 182,-540 176,-534 176,-528 176,-528 176,-516 176,-516 176,-510 182,-504 188,-504 188,-504 319,-504 319,-504 325,-504 331,-510 331,-516 331,-516 331,-528 331,-528 331,-534 325,-540 319,-540"/>
<text text-anchor="middle" x="253.5" y="-518.3" font-family="Helvetica,sans-Serif" font-size="14.00">v900.thn&#45;br1.orbital.net</text>
</g>
<!-- lonap1.orbital.net&#45;&#45;v900.thn&#45;br1.orbital.net -->
<g id="edge28" class="edge"><title>lonap1.orbital.net&#45;&#45;v900.thn&#45;br1.orbital.net</title>
<path fill="none" stroke="black" d="M289.635,-575.697C282.195,-564.846 272.643,-550.917 265.229,-540.104"/>
</g>
<!-- xe2&#45;2&#45;ve&#45;83.thn&#45;pe&#45;2.thn.thebunker.net.202.88.80.in&#45;addr.arpa -->
<g id="node27" class="node"><title>xe2&#45;2&#45;ve&#45;83.thn&#45;pe&#45;2.thn.thebunker.net.202.88.80.in&#45;addr.arpa</title>
<path fill="lightgrey" stroke="white" d="M402.5,-468C402.5,-468 34.5,-468 34.5,-468 28.5,-468 22.5,-462 22.5,-456 22.5,-456 22.5,-444 22.5,-444 22.5,-438 28.5,-432 34.5,-432 34.5,-432 402.5,-432 402.5,-432 408.5,-432 414.5,-438 414.5,-444 414.5,-444 414.5,-456 414.5,-456 414.5,-462 408.5,-468 402.5,-468"/>
<text text-anchor="middle" x="218.5" y="-446.3" font-family="Helvetica,sans-Serif" font-size="14.00">xe2&#45;2&#45;ve&#45;83.thn&#45;pe&#45;2.thn.thebunker.net.202.88.80.in&#45;addr.arpa</text>
</g>
<!-- v900.thn&#45;br1.orbital.net&#45;&#45;xe2&#45;2&#45;ve&#45;83.thn&#45;pe&#45;2.thn.thebunker.net.202.88.80.in&#45;addr.arpa -->
<g id="edge29" class="edge"><title>v900.thn&#45;br1.orbital.net&#45;&#45;xe2&#45;2&#45;ve&#45;83.thn&#45;pe&#45;2.thn.thebunker.net.202.88.80.in&#45;addr.arpa</title>
<path fill="none" stroke="black" d="M244.848,-503.697C239.423,-492.846 232.458,-478.917 227.052,-468.104"/>
</g>
<!-- tbsh.1369.cr&#45;0.ash.thebunker.net -->
<g id="node28" class="node"><title>tbsh.1369.cr&#45;0.ash.thebunker.net</title>
<path fill="lightgrey" stroke="white" d="M203,-396C203,-396 12,-396 12,-396 6,-396 0,-390 0,-384 0,-384 0,-372 0,-372 0,-366 6,-360 12,-360 12,-360 203,-360 203,-360 209,-360 215,-366 215,-372 215,-372 215,-384 215,-384 215,-390 209,-396 203,-396"/>
<text text-anchor="middle" x="107.5" y="-374.3" font-family="Helvetica,sans-Serif" font-size="14.00">tbsh.1369.cr&#45;0.ash.thebunker.net</text>
</g>
<!-- xe2&#45;2&#45;ve&#45;83.thn&#45;pe&#45;2.thn.thebunker.net.202.88.80.in&#45;addr.arpa&#45;&#45;tbsh.1369.cr&#45;0.ash.thebunker.net -->
<g id="edge30" class="edge"><title>xe2&#45;2&#45;ve&#45;83.thn&#45;pe&#45;2.thn.thebunker.net.202.88.80.in&#45;addr.arpa&#45;&#45;tbsh.1369.cr&#45;0.ash.thebunker.net</title>
<path fill="none" stroke="black" d="M191.346,-431.876C174.145,-421.029 151.979,-407.05 134.758,-396.19"/>
</g>
<!-- 213.129.70.253 -->
<g id="node30" class="node"><title>213.129.70.253</title>
<path fill="lightgrey" stroke="white" d="M331.5,-396C331.5,-396 245.5,-396 245.5,-396 239.5,-396 233.5,-390 233.5,-384 233.5,-384 233.5,-372 233.5,-372 233.5,-366 239.5,-360 245.5,-360 245.5,-360 331.5,-360 331.5,-360 337.5,-360 343.5,-366 343.5,-372 343.5,-372 343.5,-384 343.5,-384 343.5,-390 337.5,-396 331.5,-396"/>
<text text-anchor="middle" x="288.5" y="-374.3" font-family="Helvetica,sans-Serif" font-size="14.00">213.129.70.253</text>
</g>
<!-- xe2&#45;2&#45;ve&#45;83.thn&#45;pe&#45;2.thn.thebunker.net.202.88.80.in&#45;addr.arpa&#45;&#45;213.129.70.253 -->
<g id="edge32" class="edge"><title>xe2&#45;2&#45;ve&#45;83.thn&#45;pe&#45;2.thn.thebunker.net.202.88.80.in&#45;addr.arpa&#45;&#45;213.129.70.253</title>
<path fill="none" stroke="black" d="M235.803,-431.697C246.654,-420.846 260.583,-406.917 271.396,-396.104"/>
</g>
<!-- tbsh.1369.cr&#45;0.ash.thebunker.net&#45;&#45;thebunker.net -->
<g id="edge31" class="edge"><title>tbsh.1369.cr&#45;0.ash.thebunker.net&#45;&#45;thebunker.net</title>
<path fill="none" stroke="black" d="M107.5,-359.697C107.5,-348.846 107.5,-334.917 107.5,-324.104"/>
</g>
<!-- infinityfoods.coop -->
<g id="node29" class="node"><title>infinityfoods.coop</title>
<path fill="green" stroke="white" d="M337,-252C337,-252 240,-252 240,-252 234,-252 228,-246 228,-240 228,-240 228,-228 228,-228 228,-222 234,-216 240,-216 240,-216 337,-216 337,-216 343,-216 349,-222 349,-228 349,-228 349,-240 349,-240 349,-246 343,-252 337,-252"/>
<text text-anchor="middle" x="288.5" y="-230.3" font-family="Helvetica,sans-Serif" font-size="14.00" fill="white">infinityfoods.coop</text>
</g>
<!-- 213.129.70.237 -->
<g id="node31" class="node"><title>213.129.70.237</title>
<path fill="lightgrey" stroke="white" d="M331.5,-324C331.5,-324 245.5,-324 245.5,-324 239.5,-324 233.5,-318 233.5,-312 233.5,-312 233.5,-300 233.5,-300 233.5,-294 239.5,-288 245.5,-288 245.5,-288 331.5,-288 331.5,-288 337.5,-288 343.5,-294 343.5,-300 343.5,-300 343.5,-312 343.5,-312 343.5,-318 337.5,-324 331.5,-324"/>
<text text-anchor="middle" x="288.5" y="-302.3" font-family="Helvetica,sans-Serif" font-size="14.00">213.129.70.237</text>
</g>
<!-- 213.129.70.253&#45;&#45;213.129.70.237 -->
<g id="edge33" class="edge"><title>213.129.70.253&#45;&#45;213.129.70.237</title>
<path fill="none" stroke="black" d="M288.5,-359.697C288.5,-348.846 288.5,-334.917 288.5,-324.104"/>
</g>
<!-- 213.129.70.237&#45;&#45;infinityfoods.coop -->
<g id="edge34" class="edge"><title>213.129.70.237&#45;&#45;infinityfoods.coop</title>
<path fill="none" stroke="black" d="M288.5,-287.697C288.5,-276.846 288.5,-262.917 288.5,-252.104"/>
</g>
<!-- silobrighton.com # zero waste -->
<g id="node32" class="node"><title>silobrighton.com # zero waste</title>
<path fill="red" stroke="white" d="M615.5,-396C615.5,-396 443.5,-396 443.5,-396 437.5,-396 431.5,-390 431.5,-384 431.5,-384 431.5,-372 431.5,-372 431.5,-366 437.5,-360 443.5,-360 443.5,-360 615.5,-360 615.5,-360 621.5,-360 627.5,-366 627.5,-372 627.5,-372 627.5,-384 627.5,-384 627.5,-390 621.5,-396 615.5,-396"/>
<text text-anchor="middle" x="529.5" y="-374.3" font-family="Helvetica,sans-Serif" font-size="14.00" fill="white">silobrighton.com # zero waste</text>
</g>
<!-- 4d&#45;lgw&#45;bbr&#45;2&#45;0002&#45;6.4d&#45;dc.com -->
<g id="node34" class="node"><title>4d&#45;lgw&#45;bbr&#45;2&#45;0002&#45;6.4d&#45;dc.com</title>
<path fill="lightgrey" stroke="white" d="M608.5,-540C608.5,-540 426.5,-540 426.5,-540 420.5,-540 414.5,-534 414.5,-528 414.5,-528 414.5,-516 414.5,-516 414.5,-510 420.5,-504 426.5,-504 426.5,-504 608.5,-504 608.5,-504 614.5,-504 620.5,-510 620.5,-516 620.5,-516 620.5,-528 620.5,-528 620.5,-534 614.5,-540 608.5,-540"/>
<text text-anchor="middle" x="517.5" y="-518.3" font-family="Helvetica,sans-Serif" font-size="14.00">4d&#45;lgw&#45;bbr&#45;2&#45;0002&#45;6.4d&#45;dc.com</text>
</g>
<!-- 4d&#45;dc&#45;gw&#45;b.lonap.net&#45;&#45;4d&#45;lgw&#45;bbr&#45;2&#45;0002&#45;6.4d&#45;dc.com -->
<g id="edge36" class="edge"><title>4d&#45;dc&#45;gw&#45;b.lonap.net&#45;&#45;4d&#45;lgw&#45;bbr&#45;2&#45;0002&#45;6.4d&#45;dc.com</title>
<path fill="none" stroke="black" d="M519.006,-575.697C518.696,-564.846 518.298,-550.917 517.989,-540.104"/>
</g>
<!-- 4d&#45;lgw&#45;bbr&#45;2&#45;0002&#45;6.4d&#45;dc.com&#45;&#45;4d&#45;lgw&#45;bbr&#45;2&#45;0002&#45;6.4d&#45;dc.com -->
<g id="edge37" class="edge"><title>4d&#45;lgw&#45;bbr&#45;2&#45;0002&#45;6.4d&#45;dc.com&#45;&#45;4d&#45;lgw&#45;bbr&#45;2&#45;0002&#45;6.4d&#45;dc.com</title>
<path fill="none" stroke="black" d="M620.772,-533.185C631.576,-531.002 638.5,-527.273 638.5,-522 638.5,-516.727 631.576,-512.998 620.772,-510.815"/>
</g>
<!-- 4d&#45;lgw&#45;men&#45;2&#45;024.4d&#45;dc.com -->
<g id="node35" class="node"><title>4d&#45;lgw&#45;men&#45;2&#45;024.4d&#45;dc.com</title>
<path fill="lightgrey" stroke="white" d="M614.5,-468C614.5,-468 444.5,-468 444.5,-468 438.5,-468 432.5,-462 432.5,-456 432.5,-456 432.5,-444 432.5,-444 432.5,-438 438.5,-432 444.5,-432 444.5,-432 614.5,-432 614.5,-432 620.5,-432 626.5,-438 626.5,-444 626.5,-444 626.5,-456 626.5,-456 626.5,-462 620.5,-468 614.5,-468"/>
<text text-anchor="middle" x="529.5" y="-446.3" font-family="Helvetica,sans-Serif" font-size="14.00">4d&#45;lgw&#45;men&#45;2&#45;024.4d&#45;dc.com</text>
</g>
<!-- 4d&#45;lgw&#45;bbr&#45;2&#45;0002&#45;6.4d&#45;dc.com&#45;&#45;4d&#45;lgw&#45;men&#45;2&#45;024.4d&#45;dc.com -->
<g id="edge38" class="edge"><title>4d&#45;lgw&#45;bbr&#45;2&#45;0002&#45;6.4d&#45;dc.com&#45;&#45;4d&#45;lgw&#45;men&#45;2&#45;024.4d&#45;dc.com</title>
<path fill="none" stroke="black" d="M520.466,-503.697C522.326,-492.846 524.714,-478.917 526.568,-468.104"/>
</g>
<!-- 4d&#45;lgw&#45;men&#45;2&#45;024.4d&#45;dc.com&#45;&#45;silobrighton.com # zero waste -->
<g id="edge39" class="edge"><title>4d&#45;lgw&#45;men&#45;2&#45;024.4d&#45;dc.com&#45;&#45;silobrighton.com # zero waste</title>
<path fill="none" stroke="black" d="M529.5,-431.697C529.5,-420.846 529.5,-406.917 529.5,-396.104"/>
</g>
<!-- rate.sx # curl for bitcoin rates -->
<g id="node36" class="node"><title>rate.sx # curl for bitcoin rates</title>
<path fill="green" stroke="white" d="M857.5,-36C857.5,-36 691.5,-36 691.5,-36 685.5,-36 679.5,-30 679.5,-24 679.5,-24 679.5,-12 679.5,-12 679.5,-6 685.5,-0 691.5,-0 691.5,-0 857.5,-0 857.5,-0 863.5,-0 869.5,-6 869.5,-12 869.5,-12 869.5,-24 869.5,-24 869.5,-30 863.5,-36 857.5,-36"/>
<text text-anchor="middle" x="774.5" y="-14.3" font-family="Helvetica,sans-Serif" font-size="14.00" fill="white">rate.sx # curl for bitcoin rates</text>
</g>
<!-- ae1&#45;2014.nbg40.core&#45;backbone.com -->
<g id="node38" class="node"><title>ae1&#45;2014.nbg40.core&#45;backbone.com</title>
<path fill="lightgrey" stroke="white" d="M882.5,-540C882.5,-540 668.5,-540 668.5,-540 662.5,-540 656.5,-534 656.5,-528 656.5,-528 656.5,-516 656.5,-516 656.5,-510 662.5,-504 668.5,-504 668.5,-504 882.5,-504 882.5,-504 888.5,-504 894.5,-510 894.5,-516 894.5,-516 894.5,-528 894.5,-528 894.5,-534 888.5,-540 882.5,-540"/>
<text text-anchor="middle" x="775.5" y="-518.3" font-family="Helvetica,sans-Serif" font-size="14.00">ae1&#45;2014.nbg40.core&#45;backbone.com</text>
</g>
<!-- ae0&#45;406.lon10.core&#45;backbone.com&#45;&#45;ae1&#45;2014.nbg40.core&#45;backbone.com -->
<g id="edge41" class="edge"><title>ae0&#45;406.lon10.core&#45;backbone.com&#45;&#45;ae1&#45;2014.nbg40.core&#45;backbone.com</title>
<path fill="none" stroke="black" d="M740.871,-575.697C748.001,-564.846 757.155,-550.917 764.26,-540.104"/>
</g>
<!-- core&#45;backbone&#45;100g&#45;nbg.hetzner.de -->
<g id="node39" class="node"><title>core&#45;backbone&#45;100g&#45;nbg.hetzner.de</title>
<path fill="lightgrey" stroke="white" d="M880,-468C880,-468 669,-468 669,-468 663,-468 657,-462 657,-456 657,-456 657,-444 657,-444 657,-438 663,-432 669,-432 669,-432 880,-432 880,-432 886,-432 892,-438 892,-444 892,-444 892,-456 892,-456 892,-462 886,-468 880,-468"/>
<text text-anchor="middle" x="774.5" y="-446.3" font-family="Helvetica,sans-Serif" font-size="14.00">core&#45;backbone&#45;100g&#45;nbg.hetzner.de</text>
</g>
<!-- ae1&#45;2014.nbg40.core&#45;backbone.com&#45;&#45;core&#45;backbone&#45;100g&#45;nbg.hetzner.de -->
<g id="edge42" class="edge"><title>ae1&#45;2014.nbg40.core&#45;backbone.com&#45;&#45;core&#45;backbone&#45;100g&#45;nbg.hetzner.de</title>
<path fill="none" stroke="black" d="M775.253,-503.697C775.098,-492.846 774.899,-478.917 774.744,-468.104"/>
</g>
<!-- core11.nbg1.hetzner.com -->
<g id="node40" class="node"><title>core11.nbg1.hetzner.com</title>
<path fill="lightgrey" stroke="white" d="M847.5,-396C847.5,-396 701.5,-396 701.5,-396 695.5,-396 689.5,-390 689.5,-384 689.5,-384 689.5,-372 689.5,-372 689.5,-366 695.5,-360 701.5,-360 701.5,-360 847.5,-360 847.5,-360 853.5,-360 859.5,-366 859.5,-372 859.5,-372 859.5,-384 859.5,-384 859.5,-390 853.5,-396 847.5,-396"/>
<text text-anchor="middle" x="774.5" y="-374.3" font-family="Helvetica,sans-Serif" font-size="14.00">core11.nbg1.hetzner.com</text>
</g>
<!-- core&#45;backbone&#45;100g&#45;nbg.hetzner.de&#45;&#45;core11.nbg1.hetzner.com -->
<g id="edge43" class="edge"><title>core&#45;backbone&#45;100g&#45;nbg.hetzner.de&#45;&#45;core11.nbg1.hetzner.com</title>
<path fill="none" stroke="black" d="M774.5,-431.697C774.5,-420.846 774.5,-406.917 774.5,-396.104"/>
</g>
<!-- core24.fsn1.hetzner.com -->
<g id="node41" class="node"><title>core24.fsn1.hetzner.com</title>
<path fill="lightgrey" stroke="white" d="M845.5,-324C845.5,-324 703.5,-324 703.5,-324 697.5,-324 691.5,-318 691.5,-312 691.5,-312 691.5,-300 691.5,-300 691.5,-294 697.5,-288 703.5,-288 703.5,-288 845.5,-288 845.5,-288 851.5,-288 857.5,-294 857.5,-300 857.5,-300 857.5,-312 857.5,-312 857.5,-318 851.5,-324 845.5,-324"/>
<text text-anchor="middle" x="774.5" y="-302.3" font-family="Helvetica,sans-Serif" font-size="14.00">core24.fsn1.hetzner.com</text>
</g>
<!-- core11.nbg1.hetzner.com&#45;&#45;core24.fsn1.hetzner.com -->
<g id="edge44" class="edge"><title>core11.nbg1.hetzner.com&#45;&#45;core24.fsn1.hetzner.com</title>
<path fill="none" stroke="black" d="M774.5,-359.697C774.5,-348.846 774.5,-334.917 774.5,-324.104"/>
</g>
<!-- ex9k1.dc7.fsn1.hetzner.com -->
<g id="node42" class="node"><title>ex9k1.dc7.fsn1.hetzner.com</title>
<path fill="lightgrey" stroke="white" d="M855.5,-252C855.5,-252 693.5,-252 693.5,-252 687.5,-252 681.5,-246 681.5,-240 681.5,-240 681.5,-228 681.5,-228 681.5,-222 687.5,-216 693.5,-216 693.5,-216 855.5,-216 855.5,-216 861.5,-216 867.5,-222 867.5,-228 867.5,-228 867.5,-240 867.5,-240 867.5,-246 861.5,-252 855.5,-252"/>
<text text-anchor="middle" x="774.5" y="-230.3" font-family="Helvetica,sans-Serif" font-size="14.00">ex9k1.dc7.fsn1.hetzner.com</text>
</g>
<!-- core24.fsn1.hetzner.com&#45;&#45;ex9k1.dc7.fsn1.hetzner.com -->
<g id="edge45" class="edge"><title>core24.fsn1.hetzner.com&#45;&#45;ex9k1.dc7.fsn1.hetzner.com</title>
<path fill="none" stroke="black" d="M774.5,-287.697C774.5,-276.846 774.5,-262.917 774.5,-252.104"/>
</g>
<!-- b6.xgu.ru -->
<g id="node43" class="node"><title>b6.xgu.ru</title>
<path fill="lightgrey" stroke="white" d="M799,-180C799,-180 750,-180 750,-180 744,-180 738,-174 738,-168 738,-168 738,-156 738,-156 738,-150 744,-144 750,-144 750,-144 799,-144 799,-144 805,-144 811,-150 811,-156 811,-156 811,-168 811,-168 811,-174 805,-180 799,-180"/>
<text text-anchor="middle" x="774.5" y="-158.3" font-family="Helvetica,sans-Serif" font-size="14.00">b6.xgu.ru</text>
</g>
<!-- ex9k1.dc7.fsn1.hetzner.com&#45;&#45;b6.xgu.ru -->
<g id="edge46" class="edge"><title>ex9k1.dc7.fsn1.hetzner.com&#45;&#45;b6.xgu.ru</title>
<path fill="none" stroke="black" d="M774.5,-215.697C774.5,-204.846 774.5,-190.917 774.5,-180.104"/>
</g>
<!-- cheat.sh -->
<g id="node44" class="node"><title>cheat.sh</title>
<path fill="lightgrey" stroke="white" d="M796.5,-108C796.5,-108 752.5,-108 752.5,-108 746.5,-108 740.5,-102 740.5,-96 740.5,-96 740.5,-84 740.5,-84 740.5,-78 746.5,-72 752.5,-72 752.5,-72 796.5,-72 796.5,-72 802.5,-72 808.5,-78 808.5,-84 808.5,-84 808.5,-96 808.5,-96 808.5,-102 802.5,-108 796.5,-108"/>
<text text-anchor="middle" x="774.5" y="-86.3" font-family="Helvetica,sans-Serif" font-size="14.00">cheat.sh</text>
</g>
<!-- b6.xgu.ru&#45;&#45;cheat.sh -->
<g id="edge47" class="edge"><title>b6.xgu.ru&#45;&#45;cheat.sh</title>
<path fill="none" stroke="black" d="M774.5,-143.697C774.5,-132.846 774.5,-118.917 774.5,-108.104"/>
</g>
<!-- cheat.sh&#45;&#45;rate.sx # curl for bitcoin rates -->
<g id="edge48" class="edge"><title>cheat.sh&#45;&#45;rate.sx # curl for bitcoin rates</title>
<path fill="none" stroke="black" d="M774.5,-71.6966C774.5,-60.8463 774.5,-46.9167 774.5,-36.1043"/>
</g>
<!-- 66.39.50.36 # Pair Networks -->
<g id="node45" class="node"><title>66.39.50.36 # Pair Networks</title>
<path fill="green" stroke="white" d="M1085,-468C1085,-468 922,-468 922,-468 916,-468 910,-462 910,-456 910,-456 910,-444 910,-444 910,-438 916,-432 922,-432 922,-432 1085,-432 1085,-432 1091,-432 1097,-438 1097,-444 1097,-444 1097,-456 1097,-456 1097,-462 1091,-468 1085,-468"/>
<text text-anchor="middle" x="1003.5" y="-446.3" font-family="Helvetica,sans-Serif" font-size="14.00" fill="white">66.39.50.36 # Pair Networks</text>
</g>
<!-- www3.g17.pair.com -->
<g id="node47" class="node"><title>www3.g17.pair.com</title>
<path fill="lightgrey" stroke="white" d="M1058.5,-540C1058.5,-540 946.5,-540 946.5,-540 940.5,-540 934.5,-534 934.5,-528 934.5,-528 934.5,-516 934.5,-516 934.5,-510 940.5,-504 946.5,-504 946.5,-504 1058.5,-504 1058.5,-504 1064.5,-504 1070.5,-510 1070.5,-516 1070.5,-516 1070.5,-528 1070.5,-528 1070.5,-534 1064.5,-540 1058.5,-540"/>
<text text-anchor="middle" x="1002.5" y="-518.3" font-family="Helvetica,sans-Serif" font-size="14.00">www3.g17.pair.com</text>
</g>
<!-- GIGLINX&#45;INC.bear1.Pittsburgh3.Level3.net&#45;&#45;www3.g17.pair.com -->
<g id="edge50" class="edge"><title>GIGLINX&#45;INC.bear1.Pittsburgh3.Level3.net&#45;&#45;www3.g17.pair.com</title>
<path fill="none" stroke="black" d="M1000.24,-575.697C1000.71,-564.846 1001.3,-550.917 1001.77,-540.104"/>
</g>
<!-- www3.g17.pair.com&#45;&#45;66.39.50.36 # Pair Networks -->
<g id="edge51" class="edge"><title>www3.g17.pair.com&#45;&#45;66.39.50.36 # Pair Networks</title>
<path fill="none" stroke="black" d="M1002.75,-503.697C1002.9,-492.846 1003.1,-478.917 1003.26,-468.104"/>
</g>
</g>
</svg>
