<?xml version="1.0" encoding="UTF-8" standalone="no"?>
<!DOCTYPE svg PUBLIC "-//W3C//DTD SVG 1.1//EN"
 "http://www.w3.org/Graphics/SVG/1.1/DTD/svg11.dtd">
<!-- Generated by graphviz version 2.38.0 (20140413.2041)
 -->
<!-- Title: %3 Pages: 1 -->
<svg width="955pt" height="1147pt"
 viewBox="0.00 0.00 955.00 1147.00" xmlns="http://www.w3.org/2000/svg" xmlns:xlink="http://www.w3.org/1999/xlink">
<g id="graph0" class="graph" transform="scale(1 1) rotate(0) translate(4 1143)">
<title>%3</title>
<polygon fill="white" stroke="none" points="-4,4 -4,-1143 951,-1143 951,4 -4,4"/>
<text text-anchor="middle" x="154" y="-1123.8" font-family="Helvetica,sans-Serif" font-size="14.00">./hosts2dot.sh &#45; Thu 14 Dec 22:25:32 GMT 2017</text>
<!-- soy_yo -->
<g id="node1" class="node"><title>soy_yo</title>
<path fill="lightgrey" stroke="white" d="M404.5,-1116C404.5,-1116 374.5,-1116 374.5,-1116 368.5,-1116 362.5,-1110 362.5,-1104 362.5,-1104 362.5,-1092 362.5,-1092 362.5,-1086 368.5,-1080 374.5,-1080 374.5,-1080 404.5,-1080 404.5,-1080 410.5,-1080 416.5,-1086 416.5,-1092 416.5,-1092 416.5,-1104 416.5,-1104 416.5,-1110 410.5,-1116 404.5,-1116"/>
<text text-anchor="middle" x="389.5" y="-1094.3" font-family="Helvetica,sans-Serif" font-size="14.00">dev</text>
</g>
<!-- localhost -->
<g id="node3" class="node"><title>localhost</title>
<path fill="lightgrey" stroke="white" d="M344.5,-1044C344.5,-1044 298.5,-1044 298.5,-1044 292.5,-1044 286.5,-1038 286.5,-1032 286.5,-1032 286.5,-1020 286.5,-1020 286.5,-1014 292.5,-1008 298.5,-1008 298.5,-1008 344.5,-1008 344.5,-1008 350.5,-1008 356.5,-1014 356.5,-1020 356.5,-1020 356.5,-1032 356.5,-1032 356.5,-1038 350.5,-1044 344.5,-1044"/>
<text text-anchor="middle" x="321.5" y="-1022.3" font-family="Helvetica,sans-Serif" font-size="14.00">localhost</text>
</g>
<!-- soy_yo&#45;&#45;localhost -->
<g id="edge1" class="edge"><title>soy_yo&#45;&#45;localhost</title>
<path fill="none" stroke="black" d="M372.691,-1079.7C362.151,-1068.85 348.619,-1054.92 338.116,-1044.1"/>
</g>
<!-- gateway -->
<g id="node5" class="node"><title>gateway</title>
<path fill="lightgrey" stroke="white" d="M480,-1044C480,-1044 437,-1044 437,-1044 431,-1044 425,-1038 425,-1032 425,-1032 425,-1020 425,-1020 425,-1014 431,-1008 437,-1008 437,-1008 480,-1008 480,-1008 486,-1008 492,-1014 492,-1020 492,-1020 492,-1032 492,-1032 492,-1038 486,-1044 480,-1044"/>
<text text-anchor="middle" x="458.5" y="-1022.3" font-family="Helvetica,sans-Serif" font-size="14.00">gateway</text>
</g>
<!-- soy_yo&#45;&#45;gateway -->
<g id="edge3" class="edge"><title>soy_yo&#45;&#45;gateway</title>
<path fill="none" stroke="black" d="M406.556,-1079.7C417.252,-1068.85 430.982,-1054.92 441.64,-1044.1"/>
</g>
<!-- 127.0.0.1 localhost # for local people -->
<g id="node2" class="node"><title>127.0.0.1 localhost # for local people</title>
<path fill="green" stroke="white" d="M376.5,-972C376.5,-972 164.5,-972 164.5,-972 158.5,-972 152.5,-966 152.5,-960 152.5,-960 152.5,-948 152.5,-948 152.5,-942 158.5,-936 164.5,-936 164.5,-936 376.5,-936 376.5,-936 382.5,-936 388.5,-942 388.5,-948 388.5,-948 388.5,-960 388.5,-960 388.5,-966 382.5,-972 376.5,-972"/>
<text text-anchor="middle" x="270.5" y="-950.3" font-family="Helvetica,sans-Serif" font-size="14.00" fill="white">127.0.0.1 localhost # for local people</text>
</g>
<!-- localhost&#45;&#45;127.0.0.1 localhost # for local people -->
<g id="edge2" class="edge"><title>localhost&#45;&#45;127.0.0.1 localhost # for local people</title>
<path fill="none" stroke="black" d="M308.893,-1007.7C300.988,-996.846 290.839,-982.917 282.962,-972.104"/>
</g>
<!-- 192.30.253.113 &#45;&#45; github -->
<g id="node4" class="node"><title>192.30.253.113 &#45;&#45; github</title>
<path fill="green" stroke="white" d="M186.5,-36C186.5,-36 46.5,-36 46.5,-36 40.5,-36 34.5,-30 34.5,-24 34.5,-24 34.5,-12 34.5,-12 34.5,-6 40.5,-0 46.5,-0 46.5,-0 186.5,-0 186.5,-0 192.5,-0 198.5,-6 198.5,-12 198.5,-12 198.5,-24 198.5,-24 198.5,-30 192.5,-36 186.5,-36"/>
<text text-anchor="middle" x="116.5" y="-14.3" font-family="Helvetica,sans-Serif" font-size="14.00" fill="white">192.30.253.113 &#45;&#45; github</text>
</g>
<!-- gateway&#45;&#45;gateway -->
<g id="edge4" class="edge"><title>gateway&#45;&#45;gateway</title>
<path fill="none" stroke="black" d="M492.181,-1039.47C502.202,-1039.07 510,-1034.58 510,-1026 510,-1017.42 502.202,-1012.93 492.181,-1012.53"/>
</g>
<!-- 10.248.28.145 -->
<g id="node6" class="node"><title>10.248.28.145</title>
<path fill="lightgrey" stroke="white" d="M498,-972C498,-972 419,-972 419,-972 413,-972 407,-966 407,-960 407,-960 407,-948 407,-948 407,-942 413,-936 419,-936 419,-936 498,-936 498,-936 504,-936 510,-942 510,-948 510,-948 510,-960 510,-960 510,-966 504,-972 498,-972"/>
<text text-anchor="middle" x="458.5" y="-950.3" font-family="Helvetica,sans-Serif" font-size="14.00">10.248.28.145</text>
</g>
<!-- gateway&#45;&#45;10.248.28.145 -->
<g id="edge5" class="edge"><title>gateway&#45;&#45;10.248.28.145</title>
<path fill="none" stroke="black" d="M458.5,-1007.7C458.5,-996.846 458.5,-982.917 458.5,-972.104"/>
</g>
<!-- 10.248.28.153 -->
<g id="node21" class="node"><title>10.248.28.153</title>
<path fill="lightgrey" stroke="white" d="M619,-972C619,-972 540,-972 540,-972 534,-972 528,-966 528,-960 528,-960 528,-948 528,-948 528,-942 534,-936 540,-936 540,-936 619,-936 619,-936 625,-936 631,-942 631,-948 631,-948 631,-960 631,-960 631,-966 625,-972 619,-972"/>
<text text-anchor="middle" x="579.5" y="-950.3" font-family="Helvetica,sans-Serif" font-size="14.00">10.248.28.153</text>
</g>
<!-- gateway&#45;&#45;10.248.28.153 -->
<g id="edge21" class="edge"><title>gateway&#45;&#45;10.248.28.153</title>
<path fill="none" stroke="black" d="M488.1,-1007.88C506.85,-997.029 531.014,-983.05 549.786,-972.19"/>
</g>
<!-- 10.247.84.6 -->
<g id="node7" class="node"><title>10.247.84.6</title>
<path fill="lightgrey" stroke="white" d="M550.5,-900C550.5,-900 486.5,-900 486.5,-900 480.5,-900 474.5,-894 474.5,-888 474.5,-888 474.5,-876 474.5,-876 474.5,-870 480.5,-864 486.5,-864 486.5,-864 550.5,-864 550.5,-864 556.5,-864 562.5,-870 562.5,-876 562.5,-876 562.5,-888 562.5,-888 562.5,-894 556.5,-900 550.5,-900"/>
<text text-anchor="middle" x="518.5" y="-878.3" font-family="Helvetica,sans-Serif" font-size="14.00">10.247.84.6</text>
</g>
<!-- 10.248.28.145&#45;&#45;10.247.84.6 -->
<g id="edge6" class="edge"><title>10.248.28.145&#45;&#45;10.247.84.6</title>
<path fill="none" stroke="black" d="M473.331,-935.697C482.632,-924.846 494.571,-910.917 503.839,-900.104"/>
</g>
<!-- 10.247.84.6&#45;&#45;10.247.84.6 -->
<g id="edge7" class="edge"><title>10.247.84.6&#45;&#45;10.247.84.6</title>
<path fill="none" stroke="black" d="M562.524,-895.233C572.869,-894.145 580.5,-889.734 580.5,-882 580.5,-874.266 572.869,-869.855 562.524,-868.767"/>
</g>
<!-- 10.247.84.9 -->
<g id="node8" class="node"><title>10.247.84.9</title>
<path fill="lightgrey" stroke="white" d="M550.5,-828C550.5,-828 486.5,-828 486.5,-828 480.5,-828 474.5,-822 474.5,-816 474.5,-816 474.5,-804 474.5,-804 474.5,-798 480.5,-792 486.5,-792 486.5,-792 550.5,-792 550.5,-792 556.5,-792 562.5,-798 562.5,-804 562.5,-804 562.5,-816 562.5,-816 562.5,-822 556.5,-828 550.5,-828"/>
<text text-anchor="middle" x="518.5" y="-806.3" font-family="Helvetica,sans-Serif" font-size="14.00">10.247.84.9</text>
</g>
<!-- 10.247.84.6&#45;&#45;10.247.84.9 -->
<g id="edge8" class="edge"><title>10.247.84.6&#45;&#45;10.247.84.9</title>
<path fill="none" stroke="black" d="M518.5,-863.697C518.5,-852.846 518.5,-838.917 518.5,-828.104"/>
</g>
<!-- 87.237.20.224 -->
<g id="node9" class="node"><title>87.237.20.224</title>
<path fill="lightgrey" stroke="white" d="M558,-756C558,-756 479,-756 479,-756 473,-756 467,-750 467,-744 467,-744 467,-732 467,-732 467,-726 473,-720 479,-720 479,-720 558,-720 558,-720 564,-720 570,-726 570,-732 570,-732 570,-744 570,-744 570,-750 564,-756 558,-756"/>
<text text-anchor="middle" x="518.5" y="-734.3" font-family="Helvetica,sans-Serif" font-size="14.00">87.237.20.224</text>
</g>
<!-- 10.247.84.9&#45;&#45;87.237.20.224 -->
<g id="edge9" class="edge"><title>10.247.84.9&#45;&#45;87.237.20.224</title>
<path fill="none" stroke="black" d="M518.5,-791.697C518.5,-780.846 518.5,-766.917 518.5,-756.104"/>
</g>
<!-- 87.237.20.73 -->
<g id="node10" class="node"><title>87.237.20.73</title>
<path fill="lightgrey" stroke="white" d="M554,-684C554,-684 483,-684 483,-684 477,-684 471,-678 471,-672 471,-672 471,-660 471,-660 471,-654 477,-648 483,-648 483,-648 554,-648 554,-648 560,-648 566,-654 566,-660 566,-660 566,-672 566,-672 566,-678 560,-684 554,-684"/>
<text text-anchor="middle" x="518.5" y="-662.3" font-family="Helvetica,sans-Serif" font-size="14.00">87.237.20.73</text>
</g>
<!-- 87.237.20.224&#45;&#45;87.237.20.73 -->
<g id="edge10" class="edge"><title>87.237.20.224&#45;&#45;87.237.20.73</title>
<path fill="none" stroke="black" d="M518.5,-719.697C518.5,-708.846 518.5,-694.917 518.5,-684.104"/>
</g>
<!-- 80.150.169.13 -->
<g id="node11" class="node"><title>80.150.169.13</title>
<path fill="lightgrey" stroke="white" d="M330,-612C330,-612 251,-612 251,-612 245,-612 239,-606 239,-600 239,-600 239,-588 239,-588 239,-582 245,-576 251,-576 251,-576 330,-576 330,-576 336,-576 342,-582 342,-588 342,-588 342,-600 342,-600 342,-606 336,-612 330,-612"/>
<text text-anchor="middle" x="290.5" y="-590.3" font-family="Helvetica,sans-Serif" font-size="14.00">80.150.169.13</text>
</g>
<!-- 87.237.20.73&#45;&#45;80.150.169.13 -->
<g id="edge11" class="edge"><title>87.237.20.73&#45;&#45;80.150.169.13</title>
<path fill="none" stroke="black" d="M470.981,-650.411C433.395,-638.871 380.988,-622.781 342.326,-610.911"/>
</g>
<!-- 216.58.213.99 google -->
<g id="node19" class="node"><title>216.58.213.99 google</title>
<path fill="green" stroke="white" d="M495,-612C495,-612 372,-612 372,-612 366,-612 360,-606 360,-600 360,-600 360,-588 360,-588 360,-582 366,-576 372,-576 372,-576 495,-576 495,-576 501,-576 507,-582 507,-588 507,-588 507,-600 507,-600 507,-606 501,-612 495,-612"/>
<text text-anchor="middle" x="433.5" y="-590.3" font-family="Helvetica,sans-Serif" font-size="14.00" fill="white">216.58.213.99 google</text>
</g>
<!-- 87.237.20.73&#45;&#45;216.58.213.99 google -->
<g id="edge20" class="edge"><title>87.237.20.73&#45;&#45;216.58.213.99 google</title>
<path fill="none" stroke="black" d="M497.489,-647.697C484.313,-636.846 467.399,-622.917 454.27,-612.104"/>
</g>
<!-- youtube.com # youtube -->
<g id="node20" class="node"><title>youtube.com # youtube</title>
<path fill="green" stroke="white" d="M671.5,-612C671.5,-612 537.5,-612 537.5,-612 531.5,-612 525.5,-606 525.5,-600 525.5,-600 525.5,-588 525.5,-588 525.5,-582 531.5,-576 537.5,-576 537.5,-576 671.5,-576 671.5,-576 677.5,-576 683.5,-582 683.5,-588 683.5,-588 683.5,-600 683.5,-600 683.5,-606 677.5,-612 671.5,-612"/>
<text text-anchor="middle" x="604.5" y="-590.3" font-family="Helvetica,sans-Serif" font-size="14.00" fill="white">youtube.com # youtube</text>
</g>
<!-- 87.237.20.73&#45;&#45;youtube.com # youtube -->
<g id="edge23" class="edge"><title>87.237.20.73&#45;&#45;youtube.com # youtube</title>
<path fill="none" stroke="black" d="M539.758,-647.697C553.089,-636.846 570.202,-622.917 583.486,-612.104"/>
</g>
<!-- 87.237.20.33 -->
<g id="node26" class="node"><title>87.237.20.33</title>
<path fill="lightgrey" stroke="white" d="M785,-612C785,-612 714,-612 714,-612 708,-612 702,-606 702,-600 702,-600 702,-588 702,-588 702,-582 708,-576 714,-576 714,-576 785,-576 785,-576 791,-576 797,-582 797,-588 797,-588 797,-600 797,-600 797,-606 791,-612 785,-612"/>
<text text-anchor="middle" x="749.5" y="-590.3" font-family="Helvetica,sans-Serif" font-size="14.00">87.237.20.33</text>
</g>
<!-- 87.237.20.73&#45;&#45;87.237.20.33 -->
<g id="edge27" class="edge"><title>87.237.20.73&#45;&#45;87.237.20.33</title>
<path fill="none" stroke="black" d="M566.083,-650.581C605.838,-638.534 662.241,-621.442 701.978,-609.4"/>
</g>
<!-- 80.150.170.106 -->
<g id="node12" class="node"><title>80.150.170.106</title>
<path fill="lightgrey" stroke="white" d="M333.5,-540C333.5,-540 247.5,-540 247.5,-540 241.5,-540 235.5,-534 235.5,-528 235.5,-528 235.5,-516 235.5,-516 235.5,-510 241.5,-504 247.5,-504 247.5,-504 333.5,-504 333.5,-504 339.5,-504 345.5,-510 345.5,-516 345.5,-516 345.5,-528 345.5,-528 345.5,-534 339.5,-540 333.5,-540"/>
<text text-anchor="middle" x="290.5" y="-518.3" font-family="Helvetica,sans-Serif" font-size="14.00">80.150.170.106</text>
</g>
<!-- 80.150.169.13&#45;&#45;80.150.170.106 -->
<g id="edge12" class="edge"><title>80.150.169.13&#45;&#45;80.150.170.106</title>
<path fill="none" stroke="black" d="M290.5,-575.697C290.5,-564.846 290.5,-550.917 290.5,-540.104"/>
</g>
<!-- ae&#45;3.r24.londen12.uk.bb.gin.ntt.net -->
<g id="node13" class="node"><title>ae&#45;3.r24.londen12.uk.bb.gin.ntt.net</title>
<path fill="lightgrey" stroke="white" d="M217.5,-468C217.5,-468 15.5,-468 15.5,-468 9.5,-468 3.5,-462 3.5,-456 3.5,-456 3.5,-444 3.5,-444 3.5,-438 9.5,-432 15.5,-432 15.5,-432 217.5,-432 217.5,-432 223.5,-432 229.5,-438 229.5,-444 229.5,-444 229.5,-456 229.5,-456 229.5,-462 223.5,-468 217.5,-468"/>
<text text-anchor="middle" x="116.5" y="-446.3" font-family="Helvetica,sans-Serif" font-size="14.00">ae&#45;3.r24.londen12.uk.bb.gin.ntt.net</text>
</g>
<!-- 80.150.170.106&#45;&#45;ae&#45;3.r24.londen12.uk.bb.gin.ntt.net -->
<g id="edge13" class="edge"><title>80.150.170.106&#45;&#45;ae&#45;3.r24.londen12.uk.bb.gin.ntt.net</title>
<path fill="none" stroke="black" d="M247.935,-503.876C220.871,-492.988 185.964,-478.945 158.927,-468.068"/>
</g>
<!-- ae&#45;25.r00.londen10.uk.bb.gin.ntt.net -->
<g id="node23" class="node"><title>ae&#45;25.r00.londen10.uk.bb.gin.ntt.net</title>
<path fill="lightgrey" stroke="white" d="M469,-468C469,-468 260,-468 260,-468 254,-468 248,-462 248,-456 248,-456 248,-444 248,-444 248,-438 254,-432 260,-432 260,-432 469,-432 469,-432 475,-432 481,-438 481,-444 481,-444 481,-456 481,-456 481,-462 475,-468 469,-468"/>
<text text-anchor="middle" x="364.5" y="-446.3" font-family="Helvetica,sans-Serif" font-size="14.00">ae&#45;25.r00.londen10.uk.bb.gin.ntt.net</text>
</g>
<!-- 80.150.170.106&#45;&#45;ae&#45;25.r00.londen10.uk.bb.gin.ntt.net -->
<g id="edge24" class="edge"><title>80.150.170.106&#45;&#45;ae&#45;25.r00.londen10.uk.bb.gin.ntt.net</title>
<path fill="none" stroke="black" d="M308.792,-503.697C320.262,-492.846 334.988,-478.917 346.418,-468.104"/>
</g>
<!-- ae&#45;5.r24.nycmny01.us.bb.gin.ntt.net -->
<g id="node14" class="node"><title>ae&#45;5.r24.nycmny01.us.bb.gin.ntt.net</title>
<path fill="lightgrey" stroke="white" d="M221,-396C221,-396 12,-396 12,-396 6,-396 1.42109e-14,-390 1.42109e-14,-384 1.42109e-14,-384 1.42109e-14,-372 1.42109e-14,-372 1.42109e-14,-366 6,-360 12,-360 12,-360 221,-360 221,-360 227,-360 233,-366 233,-372 233,-372 233,-384 233,-384 233,-390 227,-396 221,-396"/>
<text text-anchor="middle" x="116.5" y="-374.3" font-family="Helvetica,sans-Serif" font-size="14.00">ae&#45;5.r24.nycmny01.us.bb.gin.ntt.net</text>
</g>
<!-- ae&#45;3.r24.londen12.uk.bb.gin.ntt.net&#45;&#45;ae&#45;5.r24.nycmny01.us.bb.gin.ntt.net -->
<g id="edge14" class="edge"><title>ae&#45;3.r24.londen12.uk.bb.gin.ntt.net&#45;&#45;ae&#45;5.r24.nycmny01.us.bb.gin.ntt.net</title>
<path fill="none" stroke="black" d="M116.5,-431.697C116.5,-420.846 116.5,-406.917 116.5,-396.104"/>
</g>
<!-- ae&#45;1.r25.nycmny01.us.bb.gin.ntt.net -->
<g id="node15" class="node"><title>ae&#45;1.r25.nycmny01.us.bb.gin.ntt.net</title>
<path fill="lightgrey" stroke="white" d="M221,-324C221,-324 12,-324 12,-324 6,-324 1.42109e-14,-318 1.42109e-14,-312 1.42109e-14,-312 1.42109e-14,-300 1.42109e-14,-300 1.42109e-14,-294 6,-288 12,-288 12,-288 221,-288 221,-288 227,-288 233,-294 233,-300 233,-300 233,-312 233,-312 233,-318 227,-324 221,-324"/>
<text text-anchor="middle" x="116.5" y="-302.3" font-family="Helvetica,sans-Serif" font-size="14.00">ae&#45;1.r25.nycmny01.us.bb.gin.ntt.net</text>
</g>
<!-- ae&#45;5.r24.nycmny01.us.bb.gin.ntt.net&#45;&#45;ae&#45;1.r25.nycmny01.us.bb.gin.ntt.net -->
<g id="edge15" class="edge"><title>ae&#45;5.r24.nycmny01.us.bb.gin.ntt.net&#45;&#45;ae&#45;1.r25.nycmny01.us.bb.gin.ntt.net</title>
<path fill="none" stroke="black" d="M116.5,-359.697C116.5,-348.846 116.5,-334.917 116.5,-324.104"/>
</g>
<!-- ae&#45;9.r22.asbnva02.us.bb.gin.ntt.net -->
<g id="node16" class="node"><title>ae&#45;9.r22.asbnva02.us.bb.gin.ntt.net</title>
<path fill="lightgrey" stroke="white" d="M219,-252C219,-252 14,-252 14,-252 8,-252 2,-246 2,-240 2,-240 2,-228 2,-228 2,-222 8,-216 14,-216 14,-216 219,-216 219,-216 225,-216 231,-222 231,-228 231,-228 231,-240 231,-240 231,-246 225,-252 219,-252"/>
<text text-anchor="middle" x="116.5" y="-230.3" font-family="Helvetica,sans-Serif" font-size="14.00">ae&#45;9.r22.asbnva02.us.bb.gin.ntt.net</text>
</g>
<!-- ae&#45;1.r25.nycmny01.us.bb.gin.ntt.net&#45;&#45;ae&#45;9.r22.asbnva02.us.bb.gin.ntt.net -->
<g id="edge16" class="edge"><title>ae&#45;1.r25.nycmny01.us.bb.gin.ntt.net&#45;&#45;ae&#45;9.r22.asbnva02.us.bb.gin.ntt.net</title>
<path fill="none" stroke="black" d="M116.5,-287.697C116.5,-276.846 116.5,-262.917 116.5,-252.104"/>
</g>
<!-- ae&#45;1.r05.asbnva02.us.bb.gin.ntt.net -->
<g id="node17" class="node"><title>ae&#45;1.r05.asbnva02.us.bb.gin.ntt.net</title>
<path fill="lightgrey" stroke="white" d="M219,-180C219,-180 14,-180 14,-180 8,-180 2,-174 2,-168 2,-168 2,-156 2,-156 2,-150 8,-144 14,-144 14,-144 219,-144 219,-144 225,-144 231,-150 231,-156 231,-156 231,-168 231,-168 231,-174 225,-180 219,-180"/>
<text text-anchor="middle" x="116.5" y="-158.3" font-family="Helvetica,sans-Serif" font-size="14.00">ae&#45;1.r05.asbnva02.us.bb.gin.ntt.net</text>
</g>
<!-- ae&#45;9.r22.asbnva02.us.bb.gin.ntt.net&#45;&#45;ae&#45;1.r05.asbnva02.us.bb.gin.ntt.net -->
<g id="edge17" class="edge"><title>ae&#45;9.r22.asbnva02.us.bb.gin.ntt.net&#45;&#45;ae&#45;1.r05.asbnva02.us.bb.gin.ntt.net</title>
<path fill="none" stroke="black" d="M116.5,-215.697C116.5,-204.846 116.5,-190.917 116.5,-180.104"/>
</g>
<!-- ae&#45;0.a03.asbnva02.us.bb.gin.ntt.net -->
<g id="node18" class="node"><title>ae&#45;0.a03.asbnva02.us.bb.gin.ntt.net</title>
<path fill="lightgrey" stroke="white" d="M220.5,-108C220.5,-108 12.5,-108 12.5,-108 6.5,-108 0.5,-102 0.5,-96 0.5,-96 0.5,-84 0.5,-84 0.5,-78 6.5,-72 12.5,-72 12.5,-72 220.5,-72 220.5,-72 226.5,-72 232.5,-78 232.5,-84 232.5,-84 232.5,-96 232.5,-96 232.5,-102 226.5,-108 220.5,-108"/>
<text text-anchor="middle" x="116.5" y="-86.3" font-family="Helvetica,sans-Serif" font-size="14.00">ae&#45;0.a03.asbnva02.us.bb.gin.ntt.net</text>
</g>
<!-- ae&#45;1.r05.asbnva02.us.bb.gin.ntt.net&#45;&#45;ae&#45;0.a03.asbnva02.us.bb.gin.ntt.net -->
<g id="edge18" class="edge"><title>ae&#45;1.r05.asbnva02.us.bb.gin.ntt.net&#45;&#45;ae&#45;0.a03.asbnva02.us.bb.gin.ntt.net</title>
<path fill="none" stroke="black" d="M116.5,-143.697C116.5,-132.846 116.5,-118.917 116.5,-108.104"/>
</g>
<!-- ae&#45;0.a03.asbnva02.us.bb.gin.ntt.net&#45;&#45;192.30.253.113 &#45;&#45; github -->
<g id="edge19" class="edge"><title>ae&#45;0.a03.asbnva02.us.bb.gin.ntt.net&#45;&#45;192.30.253.113 &#45;&#45; github</title>
<path fill="none" stroke="black" d="M116.5,-71.6966C116.5,-60.8463 116.5,-46.9167 116.5,-36.1043"/>
</g>
<!-- 10.248.28.153&#45;&#45;10.247.84.6 -->
<g id="edge22" class="edge"><title>10.248.28.153&#45;&#45;10.247.84.6</title>
<path fill="none" stroke="black" d="M564.421,-935.697C554.966,-924.846 542.827,-910.917 533.405,-900.104"/>
</g>
<!-- deanturpin.github.io -->
<g id="node22" class="node"><title>deanturpin.github.io</title>
<path fill="green" stroke="white" d="M420,-324C420,-324 309,-324 309,-324 303,-324 297,-318 297,-312 297,-312 297,-300 297,-300 297,-294 303,-288 309,-288 309,-288 420,-288 420,-288 426,-288 432,-294 432,-300 432,-300 432,-312 432,-312 432,-318 426,-324 420,-324"/>
<text text-anchor="middle" x="364.5" y="-302.3" font-family="Helvetica,sans-Serif" font-size="14.00" fill="white">deanturpin.github.io</text>
</g>
<!-- 151.101.17.147 -->
<g id="node24" class="node"><title>151.101.17.147</title>
<path fill="lightgrey" stroke="white" d="M407.5,-396C407.5,-396 321.5,-396 321.5,-396 315.5,-396 309.5,-390 309.5,-384 309.5,-384 309.5,-372 309.5,-372 309.5,-366 315.5,-360 321.5,-360 321.5,-360 407.5,-360 407.5,-360 413.5,-360 419.5,-366 419.5,-372 419.5,-372 419.5,-384 419.5,-384 419.5,-390 413.5,-396 407.5,-396"/>
<text text-anchor="middle" x="364.5" y="-374.3" font-family="Helvetica,sans-Serif" font-size="14.00">151.101.17.147</text>
</g>
<!-- ae&#45;25.r00.londen10.uk.bb.gin.ntt.net&#45;&#45;151.101.17.147 -->
<g id="edge25" class="edge"><title>ae&#45;25.r00.londen10.uk.bb.gin.ntt.net&#45;&#45;151.101.17.147</title>
<path fill="none" stroke="black" d="M364.5,-431.697C364.5,-420.846 364.5,-406.917 364.5,-396.104"/>
</g>
<!-- 151.101.17.147&#45;&#45;deanturpin.github.io -->
<g id="edge26" class="edge"><title>151.101.17.147&#45;&#45;deanturpin.github.io</title>
<path fill="none" stroke="black" d="M364.5,-359.697C364.5,-348.846 364.5,-334.917 364.5,-324.104"/>
</g>
<!-- thebunker.net -->
<g id="node25" class="node"><title>thebunker.net</title>
<path fill="green" stroke="white" d="M704,-324C704,-324 629,-324 629,-324 623,-324 617,-318 617,-312 617,-312 617,-300 617,-300 617,-294 623,-288 629,-288 629,-288 704,-288 704,-288 710,-288 716,-294 716,-300 716,-300 716,-312 716,-312 716,-318 710,-324 704,-324"/>
<text text-anchor="middle" x="666.5" y="-302.3" font-family="Helvetica,sans-Serif" font-size="14.00" fill="white">thebunker.net</text>
</g>
<!-- linx1.orbital.net -->
<g id="node27" class="node"><title>linx1.orbital.net</title>
<path fill="lightgrey" stroke="white" d="M791,-540C791,-540 708,-540 708,-540 702,-540 696,-534 696,-528 696,-528 696,-516 696,-516 696,-510 702,-504 708,-504 708,-504 791,-504 791,-504 797,-504 803,-510 803,-516 803,-516 803,-528 803,-528 803,-534 797,-540 791,-540"/>
<text text-anchor="middle" x="749.5" y="-518.3" font-family="Helvetica,sans-Serif" font-size="14.00">linx1.orbital.net</text>
</g>
<!-- 87.237.20.33&#45;&#45;linx1.orbital.net -->
<g id="edge28" class="edge"><title>87.237.20.33&#45;&#45;linx1.orbital.net</title>
<path fill="none" stroke="black" d="M749.5,-575.697C749.5,-564.846 749.5,-550.917 749.5,-540.104"/>
</g>
<!-- xe2&#45;2&#45;ve&#45;83.thn&#45;pe&#45;2.thn.thebunker.net.202.88.80.in&#45;addr.arpa -->
<g id="node28" class="node"><title>xe2&#45;2&#45;ve&#45;83.thn&#45;pe&#45;2.thn.thebunker.net.202.88.80.in&#45;addr.arpa</title>
<path fill="lightgrey" stroke="white" d="M933.5,-468C933.5,-468 565.5,-468 565.5,-468 559.5,-468 553.5,-462 553.5,-456 553.5,-456 553.5,-444 553.5,-444 553.5,-438 559.5,-432 565.5,-432 565.5,-432 933.5,-432 933.5,-432 939.5,-432 945.5,-438 945.5,-444 945.5,-444 945.5,-456 945.5,-456 945.5,-462 939.5,-468 933.5,-468"/>
<text text-anchor="middle" x="749.5" y="-446.3" font-family="Helvetica,sans-Serif" font-size="14.00">xe2&#45;2&#45;ve&#45;83.thn&#45;pe&#45;2.thn.thebunker.net.202.88.80.in&#45;addr.arpa</text>
</g>
<!-- linx1.orbital.net&#45;&#45;xe2&#45;2&#45;ve&#45;83.thn&#45;pe&#45;2.thn.thebunker.net.202.88.80.in&#45;addr.arpa -->
<g id="edge29" class="edge"><title>linx1.orbital.net&#45;&#45;xe2&#45;2&#45;ve&#45;83.thn&#45;pe&#45;2.thn.thebunker.net.202.88.80.in&#45;addr.arpa</title>
<path fill="none" stroke="black" d="M749.5,-503.697C749.5,-492.846 749.5,-478.917 749.5,-468.104"/>
</g>
<!-- ash&#45;gslb&#45;1&#45;gw.eth1&#45;36.ash&#45;pe&#45;2.thebunker.net -->
<g id="node29" class="node"><title>ash&#45;gslb&#45;1&#45;gw.eth1&#45;36.ash&#45;pe&#45;2.thebunker.net</title>
<path fill="lightgrey" stroke="white" d="M801.5,-396C801.5,-396 531.5,-396 531.5,-396 525.5,-396 519.5,-390 519.5,-384 519.5,-384 519.5,-372 519.5,-372 519.5,-366 525.5,-360 531.5,-360 531.5,-360 801.5,-360 801.5,-360 807.5,-360 813.5,-366 813.5,-372 813.5,-372 813.5,-384 813.5,-384 813.5,-390 807.5,-396 801.5,-396"/>
<text text-anchor="middle" x="666.5" y="-374.3" font-family="Helvetica,sans-Serif" font-size="14.00">ash&#45;gslb&#45;1&#45;gw.eth1&#45;36.ash&#45;pe&#45;2.thebunker.net</text>
</g>
<!-- xe2&#45;2&#45;ve&#45;83.thn&#45;pe&#45;2.thn.thebunker.net.202.88.80.in&#45;addr.arpa&#45;&#45;ash&#45;gslb&#45;1&#45;gw.eth1&#45;36.ash&#45;pe&#45;2.thebunker.net -->
<g id="edge30" class="edge"><title>xe2&#45;2&#45;ve&#45;83.thn&#45;pe&#45;2.thn.thebunker.net.202.88.80.in&#45;addr.arpa&#45;&#45;ash&#45;gslb&#45;1&#45;gw.eth1&#45;36.ash&#45;pe&#45;2.thebunker.net</title>
<path fill="none" stroke="black" d="M728.983,-431.697C716.118,-420.846 699.601,-406.917 686.781,-396.104"/>
</g>
<!-- 213.129.70.253 -->
<g id="node31" class="node"><title>213.129.70.253</title>
<path fill="lightgrey" stroke="white" d="M929.5,-396C929.5,-396 843.5,-396 843.5,-396 837.5,-396 831.5,-390 831.5,-384 831.5,-384 831.5,-372 831.5,-372 831.5,-366 837.5,-360 843.5,-360 843.5,-360 929.5,-360 929.5,-360 935.5,-360 941.5,-366 941.5,-372 941.5,-372 941.5,-384 941.5,-384 941.5,-390 935.5,-396 929.5,-396"/>
<text text-anchor="middle" x="886.5" y="-374.3" font-family="Helvetica,sans-Serif" font-size="14.00">213.129.70.253</text>
</g>
<!-- xe2&#45;2&#45;ve&#45;83.thn&#45;pe&#45;2.thn.thebunker.net.202.88.80.in&#45;addr.arpa&#45;&#45;213.129.70.253 -->
<g id="edge32" class="edge"><title>xe2&#45;2&#45;ve&#45;83.thn&#45;pe&#45;2.thn.thebunker.net.202.88.80.in&#45;addr.arpa&#45;&#45;213.129.70.253</title>
<path fill="none" stroke="black" d="M783.014,-431.876C804.244,-421.029 831.603,-407.05 852.857,-396.19"/>
</g>
<!-- ash&#45;gslb&#45;1&#45;gw.eth1&#45;36.ash&#45;pe&#45;2.thebunker.net&#45;&#45;thebunker.net -->
<g id="edge31" class="edge"><title>ash&#45;gslb&#45;1&#45;gw.eth1&#45;36.ash&#45;pe&#45;2.thebunker.net&#45;&#45;thebunker.net</title>
<path fill="none" stroke="black" d="M666.5,-359.697C666.5,-348.846 666.5,-334.917 666.5,-324.104"/>
</g>
<!-- infinityfoods.coop -->
<g id="node30" class="node"><title>infinityfoods.coop</title>
<path fill="green" stroke="white" d="M935,-252C935,-252 838,-252 838,-252 832,-252 826,-246 826,-240 826,-240 826,-228 826,-228 826,-222 832,-216 838,-216 838,-216 935,-216 935,-216 941,-216 947,-222 947,-228 947,-228 947,-240 947,-240 947,-246 941,-252 935,-252"/>
<text text-anchor="middle" x="886.5" y="-230.3" font-family="Helvetica,sans-Serif" font-size="14.00" fill="white">infinityfoods.coop</text>
</g>
<!-- 213.129.70.237 -->
<g id="node32" class="node"><title>213.129.70.237</title>
<path fill="lightgrey" stroke="white" d="M929.5,-324C929.5,-324 843.5,-324 843.5,-324 837.5,-324 831.5,-318 831.5,-312 831.5,-312 831.5,-300 831.5,-300 831.5,-294 837.5,-288 843.5,-288 843.5,-288 929.5,-288 929.5,-288 935.5,-288 941.5,-294 941.5,-300 941.5,-300 941.5,-312 941.5,-312 941.5,-318 935.5,-324 929.5,-324"/>
<text text-anchor="middle" x="886.5" y="-302.3" font-family="Helvetica,sans-Serif" font-size="14.00">213.129.70.237</text>
</g>
<!-- 213.129.70.253&#45;&#45;213.129.70.237 -->
<g id="edge33" class="edge"><title>213.129.70.253&#45;&#45;213.129.70.237</title>
<path fill="none" stroke="black" d="M886.5,-359.697C886.5,-348.846 886.5,-334.917 886.5,-324.104"/>
</g>
<!-- 213.129.70.237&#45;&#45;infinityfoods.coop -->
<g id="edge34" class="edge"><title>213.129.70.237&#45;&#45;infinityfoods.coop</title>
<path fill="none" stroke="black" d="M886.5,-287.697C886.5,-276.846 886.5,-262.917 886.5,-252.104"/>
</g>
</g>
</svg>
