<?xml version="1.0" encoding="UTF-8" standalone="no"?>
<!DOCTYPE svg PUBLIC "-//W3C//DTD SVG 1.1//EN"
 "http://www.w3.org/Graphics/SVG/1.1/DTD/svg11.dtd">
<!-- Generated by graphviz version 2.38.0 (20140413.2041)
 -->
<!-- Title: %3 Pages: 1 -->
<svg width="1384pt" height="1147pt"
 viewBox="0.00 0.00 1383.50 1147.00" xmlns="http://www.w3.org/2000/svg" xmlns:xlink="http://www.w3.org/1999/xlink">
<g id="graph0" class="graph" transform="scale(1 1) rotate(0) translate(4 1143)">
<title>%3</title>
<polygon fill="white" stroke="none" points="-4,4 -4,-1143 1379.5,-1143 1379.5,4 -4,4"/>
<text text-anchor="middle" x="156.5" y="-1123.8" font-family="Helvetica,sans-Serif" font-size="14.00">./hosts2dot.sh &#45; Wed 20 Dec 10:47:55 GMT 2017</text>
<!-- soy_yo -->
<g id="node1" class="node"><title>soy_yo</title>
<path fill="lightgrey" stroke="white" d="M669.5,-1116C669.5,-1116 639.5,-1116 639.5,-1116 633.5,-1116 627.5,-1110 627.5,-1104 627.5,-1104 627.5,-1092 627.5,-1092 627.5,-1086 633.5,-1080 639.5,-1080 639.5,-1080 669.5,-1080 669.5,-1080 675.5,-1080 681.5,-1086 681.5,-1092 681.5,-1092 681.5,-1104 681.5,-1104 681.5,-1110 675.5,-1116 669.5,-1116"/>
<text text-anchor="middle" x="654.5" y="-1094.3" font-family="Helvetica,sans-Serif" font-size="14.00">dev</text>
</g>
<!-- localhost -->
<g id="node3" class="node"><title>localhost</title>
<path fill="lightgrey" stroke="white" d="M609.5,-1044C609.5,-1044 563.5,-1044 563.5,-1044 557.5,-1044 551.5,-1038 551.5,-1032 551.5,-1032 551.5,-1020 551.5,-1020 551.5,-1014 557.5,-1008 563.5,-1008 563.5,-1008 609.5,-1008 609.5,-1008 615.5,-1008 621.5,-1014 621.5,-1020 621.5,-1020 621.5,-1032 621.5,-1032 621.5,-1038 615.5,-1044 609.5,-1044"/>
<text text-anchor="middle" x="586.5" y="-1022.3" font-family="Helvetica,sans-Serif" font-size="14.00">localhost</text>
</g>
<!-- soy_yo&#45;&#45;localhost -->
<g id="edge1" class="edge"><title>soy_yo&#45;&#45;localhost</title>
<path fill="none" stroke="black" d="M637.691,-1079.7C627.151,-1068.85 613.619,-1054.92 603.116,-1044.1"/>
</g>
<!-- gateway -->
<g id="node5" class="node"><title>gateway</title>
<path fill="lightgrey" stroke="white" d="M745,-1044C745,-1044 702,-1044 702,-1044 696,-1044 690,-1038 690,-1032 690,-1032 690,-1020 690,-1020 690,-1014 696,-1008 702,-1008 702,-1008 745,-1008 745,-1008 751,-1008 757,-1014 757,-1020 757,-1020 757,-1032 757,-1032 757,-1038 751,-1044 745,-1044"/>
<text text-anchor="middle" x="723.5" y="-1022.3" font-family="Helvetica,sans-Serif" font-size="14.00">gateway</text>
</g>
<!-- soy_yo&#45;&#45;gateway -->
<g id="edge3" class="edge"><title>soy_yo&#45;&#45;gateway</title>
<path fill="none" stroke="black" d="M671.556,-1079.7C682.252,-1068.85 695.982,-1054.92 706.64,-1044.1"/>
</g>
<!-- 127.0.0.1 localhost # for local people -->
<g id="node2" class="node"><title>127.0.0.1 localhost # for local people</title>
<path fill="green" stroke="white" d="M641.5,-972C641.5,-972 429.5,-972 429.5,-972 423.5,-972 417.5,-966 417.5,-960 417.5,-960 417.5,-948 417.5,-948 417.5,-942 423.5,-936 429.5,-936 429.5,-936 641.5,-936 641.5,-936 647.5,-936 653.5,-942 653.5,-948 653.5,-948 653.5,-960 653.5,-960 653.5,-966 647.5,-972 641.5,-972"/>
<text text-anchor="middle" x="535.5" y="-950.3" font-family="Helvetica,sans-Serif" font-size="14.00" fill="white">127.0.0.1 localhost # for local people</text>
</g>
<!-- localhost&#45;&#45;127.0.0.1 localhost # for local people -->
<g id="edge2" class="edge"><title>localhost&#45;&#45;127.0.0.1 localhost # for local people</title>
<path fill="none" stroke="black" d="M573.893,-1007.7C565.988,-996.846 555.839,-982.917 547.962,-972.104"/>
</g>
<!-- 192.30.253.113 &#45;&#45; github -->
<g id="node4" class="node"><title>192.30.253.113 &#45;&#45; github</title>
<path fill="green" stroke="white" d="M186.5,-36C186.5,-36 46.5,-36 46.5,-36 40.5,-36 34.5,-30 34.5,-24 34.5,-24 34.5,-12 34.5,-12 34.5,-6 40.5,-0 46.5,-0 46.5,-0 186.5,-0 186.5,-0 192.5,-0 198.5,-6 198.5,-12 198.5,-12 198.5,-24 198.5,-24 198.5,-30 192.5,-36 186.5,-36"/>
<text text-anchor="middle" x="116.5" y="-14.3" font-family="Helvetica,sans-Serif" font-size="14.00" fill="white">192.30.253.113 &#45;&#45; github</text>
</g>
<!-- gateway&#45;&#45;gateway -->
<g id="edge4" class="edge"><title>gateway&#45;&#45;gateway</title>
<path fill="none" stroke="black" d="M757.181,-1039.47C767.202,-1039.07 775,-1034.58 775,-1026 775,-1017.42 767.202,-1012.93 757.181,-1012.53"/>
</g>
<!-- 10.248.28.145 -->
<g id="node6" class="node"><title>10.248.28.145</title>
<path fill="lightgrey" stroke="white" d="M763,-972C763,-972 684,-972 684,-972 678,-972 672,-966 672,-960 672,-960 672,-948 672,-948 672,-942 678,-936 684,-936 684,-936 763,-936 763,-936 769,-936 775,-942 775,-948 775,-948 775,-960 775,-960 775,-966 769,-972 763,-972"/>
<text text-anchor="middle" x="723.5" y="-950.3" font-family="Helvetica,sans-Serif" font-size="14.00">10.248.28.145</text>
</g>
<!-- gateway&#45;&#45;10.248.28.145 -->
<g id="edge5" class="edge"><title>gateway&#45;&#45;10.248.28.145</title>
<path fill="none" stroke="black" d="M723.5,-1007.7C723.5,-996.846 723.5,-982.917 723.5,-972.104"/>
</g>
<!-- 10.248.28.153 -->
<g id="node22" class="node"><title>10.248.28.153</title>
<path fill="lightgrey" stroke="white" d="M884,-972C884,-972 805,-972 805,-972 799,-972 793,-966 793,-960 793,-960 793,-948 793,-948 793,-942 799,-936 805,-936 805,-936 884,-936 884,-936 890,-936 896,-942 896,-948 896,-948 896,-960 896,-960 896,-966 890,-972 884,-972"/>
<text text-anchor="middle" x="844.5" y="-950.3" font-family="Helvetica,sans-Serif" font-size="14.00">10.248.28.153</text>
</g>
<!-- gateway&#45;&#45;10.248.28.153 -->
<g id="edge21" class="edge"><title>gateway&#45;&#45;10.248.28.153</title>
<path fill="none" stroke="black" d="M753.1,-1007.88C771.85,-997.029 796.014,-983.05 814.786,-972.19"/>
</g>
<!-- 10.247.84.6 -->
<g id="node7" class="node"><title>10.247.84.6</title>
<path fill="lightgrey" stroke="white" d="M815.5,-900C815.5,-900 751.5,-900 751.5,-900 745.5,-900 739.5,-894 739.5,-888 739.5,-888 739.5,-876 739.5,-876 739.5,-870 745.5,-864 751.5,-864 751.5,-864 815.5,-864 815.5,-864 821.5,-864 827.5,-870 827.5,-876 827.5,-876 827.5,-888 827.5,-888 827.5,-894 821.5,-900 815.5,-900"/>
<text text-anchor="middle" x="783.5" y="-878.3" font-family="Helvetica,sans-Serif" font-size="14.00">10.247.84.6</text>
</g>
<!-- 10.248.28.145&#45;&#45;10.247.84.6 -->
<g id="edge6" class="edge"><title>10.248.28.145&#45;&#45;10.247.84.6</title>
<path fill="none" stroke="black" d="M738.331,-935.697C747.632,-924.846 759.571,-910.917 768.839,-900.104"/>
</g>
<!-- 10.247.84.9 -->
<g id="node8" class="node"><title>10.247.84.9</title>
<path fill="lightgrey" stroke="white" d="M815.5,-828C815.5,-828 751.5,-828 751.5,-828 745.5,-828 739.5,-822 739.5,-816 739.5,-816 739.5,-804 739.5,-804 739.5,-798 745.5,-792 751.5,-792 751.5,-792 815.5,-792 815.5,-792 821.5,-792 827.5,-798 827.5,-804 827.5,-804 827.5,-816 827.5,-816 827.5,-822 821.5,-828 815.5,-828"/>
<text text-anchor="middle" x="783.5" y="-806.3" font-family="Helvetica,sans-Serif" font-size="14.00">10.247.84.9</text>
</g>
<!-- 10.247.84.6&#45;&#45;10.247.84.9 -->
<g id="edge7" class="edge"><title>10.247.84.6&#45;&#45;10.247.84.9</title>
<path fill="none" stroke="black" d="M783.5,-863.697C783.5,-852.846 783.5,-838.917 783.5,-828.104"/>
</g>
<!-- 87.237.20.224 -->
<g id="node9" class="node"><title>87.237.20.224</title>
<path fill="lightgrey" stroke="white" d="M823,-756C823,-756 744,-756 744,-756 738,-756 732,-750 732,-744 732,-744 732,-732 732,-732 732,-726 738,-720 744,-720 744,-720 823,-720 823,-720 829,-720 835,-726 835,-732 835,-732 835,-744 835,-744 835,-750 829,-756 823,-756"/>
<text text-anchor="middle" x="783.5" y="-734.3" font-family="Helvetica,sans-Serif" font-size="14.00">87.237.20.224</text>
</g>
<!-- 10.247.84.9&#45;&#45;87.237.20.224 -->
<g id="edge8" class="edge"><title>10.247.84.9&#45;&#45;87.237.20.224</title>
<path fill="none" stroke="black" d="M783.5,-791.697C783.5,-780.846 783.5,-766.917 783.5,-756.104"/>
</g>
<!-- 87.237.20.73 -->
<g id="node10" class="node"><title>87.237.20.73</title>
<path fill="lightgrey" stroke="white" d="M819,-684C819,-684 748,-684 748,-684 742,-684 736,-678 736,-672 736,-672 736,-660 736,-660 736,-654 742,-648 748,-648 748,-648 819,-648 819,-648 825,-648 831,-654 831,-660 831,-660 831,-672 831,-672 831,-678 825,-684 819,-684"/>
<text text-anchor="middle" x="783.5" y="-662.3" font-family="Helvetica,sans-Serif" font-size="14.00">87.237.20.73</text>
</g>
<!-- 87.237.20.224&#45;&#45;87.237.20.73 -->
<g id="edge9" class="edge"><title>87.237.20.224&#45;&#45;87.237.20.73</title>
<path fill="none" stroke="black" d="M783.5,-719.697C783.5,-708.846 783.5,-694.917 783.5,-684.104"/>
</g>
<!-- 80.150.169.13 -->
<g id="node11" class="node"><title>80.150.169.13</title>
<path fill="lightgrey" stroke="white" d="M529,-612C529,-612 450,-612 450,-612 444,-612 438,-606 438,-600 438,-600 438,-588 438,-588 438,-582 444,-576 450,-576 450,-576 529,-576 529,-576 535,-576 541,-582 541,-588 541,-588 541,-600 541,-600 541,-606 535,-612 529,-612"/>
<text text-anchor="middle" x="489.5" y="-590.3" font-family="Helvetica,sans-Serif" font-size="14.00">80.150.169.13</text>
</g>
<!-- 87.237.20.73&#45;&#45;80.150.169.13 -->
<g id="edge10" class="edge"><title>87.237.20.73&#45;&#45;80.150.169.13</title>
<path fill="none" stroke="black" d="M735.937,-653.675C682.55,-640.964 596.223,-620.41 541.202,-607.31"/>
</g>
<!-- 74.125.52.218 -->
<g id="node20" class="node"><title>74.125.52.218</title>
<path fill="lightgrey" stroke="white" d="M748,-612C748,-612 669,-612 669,-612 663,-612 657,-606 657,-600 657,-600 657,-588 657,-588 657,-582 663,-576 669,-576 669,-576 748,-576 748,-576 754,-576 760,-582 760,-588 760,-588 760,-600 760,-600 760,-606 754,-612 748,-612"/>
<text text-anchor="middle" x="708.5" y="-590.3" font-family="Helvetica,sans-Serif" font-size="14.00">74.125.52.218</text>
</g>
<!-- 87.237.20.73&#45;&#45;74.125.52.218 -->
<g id="edge19" class="edge"><title>87.237.20.73&#45;&#45;74.125.52.218</title>
<path fill="none" stroke="black" d="M764.961,-647.697C753.335,-636.846 738.411,-622.917 726.826,-612.104"/>
</g>
<!-- 87.237.20.33 -->
<g id="node27" class="node"><title>87.237.20.33</title>
<path fill="lightgrey" stroke="white" d="M894,-612C894,-612 823,-612 823,-612 817,-612 811,-606 811,-600 811,-600 811,-588 811,-588 811,-582 817,-576 823,-576 823,-576 894,-576 894,-576 900,-576 906,-582 906,-588 906,-588 906,-600 906,-600 906,-606 900,-612 894,-612"/>
<text text-anchor="middle" x="858.5" y="-590.3" font-family="Helvetica,sans-Serif" font-size="14.00">87.237.20.33</text>
</g>
<!-- 87.237.20.73&#45;&#45;87.237.20.33 -->
<g id="edge27" class="edge"><title>87.237.20.73&#45;&#45;87.237.20.33</title>
<path fill="none" stroke="black" d="M802.039,-647.697C813.665,-636.846 828.589,-622.917 840.174,-612.104"/>
</g>
<!-- ae1&#45;0.lon10.core&#45;backbone.com -->
<g id="node39" class="node"><title>ae1&#45;0.lon10.core&#45;backbone.com</title>
<path fill="lightgrey" stroke="white" d="M1197,-612C1197,-612 1010,-612 1010,-612 1004,-612 998,-606 998,-600 998,-600 998,-588 998,-588 998,-582 1004,-576 1010,-576 1010,-576 1197,-576 1197,-576 1203,-576 1209,-582 1209,-588 1209,-588 1209,-600 1209,-600 1209,-606 1203,-612 1197,-612"/>
<text text-anchor="middle" x="1103.5" y="-590.3" font-family="Helvetica,sans-Serif" font-size="14.00">ae1&#45;0.lon10.core&#45;backbone.com</text>
</g>
<!-- 87.237.20.73&#45;&#45;ae1&#45;0.lon10.core&#45;backbone.com -->
<g id="edge40" class="edge"><title>87.237.20.73&#45;&#45;ae1&#45;0.lon10.core&#45;backbone.com</title>
<path fill="none" stroke="black" d="M831.062,-654.596C882.336,-643.38 964.761,-625.349 1025.54,-612.054"/>
</g>
<!-- 80.150.170.106 -->
<g id="node12" class="node"><title>80.150.170.106</title>
<path fill="lightgrey" stroke="white" d="M407.5,-540C407.5,-540 321.5,-540 321.5,-540 315.5,-540 309.5,-534 309.5,-528 309.5,-528 309.5,-516 309.5,-516 309.5,-510 315.5,-504 321.5,-504 321.5,-504 407.5,-504 407.5,-504 413.5,-504 419.5,-510 419.5,-516 419.5,-516 419.5,-528 419.5,-528 419.5,-534 413.5,-540 407.5,-540"/>
<text text-anchor="middle" x="364.5" y="-518.3" font-family="Helvetica,sans-Serif" font-size="14.00">80.150.170.106</text>
</g>
<!-- 80.150.169.13&#45;&#45;80.150.170.106 -->
<g id="edge11" class="edge"><title>80.150.169.13&#45;&#45;80.150.170.106</title>
<path fill="none" stroke="black" d="M458.922,-575.876C439.551,-565.029 414.589,-551.05 395.196,-540.19"/>
</g>
<!-- ae&#45;3.r24.londen12.uk.bb.gin.ntt.net -->
<g id="node13" class="node"><title>ae&#45;3.r24.londen12.uk.bb.gin.ntt.net</title>
<path fill="lightgrey" stroke="white" d="M217.5,-468C217.5,-468 15.5,-468 15.5,-468 9.5,-468 3.5,-462 3.5,-456 3.5,-456 3.5,-444 3.5,-444 3.5,-438 9.5,-432 15.5,-432 15.5,-432 217.5,-432 217.5,-432 223.5,-432 229.5,-438 229.5,-444 229.5,-444 229.5,-456 229.5,-456 229.5,-462 223.5,-468 217.5,-468"/>
<text text-anchor="middle" x="116.5" y="-446.3" font-family="Helvetica,sans-Serif" font-size="14.00">ae&#45;3.r24.londen12.uk.bb.gin.ntt.net</text>
</g>
<!-- 80.150.170.106&#45;&#45;ae&#45;3.r24.londen12.uk.bb.gin.ntt.net -->
<g id="edge12" class="edge"><title>80.150.170.106&#45;&#45;ae&#45;3.r24.londen12.uk.bb.gin.ntt.net</title>
<path fill="none" stroke="black" d="M309.461,-505.465C270.218,-494.388 217.464,-479.498 177.034,-468.086"/>
</g>
<!-- ae&#45;25.r00.londen10.uk.bb.gin.ntt.net -->
<g id="node24" class="node"><title>ae&#45;25.r00.londen10.uk.bb.gin.ntt.net</title>
<path fill="lightgrey" stroke="white" d="M469,-468C469,-468 260,-468 260,-468 254,-468 248,-462 248,-456 248,-456 248,-444 248,-444 248,-438 254,-432 260,-432 260,-432 469,-432 469,-432 475,-432 481,-438 481,-444 481,-444 481,-456 481,-456 481,-462 475,-468 469,-468"/>
<text text-anchor="middle" x="364.5" y="-446.3" font-family="Helvetica,sans-Serif" font-size="14.00">ae&#45;25.r00.londen10.uk.bb.gin.ntt.net</text>
</g>
<!-- 80.150.170.106&#45;&#45;ae&#45;25.r00.londen10.uk.bb.gin.ntt.net -->
<g id="edge24" class="edge"><title>80.150.170.106&#45;&#45;ae&#45;25.r00.londen10.uk.bb.gin.ntt.net</title>
<path fill="none" stroke="black" d="M364.5,-503.697C364.5,-492.846 364.5,-478.917 364.5,-468.104"/>
</g>
<!-- ae&#45;5.r24.nycmny01.us.bb.gin.ntt.net -->
<g id="node14" class="node"><title>ae&#45;5.r24.nycmny01.us.bb.gin.ntt.net</title>
<path fill="lightgrey" stroke="white" d="M221,-396C221,-396 12,-396 12,-396 6,-396 1.42109e-14,-390 1.42109e-14,-384 1.42109e-14,-384 1.42109e-14,-372 1.42109e-14,-372 1.42109e-14,-366 6,-360 12,-360 12,-360 221,-360 221,-360 227,-360 233,-366 233,-372 233,-372 233,-384 233,-384 233,-390 227,-396 221,-396"/>
<text text-anchor="middle" x="116.5" y="-374.3" font-family="Helvetica,sans-Serif" font-size="14.00">ae&#45;5.r24.nycmny01.us.bb.gin.ntt.net</text>
</g>
<!-- ae&#45;3.r24.londen12.uk.bb.gin.ntt.net&#45;&#45;ae&#45;5.r24.nycmny01.us.bb.gin.ntt.net -->
<g id="edge13" class="edge"><title>ae&#45;3.r24.londen12.uk.bb.gin.ntt.net&#45;&#45;ae&#45;5.r24.nycmny01.us.bb.gin.ntt.net</title>
<path fill="none" stroke="black" d="M116.5,-431.697C116.5,-420.846 116.5,-406.917 116.5,-396.104"/>
</g>
<!-- ae&#45;1.r25.nycmny01.us.bb.gin.ntt.net -->
<g id="node15" class="node"><title>ae&#45;1.r25.nycmny01.us.bb.gin.ntt.net</title>
<path fill="lightgrey" stroke="white" d="M221,-324C221,-324 12,-324 12,-324 6,-324 1.42109e-14,-318 1.42109e-14,-312 1.42109e-14,-312 1.42109e-14,-300 1.42109e-14,-300 1.42109e-14,-294 6,-288 12,-288 12,-288 221,-288 221,-288 227,-288 233,-294 233,-300 233,-300 233,-312 233,-312 233,-318 227,-324 221,-324"/>
<text text-anchor="middle" x="116.5" y="-302.3" font-family="Helvetica,sans-Serif" font-size="14.00">ae&#45;1.r25.nycmny01.us.bb.gin.ntt.net</text>
</g>
<!-- ae&#45;5.r24.nycmny01.us.bb.gin.ntt.net&#45;&#45;ae&#45;1.r25.nycmny01.us.bb.gin.ntt.net -->
<g id="edge14" class="edge"><title>ae&#45;5.r24.nycmny01.us.bb.gin.ntt.net&#45;&#45;ae&#45;1.r25.nycmny01.us.bb.gin.ntt.net</title>
<path fill="none" stroke="black" d="M116.5,-359.697C116.5,-348.846 116.5,-334.917 116.5,-324.104"/>
</g>
<!-- ae&#45;9.r22.asbnva02.us.bb.gin.ntt.net -->
<g id="node16" class="node"><title>ae&#45;9.r22.asbnva02.us.bb.gin.ntt.net</title>
<path fill="lightgrey" stroke="white" d="M219,-252C219,-252 14,-252 14,-252 8,-252 2,-246 2,-240 2,-240 2,-228 2,-228 2,-222 8,-216 14,-216 14,-216 219,-216 219,-216 225,-216 231,-222 231,-228 231,-228 231,-240 231,-240 231,-246 225,-252 219,-252"/>
<text text-anchor="middle" x="116.5" y="-230.3" font-family="Helvetica,sans-Serif" font-size="14.00">ae&#45;9.r22.asbnva02.us.bb.gin.ntt.net</text>
</g>
<!-- ae&#45;1.r25.nycmny01.us.bb.gin.ntt.net&#45;&#45;ae&#45;9.r22.asbnva02.us.bb.gin.ntt.net -->
<g id="edge15" class="edge"><title>ae&#45;1.r25.nycmny01.us.bb.gin.ntt.net&#45;&#45;ae&#45;9.r22.asbnva02.us.bb.gin.ntt.net</title>
<path fill="none" stroke="black" d="M116.5,-287.697C116.5,-276.846 116.5,-262.917 116.5,-252.104"/>
</g>
<!-- ae&#45;1.r05.asbnva02.us.bb.gin.ntt.net -->
<g id="node17" class="node"><title>ae&#45;1.r05.asbnva02.us.bb.gin.ntt.net</title>
<path fill="lightgrey" stroke="white" d="M219,-180C219,-180 14,-180 14,-180 8,-180 2,-174 2,-168 2,-168 2,-156 2,-156 2,-150 8,-144 14,-144 14,-144 219,-144 219,-144 225,-144 231,-150 231,-156 231,-156 231,-168 231,-168 231,-174 225,-180 219,-180"/>
<text text-anchor="middle" x="116.5" y="-158.3" font-family="Helvetica,sans-Serif" font-size="14.00">ae&#45;1.r05.asbnva02.us.bb.gin.ntt.net</text>
</g>
<!-- ae&#45;9.r22.asbnva02.us.bb.gin.ntt.net&#45;&#45;ae&#45;1.r05.asbnva02.us.bb.gin.ntt.net -->
<g id="edge16" class="edge"><title>ae&#45;9.r22.asbnva02.us.bb.gin.ntt.net&#45;&#45;ae&#45;1.r05.asbnva02.us.bb.gin.ntt.net</title>
<path fill="none" stroke="black" d="M116.5,-215.697C116.5,-204.846 116.5,-190.917 116.5,-180.104"/>
</g>
<!-- ae&#45;0.a03.asbnva02.us.bb.gin.ntt.net -->
<g id="node18" class="node"><title>ae&#45;0.a03.asbnva02.us.bb.gin.ntt.net</title>
<path fill="lightgrey" stroke="white" d="M220.5,-108C220.5,-108 12.5,-108 12.5,-108 6.5,-108 0.5,-102 0.5,-96 0.5,-96 0.5,-84 0.5,-84 0.5,-78 6.5,-72 12.5,-72 12.5,-72 220.5,-72 220.5,-72 226.5,-72 232.5,-78 232.5,-84 232.5,-84 232.5,-96 232.5,-96 232.5,-102 226.5,-108 220.5,-108"/>
<text text-anchor="middle" x="116.5" y="-86.3" font-family="Helvetica,sans-Serif" font-size="14.00">ae&#45;0.a03.asbnva02.us.bb.gin.ntt.net</text>
</g>
<!-- ae&#45;1.r05.asbnva02.us.bb.gin.ntt.net&#45;&#45;ae&#45;0.a03.asbnva02.us.bb.gin.ntt.net -->
<g id="edge17" class="edge"><title>ae&#45;1.r05.asbnva02.us.bb.gin.ntt.net&#45;&#45;ae&#45;0.a03.asbnva02.us.bb.gin.ntt.net</title>
<path fill="none" stroke="black" d="M116.5,-143.697C116.5,-132.846 116.5,-118.917 116.5,-108.104"/>
</g>
<!-- ae&#45;0.a03.asbnva02.us.bb.gin.ntt.net&#45;&#45;192.30.253.113 &#45;&#45; github -->
<g id="edge18" class="edge"><title>ae&#45;0.a03.asbnva02.us.bb.gin.ntt.net&#45;&#45;192.30.253.113 &#45;&#45; github</title>
<path fill="none" stroke="black" d="M116.5,-71.6966C116.5,-60.8463 116.5,-46.9167 116.5,-36.1043"/>
</g>
<!-- 216.58.213.99 google -->
<g id="node19" class="node"><title>216.58.213.99 google</title>
<path fill="green" stroke="white" d="M599,-540C599,-540 476,-540 476,-540 470,-540 464,-534 464,-528 464,-528 464,-516 464,-516 464,-510 470,-504 476,-504 476,-504 599,-504 599,-504 605,-504 611,-510 611,-516 611,-516 611,-528 611,-528 611,-534 605,-540 599,-540"/>
<text text-anchor="middle" x="537.5" y="-518.3" font-family="Helvetica,sans-Serif" font-size="14.00" fill="white">216.58.213.99 google</text>
</g>
<!-- 74.125.52.218&#45;&#45;216.58.213.99 google -->
<g id="edge20" class="edge"><title>74.125.52.218&#45;&#45;216.58.213.99 google</title>
<path fill="none" stroke="black" d="M666.669,-575.876C640.071,-564.988 605.767,-550.945 579.195,-540.068"/>
</g>
<!-- youtube.com # youtube -->
<g id="node21" class="node"><title>youtube.com # youtube</title>
<path fill="green" stroke="white" d="M775.5,-540C775.5,-540 641.5,-540 641.5,-540 635.5,-540 629.5,-534 629.5,-528 629.5,-528 629.5,-516 629.5,-516 629.5,-510 635.5,-504 641.5,-504 641.5,-504 775.5,-504 775.5,-504 781.5,-504 787.5,-510 787.5,-516 787.5,-516 787.5,-528 787.5,-528 787.5,-534 781.5,-540 775.5,-540"/>
<text text-anchor="middle" x="708.5" y="-518.3" font-family="Helvetica,sans-Serif" font-size="14.00" fill="white">youtube.com # youtube</text>
</g>
<!-- 74.125.52.218&#45;&#45;youtube.com # youtube -->
<g id="edge23" class="edge"><title>74.125.52.218&#45;&#45;youtube.com # youtube</title>
<path fill="none" stroke="black" d="M708.5,-575.697C708.5,-564.846 708.5,-550.917 708.5,-540.104"/>
</g>
<!-- 10.248.28.153&#45;&#45;10.247.84.6 -->
<g id="edge22" class="edge"><title>10.248.28.153&#45;&#45;10.247.84.6</title>
<path fill="none" stroke="black" d="M829.421,-935.697C819.966,-924.846 807.827,-910.917 798.405,-900.104"/>
</g>
<!-- deanturpin.github.io -->
<g id="node23" class="node"><title>deanturpin.github.io</title>
<path fill="green" stroke="white" d="M420,-324C420,-324 309,-324 309,-324 303,-324 297,-318 297,-312 297,-312 297,-300 297,-300 297,-294 303,-288 309,-288 309,-288 420,-288 420,-288 426,-288 432,-294 432,-300 432,-300 432,-312 432,-312 432,-318 426,-324 420,-324"/>
<text text-anchor="middle" x="364.5" y="-302.3" font-family="Helvetica,sans-Serif" font-size="14.00" fill="white">deanturpin.github.io</text>
</g>
<!-- 151.101.17.147 -->
<g id="node25" class="node"><title>151.101.17.147</title>
<path fill="lightgrey" stroke="white" d="M407.5,-396C407.5,-396 321.5,-396 321.5,-396 315.5,-396 309.5,-390 309.5,-384 309.5,-384 309.5,-372 309.5,-372 309.5,-366 315.5,-360 321.5,-360 321.5,-360 407.5,-360 407.5,-360 413.5,-360 419.5,-366 419.5,-372 419.5,-372 419.5,-384 419.5,-384 419.5,-390 413.5,-396 407.5,-396"/>
<text text-anchor="middle" x="364.5" y="-374.3" font-family="Helvetica,sans-Serif" font-size="14.00">151.101.17.147</text>
</g>
<!-- ae&#45;25.r00.londen10.uk.bb.gin.ntt.net&#45;&#45;151.101.17.147 -->
<g id="edge25" class="edge"><title>ae&#45;25.r00.londen10.uk.bb.gin.ntt.net&#45;&#45;151.101.17.147</title>
<path fill="none" stroke="black" d="M364.5,-431.697C364.5,-420.846 364.5,-406.917 364.5,-396.104"/>
</g>
<!-- 151.101.17.147&#45;&#45;deanturpin.github.io -->
<g id="edge26" class="edge"><title>151.101.17.147&#45;&#45;deanturpin.github.io</title>
<path fill="none" stroke="black" d="M364.5,-359.697C364.5,-348.846 364.5,-334.917 364.5,-324.104"/>
</g>
<!-- thebunker.net -->
<g id="node26" class="node"><title>thebunker.net</title>
<path fill="green" stroke="white" d="M558,-324C558,-324 483,-324 483,-324 477,-324 471,-318 471,-312 471,-312 471,-300 471,-300 471,-294 477,-288 483,-288 483,-288 558,-288 558,-288 564,-288 570,-294 570,-300 570,-300 570,-312 570,-312 570,-318 564,-324 558,-324"/>
<text text-anchor="middle" x="520.5" y="-302.3" font-family="Helvetica,sans-Serif" font-size="14.00" fill="white">thebunker.net</text>
</g>
<!-- linx1.orbital.net -->
<g id="node28" class="node"><title>linx1.orbital.net</title>
<path fill="lightgrey" stroke="white" d="M900,-540C900,-540 817,-540 817,-540 811,-540 805,-534 805,-528 805,-528 805,-516 805,-516 805,-510 811,-504 817,-504 817,-504 900,-504 900,-504 906,-504 912,-510 912,-516 912,-516 912,-528 912,-528 912,-534 906,-540 900,-540"/>
<text text-anchor="middle" x="858.5" y="-518.3" font-family="Helvetica,sans-Serif" font-size="14.00">linx1.orbital.net</text>
</g>
<!-- 87.237.20.33&#45;&#45;linx1.orbital.net -->
<g id="edge28" class="edge"><title>87.237.20.33&#45;&#45;linx1.orbital.net</title>
<path fill="none" stroke="black" d="M858.5,-575.697C858.5,-564.846 858.5,-550.917 858.5,-540.104"/>
</g>
<!-- 195.66.225.215 -->
<g id="node35" class="node"><title>195.66.225.215</title>
<path fill="lightgrey" stroke="white" d="M1041.5,-540C1041.5,-540 955.5,-540 955.5,-540 949.5,-540 943.5,-534 943.5,-528 943.5,-528 943.5,-516 943.5,-516 943.5,-510 949.5,-504 955.5,-504 955.5,-504 1041.5,-504 1041.5,-504 1047.5,-504 1053.5,-510 1053.5,-516 1053.5,-516 1053.5,-528 1053.5,-528 1053.5,-534 1047.5,-540 1041.5,-540"/>
<text text-anchor="middle" x="998.5" y="-518.3" font-family="Helvetica,sans-Serif" font-size="14.00">195.66.225.215</text>
</g>
<!-- 87.237.20.33&#45;&#45;195.66.225.215 -->
<g id="edge36" class="edge"><title>87.237.20.33&#45;&#45;195.66.225.215</title>
<path fill="none" stroke="black" d="M892.748,-575.876C914.443,-565.029 942.4,-551.05 964.12,-540.19"/>
</g>
<!-- xe2&#45;2&#45;ve&#45;83.thn&#45;pe&#45;2.thn.thebunker.net.202.88.80.in&#45;addr.arpa -->
<g id="node29" class="node"><title>xe2&#45;2&#45;ve&#45;83.thn&#45;pe&#45;2.thn.thebunker.net.202.88.80.in&#45;addr.arpa</title>
<path fill="lightgrey" stroke="white" d="M879.5,-468C879.5,-468 511.5,-468 511.5,-468 505.5,-468 499.5,-462 499.5,-456 499.5,-456 499.5,-444 499.5,-444 499.5,-438 505.5,-432 511.5,-432 511.5,-432 879.5,-432 879.5,-432 885.5,-432 891.5,-438 891.5,-444 891.5,-444 891.5,-456 891.5,-456 891.5,-462 885.5,-468 879.5,-468"/>
<text text-anchor="middle" x="695.5" y="-446.3" font-family="Helvetica,sans-Serif" font-size="14.00">xe2&#45;2&#45;ve&#45;83.thn&#45;pe&#45;2.thn.thebunker.net.202.88.80.in&#45;addr.arpa</text>
</g>
<!-- linx1.orbital.net&#45;&#45;xe2&#45;2&#45;ve&#45;83.thn&#45;pe&#45;2.thn.thebunker.net.202.88.80.in&#45;addr.arpa -->
<g id="edge29" class="edge"><title>linx1.orbital.net&#45;&#45;xe2&#45;2&#45;ve&#45;83.thn&#45;pe&#45;2.thn.thebunker.net.202.88.80.in&#45;addr.arpa</title>
<path fill="none" stroke="black" d="M818.626,-503.876C793.273,-492.988 760.573,-478.945 735.245,-468.068"/>
</g>
<!-- 213.129.78.90 -->
<g id="node30" class="node"><title>213.129.78.90</title>
<path fill="lightgrey" stroke="white" d="M560,-396C560,-396 481,-396 481,-396 475,-396 469,-390 469,-384 469,-384 469,-372 469,-372 469,-366 475,-360 481,-360 481,-360 560,-360 560,-360 566,-360 572,-366 572,-372 572,-372 572,-384 572,-384 572,-390 566,-396 560,-396"/>
<text text-anchor="middle" x="520.5" y="-374.3" font-family="Helvetica,sans-Serif" font-size="14.00">213.129.78.90</text>
</g>
<!-- xe2&#45;2&#45;ve&#45;83.thn&#45;pe&#45;2.thn.thebunker.net.202.88.80.in&#45;addr.arpa&#45;&#45;213.129.78.90 -->
<g id="edge30" class="edge"><title>xe2&#45;2&#45;ve&#45;83.thn&#45;pe&#45;2.thn.thebunker.net.202.88.80.in&#45;addr.arpa&#45;&#45;213.129.78.90</title>
<path fill="none" stroke="black" d="M652.69,-431.876C625.47,-420.988 590.364,-406.945 563.171,-396.068"/>
</g>
<!-- infinityfoods.coop -->
<g id="node31" class="node"><title>infinityfoods.coop</title>
<path fill="green" stroke="white" d="M699,-396C699,-396 602,-396 602,-396 596,-396 590,-390 590,-384 590,-384 590,-372 590,-372 590,-366 596,-360 602,-360 602,-360 699,-360 699,-360 705,-360 711,-366 711,-372 711,-372 711,-384 711,-384 711,-390 705,-396 699,-396"/>
<text text-anchor="middle" x="650.5" y="-374.3" font-family="Helvetica,sans-Serif" font-size="14.00" fill="white">infinityfoods.coop</text>
</g>
<!-- xe2&#45;2&#45;ve&#45;83.thn&#45;pe&#45;2.thn.thebunker.net.202.88.80.in&#45;addr.arpa&#45;&#45;infinityfoods.coop -->
<g id="edge35" class="edge"><title>xe2&#45;2&#45;ve&#45;83.thn&#45;pe&#45;2.thn.thebunker.net.202.88.80.in&#45;addr.arpa&#45;&#45;infinityfoods.coop</title>
<path fill="none" stroke="black" d="M684.376,-431.697C677.401,-420.846 668.446,-406.917 661.496,-396.104"/>
</g>
<!-- 213.129.70.253 -->
<g id="node32" class="node"><title>213.129.70.253</title>
<path fill="lightgrey" stroke="white" d="M827.5,-396C827.5,-396 741.5,-396 741.5,-396 735.5,-396 729.5,-390 729.5,-384 729.5,-384 729.5,-372 729.5,-372 729.5,-366 735.5,-360 741.5,-360 741.5,-360 827.5,-360 827.5,-360 833.5,-360 839.5,-366 839.5,-372 839.5,-372 839.5,-384 839.5,-384 839.5,-390 833.5,-396 827.5,-396"/>
<text text-anchor="middle" x="784.5" y="-374.3" font-family="Helvetica,sans-Serif" font-size="14.00">213.129.70.253</text>
</g>
<!-- xe2&#45;2&#45;ve&#45;83.thn&#45;pe&#45;2.thn.thebunker.net.202.88.80.in&#45;addr.arpa&#45;&#45;213.129.70.253 -->
<g id="edge32" class="edge"><title>xe2&#45;2&#45;ve&#45;83.thn&#45;pe&#45;2.thn.thebunker.net.202.88.80.in&#45;addr.arpa&#45;&#45;213.129.70.253</title>
<path fill="none" stroke="black" d="M717.5,-431.697C731.295,-420.846 749.006,-406.917 762.753,-396.104"/>
</g>
<!-- 213.129.78.90&#45;&#45;thebunker.net -->
<g id="edge31" class="edge"><title>213.129.78.90&#45;&#45;thebunker.net</title>
<path fill="none" stroke="black" d="M520.5,-359.697C520.5,-348.846 520.5,-334.917 520.5,-324.104"/>
</g>
<!-- 213.129.70.237 -->
<g id="node33" class="node"><title>213.129.70.237</title>
<path fill="lightgrey" stroke="white" d="M855.5,-324C855.5,-324 769.5,-324 769.5,-324 763.5,-324 757.5,-318 757.5,-312 757.5,-312 757.5,-300 757.5,-300 757.5,-294 763.5,-288 769.5,-288 769.5,-288 855.5,-288 855.5,-288 861.5,-288 867.5,-294 867.5,-300 867.5,-300 867.5,-312 867.5,-312 867.5,-318 861.5,-324 855.5,-324"/>
<text text-anchor="middle" x="812.5" y="-302.3" font-family="Helvetica,sans-Serif" font-size="14.00">213.129.70.237</text>
</g>
<!-- 213.129.70.253&#45;&#45;213.129.70.237 -->
<g id="edge33" class="edge"><title>213.129.70.253&#45;&#45;213.129.70.237</title>
<path fill="none" stroke="black" d="M791.421,-359.697C795.761,-348.846 801.333,-334.917 805.658,-324.104"/>
</g>
<!-- 213.129.70.237&#45;&#45;xe2&#45;2&#45;ve&#45;83.thn&#45;pe&#45;2.thn.thebunker.net.202.88.80.in&#45;addr.arpa -->
<g id="edge34" class="edge"><title>213.129.70.237&#45;&#45;xe2&#45;2&#45;ve&#45;83.thn&#45;pe&#45;2.thn.thebunker.net.202.88.80.in&#45;addr.arpa</title>
<path fill="none" stroke="black" d="M828.959,-324.25C844.884,-343.1 864.449,-373.596 848.5,-396 836.68,-412.603 819.284,-424.053 800.418,-431.937"/>
</g>
<!-- silobrighton.com # zero waste -->
<g id="node34" class="node"><title>silobrighton.com # zero waste</title>
<path fill="red" stroke="white" d="M1098.5,-324C1098.5,-324 926.5,-324 926.5,-324 920.5,-324 914.5,-318 914.5,-312 914.5,-312 914.5,-300 914.5,-300 914.5,-294 920.5,-288 926.5,-288 926.5,-288 1098.5,-288 1098.5,-288 1104.5,-288 1110.5,-294 1110.5,-300 1110.5,-300 1110.5,-312 1110.5,-312 1110.5,-318 1104.5,-324 1098.5,-324"/>
<text text-anchor="middle" x="1012.5" y="-302.3" font-family="Helvetica,sans-Serif" font-size="14.00" fill="white">silobrighton.com # zero waste</text>
</g>
<!-- 4d&#45;lgw&#45;bbr&#45;2&#45;0002&#45;6.4d&#45;dc.com -->
<g id="node36" class="node"><title>4d&#45;lgw&#45;bbr&#45;2&#45;0002&#45;6.4d&#45;dc.com</title>
<path fill="lightgrey" stroke="white" d="M1103.5,-468C1103.5,-468 921.5,-468 921.5,-468 915.5,-468 909.5,-462 909.5,-456 909.5,-456 909.5,-444 909.5,-444 909.5,-438 915.5,-432 921.5,-432 921.5,-432 1103.5,-432 1103.5,-432 1109.5,-432 1115.5,-438 1115.5,-444 1115.5,-444 1115.5,-456 1115.5,-456 1115.5,-462 1109.5,-468 1103.5,-468"/>
<text text-anchor="middle" x="1012.5" y="-446.3" font-family="Helvetica,sans-Serif" font-size="14.00">4d&#45;lgw&#45;bbr&#45;2&#45;0002&#45;6.4d&#45;dc.com</text>
</g>
<!-- 195.66.225.215&#45;&#45;4d&#45;lgw&#45;bbr&#45;2&#45;0002&#45;6.4d&#45;dc.com -->
<g id="edge37" class="edge"><title>195.66.225.215&#45;&#45;4d&#45;lgw&#45;bbr&#45;2&#45;0002&#45;6.4d&#45;dc.com</title>
<path fill="none" stroke="black" d="M1001.96,-503.697C1004.13,-492.846 1006.92,-478.917 1009.08,-468.104"/>
</g>
<!-- 4d&#45;lgw&#45;men&#45;2&#45;024.4d&#45;dc.com -->
<g id="node37" class="node"><title>4d&#45;lgw&#45;men&#45;2&#45;024.4d&#45;dc.com</title>
<path fill="lightgrey" stroke="white" d="M1097.5,-396C1097.5,-396 927.5,-396 927.5,-396 921.5,-396 915.5,-390 915.5,-384 915.5,-384 915.5,-372 915.5,-372 915.5,-366 921.5,-360 927.5,-360 927.5,-360 1097.5,-360 1097.5,-360 1103.5,-360 1109.5,-366 1109.5,-372 1109.5,-372 1109.5,-384 1109.5,-384 1109.5,-390 1103.5,-396 1097.5,-396"/>
<text text-anchor="middle" x="1012.5" y="-374.3" font-family="Helvetica,sans-Serif" font-size="14.00">4d&#45;lgw&#45;men&#45;2&#45;024.4d&#45;dc.com</text>
</g>
<!-- 4d&#45;lgw&#45;bbr&#45;2&#45;0002&#45;6.4d&#45;dc.com&#45;&#45;4d&#45;lgw&#45;men&#45;2&#45;024.4d&#45;dc.com -->
<g id="edge38" class="edge"><title>4d&#45;lgw&#45;bbr&#45;2&#45;0002&#45;6.4d&#45;dc.com&#45;&#45;4d&#45;lgw&#45;men&#45;2&#45;024.4d&#45;dc.com</title>
<path fill="none" stroke="black" d="M1012.5,-431.697C1012.5,-420.846 1012.5,-406.917 1012.5,-396.104"/>
</g>
<!-- 4d&#45;lgw&#45;men&#45;2&#45;024.4d&#45;dc.com&#45;&#45;silobrighton.com # zero waste -->
<g id="edge39" class="edge"><title>4d&#45;lgw&#45;men&#45;2&#45;024.4d&#45;dc.com&#45;&#45;silobrighton.com # zero waste</title>
<path fill="none" stroke="black" d="M1012.5,-359.697C1012.5,-348.846 1012.5,-334.917 1012.5,-324.104"/>
</g>
<!-- rate.sx # curl for bitcoin rates -->
<g id="node38" class="node"><title>rate.sx # curl for bitcoin rates</title>
<path fill="green" stroke="white" d="M1334.5,-36C1334.5,-36 1168.5,-36 1168.5,-36 1162.5,-36 1156.5,-30 1156.5,-24 1156.5,-24 1156.5,-12 1156.5,-12 1156.5,-6 1162.5,-0 1168.5,-0 1168.5,-0 1334.5,-0 1334.5,-0 1340.5,-0 1346.5,-6 1346.5,-12 1346.5,-12 1346.5,-24 1346.5,-24 1346.5,-30 1340.5,-36 1334.5,-36"/>
<text text-anchor="middle" x="1251.5" y="-14.3" font-family="Helvetica,sans-Serif" font-size="14.00" fill="white">rate.sx # curl for bitcoin rates</text>
</g>
<!-- ae1&#45;2014.nbg40.core&#45;backbone.com -->
<g id="node40" class="node"><title>ae1&#45;2014.nbg40.core&#45;backbone.com</title>
<path fill="lightgrey" stroke="white" d="M1327.5,-540C1327.5,-540 1113.5,-540 1113.5,-540 1107.5,-540 1101.5,-534 1101.5,-528 1101.5,-528 1101.5,-516 1101.5,-516 1101.5,-510 1107.5,-504 1113.5,-504 1113.5,-504 1327.5,-504 1327.5,-504 1333.5,-504 1339.5,-510 1339.5,-516 1339.5,-516 1339.5,-528 1339.5,-528 1339.5,-534 1333.5,-540 1327.5,-540"/>
<text text-anchor="middle" x="1220.5" y="-518.3" font-family="Helvetica,sans-Serif" font-size="14.00">ae1&#45;2014.nbg40.core&#45;backbone.com</text>
</g>
<!-- ae1&#45;0.lon10.core&#45;backbone.com&#45;&#45;ae1&#45;2014.nbg40.core&#45;backbone.com -->
<g id="edge41" class="edge"><title>ae1&#45;0.lon10.core&#45;backbone.com&#45;&#45;ae1&#45;2014.nbg40.core&#45;backbone.com</title>
<path fill="none" stroke="black" d="M1132.12,-575.876C1150.25,-565.029 1173.62,-551.05 1191.77,-540.19"/>
</g>
<!-- core&#45;backbone&#45;100g&#45;nbg.hetzner.de -->
<g id="node41" class="node"><title>core&#45;backbone&#45;100g&#45;nbg.hetzner.de</title>
<path fill="lightgrey" stroke="white" d="M1357,-468C1357,-468 1146,-468 1146,-468 1140,-468 1134,-462 1134,-456 1134,-456 1134,-444 1134,-444 1134,-438 1140,-432 1146,-432 1146,-432 1357,-432 1357,-432 1363,-432 1369,-438 1369,-444 1369,-444 1369,-456 1369,-456 1369,-462 1363,-468 1357,-468"/>
<text text-anchor="middle" x="1251.5" y="-446.3" font-family="Helvetica,sans-Serif" font-size="14.00">core&#45;backbone&#45;100g&#45;nbg.hetzner.de</text>
</g>
<!-- ae1&#45;2014.nbg40.core&#45;backbone.com&#45;&#45;core&#45;backbone&#45;100g&#45;nbg.hetzner.de -->
<g id="edge42" class="edge"><title>ae1&#45;2014.nbg40.core&#45;backbone.com&#45;&#45;core&#45;backbone&#45;100g&#45;nbg.hetzner.de</title>
<path fill="none" stroke="black" d="M1228.16,-503.697C1232.97,-492.846 1239.14,-478.917 1243.93,-468.104"/>
</g>
<!-- core12.nbg1.hetzner.com -->
<g id="node42" class="node"><title>core12.nbg1.hetzner.com</title>
<path fill="lightgrey" stroke="white" d="M1324.5,-396C1324.5,-396 1178.5,-396 1178.5,-396 1172.5,-396 1166.5,-390 1166.5,-384 1166.5,-384 1166.5,-372 1166.5,-372 1166.5,-366 1172.5,-360 1178.5,-360 1178.5,-360 1324.5,-360 1324.5,-360 1330.5,-360 1336.5,-366 1336.5,-372 1336.5,-372 1336.5,-384 1336.5,-384 1336.5,-390 1330.5,-396 1324.5,-396"/>
<text text-anchor="middle" x="1251.5" y="-374.3" font-family="Helvetica,sans-Serif" font-size="14.00">core12.nbg1.hetzner.com</text>
</g>
<!-- core&#45;backbone&#45;100g&#45;nbg.hetzner.de&#45;&#45;core12.nbg1.hetzner.com -->
<g id="edge43" class="edge"><title>core&#45;backbone&#45;100g&#45;nbg.hetzner.de&#45;&#45;core12.nbg1.hetzner.com</title>
<path fill="none" stroke="black" d="M1251.5,-431.697C1251.5,-420.846 1251.5,-406.917 1251.5,-396.104"/>
</g>
<!-- core23.fsn1.hetzner.com -->
<g id="node43" class="node"><title>core23.fsn1.hetzner.com</title>
<path fill="lightgrey" stroke="white" d="M1322.5,-324C1322.5,-324 1180.5,-324 1180.5,-324 1174.5,-324 1168.5,-318 1168.5,-312 1168.5,-312 1168.5,-300 1168.5,-300 1168.5,-294 1174.5,-288 1180.5,-288 1180.5,-288 1322.5,-288 1322.5,-288 1328.5,-288 1334.5,-294 1334.5,-300 1334.5,-300 1334.5,-312 1334.5,-312 1334.5,-318 1328.5,-324 1322.5,-324"/>
<text text-anchor="middle" x="1251.5" y="-302.3" font-family="Helvetica,sans-Serif" font-size="14.00">core23.fsn1.hetzner.com</text>
</g>
<!-- core12.nbg1.hetzner.com&#45;&#45;core23.fsn1.hetzner.com -->
<g id="edge44" class="edge"><title>core12.nbg1.hetzner.com&#45;&#45;core23.fsn1.hetzner.com</title>
<path fill="none" stroke="black" d="M1251.5,-359.697C1251.5,-348.846 1251.5,-334.917 1251.5,-324.104"/>
</g>
<!-- ex9k1.dc7.fsn1.hetzner.com -->
<g id="node44" class="node"><title>ex9k1.dc7.fsn1.hetzner.com</title>
<path fill="lightgrey" stroke="white" d="M1332.5,-252C1332.5,-252 1170.5,-252 1170.5,-252 1164.5,-252 1158.5,-246 1158.5,-240 1158.5,-240 1158.5,-228 1158.5,-228 1158.5,-222 1164.5,-216 1170.5,-216 1170.5,-216 1332.5,-216 1332.5,-216 1338.5,-216 1344.5,-222 1344.5,-228 1344.5,-228 1344.5,-240 1344.5,-240 1344.5,-246 1338.5,-252 1332.5,-252"/>
<text text-anchor="middle" x="1251.5" y="-230.3" font-family="Helvetica,sans-Serif" font-size="14.00">ex9k1.dc7.fsn1.hetzner.com</text>
</g>
<!-- core23.fsn1.hetzner.com&#45;&#45;ex9k1.dc7.fsn1.hetzner.com -->
<g id="edge45" class="edge"><title>core23.fsn1.hetzner.com&#45;&#45;ex9k1.dc7.fsn1.hetzner.com</title>
<path fill="none" stroke="black" d="M1251.5,-287.697C1251.5,-276.846 1251.5,-262.917 1251.5,-252.104"/>
</g>
<!-- static.118.29.9.5.clients.your&#45;server.de -->
<g id="node45" class="node"><title>static.118.29.9.5.clients.your&#45;server.de</title>
<path fill="lightgrey" stroke="white" d="M1363.5,-180C1363.5,-180 1139.5,-180 1139.5,-180 1133.5,-180 1127.5,-174 1127.5,-168 1127.5,-168 1127.5,-156 1127.5,-156 1127.5,-150 1133.5,-144 1139.5,-144 1139.5,-144 1363.5,-144 1363.5,-144 1369.5,-144 1375.5,-150 1375.5,-156 1375.5,-156 1375.5,-168 1375.5,-168 1375.5,-174 1369.5,-180 1363.5,-180"/>
<text text-anchor="middle" x="1251.5" y="-158.3" font-family="Helvetica,sans-Serif" font-size="14.00">static.118.29.9.5.clients.your&#45;server.de</text>
</g>
<!-- ex9k1.dc7.fsn1.hetzner.com&#45;&#45;static.118.29.9.5.clients.your&#45;server.de -->
<g id="edge46" class="edge"><title>ex9k1.dc7.fsn1.hetzner.com&#45;&#45;static.118.29.9.5.clients.your&#45;server.de</title>
<path fill="none" stroke="black" d="M1251.5,-215.697C1251.5,-204.846 1251.5,-190.917 1251.5,-180.104"/>
</g>
<!-- cheat.sh -->
<g id="node46" class="node"><title>cheat.sh</title>
<path fill="lightgrey" stroke="white" d="M1273.5,-108C1273.5,-108 1229.5,-108 1229.5,-108 1223.5,-108 1217.5,-102 1217.5,-96 1217.5,-96 1217.5,-84 1217.5,-84 1217.5,-78 1223.5,-72 1229.5,-72 1229.5,-72 1273.5,-72 1273.5,-72 1279.5,-72 1285.5,-78 1285.5,-84 1285.5,-84 1285.5,-96 1285.5,-96 1285.5,-102 1279.5,-108 1273.5,-108"/>
<text text-anchor="middle" x="1251.5" y="-86.3" font-family="Helvetica,sans-Serif" font-size="14.00">cheat.sh</text>
</g>
<!-- static.118.29.9.5.clients.your&#45;server.de&#45;&#45;cheat.sh -->
<g id="edge47" class="edge"><title>static.118.29.9.5.clients.your&#45;server.de&#45;&#45;cheat.sh</title>
<path fill="none" stroke="black" d="M1251.5,-143.697C1251.5,-132.846 1251.5,-118.917 1251.5,-108.104"/>
</g>
<!-- cheat.sh&#45;&#45;rate.sx # curl for bitcoin rates -->
<g id="edge48" class="edge"><title>cheat.sh&#45;&#45;rate.sx # curl for bitcoin rates</title>
<path fill="none" stroke="black" d="M1251.5,-71.6966C1251.5,-60.8463 1251.5,-46.9167 1251.5,-36.1043"/>
</g>
</g>
</svg>
